<?xml version="1.0" encoding="utf-8"?>
<!-- Generator: Adobe Illustrator 16.0.0, SVG Export Plug-In . SVG Version: 6.00 Build 0)  -->
<!DOCTYPE svg PUBLIC "-//W3C//DTD SVG 1.1//EN" "http://www.w3.org/Graphics/SVG/1.1/DTD/svg11.dtd">
<svg version="1.1" xmlns="http://www.w3.org/2000/svg" xmlns:xlink="http://www.w3.org/1999/xlink" x="0px" y="0px"
	 width="297.03px" height="176px" viewBox="0 0 297.03 176" enable-background="new 0 0 297.03 176" xml:space="preserve">
<g id="_x3C_Guides_x3E_" display="none">
</g>
<g id="BG">
</g>
<g id="Laag_1">
	<g>
		<g>
			<path fill="#6D6E71" d="M41.891,163.453c0,0.384-0.204,0.576-0.612,0.576h-5.04c-0.192,0-0.348-0.06-0.468-0.18
				c-0.12-0.12-0.204-0.275-0.252-0.468l-1.296-5.904h-7.38l-1.296,5.904c-0.048,0.192-0.132,0.348-0.252,0.468
				c-0.121,0.121-0.276,0.18-0.468,0.18h-5.04c-0.408,0-0.612-0.192-0.612-0.576c0-0.023,0.005-0.048,0.018-0.072
				c0.012-0.023,0.018-0.06,0.018-0.108l5.364-22.32c0.216-0.864,0.528-1.56,0.936-2.088c0.408-0.527,0.882-0.93,1.422-1.206
				c0.54-0.275,1.122-0.462,1.746-0.558c0.624-0.095,1.248-0.144,1.872-0.144c0.624,0,1.242,0.048,1.854,0.144
				c0.612,0.096,1.188,0.283,1.728,0.558c0.54,0.276,1.014,0.679,1.422,1.206c0.408,0.528,0.72,1.224,0.936,2.088l5.364,22.32
				c0,0.048,0.006,0.084,0.018,0.108C41.885,163.405,41.891,163.429,41.891,163.453z M31.019,142.609
				c-0.048-0.192-0.096-0.33-0.144-0.414c-0.048-0.084-0.156-0.126-0.324-0.126c-0.265,0-0.432,0.18-0.504,0.54l-2.196,9.936h5.364
				L31.019,142.609z"/>
			<path fill="#6D6E71" d="M64.859,145.957c0,1.68-0.307,3.078-0.921,4.194c-0.614,1.116-1.426,2.01-2.437,2.682
				c-1.011,0.672-2.16,1.146-3.447,1.422c-1.288,0.276-2.605,0.414-3.952,0.414c-0.433,0-0.915-0.012-1.444-0.036
				c-0.53-0.023-1.023-0.048-1.48-0.072v8.748c0,0.192-0.072,0.36-0.216,0.504s-0.313,0.216-0.504,0.216h-4.644
				c-0.192,0-0.36-0.066-0.504-0.198c-0.144-0.131-0.216-0.293-0.216-0.486v-24.192c0-0.624,0.132-1.044,0.396-1.26
				c0.265-0.216,0.673-0.372,1.226-0.468c0.914-0.144,2.038-0.258,3.373-0.342c1.334-0.084,2.651-0.126,3.949-0.126
				c1.37,0,2.705,0.132,4.003,0.396s2.452,0.732,3.462,1.404c1.01,0.672,1.821,1.566,2.435,2.682c0.613,1.116,0.92,2.514,0.92,4.194
				V145.957z M58.703,145.633c0-1.296-0.39-2.214-1.17-2.754c-0.78-0.54-1.926-0.81-3.438-0.81c-0.121,0-0.324,0.006-0.612,0.018
				c-0.288,0.012-0.583,0.024-0.882,0.036c-0.3,0.012-0.588,0.024-0.864,0.036c-0.276,0.013-0.462,0.018-0.558,0.018v7.344
				c0.096,0,0.282,0.006,0.558,0.018c0.275,0.013,0.576,0.024,0.9,0.036c0.324,0.013,0.624,0.018,0.9,0.018s0.462,0,0.558,0
				c1.607,0,2.778-0.3,3.51-0.9c0.732-0.6,1.098-1.512,1.098-2.736V145.633z"/>
			<path fill="#6D6E71" d="M88.294,145.957c0,1.68-0.307,3.078-0.921,4.194c-0.614,1.116-1.426,2.01-2.437,2.682
				c-1.011,0.672-2.16,1.146-3.447,1.422c-1.288,0.276-2.605,0.414-3.952,0.414c-0.433,0-0.915-0.012-1.444-0.036
				c-0.53-0.023-1.023-0.048-1.48-0.072v8.748c0,0.192-0.072,0.36-0.216,0.504s-0.313,0.216-0.504,0.216H69.25
				c-0.192,0-0.36-0.066-0.504-0.198c-0.144-0.131-0.216-0.293-0.216-0.486v-24.192c0-0.624,0.132-1.044,0.396-1.26
				c0.265-0.216,0.673-0.372,1.226-0.468c0.914-0.144,2.038-0.258,3.373-0.342c1.334-0.084,2.651-0.126,3.949-0.126
				c1.37,0,2.705,0.132,4.003,0.396s2.452,0.732,3.462,1.404c1.01,0.672,1.821,1.566,2.435,2.682c0.613,1.116,0.92,2.514,0.92,4.194
				V145.957z M82.138,145.633c0-1.296-0.39-2.214-1.17-2.754c-0.78-0.54-1.926-0.81-3.438-0.81c-0.121,0-0.324,0.006-0.612,0.018
				c-0.288,0.012-0.583,0.024-0.882,0.036c-0.3,0.012-0.588,0.024-0.864,0.036c-0.276,0.013-0.462,0.018-0.558,0.018v7.344
				c0.096,0,0.282,0.006,0.558,0.018c0.275,0.013,0.576,0.024,0.9,0.036c0.324,0.013,0.624,0.018,0.9,0.018s0.462,0,0.558,0
				c1.607,0,2.778-0.3,3.51-0.9c0.732-0.6,1.098-1.512,1.098-2.736V145.633z"/>
			<path fill="#6D6E71" d="M109.102,156.469c0,0.96-0.168,1.908-0.504,2.844c-0.336,0.936-0.894,1.776-1.674,2.52
				c-0.78,0.744-1.794,1.35-3.042,1.818c-1.248,0.468-2.784,0.702-4.608,0.702c-1.44,0-2.707-0.072-3.798-0.216
				c-1.092-0.144-2.094-0.336-3.006-0.576c-0.192-0.048-0.36-0.132-0.504-0.252c-0.144-0.12-0.216-0.275-0.216-0.468v-3.528
				c0-0.264,0.06-0.444,0.18-0.54c0.12-0.096,0.276-0.144,0.468-0.144h0.108c0.36,0.048,0.858,0.096,1.494,0.144
				c0.635,0.048,1.29,0.09,1.962,0.126c0.671,0.036,1.314,0.072,1.926,0.108c0.612,0.036,1.098,0.054,1.458,0.054
				c1.248,0,2.094-0.204,2.538-0.612c0.444-0.408,0.666-1.044,0.666-1.908c0-0.528-0.162-0.978-0.486-1.35
				c-0.324-0.372-0.954-0.833-1.89-1.386l-4.968-2.952c-0.84-0.504-1.53-1.02-2.07-1.548c-0.54-0.527-0.972-1.08-1.296-1.656
				c-0.324-0.576-0.552-1.17-0.684-1.782c-0.132-0.612-0.198-1.242-0.198-1.89c0-0.984,0.149-1.902,0.45-2.754
				c0.3-0.852,0.81-1.596,1.53-2.232c0.72-0.636,1.667-1.134,2.844-1.494c1.176-0.36,2.64-0.54,4.392-0.54
				c0.648,0,1.35,0.024,2.106,0.072c0.756,0.048,1.481,0.108,2.178,0.18c0.696,0.072,1.344,0.156,1.944,0.252
				c0.6,0.096,1.067,0.192,1.404,0.288c0.144,0.048,0.27,0.12,0.378,0.216c0.108,0.096,0.162,0.24,0.162,0.432v3.636
				c0,0.168-0.042,0.313-0.126,0.432c-0.084,0.12-0.246,0.18-0.486,0.18h-0.072c-0.264-0.024-0.69-0.054-1.278-0.09
				c-0.588-0.036-1.254-0.078-1.998-0.126c-0.744-0.048-1.506-0.09-2.286-0.126s-1.47-0.054-2.07-0.054
				c-1.032,0-1.758,0.156-2.178,0.468c-0.42,0.312-0.63,0.792-0.63,1.44c0,0.265,0.036,0.492,0.108,0.684
				c0.072,0.192,0.198,0.378,0.378,0.558c0.18,0.18,0.426,0.372,0.738,0.576c0.312,0.205,0.708,0.438,1.188,0.702l4.608,2.484
				c1.872,1.008,3.15,2.112,3.834,3.312C108.76,153.673,109.102,155.005,109.102,156.469z"/>
			<path fill="#6D6E71" d="M127.138,150.781h-12.06v12.564c0,0.192-0.054,0.354-0.162,0.486c-0.108,0.132-0.258,0.198-0.45,0.198
				h-0.36c-0.192,0-0.342-0.066-0.45-0.198c-0.108-0.131-0.162-0.293-0.162-0.486v-22.032c0-1.512,0.384-2.562,1.152-3.15
				c0.768-0.587,1.836-0.882,3.204-0.882h9.288c0.456,0,0.684,0.204,0.684,0.612v0.288c0,0.384-0.229,0.576-0.684,0.576h-9.288
				c-0.432,0-0.822,0.03-1.17,0.09c-0.348,0.061-0.636,0.18-0.864,0.36c-0.229,0.18-0.409,0.438-0.54,0.774
				c-0.132,0.336-0.198,0.78-0.198,1.332v7.92h12.06c0.456,0,0.684,0.192,0.684,0.576v0.36
				C127.822,150.577,127.594,150.781,127.138,150.781z"/>
			<path fill="#6D6E71" d="M149.494,152.905c0,2.016-0.228,3.738-0.684,5.166c-0.457,1.428-1.093,2.598-1.908,3.51
				c-0.816,0.913-1.788,1.584-2.916,2.016c-1.128,0.432-2.364,0.648-3.708,0.648c-1.344,0-2.58-0.216-3.708-0.648
				c-1.128-0.432-2.101-1.104-2.916-2.016c-0.816-0.912-1.452-2.082-1.908-3.51c-0.457-1.428-0.684-3.15-0.684-5.166v-4.464
				c0-2.016,0.228-3.738,0.684-5.166c0.456-1.428,1.092-2.598,1.908-3.51c0.815-0.912,1.788-1.584,2.916-2.016
				c1.128-0.432,2.364-0.648,3.708-0.648c1.344,0,2.58,0.216,3.708,0.648c1.128,0.432,2.1,1.104,2.916,2.016
				c0.815,0.913,1.452,2.083,1.908,3.51c0.456,1.428,0.684,3.15,0.684,5.166V152.905z M147.91,148.434
				c0-1.829-0.192-3.375-0.576-4.64c-0.384-1.263-0.918-2.28-1.602-3.051s-1.494-1.324-2.43-1.661s-1.944-0.506-3.024-0.506
				s-2.088,0.169-3.024,0.506s-1.746,0.891-2.43,1.661s-1.218,1.788-1.602,3.051c-0.384,1.264-0.576,2.811-0.576,4.64v4.478
				c0,1.854,0.192,3.406,0.576,4.658c0.384,1.251,0.918,2.262,1.602,3.033s1.494,1.324,2.43,1.661s1.944,0.505,3.024,0.505
				s2.088-0.168,3.024-0.505s1.746-0.891,2.43-1.661s1.218-1.781,1.602-3.033c0.383-1.252,0.576-2.804,0.576-4.658V148.434z"/>
			<path fill="#6D6E71" d="M171.381,162.985c0.144,0.24,0.192,0.474,0.144,0.702c-0.048,0.228-0.229,0.342-0.54,0.342h-0.468
				c-0.096,0-0.198-0.036-0.306-0.108c-0.108-0.072-0.187-0.144-0.234-0.216l-7.668-11.736c-0.336,0.024-0.6,0.03-0.792,0.018
				c-0.192-0.012-0.444-0.018-0.756-0.018h-2.844c-0.576,0-1.176-0.012-1.8-0.036v11.412c0,0.192-0.054,0.354-0.162,0.486
				c-0.108,0.132-0.258,0.198-0.45,0.198h-0.36c-0.192,0-0.342-0.066-0.45-0.198c-0.108-0.131-0.162-0.293-0.162-0.486v-25.416
				c0-0.167,0.06-0.318,0.18-0.45c0.12-0.132,0.264-0.21,0.432-0.234c0.312-0.023,0.708-0.042,1.188-0.054
				c0.479-0.012,0.983-0.024,1.512-0.036c0.528-0.012,1.05-0.023,1.566-0.036c0.516-0.012,0.966-0.018,1.35-0.018
				c1.608,0,3.024,0.126,4.248,0.378s2.25,0.666,3.078,1.242c0.828,0.576,1.445,1.332,1.854,2.268
				c0.408,0.936,0.612,2.088,0.612,3.456v0.18c0,2.208-0.54,3.864-1.62,4.968c-1.08,1.104-2.688,1.836-4.824,2.196L171.381,162.985z
				 M168.969,144.444c0-1.135-0.174-2.076-0.522-2.825c-0.348-0.748-0.87-1.352-1.566-1.811c-0.696-0.459-1.554-0.779-2.574-0.96
				s-2.202-0.272-3.546-0.272c-0.768,0-1.596,0.013-2.484,0.036c-0.888,0.024-1.608,0.06-2.16,0.108v11.736c0.24,0,0.57,0,0.99,0
				c0.419,0,0.858,0.006,1.314,0.018c0.456,0.013,0.894,0.018,1.314,0.018c0.419,0,0.762,0,1.026,0c1.392,0,2.604-0.09,3.636-0.271
				c1.031-0.181,1.884-0.489,2.556-0.924c0.672-0.434,1.176-1.032,1.512-1.792c0.336-0.761,0.504-1.72,0.504-2.879V144.444z"/>
			<path fill="#6D6E71" d="M193.917,142.519c-0.096,0.06-0.228,0.09-0.396,0.09h-0.108c-0.864-0.048-1.944-0.108-3.24-0.18
				c-1.296-0.072-2.712-0.108-4.248-0.108c-0.72,0-1.375,0.096-1.962,0.288c-0.588,0.192-1.086,0.522-1.494,0.99
				c-0.409,0.468-0.72,1.098-0.936,1.89s-0.324,1.776-0.324,2.952v4.5c0,1.248,0.126,2.268,0.378,3.06
				c0.252,0.792,0.576,1.416,0.972,1.872s0.833,0.768,1.314,0.936c0.48,0.168,0.936,0.252,1.368,0.252
				c0.984,0,1.908-0.036,2.772-0.108v-8.28c0-0.192,0.066-0.36,0.198-0.504s0.294-0.216,0.486-0.216h4.608
				c0.192,0,0.36,0.072,0.504,0.216s0.216,0.312,0.216,0.504v12.096c0,0.456-0.24,0.732-0.72,0.828
				c-0.984,0.192-2.124,0.366-3.42,0.522s-2.844,0.234-4.644,0.234c-0.672,0-1.398-0.072-2.178-0.216s-1.548-0.383-2.304-0.72
				c-0.756-0.336-1.482-0.792-2.178-1.368c-0.696-0.576-1.314-1.284-1.854-2.124c-0.54-0.84-0.966-1.842-1.278-3.006
				c-0.312-1.164-0.468-2.502-0.468-4.014v-4.464c0-2.304,0.324-4.194,0.972-5.67c0.648-1.476,1.494-2.646,2.538-3.51
				c1.044-0.864,2.22-1.463,3.528-1.8c1.308-0.336,2.61-0.504,3.906-0.504c1.8,0,3.335,0.102,4.608,0.306
				c1.272,0.204,2.244,0.378,2.916,0.522c0.408,0.072,0.612,0.252,0.612,0.54v3.816
				C194.061,142.333,194.012,142.459,193.917,142.519z"/>
			<path fill="#6D6E71" d="M219.908,163.813c-0.144,0.144-0.312,0.216-0.504,0.216h-4.716c-0.192,0-0.36-0.072-0.504-0.216
				s-0.216-0.312-0.216-0.504v-10.404h-8.892v10.404c0,0.192-0.072,0.36-0.216,0.504s-0.312,0.216-0.504,0.216h-4.716
				c-0.192,0-0.36-0.072-0.504-0.216s-0.216-0.312-0.216-0.504v-25.344c0-0.192,0.072-0.354,0.216-0.486s0.312-0.198,0.504-0.198
				h4.716c0.192,0,0.36,0.066,0.504,0.198s0.216,0.294,0.216,0.486v9.576h8.892v-9.576c0-0.192,0.072-0.354,0.216-0.486
				s0.312-0.198,0.504-0.198h4.716c0.192,0,0.36,0.066,0.504,0.198s0.216,0.294,0.216,0.486v25.344
				C220.125,163.501,220.052,163.669,219.908,163.813z"/>
			<path fill="#6D6E71" d="M240.824,163.885c-0.625,0.096-1.458,0.198-2.502,0.306c-1.044,0.108-2.538,0.162-4.482,0.162
				c-1.152,0-2.258-0.096-3.318-0.288c-1.061-0.192-1.996-0.564-2.804-1.116c-0.809-0.552-1.455-1.337-1.938-2.358
				c-0.482-1.02-0.724-2.346-0.724-3.978v-11.952c0-1.632,0.241-2.952,0.724-3.96c0.483-1.008,1.128-1.788,1.938-2.34
				c0.809-0.552,1.75-0.924,2.822-1.116c1.072-0.191,2.185-0.288,3.337-0.288c0.959,0,1.806,0.018,2.538,0.054
				c0.732,0.036,1.374,0.078,1.926,0.126c0.552,0.048,1.026,0.096,1.422,0.144c0.396,0.048,0.75,0.096,1.062,0.144
				c0.479,0.072,0.72,0.312,0.72,0.72v3.348c0,0.192-0.072,0.36-0.216,0.504c-0.144,0.144-0.313,0.216-0.504,0.216h-7.308
				c-0.84,0-1.435,0.174-1.782,0.522c-0.348,0.348-0.522,0.99-0.522,1.926v3.276h9.324c0.192,0,0.36,0.072,0.504,0.216
				s0.216,0.312,0.216,0.504v3.42c0,0.192-0.072,0.36-0.216,0.504c-0.144,0.144-0.312,0.216-0.504,0.216h-9.324v3.816
				c0,0.936,0.174,1.579,0.522,1.926c0.348,0.349,0.942,0.522,1.782,0.522h7.308c0.191,0,0.36,0.072,0.504,0.216
				s0.216,0.312,0.216,0.504v3.348C241.544,163.561,241.304,163.813,240.824,163.885z"/>
			<path fill="#6D6E71" d="M266.833,163.633c-0.276,0.264-0.606,0.396-0.99,0.396h-3.528c-0.384,0-0.72-0.066-1.008-0.198
				c-0.288-0.131-0.576-0.438-0.864-0.918l-8.208-14.184c-0.12-0.192-0.229-0.288-0.324-0.288c-0.121,0-0.18,0.096-0.18,0.288v14.58
				c0,0.192-0.072,0.36-0.216,0.504s-0.313,0.216-0.504,0.216h-4.248c-0.192,0-0.36-0.072-0.504-0.216s-0.216-0.312-0.216-0.504
				v-24.66c0-0.384,0.132-0.708,0.396-0.972c0.264-0.264,0.588-0.396,0.972-0.396h3.636c0.36,0,0.648,0.09,0.864,0.27
				c0.216,0.18,0.432,0.462,0.648,0.846l8.532,14.832c0.12,0.192,0.216,0.288,0.288,0.288c0.12,0,0.18-0.108,0.18-0.324v-15.228
				c0-0.192,0.072-0.354,0.216-0.486s0.312-0.198,0.504-0.198h4.248c0.192,0,0.36,0.066,0.504,0.198s0.216,0.294,0.216,0.486v24.696
				C267.248,163.045,267.109,163.369,266.833,163.633z"/>
			<path fill="#6D6E71" d="M288.83,142.159c-0.156,0.132-0.33,0.198-0.522,0.198h-5.832v20.952c0,0.192-0.072,0.36-0.216,0.504
				c-0.144,0.144-0.313,0.216-0.504,0.216h-4.716c-0.192,0-0.36-0.072-0.504-0.216s-0.216-0.312-0.216-0.504v-20.952h-5.868
				c-0.192,0-0.36-0.066-0.504-0.198c-0.144-0.131-0.216-0.293-0.216-0.486v-3.708c0-0.192,0.072-0.354,0.216-0.486
				c0.144-0.132,0.312-0.198,0.504-0.198h17.856c0.192,0,0.366,0.066,0.522,0.198c0.156,0.132,0.234,0.294,0.234,0.486v3.708
				C289.063,141.865,288.985,142.027,288.83,142.159z"/>
		</g>
	</g>
	<path fill="#FF3333" d="M84.775,18.985c0.112,0.005,0.223,0.011,0.335,0.021C84.999,18.996,84.887,18.99,84.775,18.985z"/>
	<path fill="#FF3333" d="M89.978,21.409c0.075,0.082,0.146,0.168,0.217,0.253C90.124,21.576,90.053,21.491,89.978,21.409z"/>
	<path fill="#FF3333" d="M90.46,21.993c0.059,0.08,0.114,0.162,0.17,0.243C90.574,22.154,90.519,22.072,90.46,21.993z"/>
	<path fill="#FF3333" d="M90.945,22.723c-0.021-0.036-0.045-0.067-0.066-0.102c1.334,2.231,1.475,5.09,0.113,7.521l-6.447,11.496
		l39.798,68.931c1.389,2.406,3.91,3.751,6.502,3.751c1.272,0,2.562-0.324,3.743-1.006c3.587-2.071,4.816-6.658,2.745-10.245
		L90.945,22.723z"/>
	<path fill="#FF3333" d="M84.025,18.99c0.126-0.007,0.253-0.012,0.38-0.013C84.278,18.978,84.152,18.983,84.025,18.99z"/>
	<path fill="#FF3333" d="M82.576,19.217c0.138-0.036,0.277-0.068,0.417-0.097C82.853,19.148,82.714,19.181,82.576,19.217z"/>
	<path fill="#FF3333" d="M83.286,19.069c0.137-0.021,0.276-0.041,0.414-0.055C83.562,19.028,83.424,19.048,83.286,19.069z"/>
	<path fill="#FF3333" d="M89.44,20.877c0.097,0.086,0.188,0.177,0.28,0.268C89.627,21.054,89.536,20.963,89.44,20.877z"/>
	<path fill="#FF3333" d="M86.227,19.192c0.104,0.025,0.206,0.052,0.309,0.082C86.434,19.245,86.331,19.218,86.227,19.192z"/>
	<path fill="#FF3333" d="M85.515,19.055c0.101,0.015,0.203,0.03,0.304,0.049C85.718,19.085,85.617,19.069,85.515,19.055z"/>
	<path fill="#FF3333" d="M86.908,19.393c0.117,0.041,0.233,0.084,0.349,0.131C87.141,19.478,87.025,19.434,86.908,19.393z"/>
	<path fill="#FF3333" d="M88.215,19.992c0.138,0.08,0.271,0.166,0.402,0.253C88.485,20.157,88.352,20.071,88.215,19.992z"/>
	<path fill="#FF3333" d="M88.849,20.403c0.12,0.086,0.234,0.179,0.348,0.271C89.082,20.581,88.968,20.489,88.849,20.403z"/>
	<path fill="#FF3333" d="M81.897,19.427c0.126-0.046,0.253-0.089,0.382-0.127C82.151,19.338,82.024,19.381,81.897,19.427z"/>
	<path fill="#FF3333" d="M87.566,19.657c0.134,0.062,0.267,0.128,0.399,0.198C87.834,19.786,87.701,19.719,87.566,19.657z"/>
	<path fill="#FF3333" d="M80.7,19.978c-0.035,0.021-0.067,0.045-0.101,0.065c0.086-0.051,0.174-0.1,0.261-0.147
		C80.807,19.925,80.752,19.947,80.7,19.978z"/>
	<path fill="#FF3333" d="M78.385,22.068c0.083-0.115,0.171-0.224,0.26-0.333C78.555,21.844,78.467,21.954,78.385,22.068z"/>
	<path fill="#FF3333" d="M78.857,21.479c0.084-0.094,0.172-0.182,0.26-0.271C79.029,21.298,78.941,21.387,78.857,21.479z"/>
	<path fill="#FF3333" d="M79.972,20.461c0.079-0.058,0.159-0.112,0.24-0.168C80.131,20.349,80.05,20.403,79.972,20.461z"/>
	<path fill="#FF3333" d="M77.974,22.699c0.076-0.131,0.157-0.258,0.24-0.382C78.131,22.442,78.05,22.569,77.974,22.699z"/>
	<path fill="#FF3333" d="M79.388,20.942c0.08-0.074,0.164-0.143,0.248-0.212C79.552,20.8,79.468,20.869,79.388,20.942z"/>
	<path fill="#FF3333" d="M81.243,19.7c0.106-0.05,0.212-0.097,0.32-0.142C81.456,19.603,81.349,19.649,81.243,19.7z"/>
	<path fill="#FF3333" d="M88.617,20.245c0.078,0.052,0.156,0.103,0.231,0.158C88.773,20.349,88.695,20.297,88.617,20.245z"/>
	<path fill="#FF3333" d="M89.719,21.145c0.087,0.086,0.175,0.172,0.259,0.264C89.895,21.318,89.807,21.231,89.719,21.145z"/>
	<path fill="#FF3333" d="M78.645,21.734c0.07-0.085,0.139-0.172,0.213-0.255C78.784,21.562,78.715,21.648,78.645,21.734z"/>
	<path fill="#FF3333" d="M79.117,21.208c0.089-0.09,0.177-0.18,0.271-0.266C79.295,21.027,79.206,21.118,79.117,21.208z"/>
	<path fill="#FF3333" d="M89.196,20.674c0.082,0.067,0.164,0.133,0.243,0.204C89.361,20.808,89.279,20.741,89.196,20.674z"/>
	<path fill="#FF3333" d="M86.536,19.274c0.125,0.036,0.249,0.076,0.372,0.119C86.784,19.35,86.661,19.311,86.536,19.274z"/>
	<path fill="#FF3333" d="M85.819,19.104c0.137,0.025,0.273,0.056,0.408,0.089C86.091,19.159,85.956,19.129,85.819,19.104z"/>
	<path fill="#FF3333" d="M87.257,19.524c0.104,0.042,0.207,0.086,0.31,0.133C87.463,19.61,87.36,19.566,87.257,19.524z"/>
	<path fill="#FF3333" d="M88.118,19.931c-0.05-0.028-0.102-0.049-0.153-0.076c0.084,0.044,0.168,0.089,0.25,0.137
		C88.182,19.973,88.152,19.95,88.118,19.931z"/>
	<path fill="#FF3333" d="M78.215,22.317c0.056-0.083,0.111-0.167,0.17-0.249C78.326,22.149,78.271,22.233,78.215,22.317z"/>
	<path fill="#FF3333" d="M82.993,19.12c0.098-0.019,0.195-0.036,0.293-0.051C83.188,19.085,83.09,19.101,82.993,19.12z"/>
	<path fill="#FF3333" d="M81.563,19.558c0.111-0.047,0.222-0.09,0.334-0.131C81.785,19.468,81.674,19.511,81.563,19.558z"/>
	<path fill="#FF3333" d="M85.11,19.006c0.135,0.012,0.271,0.029,0.405,0.048C85.38,19.035,85.246,19.018,85.11,19.006z"/>
	<path fill="#FF3333" d="M83.7,19.015c0.108-0.011,0.217-0.019,0.325-0.024C83.917,18.997,83.808,19.004,83.7,19.015z"/>
	<path fill="#FF3333" d="M80.86,19.896c0.127-0.069,0.254-0.135,0.383-0.196C81.113,19.761,80.986,19.827,80.86,19.896z"/>
	<path fill="#FF3333" d="M82.279,19.299c0.098-0.03,0.197-0.057,0.296-0.083C82.476,19.242,82.377,19.27,82.279,19.299z"/>
	<path fill="#FF3333" d="M80.212,20.293c0.126-0.086,0.254-0.17,0.387-0.25C80.467,20.122,80.339,20.206,80.212,20.293z"/>
	<path fill="#FF3333" d="M90.63,22.236c0.086,0.125,0.17,0.252,0.249,0.384C90.801,22.49,90.717,22.362,90.63,22.236z"/>
	<path fill="#FF3333" d="M90.195,21.662c0.09,0.108,0.18,0.217,0.265,0.331C90.376,21.88,90.286,21.771,90.195,21.662z"/>
	<path fill="#FF3333" d="M77.974,22.699c-0.021,0.036-0.046,0.068-0.066,0.105L32.854,103.15c-2.026,3.613-0.739,8.184,2.874,10.21
		c1.16,0.651,2.419,0.96,3.661,0.96c2.625,0,5.173-1.381,6.549-3.833l38.607-68.85l-6.59-11.415
		C76.562,27.81,76.667,24.947,77.974,22.699z"/>
	<path fill="#FF3333" d="M84.405,18.977c0.124,0,0.247,0.003,0.37,0.008C84.651,18.98,84.528,18.977,84.405,18.977z"/>
	<path fill="#FF3333" d="M79.636,20.73c0.11-0.092,0.22-0.183,0.336-0.269C79.857,20.547,79.746,20.638,79.636,20.73z"/>
	<path fill="#FF0A0A" d="M90.879,22.621c-0.079-0.132-0.163-0.259-0.249-0.384c-0.056-0.082-0.111-0.164-0.17-0.243
		c-0.085-0.114-0.175-0.223-0.265-0.331c-0.071-0.085-0.142-0.171-0.217-0.253c-0.083-0.092-0.171-0.178-0.259-0.264
		c-0.092-0.09-0.183-0.181-0.28-0.268c-0.079-0.071-0.162-0.136-0.243-0.204c-0.113-0.092-0.228-0.185-0.348-0.271
		c-0.076-0.055-0.154-0.106-0.231-0.158c-0.131-0.087-0.264-0.173-0.402-0.253c-0.082-0.048-0.166-0.092-0.25-0.137
		c-0.132-0.07-0.265-0.137-0.399-0.198c-0.102-0.047-0.206-0.091-0.31-0.133c-0.116-0.047-0.232-0.091-0.349-0.131
		c-0.123-0.042-0.247-0.083-0.372-0.119c-0.103-0.03-0.206-0.057-0.309-0.082c-0.135-0.033-0.271-0.063-0.408-0.089
		c-0.101-0.019-0.202-0.034-0.304-0.049c-0.135-0.02-0.27-0.036-0.405-0.048c-0.112-0.01-0.224-0.016-0.335-0.021
		c-0.123-0.005-0.247-0.009-0.37-0.008c-0.127,0.001-0.253,0.006-0.38,0.013c-0.108,0.006-0.216,0.014-0.325,0.024
		c-0.139,0.014-0.277,0.033-0.414,0.055c-0.098,0.015-0.196,0.032-0.293,0.051c-0.14,0.028-0.279,0.061-0.417,0.097
		c-0.099,0.025-0.198,0.053-0.296,0.083c-0.128,0.039-0.256,0.082-0.382,0.127c-0.112,0.041-0.224,0.084-0.334,0.131
		c-0.108,0.045-0.215,0.092-0.32,0.142c-0.129,0.061-0.256,0.126-0.383,0.196c-0.088,0.048-0.175,0.096-0.261,0.147
		c-0.133,0.08-0.261,0.164-0.387,0.25c-0.081,0.056-0.161,0.11-0.24,0.168c-0.116,0.086-0.226,0.177-0.336,0.269
		c-0.083,0.07-0.167,0.139-0.248,0.212c-0.094,0.086-0.183,0.176-0.271,0.266c-0.088,0.089-0.176,0.177-0.26,0.271
		c-0.074,0.083-0.143,0.169-0.213,0.255c-0.089,0.109-0.177,0.219-0.26,0.333c-0.059,0.082-0.114,0.166-0.17,0.249
		c-0.083,0.125-0.164,0.251-0.24,0.382c-1.307,2.248-1.413,5.11-0.02,7.523l6.59,11.415l6.447-11.496
		C92.354,27.711,92.213,24.852,90.879,22.621z"/>
	<path fill="#FF3333" d="M105.828,99.239l-41.422,0c0,0,0,0,0,0c-4.142,0-7.5,3.358-7.5,7.5s3.358,7.5,7.5,7.5l41.422,0c0,0,0,0,0,0
		c4.142,0,7.5-3.358,7.5-7.5S109.97,99.239,105.828,99.239z"/>
	<path fill="#00DBC0" d="M269.059,77.814h-8.38c-3.399,14.385-16.338,25.125-31.746,25.125c-17.99,0-32.625-14.636-32.625-32.625
		c0-17.989,14.635-32.624,32.625-32.624c4.142,0,7.5-3.358,7.5-7.5s-3.358-7.5-7.5-7.5c-26.26,0-47.625,21.364-47.625,47.624
		c0,26.261,21.365,47.625,47.625,47.625c26.261,0,47.626-21.364,47.626-47.625C276.559,74.456,273.201,77.814,269.059,77.814z"/>
	<path fill="#00DBC0" d="M269.059,62.814h-40.125c-4.142,0-7.5,3.358-7.5,7.5s3.358,7.5,7.5,7.5h31.745
		c0.569-2.41,0.88-4.918,0.88-7.5C261.559,66.172,264.917,62.814,269.059,62.814z"/>
	<path fill="#00BC91" d="M276.559,70.314c0-4.142-3.358-7.5-7.5-7.5s-7.5,3.358-7.5,7.5c0,2.582-0.311,5.09-0.88,7.5h8.38
		C273.201,77.814,276.559,74.456,276.559,70.314z"/>
	<path fill="#6D6E71" d="M137.731,65.149c0.028-0.143,0.062-0.284,0.098-0.424C137.793,64.866,137.759,65.007,137.731,65.149z"/>
	<path fill="#6D6E71" d="M137.629,65.858c0.014-0.142,0.034-0.282,0.056-0.423C137.664,65.576,137.643,65.717,137.629,65.858z"/>
	<path fill="#6D6E71" d="M137.596,66.565c0-0.128,0.007-0.255,0.013-0.383C137.603,66.311,137.595,66.438,137.596,66.565z"/>
	<path fill="#6D6E71" d="M138.485,70.101c-0.066-0.123-0.126-0.248-0.185-0.373C138.358,69.854,138.419,69.978,138.485,70.101z"/>
	<path fill="#6D6E71" d="M137.629,67.272c-0.01-0.108-0.015-0.216-0.02-0.324C137.615,67.057,137.619,67.165,137.629,67.272z"/>
	<path fill="#6D6E71" d="M137.905,64.437c0.038-0.129,0.083-0.257,0.128-0.384C137.988,64.181,137.944,64.308,137.905,64.437z"/>
	<path fill="#6D6E71" d="M138.157,63.725c0.044-0.108,0.093-0.215,0.143-0.321C138.25,63.51,138.201,63.617,138.157,63.725z"/>
	<path fill="#6D6E71" d="M171.806,18.928c-3.613-2.027-8.184-0.739-10.21,2.873l-23.045,41.096
		c-0.024,0.043-0.042,0.089-0.066,0.133c0.652-1.221,1.643-2.279,2.939-3.006c3.613-2.027,8.184-0.74,10.21,2.873l2.057,3.668
		l20.987-37.427C176.705,25.525,175.418,20.954,171.806,18.928z"/>
	<path fill="#6D6E71" d="M138.157,69.406c-0.044-0.109-0.084-0.219-0.123-0.329C138.073,69.188,138.113,69.298,138.157,69.406z"/>
	<path fill="#6D6E71" d="M137.905,68.694c-0.028-0.095-0.052-0.191-0.076-0.288C137.854,68.502,137.877,68.599,137.905,68.694z"/>
	<path fill="#6D6E71" d="M137.731,67.982c-0.018-0.095-0.032-0.191-0.046-0.287C137.699,67.791,137.713,67.887,137.731,67.982z"/>
	<path fill="#6D6E71" d="M138.033,69.078c-0.045-0.127-0.09-0.254-0.128-0.384C137.944,68.823,137.988,68.95,138.033,69.078z"/>
	<path fill="#6D6E71" d="M138.3,69.728c-0.05-0.106-0.099-0.213-0.143-0.321C138.201,69.514,138.25,69.621,138.3,69.728z"/>
	<path fill="#6D6E71" d="M138.3,63.403c0.058-0.125,0.119-0.25,0.185-0.373C138.419,63.153,138.358,63.277,138.3,63.403z"/>
	<path fill="#6D6E71" d="M145.086,74.067c-1.242,0-2.501-0.309-3.661-0.96c-1.297-0.727-2.288-1.786-2.94-3.006
		c0.023,0.044,0.042,0.089,0.066,0.133l23.045,41.096c1.375,2.453,3.923,3.833,6.549,3.833c1.242,0,2.501-0.309,3.662-0.96
		c3.613-2.026,4.899-6.597,2.873-10.21l-20.987-37.427l-2.057,3.668C150.259,72.686,147.711,74.067,145.086,74.067z"/>
	<path fill="#6D6E71" d="M138.033,64.053c0.039-0.11,0.079-0.22,0.124-0.329C138.113,63.833,138.073,63.943,138.033,64.053z"/>
	<path fill="#6D6E71" d="M137.685,65.436c0.014-0.096,0.028-0.191,0.046-0.287C137.713,65.244,137.7,65.34,137.685,65.436z"/>
	<path fill="#6D6E71" d="M137.685,67.695c-0.021-0.141-0.042-0.281-0.056-0.423C137.643,67.414,137.663,67.554,137.685,67.695z"/>
	<path fill="#6D6E71" d="M137.829,64.725c0.024-0.096,0.048-0.192,0.076-0.288C137.877,64.532,137.854,64.628,137.829,64.725z"/>
	<path fill="#6D6E71" d="M137.609,66.183c0.006-0.108,0.01-0.216,0.02-0.324C137.619,65.966,137.615,66.074,137.609,66.183z"/>
	<path fill="#6D6E71" d="M137.829,68.406c-0.036-0.141-0.07-0.282-0.098-0.424C137.759,68.124,137.793,68.265,137.829,68.406z"/>
	<path fill="#6D6E71" d="M137.609,66.948c-0.007-0.127-0.013-0.255-0.013-0.383C137.595,66.693,137.603,66.82,137.609,66.948z"/>
	<path fill="#2F2F32" d="M141.424,60.024c-1.297,0.727-2.288,1.785-2.939,3.006c-0.066,0.123-0.127,0.248-0.185,0.373
		c-0.05,0.106-0.098,0.213-0.143,0.321c-0.045,0.109-0.084,0.219-0.124,0.329c-0.045,0.127-0.09,0.254-0.128,0.384
		c-0.028,0.095-0.052,0.191-0.076,0.288c-0.036,0.141-0.07,0.282-0.098,0.424c-0.018,0.095-0.032,0.191-0.046,0.287
		c-0.022,0.141-0.042,0.281-0.056,0.423c-0.01,0.108-0.015,0.216-0.02,0.324c-0.007,0.127-0.013,0.255-0.013,0.383
		s0.007,0.255,0.013,0.383c0.006,0.108,0.01,0.216,0.02,0.324c0.014,0.142,0.034,0.282,0.056,0.423
		c0.015,0.096,0.028,0.191,0.046,0.287c0.028,0.143,0.062,0.284,0.098,0.424c0.024,0.096,0.048,0.192,0.076,0.288
		c0.038,0.129,0.083,0.257,0.128,0.384c0.039,0.11,0.079,0.22,0.123,0.329c0.044,0.108,0.094,0.215,0.143,0.321
		c0.058,0.125,0.119,0.25,0.185,0.373c0.652,1.221,1.643,2.279,2.94,3.006c1.16,0.651,2.419,0.96,3.661,0.96
		c2.625,0,5.173-1.381,6.549-3.833l2.057-3.668l-2.057-3.668C149.608,59.284,145.037,57.997,141.424,60.024z"/>
</g>
<g id="CSS">
</g>
</svg>
