<?xml version="1.0" standalone="no"?>
<!DOCTYPE svg PUBLIC "-//W3C//DTD SVG 1.1//EN" "http://www.w3.org/Graphics/SVG/1.1/DTD/svg11.dtd" >
<svg xmlns="http://www.w3.org/2000/svg" xmlns:xlink="http://www.w3.org/1999/xlink" version="1.1">
<metadata>
Created by FontForge 20150824 at Fri Jan 15 03:41:22 2016
 By Everything Fonts
Digitised data (c) 2004 Monotype Imaging. All Rights Reserved. Neo Sans is designed by Sebastian Lester.
</metadata>
<defs>
<font id="NeoSansProItalic" horiz-adv-x="605" >
  <font-face 
    font-family="NeoSansProItalic"
    font-weight="400"
    font-style="italic"
    font-stretch="normal"
    units-per-em="1000"
    panose-1="2 11 5 4 3 5 4 11 2 4"
    ascent="765"
    descent="-235"
    x-height="550"
    cap-height="743"
    bbox="-200 -216 1459 980"
    underline-thickness="57"
    underline-position="-133"
    slope="-12"
    unicode-range="U+0020-FB04"
  />
<missing-glyph horiz-adv-x="500" 
d="M12 665h475v-665h-475v665zM250 375l161 243h-323zM60 91l7 10t18 27t25.5 39t29.5 45q35 54 81 121l-161 242v-484zM278 333l162 -243v485zM250 290l-162 -242h323z" />
    <glyph glyph-name="f_b" unicode="fb" horiz-adv-x="911" 
d="M399 691q-18 0 -30.5 -2t-21 -9t-14.5 -21t-10 -37l-13 -72h108q8 0 13 -3.5t3 -14.5l-6 -35q-3 -17 -23 -17h-107l-89 -504q-8 -45 -23 -72t-36.5 -42t-48 -20t-56.5 -5q-13 0 -30 1.5t-29 3.5q-19 3 -16 16l6 33q2 10 7.5 12.5t13.5 2.5h47q35 0 52 14.5t25 55.5
l89 504l-93 7q-19 2 -16 17l5 28q2 8 6.5 13t15.5 5h94l13 72q8 46 22.5 73.5t35 42t47 19t59.5 4.5q4 0 20.5 -0.5t38.5 -1t46.5 -1.5t46 -2t37.5 -2t20 -2h43q18 0 14 -19l-33 -186q30 5 62.5 7.5t56.5 2.5q91 0 136 -47.5t45 -131.5q0 -32 -6 -66l-13 -72
q-22 -119 -84.5 -183t-176.5 -64q-45 0 -90.5 4t-90.5 13q-15 3 -17 8t0 15l115 658h-170zM845 380q0 52 -25 76t-82 24q-24 0 -58.5 -1t-60.5 -6l-70 -397q25 -2 57.5 -4t58.5 -2q70 0 108 46t52 124l13 72q4 20 5.5 37t1.5 31z" />
    <glyph glyph-name="f_f_b" unicode="ffb" horiz-adv-x="1234" 
d="M1168 380q0 52 -25 76t-82 24q-24 0 -58.5 -1t-60.5 -6l-70 -397q25 -2 57.5 -4t58.5 -2q70 0 108 46t52 124l13 72q4 20 5.5 37t1.5 31zM558 622q8 46 22.5 73.5t35 42t47 19t59.5 4.5q4 0 20.5 -0.5t38.5 -1t46.5 -1.5t46 -2t37.5 -2t20 -2h43q18 0 14 -19l-33 -186
q30 5 62.5 7.5t56.5 2.5q91 0 136 -47.5t45 -131.5q0 -32 -6 -66l-13 -72q-22 -119 -84.5 -183t-176.5 -64q-45 0 -90.5 4t-90.5 13q-15 3 -17 8t0 15l115 658h-170q-18 0 -30.5 -2t-21 -9t-14.5 -21t-10 -37l-13 -72h108q8 0 13 -3.5t3 -14.5l-6 -35q-3 -17 -23 -17h-107
l-89 -504q-8 -45 -23 -72t-36.5 -42t-48 -20t-56.5 -5q-13 0 -30 1.5t-29 3.5q-19 3 -16 16l6 33q2 10 7.5 12.5t13.5 2.5h47q35 0 52 14.5t25 55.5l89 504h-235l-89 -504q-8 -45 -23 -72t-36.5 -42t-48 -20t-56.5 -5q-13 0 -30 1.5t-29 3.5q-19 3 -16 16l6 33
q2 10 7.5 12.5t13.5 2.5h47q35 0 52 14.5t25 55.5l89 504l-93 7q-19 2 -16 17l5 28q2 8 6.5 13t15.5 5h94l13 72q8 46 22.5 73.5t35 42t47 19t59.5 4.5q14 0 30 -2t28 -4q11 -2 14.5 -5.5t1.5 -10.5l-6 -33q-2 -8 -5.5 -11.5t-14.5 -3.5h-48q-18 0 -30.5 -2t-21 -9
t-14.5 -21t-10 -37l-13 -72h235z" />
    <glyph glyph-name="f_f_h" unicode="ffh" horiz-adv-x="1250" 
d="M558 622q8 46 22.5 73.5t35 42t47 19t59.5 4.5q4 0 20.5 -0.5t38.5 -1t46.5 -1.5t46 -2t37.5 -2t20 -2h43q18 0 14 -19l-33 -190q26 6 57 10t60 4q48 0 83.5 -12.5t58.5 -34t34 -50.5t11 -63q0 -10 -1 -20t-3 -21l-59 -336q-2 -8 -6.5 -14t-17.5 -6h-48q-19 0 -16 20
l59 336q4 20 4 40q0 46 -26.5 66t-85.5 20q-30 0 -62 -4t-56 -11l-78 -447q-2 -8 -6 -14t-18 -6h-48q-12 0 -15 6t-1 14l117 671h-170q-18 0 -30.5 -2t-21 -9t-14.5 -21t-10 -37l-13 -72h108q8 0 13 -3.5t3 -14.5l-6 -35q-3 -17 -23 -17h-107l-89 -504q-8 -45 -23 -72
t-36.5 -42t-48 -20t-56.5 -5q-13 0 -30 1.5t-29 3.5q-19 3 -16 16l6 33q2 10 7.5 12.5t13.5 2.5h47q35 0 52 14.5t25 55.5l89 504h-235l-89 -504q-8 -45 -23 -72t-36.5 -42t-48 -20t-56.5 -5q-13 0 -30 1.5t-29 3.5q-19 3 -16 16l6 33q2 10 7.5 12.5t13.5 2.5h47
q35 0 52 14.5t25 55.5l89 504l-93 7q-19 2 -16 17l5 28q2 8 6.5 13t15.5 5h94l13 72q8 46 22.5 73.5t35 42t47 19t59.5 4.5q14 0 30 -2t28 -4q11 -2 14.5 -5.5t1.5 -10.5l-6 -33q-2 -8 -5.5 -11.5t-14.5 -3.5h-48q-18 0 -30.5 -2t-21 -9t-14.5 -21t-10 -37l-13 -72h235z" />
    <glyph glyph-name="f_f_j" unicode="ffj" horiz-adv-x="940" 
d="M399 691q-18 0 -30.5 -2t-21 -9t-14.5 -21t-10 -37l-13 -72h235l13 72q8 46 22.5 73.5t35 42t47 19t59.5 4.5q14 0 30 -2t28 -4q11 -2 14.5 -5.5t1.5 -10.5l-6 -33q-2 -8 -5.5 -11.5t-14.5 -3.5h-48q-18 0 -30.5 -2t-21 -9t-14.5 -21t-10 -37l-13 -72h304q9 0 13.5 -4
t2.5 -16l-104 -594q-7 -39 -20 -64.5t-32 -41t-43.5 -21.5t-54.5 -6q-15 0 -27 1t-26 3q-10 2 -13 5.5t-2 10.5l6 37q2 9 7.5 11.5t16.5 2.5h42q14 0 23.5 2.5t16 9.5t11 19t7.5 31l95 544h-235l-89 -504q-8 -45 -23 -72t-36.5 -42t-48 -20t-56.5 -5q-13 0 -30 1.5t-29 3.5
q-19 3 -16 16l6 33q2 10 7.5 12.5t13.5 2.5h47q35 0 52 14.5t25 55.5l89 504h-235l-89 -504q-8 -45 -23 -72t-36.5 -42t-48 -20t-56.5 -5q-13 0 -30 1.5t-29 3.5q-19 3 -16 16l6 33q2 10 7.5 12.5t13.5 2.5h47q35 0 52 14.5t25 55.5l89 504l-93 7q-19 2 -16 17l5 28
q2 8 6.5 13t15.5 5h94l13 72q8 46 22.5 73.5t35 42t47 19t59.5 4.5q14 0 30 -2t28 -4q11 -2 14.5 -5.5t1.5 -10.5l-6 -33q-2 -8 -5.5 -11.5t-14.5 -3.5h-48zM976 758q19 0 16 -20l-14 -80q-2 -11 -7 -15.5t-17 -4.5h-51q-11 0 -14.5 6t-1.5 14l14 80q2 8 7.5 14t16.5 6h51z
" />
    <glyph glyph-name="f_f_k" unicode="ffk" horiz-adv-x="1199" 
d="M298 480l-89 -504q-8 -45 -23 -72t-36.5 -42t-48 -20t-56.5 -5q-13 0 -30 1.5t-29 3.5q-19 3 -16 16l6 33q2 10 7.5 12.5t13.5 2.5h47q35 0 52 14.5t25 55.5l89 504l-93 7q-19 2 -16 17l5 28q2 8 6.5 13t15.5 5h94l13 72q8 46 22.5 73.5t35 42t47 19t59.5 4.5q14 0 30 -2
t28 -4q11 -2 14.5 -5.5t1.5 -10.5l-6 -33q-2 -8 -5.5 -11.5t-14.5 -3.5h-48q-18 0 -30.5 -2t-21 -9t-14.5 -21t-10 -37l-13 -72h235l13 72q8 46 22.5 73.5t35 42t47 19t59.5 4.5q4 0 20.5 -0.5t38.5 -1t46.5 -1.5t46 -2t37.5 -2t20 -2h43q18 0 14 -20l-72 -406l230 215
q9 9 22 9h68q13 0 13 -10q0 -7 -6 -13l-259 -238l181 -266q3 -5 3 -9q0 -5 -3.5 -9.5t-10.5 -4.5h-58q-8 0 -14.5 3t-12.5 12l-164 246l-42 -241q-2 -8 -6.5 -14t-12.5 -6h-53q-9 0 -13.5 6t-2.5 14l117 671h-170q-18 0 -30.5 -2t-21 -9t-14.5 -21t-10 -37l-13 -72h108
q8 0 13 -3.5t3 -14.5l-6 -35q-3 -17 -23 -17h-107l-89 -504q-8 -45 -23 -72t-36.5 -42t-48 -20t-56.5 -5q-13 0 -30 1.5t-29 3.5q-19 3 -16 16l6 33q2 10 7.5 12.5t13.5 2.5h47q35 0 52 14.5t25 55.5l89 504h-235z" />
    <glyph glyph-name="f_h" unicode="fh" horiz-adv-x="927" 
d="M399 691q-18 0 -30.5 -2t-21 -9t-14.5 -21t-10 -37l-13 -72h108q8 0 13 -3.5t3 -14.5l-6 -35q-3 -17 -23 -17h-107l-89 -504q-8 -45 -23 -72t-36.5 -42t-48 -20t-56.5 -5q-13 0 -30 1.5t-29 3.5q-19 3 -16 16l6 33q2 10 7.5 12.5t13.5 2.5h47q35 0 52 14.5t25 55.5
l89 504l-93 7q-19 2 -16 17l5 28q2 8 6.5 13t15.5 5h94l13 72q8 46 22.5 73.5t35 42t47 19t59.5 4.5q4 0 20.5 -0.5t38.5 -1t46.5 -1.5t46 -2t37.5 -2t20 -2h43q18 0 14 -19l-33 -190q26 6 57 10t60 4q48 0 83.5 -12.5t58.5 -34t34 -50.5t11 -63q0 -10 -1 -20t-3 -21
l-59 -336q-2 -8 -6.5 -14t-17.5 -6h-48q-19 0 -16 20l59 336q4 20 4 40q0 46 -26.5 66t-85.5 20q-30 0 -62 -4t-56 -11l-78 -447q-2 -8 -6 -14t-18 -6h-48q-12 0 -15 6t-1 14l117 671h-170z" />
    <glyph glyph-name="f_j" unicode="fj" horiz-adv-x="617" 
d="M399 691q-18 0 -30.5 -2t-21 -9t-14.5 -21t-10 -37l-13 -72h304q9 0 13.5 -4t2.5 -16l-104 -594q-7 -39 -20 -64.5t-32 -41t-43.5 -21.5t-54.5 -6q-15 0 -27 1t-26 3q-10 2 -13 5.5t-2 10.5l6 37q2 9 7.5 11.5t16.5 2.5h42q14 0 23.5 2.5t16 9.5t11 19t7.5 31l95 544
h-235l-89 -504q-8 -45 -23 -72t-36.5 -42t-48 -20t-56.5 -5q-13 0 -30 1.5t-29 3.5q-19 3 -16 16l6 33q2 10 7.5 12.5t13.5 2.5h47q35 0 52 14.5t25 55.5l89 504l-93 7q-19 2 -16 17l5 28q2 8 6.5 13t15.5 5h94l13 72q8 46 22.5 73.5t35 42t47 19t59.5 4.5q14 0 30 -2t28 -4
q11 -2 14.5 -5.5t1.5 -10.5l-6 -33q-2 -8 -5.5 -11.5t-14.5 -3.5h-48zM653 758q19 0 16 -20l-14 -80q-2 -11 -7 -15.5t-17 -4.5h-51q-11 0 -14.5 6t-1.5 14l14 80q2 8 7.5 14t16.5 6h51z" />
    <glyph glyph-name="f_k" unicode="fk" horiz-adv-x="876" 
d="M399 691q-18 0 -30.5 -2t-21 -9t-14.5 -21t-10 -37l-13 -72h108q8 0 13 -3.5t3 -14.5l-6 -35q-3 -17 -23 -17h-107l-89 -504q-8 -45 -23 -72t-36.5 -42t-48 -20t-56.5 -5q-13 0 -30 1.5t-29 3.5q-19 3 -16 16l6 33q2 10 7.5 12.5t13.5 2.5h47q35 0 52 14.5t25 55.5
l89 504l-93 7q-19 2 -16 17l5 28q2 8 6.5 13t15.5 5h94l13 72q8 46 22.5 73.5t35 42t47 19t59.5 4.5q4 0 20.5 -0.5t38.5 -1t46.5 -1.5t46 -2t37.5 -2t20 -2h43q18 0 14 -20l-72 -406l230 215q9 9 22 9h68q13 0 13 -10q0 -7 -6 -13l-259 -238l181 -266q3 -5 3 -9
q0 -5 -3.5 -9.5t-10.5 -4.5h-58q-8 0 -14.5 3t-12.5 12l-164 246l-42 -241q-2 -8 -6.5 -14t-12.5 -6h-53q-9 0 -13.5 6t-2.5 14l117 671h-170z" />
    <glyph glyph-name="f_f" unicode="ff" horiz-adv-x="693" 
d="M399 691q-18 0 -30.5 -2t-21 -9t-14.5 -21t-10 -37l-13 -72h235l13 72q8 46 22.5 73.5t35 42t47 19t59.5 4.5q14 0 30 -2t28 -4q11 -2 14.5 -5.5t1.5 -10.5l-6 -33q-2 -8 -5.5 -11.5t-14.5 -3.5h-48q-18 0 -30.5 -2t-21 -9t-14.5 -21t-10 -37l-13 -72h108q8 0 13 -3.5
t3 -14.5l-6 -35q-3 -17 -23 -17h-107l-89 -504q-8 -45 -23 -72t-36.5 -42t-48 -20t-56.5 -5q-13 0 -30 1.5t-29 3.5q-19 3 -16 16l6 33q2 10 7.5 12.5t13.5 2.5h47q35 0 52 14.5t25 55.5l89 504h-235l-89 -504q-8 -45 -23 -72t-36.5 -42t-48 -20t-56.5 -5q-13 0 -30 1.5
t-29 3.5q-19 3 -16 16l6 33q2 10 7.5 12.5t13.5 2.5h47q35 0 52 14.5t25 55.5l89 504l-93 7q-19 2 -16 17l5 28q2 8 6.5 13t15.5 5h94l13 72q8 46 22.5 73.5t35 42t47 19t59.5 4.5q14 0 30 -2t28 -4q11 -2 14.5 -5.5t1.5 -10.5l-6 -33q-2 -8 -5.5 -11.5t-14.5 -3.5h-48v0z
" />
    <glyph glyph-name="fi" unicode="fi" horiz-adv-x="617" 
d="M399 691q-18 0 -30.5 -2t-21 -9t-14.5 -21t-10 -37l-13 -72h304q9 0 13.5 -4t2.5 -16l-89 -510q-2 -8 -6.5 -14t-17.5 -6h-48q-11 0 -14.5 6t-1.5 14l80 460h-235l-89 -504q-8 -45 -23 -72t-36.5 -42t-48 -20t-56.5 -5q-13 0 -30 1.5t-29 3.5q-19 3 -16 16l6 33
q2 10 7.5 12.5t13.5 2.5h47q35 0 52 14.5t25 55.5l89 504l-93 7q-19 2 -16 17l5 28q2 8 6.5 13t15.5 5h94l13 72q8 46 22.5 73.5t35 42t47 19t59.5 4.5q14 0 30 -2t28 -4q11 -2 14.5 -5.5t1.5 -10.5l-6 -33q-2 -8 -5.5 -11.5t-14.5 -3.5h-48zM653 758q19 0 16 -20l-14 -80
q-2 -11 -7 -15.5t-17 -4.5h-51q-11 0 -14.5 6t-1.5 14l14 80q2 8 7.5 14t16.5 6h51z" />
    <glyph glyph-name="fl" unicode="fl" horiz-adv-x="614" 
d="M399 691q-18 0 -30.5 -2t-21 -9t-14.5 -21t-10 -37l-13 -72h108q8 0 13 -3.5t3 -14.5l-6 -35q-3 -17 -23 -17h-107l-89 -504q-8 -45 -23 -72t-36.5 -42t-48 -20t-56.5 -5q-13 0 -30 1.5t-29 3.5q-19 3 -16 16l6 33q2 10 7.5 12.5t13.5 2.5h47q35 0 52 14.5t25 55.5
l89 504l-93 7q-19 2 -16 17l5 28q2 8 6.5 13t15.5 5h94l13 72q8 46 22.5 73.5t35 42t47 19t59.5 4.5q4 0 20.5 -0.5t38.5 -1t46.5 -1.5t46 -2t37.5 -2t20 -2h43q18 0 14 -19l-125 -713q-2 -8 -6 -14t-16 -6h-52q-8 0 -12 6t-2 14l117 671h-170v0z" />
    <glyph glyph-name="f_f_i" unicode="ffi" horiz-adv-x="940" 
d="M399 691q-18 0 -30.5 -2t-21 -9t-14.5 -21t-10 -37l-13 -72h235l13 72q8 46 22.5 73.5t35 42t47 19t59.5 4.5q14 0 30 -2t28 -4q11 -2 14.5 -5.5t1.5 -10.5l-6 -33q-2 -8 -5.5 -11.5t-14.5 -3.5h-48q-18 0 -30.5 -2t-21 -9t-14.5 -21t-10 -37l-13 -72h304q9 0 13.5 -4
t2.5 -16l-89 -510q-2 -8 -6.5 -14t-17.5 -6h-48q-11 0 -14.5 6t-1.5 14l80 460h-235l-89 -504q-8 -45 -23 -72t-36.5 -42t-48 -20t-56.5 -5q-13 0 -30 1.5t-29 3.5q-19 3 -16 16l6 33q2 10 7.5 12.5t13.5 2.5h47q35 0 52 14.5t25 55.5l89 504h-235l-89 -504q-8 -45 -23 -72
t-36.5 -42t-48 -20t-56.5 -5q-13 0 -30 1.5t-29 3.5q-19 3 -16 16l6 33q2 10 7.5 12.5t13.5 2.5h47q35 0 52 14.5t25 55.5l89 504l-93 7q-19 2 -16 17l5 28q2 8 6.5 13t15.5 5h94l13 72q8 46 22.5 73.5t35 42t47 19t59.5 4.5q14 0 30 -2t28 -4q11 -2 14.5 -5.5t1.5 -10.5
l-6 -33q-2 -8 -5.5 -11.5t-14.5 -3.5h-48zM976 758q19 0 16 -20l-14 -80q-2 -11 -7 -15.5t-17 -4.5h-51q-11 0 -14.5 6t-1.5 14l14 80q2 8 7.5 14t16.5 6h51z" />
    <glyph glyph-name="f_f_l" unicode="ffl" horiz-adv-x="937" 
d="M722 691q-18 0 -30.5 -2t-21 -9t-14.5 -21t-10 -37l-13 -72h108q8 0 13 -3.5t3 -14.5l-6 -35q-3 -17 -23 -17h-107l-89 -504q-8 -45 -23 -72t-36.5 -42t-48 -20t-56.5 -5q-13 0 -30 1.5t-29 3.5q-19 3 -16 16l6 33q2 10 7.5 12.5t13.5 2.5h47q35 0 52 14.5t25 55.5
l89 504h-235l-89 -504q-8 -45 -23 -72t-36.5 -42t-48 -20t-56.5 -5q-13 0 -30 1.5t-29 3.5q-19 3 -16 16l6 33q2 10 7.5 12.5t13.5 2.5h47q35 0 52 14.5t25 55.5l89 504l-93 7q-19 2 -16 17l5 28q2 8 6.5 13t15.5 5h94l13 72q8 46 22.5 73.5t35 42t47 19t59.5 4.5
q14 0 30 -2t28 -4q11 -2 14.5 -5.5t1.5 -10.5l-6 -33q-2 -8 -5.5 -11.5t-14.5 -3.5h-48q-18 0 -30.5 -2t-21 -9t-14.5 -21t-10 -37l-13 -72h235l13 72q8 46 22.5 73.5t35 42t47 19t59.5 4.5q4 0 20.5 -0.5t38.5 -1t46.5 -1.5t46 -2t37.5 -2t20 -2h41q19 0 16 -19l-125 -713
q-2 -8 -6 -14t-16 -6h-52q-8 0 -12 6t-2 14l118 671h-171z" />
    <glyph glyph-name=".notdef" horiz-adv-x="500" 
d="M12 665h475v-665h-475v665zM250 375l161 243h-323zM60 91l7 10t18 27t25.5 39t29.5 45q35 54 81 121l-161 242v-484zM278 333l162 -243v485zM250 290l-162 -242h323z" />
    <glyph glyph-name=".null" horiz-adv-x="0" 
 />
    <glyph glyph-name="nonmarkingreturn" horiz-adv-x="273" 
 />
    <glyph glyph-name="space" unicode=" " horiz-adv-x="273" 
 />
    <glyph glyph-name="exclam" unicode="!" horiz-adv-x="217" 
d="M283 733l-99 -520q-2 -8 -8.5 -13.5t-14.5 -5.5h-36q-16 0 -16 16v3l84 520q2 8 9 13.5t15 5.5h50q16 0 16 -16v-3zM172 113l-17 -94q-3 -19 -22 -19h-48q-16 0 -16 16v3l17 94q2 8 8 13.5t14 5.5h48q16 0 16 -16v-3z" />
    <glyph glyph-name="quotedbl" unicode="&#x22;" horiz-adv-x="362" 
d="M464 744q0 -4 -3 -11l-91 -189q-5 -11 -9.5 -15t-12.5 -4h-47q-8 0 -8 7q0 6 3 12l79 189q8 19 24 19h56q9 0 9 -8zM294 744q0 -4 -3 -11l-91 -189q-5 -11 -9.5 -15t-12.5 -4h-47q-8 0 -8 7q0 6 3 12l79 189q8 19 24 19h56q9 0 9 -8z" />
    <glyph glyph-name="numbersign" unicode="#" horiz-adv-x="660" 
d="M701 517q0 -5 -1 -7l-6 -22q-5 -19 -23 -19h-97l-54 -202h98q13 0 13 -14q0 -5 -1 -7l-5 -21q-5 -19 -24 -19h-98l-49 -187q-2 -8 -7.5 -13.5t-13.5 -5.5h-44q-14 0 -14 14q0 1 0.5 2t0.5 3l49 187h-155l-49 -187q-2 -8 -7.5 -13.5t-13.5 -5.5h-45q-14 0 -14 14
q0 2 0.5 2.5t0.5 2.5l49 187h-93q-13 0 -13 14q0 5 1 7l6 21q5 19 23 19h93l54 202h-94q-7 0 -10.5 4.5t-3.5 10.5q0 4 1 6l6 22q5 19 24 19h93l51 193q2 8 8 13.5t14 5.5h45q13 0 13 -14q0 -1 -0.5 -2t-0.5 -3l-51 -193h155l51 193q2 8 8 13.5t14 5.5h44q13 0 13 -13
q0 -4 -1 -6l-51 -193h98q13 0 13 -14zM341 469l-54 -202h155l54 202h-155z" />
    <glyph glyph-name="dollar" unicode="$" 
d="M634 720l-8 -43q-3 -16 -19 -16h-2q-33 0 -80 4.5t-91 4.5q-31 0 -61 -3.5t-53 -15.5t-37.5 -34.5t-14.5 -61.5q0 -30 22.5 -51.5t67.5 -51.5l82 -55q37 -25 61 -47t38 -43t19.5 -42t5.5 -43q0 -48 -17.5 -87t-47.5 -67.5t-70.5 -46.5t-85.5 -24l-16 -94q-2 -8 -9 -14
t-15 -6h-47q-16 0 -16 16v3v1l16 90q-44 1 -78 5t-63 9q-17 3 -17 12q0 2 0.5 3t0.5 3l8 41q3 16 19 16h2h1q17 -2 38 -3.5t43.5 -2.5t44 -2t38.5 -1q34 0 65.5 7t56 23.5t39 43t14.5 65.5q0 29 -22.5 54t-75.5 61l-87 59q-56 38 -81.5 76.5t-25.5 83.5q0 48 17 84t46 60
t67.5 38t82.5 19l14 86q2 8 9 14t15 6h47q16 0 16 -16v-3v-1l-14 -83q40 -2 80 -5.5t64 -7.5q14 -2 14 -14v-2v-1z" />
    <glyph glyph-name="percent" unicode="%" horiz-adv-x="794" 
d="M797 294q0 -11 -1 -22.5t-3 -23.5l-17 -93q-16 -88 -56.5 -125t-105.5 -37q-51 0 -81 31t-30 88q0 10 1 21t3 22l17 93q16 87 57 124t106 37q52 0 81 -29t29 -86zM780 738q0 -6 -7 -14l-543 -708q-8 -11 -13 -15.5t-13 -4.5h-49q-8 0 -8 6t6 14l543 708q8 11 13 15t13 4
h51q7 0 7 -5zM422 635q0 -11 -1 -22.5t-3 -23.5l-17 -93q-16 -88 -56.5 -125t-105.5 -37q-51 0 -81 31t-30 88q0 10 1 21t3 22l17 93q16 87 57 124t106 37q52 0 81 -29t29 -86zM735 290q0 35 -15 49t-43 14q-32 0 -56 -24t-35 -81l-17 -93q-2 -12 -3 -22.5t-1 -19.5
q0 -35 15.5 -49t43.5 -14q33 0 56.5 25t33.5 80l17 93q2 12 3 22.5t1 19.5zM360 631q0 35 -15 49t-43 14q-32 0 -56 -24t-35 -81l-17 -93q-2 -12 -3 -22.5t-1 -19.5q0 -35 15.5 -49t43.5 -14q33 0 56.5 25t33.5 80l17 93q2 12 3 22.5t1 19.5z" />
    <glyph glyph-name="ampersand" unicode="&#x26;" horiz-adv-x="678" 
d="M674 361q-14 -66 -38.5 -128.5t-69.5 -115.5l75 -100q4 -5 4 -9q0 -8 -12 -8h-70q-7 0 -10 2t-5 5l-40 54q-43 -32 -96 -50t-115 -18q-48 0 -87.5 9t-68 28t-44 48.5t-15.5 70.5t12.5 73t36 59t57.5 51t78 49l-10 14q-32 45 -51 81.5t-19 83.5q0 50 16 86t45 59t68.5 34
t87.5 11q97 0 147.5 -36.5t50.5 -99.5q0 -37 -11.5 -66.5t-34.5 -55.5t-59 -51.5t-85 -54.5l-34 -20l146 -194q31 42 47.5 90t27.5 99q2 8 5 12t11 4h45q15 0 15 -12v-4zM519 614q0 34 -25 52t-91 18q-69 0 -102 -27.5t-33 -96.5q0 -17 3.5 -32t11 -29.5t18.5 -30t25 -34.5
l9 -12l40 22q34 19 60.5 34.5t45 33.5t28.5 42t10 60zM307 326q-27 -15 -51.5 -31t-43 -36.5t-29.5 -46t-11 -60.5q0 -54 35.5 -72t101.5 -18q48 0 88.5 14t71.5 37z" />
    <glyph glyph-name="quotesingle" unicode="'" horiz-adv-x="192" 
d="M294 744q0 -4 -3 -11l-91 -189q-5 -11 -9.5 -15t-12.5 -4h-47q-8 0 -8 7q0 6 3 12l79 189q8 19 24 19h56q9 0 9 -8z" />
    <glyph glyph-name="parenleft" unicode="(" horiz-adv-x="305" 
d="M415 746q0 -4 -6 -12q-117 -137 -172.5 -300t-55.5 -341q0 -80 14 -151t46 -133q2 -6 2 -8q0 -10 -12 -10h-42q-8 0 -12 1.5t-9 9.5q-38 57 -55.5 137.5t-17.5 171.5q0 82 14.5 169t43.5 170t72.5 157.5t102.5 133.5q8 8 12.5 9.5t12.5 1.5h53q9 0 9 -6z" />
    <glyph glyph-name="parenright" unicode=")" horiz-adv-x="305" 
d="M320 432q0 -82 -14.5 -169t-43.5 -170t-73 -158t-102 -133q-8 -8 -12.5 -9.5t-12.5 -1.5h-53q-9 0 -9 7q0 4 5 11q118 137 173.5 299.5t55.5 341.5q0 75 -14 148.5t-46 135.5q-2 4 -2 7q0 11 13 11h41q8 0 12 -1.5t9 -9.5q38 -57 55.5 -137.5t17.5 -171.5z" />
    <glyph glyph-name="asterisk" unicode="*" horiz-adv-x="465" 
d="M525 598q0 -10 -14 -15l-125 -39l77 -106q5 -7 5 -13q0 -7 -6 -11l-24 -18q-5 -3 -8 -3q-8 0 -15 10l-76 106l-76 -106q-7 -10 -15 -10q-4 0 -8 3l-25 18q-6 4 -6 11q0 6 5 13l78 106l-124 39q-6 2 -10.5 6t-4.5 9q0 2 0.5 2.5t0.5 2.5l9 29q3 10 13 10q3 0 9 -2l125 -41
l-1 131q0 19 15 19h30q15 0 15 -19l-1 -131l125 41q6 2 9 2q10 0 13 -10l9 -29q1 -2 1 -5z" />
    <glyph glyph-name="plus" unicode="+" horiz-adv-x="595" 
d="M596 371q0 -8 -6 -12t-14 -4h-172v-171q0 -8 -4 -14t-12 -6h-40q-8 0 -12 6t-4 14v171h-171q-8 0 -14 4t-6 12v40q0 8 6 12t14 4h171v172q0 8 4 14t12 6h40q8 0 12 -6t4 -14v-172h172q8 0 14 -4t6 -12v-40v0z" />
    <glyph glyph-name="comma" unicode="," horiz-adv-x="214" 
d="M189 121q0 -5 -3 -11l-108 -189q-5 -10 -9.5 -14.5t-12.5 -4.5h-41q-11 0 -11 9q0 4 3 10l90 189q9 19 24 19h58q10 0 10 -8z" />
    <glyph glyph-name="hyphen" unicode="-" horiz-adv-x="333" 
d="M340 312l-7 -39q-3 -17 -22 -17h-199q-16 0 -16 14v3l7 39q2 8 8 13t14 5h199q16 0 16 -15v-3z" />
    <glyph glyph-name="period" unicode="." horiz-adv-x="214" 
d="M170 114l-16 -93q-2 -8 -8.5 -14t-14.5 -6h-48q-15 0 -15 16v4l16 93q3 19 22 19h48q16 0 16 -16v-3z" />
    <glyph glyph-name="slash" unicode="/" horiz-adv-x="355" 
d="M461 732q0 -3 -2 -9l-349 -703q-4 -8 -9 -14t-13 -6h-51q-11 0 -11 11q0 3 2 9l350 703q4 8 8.5 14t12.5 6h51q11 0 11 -11z" />
    <glyph glyph-name="zero" unicode="0" 
d="M634 536q0 -45 -9 -97l-23 -135q-15 -85 -41.5 -144.5t-64.5 -96.5t-86.5 -53.5t-107.5 -16.5q-92 0 -146 52.5t-54 164.5q0 43 9 94l23 135q15 86 42 145.5t65 96t87 53t107 16.5q94 0 146.5 -52t52.5 -162zM543 533q0 77 -31.5 108.5t-89.5 31.5q-34 0 -65 -14
t-56.5 -42.5t-45 -72.5t-29.5 -105l-23 -135q-9 -56 -9 -96q0 -77 31 -107.5t90 -30.5q33 0 64 13.5t57 42t45 72.5t30 106l23 135q9 54 9 94z" />
    <glyph glyph-name="one" unicode="1" 
d="M90 0q-8 0 -13.5 5t-3.5 13l7 44q2 8 8.5 12.5t14.5 4.5h159l101 570l-169 -66q-6 -2 -14 -2.5t-6 10.5l9 51q1 8 12 13l193 82q13 6 23 6h41q8 0 12.5 -5.5t2.5 -13.5l-114 -645h160q8 0 13.5 -4.5t3.5 -12.5l-7 -44q-2 -8 -8.5 -13t-14.5 -5h-410z" />
    <glyph glyph-name="two" unicode="2" 
d="M631 599q0 -39 -12.5 -70.5t-34.5 -58.5t-52.5 -50.5t-67.5 -45.5l-108 -65q-47 -28 -77.5 -52t-50 -48t-29.5 -50.5t-16 -58.5l-4 -21h333q7 0 12 -3.5t5 -10.5v-3l-8 -44q-2 -8 -8.5 -13t-14.5 -5h-397q-17 0 -17 16v3l15 81q8 45 23 82t39 69t57.5 60.5t79.5 55.5
l113 68q30 18 54 34t41 34.5t26.5 41t9.5 54.5q0 40 -30.5 57.5t-104.5 17.5q-39 0 -88 -4.5t-92 -10.5q-10 -2 -15 1.5t-2 16.5l7 35q2 11 8 13.5t14 4.5q41 10 88.5 15t92.5 5q211 0 211 -151z" />
    <glyph glyph-name="three" unicode="3" 
d="M623 599q0 -33 -8.5 -65.5t-25 -60.5t-40.5 -51t-55 -37q39 -21 53.5 -56t14.5 -70q0 -69 -20.5 -119t-58.5 -83t-91.5 -48.5t-120.5 -15.5q-48 0 -89.5 6t-76.5 14q-8 2 -12.5 5t-2.5 14l6 34q2 9 6.5 14t16.5 3q45 -6 87.5 -10t77.5 -4q92 0 139 46.5t47 140.5
q0 18 -4.5 34.5t-16 30t-30 21.5t-46.5 8h-182q-8 0 -13 3.5t-3 14.5l6 35q2 8 6 13.5t16 5.5h182q36 0 63 13t45 35.5t27 52.5t9 63q0 25 -7 42t-22.5 27t-41.5 14.5t-64 4.5q-44 0 -84 -4.5t-90 -10.5h-3q-17 0 -14 17l6 35q2 11 8.5 14t14.5 5q38 8 81 14t91 6
q101 0 160 -36.5t59 -114.5z" />
    <glyph glyph-name="four" unicode="4" 
d="M597 274q19 0 16 -18l-7 -40q-2 -11 -8 -14.5t-14 -3.5h-87l-31 -178q-3 -20 -21 -20h-58q-16 0 -13 20l31 178h-289q-35 0 -35 26q0 8 1 13l6 38q3 19 19 37l369 415q5 6 12 11t20 5h59q15 0 19.5 -5.5t2.5 -16.5l-79 -447h87zM478 605q0 4 -4 4q-3 0 -9 -6l-279 -315
q-5 -7 -5 -9q0 -5 7 -5h231l59 329v2z" />
    <glyph glyph-name="five" unicode="5" 
d="M614 743q12 0 15.5 -4.5t1.5 -12.5l-8 -44q-3 -16 -23 -16h-287l-54 -216h47q130 0 198.5 -40.5t68.5 -132.5q0 -70 -21 -123t-60.5 -89t-95 -54t-124.5 -18q-49 0 -93 4.5t-80 13.5q-19 3 -16 20l7 37q3 20 23 15q46 -8 90 -11t82 -3q96 0 145.5 55.5t49.5 147.5
q0 31 -11 51t-33.5 31.5t-58 16t-84.5 4.5h-117q-11 0 -14.5 5.5t-1.5 12.5l87 333q2 8 8.5 12.5t14.5 4.5h344z" />
    <glyph glyph-name="six" unicode="6" 
d="M444 750q60 0 100 -5t69 -12q8 -2 15 -6t5 -13l-7 -39q-2 -13 -8.5 -16t-18.5 -1q-37 8 -78.5 12t-89.5 4q-54 0 -90.5 -16.5t-60 -45.5t-37 -70t-22.5 -90l-2 -11q32 7 69.5 13.5t84.5 6.5q44 0 82.5 -9.5t67.5 -30t45.5 -52t16.5 -75.5q0 -67 -20 -122.5t-58 -95
t-92 -61.5t-123 -22q-97 0 -147.5 48t-50.5 148q0 19 1 42.5t5 45.5l31 175q15 84 41.5 141t65.5 92t90.5 50t115.5 15zM494 288q0 31 -11 51t-29.5 31.5t-42.5 15.5t-50 4q-18 0 -39 -1.5t-42 -4t-40 -6t-33 -6.5l-17 -95q-5 -26 -6.5 -48t-1.5 -41q0 -36 8 -59.5t24 -37
t38.5 -19t52.5 -5.5q46 0 81.5 18.5t59.5 49.5t36 71t12 82z" />
    <glyph glyph-name="seven" unicode="7" 
d="M650 680q0 -17 -4.5 -31.5t-10.5 -23.5l-394 -610q-11 -15 -25 -15h-63q-12 0 -12 11q0 7 5 15l412 628q2 4 2 6q0 5 -6 5h-338q-8 0 -13.5 3t-3.5 14l8 42q2 8 6.5 13.5t16.5 5.5h324q52 0 74 -16t22 -47z" />
    <glyph glyph-name="eight" unicode="8" 
d="M651 594q0 -66 -34.5 -122t-94.5 -84q36 -22 53.5 -58t17.5 -75q0 -64 -21.5 -113t-59.5 -82t-90.5 -50t-114.5 -17h-10q-44 0 -82 12t-66 35t-44.5 55.5t-16.5 74.5q0 69 35 127.5t97 90.5q-35 20 -52.5 51.5t-17.5 70.5q0 62 23 107t61.5 74.5t89 44t106.5 14.5h10
q45 0 84 -10t67 -29.5t44 -48.5t16 -68zM561 579q0 53 -33.5 75t-100.5 22h-10q-36 0 -68 -10.5t-56.5 -30.5t-39 -49.5t-14.5 -67.5q0 -19 6 -36t18.5 -30t33 -20.5t50.5 -7.5h62q34 0 62 12t48 32.5t31 49t11 61.5zM502 251q0 19 -5.5 37t-18 32t-32.5 23t-50 9h-62
q-38 0 -67 -14.5t-48.5 -39t-29 -56.5t-9.5 -67q0 -57 32.5 -81.5t97.5 -24.5h10q87 0 134.5 49t47.5 133z" />
    <glyph glyph-name="nine" unicode="9" 
d="M631 554q0 -19 -1 -42.5t-5 -45.5l-31 -175q-15 -84 -41.5 -141t-65.5 -92t-90.5 -50t-115.5 -15q-60 0 -100 5t-69 12q-11 2 -16.5 6t-3.5 13l7 39q2 13 7.5 16t19.5 1q39 -8 79.5 -12t88.5 -4q54 0 90.5 16.5t60 45.5t37 70t22.5 90l2 11q-32 -7 -69.5 -13.5
t-84.5 -6.5q-44 0 -82.5 9.5t-67.5 29.5t-45.5 52t-16.5 76q0 67 20 122t58 95t92 62t123 22q97 0 147.5 -48t50.5 -148zM543 555q0 36 -8 59.5t-24 37t-38.5 19t-52.5 5.5q-47 0 -82 -18.5t-59 -49.5t-36 -71t-12 -82q0 -32 11 -51.5t29.5 -31t42.5 -15.5t50 -4
q18 0 39 1.5t42 4t40 6t33 6.5l17 95q5 26 6.5 48t1.5 41z" />
    <glyph glyph-name="colon" unicode=":" horiz-adv-x="219" 
d="M246 530l-16 -93q-2 -8 -8.5 -13.5t-14.5 -5.5h-47q-7 0 -12 4.5t-5 11.5v3l16 93q2 8 9 14t15 6h47q7 0 11.5 -5t4.5 -12v-3zM173 113l-17 -94q-2 -8 -8.5 -13.5t-14.5 -5.5h-47q-7 0 -12 4.5t-5 11.5v3l17 94q2 8 8.5 13.5t14.5 5.5h47q17 0 17 -16v-3z" />
    <glyph glyph-name="semicolon" unicode=";" horiz-adv-x="219" 
d="M246 530l-16 -93q-3 -19 -22 -19h-49q-16 0 -16 16v3l16 93q2 8 8.5 14t14.5 6h49q15 0 15 -16v-4zM177 120q0 -5 -3 -11l-108 -189q-5 -10 -10 -15t-13 -5h-40q-10 0 -10 9q0 5 3 11l90 189q9 19 24 19h57q10 0 10 -8z" />
    <glyph glyph-name="less" unicode="&#x3c;" horiz-adv-x="595" 
d="M535 150q0 -10 -12 -10h-58q-8 0 -15 2.5t-16 10.5l-241 204q-18 15 -18 34t18 34l241 204q9 8 16 10.5t15 2.5h58q12 0 12 -10q0 -8 -10 -17l-262 -224l262 -224q10 -9 10 -17z" />
    <glyph glyph-name="equal" unicode="=" horiz-adv-x="595" 
d="M590 482q0 -8 -6 -12t-14 -4h-385q-8 0 -14 4t-6 12v40q0 8 6 12t14 4h385q8 0 14 -4t6 -12v-40zM590 261q0 -8 -6 -12t-14 -4h-385q-8 0 -14 4t-6 12v40q0 8 6 12t14 4h385q8 0 14 -4t6 -12v-40z" />
    <glyph glyph-name="greater" unicode="&#x3e;" horiz-adv-x="595" 
d="M582 391q0 -19 -18 -34l-241 -204q-16 -13 -31 -13h-58q-12 0 -12 10q0 8 10 17l262 224l-262 224q-10 9 -10 17q0 10 12 10h58q8 0 15 -2.5t16 -10.5l241 -204q18 -15 18 -34z" />
    <glyph glyph-name="question" unicode="?" horiz-adv-x="446" 
d="M494 627q0 -35 -10.5 -64t-28 -54.5t-40.5 -48.5t-47 -46l-54 -51q-17 -16 -29 -27.5t-20.5 -22.5t-13.5 -23t-8 -28l-8 -49q-2 -8 -9 -13.5t-15 -5.5h-44q-15 0 -15 15v3v1l8 49q4 24 10 43t17 36t27 35t39 39l55 51q22 20 38.5 37t27.5 34t16.5 36t5.5 44
q0 31 -22 42.5t-70 11.5q-36 0 -68.5 -2.5t-67.5 -6.5h-3q-12 0 -12 12v3v2l6 35q2 9 5.5 15t15.5 8q32 6 69 9.5t71 3.5q37 0 68.5 -7t55 -22t37 -38.5t13.5 -55.5zM218 112l-17 -93q-3 -19 -22 -19h-48q-17 0 -17 16v3l17 93q2 8 8.5 14t14.5 6h48q8 0 12 -5t4 -12v-3z
" />
    <glyph glyph-name="at" unicode="@" horiz-adv-x="767" 
d="M769 401q0 -98 -25.5 -164.5t-74.5 -107t-120 -58t-162 -17.5q-78 0 -121.5 29t-43.5 89q0 20 4 39l24 117q9 46 25.5 76.5t41 49t57.5 26t75 7.5q39 0 74 -5.5t52 -9.5q20 -5 20 -19q0 -2 -0.5 -3t-0.5 -3l-63 -313q51 8 84 34t52.5 63t27.5 81.5t8 89.5q0 98 -59 147
t-165 49q-129 0 -211.5 -64.5t-108.5 -189.5l-31 -152q-7 -32 -7 -63q0 -92 60 -137t171 -45q41 0 76.5 2t67.5 5h2q8 0 8 -6v-1l-4 -32q-1 -8 -5 -10.5t-12 -3.5q-6 -1 -20.5 -2t-33.5 -2.5t-42 -2.5t-45 -1q-63 0 -115.5 15.5t-91 45t-59.5 73.5t-21 101q0 31 6 64l31 156
q30 154 130 231t265 77q61 0 112.5 -18t88.5 -51.5t58 -80.5t21 -105zM500 409q-16 2 -33 4t-34 2q-45 0 -68.5 -21.5t-32.5 -67.5l-23 -114q-2 -11 -3 -20t-1 -17q0 -17 6 -26.5t16.5 -14.5t23 -6.5t26.5 -1.5h26h1h3h19.5t19.5 2z" />
    <glyph glyph-name="A" unicode="A" horiz-adv-x="633" 
d="M607 19q0 -19 -17 -19h-60q-7 0 -10 4.5t-4 10.5l-25 230h-259l-104 -230q-2 -6 -7 -10.5t-14 -4.5h-61q-14 0 -14 13q0 6 2 10l300 651q21 46 51.5 61t63.5 15q15 0 30 -3t27 -11.5t20 -23t11 -37.5l70 -652v-4zM453 653q-2 18 -16 18q-15 0 -23 -18l-149 -329h221z" />
    <glyph glyph-name="B" unicode="B" horiz-adv-x="616" 
d="M661 574q0 -5 -0.5 -10.5t-3.5 -22.5q-12 -63 -46 -100t-88 -57q41 -17 62.5 -52t21.5 -80q0 -8 -0.5 -17.5t-4.5 -29.5q-11 -64 -40 -105t-72 -65t-98 -33t-119 -9q-50 0 -92 2t-70 7q-27 4 -27 26q0 7 1 11l117 666q6 32 39 37q26 3 68.5 5.5t91.5 2.5q55 0 102.5 -8.5
t82.5 -27.5t55 -49t20 -73v-18zM570 583q0 28 -13 45.5t-37 27.5t-57.5 13.5t-74.5 3.5q-26 0 -52.5 -1t-47.5 -2l-44 -248h154q43 0 73 9.5t49.5 26t30 38t15.5 45.5q3 16 3.5 21.5t0.5 9.5v11zM516 251q0 20 -6.5 38t-21.5 31.5t-40 21t-62 7.5h-154l-49 -275
q25 -1 51 -2.5t52 -1.5q46 0 84.5 6t67.5 21t47.5 41t25.5 67q4 20 4.5 29t0.5 17z" />
    <glyph glyph-name="C" unicode="C" horiz-adv-x="545" 
d="M456 750q48 0 90.5 -5.5t74.5 -10.5q6 -1 11 -3t3 -10l-9 -51q-1 -12 -17 -11l-32.5 2.5t-42 3t-46 2.5t-45.5 1q-37 0 -70.5 -11.5t-62 -38.5t-49.5 -70.5t-32 -106.5l-25 -139q-4 -21 -5.5 -39t-1.5 -35q0 -42 10.5 -71t29 -47.5t44.5 -26.5t57 -8q21 0 45 1t46.5 2.5
t42 2.5t33.5 2q12 1 15.5 -2.5t1.5 -13.5l-7 -41q-2 -9 -6 -13.5t-18 -6.5q-16 -3 -32.5 -5.5t-36 -4t-43.5 -2.5t-56 -1q-38 0 -76.5 12t-70 39t-51 70.5t-19.5 107.5q0 18 1.5 38t5.5 42l25 139q17 95 51 155.5t77.5 94.5t92.5 46.5t97 12.5z" />
    <glyph glyph-name="D" unicode="D" horiz-adv-x="641" 
d="M668 516q0 -18 -1.5 -37t-5.5 -40l-23 -135q-14 -83 -45 -141.5t-76.5 -96.5t-105 -55.5t-131.5 -17.5q-29 0 -56.5 1t-51.5 2.5t-42.5 3t-29.5 3.5q-12 2 -15.5 8t-1.5 17l121 687q5 22 25 25q11 2 30.5 3.5t44 3t52.5 2.5t57 1q57 0 104 -14.5t80.5 -43.5t52 -73
t18.5 -103zM577 511q0 46 -13.5 77t-37.5 50t-56.5 26.5t-70.5 7.5q-35 0 -60.5 -0.5t-50.5 -2.5l-105 -596q24 -2 50 -2h61q44 0 85 12t74.5 39.5t58 72t35.5 109.5l23 135q7 38 7 72z" />
    <glyph glyph-name="E" unicode="E" horiz-adv-x="551" 
d="M410 668q-40 0 -65 -5.5t-40.5 -18t-23.5 -32.5t-13 -48l-24 -139h307q19 0 16 -20l-6 -38q-2 -8 -6.5 -14t-17.5 -6h-307l-29 -168q-2 -12 -3.5 -22t-1.5 -19q0 -34 23 -48.5t86 -14.5h190q8 0 11 -2t1 -10l-9 -49q-1 -5 -2.5 -8.5t-9.5 -5.5q-11 -1 -34.5 -2.5
t-52 -2.5t-58 -1.5t-51.5 -0.5q-86 0 -135 35.5t-49 108.5q0 22 4 42l67 385q10 55 30 91t50.5 57t71.5 29.5t94 8.5q85 0 129.5 -2.5t64.5 -6.5q5 -1 7.5 -3.5t0.5 -10.5l-9 -47q-1 -8 -4.5 -10t-8.5 -2h-193v0z" />
    <glyph glyph-name="F" unicode="F" horiz-adv-x="551" 
d="M410 668q-40 0 -65 -5.5t-40.5 -18t-23.5 -32.5t-13 -48l-24 -139h307q8 0 13 -4t3 -16l-6 -38q-2 -8 -6 -14t-18 -6h-307l-57 -327q-2 -8 -6.5 -14t-16.5 -6h-51q-11 0 -15 6t-2 14l95 544q10 56 30 92t50.5 57t71.5 29t94 8q80 0 121.5 -2t67.5 -6q10 -2 12.5 -5
t0.5 -10l-9 -47q-2 -12 -13 -12h-193v0z" />
    <glyph glyph-name="G" unicode="G" horiz-adv-x="612" 
d="M458 750q70 0 115 -4.5t73 -9.5q7 -1 11.5 -4t2.5 -11l-9 -50q-1 -8 -5.5 -9.5t-12.5 -0.5q-22 2 -42 3.5t-42 2t-47.5 1t-57.5 0.5q-33 0 -67 -10.5t-63.5 -36.5t-52.5 -70.5t-35 -112.5l-23 -134q-4 -23 -6 -42.5t-2 -36.5q0 -42 10.5 -71t28.5 -46.5t42.5 -25.5
t53.5 -8q46 0 77.5 2t49.5 4l51 286q2 8 7.5 14t13.5 6h54q8 0 12 -5t4 -12v-3l-60 -336q-3 -19 -22 -22q-38 -6 -84 -10.5t-117 -4.5q-40 0 -78 13t-67.5 41.5t-47.5 73t-18 107.5q0 17 1.5 36.5t5.5 39.5l23 134q16 96 50 156.5t78 95t94.5 47.5t100.5 13z" />
    <glyph glyph-name="H" unicode="H" horiz-adv-x="680" 
d="M713 743q19 0 16 -20l-123 -703q-2 -8 -9 -14t-15 -6h-51q-19 0 -16 20l58 332h-342l-58 -332q-2 -8 -6 -14t-18 -6h-51q-9 0 -13.5 6t-2.5 14l123 703q2 8 6 14t18 6h51q19 0 16 -20l-51 -290h342l51 290q2 8 6 14t18 6h51z" />
    <glyph glyph-name="I" unicode="I" horiz-adv-x="267" 
d="M292 743q18 0 15 -19l-124 -704q-3 -20 -22 -20h-55q-10 0 -13 6t-1 14l124 704q2 8 6 13.5t15 5.5h55z" />
    <glyph glyph-name="J" unicode="J" horiz-adv-x="257" 
d="M291 743q8 0 13 -4t3 -15l-135 -761q-13 -72 -55 -107.5t-125 -35.5q-17 0 -30 2.5t-18 4.5q-8 3 -7 12l6 37q2 8 6 12.5t17 4.5h39q40 0 54.5 16.5t21.5 53.5l135 761q2 8 6.5 13.5t15.5 5.5h53z" />
    <glyph glyph-name="K" unicode="K" horiz-adv-x="607" 
d="M691 733q0 -6 -5 -11l-370 -340l239 -366q2 -4 2 -6q0 -10 -11 -10h-72q-14 0 -20 10l-222 346l-59 -336q-2 -8 -5.5 -14t-16.5 -6h-55q-8 0 -12 6t-2 14l124 704q2 8 6 13.5t16 5.5h53q8 0 13 -4t3 -15l-55 -314l336 324q5 5 9.5 7t12.5 2h78q13 0 13 -10z" />
    <glyph glyph-name="L" unicode="L" horiz-adv-x="514" 
d="M506 60l-7 -44q-1 -7 -3 -9.5t-10 -4.5q-20 -3 -72.5 -6t-123.5 -3q-37 0 -70.5 5.5t-58.5 21.5t-39.5 43.5t-14.5 71.5q0 13 1 26.5t4 29.5l93 532q2 8 6 14t18 6h51q9 0 13.5 -6t2.5 -14l-95 -544q-2 -12 -3.5 -23.5t-1.5 -20.5q0 -34 23 -47t86 -13h188q13 0 13 -12
v-3z" />
    <glyph glyph-name="M" unicode="M" horiz-adv-x="761" 
d="M786 743q29 0 24 -29l-122 -694q-2 -8 -6 -14t-18 -6h-49q-19 0 -16 20l103 588q1 6 -1 6l-3 -3l-193 -293q-10 -15 -20.5 -22t-29.5 -7h-46q-19 0 -27 7t-13 22l-88 292q-2 5 -2.5 5.5t-1.5 0.5q-2 0 -3 -8l-103 -588q-2 -8 -6.5 -14t-17.5 -6h-49q-9 0 -13.5 6t-2.5 14
l122 694q2 12 8.5 20.5t25.5 8.5h62q15 0 20.5 -3.5t8.5 -13.5l105 -343q4 -11 10 -11q4 0 6.5 2t7.5 9l225 343q6 10 13.5 13.5t21.5 3.5h68z" />
    <glyph glyph-name="N" unicode="N" horiz-adv-x="680" 
d="M641 724q2 8 6 13.5t15 5.5h53q8 0 11.5 -4.5t3.5 -10.5v-4l-123 -695q-2 -12 -8 -20.5t-26 -8.5h-58q-16 0 -21 4t-8 12l-210 587l-2 3q-2 0 -2 -3l-103 -584q-2 -8 -7.5 -13.5t-13.5 -5.5h-58q-13 0 -10 12l124 703q2 12 9.5 20t24.5 8h49q21 0 27 -4.5t10 -15.5
l208 -579q3 -8 4 -8q2 0 3 8z" />
    <glyph glyph-name="O" unicode="O" horiz-adv-x="661" 
d="M686 520q0 -20 -2 -40.5t-6 -43.5l-23 -129q-15 -83 -43.5 -142.5t-70 -97.5t-95 -56t-116.5 -18q-48 0 -89 14t-71 42.5t-47 71.5t-17 102q0 20 2 40.5t6 43.5l23 129q16 89 46.5 149t73 97t95 52.5t111.5 15.5q50 0 91 -14.5t70.5 -43.5t45.5 -72t16 -100zM594 519
q0 82 -38 115.5t-107 33.5q-83 0 -140.5 -55.5t-79.5 -176.5l-23 -129q-4 -21 -5.5 -40t-1.5 -36q0 -86 38.5 -121t106.5 -35q82 0 139.5 55.5t79.5 176.5l23 129q5 23 6.5 44t1.5 39z" />
    <glyph glyph-name="P" unicode="P" horiz-adv-x="593" 
d="M645 574q0 -19 -3 -41l-2 -13q-11 -68 -39.5 -111t-70.5 -68.5t-96 -35t-114 -9.5q-24 0 -52 1.5t-47 3.5l-49 -281q-2 -8 -6 -14t-16 -6h-54q-17 0 -14 20l122 697q5 22 29 25q33 4 78 6t89 2q112 0 178.5 -42.5t66.5 -133.5zM554 568q0 59 -40.5 82t-126.5 23
q-24 0 -53.5 -1t-47.5 -3l-52 -293q9 0 22 -1t27 -1.5t27.5 -1t23.5 -0.5q103 0 153.5 38t61.5 110l2 13q3 19 3 35z" />
    <glyph glyph-name="Q" unicode="Q" horiz-adv-x="661" 
d="M686 520q0 -20 -2 -40.5t-6 -43.5l-23 -129q-27 -152 -100 -226.5t-182 -85.5l-7 -43q-3 -17 -3 -27q0 -20 12 -25.5t42 -5.5h59q9 0 15 -3t4 -13l-6 -34q-2 -13 -24.5 -18.5t-60.5 -5.5q-63 0 -97 18.5t-34 72.5q0 20 4 40l8 45q-39 6 -72 23t-57 45t-37 67.5t-13 91.5
q0 20 2 40.5t6 43.5l23 129q16 89 46.5 149t73 97t95 52.5t111.5 15.5q50 0 91 -14.5t70.5 -43.5t45.5 -72t16 -100zM594 519q0 82 -38 115.5t-107 33.5q-83 0 -140.5 -55.5t-79.5 -176.5l-23 -129q-4 -21 -5.5 -40t-1.5 -36q0 -86 38.5 -121t106.5 -35q82 0 139.5 55.5
t79.5 176.5l23 129q5 23 6.5 44t1.5 39z" />
    <glyph glyph-name="R" unicode="R" horiz-adv-x="625" 
d="M655 572q0 -18 -3 -37l-1 -7q-13 -88 -64.5 -138t-128.5 -64l130 -307q2 -4 2 -9q0 -10 -11 -10h-69q-9 0 -12.5 1.5t-7.5 11.5l-126 298h-31q-25 0 -58 1t-52 2l-51 -294q-2 -8 -6.5 -14t-15.5 -6h-54q-17 0 -14 20l123 700q2 11 8 15.5t20 6.5q16 2 39 3.5t48 2.5
t48.5 1.5t41.5 0.5q54 0 99 -10.5t77.5 -32t50.5 -55.5t18 -80zM565 568q0 59 -41.5 79.5t-127.5 20.5h-27.5t-31 -0.5t-29.5 -1t-23 -1.5l-48 -274q19 -1 47.5 -1.5t62.5 -0.5q42 0 79 7t65 23.5t46 43t24 65.5l1 7q3 18 3 33z" />
    <glyph glyph-name="S" unicode="S" horiz-adv-x="550" 
d="M406 750q22 0 49 -1t53 -2.5t48.5 -4t36.5 -4.5q10 -2 13 -5t1 -12l-7 -43q-2 -9 -5.5 -13.5t-16.5 -2.5q-33 2 -80.5 4t-91.5 2q-30 0 -60 -3.5t-53.5 -14.5t-38 -31t-14.5 -53q0 -18 4.5 -32t15 -27.5t27.5 -27t42 -29.5l82 -55q35 -23 59 -45t39 -44.5t21.5 -47
t6.5 -51.5q0 -53 -21 -93t-58.5 -67t-88.5 -40.5t-111 -13.5q-21 0 -44 1t-45.5 3t-43.5 4.5t-37 5.5q-9 2 -13.5 5.5t-2.5 12.5l7 40q2 11 6 14.5t17 1.5q17 -2 38 -3t43.5 -1.5t44 -1t38.5 -0.5q81 0 128 30.5t47 101.5q0 18 -5 32t-16.5 27.5t-30 28t-44.5 32.5l-87 59
q-51 35 -80 78t-29 97q0 52 21 88t56.5 58.5t82 32.5t97.5 10z" />
    <glyph glyph-name="T" unicode="T" horiz-adv-x="590" 
d="M345 20q-2 -8 -8 -14t-14 -6h-55q-8 0 -12 6t-2 14l113 645h-195q-8 0 -13.5 3t-3.5 13l8 44q2 11 8.5 14.5t14.5 3.5h481q8 0 13 -3.5t3 -14.5l-8 -44q-2 -8 -6 -12t-16 -4h-195z" />
    <glyph glyph-name="U" unicode="U" horiz-adv-x="662" 
d="M699 743q8 0 13 -4t3 -15l-80 -454q-26 -148 -101.5 -212.5t-203.5 -64.5q-99 0 -156.5 51t-57.5 153q0 17 1.5 35t5.5 38l80 454q2 8 6.5 13.5t15.5 5.5h54q8 0 13 -4t3 -15l-80 -454q-4 -20 -6 -37.5t-2 -34.5q0 -63 31.5 -95t105.5 -32q46 0 80 13t57.5 38t38 62.5
t23.5 85.5l80 454q2 8 6 13.5t16 5.5h54z" />
    <glyph glyph-name="V" unicode="V" horiz-adv-x="643" 
d="M723 743q22 0 12 -23l-299 -651q-11 -24 -25 -38.5t-29 -23t-31 -11.5t-30 -3t-28.5 3t-27 11.5t-21.5 23t-12 38.5l-70 651q-2 15 4.5 19t16.5 4h56q10 0 12 -4.5t3 -10.5l62 -637q1 -21 16 -21q14 0 23 21l287 637q3 6 6 10.5t14 4.5h61z" />
    <glyph glyph-name="W" unicode="W" horiz-adv-x="825" 
d="M905 743q8 0 12.5 -4.5t0.5 -15.5l-230 -676q-11 -31 -29 -41t-42 -10h-43q-21 0 -33.5 13.5t-14.5 36.5l-33 370q-2 9 -5 9q-2 0 -4 -1t-5 -8l-164 -370q-10 -23 -27.5 -36.5t-38.5 -13.5h-42q-24 0 -38.5 9.5t-14.5 40.5v1l8 676q0 20 21 20h57q14 0 14 -17l-15 -637
q0 -15 3 -15q2 0 9 15l163 370q9 20 21.5 30t32.5 10h64q37 0 40 -40l33 -370q1 -7 1 -11t3 -4t4.5 3.5t3.5 11.5l209 637q6 17 20 17h59z" />
    <glyph glyph-name="X" unicode="X" horiz-adv-x="646" 
d="M719 731q0 -5 -5 -12l-279 -345l164 -349q2 -6 2 -8q0 -7 -5 -12t-14 -5h-50q-8 0 -11 3.5t-7 11.5l-135 288l-233 -288q-12 -15 -24 -15h-60q-14 0 -14 12q0 6 5 13l290 355l-159 339q-2 4 -2 7q0 7 5 12t13 5h51q8 0 11 -2.5t5 -7.5l133 -284l232 284q5 7 10 8.5
t11 1.5h52q14 0 14 -12z" />
    <glyph glyph-name="Y" unicode="Y" horiz-adv-x="583" 
d="M677 731q0 -5 -5 -13l-217 -348q-19 -30 -34.5 -45t-30.5 -21l-50 -284q-2 -8 -6 -14t-16 -6h-55q-17 0 -14 20l50 284q-13 5 -24 20.5t-19 45.5l-92 348q-7 25 18 25h58q8 0 11 -4.5t5 -9.5l80 -324q5 -17 9.5 -21.5t9.5 -4.5t10.5 4.5t16.5 21.5l197 324q5 8 9.5 11
t15.5 3h58q15 0 15 -12z" />
    <glyph glyph-name="Z" unicode="Z" horiz-adv-x="597" 
d="M645 674q0 -20 -8 -39.5t-31 -45.5l-429 -493q-4 -4 -4 -8q0 -6 8 -6h357q13 0 16 -4.5t1 -12.5l-8 -47q-2 -8 -5.5 -13t-17.5 -5h-343q-52 0 -76 20.5t-24 55.5q0 18 7 37.5t22 36.5l425 492q5 6 6.5 9t1.5 5q0 6 -9 6h-327q-8 0 -13.5 3t-3.5 14l8 47q2 8 5.5 12.5
t17.5 4.5h330q54 0 74 -18.5t20 -50.5z" />
    <glyph glyph-name="bracketleft" unicode="[" horiz-adv-x="327" 
d="M430 723l-5 -33q-2 -8 -9 -14t-15 -6h-114l-139 -791h114q16 0 16 -16v-4l-6 -33q-2 -8 -8.5 -14t-14.5 -6h-186q-7 0 -10.5 4.5t-3.5 10.5v4l159 899q2 8 7 13.5t13 5.5h186q16 0 16 -16v-4z" />
    <glyph glyph-name="backslash" unicode="\" horiz-adv-x="355" 
d="M268 0q-8 0 -10.5 6t-3.5 14l-103 703v2q0 7 4.5 12.5t12.5 5.5h51q8 0 10 -6t3 -14l101 -683q1 -5 2 -13.5t1 -9.5q0 -7 -4.5 -12t-12.5 -5h-51z" />
    <glyph glyph-name="bracketright" unicode="]" horiz-adv-x="327" 
d="M375 724l-159 -899q-2 -8 -7 -13.5t-13 -5.5h-186q-17 0 -17 17v3l6 33q2 8 9 14t15 6h114l139 791h-114q-16 0 -16 16v4l5 33q2 8 9 14t15 6h186q7 0 10.5 -4.5t3.5 -10.5v-4z" />
    <glyph glyph-name="asciicircum" unicode="^" horiz-adv-x="595" 
d="M578 572q0 -9 -11 -9h-60q-11 0 -15.5 4.5t-12.5 13.5l-103 120l-103 -120q-8 -9 -12.5 -13.5t-15.5 -4.5h-60q-11 0 -11 9q0 6 4 11l115 149q8 11 13.5 14.5t16.5 3.5h106q11 0 16.5 -3.5t13.5 -14.5l115 -149q4 -5 4 -11z" />
    <glyph glyph-name="underscore" unicode="_" horiz-adv-x="494" 
d="M514 -65l-5 -25q-2 -8 -8.5 -12t-14.5 -4h-515q-17 0 -17 13v3l5 25q3 16 22 16h515q8 0 13 -3t5 -10v-3z" />
    <glyph glyph-name="grave" unicode="`" horiz-adv-x="372" 
d="M354 632q0 -9 -10 -9h-54q-8 0 -12 3.5t-9 11.5l-90 126q-3 4 -3 7q0 8 12 8h66q9 0 13.5 -3.5t9.5 -11.5l75 -124q2 -3 2 -8z" />
    <glyph glyph-name="a" unicode="a" horiz-adv-x="527" 
d="M358 557q45 0 91 -6.5t84 -16.5q14 -3 16.5 -8t0.5 -15l-86 -491q-2 -8 -6.5 -14t-16.5 -6h-40q-11 0 -14 5.5t-1 16.5l5 31q-22 -16 -40.5 -27t-37 -18.5t-38.5 -11t-45 -3.5q-32 0 -60.5 10.5t-49.5 32t-33.5 55t-12.5 79.5q0 28 6 60l18 99q12 65 37 108.5t59.5 70
t76.5 38t87 11.5zM455 473q-20 4 -42.5 7t-54.5 3q-78 0 -119 -41.5t-55 -121.5l-18 -103q-2 -11 -3 -23t-1 -23q0 -58 25.5 -81t61.5 -23q35 0 69 15t76 43z" />
    <glyph glyph-name="b" unicode="b" horiz-adv-x="541" 
d="M552 378q0 -32 -6 -66l-13 -72q-22 -119 -84.5 -183t-176.5 -64q-45 0 -90.5 4t-90.5 13q-15 3 -17 8t0 15l123 700q2 8 6 13.5t16 5.5h51q8 0 12.5 -3.5t2.5 -15.5l-33 -186q30 5 62.5 7.5t56.5 2.5q91 0 136 -47.5t45 -131.5zM465 380q0 52 -25 76t-82 24
q-24 0 -58.5 -1t-60.5 -6l-70 -397q25 -2 57.5 -4t58.5 -2q70 0 108 46t52 124l13 72q4 20 5.5 37t1.5 31z" />
    <glyph glyph-name="c" unicode="c" horiz-adv-x="452" 
d="M348 480q-60 0 -101 -44t-54 -122l-13 -78q-6 -35 -6 -60q0 -57 26 -81.5t75 -24.5q37 0 65 1.5t61 5.5q12 2 16 -2.5t2 -12.5l-6 -36q-2 -11 -7 -15.5t-17 -6.5q-25 -5 -58.5 -8t-68.5 -3q-44 0 -77 14.5t-54.5 39.5t-32.5 59.5t-11 74.5q0 14 1.5 27.5t3.5 27.5l13 78
q20 122 86.5 182.5t169.5 60.5q35 0 67 -3t56 -8q14 -2 16 -7t0 -15l-6 -36q-2 -8 -6 -12.5t-18 -2.5q-32 4 -58.5 5.5t-63.5 1.5z" />
    <glyph glyph-name="d" unicode="d" horiz-adv-x="541" 
d="M514 733q4 19 23 19h51q17 0 14 -19l-123 -700q-2 -10 -6.5 -15.5t-18.5 -7.5q-48 -9 -94.5 -13t-92.5 -4t-80 13.5t-56.5 37.5t-33.5 58t-11 75q0 30 6 63l13 72q23 129 87 187t174 58q23 0 55 -2.5t60 -7.5zM468 473q-24 5 -57.5 6t-57.5 1q-37 0 -64 -12.5t-46 -35
t-31 -53.5t-19 -67l-13 -72q-3 -18 -5 -34.5t-2 -30.5q0 -51 24.5 -78t82.5 -27q26 0 59 2t59 4z" />
    <glyph glyph-name="e" unicode="e" horiz-adv-x="544" 
d="M555 371q0 -29 -6 -60l-8 -42q-2 -10 -6.5 -16t-15.5 -6h-337l-2 -12q-6 -35 -6 -61q0 -57 33 -82t91 -25q44 0 91 4.5t82 9.5q22 3 19 -14l-6 -34q-2 -11 -6.5 -16t-17.5 -7q-45 -8 -84.5 -12.5t-90.5 -4.5q-37 0 -72.5 10t-63 32t-44.5 57t-17 86q0 29 6 62l13 70
q23 120 90.5 183.5t174.5 63.5q46 0 80.5 -14.5t57.5 -39.5t34 -59t11 -73zM467 374q0 106 -108 106q-33 0 -60 -12t-47.5 -34t-34.5 -51.5t-21 -63.5l-1 -5h265l1 5q6 30 6 55z" />
    <glyph glyph-name="f" unicode="f" horiz-adv-x="370" 
d="M399 691q-18 0 -30.5 -2t-21 -9t-14.5 -21t-10 -37l-13 -72h108q8 0 13 -3.5t3 -14.5l-6 -35q-3 -17 -23 -17h-107l-89 -504q-8 -45 -23 -72t-36.5 -42t-48 -20t-56.5 -5q-13 0 -30 1.5t-29 3.5q-19 3 -16 16l6 33q2 10 7.5 12.5t13.5 2.5h47q35 0 52 14.5t25 55.5
l89 504l-93 7q-19 2 -16 17l5 28q2 8 6.5 13t15.5 5h94l13 72q8 46 22.5 73.5t35 42t47 19t59.5 4.5q14 0 30 -2t28 -4q11 -2 14.5 -5.5t1.5 -10.5l-6 -33q-2 -8 -5.5 -11.5t-14.5 -3.5h-48v0z" />
    <glyph glyph-name="g" unicode="g" horiz-adv-x="541" 
d="M105 312q12 67 34 114t55 76t77 42t100 13q45 0 93 -7.5t82 -15.5q14 -3 16.5 -8t0.5 -15l-90 -510q-10 -58 -28.5 -96.5t-47 -61t-68.5 -31.5t-94 -9q-57 0 -102 6t-65 12q-12 3 -15 7.5t-1 13.5l5 29q2 10 6.5 14t17.5 2t33 -4t43.5 -3.5l47 -3t43.5 -1.5q33 0 56.5 6
t39 20t25 37t15.5 57l2 12q-10 -2 -24.5 -4.5t-31 -4.5t-32 -3.5t-26.5 -1.5q-41 0 -75 10t-58.5 32t-38.5 56t-14 81q0 31 6 67zM468 472q-20 4 -49 7.5t-61 3.5q-70 0 -109.5 -41.5t-55.5 -129.5l-13 -73q-4 -20 -5.5 -38t-1.5 -33q0 -57 27.5 -79t84.5 -22q10 0 25 0.5
t30.5 2t31 3.5t27.5 5z" />
    <glyph glyph-name="h" unicode="h" horiz-adv-x="557" 
d="M556 397q0 -10 -1 -20t-3 -21l-59 -336q-2 -8 -6.5 -14t-17.5 -6h-48q-19 0 -16 20l59 336q4 20 4 40q0 46 -26.5 66t-85.5 20q-30 0 -62 -4t-56 -11l-78 -447q-2 -8 -6 -14t-18 -6h-48q-12 0 -15 6t-1 14l125 713q2 8 6 13.5t16 5.5h51q8 0 12.5 -4t2.5 -15l-33 -190
q26 6 57 10t60 4q48 0 83.5 -12.5t58.5 -34t34 -50.5t11 -63z" />
    <glyph glyph-name="i" unicode="i" horiz-adv-x="247" 
d="M283 758q19 0 16 -20l-14 -80q-2 -11 -7 -15.5t-17 -4.5h-51q-11 0 -14.5 6t-1.5 14l14 80q2 8 7.5 14t16.5 6h51zM244 550q9 0 13.5 -4t2.5 -16l-89 -510q-2 -8 -6.5 -14t-17.5 -6h-48q-11 0 -14.5 6t-1.5 14l89 510q2 14 9 17t15 3h48z" />
    <glyph glyph-name="j" unicode="j" horiz-adv-x="247" 
d="M283 758q19 0 16 -20l-14 -80q-2 -11 -7 -15.5t-17 -4.5h-51q-11 0 -14.5 6t-1.5 14l14 80q2 8 7.5 14t16.5 6h51zM172 530q2 14 9 17t15 3h48q9 0 13.5 -4t2.5 -16l-104 -594q-7 -39 -20 -64.5t-32 -41t-43.5 -21.5t-54.5 -6q-15 0 -27 1t-26 3q-10 2 -13 5.5t-2 10.5
l6 37q2 9 7.5 11.5t16.5 2.5h42q14 0 23.5 2.5t16 9.5t11 19t7.5 31z" />
    <glyph glyph-name="k" unicode="k" horiz-adv-x="496" 
d="M546 540q0 -7 -6 -13l-259 -238l181 -266q3 -5 3 -9q0 -5 -3.5 -9.5t-10.5 -4.5h-58q-8 0 -14.5 3t-12.5 12l-164 246l-42 -241q-2 -8 -6.5 -14t-12.5 -6h-53q-9 0 -13.5 6t-2.5 14l125 712q2 8 9 14t15 6h48q20 0 16 -20l-72 -406l230 215q9 9 22 9h68q13 0 13 -10z" />
    <glyph glyph-name="l" unicode="l" horiz-adv-x="244" 
d="M281 752q18 0 14 -19l-125 -713q-2 -8 -6 -14t-16 -6h-52q-8 0 -12 6t-2 14l125 713q2 8 6.5 13.5t15.5 5.5h52z" />
    <glyph glyph-name="m" unicode="m" horiz-adv-x="797" 
d="M800 412q0 -11 -1.5 -21t-3.5 -22l-61 -349q-2 -8 -9 -14t-15 -6h-48q-9 0 -13.5 6t-2.5 14l61 349q2 12 3 22.5t1 19.5q0 40 -19.5 54.5t-59.5 14.5q-23 0 -55.5 -6t-66.5 -23q3 -17 1.5 -41.5t-3.5 -38.5l-61 -351q-2 -8 -8 -14t-14 -6h-53q-9 0 -12 6.5t-1 13.5
l61 351q3 17 5 29.5t2 24.5q0 32 -17 43.5t-43 11.5q-18 0 -37 -4.5t-37 -10.5t-33.5 -12.5t-25.5 -10.5l-74 -422q-2 -8 -8 -14t-14 -6h-53q-9 0 -12 6t-1 14l89 510q2 8 6.5 14t16.5 6h48q12 0 14.5 -6t0.5 -14l-3 -19q38 23 73 34.5t73 11.5q32 0 59 -12.5t41 -32.5
q48 26 85 35.5t79 9.5q75 0 110.5 -39.5t35.5 -105.5z" />
    <glyph glyph-name="n" unicode="n" horiz-adv-x="557" 
d="M556 403q0 -26 -5 -54l-58 -329q-2 -8 -9 -14t-15 -6h-48q-9 0 -13.5 6t-2.5 14l58 329q2 14 3.5 28.5t1.5 26.5q0 36 -19 56t-74 20q-29 0 -61 -7.5t-80 -30.5l-74 -422q-2 -8 -9 -14t-15 -6h-49q-9 0 -13 6.5t-2 13.5l89 510q2 8 7 14t19 6h42q22 0 19 -20l-3 -21
q36 20 73 34t88 14q40 0 68.5 -12t46.5 -33t26.5 -49t8.5 -60z" />
    <glyph glyph-name="o" unicode="o" horiz-adv-x="545" 
d="M555 369q0 -14 -1.5 -28t-3.5 -28l-13 -76q-10 -57 -30.5 -102.5t-53 -77t-78 -48t-104.5 -16.5q-45 0 -79.5 14t-57.5 39t-35 59.5t-12 76.5q0 14 1.5 27.5t3.5 27.5l13 76q42 244 265 244q46 0 80.5 -14t58 -39t35 -59.5t11.5 -75.5zM467 370q0 54 -25.5 82t-84.5 28
q-66 0 -108.5 -45t-55.5 -122l-13 -76q-6 -33 -6 -59q0 -54 25.5 -81t84.5 -27q33 0 60.5 12.5t48.5 34.5t35.5 52.5t20.5 67.5l13 76q3 16 4 30t1 27z" />
    <glyph glyph-name="p" unicode="p" horiz-adv-x="541" 
d="M552 374q0 -31 -6 -64l-13 -72q-23 -128 -84.5 -186.5t-176.5 -58.5q-23 0 -55 3t-60 8l-32 -181q-2 -8 -8.5 -13.5t-14.5 -5.5h-51q-14 0 -14 15v3v1l121 688q2 11 6.5 15.5t18.5 7.5q42 10 92 16.5t96 6.5q92 0 136.5 -50.5t44.5 -132.5zM465 379q0 51 -24 77.5
t-83 26.5q-32 0 -65 -3t-54 -7l-69 -396q24 -5 57.5 -7.5t57.5 -2.5q69 0 107.5 46.5t52.5 124.5l13 72q4 20 5.5 37t1.5 32z" />
    <glyph glyph-name="q" unicode="q" horiz-adv-x="541" 
d="M366 557q45 0 93.5 -6.5t86.5 -16.5q14 -3 16.5 -8t0.5 -15l-121 -688q-3 -19 -22 -19h-51q-18 0 -15 19l32 181q-30 -5 -62.5 -8t-56.5 -3q-88 0 -134.5 48t-46.5 133q0 29 6 64l13 72q22 122 83.5 184.5t177.5 62.5zM468 473q-20 4 -51.5 7t-63.5 3q-35 0 -61.5 -13
t-46 -36.5t-32.5 -55t-20 -68.5l-13 -72q-8 -43 -8 -71q0 -52 25 -76t83 -24q24 0 58.5 2.5t60.5 7.5z" />
    <glyph glyph-name="r" unicode="r" horiz-adv-x="342" 
d="M160 20q-2 -8 -9 -14t-15 -6h-49q-8 0 -12.5 6t-2.5 14l89 510q2 8 8.5 14t14.5 6h47q9 0 13 -6t2 -14l-4 -23q41 32 77 41t71 9h2q13 0 16.5 -5t1.5 -13l-7 -42q-3 -17 -24 -17h-3q-43 0 -74.5 -9t-68.5 -32z" />
    <glyph glyph-name="s" unicode="s" horiz-adv-x="466" 
d="M329 557q29 0 49.5 -1t37 -2.5t30.5 -4t30 -5.5q11 -2 14 -5.5t1 -14.5l-5 -33q-3 -20 -23 -17q-26 3 -65.5 5.5t-81.5 2.5q-17 0 -35.5 -3t-34 -11t-25.5 -21.5t-10 -35.5q0 -19 14 -34t40 -32l89 -59q26 -17 43 -33t27.5 -31.5t14.5 -32.5t4 -37q0 -44 -18 -74.5
t-48 -49.5t-69 -27t-80 -8q-16 0 -36 1t-41 2.5t-42 4.5t-37 7q-8 2 -13.5 7t-3.5 13l6 35q2 10 7 13.5t18 1.5q18 -2 39 -4t42.5 -3.5t40.5 -2.5t33 -1q22 0 42.5 4.5t36 14t25 26t9.5 40.5q0 17 -12 32.5t-46 38.5l-90 59q-42 27 -63 58t-21 72q0 42 18.5 69.5t47.5 44.5
t66 24t75 7z" />
    <glyph glyph-name="t" unicode="t" horiz-adv-x="375" 
d="M424 550q19 0 16 -20l-6 -34q-2 -14 -8.5 -17t-14.5 -3h-108l-62 -351q-3 -18 -3 -29q0 -22 11 -27t35 -5h61q17 0 14 -14l-6 -35q-2 -7 -6 -11t-15 -6q-15 -2 -32 -3.5t-31 -1.5q-51 0 -85.5 21.5t-34.5 73.5q0 10 1 18.5t3 20.5l62 349l-95 11q-8 1 -13 5.5t-3 12.5
l5 27q2 11 8 14.5t14 3.5h97l16 98q3 17 22 20l53 8q11 2 14 -3.5t1 -13.5l-18 -109h108z" />
    <glyph glyph-name="u" unicode="u" horiz-adv-x="557" 
d="M567 550q11 0 14 -6.5t1 -13.5l-89 -510q-2 -8 -8.5 -14t-14.5 -6h-47q-9 0 -13 6t-2 14l3 18q-45 -23 -83 -34t-83 -11q-65 0 -105.5 39.5t-40.5 118.5q0 28 6 61l56 318q2 11 9 15.5t15 4.5h48q19 0 16 -20l-58 -329q-6 -33 -6 -57q0 -42 21.5 -58t71.5 -16q32 0 68 10
t74 27l74 423q2 8 6.5 14t17.5 6h49z" />
    <glyph glyph-name="v" unicode="v" horiz-adv-x="530" 
d="M586 538q0 -6 -3 -12l-208 -454q-22 -47 -51.5 -63t-59.5 -16q-15 0 -28.5 3.5t-25 12.5t-19 24t-10.5 39l-48 454q-2 14 4 19t15 5h51q6 0 10.5 -4.5t5.5 -14.5l35 -434q2 -19 6.5 -25t12.5 -6q7 0 14 6t15 25l189 434q5 10 10 14.5t16 4.5h56q13 0 13 -12z" />
    <glyph glyph-name="w" unicode="w" horiz-adv-x="786" 
d="M826 550q9 0 14.5 -5t0.5 -19l-179 -464q-14 -38 -38.5 -53.5t-57.5 -15.5q-29 0 -47 19t-21 56l-29 337q-1 7 -4 7t-6 -7l-147 -337q-17 -37 -37.5 -56t-56.5 -19q-33 0 -51.5 15.5t-20.5 53.5l-15 465q0 8 7 15.5t16 7.5h52q7 0 10.5 -5t3.5 -11l3 -453q0 -9 2 -10.5
t4 -1.5q5 0 10 12l165 381q8 17 19 23.5t27 6.5h56q16 0 24 -6.5t10 -23.5l31 -381q1 -12 6 -12q2 0 4.5 1.5t5.5 10.5l163 453q2 6 7 11t13 5h56z" />
    <glyph glyph-name="x" unicode="x" horiz-adv-x="547" 
d="M594 540q0 -7 -7 -15l-214 -243l134 -259q3 -5 3 -10q0 -13 -16 -13h-56q-8 0 -12 3t-8 11l-104 201l-181 -205q-6 -7 -9 -8.5t-10 -1.5h-58q-14 0 -14 8t6 15l230 262l-124 240q-3 6 -3 10q0 7 5 11t12 4h55q10 0 18 -14l96 -185l162 185q8 9 12 11.5t11 2.5h61
q11 0 11 -10z" />
    <glyph glyph-name="y" unicode="y" horiz-adv-x="534" 
d="M592 537q0 -5 -3 -11l-267 -576q-19 -41 -37.5 -69t-42.5 -45.5t-55 -25.5t-74 -8q-21 0 -44 2.5t-38 6.5q-8 2 -14.5 5t-4.5 11l7 37q2 11 6.5 14.5t18.5 1.5q8 -1 19.5 -2t24 -2t24.5 -1.5t20 -0.5q21 0 37.5 3.5t30 13t24.5 26t22 42.5l17 41h-11q-12 0 -22.5 3
t-19.5 11.5t-15 23.5t-9 40l-51 448q-2 16 4 20t17 4h52q9 0 11 -5t3 -11l42 -434q2 -15 6 -18.5t9 -3.5h16l202 457q3 8 7 11.5t15 3.5h59q14 0 14 -13z" />
    <glyph glyph-name="z" unicode="z" horiz-adv-x="466" 
d="M493 481q0 -16 -6.5 -32t-20.5 -31l-313 -325q-7 -7 -7 -12q0 -7 10 -7h255q13 0 15.5 -6t0.5 -14l-6 -34q-2 -11 -6 -15.5t-17 -4.5h-253q-45 0 -66 20.5t-21 49.5q0 15 5 30.5t18 28.5l319 331q6 6 6 11t-10 5h-246q-19 0 -16 20l6 34q2 12 8.5 16t14.5 4h250
q43 0 61.5 -20.5t18.5 -48.5z" />
    <glyph glyph-name="braceleft" unicode="{" horiz-adv-x="331" 
d="M430 723l-5 -33q-2 -8 -9 -14t-15 -6h-45q-22 0 -36 -3t-22.5 -10t-13.5 -20t-8 -32l-32 -178q-10 -53 -31 -89.5t-67 -64.5q26 -23 37 -51t11 -60q0 -23 -4 -42l-31 -176q-3 -17 -3 -29q0 -22 13 -29t48 -7h46q16 0 16 -16v-4l-6 -33q-2 -8 -8.5 -14t-14.5 -6h-42
q-73 0 -107.5 24t-34.5 72q0 22 4 42l31 176q2 13 3.5 23.5t1.5 20.5q0 26 -10 44.5t-33 36.5l10 58q20 12 33.5 24.5t23 26.5t15.5 32t10 41l32 178q8 43 20 70t32.5 42t51.5 20.5t77 5.5h46q8 0 12 -5t4 -12v-3z" />
    <glyph glyph-name="bar" unicode="|" horiz-adv-x="249" 
d="M246 -175q0 -8 -5 -13.5t-13 -5.5h-52q-8 0 -13.5 5.5t-5.5 13.5v899q0 8 5.5 13.5t13.5 5.5h52q8 0 13 -5.5t5 -13.5v-899v0z" />
    <glyph glyph-name="braceright" unicode="}" horiz-adv-x="331" 
d="M354 245q-20 -12 -33.5 -24.5t-23 -27t-15.5 -32.5t-10 -41l-31 -176q-8 -42 -18.5 -68.5t-30 -42t-50.5 -21.5t-78 -6h-51q-8 0 -12.5 5t-4.5 12v2v1l6 33q2 8 9 14t15 6h46q22 0 36 2.5t22.5 10t13.5 20t8 32.5l31 176q9 53 31 89t67 64q-26 25 -37.5 51t-11.5 57
q0 11 1.5 22t3.5 24l32 178q3 16 3 29q0 21 -13 28.5t-48 7.5h-45q-8 0 -12 5t-4 12v3l5 33q2 8 9 14t15 6h50q72 0 102.5 -23t30.5 -72q0 -10 -1 -20.5t-3 -22.5l-32 -178q-2 -13 -3.5 -23.5t-1.5 -20.5q0 -26 10 -44t33 -36z" />
    <glyph glyph-name="asciitilde" unicode="~" horiz-adv-x="595" 
d="M581 467q0 -63 -24.5 -95.5t-84.5 -32.5q-20 0 -39.5 7.5t-36.5 20.5l-73 58q-22 17 -32 24t-21 7q-29 0 -35.5 -16t-6.5 -43v-26q0 -8 -6 -14t-14 -6h-29q-8 0 -14 6t-6 14v26q0 65 28.5 97.5t82.5 32.5q20 0 39.5 -7.5t35.5 -20.5l85 -68q9 -8 21.5 -14t20.5 -6
q28 0 34 13t6 43v28q0 8 6 14t14 6h29q8 0 14 -6t6 -14v-28v0z" />
    <glyph glyph-name="uni00A0" unicode="&#xa0;" horiz-adv-x="273" 
 />
    <glyph glyph-name="exclamdown" unicode="&#xa1;" horiz-adv-x="217" 
d="M247 531l-17 -94q-2 -8 -8 -13.5t-14 -5.5h-48q-16 0 -16 16v3l17 94q3 19 22 19h48q16 0 16 -16v-3zM207 337l-84 -520q-2 -8 -9 -13.5t-15 -5.5h-50q-16 0 -16 16v3l99 520q2 8 8.5 13.5t14.5 5.5h36q16 0 16 -16v-3z" />
    <glyph glyph-name="cent" unicode="&#xa2;" 
d="M546 531q0 -2 -0.5 -3.5t-0.5 -3.5l-6 -36q-2 -8 -7.5 -11.5t-13.5 -3.5h-3q-32 4 -58.5 6t-63.5 2q-60 0 -100.5 -41t-54.5 -126l-13 -78q-2 -15 -3.5 -29t-1.5 -27q0 -111 100 -111q37 0 65 2t61 6h4q14 0 14 -12v-3l-6 -36q-2 -11 -7 -15.5t-17 -6.5
q-20 -3 -44.5 -5.5t-51.5 -4.5l-16 -90q-2 -8 -8.5 -14t-14.5 -6h-41q-17 0 -17 17v3l17 94q-63 13 -94.5 63.5t-31.5 120.5q0 13 1.5 26.5t3.5 27.5l13 78q10 58 30 101t47 72t60 44.5t68 20.5l17 93q2 8 8.5 14t14.5 6h41q17 0 17 -17v-3l-16 -89q26 -2 50 -4.5t42 -5.5
q17 -3 17 -15z" />
    <glyph glyph-name="sterling" unicode="&#xa3;" 
d="M664 717q0 -2 -0.5 -2.5t-0.5 -2.5l-8 -41q-3 -17 -19 -17h-4q-32 4 -74.5 7.5t-77.5 3.5q-39 0 -66 -8.5t-45 -28.5t-29.5 -53.5t-20.5 -84.5l-11 -65h215q16 0 16 -15v-3l-8 -42q-2 -8 -8.5 -13t-14.5 -5h-214l-27 -152q-7 -38 -23 -67t-33 -52h319q8 0 13 -3t5 -9v-3
l-8 -44q-2 -8 -8.5 -12.5t-14.5 -4.5h-399q-8 0 -11 3.5t-3 8.5v3l7 39q2 8 6 13l8 10q23 29 33.5 54t17.5 64l27 152h-52q-15 0 -15 14v4l8 42q2 8 8.5 13t14.5 5h50l11 65q11 65 30 112.5t50 78.5t76.5 46t109.5 15q19 0 40.5 -1t42 -3t39 -4.5t31.5 -4.5q17 -3 17 -12z
" />
    <glyph glyph-name="currency" unicode="&#xa4;" 
d="M612 574q0 -8 -7 -15l-82 -82q17 -23 25 -50t8 -54q0 -28 -8.5 -55t-25.5 -51l82 -82q7 -7 7 -15q0 -7 -5 -12l-27 -27q-5 -5 -11 -5q-8 0 -15 7l-84 84q-47 -33 -102 -33q-27 0 -54 8t-50 25l-82 -82q-3 -3 -7 -5.5t-9 -2.5t-10 5l-27 28q-5 7 -5 11q0 8 7 15l81 81
q-17 23 -25.5 50.5t-8.5 55.5q0 27 7.5 53.5t24.5 49.5l-81 81q-7 7 -7 15t5 12l28 27q5 5 11 5q7 0 15 -8l80 -80q24 17 51 25.5t55 8.5q58 0 106 -34l82 82q7 7 15 7q6 0 11 -5l27 -27q5 -5 5 -11zM485 373q0 25 -9.5 46.5t-26 37.5t-38 25.5t-46.5 9.5t-46.5 -9.5
t-38 -25.5t-26 -37.5t-9.5 -46.5t9.5 -46.5t26 -38t38 -26t46.5 -9.5t46.5 9.5t38 26t26 38t9.5 46.5z" />
    <glyph glyph-name="yen" unicode="&#xa5;" 
d="M694 732q0 -8 -5 -14l-161 -236h110q16 0 16 -16v-4l-5 -30q-2 -8 -8.5 -14t-14.5 -6h-145l-75 -110l-3 -21h200q16 0 16 -16v-4l-5 -30q-2 -8 -9 -14t-15 -6h-200l-33 -191q-2 -8 -8 -14t-14 -6h-57q-7 0 -10 4.5t-3 10.5v5l33 191h-201q-16 0 -16 16v4l5 30q2 8 9 14
t15 6h201l3 21l-35 110h-146q-17 0 -17 17v3l5 30q2 8 9 14t15 6h111l-77 236q-2 6 -2 9q0 16 19 16h59q5 0 9 -4.5t6 -9.5l102 -339l222 339q3 5 8 9.5t11 4.5h66q15 0 15 -11z" />
    <glyph glyph-name="brokenbar" unicode="&#xa6;" horiz-adv-x="249" 
d="M229 362q0 -8 -5 -14t-13 -6h-53q-8 0 -13 6t-5 14v347q0 8 5 13.5t13 5.5h53q8 0 13 -5.5t5 -13.5v-347zM229 -191q0 -8 -5 -14t-13 -6h-53q-8 0 -13 6t-5 14v347q0 8 5 13.5t13 5.5h53q8 0 13 -5.5t5 -13.5v-347z" />
    <glyph glyph-name="section" unicode="&#xa7;" horiz-adv-x="547" 
d="M607 718l-8 -43q-2 -8 -7.5 -12.5t-13.5 -4.5h-1q-44 2 -86 5.5t-86 3.5q-31 0 -60 -3.5t-52 -15.5t-37 -34t-14 -59q0 -26 18.5 -47t64.5 -51l97 -64q64 -43 89 -80.5t25 -79.5q0 -40 -14 -78.5t-39 -69.5q17 -34 17 -70q0 -63 -23.5 -107t-63 -71.5t-91 -40
t-108.5 -12.5q-53 0 -93.5 4.5t-72.5 9.5q-15 2 -15 16v3l7 42q2 8 8.5 12.5t14.5 4.5h2q41 -3 79.5 -6.5t80.5 -3.5q35 0 67 6.5t56 23t38.5 43.5t14.5 68q0 14 -4.5 26.5t-14.5 24.5t-27 25t-41 30l-100 67q-59 40 -81.5 78.5t-22.5 77.5q0 41 15 73t41 63q-9 17 -14 35.5
t-5 39.5q0 61 23 100t61 62t87 32t101 9q21 0 46.5 -1.5t50.5 -3.5t45 -4t31 -4q6 -2 10.5 -6t4.5 -10v-3zM443 216q0 29 -18.5 50.5t-63.5 52.5l-80 55q-15 11 -32.5 23t-31.5 24q-8 -17 -14 -34t-6 -36q0 -29 18.5 -51.5t52.5 -45.5l99 -66q20 -14 32 -22.5t27 -20.5
q17 34 17 71z" />
    <glyph glyph-name="dieresis" unicode="&#xa8;" horiz-adv-x="373" 
d="M445 741l-15 -81q-2 -8 -8.5 -13.5t-14.5 -5.5h-39q-7 0 -12 4t-5 12v3l15 81q2 8 8.5 14t14.5 6h39q7 0 12 -5t5 -12v-3zM270 741l-15 -81q-2 -8 -8.5 -13.5t-14.5 -5.5h-39q-7 0 -12 4t-5 12v3l15 81q2 8 8.5 14t14.5 6h39q7 0 12 -5t5 -12v-3z" />
    <glyph glyph-name="copyright" unicode="&#xa9;" horiz-adv-x="750" 
d="M770 374q0 -67 -26 -126t-70 -103t-103.5 -69.5t-126.5 -25.5t-126 25.5t-103 69.5t-69.5 103t-25.5 126t25.5 126.5t69.5 104t103 70.5t126 26t126.5 -26t103.5 -70.5t70 -104t26 -126.5zM726 374q0 58 -22 110t-60.5 90t-90 60.5t-109.5 22.5q-59 0 -110 -22.5
t-89 -60.5t-60 -90t-22 -110q0 -59 22 -110t60 -88.5t89 -59.5t110 -22q58 0 109.5 22t90 59.5t60.5 88.5t22 110zM546 183q0 -8 -5 -11t-10 -4q-11 -2 -33.5 -4.5t-57.5 -2.5q-32 0 -60 10t-48.5 31.5t-32.5 56.5t-12 85v66q0 50 12 85t32.5 57t48.5 32t60 10q35 0 57.5 -3
t33.5 -5q5 -1 10 -3.5t5 -10.5v-28q0 -8 -4 -10t-9 -2h-3q-16 2 -39.5 3.5t-50.5 1.5q-18 0 -34.5 -6t-29 -21t-20 -39.5t-7.5 -60.5v-66q0 -36 7.5 -60.5t20 -39t29 -20.5t34.5 -6q26 0 50 1.5t40 3.5h2q5 0 9.5 -2.5t4.5 -10.5v-27z" />
    <glyph glyph-name="ordfeminine" unicode="&#xaa;" horiz-adv-x="302" 
d="M378 665q0 -16 -3 -34l-32 -181q-2 -13 -12 -16q-25 -6 -50.5 -9.5t-50.5 -3.5q-58 0 -84 17.5t-26 55.5q0 5 0.5 11.5t1.5 13.5l1 7q7 49 46 70.5t112 21.5h32l2 13q1 7 1.5 13t0.5 11q0 22 -11 30.5t-34 8.5q-27 0 -47.5 -1.5t-37.5 -3.5h-2q-11 0 -11 10v3l3 21
q1 7 6.5 10t11.5 4q17 3 38.5 6t48.5 3q51 0 73.5 -20.5t22.5 -60.5zM284 576h-9q-48 -2 -69 -12.5t-25 -37.5l-1 -7q-1 -5 -1.5 -8.5t-0.5 -7.5q0 -18 13.5 -26.5t47.5 -8.5q14 0 27.5 1.5t21.5 3.5l19 103h-23z" />
    <glyph glyph-name="guillemotleft" unicode="&#xab;" horiz-adv-x="614" 
d="M645 477q0 -3 -2 -7.5t-6 -7.5l-210 -185l139 -185q4 -6 4 -11q0 -11 -12 -11h-53q-10 0 -19 10l-139 169q-8 9 -8 25q0 21 12 31l199 169q8 6 13.5 8t11.5 2h61q9 0 9 -7zM385 477q0 -3 -2 -7.5t-6 -7.5l-210 -185l139 -185q4 -6 4 -11q0 -11 -12 -11h-53q-10 0 -19 10
l-139 169q-8 9 -8 25q0 21 12 31l199 169q8 6 13.5 8t11.5 2h61q9 0 9 -7z" />
    <glyph glyph-name="logicalnot" unicode="&#xac;" horiz-adv-x="595" 
d="M585 247q0 -8 -6 -14t-14 -6h-32q-8 0 -14 6t-6 14v219h-333q-8 0 -14 4t-6 12v40q0 8 6 12t14 4h388q17 0 17 -17v-274v0z" />
    <glyph glyph-name="uni00AD" unicode="&#xad;" horiz-adv-x="333" 
d="M340 312l-7 -39q-3 -17 -22 -17h-199q-16 0 -16 14v3l7 39q2 8 8 13t14 5h199q16 0 16 -15v-3z" />
    <glyph glyph-name="registered" unicode="&#xae;" horiz-adv-x="598" 
d="M655 484q0 -56 -21 -105t-58 -85t-86 -57t-105 -21t-105 21t-85.5 57t-57.5 85t-21 105t21 105t57.5 85.5t85.5 57.5t105 21t105 -21t86 -57.5t58 -85.5t21 -105zM614 484q0 47 -18 89t-49 73t-73 49t-89 18t-88.5 -18t-72.5 -49t-48.5 -73t-17.5 -89t17.5 -88.5
t48.5 -72.5t72.5 -48.5t88.5 -17.5t89 17.5t73 48.5t49 72.5t18 88.5zM511 331q0 -13 -12 -13h-28q-8 0 -12 8l-81 128l-10 3h-42v-124q0 -5 -4 -10t-10 -5h-25q-6 0 -9.5 5t-3.5 10v302q0 20 18 22q6 1 15.5 1.5t20 1t21.5 0.5h19q63 0 97 -22t34 -79v-4q0 -38 -17.5 -59.5
t-49.5 -30.5l77 -125q2 -4 2 -9zM449 559q0 30 -18 42t-60 12h-32h-14v-112q8 0 24 -0.5t22 -0.5q42 0 60 12.5t18 42.5v4z" />
    <glyph glyph-name="macron" unicode="&#xaf;" horiz-adv-x="373" 
d="M479 726l-6 -34q-2 -8 -8.5 -12.5t-14.5 -4.5h-288q-17 0 -17 14v3l6 34q2 8 8.5 12.5t14.5 4.5h288q17 0 17 -14v-3z" />
    <glyph glyph-name="degree" unicode="&#xb0;" horiz-adv-x="342" 
d="M422 608q0 -29 -11 -55t-30.5 -45.5t-45.5 -30.5t-55 -11t-55 11t-45.5 30.5t-31 45.5t-11.5 55t11.5 55t31 45.5t45.5 30.5t55 11t55 -11t45.5 -30.5t30.5 -45.5t11 -55zM368 608q0 18 -7 34t-19 28t-28 19t-34 7t-34 -7t-28 -19t-19 -28t-7 -34t7 -34t19 -28t28 -19
t34 -7t34 7t28 19t19 28t7 34z" />
    <glyph glyph-name="plusminus" unicode="&#xb1;" horiz-adv-x="595" 
d="M574 371q0 -8 -6 -12t-14 -4h-172v-171q0 -8 -4 -14t-12 -6h-40q-8 0 -12 6t-4 14v171h-171q-8 0 -14 4t-6 12v40q0 8 6 12t14 4h171v172q0 8 4 14t12 6h40q8 0 12 -6t4 -14v-172h172q8 0 14 -4t6 -12v-40zM574 9q0 -8 -6 -12t-14 -4h-415q-8 0 -14 4t-6 12v33q0 8 6 12
t14 4h415q8 0 14 -4t6 -12v-33z" />
    <glyph glyph-name="two.superior" unicode="&#xb2;" horiz-adv-x="341" 
d="M413 663q0 -24 -7.5 -43t-20.5 -34.5t-30 -28.5t-36 -25l-58 -36q-24 -15 -39 -28t-23.5 -25.5t-12.5 -25.5t-7 -28l-1 -5h173q12 0 11 -10l-6 -37q-2 -7 -5 -8.5t-10 -1.5h-225q-7 0 -8.5 3.5t-1.5 8.5l7 40q9 52 33.5 90.5t81.5 73.5l61 37q19 12 31 20.5t18.5 17
t8.5 17.5t2 21q0 20 -16.5 27t-57.5 7q-20 0 -43.5 -1.5t-46.5 -5.5q-15 -3 -12 10l6 31q1 7 14 10q20 5 45.5 8.5t51.5 3.5q57 0 90 -21t33 -62z" />
    <glyph glyph-name="three.superior" unicode="&#xb3;" horiz-adv-x="338" 
d="M186 734q20 6 44.5 9t46.5 3q63 0 97 -25.5t34 -68.5q0 -73 -68 -109q21 -14 28 -36t7 -39q0 -39 -13 -66.5t-35.5 -45t-53 -25.5t-66.5 -8q-23 0 -49.5 3.5t-43.5 8.5q-3 1 -6 3t-2 8l5 29q2 8 5.5 9.5t6.5 1.5t8 -0.5t11 -1.5q14 -2 30.5 -3t30.5 -1q24 0 44 3t34.5 12
t22.5 26t8 45q0 23 -10.5 37t-40.5 14h-100q-4 0 -8 2t-2 9l6 31q2 11 14 11h98q36 0 55 19.5t19 54.5q0 26 -20 35.5t-65 9.5q-18 0 -41 -2.5t-39 -4.5q-12 -1 -10 11l5 30q1 7 13 11z" />
    <glyph glyph-name="acute" unicode="&#xb4;" horiz-adv-x="373" 
d="M469 773q0 -4 -5 -9l-136 -126q-8 -8 -12.5 -11.5t-12.5 -3.5h-54q-8 0 -8 6q0 5 6 11l120 124q8 8 12.5 11.5t13.5 3.5h66q10 0 10 -6z" />
    <glyph glyph-name="mu" unicode="&#xb5;" horiz-adv-x="557" 
d="M582 530l-85 -486q-3 -17 -23 -23q-37 -13 -88 -20.5t-102 -7.5q-78 0 -124 29l-35 -198q-2 -8 -9 -14t-15 -6h-48q-16 0 -16 16v4l124 706q2 8 8.5 14t14.5 6h50q15 0 15 -16v-4l-58 -329q-4 -20 -4 -42q0 -48 27 -69.5t83 -21.5q30 0 62 3.5t56 10.5l79 448q2 8 9 14
t15 6h49q15 0 15 -16v-4z" />
    <glyph glyph-name="paragraph" unicode="&#xb6;" horiz-adv-x="622" 
d="M686 731q0 -2 -0.5 -3.5t-0.5 -3.5l-159 -900q-2 -8 -7 -13.5t-13 -5.5h-23q-7 0 -10.5 4.5t-3.5 10.5v4l152 865h-58l-152 -865q-2 -8 -7 -13.5t-13 -5.5h-23q-7 0 -10.5 4.5t-3.5 10.5v4l77 439h-98q-46 0 -84 12.5t-65 36t-42 57t-15 74.5q0 23 4 43l6 34
q9 54 34 95.5t61 70t82 43t98 14.5h260q14 0 14 -12z" />
    <glyph glyph-name="periodcentered" unicode="&#xb7;" horiz-adv-x="214" 
d="M227 438l-16 -93q-2 -8 -8.5 -14t-14.5 -6h-48q-15 0 -15 16v4l16 93q2 8 8.5 13.5t14.5 5.5h48q7 0 11 -4.5t4 -10.5v-4z" />
    <glyph glyph-name="cedilla" unicode="&#xb8;" horiz-adv-x="366" 
d="M247 -38q0 -4 -5 -9l-136 -126q-8 -8 -12.5 -11.5t-12.5 -3.5h-54q-8 0 -8 6q0 5 6 11l119 124q8 8 13 11.5t14 3.5h66q10 0 10 -6z" />
    <glyph glyph-name="one.superior" unicode="&#xb9;" horiz-adv-x="282" 
d="M312 743q10 0 9 -10l-69 -395q0 -5 -3.5 -8t-8.5 -3h-45q-8 0 -7 11l60 341l-78 -31q-3 -2 -7.5 -1t-3.5 8l6 37q1 8 10 11l79 33q15 7 26 7h32z" />
    <glyph glyph-name="ordmasculine" unicode="&#xba;" horiz-adv-x="322" 
d="M401 643q0 -22 -4 -42l-6 -35q-12 -70 -51.5 -107.5t-103.5 -37.5q-54 0 -81 26.5t-27 77.5q0 21 4 41l6 35q12 70 52 107.5t104 37.5q54 0 80.5 -26.5t26.5 -76.5zM339 635q0 29 -13 43.5t-42 14.5q-71 0 -86 -92l-6 -35q-3 -18 -3 -33q0 -60 56 -60q37 0 57 23.5
t28 69.5l6 35q3 19 3 34z" />
    <glyph glyph-name="guillemotright" unicode="&#xbb;" horiz-adv-x="614" 
d="M635 280q0 -21 -12 -31l-199 -169q-13 -10 -25 -10h-61q-9 0 -9 7q0 3 2 7.5t6 7.5l210 185l-139 185q-4 6 -4 11q0 11 12 11h53q10 0 19 -10l139 -169q8 -9 8 -25zM375 280q0 -21 -12 -31l-199 -169q-13 -10 -25 -10h-61q-9 0 -9 7q0 3 2 7.5t6 7.5l210 185l-139 185
q-4 6 -4 11q0 11 12 11h53q10 0 19 -10l139 -169q8 -9 8 -25z" />
    <glyph glyph-name="onequarter" unicode="&#xbc;" horiz-adv-x="737" 
d="M304 743q10 0 9 -10l-69 -395q0 -5 -3.5 -8t-8.5 -3h-45q-8 0 -7 11l60 341l-78 -31q-3 -2 -7.5 -1t-3.5 8l6 37q1 8 10 11l79 33q15 7 26 7h32zM739 738q0 -6 -7 -14l-543 -708q-8 -11 -13 -15.5t-13 -4.5h-49q-8 0 -8 6t6 14l543 708q8 11 13 15t13 4h51q7 0 7 -5z
M728 124q-2 -8 -8 -12.5t-14 -4.5h-38l-15 -88q-2 -7 -8 -13t-14 -6h-31q-8 0 -11.5 5.5t-1.5 13.5l15 88h-147q-17 0 -23 5.5t-3 22.5l3 20q3 15 13 26l202 224q4 4 8 7.5t14 3.5h31q22 0 19 -20l-41 -233h38q8 0 13 -4.5t3 -12.5zM641 325l-141 -162h113z" />
    <glyph glyph-name="onehalf" unicode="&#xbd;" horiz-adv-x="790" 
d="M304 743q10 0 9 -10l-69 -395q0 -5 -3.5 -8t-8.5 -3h-45q-8 0 -7 11l60 341l-78 -31q-3 -2 -7.5 -1t-3.5 8l6 37q1 8 10 11l79 33q15 7 26 7h32zM739 738q0 -6 -7 -14l-543 -708q-8 -11 -13 -15.5t-13 -4.5h-49q-8 0 -8 6t6 14l543 708q8 11 13 15t13 4h51q7 0 7 -5z
M792 336q0 -24 -7.5 -43t-20.5 -34.5t-30 -28.5t-36 -25l-58 -36q-24 -15 -39 -28t-23.5 -25.5t-12.5 -25.5t-7 -28l-1 -5h173q12 0 11 -10l-6 -37q-2 -7 -5 -8.5t-10 -1.5h-225q-7 0 -8.5 3.5t-1.5 8.5l7 40q9 52 33.5 90.5t81.5 73.5l61 37q19 12 31 20.5t18.5 17
t8.5 17.5t2 21q0 20 -16.5 27t-57.5 7q-20 0 -43.5 -1.5t-46.5 -5.5q-15 -3 -12 10l6 31q1 7 14 10q20 5 45.5 8.5t51.5 3.5q57 0 90 -21t33 -62z" />
    <glyph glyph-name="threequarters" unicode="&#xbe;" horiz-adv-x="798" 
d="M800 738q0 -6 -7 -14l-543 -708q-8 -11 -13 -15.5t-13 -4.5h-49q-8 0 -8 6t6 14l543 708q8 11 13 15t13 4h51q7 0 7 -5zM789 124q-2 -8 -8 -12.5t-14 -4.5h-38l-15 -88q-2 -7 -8 -13t-14 -6h-31q-8 0 -11.5 5.5t-1.5 13.5l15 88h-147q-17 0 -23 5.5t-3 22.5l3 20
q3 15 13 26l202 224q4 4 8 7.5t14 3.5h31q22 0 19 -20l-41 -233h38q8 0 13 -4.5t3 -12.5zM702 325l-141 -162h113zM187 734q20 6 44.5 9t46.5 3q63 0 97 -25.5t34 -68.5q0 -73 -68 -109q21 -14 28 -36t7 -39q0 -39 -13 -66.5t-35.5 -45t-53 -25.5t-66.5 -8q-23 0 -49.5 3.5
t-43.5 8.5q-3 1 -6 3t-2 8l5 29q2 8 5.5 9.5t6.5 1.5t8 -0.5t11 -1.5q14 -2 30.5 -3t30.5 -1q24 0 44 3t34.5 12t22.5 26t8 45q0 23 -10.5 37t-40.5 14h-100q-4 0 -8 2t-2 9l6 31q2 11 14 11h98q36 0 55 19.5t19 54.5q0 26 -20 35.5t-65 9.5q-18 0 -41 -2.5t-39 -4.5
q-12 -1 -10 11l5 30q1 7 13 11z" />
    <glyph glyph-name="questiondown" unicode="&#xbf;" horiz-adv-x="446" 
d="M422 531l-17 -93q-2 -8 -8.5 -14t-14.5 -6h-48q-8 0 -12 5t-4 12v3l17 93q3 19 22 19h48q17 0 17 -16v-3zM384 337l-8 -49q-4 -24 -10 -43t-17 -36t-27 -35t-39 -39l-55 -51q-22 -20 -38.5 -37t-27.5 -34t-16.5 -36t-5.5 -44q0 -31 22 -42.5t70 -11.5q36 0 68.5 2.5
t67.5 6.5h3q12 0 12 -12v-3v-2l-6 -35q-2 -9 -5.5 -15t-15.5 -8q-32 -6 -69 -9.5t-71 -3.5q-37 0 -68.5 7t-55 22t-37 38.5t-13.5 55.5q0 35 10.5 64t28 54.5t40.5 48.5t47 46l54 51q17 16 29 27.5t20.5 22.5t13.5 22.5t8 28.5l8 49q2 8 9 13.5t15 5.5h44q15 0 15 -15v-3v-1
z" />
    <glyph glyph-name="Agrave" unicode="&#xc0;" horiz-adv-x="633" 
d="M607 19q0 -19 -17 -19h-60q-7 0 -10 4.5t-4 10.5l-25 230h-259l-104 -230q-2 -6 -8.5 -10.5t-12.5 -4.5h-61q-14 0 -14 13q0 6 2 10l300 651q10 23 24 37.5t29.5 23t31.5 12t30 3.5t28.5 -3t27 -11.5t21 -23t11.5 -37.5l70 -652v-4zM453 653q-2 18 -16 18q-15 0 -23 -18
l-149 -329h221zM526 803q0 -9 -10 -9h-54q-8 0 -12 3.5t-9 11.5l-90 126q-3 4 -3 7q0 8 12 8h66q9 0 13.5 -3.5t9.5 -11.5l75 -124q2 -3 2 -8z" />
    <glyph glyph-name="Aacute" unicode="&#xc1;" horiz-adv-x="633" 
d="M607 19q0 -19 -17 -19h-60q-7 0 -10 4.5t-4 10.5l-25 230h-259l-104 -230q-2 -6 -8.5 -10.5t-12.5 -4.5h-61q-14 0 -14 13q0 6 2 10l300 651q10 23 24 37.5t29.5 23t31.5 12t30 3.5t28.5 -3t27 -11.5t21 -23t11.5 -37.5l70 -652v-4zM453 653q-2 18 -16 18q-15 0 -23 -18
l-149 -329h221zM635 944q0 -4 -5 -9l-136 -126q-8 -8 -12.5 -11.5t-12.5 -3.5h-54q-8 0 -8 6q0 5 6 11l120 124q8 8 12.5 11.5t13.5 3.5h66q10 0 10 -6z" />
    <glyph glyph-name="Acircumflex" unicode="&#xc2;" horiz-adv-x="633" 
d="M607 19q0 -19 -17 -19h-60q-7 0 -10 4.5t-4 10.5l-25 230h-259l-104 -230q-2 -6 -8.5 -10.5t-12.5 -4.5h-61q-14 0 -14 13q0 6 2 10l300 651q10 23 24 37.5t29.5 23t31.5 12t30 3.5t28.5 -3t27 -11.5t21 -23t11.5 -37.5l70 -652v-4zM453 653q-2 18 -16 18q-15 0 -23 -18
l-149 -329h221zM630 803q0 -9 -10 -9h-49q-8 0 -12 3.5t-9 11.5l-64 97l-101 -97q-8 -8 -12.5 -11.5t-12.5 -3.5h-55q-8 0 -8 6q0 5 6 11l118 124q8 8 12.5 11.5t13.5 3.5h85q9 0 13.5 -3.5t9.5 -11.5l73 -124q2 -3 2 -8z" />
    <glyph glyph-name="Atilde" unicode="&#xc3;" horiz-adv-x="633" 
d="M607 19q0 -19 -17 -19h-60q-7 0 -10 4.5t-4 10.5l-25 230h-259l-104 -230q-2 -6 -8.5 -10.5t-12.5 -4.5h-61q-14 0 -14 13q0 6 2 10l300 651q10 23 24 37.5t29.5 23t31.5 12t30 3.5t28.5 -3t27 -11.5t21 -23t11.5 -37.5l70 -652v-4zM453 653q-2 18 -16 18q-15 0 -23 -18
l-149 -329h221zM660 917l-4 -23q-9 -52 -31.5 -78.5t-70.5 -26.5q-17 0 -38 4.5t-38 21.5l-47 44q-15 14 -21.5 18t-15.5 4q-34 0 -40 -46l-3 -21q-1 -7 -5.5 -12t-11.5 -5h-34q-13 0 -13 14v3l3 21q8 60 35.5 84.5t68.5 24.5q23 0 38.5 -7t35.5 -24l54 -49q7 -6 16 -10
t16 -4q15 0 24 9t14 35l4 23q2 7 6 12t11 5h34q13 0 13 -14v-3z" />
    <glyph glyph-name="Adieresis" unicode="&#xc4;" horiz-adv-x="633" 
d="M607 19q0 -19 -17 -19h-60q-7 0 -10 4.5t-4 10.5l-25 230h-259l-104 -230q-2 -6 -8.5 -10.5t-12.5 -4.5h-61q-14 0 -14 13q0 6 2 10l300 651q10 23 24 37.5t29.5 23t31.5 12t30 3.5t28.5 -3t27 -11.5t21 -23t11.5 -37.5l70 -652v-4zM453 653q-2 18 -16 18q-15 0 -23 -18
l-149 -329h221zM611 908l-15 -81q-2 -8 -8.5 -13.5t-14.5 -5.5h-39q-7 0 -12 4t-5 12v3l15 81q2 8 8.5 14t14.5 6h39q7 0 12 -5t5 -12v-3zM436 908l-15 -81q-2 -8 -8.5 -13.5t-14.5 -5.5h-39q-7 0 -12 4t-5 12v3l15 81q2 8 8.5 14t14.5 6h39q7 0 12 -5t5 -12v-3z" />
    <glyph glyph-name="Aring" unicode="&#xc5;" horiz-adv-x="633" 
d="M607 19q0 -19 -17 -19h-60q-7 0 -10 4.5t-4 10.5l-25 230h-259l-104 -230q-2 -6 -8.5 -10.5t-12.5 -4.5h-61q-14 0 -14 13q0 6 2 10l300 651q10 23 24 37.5t29.5 23t31.5 12t30 3.5t28.5 -3t27 -11.5t21 -23t11.5 -37.5l70 -652v-4zM453 653q-2 18 -16 18q-15 0 -23 -18
l-149 -329h221zM567 878q0 -21 -8 -39.5t-21.5 -32t-32 -21.5t-39.5 -8t-39.5 8t-32.5 21.5t-22 32t-8 39.5t8 39.5t22 32.5t32.5 22t39.5 8t39.5 -8t32 -22t21.5 -32.5t8 -39.5zM519 879q0 22 -15.5 37t-37.5 15t-37 -15t-15 -37t15 -37.5t37 -15.5t37.5 15.5t15.5 37.5z
" />
    <glyph glyph-name="AE" unicode="&#xc6;" horiz-adv-x="859" 
d="M933 729l-9 -53q-2 -12 -13 -12h-286l-43 -239h277q16 0 16 -16v-4l-6 -38q-2 -8 -9 -14t-15 -6h-277l-29 -168q-2 -14 -3.5 -25t-1.5 -20q0 -17 5 -28.5t18 -18.5t33.5 -9.5t52.5 -2.5h163q9 0 9 -9v-3l-9 -49q-1 -5 -4 -9t-8 -5q-11 -1 -30 -2.5t-42 -2.5t-47.5 -1.5
t-46.5 -0.5q-185 0 -185 140q0 11 1.5 22.5t3.5 23.5l11 66h-239l-104 -230q-2 -6 -8.5 -10.5t-12.5 -4.5h-59q-14 0 -14 13q0 7 2 10l299 645q22 47 50 61t66 14h487q4 0 5.5 -3.5t1.5 -7.5v-3zM423 664q-15 0 -23 -17l-147 -323h220l61 340h-111z" />
    <glyph glyph-name="Ccedilla" unicode="&#xc7;" horiz-adv-x="545" 
d="M635 721l-9 -51q-1 -11 -14 -11h-3l-32.5 2.5t-42 3t-46 2.5t-45.5 1q-37 0 -70.5 -11.5t-62 -38.5t-49.5 -70.5t-32 -106.5l-25 -139q-4 -21 -5.5 -39t-1.5 -35q0 -42 10.5 -71t29 -47.5t44.5 -26.5t57 -8q21 0 45 1t46.5 2t42 2.5t33.5 2.5h4q13 0 13 -11v-5l-7 -41
q-2 -9 -9 -13.5t-15 -6.5q-16 -3 -32.5 -5.5t-36 -4t-43.5 -2.5t-56 -1q-38 0 -76.5 12t-70 39t-51 70.5t-19.5 107.5q0 18 1.5 38t5.5 42l25 139q17 95 51 155.5t77.5 94.5t92.5 46.5t97 12.5t90.5 -5.5t74.5 -10.5q5 -1 9.5 -3t4.5 -8v-2zM375 -38q0 -3 -6 -9l-136 -126
q-8 -8 -12.5 -11.5t-12.5 -3.5h-54q-8 0 -8 6q0 5 6 11l119 124q8 8 13.5 11.5t13.5 3.5h66q11 0 11 -6z" />
    <glyph glyph-name="Egrave" unicode="&#xc8;" horiz-adv-x="551" 
d="M625 727l-9 -47q-2 -12 -13 -12h-193q-40 0 -65 -5.5t-40.5 -18t-23.5 -32.5t-13 -48l-24 -139h307q16 0 16 -17v-3l-6 -38q-2 -8 -9 -14t-15 -6h-307l-29 -168q-2 -12 -3.5 -22t-1.5 -19q0 -34 23 -48.5t86 -14.5h193q9 0 9 -9v-3l-9 -49q-1 -5 -4 -9t-8 -5
q-11 -1 -34.5 -2.5t-52 -2.5t-58 -1.5t-51.5 -0.5q-86 0 -135 35.5t-49 108.5q0 22 4 42l67 385q10 55 30 91t50.5 57t71.5 29.5t94 8.5q85 0 129.5 -2.5t64.5 -6.5q5 -1 6.5 -4.5t1.5 -7.5v-2zM501 802q0 -9 -10 -9h-54q-8 0 -12 3.5t-9 11.5l-90 126q-3 4 -3 7q0 8 12 8
h66q9 0 13.5 -3.5t9.5 -11.5l75 -124q2 -3 2 -8z" />
    <glyph glyph-name="Eacute" unicode="&#xc9;" horiz-adv-x="551" 
d="M625 727l-9 -47q-2 -12 -13 -12h-193q-40 0 -65 -5.5t-40.5 -18t-23.5 -32.5t-13 -48l-24 -139h307q16 0 16 -17v-3l-6 -38q-2 -8 -9 -14t-15 -6h-307l-29 -168q-2 -12 -3.5 -22t-1.5 -19q0 -34 23 -48.5t86 -14.5h193q9 0 9 -9v-3l-9 -49q-1 -5 -4 -9t-8 -5
q-11 -1 -34.5 -2.5t-52 -2.5t-58 -1.5t-51.5 -0.5q-86 0 -135 35.5t-49 108.5q0 22 4 42l67 385q10 55 30 91t50.5 57t71.5 29.5t94 8.5q85 0 129.5 -2.5t64.5 -6.5q5 -1 6.5 -4.5t1.5 -7.5v-2zM612 944q0 -4 -5 -9l-136 -126q-8 -8 -12.5 -11.5t-12.5 -3.5h-54q-8 0 -8 6
q0 5 6 11l120 124q8 8 12.5 11.5t13.5 3.5h66q10 0 10 -6z" />
    <glyph glyph-name="Ecircumflex" unicode="&#xca;" horiz-adv-x="551" 
d="M625 727l-9 -47q-2 -12 -13 -12h-193q-40 0 -65 -5.5t-40.5 -18t-23.5 -32.5t-13 -48l-24 -139h307q16 0 16 -17v-3l-6 -38q-2 -8 -9 -14t-15 -6h-307l-29 -168q-2 -12 -3.5 -22t-1.5 -19q0 -34 23 -48.5t86 -14.5h193q9 0 9 -9v-3l-9 -49q-1 -5 -4 -9t-8 -5
q-11 -1 -34.5 -2.5t-52 -2.5t-58 -1.5t-51.5 -0.5q-86 0 -135 35.5t-49 108.5q0 22 4 42l67 385q10 55 30 91t50.5 57t71.5 29.5t94 8.5q85 0 129.5 -2.5t64.5 -6.5q5 -1 6.5 -4.5t1.5 -7.5v-2zM598 803q0 -9 -10 -9h-49q-8 0 -12 3.5t-9 11.5l-64 97l-101 -97
q-8 -8 -12.5 -11.5t-12.5 -3.5h-55q-8 0 -8 6q0 5 6 11l118 124q8 8 12.5 11.5t13.5 3.5h85q9 0 13.5 -3.5t9.5 -11.5l73 -124q2 -3 2 -8z" />
    <glyph glyph-name="Edieresis" unicode="&#xcb;" horiz-adv-x="551" 
d="M625 727l-9 -47q-2 -12 -13 -12h-193q-40 0 -65 -5.5t-40.5 -18t-23.5 -32.5t-13 -48l-24 -139h307q16 0 16 -17v-3l-6 -38q-2 -8 -9 -14t-15 -6h-307l-29 -168q-2 -12 -3.5 -22t-1.5 -19q0 -34 23 -48.5t86 -14.5h193q9 0 9 -9v-3l-9 -49q-1 -5 -4 -9t-8 -5
q-11 -1 -34.5 -2.5t-52 -2.5t-58 -1.5t-51.5 -0.5q-86 0 -135 35.5t-49 108.5q0 22 4 42l67 385q10 55 30 91t50.5 57t71.5 29.5t94 8.5q85 0 129.5 -2.5t64.5 -6.5q5 -1 6.5 -4.5t1.5 -7.5v-2zM585 910l-15 -81q-2 -8 -8.5 -13.5t-14.5 -5.5h-39q-7 0 -12 4t-5 12v3l15 81
q2 8 8.5 14t14.5 6h39q7 0 12 -5t5 -12v-3zM410 910l-15 -81q-2 -8 -8.5 -13.5t-14.5 -5.5h-39q-7 0 -12 4t-5 12v3l15 81q2 8 8.5 14t14.5 6h39q7 0 12 -5t5 -12v-3z" />
    <glyph glyph-name="Igrave" unicode="&#xcc;" horiz-adv-x="267" 
d="M307 724l-124 -704q-2 -8 -8 -14t-14 -6h-55q-14 0 -14 16v4l124 704q2 8 7.5 13.5t13.5 5.5h55q7 0 11 -4.5t4 -10.5v-4zM336 803q0 -9 -10 -9h-54q-8 0 -12 3.5t-9 11.5l-90 126q-3 4 -3 7q0 8 12 8h66q9 0 13.5 -3.5t9.5 -11.5l75 -124q2 -3 2 -8z" />
    <glyph glyph-name="Iacute" unicode="&#xcd;" horiz-adv-x="267" 
d="M307 724l-124 -704q-2 -8 -8 -14t-14 -6h-55q-14 0 -14 16v4l124 704q2 8 7.5 13.5t13.5 5.5h55q7 0 11 -4.5t4 -10.5v-4zM432 944q0 -4 -5 -9l-136 -126q-8 -8 -12.5 -11.5t-12.5 -3.5h-54q-8 0 -8 6q0 5 6 11l120 124q8 8 12.5 11.5t13.5 3.5h66q10 0 10 -6z" />
    <glyph glyph-name="Icircumflex" unicode="&#xce;" horiz-adv-x="267" 
d="M307 724l-124 -704q-2 -8 -8 -14t-14 -6h-55q-14 0 -14 16v4l124 704q2 8 7.5 13.5t13.5 5.5h55q7 0 11 -4.5t4 -10.5v-4zM438 803q0 -9 -10 -9h-49q-8 0 -12 3.5t-9 11.5l-64 97l-101 -97q-8 -8 -12.5 -11.5t-12.5 -3.5h-55q-8 0 -8 6q0 5 6 11l118 124q8 8 12.5 11.5
t13.5 3.5h85q9 0 13.5 -3.5t9.5 -11.5l73 -124q2 -3 2 -8z" />
    <glyph glyph-name="Idieresis" unicode="&#xcf;" horiz-adv-x="267" 
d="M307 724l-124 -704q-2 -8 -8 -14t-14 -6h-55q-14 0 -14 16v4l124 704q2 8 7.5 13.5t13.5 5.5h55q7 0 11 -4.5t4 -10.5v-4zM417 909l-15 -81q-2 -8 -8.5 -13.5t-14.5 -5.5h-39q-7 0 -12 4t-5 12v3l15 81q2 8 8.5 14t14.5 6h39q7 0 12 -5t5 -12v-3zM242 909l-15 -81
q-2 -8 -8.5 -13.5t-14.5 -5.5h-39q-7 0 -12 4t-5 12v3l15 81q2 8 8.5 14t14.5 6h39q7 0 12 -5t5 -12v-3z" />
    <glyph glyph-name="Eth" unicode="&#xd0;" horiz-adv-x="641" 
d="M666 516q0 -18 -1.5 -37t-5.5 -40l-23 -135q-14 -83 -45 -141.5t-76.5 -96.5t-105 -55.5t-131.5 -17.5q-29 0 -56.5 1t-51.5 2.5t-42.5 3t-29.5 3.5q-18 3 -18 19q0 2 0.5 3t0.5 3l56 319h-37q-16 0 -16 17v3l6 38q2 8 9 14t15 6h37l51 290q5 22 25 25q11 2 30.5 3.5
t44 3t52.5 2.5t57 1q57 0 104 -14.5t80.5 -43.5t52 -73t18.5 -103zM229 347l-48 -274q24 -2 50 -2h61q44 0 85 12t74.5 39.5t58 72t35.5 109.5l23 135q7 38 7 72q0 46 -13.5 77t-37.5 50t-56.5 26.5t-70.5 7.5q-35 0 -60.5 -0.5t-50.5 -2.5l-43 -244h104q16 0 16 -17v-3
l-6 -38q-2 -8 -9 -14t-15 -6h-104z" />
    <glyph glyph-name="Ntilde" unicode="&#xd1;" horiz-adv-x="680" 
d="M730 724l-123 -695q-2 -12 -12 -20.5t-22 -8.5h-58q-23 0 -29 16l-210 587l-2 3q-2 0 -2 -3l-103 -584q-2 -8 -7.5 -13.5t-13.5 -5.5h-52q-16 0 -16 9v3l124 703q2 12 12 20t22 8h49q21 0 27 -4.5t10 -15.5l210 -584l1 -3h2l1 3l103 585q2 8 7.5 13.5t13.5 5.5h53
q8 0 11.5 -4.5t3.5 -10.5v-4zM670 915l-4 -23q-9 -52 -31.5 -78.5t-70.5 -26.5q-17 0 -38 4.5t-38 21.5l-47 44q-15 14 -21.5 18t-15.5 4q-34 0 -40 -46l-3 -21q-1 -7 -5.5 -12t-11.5 -5h-34q-13 0 -13 14v3l3 21q8 60 35.5 84.5t68.5 24.5q23 0 38.5 -7t35.5 -24l54 -49
q7 -6 16 -10t16 -4q15 0 24 9t14 35l4 23q2 7 6 12t11 5h34q13 0 13 -14v-3z" />
    <glyph glyph-name="Ograve" unicode="&#xd2;" horiz-adv-x="661" 
d="M686 520q0 -20 -2 -40.5t-6 -43.5l-23 -129q-15 -83 -43.5 -142.5t-70 -97.5t-95 -56t-116.5 -18q-48 0 -89 14t-71 42.5t-47 71.5t-17 102q0 20 2 40.5t6 43.5l23 129q16 89 46.5 149t73 97t95 52.5t111.5 15.5q50 0 91 -14.5t70.5 -43.5t45.5 -72t16 -100zM594 519
q0 82 -38 115.5t-107 33.5q-83 0 -140.5 -55.5t-79.5 -176.5l-23 -129q-4 -21 -5.5 -40t-1.5 -36q0 -86 38.5 -121t106.5 -35q82 0 139.5 55.5t79.5 176.5l23 129q5 23 6.5 44t1.5 39zM538 803q0 -9 -10 -9h-54q-8 0 -12 3.5t-9 11.5l-90 126q-3 4 -3 7q0 8 12 8h66
q9 0 13.5 -3.5t9.5 -11.5l75 -124q2 -3 2 -8z" />
    <glyph glyph-name="Oacute" unicode="&#xd3;" horiz-adv-x="661" 
d="M686 520q0 -20 -2 -40.5t-6 -43.5l-23 -129q-15 -83 -43.5 -142.5t-70 -97.5t-95 -56t-116.5 -18q-48 0 -89 14t-71 42.5t-47 71.5t-17 102q0 20 2 40.5t6 43.5l23 129q16 89 46.5 149t73 97t95 52.5t111.5 15.5q50 0 91 -14.5t70.5 -43.5t45.5 -72t16 -100zM594 519
q0 82 -38 115.5t-107 33.5q-83 0 -140.5 -55.5t-79.5 -176.5l-23 -129q-4 -21 -5.5 -40t-1.5 -36q0 -86 38.5 -121t106.5 -35q82 0 139.5 55.5t79.5 176.5l23 129q5 23 6.5 44t1.5 39zM623 944q0 -4 -5 -9l-136 -126q-8 -8 -12.5 -11.5t-12.5 -3.5h-54q-8 0 -8 6q0 5 6 11
l120 124q8 8 12.5 11.5t13.5 3.5h66q10 0 10 -6z" />
    <glyph glyph-name="Ocircumflex" unicode="&#xd4;" horiz-adv-x="661" 
d="M686 520q0 -20 -2 -40.5t-6 -43.5l-23 -129q-15 -83 -43.5 -142.5t-70 -97.5t-95 -56t-116.5 -18q-48 0 -89 14t-71 42.5t-47 71.5t-17 102q0 20 2 40.5t6 43.5l23 129q16 89 46.5 149t73 97t95 52.5t111.5 15.5q50 0 91 -14.5t70.5 -43.5t45.5 -72t16 -100zM594 519
q0 82 -38 115.5t-107 33.5q-83 0 -140.5 -55.5t-79.5 -176.5l-23 -129q-4 -21 -5.5 -40t-1.5 -36q0 -86 38.5 -121t106.5 -35q82 0 139.5 55.5t79.5 176.5l23 129q5 23 6.5 44t1.5 39zM639 804q0 -9 -10 -9h-49q-8 0 -12 3.5t-9 11.5l-64 97l-101 -97q-8 -8 -12.5 -11.5
t-12.5 -3.5h-55q-8 0 -8 6q0 5 6 11l118 124q8 8 12.5 11.5t13.5 3.5h85q9 0 13.5 -3.5t9.5 -11.5l73 -124q2 -3 2 -8z" />
    <glyph glyph-name="Otilde" unicode="&#xd5;" horiz-adv-x="661" 
d="M686 520q0 -20 -2 -40.5t-6 -43.5l-23 -129q-15 -83 -43.5 -142.5t-70 -97.5t-95 -56t-116.5 -18q-48 0 -89 14t-71 42.5t-47 71.5t-17 102q0 20 2 40.5t6 43.5l23 129q16 89 46.5 149t73 97t95 52.5t111.5 15.5q50 0 91 -14.5t70.5 -43.5t45.5 -72t16 -100zM594 519
q0 82 -38 115.5t-107 33.5q-83 0 -140.5 -55.5t-79.5 -176.5l-23 -129q-4 -21 -5.5 -40t-1.5 -36q0 -86 38.5 -121t106.5 -35q82 0 139.5 55.5t79.5 176.5l23 129q5 23 6.5 44t1.5 39zM673 917l-4 -23q-9 -52 -31.5 -78.5t-70.5 -26.5q-17 0 -38 4.5t-38 21.5l-47 44
q-15 14 -21.5 18t-15.5 4q-34 0 -40 -46l-3 -21q-1 -7 -5.5 -12t-11.5 -5h-34q-13 0 -13 14v3l3 21q8 60 35.5 84.5t68.5 24.5q23 0 38.5 -7t35.5 -24l54 -49q7 -6 16 -10t16 -4q15 0 24 9t14 35l4 23q2 7 6 12t11 5h34q13 0 13 -14v-3z" />
    <glyph glyph-name="Odieresis" unicode="&#xd6;" horiz-adv-x="661" 
d="M686 520q0 -20 -2 -40.5t-6 -43.5l-23 -129q-15 -83 -43.5 -142.5t-70 -97.5t-95 -56t-116.5 -18q-48 0 -89 14t-71 42.5t-47 71.5t-17 102q0 20 2 40.5t6 43.5l23 129q16 89 46.5 149t73 97t95 52.5t111.5 15.5q50 0 91 -14.5t70.5 -43.5t45.5 -72t16 -100zM594 519
q0 82 -38 115.5t-107 33.5q-83 0 -140.5 -55.5t-79.5 -176.5l-23 -129q-4 -21 -5.5 -40t-1.5 -36q0 -86 38.5 -121t106.5 -35q82 0 139.5 55.5t79.5 176.5l23 129q5 23 6.5 44t1.5 39zM619 910l-15 -81q-2 -8 -8.5 -13.5t-14.5 -5.5h-39q-7 0 -12 4t-5 12v3l15 81
q2 8 8.5 14t14.5 6h39q7 0 12 -5t5 -12v-3zM444 910l-15 -81q-2 -8 -8.5 -13.5t-14.5 -5.5h-39q-7 0 -12 4t-5 12v3l15 81q2 8 8.5 14t14.5 6h39q7 0 12 -5t5 -12v-3z" />
    <glyph glyph-name="multiply" unicode="&#xd7;" horiz-adv-x="595" 
d="M568 243q0 -5 -5 -10l-28 -28q-5 -5 -10 -5q-8 0 -16 8l-15 15l-117 117l-131 -131q-8 -8 -16 -8q-5 0 -10 5l-28 28q-5 5 -5 10q0 8 8 16l131 131q-33 33 -65.5 66t-65.5 66q-8 8 -8 15q0 5 5 10l28 28q5 5 11 5q8 0 15 -7q33 -33 65.5 -66t65.5 -66l132 132q8 8 16 8
q5 0 10 -5l28 -28q5 -5 5 -10q0 -8 -8 -16l-132 -132l132 -132q8 -8 8 -16z" />
    <glyph glyph-name="Oslash" unicode="&#xd8;" horiz-adv-x="661" 
d="M766 742q0 -6 -5 -11l-94 -105q9 -23 14 -49t5 -57q0 -20 -2 -40.5t-6 -43.5l-23 -129q-15 -83 -43.5 -142.5t-70 -97.5t-95 -56t-116.5 -18q-52 0 -95.5 16t-73.5 49l-50 -55q-5 -6 -8.5 -8t-11.5 -2h-53q-9 0 -9 9q0 6 4 10l92 103q-19 47 -19 108q0 20 2 40.5t6 43.5
l23 129q16 89 46.5 149t73 97t95 52.5t111.5 15.5q54 0 97 -17t72 -50l51 57q9 10 22 10h52q9 0 9 -8zM571 615q-18 29 -49 41t-73 12q-83 0 -140.5 -55.5t-79.5 -176.5l-23 -129q-4 -21 -5.5 -40t-1.5 -36q0 -8 0.5 -15.5t1.5 -15.5zM594 519v12t-1 12l-370 -415
q18 -29 48.5 -41t72.5 -12q82 0 139.5 55.5t79.5 176.5l23 129q5 23 6.5 44t1.5 39z" />
    <glyph glyph-name="Ugrave" unicode="&#xd9;" horiz-adv-x="662" 
d="M715 724l-80 -454q-26 -148 -101.5 -212.5t-203.5 -64.5q-99 0 -156.5 51t-57.5 153q0 17 1.5 35t5.5 38l80 454q2 8 8 13.5t14 5.5h54q16 0 16 -16v-3l-80 -454q-4 -20 -6 -37.5t-2 -34.5q0 -63 31.5 -95t105.5 -32q46 0 80 13t57.5 38t38 62.5t23.5 85.5l80 454
q2 8 8 13.5t14 5.5h54q16 0 16 -16v-3zM531 803q0 -9 -10 -9h-54q-8 0 -12 3.5t-9 11.5l-90 126q-3 4 -3 7q0 8 12 8h66q9 0 13.5 -3.5t9.5 -11.5l75 -124q2 -3 2 -8z" />
    <glyph glyph-name="Uacute" unicode="&#xda;" horiz-adv-x="662" 
d="M715 724l-80 -454q-26 -148 -101.5 -212.5t-203.5 -64.5q-99 0 -156.5 51t-57.5 153q0 17 1.5 35t5.5 38l80 454q2 8 8 13.5t14 5.5h54q16 0 16 -16v-3l-80 -454q-4 -20 -6 -37.5t-2 -34.5q0 -63 31.5 -95t105.5 -32q46 0 80 13t57.5 38t38 62.5t23.5 85.5l80 454
q2 8 8 13.5t14 5.5h54q16 0 16 -16v-3zM640 944q0 -4 -5 -9l-136 -126q-8 -8 -12.5 -11.5t-12.5 -3.5h-54q-8 0 -8 6q0 5 6 11l120 124q8 8 12.5 11.5t13.5 3.5h66q10 0 10 -6z" />
    <glyph glyph-name="Ucircumflex" unicode="&#xdb;" horiz-adv-x="662" 
d="M715 724l-80 -454q-26 -148 -101.5 -212.5t-203.5 -64.5q-99 0 -156.5 51t-57.5 153q0 17 1.5 35t5.5 38l80 454q2 8 8 13.5t14 5.5h54q16 0 16 -16v-3l-80 -454q-4 -20 -6 -37.5t-2 -34.5q0 -63 31.5 -95t105.5 -32q46 0 80 13t57.5 38t38 62.5t23.5 85.5l80 454
q2 8 8 13.5t14 5.5h54q16 0 16 -16v-3zM633 803q0 -9 -10 -9h-49q-8 0 -12 3.5t-9 11.5l-64 97l-101 -97q-8 -8 -12.5 -11.5t-12.5 -3.5h-55q-8 0 -8 6q0 5 6 11l118 124q8 8 12.5 11.5t13.5 3.5h85q9 0 13.5 -3.5t9.5 -11.5l73 -124q2 -3 2 -8z" />
    <glyph glyph-name="Udieresis" unicode="&#xdc;" horiz-adv-x="662" 
d="M715 724l-80 -454q-26 -148 -101.5 -212.5t-203.5 -64.5q-99 0 -156.5 51t-57.5 153q0 17 1.5 35t5.5 38l80 454q2 8 8 13.5t14 5.5h54q16 0 16 -16v-3l-80 -454q-4 -20 -6 -37.5t-2 -34.5q0 -63 31.5 -95t105.5 -32q46 0 80 13t57.5 38t38 62.5t23.5 85.5l80 454
q2 8 8 13.5t14 5.5h54q16 0 16 -16v-3zM612 910l-15 -81q-2 -8 -8.5 -13.5t-14.5 -5.5h-39q-7 0 -12 4t-5 12v3l15 81q2 8 8.5 14t14.5 6h39q7 0 12 -5t5 -12v-3zM437 910l-15 -81q-2 -8 -8.5 -13.5t-14.5 -5.5h-39q-7 0 -12 4t-5 12v3l15 81q2 8 8.5 14t14.5 6h39
q7 0 12 -5t5 -12v-3z" />
    <glyph glyph-name="Yacute" unicode="&#xdd;" horiz-adv-x="583" 
d="M677 731q0 -5 -5 -13l-217 -348q-19 -30 -34.5 -45t-30.5 -21l-50 -284q-2 -8 -8 -14t-14 -6h-55q-14 0 -14 16v4l50 284q-13 5 -24 20.5t-19 45.5l-92 348q-1 3 -1 7q0 18 19 18h58q5 0 9.5 -4.5t6.5 -9.5l80 -324q5 -17 9.5 -21.5t9.5 -4.5t10.5 4.5t16.5 21.5l197 324
q3 5 8 9.5t11 4.5h64q15 0 15 -12zM604 944q0 -4 -5 -9l-136 -126q-8 -8 -12.5 -11.5t-12.5 -3.5h-54q-8 0 -8 6q0 5 6 11l120 124q8 8 12.5 11.5t13.5 3.5h66q10 0 10 -6z" />
    <glyph glyph-name="Thorn" unicode="&#xde;" horiz-adv-x="593" 
d="M629 482q0 -56 -16 -107t-53.5 -90t-98 -62t-148.5 -23q-69 0 -111 3l-32 -183q-2 -8 -5.5 -14t-15.5 -6h-56q-17 0 -14 20l124 704q2 8 5.5 13.5t15.5 5.5h56q17 0 14 -19l-13 -69q34 2 54.5 2.5t42.5 0.5q57 0 103.5 -9.5t79 -30.5t50.5 -54.5t18 -81.5zM536 479
q0 58 -44.5 79t-125.5 21h-44.5t-53.5 -2l-52 -296q9 0 21.5 -0.5t26.5 -1t27.5 -1t23.5 -0.5q109 0 164 51t57 149v1z" />
    <glyph glyph-name="germandbls" unicode="&#xdf;" horiz-adv-x="581" 
d="M613 599q0 -72 -34.5 -125t-103.5 -80q46 -19 70 -58.5t24 -84.5q0 -62 -21.5 -110t-59 -81t-89 -50t-110.5 -17q-11 0 -22 0.5t-26 2.5q-16 2 -16 16v2v1l7 41q1 11 13 11q10 0 22.5 -0.5t20.5 -0.5q92 0 142 46t50 140q0 48 -32.5 76.5t-101.5 28.5h-37q-17 0 -17 16v4
l6 29q2 8 8.5 14t14.5 6h37q78 0 122.5 44.5t44.5 121.5q0 43 -26.5 66t-86.5 23q-70 0 -111 -39.5t-56 -127.5l-87 -493q-2 -8 -8 -14.5t-14 -6.5h-53q-8 0 -11 5t-3 12v4l87 493q23 132 92.5 188t177.5 56q40 0 74.5 -10t59.5 -30.5t39 -50t14 -68.5z" />
    <glyph glyph-name="agrave" unicode="&#xe0;" horiz-adv-x="527" 
d="M551 519q0 -5 -1 -8l-86 -491q-2 -8 -8.5 -14t-14.5 -6h-40q-9 0 -12 4.5t-3 11.5v4v2l5 31q-22 -16 -40.5 -27t-37 -18.5t-38.5 -11t-45 -3.5q-32 0 -60.5 10.5t-49.5 32t-33.5 55t-12.5 79.5q0 28 6 60l18 99q12 65 37 108.5t59.5 70t76.5 38t87 11.5t91 -6.5t84 -16.5
q18 -4 18 -15zM455 473q-20 4 -42.5 7t-54.5 3q-78 0 -119 -41.5t-55 -121.5l-18 -103q-2 -11 -3 -23t-1 -23q0 -58 25.5 -81t61.5 -23q35 0 69 15t76 43zM450 632q0 -9 -10 -9h-54q-8 0 -12 3.5t-9 11.5l-90 126q-3 4 -3 7q0 8 12 8h66q9 0 13.5 -3.5t9.5 -11.5l75 -124
q2 -3 2 -8z" />
    <glyph glyph-name="aacute" unicode="&#xe1;" horiz-adv-x="527" 
d="M551 519q0 -5 -1 -8l-86 -491q-2 -8 -8.5 -14t-14.5 -6h-40q-9 0 -12 4.5t-3 11.5v4v2l5 31q-22 -16 -40.5 -27t-37 -18.5t-38.5 -11t-45 -3.5q-32 0 -60.5 10.5t-49.5 32t-33.5 55t-12.5 79.5q0 28 6 60l18 99q12 65 37 108.5t59.5 70t76.5 38t87 11.5t91 -6.5t84 -16.5
q18 -4 18 -15zM455 473q-20 4 -42.5 7t-54.5 3q-78 0 -119 -41.5t-55 -121.5l-18 -103q-2 -11 -3 -23t-1 -23q0 -58 25.5 -81t61.5 -23q35 0 69 15t76 43zM558 773q0 -4 -5 -9l-136 -126q-8 -8 -12.5 -11.5t-12.5 -3.5h-54q-8 0 -8 6q0 5 6 11l120 124q8 8 12.5 11.5
t13.5 3.5h66q10 0 10 -6z" />
    <glyph glyph-name="acircumflex" unicode="&#xe2;" horiz-adv-x="527" 
d="M551 519q0 -5 -1 -8l-86 -491q-2 -8 -8.5 -14t-14.5 -6h-40q-9 0 -12 4.5t-3 11.5v4v2l5 31q-22 -16 -40.5 -27t-37 -18.5t-38.5 -11t-45 -3.5q-32 0 -60.5 10.5t-49.5 32t-33.5 55t-12.5 79.5q0 28 6 60l18 99q12 65 37 108.5t59.5 70t76.5 38t87 11.5t91 -6.5t84 -16.5
q18 -4 18 -15zM455 473q-20 4 -42.5 7t-54.5 3q-78 0 -119 -41.5t-55 -121.5l-18 -103q-2 -11 -3 -23t-1 -23q0 -58 25.5 -81t61.5 -23q35 0 69 15t76 43zM551 632q0 -9 -10 -9h-49q-8 0 -12 3.5t-9 11.5l-64 97l-101 -97q-8 -8 -12.5 -11.5t-12.5 -3.5h-55q-8 0 -8 6
q0 5 6 11l118 124q8 8 12.5 11.5t13.5 3.5h85q9 0 13.5 -3.5t9.5 -11.5l73 -124q2 -3 2 -8z" />
    <glyph glyph-name="atilde" unicode="&#xe3;" horiz-adv-x="527" 
d="M551 519q0 -5 -1 -8l-86 -491q-2 -8 -8.5 -14t-14.5 -6h-40q-9 0 -12 4.5t-3 11.5v4v2l5 31q-22 -16 -40.5 -27t-37 -18.5t-38.5 -11t-45 -3.5q-32 0 -60.5 10.5t-49.5 32t-33.5 55t-12.5 79.5q0 28 6 60l18 99q12 65 37 108.5t59.5 70t76.5 38t87 11.5t91 -6.5t84 -16.5
q18 -4 18 -15zM455 473q-20 4 -42.5 7t-54.5 3q-78 0 -119 -41.5t-55 -121.5l-18 -103q-2 -11 -3 -23t-1 -23q0 -58 25.5 -81t61.5 -23q35 0 69 15t76 43zM579 754l-4 -23q-9 -52 -31.5 -78.5t-70.5 -26.5q-17 0 -38 4.5t-38 21.5l-47 44q-15 14 -21.5 18t-15.5 4
q-34 0 -40 -46l-3 -21q-1 -7 -5.5 -12t-11.5 -5h-34q-13 0 -13 14v3l3 21q8 60 35.5 84.5t68.5 24.5q23 0 38.5 -7t35.5 -24l54 -49q7 -6 16 -10t16 -4q15 0 24 9t14 35l4 23q2 7 6 12t11 5h34q13 0 13 -14v-3z" />
    <glyph glyph-name="adieresis" unicode="&#xe4;" horiz-adv-x="527" 
d="M551 519q0 -5 -1 -8l-86 -491q-2 -8 -8.5 -14t-14.5 -6h-40q-9 0 -12 4.5t-3 11.5v4v2l5 31q-22 -16 -40.5 -27t-37 -18.5t-38.5 -11t-45 -3.5q-32 0 -60.5 10.5t-49.5 32t-33.5 55t-12.5 79.5q0 28 6 60l18 99q12 65 37 108.5t59.5 70t76.5 38t87 11.5t91 -6.5t84 -16.5
q18 -4 18 -15zM455 473q-20 4 -42.5 7t-54.5 3q-78 0 -119 -41.5t-55 -121.5l-18 -103q-2 -11 -3 -23t-1 -23q0 -58 25.5 -81t61.5 -23q35 0 69 15t76 43zM529 741l-15 -81q-2 -8 -8.5 -13.5t-14.5 -5.5h-39q-7 0 -12 4t-5 12v3l15 81q2 8 8.5 14t14.5 6h39q7 0 12 -5t5 -12
v-3zM354 741l-15 -81q-2 -8 -8.5 -13.5t-14.5 -5.5h-39q-7 0 -12 4t-5 12v3l15 81q2 8 8.5 14t14.5 6h39q7 0 12 -5t5 -12v-3z" />
    <glyph glyph-name="aring" unicode="&#xe5;" horiz-adv-x="527" 
d="M551 519q0 -5 -1 -8l-86 -491q-2 -8 -8.5 -14t-14.5 -6h-40q-9 0 -12 4.5t-3 11.5v4v2l5 31q-22 -16 -40.5 -27t-37 -18.5t-38.5 -11t-45 -3.5q-32 0 -60.5 10.5t-49.5 32t-33.5 55t-12.5 79.5q0 28 6 60l18 99q12 65 37 108.5t59.5 70t76.5 38t87 11.5t91 -6.5t84 -16.5
q18 -4 18 -15zM455 473q-20 4 -42.5 7t-54.5 3q-78 0 -119 -41.5t-55 -121.5l-18 -103q-2 -11 -3 -23t-1 -23q0 -58 25.5 -81t61.5 -23q35 0 69 15t76 43zM503 703q0 -21 -8 -39.5t-21.5 -32t-32 -21.5t-39.5 -8t-39.5 8t-32.5 21.5t-22 32t-8 39.5t8 39.5t22 32.5t32.5 22
t39.5 8t39.5 -8t32 -22t21.5 -32.5t8 -39.5zM455 704q0 22 -15.5 37t-37.5 15t-37 -15t-15 -37t15 -37.5t37 -15.5t37.5 15.5t15.5 37.5z" />
    <glyph glyph-name="ae" unicode="&#xe6;" horiz-adv-x="853" 
d="M862 368q0 -9 -1 -21.5t-2.5 -26.5t-4 -27.5t-5.5 -23.5t-7.5 -16t-13.5 -6h-333l-6 -32q-2 -14 -3.5 -26t-1.5 -23q0 -60 31.5 -79.5t93.5 -19.5q44 0 91 4.5t82 9.5h2h3q5 0 9.5 -2.5t4.5 -8.5v-2v-1l-6 -34q-2 -11 -6.5 -16t-17.5 -7q-45 -8 -87 -12.5t-93 -4.5
t-90 13t-66 47q-18 -12 -40.5 -23t-48.5 -19.5t-54 -13t-55 -4.5q-30 0 -59 8t-52 24.5t-37 43t-14 63.5v11q0 10 1 15l1 9q5 43 22 73.5t48.5 50t79.5 29t115 9.5h80l7 40q2 12 3 23t1 20q0 41 -21 55.5t-71 14.5q-49 0 -86 -2.5t-68 -5.5h-4q-7 0 -12 2.5t-5 9.5v4l7 35
q3 16 24 19q32 5 69 9t88 4q62 0 96.5 -18t51.5 -53q38 41 80.5 56t100.5 15q46 0 80 -14.5t56 -40t32.5 -60t10.5 -74.5zM778 376q0 56 -27 81.5t-81 25.5q-66 0 -107 -43.5t-56 -120.5l-1 -5h266q2 11 4 28.5t2 33.5zM336 265q-45 0 -76.5 -5.5t-51 -17t-29.5 -30
t-13 -45.5l-1 -9q-1 -4 -1 -7.5v-6.5v-10q0 -40 24.5 -55.5t69.5 -15.5q35 0 69 9t54 22l30 171h-75z" />
    <glyph glyph-name="ccedilla" unicode="&#xe7;" horiz-adv-x="452" 
d="M498 531q0 -2 -0.5 -3.5t-0.5 -3.5l-6 -36q-2 -8 -8 -11.5t-13 -3.5h-3q-32 4 -58.5 5.5t-63.5 1.5q-60 0 -101 -44t-54 -122l-13 -78q-6 -35 -6 -60q0 -57 26 -81.5t75 -24.5q37 0 65 1.5t61 5.5h3q6 0 10.5 -3t4.5 -9v-3l-6 -36q-2 -11 -7 -15.5t-17 -6.5
q-26 -5 -59 -8t-68 -3q-44 0 -77 14.5t-54.5 39.5t-32.5 59.5t-11 74.5q0 14 1.5 27.5t3.5 27.5l13 78q20 122 86.5 182.5t169.5 60.5q35 0 67 -3t56 -8q17 -3 17 -15zM312 -38q0 -4 -5 -9l-136 -126q-8 -8 -12.5 -11.5t-12.5 -3.5h-54q-8 0 -8 6q0 5 6 11l119 124
q8 8 13 11.5t14 3.5h66q10 0 10 -6z" />
    <glyph glyph-name="egrave" unicode="&#xe8;" horiz-adv-x="544" 
d="M555 371q0 -29 -6 -60l-8 -42q-2 -10 -6.5 -16t-15.5 -6h-335l-3 -12q-5 -17 -6.5 -32t-1.5 -29q0 -57 33.5 -82t91.5 -25q44 0 91 4.5t82 9.5h2h4q13 0 13 -10v-3v-1l-6 -34q-2 -11 -6.5 -16t-17.5 -7q-45 -8 -84.5 -12.5t-90.5 -4.5q-37 0 -72.5 10t-63 32t-44.5 57
t-17 86q0 29 6 62l13 70q23 120 90.5 183.5t174.5 63.5q46 0 80.5 -14.5t57.5 -39.5t34 -59t11 -73zM467 374q0 106 -108 106q-33 0 -60 -12t-47.5 -34t-34.5 -51.5t-21 -63.5l-1 -5h265l1 5q6 30 6 55zM429 632q0 -9 -10 -9h-54q-8 0 -12 3.5t-9 11.5l-90 126q-3 4 -3 7
q0 8 12 8h66q9 0 13.5 -3.5t9.5 -11.5l75 -124q2 -3 2 -8z" />
    <glyph glyph-name="eacute" unicode="&#xe9;" horiz-adv-x="544" 
d="M555 371q0 -29 -6 -60l-8 -42q-2 -10 -6.5 -16t-15.5 -6h-335l-3 -12q-5 -17 -6.5 -32t-1.5 -29q0 -57 33.5 -82t91.5 -25q44 0 91 4.5t82 9.5h2h4q13 0 13 -10v-3v-1l-6 -34q-2 -11 -6.5 -16t-17.5 -7q-45 -8 -84.5 -12.5t-90.5 -4.5q-37 0 -72.5 10t-63 32t-44.5 57
t-17 86q0 29 6 62l13 70q23 120 90.5 183.5t174.5 63.5q46 0 80.5 -14.5t57.5 -39.5t34 -59t11 -73zM467 374q0 106 -108 106q-33 0 -60 -12t-47.5 -34t-34.5 -51.5t-21 -63.5l-1 -5h265l1 5q6 30 6 55zM570 773q0 -4 -5 -9l-136 -126q-8 -8 -12.5 -11.5t-12.5 -3.5h-54
q-8 0 -8 6q0 5 6 11l120 124q8 8 12.5 11.5t13.5 3.5h66q10 0 10 -6z" />
    <glyph glyph-name="ecircumflex" unicode="&#xea;" horiz-adv-x="544" 
d="M555 371q0 -29 -6 -60l-8 -42q-2 -10 -6.5 -16t-15.5 -6h-335l-3 -12q-5 -17 -6.5 -32t-1.5 -29q0 -57 33.5 -82t91.5 -25q44 0 91 4.5t82 9.5h2h4q13 0 13 -10v-3v-1l-6 -34q-2 -11 -6.5 -16t-17.5 -7q-45 -8 -84.5 -12.5t-90.5 -4.5q-37 0 -72.5 10t-63 32t-44.5 57
t-17 86q0 29 6 62l13 70q23 120 90.5 183.5t174.5 63.5q46 0 80.5 -14.5t57.5 -39.5t34 -59t11 -73zM467 374q0 106 -108 106q-33 0 -60 -12t-47.5 -34t-34.5 -51.5t-21 -63.5l-1 -5h265l1 5q6 30 6 55zM551 632q0 -9 -10 -9h-49q-8 0 -12 3.5t-9 11.5l-64 97l-101 -97
q-8 -8 -12.5 -11.5t-12.5 -3.5h-55q-8 0 -8 6q0 5 6 11l118 124q8 8 12.5 11.5t13.5 3.5h85q9 0 13.5 -3.5t9.5 -11.5l73 -124q2 -3 2 -8z" />
    <glyph glyph-name="edieresis" unicode="&#xeb;" horiz-adv-x="544" 
d="M555 371q0 -29 -6 -60l-8 -42q-2 -10 -6.5 -16t-15.5 -6h-335l-3 -12q-5 -17 -6.5 -32t-1.5 -29q0 -57 33.5 -82t91.5 -25q44 0 91 4.5t82 9.5h2h4q13 0 13 -10v-3v-1l-6 -34q-2 -11 -6.5 -16t-17.5 -7q-45 -8 -84.5 -12.5t-90.5 -4.5q-37 0 -72.5 10t-63 32t-44.5 57
t-17 86q0 29 6 62l13 70q23 120 90.5 183.5t174.5 63.5q46 0 80.5 -14.5t57.5 -39.5t34 -59t11 -73zM467 374q0 106 -108 106q-33 0 -60 -12t-47.5 -34t-34.5 -51.5t-21 -63.5l-1 -5h265l1 5q6 30 6 55zM534 741l-15 -81q-2 -8 -8.5 -13.5t-14.5 -5.5h-39q-7 0 -12 4t-5 12
v3l15 81q2 8 8.5 14t14.5 6h39q7 0 12 -5t5 -12v-3zM359 741l-15 -81q-2 -8 -8.5 -13.5t-14.5 -5.5h-39q-7 0 -12 4t-5 12v3l15 81q2 8 8.5 14t14.5 6h39q7 0 12 -5t5 -12v-3z" />
    <glyph glyph-name="igrave" unicode="&#xec;" horiz-adv-x="247" 
d="M260 530l-89 -510q-2 -8 -9 -14t-15 -6h-48q-16 0 -16 16v4l89 510q2 8 9 14t15 6h48q16 0 16 -16v-4zM296 632q0 -9 -10 -9h-54q-8 0 -12 3.5t-9 11.5l-90 126q-3 4 -3 7q0 8 12 8h66q9 0 13.5 -3.5t9.5 -11.5l75 -124q2 -3 2 -8z" />
    <glyph glyph-name="iacute" unicode="&#xed;" horiz-adv-x="247" 
d="M260 530l-89 -510q-2 -8 -9 -14t-15 -6h-48q-16 0 -16 16v4l89 510q2 8 9 14t15 6h48q16 0 16 -16v-4zM407 773q0 -4 -5 -9l-136 -126q-8 -8 -12.5 -11.5t-12.5 -3.5h-54q-8 0 -8 6q0 5 6 11l120 124q8 8 12.5 11.5t13.5 3.5h66q10 0 10 -6z" />
    <glyph glyph-name="icircumflex" unicode="&#xee;" horiz-adv-x="247" 
d="M260 530l-89 -510q-2 -8 -9 -14t-15 -6h-48q-16 0 -16 16v4l89 510q2 8 9 14t15 6h48q16 0 16 -16v-4zM400 632q0 -9 -10 -9h-49q-8 0 -12 3.5t-9 11.5l-64 97l-101 -97q-8 -8 -12.5 -11.5t-12.5 -3.5h-55q-8 0 -8 6q0 5 6 11l118 124q8 8 12.5 11.5t13.5 3.5h85
q9 0 13.5 -3.5t9.5 -11.5l73 -124q2 -3 2 -8z" />
    <glyph glyph-name="idieresis" unicode="&#xef;" horiz-adv-x="247" 
d="M260 530l-89 -510q-2 -8 -9 -14t-15 -6h-48q-16 0 -16 16v4l89 510q2 8 9 14t15 6h48q16 0 16 -16v-4zM381 741l-15 -81q-2 -8 -8.5 -13.5t-14.5 -5.5h-39q-7 0 -12 4t-5 12v3l15 81q2 8 8.5 14t14.5 6h39q7 0 12 -5t5 -12v-3zM206 741l-15 -81q-2 -8 -8.5 -13.5
t-14.5 -5.5h-39q-7 0 -12 4t-5 12v3l15 81q2 8 8.5 14t14.5 6h39q7 0 12 -5t5 -12v-3z" />
    <glyph glyph-name="eth" unicode="&#xf0;" horiz-adv-x="545" 
d="M561 432q0 -30 -2.5 -64t-9.5 -70q-2 -14 -5 -27.5t-5 -27.5q-11 -60 -31.5 -106.5t-53 -78.5t-77.5 -48.5t-104 -16.5q-47 0 -81.5 13.5t-58 38.5t-35 59t-11.5 76q0 30 6 63q2 14 5 27.5t5 27.5q24 132 91 191t176 59q28 0 58 -9.5t49 -29.5q-8 39 -38 76.5t-85 65.5
q-25 -17 -49.5 -34t-49.5 -34q-4 -2 -7.5 -4t-6.5 -2q-6 0 -10 6q-4 5 -7 9.5t-7 9.5q-2 4 -2 6q0 5 4.5 10t8.5 8q18 12 36 24.5t36 24.5q-17 6 -36 11.5t-40 10.5q-14 3 -14 13q0 1 2 7q4 8 8 14.5t8 14.5q6 12 13 12q3 0 11 -2q33 -8 61.5 -16.5t54.5 -19.5
q27 18 54.5 36.5t54.5 36.5q7 5 14 5q6 0 11 -6q3 -5 6.5 -9t6.5 -9q3 -3 3 -7q0 -5 -3.5 -8.5t-8.5 -6.5q-21 -14 -42.5 -29t-42.5 -29q77 -48 108.5 -111.5t31.5 -150.5zM468 365q0 56 -26.5 82t-85.5 26q-35 0 -62.5 -13t-48 -36.5t-33.5 -55.5t-20 -70q-2 -14 -5 -27.5
t-5 -27.5q-4 -20 -5.5 -37t-1.5 -32q0 -54 25.5 -79.5t85.5 -25.5q70 0 110 46.5t55 127.5q2 14 5 27.5t5 27.5q7 35 7 67z" />
    <glyph glyph-name="ntilde" unicode="&#xf1;" horiz-adv-x="557" 
d="M556 403q0 -26 -5 -54l-58 -329q-2 -8 -9 -14t-15 -6h-48q-16 0 -16 16v4l58 329q2 14 3.5 28.5t1.5 26.5q0 36 -19 56t-74 20q-29 0 -61 -7.5t-80 -30.5l-74 -422q-2 -8 -9 -14t-15 -6h-49q-8 0 -11.5 5t-3.5 11v4l89 510q2 8 8.5 14t14.5 6h49q8 0 11.5 -5t3.5 -11v-4
l-3 -21q36 20 73 34t88 14q40 0 68.5 -12t46.5 -33t26.5 -49t8.5 -60zM594 754l-4 -23q-9 -52 -31.5 -78.5t-70.5 -26.5q-17 0 -38 4.5t-38 21.5l-47 44q-15 14 -21.5 18t-15.5 4q-34 0 -40 -46l-3 -21q-1 -7 -5.5 -12t-11.5 -5h-34q-13 0 -13 14v3l3 21q8 60 35.5 84.5
t68.5 24.5q23 0 38.5 -7t35.5 -24l54 -49q7 -6 16 -10t16 -4q15 0 24 9t14 35l4 23q2 7 6 12t11 5h34q13 0 13 -14v-3z" />
    <glyph glyph-name="ograve" unicode="&#xf2;" horiz-adv-x="545" 
d="M555 369q0 -14 -1.5 -28t-3.5 -28l-13 -76q-10 -57 -30.5 -102.5t-53 -77t-78 -48t-104.5 -16.5q-45 0 -79.5 14t-57.5 39t-35 59.5t-12 76.5q0 14 1.5 27.5t3.5 27.5l13 76q42 244 265 244q46 0 80.5 -14t58 -39t35 -59.5t11.5 -75.5zM467 370q0 54 -25.5 82t-84.5 28
q-66 0 -108.5 -45t-55.5 -122l-13 -76q-6 -33 -6 -59q0 -54 25.5 -81t84.5 -27q33 0 60.5 12.5t48.5 34.5t35.5 52.5t20.5 67.5l13 76q3 16 4 30t1 27zM441 632q0 -9 -10 -9h-54q-8 0 -12 3.5t-9 11.5l-90 126q-3 4 -3 7q0 8 12 8h66q9 0 13.5 -3.5t9.5 -11.5l75 -124
q2 -3 2 -8z" />
    <glyph glyph-name="oacute" unicode="&#xf3;" horiz-adv-x="545" 
d="M555 369q0 -14 -1.5 -28t-3.5 -28l-13 -76q-10 -57 -30.5 -102.5t-53 -77t-78 -48t-104.5 -16.5q-45 0 -79.5 14t-57.5 39t-35 59.5t-12 76.5q0 14 1.5 27.5t3.5 27.5l13 76q42 244 265 244q46 0 80.5 -14t58 -39t35 -59.5t11.5 -75.5zM467 370q0 54 -25.5 82t-84.5 28
q-66 0 -108.5 -45t-55.5 -122l-13 -76q-6 -33 -6 -59q0 -54 25.5 -81t84.5 -27q33 0 60.5 12.5t48.5 34.5t35.5 52.5t20.5 67.5l13 76q3 16 4 30t1 27zM562 773q0 -4 -5 -9l-136 -126q-8 -8 -12.5 -11.5t-12.5 -3.5h-54q-8 0 -8 6q0 5 6 11l120 124q8 8 12.5 11.5t13.5 3.5
h66q10 0 10 -6z" />
    <glyph glyph-name="ocircumflex" unicode="&#xf4;" horiz-adv-x="545" 
d="M555 369q0 -14 -1.5 -28t-3.5 -28l-13 -76q-10 -57 -30.5 -102.5t-53 -77t-78 -48t-104.5 -16.5q-45 0 -79.5 14t-57.5 39t-35 59.5t-12 76.5q0 14 1.5 27.5t3.5 27.5l13 76q42 244 265 244q46 0 80.5 -14t58 -39t35 -59.5t11.5 -75.5zM467 370q0 54 -25.5 82t-84.5 28
q-66 0 -108.5 -45t-55.5 -122l-13 -76q-6 -33 -6 -59q0 -54 25.5 -81t84.5 -27q33 0 60.5 12.5t48.5 34.5t35.5 52.5t20.5 67.5l13 76q3 16 4 30t1 27zM551 632q0 -9 -10 -9h-49q-8 0 -12 3.5t-9 11.5l-64 97l-101 -97q-8 -8 -12.5 -11.5t-12.5 -3.5h-55q-8 0 -8 6q0 5 6 11
l118 124q8 8 12.5 11.5t13.5 3.5h85q9 0 13.5 -3.5t9.5 -11.5l73 -124q2 -3 2 -8z" />
    <glyph glyph-name="otilde" unicode="&#xf5;" horiz-adv-x="545" 
d="M555 369q0 -14 -1.5 -28t-3.5 -28l-13 -76q-10 -57 -30.5 -102.5t-53 -77t-78 -48t-104.5 -16.5q-45 0 -79.5 14t-57.5 39t-35 59.5t-12 76.5q0 14 1.5 27.5t3.5 27.5l13 76q42 244 265 244q46 0 80.5 -14t58 -39t35 -59.5t11.5 -75.5zM467 370q0 54 -25.5 82t-84.5 28
q-66 0 -108.5 -45t-55.5 -122l-13 -76q-6 -33 -6 -59q0 -54 25.5 -81t84.5 -27q33 0 60.5 12.5t48.5 34.5t35.5 52.5t20.5 67.5l13 76q3 16 4 30t1 27zM589 754l-4 -23q-9 -52 -31.5 -78.5t-70.5 -26.5q-17 0 -38 4.5t-38 21.5l-47 44q-15 14 -21.5 18t-15.5 4
q-34 0 -40 -46l-3 -21q-1 -7 -5.5 -12t-11.5 -5h-34q-13 0 -13 14v3l3 21q8 60 35.5 84.5t68.5 24.5q23 0 38.5 -7t35.5 -24l54 -49q7 -6 16 -10t16 -4q15 0 24 9t14 35l4 23q2 7 6 12t11 5h34q13 0 13 -14v-3z" />
    <glyph glyph-name="odieresis" unicode="&#xf6;" horiz-adv-x="545" 
d="M555 369q0 -14 -1.5 -28t-3.5 -28l-13 -76q-10 -57 -30.5 -102.5t-53 -77t-78 -48t-104.5 -16.5q-45 0 -79.5 14t-57.5 39t-35 59.5t-12 76.5q0 14 1.5 27.5t3.5 27.5l13 76q42 244 265 244q46 0 80.5 -14t58 -39t35 -59.5t11.5 -75.5zM467 370q0 54 -25.5 82t-84.5 28
q-66 0 -108.5 -45t-55.5 -122l-13 -76q-6 -33 -6 -59q0 -54 25.5 -81t84.5 -27q33 0 60.5 12.5t48.5 34.5t35.5 52.5t20.5 67.5l13 76q3 16 4 30t1 27zM532 741l-15 -81q-2 -8 -8.5 -13.5t-14.5 -5.5h-39q-7 0 -12 4t-5 12v3l15 81q2 8 8.5 14t14.5 6h39q7 0 12 -5t5 -12v-3
zM357 741l-15 -81q-2 -8 -8.5 -13.5t-14.5 -5.5h-39q-7 0 -12 4t-5 12v3l15 81q2 8 8.5 14t14.5 6h39q7 0 12 -5t5 -12v-3z" />
    <glyph glyph-name="divide" unicode="&#xf7;" horiz-adv-x="595" 
d="M413 527q0 -8 -5.5 -14t-13.5 -6h-48q-8 0 -14 6t-6 14v88q0 8 6 13.5t14 5.5h48q8 0 13.5 -5.5t5.5 -13.5v-88zM583 371q0 -8 -6 -12t-14 -4h-385q-8 0 -14 4t-6 12v40q0 8 6 12t14 4h385q8 0 14 -4t6 -12v-40zM413 162q0 -8 -5.5 -13.5t-13.5 -5.5h-48q-8 0 -14 5.5
t-6 13.5v89q0 8 6 13.5t14 5.5h48q8 0 13.5 -5.5t5.5 -13.5v-89z" />
    <glyph glyph-name="oslash" unicode="&#xf8;" horiz-adv-x="545" 
d="M630 577q0 -6 -7 -13l-86 -94q19 -38 19 -93q0 -30 -6 -64l-13 -76q-9 -55 -31.5 -100t-56 -77t-78.5 -49.5t-100 -17.5q-84 0 -132 42l-54 -60q-6 -7 -9.5 -8.5t-8.5 -1.5h-49q-7 0 -7 6q0 7 6 13l88 96q-19 38 -19 93q0 29 6 64l13 76q9 55 31 100t55.5 77t78.5 49.5
t100 17.5q85 0 133 -42l52 58q6 7 9.5 8.5t8.5 1.5h50q7 0 7 -6zM441 449q-28 31 -84 31q-71 0 -110.5 -44.5t-53.5 -122.5l-13 -76q-2 -15 -3.5 -28.5t-1.5 -26.5v-13t1 -11zM467 364q0 7 -0.5 13.5t-1.5 13.5l-265 -290q28 -31 84 -31q71 0 111 44.5t54 122.5l13 76
q2 14 3.5 26.5t1.5 24.5z" />
    <glyph glyph-name="ugrave" unicode="&#xf9;" horiz-adv-x="557" 
d="M582 530l-89 -510q-2 -8 -8.5 -14t-14.5 -6h-47q-15 0 -15 16v4l3 18q-45 -23 -83 -34t-83 -11q-65 0 -105.5 39.5t-40.5 118.5q0 28 6 61l56 318q2 8 9 14t15 6h48q16 0 16 -16v-4l-58 -329q-6 -33 -6 -57q0 -42 21.5 -58t71.5 -16q32 0 68 10t74 27l74 423q2 8 9 14
t15 6h49q8 0 11.5 -5t3.5 -11v-4zM447 632q0 -9 -10 -9h-54q-8 0 -12 3.5t-9 11.5l-90 126q-3 4 -3 7q0 8 12 8h66q9 0 13.5 -3.5t9.5 -11.5l75 -124q2 -3 2 -8z" />
    <glyph glyph-name="uacute" unicode="&#xfa;" horiz-adv-x="557" 
d="M582 530l-89 -510q-2 -8 -8.5 -14t-14.5 -6h-47q-15 0 -15 16v4l3 18q-45 -23 -83 -34t-83 -11q-65 0 -105.5 39.5t-40.5 118.5q0 28 6 61l56 318q2 8 9 14t15 6h48q16 0 16 -16v-4l-58 -329q-6 -33 -6 -57q0 -42 21.5 -58t71.5 -16q32 0 68 10t74 27l74 423q2 8 9 14
t15 6h49q8 0 11.5 -5t3.5 -11v-4zM570 773q0 -4 -5 -9l-136 -126q-8 -8 -12.5 -11.5t-12.5 -3.5h-54q-8 0 -8 6q0 5 6 11l120 124q8 8 12.5 11.5t13.5 3.5h66q10 0 10 -6z" />
    <glyph glyph-name="ucircumflex" unicode="&#xfb;" horiz-adv-x="557" 
d="M582 530l-89 -510q-2 -8 -8.5 -14t-14.5 -6h-47q-15 0 -15 16v4l3 18q-45 -23 -83 -34t-83 -11q-65 0 -105.5 39.5t-40.5 118.5q0 28 6 61l56 318q2 8 9 14t15 6h48q16 0 16 -16v-4l-58 -329q-6 -33 -6 -57q0 -42 21.5 -58t71.5 -16q32 0 68 10t74 27l74 423q2 8 9 14
t15 6h49q8 0 11.5 -5t3.5 -11v-4zM555 632q0 -9 -10 -9h-49q-8 0 -12 3.5t-9 11.5l-64 97l-101 -97q-8 -8 -12.5 -11.5t-12.5 -3.5h-55q-8 0 -8 6q0 5 6 11l118 124q8 8 12.5 11.5t13.5 3.5h85q9 0 13.5 -3.5t9.5 -11.5l73 -124q2 -3 2 -8z" />
    <glyph glyph-name="udieresis" unicode="&#xfc;" horiz-adv-x="557" 
d="M582 530l-89 -510q-2 -8 -8.5 -14t-14.5 -6h-47q-15 0 -15 16v4l3 18q-45 -23 -83 -34t-83 -11q-65 0 -105.5 39.5t-40.5 118.5q0 28 6 61l56 318q2 8 9 14t15 6h48q16 0 16 -16v-4l-58 -329q-6 -33 -6 -57q0 -42 21.5 -58t71.5 -16q32 0 68 10t74 27l74 423q2 8 9 14
t15 6h49q8 0 11.5 -5t3.5 -11v-4zM537 741l-15 -81q-2 -8 -8.5 -13.5t-14.5 -5.5h-39q-7 0 -12 4t-5 12v3l15 81q2 8 8.5 14t14.5 6h39q7 0 12 -5t5 -12v-3zM362 741l-15 -81q-2 -8 -8.5 -13.5t-14.5 -5.5h-39q-7 0 -12 4t-5 12v3l15 81q2 8 8.5 14t14.5 6h39q7 0 12 -5
t5 -12v-3z" />
    <glyph glyph-name="yacute" unicode="&#xfd;" horiz-adv-x="534" 
d="M592 537q0 -5 -3 -11l-267 -576q-19 -41 -37.5 -69t-42.5 -45.5t-55 -25.5t-74 -8q-21 0 -44 2.5t-38 6.5q-8 2 -13.5 5t-5.5 9v2l7 37q3 16 22 16h3q8 -1 19.5 -2t24 -2t24.5 -1.5t20 -0.5q21 0 37.5 3.5t30 13t24.5 26t22 42.5l17 41h-11q-12 0 -22.5 3t-19.5 11.5
t-15 23.5t-9 40l-51 448v3q0 9 5.5 15t15.5 6h52q6 0 9.5 -5t4.5 -11l42 -434q2 -15 6 -18.5t9 -3.5h16l202 457q2 6 8.5 10.5t13.5 4.5h59q14 0 14 -13zM572 773q0 -4 -5 -9l-136 -126q-8 -8 -12.5 -11.5t-12.5 -3.5h-54q-8 0 -8 6q0 5 6 11l120 124q8 8 12.5 11.5
t13.5 3.5h66q10 0 10 -6z" />
    <glyph glyph-name="thorn" unicode="&#xfe;" horiz-adv-x="541" 
d="M552 376q0 -32 -6 -66l-13 -72q-22 -122 -83 -183.5t-178 -61.5q-23 0 -55 3t-60 8l-32 -181q-2 -11 -6.5 -15t-16.5 -4h-51q-7 0 -11.5 4.5t-2.5 14.5l160 909q2 8 6.5 14t17.5 6h48q10 0 14 -4t2 -16l-33 -185q30 5 60.5 7.5t58.5 2.5q93 0 137 -50t44 -131zM465 377
q0 52 -24.5 79t-82.5 27q-32 0 -65 -3t-54 -7l-69 -396q24 -5 57.5 -7.5t57.5 -2.5q71 0 108.5 46t51.5 125l13 72q7 35 7 67z" />
    <glyph glyph-name="ydieresis" unicode="&#xff;" horiz-adv-x="534" 
d="M592 537q0 -5 -3 -11l-267 -576q-19 -41 -37.5 -69t-42.5 -45.5t-55 -25.5t-74 -8q-21 0 -44 2.5t-38 6.5q-8 2 -13.5 5t-5.5 9v2l7 37q3 16 22 16h3q8 -1 19.5 -2t24 -2t24.5 -1.5t20 -0.5q21 0 37.5 3.5t30 13t24.5 26t22 42.5l17 41h-11q-12 0 -22.5 3t-19.5 11.5
t-15 23.5t-9 40l-51 448v3q0 9 5.5 15t15.5 6h52q6 0 9.5 -5t4.5 -11l42 -434q2 -15 6 -18.5t9 -3.5h16l202 457q2 6 8.5 10.5t13.5 4.5h59q14 0 14 -13zM535 741l-15 -81q-2 -8 -8.5 -13.5t-14.5 -5.5h-39q-7 0 -12 4t-5 12v3l15 81q2 8 8.5 14t14.5 6h39q7 0 12 -5t5 -12
v-3zM360 741l-15 -81q-2 -8 -8.5 -13.5t-14.5 -5.5h-39q-7 0 -12 4t-5 12v3l15 81q2 8 8.5 14t14.5 6h39q7 0 12 -5t5 -12v-3z" />
    <glyph glyph-name="Amacron" unicode="&#x100;" horiz-adv-x="633" 
d="M607 19q0 -19 -17 -19h-60q-7 0 -10 4.5t-4 10.5l-25 230h-259l-104 -230q-2 -6 -8.5 -10.5t-12.5 -4.5h-61q-14 0 -14 13q0 6 2 10l300 651q10 23 24 37.5t29.5 23t31.5 12t30 3.5t28.5 -3t27 -11.5t21 -23t11.5 -37.5l70 -652v-4zM453 653q-2 18 -16 18q-15 0 -23 -18
l-149 -329h221zM646 871l-6 -34q-2 -8 -8.5 -12.5t-14.5 -4.5h-288q-17 0 -17 14v3l6 34q2 8 8.5 12.5t14.5 4.5h288q17 0 17 -14v-3z" />
    <glyph glyph-name="amacron" unicode="&#x101;" horiz-adv-x="527" 
d="M358 557q45 0 91 -6.5t84 -16.5q14 -3 16.5 -8t0.5 -15l-86 -491q-2 -8 -6.5 -14t-16.5 -6h-40q-11 0 -14 5.5t-1 16.5l5 31q-22 -16 -40.5 -27t-37 -18.5t-38.5 -11t-45 -3.5q-32 0 -60.5 10.5t-49.5 32t-33.5 55t-12.5 79.5q0 28 6 60l18 99q12 65 37 108.5t59.5 70
t76.5 38t87 11.5zM455 473q-20 4 -42.5 7t-54.5 3q-78 0 -119 -41.5t-55 -121.5l-18 -103q-2 -11 -3 -23t-1 -23q0 -58 25.5 -81t61.5 -23q35 0 69 15t76 43zM554 700l-6 -34q-2 -8 -8.5 -12.5t-14.5 -4.5h-288q-17 0 -17 14v3l6 34q2 8 8.5 12.5t14.5 4.5h288q17 0 17 -14
v-3z" />
    <glyph glyph-name="Abreve" unicode="&#x102;" horiz-adv-x="633" 
d="M607 19q0 -19 -17 -19h-60q-7 0 -10 4.5t-4 10.5l-25 230h-259l-104 -230q-2 -6 -8.5 -10.5t-12.5 -4.5h-61q-14 0 -14 13q0 6 2 10l300 651q10 23 24 37.5t29.5 23t31.5 12t30 3.5t28.5 -3t27 -11.5t21 -23t11.5 -37.5l70 -652v-4zM453 653q-2 18 -16 18q-15 0 -23 -18
l-149 -329h221zM639 941q0 -5 -1 -8q-8 -36 -25.5 -62.5t-41.5 -44t-52.5 -26t-57.5 -8.5t-56 8t-47.5 25.5t-33 44t-12.5 63.5q0 7 3 12t11 5h35q8 0 10.5 -4t2.5 -12q0 -80 87 -80q46 0 74 21t39 59q2 8 5.5 12t11.5 4h39q9 0 9 -9z" />
    <glyph glyph-name="abreve" unicode="&#x103;" horiz-adv-x="527" 
d="M358 557q45 0 91 -6.5t84 -16.5q14 -3 16.5 -8t0.5 -15l-86 -491q-2 -8 -6.5 -14t-16.5 -6h-40q-11 0 -14 5.5t-1 16.5l5 31q-22 -16 -40.5 -27t-37 -18.5t-38.5 -11t-45 -3.5q-32 0 -60.5 10.5t-49.5 32t-33.5 55t-12.5 79.5q0 28 6 60l18 99q12 65 37 108.5t59.5 70
t76.5 38t87 11.5zM455 473q-20 4 -42.5 7t-54.5 3q-78 0 -119 -41.5t-55 -121.5l-18 -103q-2 -11 -3 -23t-1 -23q0 -58 25.5 -81t61.5 -23q35 0 69 15t76 43zM572 771q0 -5 -1 -8q-8 -36 -25.5 -62.5t-41.5 -44t-52.5 -26t-57.5 -8.5t-56 8t-47.5 25.5t-33 44t-12.5 63.5
q0 7 3 12t11 5h35q8 0 10.5 -4t2.5 -12q0 -80 87 -80q46 0 74 21t39 59q2 8 5.5 12t11.5 4h39q9 0 9 -9z" />
    <glyph glyph-name="Aogonek" unicode="&#x104;" horiz-adv-x="633" 
d="M603 57q3 -25 3.5 -32.5t0.5 -9.5q0 -3 -1 -6t-8 -7l-71 -44q-20 -12 -32.5 -20.5t-20 -16t-10.5 -15t-3 -17.5q0 -15 14.5 -23t48.5 -8q24 0 46 5t27 5t4 -8l-7 -39q-1 -8 -13 -11q-2 -1 -24 -5.5t-54 -4.5q-65 0 -90.5 21.5t-25.5 54.5q0 22 8.5 40t20.5 31.5
t26.5 23.5t26.5 16l47 26l-25 232h-259l-104 -230q-2 -6 -8.5 -10.5t-12.5 -4.5h-61q-14 0 -14 13q0 6 2 10l300 651q10 23 24 37.5t29.5 23t31.5 12t30 3.5t28.5 -3t27 -11.5t21 -23t11.5 -37.5zM453 653q-2 18 -16 18q-15 0 -23 -18l-149 -329h221z" />
    <glyph glyph-name="aogonek" unicode="&#x105;" horiz-adv-x="527" 
d="M467 37q-3 -16 -6.5 -23t-13.5 -13l-70 -43q-38 -23 -52 -36.5t-14 -32.5q0 -15 14.5 -23t48.5 -8q24 0 46 5t27 5t4 -8l-7 -39q-1 -5 -4 -7t-9 -4q-2 -1 -24 -5.5t-54 -4.5q-65 0 -90.5 21.5t-25.5 54.5q0 22 7 39t18 30t26 23t31 19l67 37l5 29q-22 -16 -40.5 -27
t-37 -18.5t-38.5 -11t-45 -3.5q-32 0 -60.5 10.5t-49.5 32t-33.5 55t-12.5 79.5q0 28 6 60l18 99q12 65 37 108.5t59.5 70t76.5 38t87 11.5t91 -6.5t84 -16.5q18 -4 18 -15q0 -5 -1 -8zM455 473q-20 4 -42.5 7t-54.5 3q-78 0 -119 -41.5t-55 -121.5l-18 -103q-2 -11 -3 -23
t-1 -23q0 -58 25.5 -81t61.5 -23q35 0 69 15t76 43z" />
    <glyph glyph-name="Cacute" unicode="&#x106;" horiz-adv-x="545" 
d="M456 750q48 0 90.5 -5.5t74.5 -10.5q6 -1 11 -3t3 -10l-9 -51q-1 -12 -17 -11l-32.5 2.5t-42 3t-46 2.5t-45.5 1q-37 0 -70.5 -11.5t-62 -38.5t-49.5 -70.5t-32 -106.5l-25 -139q-4 -21 -5.5 -39t-1.5 -35q0 -42 10.5 -71t29 -47.5t44.5 -26.5t57 -8q21 0 45 1t46.5 2.5
t42 2.5t33.5 2q12 1 15.5 -2.5t1.5 -13.5l-7 -41q-2 -9 -6 -13.5t-18 -6.5q-16 -3 -32.5 -5.5t-36 -4t-43.5 -2.5t-56 -1q-38 0 -76.5 12t-70 39t-51 70.5t-19.5 107.5q0 18 1.5 38t5.5 42l25 139q17 95 51 155.5t77.5 94.5t92.5 46.5t97 12.5zM635 944q0 -4 -5 -9
l-136 -126q-8 -8 -12.5 -11.5t-12.5 -3.5h-54q-8 0 -8 6q0 5 6 11l120 124q8 8 12.5 11.5t13.5 3.5h66q10 0 10 -6z" />
    <glyph glyph-name="cacute" unicode="&#x107;" horiz-adv-x="452" 
d="M348 480q-60 0 -101 -44t-54 -122l-13 -78q-6 -35 -6 -60q0 -57 26 -81.5t75 -24.5q37 0 65 1.5t61 5.5q12 2 16 -2.5t2 -12.5l-6 -36q-2 -11 -7 -15.5t-17 -6.5q-25 -5 -58.5 -8t-68.5 -3q-44 0 -77 14.5t-54.5 39.5t-32.5 59.5t-11 74.5q0 14 1.5 27.5t3.5 27.5l13 78
q20 122 86.5 182.5t169.5 60.5q35 0 67 -3t56 -8q14 -2 16 -7t0 -15l-6 -36q-2 -8 -6 -12.5t-18 -2.5q-32 4 -58.5 5.5t-63.5 1.5zM516 773q0 -4 -5 -9l-136 -126q-8 -8 -12.5 -11.5t-12.5 -3.5h-54q-8 0 -8 6q0 5 6 11l120 124q8 8 12.5 11.5t13.5 3.5h66q10 0 10 -6z" />
    <glyph glyph-name="Ccircumflex" unicode="&#x108;" horiz-adv-x="545" 
d="M456 750q48 0 90.5 -5.5t74.5 -10.5q6 -1 11 -3t3 -10l-9 -51q-1 -12 -17 -11l-32.5 2.5t-42 3t-46 2.5t-45.5 1q-37 0 -70.5 -11.5t-62 -38.5t-49.5 -70.5t-32 -106.5l-25 -139q-4 -21 -5.5 -39t-1.5 -35q0 -42 10.5 -71t29 -47.5t44.5 -26.5t57 -8q21 0 45 1t46.5 2.5
t42 2.5t33.5 2q12 1 15.5 -2.5t1.5 -13.5l-7 -41q-2 -9 -6 -13.5t-18 -6.5q-16 -3 -32.5 -5.5t-36 -4t-43.5 -2.5t-56 -1q-38 0 -76.5 12t-70 39t-51 70.5t-19.5 107.5q0 18 1.5 38t5.5 42l25 139q17 95 51 155.5t77.5 94.5t92.5 46.5t97 12.5zM621 803q0 -9 -10 -9h-49
q-8 0 -12 3.5t-9 11.5l-64 97l-101 -97q-8 -8 -12.5 -11.5t-12.5 -3.5h-55q-8 0 -8 6q0 5 6 11l118 124q8 8 12.5 11.5t13.5 3.5h85q9 0 13.5 -3.5t9.5 -11.5l73 -124q2 -3 2 -8z" />
    <glyph glyph-name="ccircumflex" unicode="&#x109;" horiz-adv-x="452" 
d="M348 480q-60 0 -101 -44t-54 -122l-13 -78q-6 -35 -6 -60q0 -57 26 -81.5t75 -24.5q37 0 65 1.5t61 5.5q12 2 16 -2.5t2 -12.5l-6 -36q-2 -11 -7 -15.5t-17 -6.5q-25 -5 -58.5 -8t-68.5 -3q-44 0 -77 14.5t-54.5 39.5t-32.5 59.5t-11 74.5q0 14 1.5 27.5t3.5 27.5l13 78
q20 122 86.5 182.5t169.5 60.5q35 0 67 -3t56 -8q14 -2 16 -7t0 -15l-6 -36q-2 -8 -6 -12.5t-18 -2.5q-32 4 -58.5 5.5t-63.5 1.5zM519 632q0 -9 -10 -9h-49q-8 0 -12 3.5t-9 11.5l-64 97l-101 -97q-8 -8 -12.5 -11.5t-12.5 -3.5h-55q-8 0 -8 6q0 5 6 11l118 124
q8 8 12.5 11.5t13.5 3.5h85q9 0 13.5 -3.5t9.5 -11.5l73 -124q2 -3 2 -8z" />
    <glyph glyph-name="Cdotaccent" unicode="&#x10a;" horiz-adv-x="545" 
d="M456 750q48 0 90.5 -5.5t74.5 -10.5q6 -1 11 -3t3 -10l-9 -51q-1 -12 -17 -11l-32.5 2.5t-42 3t-46 2.5t-45.5 1q-37 0 -70.5 -11.5t-62 -38.5t-49.5 -70.5t-32 -106.5l-25 -139q-4 -21 -5.5 -39t-1.5 -35q0 -42 10.5 -71t29 -47.5t44.5 -26.5t57 -8q21 0 45 1t46.5 2.5
t42 2.5t33.5 2q12 1 15.5 -2.5t1.5 -13.5l-7 -41q-2 -9 -6 -13.5t-18 -6.5q-16 -3 -32.5 -5.5t-36 -4t-43.5 -2.5t-56 -1q-38 0 -76.5 12t-70 39t-51 70.5t-19.5 107.5q0 18 1.5 38t5.5 42l25 139q17 95 51 155.5t77.5 94.5t92.5 46.5t97 12.5zM550 924l-15 -84
q-2 -8 -8.5 -14t-14.5 -6h-48q-16 0 -16 17v3l15 84q2 8 8.5 13.5t14.5 5.5h48q16 0 16 -16v-3z" />
    <glyph glyph-name="cdotaccent" unicode="&#x10b;" horiz-adv-x="452" 
d="M348 480q-60 0 -101 -44t-54 -122l-13 -78q-6 -35 -6 -60q0 -57 26 -81.5t75 -24.5q37 0 65 1.5t61 5.5q12 2 16 -2.5t2 -12.5l-6 -36q-2 -11 -7 -15.5t-17 -6.5q-25 -5 -58.5 -8t-68.5 -3q-44 0 -77 14.5t-54.5 39.5t-32.5 59.5t-11 74.5q0 14 1.5 27.5t3.5 27.5l13 78
q20 122 86.5 182.5t169.5 60.5q35 0 67 -3t56 -8q14 -2 16 -7t0 -15l-6 -36q-2 -8 -6 -12.5t-18 -2.5q-32 4 -58.5 5.5t-63.5 1.5zM440 742l-15 -84q-2 -8 -8.5 -14t-14.5 -6h-48q-16 0 -16 17v3l15 84q2 8 8.5 13.5t14.5 5.5h48q16 0 16 -16v-3z" />
    <glyph glyph-name="Ccaron" unicode="&#x10c;" horiz-adv-x="545" 
d="M456 750q48 0 90.5 -5.5t74.5 -10.5q6 -1 11 -3t3 -10l-9 -51q-1 -12 -17 -11l-32.5 2.5t-42 3t-46 2.5t-45.5 1q-37 0 -70.5 -11.5t-62 -38.5t-49.5 -70.5t-32 -106.5l-25 -139q-4 -21 -5.5 -39t-1.5 -35q0 -42 10.5 -71t29 -47.5t44.5 -26.5t57 -8q21 0 45 1t46.5 2.5
t42 2.5t33.5 2q12 1 15.5 -2.5t1.5 -13.5l-7 -41q-2 -9 -6 -13.5t-18 -6.5q-16 -3 -32.5 -5.5t-36 -4t-43.5 -2.5t-56 -1q-38 0 -76.5 12t-70 39t-51 70.5t-19.5 107.5q0 18 1.5 38t5.5 42l25 139q17 95 51 155.5t77.5 94.5t92.5 46.5t97 12.5zM660 944q0 -5 -6 -11
l-119 -124q-8 -8 -13 -11.5t-14 -3.5h-85q-9 0 -13 3.5t-9 11.5l-76 124q-2 3 -2 8q0 9 10 9h47q8 0 12 -4t9 -12l66 -96l99 96q8 8 12.5 12t12.5 4h61q8 0 8 -6z" />
    <glyph glyph-name="ccaron" unicode="&#x10d;" horiz-adv-x="452" 
d="M348 480q-60 0 -101 -44t-54 -122l-13 -78q-6 -35 -6 -60q0 -57 26 -81.5t75 -24.5q37 0 65 1.5t61 5.5q12 2 16 -2.5t2 -12.5l-6 -36q-2 -11 -7 -15.5t-17 -6.5q-25 -5 -58.5 -8t-68.5 -3q-44 0 -77 14.5t-54.5 39.5t-32.5 59.5t-11 74.5q0 14 1.5 27.5t3.5 27.5l13 78
q20 122 86.5 182.5t169.5 60.5q35 0 67 -3t56 -8q14 -2 16 -7t0 -15l-6 -36q-2 -8 -6 -12.5t-18 -2.5q-32 4 -58.5 5.5t-63.5 1.5zM566 773q0 -5 -6 -11l-119 -124q-8 -8 -13 -11.5t-14 -3.5h-85q-9 0 -13 3.5t-9 11.5l-76 124q-2 3 -2 8q0 9 10 9h47q8 0 12 -4t9 -12
l66 -96l99 96q8 8 12.5 12t12.5 4h61q8 0 8 -6z" />
    <glyph glyph-name="Dcaron" unicode="&#x10e;" horiz-adv-x="641" 
d="M668 516q0 -18 -1.5 -37t-5.5 -40l-23 -135q-14 -83 -45 -141.5t-76.5 -96.5t-105 -55.5t-131.5 -17.5q-29 0 -56.5 1t-51.5 2.5t-42.5 3t-29.5 3.5q-12 2 -15.5 8t-1.5 17l121 687q5 22 25 25q11 2 30.5 3.5t44 3t52.5 2.5t57 1q57 0 104 -14.5t80.5 -43.5t52 -73
t18.5 -103zM577 511q0 46 -13.5 77t-37.5 50t-56.5 26.5t-70.5 7.5q-35 0 -60.5 -0.5t-50.5 -2.5l-105 -596q24 -2 50 -2h61q44 0 85 12t74.5 39.5t58 72t35.5 109.5l23 135q7 38 7 72zM637 944q0 -5 -6 -11l-119 -124q-8 -8 -13 -11.5t-14 -3.5h-85q-9 0 -13 3.5t-9 11.5
l-76 124q-2 3 -2 8q0 9 10 9h47q8 0 12 -4t9 -12l66 -96l99 96q8 8 12.5 12t12.5 4h61q8 0 8 -6z" />
    <glyph glyph-name="dcaron" unicode="&#x10f;" horiz-adv-x="650" 
d="M602 733l-123 -700q-2 -10 -6.5 -15.5t-18.5 -7.5q-48 -9 -94.5 -13t-92.5 -4t-80 13.5t-56.5 37.5t-33.5 58t-11 75q0 30 6 63l13 72q23 129 87 187t174 58q23 0 55 -2.5t60 -7.5l33 186q2 8 8.5 13.5t14.5 5.5h51q14 0 14 -15v-3v-1zM468 473q-24 5 -57.5 6t-57.5 1
q-37 0 -64 -12.5t-46 -35t-31 -53.5t-19 -67l-13 -72q-3 -18 -5 -34.5t-2 -30.5q0 -51 24.5 -78t82.5 -27q26 0 59 2t59 4zM779 741q0 -2 -2 -8l-75 -189q-4 -10 -7.5 -14.5t-11.5 -4.5h-41q-12 0 -12 12q0 5 1 7l57 189q6 19 20 19h58q13 0 13 -11z" />
    <glyph glyph-name="Dcroat" unicode="&#x110;" horiz-adv-x="641" 
d="M666 516q0 -18 -1.5 -37t-5.5 -40l-23 -135q-14 -83 -45 -141.5t-76.5 -96.5t-105 -55.5t-131.5 -17.5q-29 0 -56.5 1t-51.5 2.5t-42.5 3t-29.5 3.5q-18 3 -18 19q0 2 0.5 3t0.5 3l56 319h-37q-16 0 -16 17v3l6 38q2 8 9 14t15 6h37l51 290q5 22 25 25q11 2 30.5 3.5
t44 3t52.5 2.5t57 1q57 0 104 -14.5t80.5 -43.5t52 -73t18.5 -103zM229 347l-48 -274q24 -2 50 -2h61q44 0 85 12t74.5 39.5t58 72t35.5 109.5l23 135q7 38 7 72q0 46 -13.5 77t-37.5 50t-56.5 26.5t-70.5 7.5q-35 0 -60.5 -0.5t-50.5 -2.5l-43 -244h104q16 0 16 -17v-3
l-6 -38q-2 -8 -9 -14t-15 -6h-104z" />
    <glyph glyph-name="dcroat" unicode="&#x111;" horiz-adv-x="541" 
d="M582 623l-103 -590q-2 -10 -6.5 -15.5t-18.5 -7.5q-48 -9 -94.5 -13t-92.5 -4t-80 13.5t-56.5 37.5t-33.5 58t-11 75q0 30 6 63l13 72q23 129 87 187t174 58q23 0 55 -2.5t60 -7.5l13 76h-169q-16 0 -16 17v3l6 33q2 8 9 14t15 6h168l7 37q2 8 8.5 13.5t14.5 5.5h51
q14 0 14 -15v-4l-7 -37h47q16 0 16 -17v-3l-6 -33q-2 -8 -9 -14t-15 -6h-46zM468 473q-24 5 -57.5 6t-57.5 1q-37 0 -64 -12.5t-46 -35t-31 -53.5t-19 -67l-13 -72q-3 -18 -5 -34.5t-2 -30.5q0 -51 24.5 -78t82.5 -27q26 0 59 2t59 4z" />
    <glyph glyph-name="Emacron" unicode="&#x112;" horiz-adv-x="551" 
d="M410 668q-40 0 -65 -5.5t-40.5 -18t-23.5 -32.5t-13 -48l-24 -139h307q19 0 16 -20l-6 -38q-2 -8 -6.5 -14t-17.5 -6h-307l-29 -168q-2 -12 -3.5 -22t-1.5 -19q0 -34 23 -48.5t86 -14.5h190q8 0 11 -2t1 -10l-9 -49q-1 -5 -2.5 -8.5t-9.5 -5.5q-11 -1 -34.5 -2.5
t-52 -2.5t-58 -1.5t-51.5 -0.5q-86 0 -135 35.5t-49 108.5q0 22 4 42l67 385q10 55 30 91t50.5 57t71.5 29.5t94 8.5q85 0 129.5 -2.5t64.5 -6.5q5 -1 7.5 -3.5t0.5 -10.5l-9 -47q-1 -8 -4.5 -10t-8.5 -2h-193zM612 871l-6 -34q-2 -8 -8.5 -12.5t-14.5 -4.5h-288
q-17 0 -17 14v3l6 34q2 8 8.5 12.5t14.5 4.5h288q17 0 17 -14v-3z" />
    <glyph glyph-name="emacron" unicode="&#x113;" horiz-adv-x="544" 
d="M555 371q0 -29 -6 -60l-8 -42q-2 -10 -6.5 -16t-15.5 -6h-337l-2 -12q-6 -35 -6 -61q0 -57 33 -82t91 -25q44 0 91 4.5t82 9.5q22 3 19 -14l-6 -34q-2 -11 -6.5 -16t-17.5 -7q-45 -8 -84.5 -12.5t-90.5 -4.5q-37 0 -72.5 10t-63 32t-44.5 57t-17 86q0 29 6 62l13 70
q23 120 90.5 183.5t174.5 63.5q46 0 80.5 -14.5t57.5 -39.5t34 -59t11 -73zM467 374q0 106 -108 106q-33 0 -60 -12t-47.5 -34t-34.5 -51.5t-21 -63.5l-1 -5h265l1 5q6 30 6 55zM572 700l-6 -34q-2 -8 -8.5 -12.5t-14.5 -4.5h-288q-17 0 -17 14v3l6 34q2 8 8.5 12.5
t14.5 4.5h288q17 0 17 -14v-3z" />
    <glyph glyph-name="Ebreve" unicode="&#x114;" horiz-adv-x="551" 
d="M410 668q-40 0 -65 -5.5t-40.5 -18t-23.5 -32.5t-13 -48l-24 -139h307q19 0 16 -20l-6 -38q-2 -8 -6.5 -14t-17.5 -6h-307l-29 -168q-2 -12 -3.5 -22t-1.5 -19q0 -34 23 -48.5t86 -14.5h190q8 0 11 -2t1 -10l-9 -49q-1 -5 -2.5 -8.5t-9.5 -5.5q-11 -1 -34.5 -2.5
t-52 -2.5t-58 -1.5t-51.5 -0.5q-86 0 -135 35.5t-49 108.5q0 22 4 42l67 385q10 55 30 91t50.5 57t71.5 29.5t94 8.5q85 0 129.5 -2.5t64.5 -6.5q5 -1 7.5 -3.5t0.5 -10.5l-9 -47q-1 -8 -4.5 -10t-8.5 -2h-193zM633 941q0 -5 -1 -8q-8 -36 -25.5 -62.5t-41.5 -44t-52.5 -26
t-57.5 -8.5t-56 8t-47.5 25.5t-33 44t-12.5 63.5q0 7 3 12t11 5h35q8 0 10.5 -4t2.5 -12q0 -80 87 -80q46 0 74 21t39 59q2 8 5.5 12t11.5 4h39q9 0 9 -9z" />
    <glyph glyph-name="ebreve" unicode="&#x115;" horiz-adv-x="544" 
d="M555 371q0 -29 -6 -60l-8 -42q-2 -10 -6.5 -16t-15.5 -6h-337l-2 -12q-6 -35 -6 -61q0 -57 33 -82t91 -25q44 0 91 4.5t82 9.5q22 3 19 -14l-6 -34q-2 -11 -6.5 -16t-17.5 -7q-45 -8 -84.5 -12.5t-90.5 -4.5q-37 0 -72.5 10t-63 32t-44.5 57t-17 86q0 29 6 62l13 70
q23 120 90.5 183.5t174.5 63.5q46 0 80.5 -14.5t57.5 -39.5t34 -59t11 -73zM467 374q0 106 -108 106q-33 0 -60 -12t-47.5 -34t-34.5 -51.5t-21 -63.5l-1 -5h265l1 5q6 30 6 55zM580 770q0 -5 -1 -8q-8 -36 -25.5 -62.5t-41.5 -44t-52.5 -26t-57.5 -8.5t-56 8t-47.5 25.5
t-33 44t-12.5 63.5q0 7 3 12t11 5h35q8 0 10.5 -4t2.5 -12q0 -80 87 -80q46 0 74 21t39 59q2 8 5.5 12t11.5 4h39q9 0 9 -9z" />
    <glyph glyph-name="Edotaccent" unicode="&#x116;" horiz-adv-x="551" 
d="M410 668q-40 0 -65 -5.5t-40.5 -18t-23.5 -32.5t-13 -48l-24 -139h307q19 0 16 -20l-6 -38q-2 -8 -6.5 -14t-17.5 -6h-307l-29 -168q-2 -12 -3.5 -22t-1.5 -19q0 -34 23 -48.5t86 -14.5h190q8 0 11 -2t1 -10l-9 -49q-1 -5 -2.5 -8.5t-9.5 -5.5q-11 -1 -34.5 -2.5
t-52 -2.5t-58 -1.5t-51.5 -0.5q-86 0 -135 35.5t-49 108.5q0 22 4 42l67 385q10 55 30 91t50.5 57t71.5 29.5t94 8.5q85 0 129.5 -2.5t64.5 -6.5q5 -1 7.5 -3.5t0.5 -10.5l-9 -47q-1 -8 -4.5 -10t-8.5 -2h-193zM510 913l-15 -84q-2 -8 -8.5 -14t-14.5 -6h-48q-16 0 -16 17v3
l15 84q2 8 8.5 13.5t14.5 5.5h48q16 0 16 -16v-3z" />
    <glyph glyph-name="edotaccent" unicode="&#x117;" horiz-adv-x="544" 
d="M555 371q0 -29 -6 -60l-8 -42q-2 -10 -6.5 -16t-15.5 -6h-337l-2 -12q-6 -35 -6 -61q0 -57 33 -82t91 -25q44 0 91 4.5t82 9.5q22 3 19 -14l-6 -34q-2 -11 -6.5 -16t-17.5 -7q-45 -8 -84.5 -12.5t-90.5 -4.5q-37 0 -72.5 10t-63 32t-44.5 57t-17 86q0 29 6 62l13 70
q23 120 90.5 183.5t174.5 63.5q46 0 80.5 -14.5t57.5 -39.5t34 -59t11 -73zM467 374q0 106 -108 106q-33 0 -60 -12t-47.5 -34t-34.5 -51.5t-21 -63.5l-1 -5h265l1 5q6 30 6 55zM464 742l-15 -84q-2 -8 -8.5 -14t-14.5 -6h-48q-16 0 -16 17v3l15 84q2 8 8.5 13.5t14.5 5.5
h48q16 0 16 -16v-3z" />
    <glyph glyph-name="Eogonek" unicode="&#x118;" horiz-adv-x="551" 
d="M625 727l-9 -47q-2 -12 -13 -12h-193q-40 0 -65 -5.5t-40.5 -18t-23.5 -32.5t-13 -48l-24 -139h307q16 0 16 -17v-3l-6 -38q-2 -8 -9 -14t-15 -6h-307l-29 -168q-2 -12 -3.5 -22t-1.5 -19q0 -34 23 -48.5t86 -14.5h193q9 0 9 -9v-3l-9 -49q-1 -5 -4 -9t-8 -5
q-5 0 -13.5 -0.5t-19.5 -1.5l-64 -40q-20 -12 -32.5 -20.5t-20 -16t-10.5 -15t-3 -18.5q0 -22 18.5 -26t44.5 -4q24 0 46 5t27 5t4 -8l-7 -39q-1 -8 -13 -11q-2 -1 -24 -5.5t-54 -4.5q-60 0 -88 21.5t-28 54.5q0 22 7 39.5t18.5 30.5t26 23t30.5 18l14 7q-15 -1 -29.5 -1
h-25.5q-86 0 -135 35.5t-49 108.5q0 22 4 42l67 385q10 55 30 91t50.5 57t71.5 29.5t94 8.5q85 0 129.5 -2.5t64.5 -6.5q5 -1 6.5 -4.5t1.5 -7.5v-2z" />
    <glyph glyph-name="eogonek" unicode="&#x119;" horiz-adv-x="544" 
d="M555 371q0 -29 -6 -60l-8 -42q-2 -10 -6.5 -16t-15.5 -6h-335l-3 -12q-5 -17 -6.5 -32t-1.5 -29q0 -57 33.5 -82t91.5 -25q44 0 91 4.5t82 9.5l9 1q7 0 9.5 -3t0.5 -12l-6 -34q-2 -8 -4.5 -12.5t-9.5 -8.5l-89 -54q-29 -18 -47.5 -32t-18.5 -37q0 -15 14.5 -23t48.5 -8
q24 0 46 5t27 5t4 -8l-7 -39q-1 -8 -13 -11q-2 -1 -24 -5.5t-54 -4.5q-65 0 -90 22t-25 58q0 21 7.5 37.5t19 29.5t26 22.5t28.5 17.5l13 7q-12 -1 -24.5 -1h-26.5q-37 0 -72.5 10t-63 32t-44.5 57t-17 86q0 29 6 62l13 70q23 120 90.5 183.5t174.5 63.5q46 0 80.5 -14.5
t57.5 -39.5t34 -59t11 -73zM467 374q0 106 -108 106q-33 0 -60 -12t-47.5 -34t-34.5 -51.5t-21 -63.5l-1 -5h265l1 5q6 30 6 55z" />
    <glyph glyph-name="Ecaron" unicode="&#x11a;" horiz-adv-x="551" 
d="M410 668q-40 0 -65 -5.5t-40.5 -18t-23.5 -32.5t-13 -48l-24 -139h307q19 0 16 -20l-6 -38q-2 -8 -6.5 -14t-17.5 -6h-307l-29 -168q-2 -12 -3.5 -22t-1.5 -19q0 -34 23 -48.5t86 -14.5h190q8 0 11 -2t1 -10l-9 -49q-1 -5 -2.5 -8.5t-9.5 -5.5q-11 -1 -34.5 -2.5
t-52 -2.5t-58 -1.5t-51.5 -0.5q-86 0 -135 35.5t-49 108.5q0 22 4 42l67 385q10 55 30 91t50.5 57t71.5 29.5t94 8.5q85 0 129.5 -2.5t64.5 -6.5q5 -1 7.5 -3.5t0.5 -10.5l-9 -47q-1 -8 -4.5 -10t-8.5 -2h-193zM650 944q0 -5 -6 -11l-119 -124q-8 -8 -13 -11.5t-14 -3.5h-85
q-9 0 -13 3.5t-9 11.5l-76 124q-2 3 -2 8q0 9 10 9h47q8 0 12 -4t9 -12l66 -96l99 96q8 8 12.5 12t12.5 4h61q8 0 8 -6z" />
    <glyph glyph-name="ecaron" unicode="&#x11b;" horiz-adv-x="544" 
d="M555 371q0 -29 -6 -60l-8 -42q-2 -10 -6.5 -16t-15.5 -6h-337l-2 -12q-6 -35 -6 -61q0 -57 33 -82t91 -25q44 0 91 4.5t82 9.5q22 3 19 -14l-6 -34q-2 -11 -6.5 -16t-17.5 -7q-45 -8 -84.5 -12.5t-90.5 -4.5q-37 0 -72.5 10t-63 32t-44.5 57t-17 86q0 29 6 62l13 70
q23 120 90.5 183.5t174.5 63.5q46 0 80.5 -14.5t57.5 -39.5t34 -59t11 -73zM467 374q0 106 -108 106q-33 0 -60 -12t-47.5 -34t-34.5 -51.5t-21 -63.5l-1 -5h265l1 5q6 30 6 55zM594 773q0 -5 -6 -11l-119 -124q-8 -8 -13 -11.5t-14 -3.5h-85q-9 0 -13 3.5t-9 11.5l-76 124
q-2 3 -2 8q0 9 10 9h47q8 0 12 -4t9 -12l66 -96l99 96q8 8 12.5 12t12.5 4h61q8 0 8 -6z" />
    <glyph glyph-name="Gcircumflex" unicode="&#x11c;" horiz-adv-x="612" 
d="M458 750q70 0 115 -4.5t73 -9.5q7 -1 11.5 -4t2.5 -11l-9 -50q-1 -8 -5.5 -9.5t-12.5 -0.5q-22 2 -42 3.5t-42 2t-47.5 1t-57.5 0.5q-33 0 -67 -10.5t-63.5 -36.5t-52.5 -70.5t-35 -112.5l-23 -134q-4 -23 -6 -42.5t-2 -36.5q0 -42 10.5 -71t28.5 -46.5t42.5 -25.5
t53.5 -8q46 0 77.5 2t49.5 4l51 286q2 8 7.5 14t13.5 6h54q8 0 12 -5t4 -12v-3l-60 -336q-3 -19 -22 -22q-38 -6 -84 -10.5t-117 -4.5q-40 0 -78 13t-67.5 41.5t-47.5 73t-18 107.5q0 17 1.5 36.5t5.5 39.5l23 134q16 96 50 156.5t78 95t94.5 47.5t100.5 13zM640 802
q0 -9 -10 -9h-49q-8 0 -12 3.5t-9 11.5l-64 97l-101 -97q-8 -8 -12.5 -11.5t-12.5 -3.5h-55q-8 0 -8 6q0 5 6 11l118 124q8 8 12.5 11.5t13.5 3.5h85q9 0 13.5 -3.5t9.5 -11.5l73 -124q2 -3 2 -8z" />
    <glyph glyph-name="gcircumflex" unicode="&#x11d;" horiz-adv-x="541" 
d="M105 312q12 67 34 114t55 76t77 42t100 13q45 0 93 -7.5t82 -15.5q14 -3 16.5 -8t0.5 -15l-90 -510q-10 -58 -28.5 -96.5t-47 -61t-68.5 -31.5t-94 -9q-57 0 -102 6t-65 12q-12 3 -15 7.5t-1 13.5l5 29q2 10 6.5 14t17.5 2t33 -4t43.5 -3.5l47 -3t43.5 -1.5q33 0 56.5 6
t39 20t25 37t15.5 57l2 12q-10 -2 -24.5 -4.5t-31 -4.5t-32 -3.5t-26.5 -1.5q-41 0 -75 10t-58.5 32t-38.5 56t-14 81q0 31 6 67zM468 472q-20 4 -49 7.5t-61 3.5q-70 0 -109.5 -41.5t-55.5 -129.5l-13 -73q-4 -20 -5.5 -38t-1.5 -33q0 -57 27.5 -79t84.5 -22q10 0 25 0.5
t30.5 2t31 3.5t27.5 5zM550 632q0 -9 -10 -9h-49q-8 0 -12 3.5t-9 11.5l-64 97l-101 -97q-8 -8 -12.5 -11.5t-12.5 -3.5h-55q-8 0 -8 6q0 5 6 11l118 124q8 8 12.5 11.5t13.5 3.5h85q9 0 13.5 -3.5t9.5 -11.5l73 -124q2 -3 2 -8z" />
    <glyph glyph-name="Gbreve" unicode="&#x11e;" horiz-adv-x="612" 
d="M458 750q70 0 115 -4.5t73 -9.5q7 -1 11.5 -4t2.5 -11l-9 -50q-1 -8 -5.5 -9.5t-12.5 -0.5q-22 2 -42 3.5t-42 2t-47.5 1t-57.5 0.5q-33 0 -67 -10.5t-63.5 -36.5t-52.5 -70.5t-35 -112.5l-23 -134q-4 -23 -6 -42.5t-2 -36.5q0 -42 10.5 -71t28.5 -46.5t42.5 -25.5
t53.5 -8q46 0 77.5 2t49.5 4l51 286q2 8 7.5 14t13.5 6h54q8 0 12 -5t4 -12v-3l-60 -336q-3 -19 -22 -22q-38 -6 -84 -10.5t-117 -4.5q-40 0 -78 13t-67.5 41.5t-47.5 73t-18 107.5q0 17 1.5 36.5t5.5 39.5l23 134q16 96 50 156.5t78 95t94.5 47.5t100.5 13zM653 943
q0 -5 -1 -8q-8 -36 -25.5 -62.5t-41.5 -44t-52.5 -26t-57.5 -8.5t-56 8t-47.5 25.5t-33 44t-12.5 63.5q0 7 3 12t11 5h35q8 0 10.5 -4t2.5 -12q0 -80 87 -80q46 0 74 21t39 59q2 8 5.5 12t11.5 4h39q9 0 9 -9z" />
    <glyph glyph-name="gbreve" unicode="&#x11f;" horiz-adv-x="541" 
d="M105 312q12 67 34 114t55 76t77 42t100 13q45 0 93 -7.5t82 -15.5q14 -3 16.5 -8t0.5 -15l-90 -510q-10 -58 -28.5 -96.5t-47 -61t-68.5 -31.5t-94 -9q-57 0 -102 6t-65 12q-12 3 -15 7.5t-1 13.5l5 29q2 10 6.5 14t17.5 2t33 -4t43.5 -3.5l47 -3t43.5 -1.5q33 0 56.5 6
t39 20t25 37t15.5 57l2 12q-10 -2 -24.5 -4.5t-31 -4.5t-32 -3.5t-26.5 -1.5q-41 0 -75 10t-58.5 32t-38.5 56t-14 81q0 31 6 67zM468 472q-20 4 -49 7.5t-61 3.5q-70 0 -109.5 -41.5t-55.5 -129.5l-13 -73q-4 -20 -5.5 -38t-1.5 -33q0 -57 27.5 -79t84.5 -22q10 0 25 0.5
t30.5 2t31 3.5t27.5 5zM577 771q0 -5 -1 -8q-8 -36 -25.5 -62.5t-41.5 -44t-52.5 -26t-57.5 -8.5t-56 8t-47.5 25.5t-33 44t-12.5 63.5q0 7 3 12t11 5h35q8 0 10.5 -4t2.5 -12q0 -80 87 -80q46 0 74 21t39 59q2 8 5.5 12t11.5 4h39q9 0 9 -9z" />
    <glyph glyph-name="Gdotaccent" unicode="&#x120;" horiz-adv-x="612" 
d="M458 750q70 0 115 -4.5t73 -9.5q7 -1 11.5 -4t2.5 -11l-9 -50q-1 -8 -5.5 -9.5t-12.5 -0.5q-22 2 -42 3.5t-42 2t-47.5 1t-57.5 0.5q-33 0 -67 -10.5t-63.5 -36.5t-52.5 -70.5t-35 -112.5l-23 -134q-4 -23 -6 -42.5t-2 -36.5q0 -42 10.5 -71t28.5 -46.5t42.5 -25.5
t53.5 -8q46 0 77.5 2t49.5 4l51 286q2 8 7.5 14t13.5 6h54q8 0 12 -5t4 -12v-3l-60 -336q-3 -19 -22 -22q-38 -6 -84 -10.5t-117 -4.5q-40 0 -78 13t-67.5 41.5t-47.5 73t-18 107.5q0 17 1.5 36.5t5.5 39.5l23 134q16 96 50 156.5t78 95t94.5 47.5t100.5 13zM542 897
l-15 -84q-2 -8 -8.5 -14t-14.5 -6h-48q-16 0 -16 17v3l15 84q2 8 8.5 13.5t14.5 5.5h48q16 0 16 -16v-3z" />
    <glyph glyph-name="gdotaccent" unicode="&#x121;" horiz-adv-x="541" 
d="M105 312q12 67 34 114t55 76t77 42t100 13q45 0 93 -7.5t82 -15.5q14 -3 16.5 -8t0.5 -15l-90 -510q-10 -58 -28.5 -96.5t-47 -61t-68.5 -31.5t-94 -9q-57 0 -102 6t-65 12q-12 3 -15 7.5t-1 13.5l5 29q2 10 6.5 14t17.5 2t33 -4t43.5 -3.5l47 -3t43.5 -1.5q33 0 56.5 6
t39 20t25 37t15.5 57l2 12q-10 -2 -24.5 -4.5t-31 -4.5t-32 -3.5t-26.5 -1.5q-41 0 -75 10t-58.5 32t-38.5 56t-14 81q0 31 6 67zM468 472q-20 4 -49 7.5t-61 3.5q-70 0 -109.5 -41.5t-55.5 -129.5l-13 -73q-4 -20 -5.5 -38t-1.5 -33q0 -57 27.5 -79t84.5 -22q10 0 25 0.5
t30.5 2t31 3.5t27.5 5zM458 742l-15 -84q-2 -8 -8.5 -14t-14.5 -6h-48q-16 0 -16 17v3l15 84q2 8 8.5 13.5t14.5 5.5h48q16 0 16 -16v-3z" />
    <glyph glyph-name="Gcommaaccent" unicode="&#x122;" horiz-adv-x="612" 
d="M458 750q70 0 115 -4.5t73 -9.5q7 -1 11.5 -4t2.5 -11l-9 -50q-1 -8 -5.5 -9.5t-12.5 -0.5q-22 2 -42 3.5t-42 2t-47.5 1t-57.5 0.5q-33 0 -67 -10.5t-63.5 -36.5t-52.5 -70.5t-35 -112.5l-23 -134q-4 -23 -6 -42.5t-2 -36.5q0 -42 10.5 -71t28.5 -46.5t42.5 -25.5
t53.5 -8q46 0 77.5 2t49.5 4l51 286q2 8 7.5 14t13.5 6h54q8 0 12 -5t4 -12v-3l-60 -336q-3 -19 -22 -22q-38 -6 -84 -10.5t-117 -4.5q-40 0 -78 13t-67.5 41.5t-47.5 73t-18 107.5q0 17 1.5 36.5t5.5 39.5l23 134q16 96 50 156.5t78 95t94.5 47.5t100.5 13zM351 -49
q11 0 9 -11l-2 -8l-74 -109q-6 -10 -11 -14.5t-16 -4.5h-41q-3 0 -6 1.5t-2 6.5q1 2 1 3.5t2 4.5l48 112q7 19 23 19h69z" />
    <glyph glyph-name="gcommaaccent" unicode="&#x123;" horiz-adv-x="541" 
d="M105 312q12 67 34 114t55 76t77 42t100 13q45 0 93 -7.5t82 -15.5q14 -3 16.5 -8t0.5 -15l-90 -510q-10 -58 -28.5 -96.5t-47 -61t-68.5 -31.5t-94 -9q-57 0 -102 6t-65 12q-12 3 -15 7.5t-1 13.5l5 29q2 10 6.5 14t17.5 2t33 -4t43.5 -3.5l47 -3t43.5 -1.5q33 0 56.5 6
t39 20t25 37t15.5 57l2 12q-10 -2 -24.5 -4.5t-31 -4.5t-32 -3.5t-26.5 -1.5q-41 0 -75 10t-58.5 32t-38.5 56t-14 81q0 31 6 67zM468 472q-20 4 -49 7.5t-61 3.5q-70 0 -109.5 -41.5t-55.5 -129.5l-13 -73q-4 -20 -5.5 -38t-1.5 -33q0 -57 27.5 -79t84.5 -22q10 0 25 0.5
t30.5 2t31 3.5t27.5 5zM348 623q-4 0 -7.5 3t-2.5 8q0 4 4 8l73 109q6 10 11 14.5t16 4.5h41q3 0 6 -1.5t2 -6.5q-1 -2 -1 -3.5t-2 -4.5l-47 -112q-8 -19 -24 -19h-69z" />
    <glyph glyph-name="Hcircumflex" unicode="&#x124;" horiz-adv-x="680" 
d="M713 743q19 0 16 -20l-123 -703q-2 -8 -9 -14t-15 -6h-51q-19 0 -16 20l58 332h-342l-58 -332q-2 -8 -6 -14t-18 -6h-51q-9 0 -13.5 6t-2.5 14l123 703q2 8 6 14t18 6h51q19 0 16 -20l-51 -290h342l51 290q2 8 6 14t18 6h51zM643 802q0 -9 -10 -9h-49q-8 0 -12 3.5
t-9 11.5l-64 97l-101 -97q-8 -8 -12.5 -11.5t-12.5 -3.5h-55q-8 0 -8 6q0 5 6 11l118 124q8 8 12.5 11.5t13.5 3.5h85q9 0 13.5 -3.5t9.5 -11.5l73 -124q2 -3 2 -8z" />
    <glyph glyph-name="hcircumflex" unicode="&#x125;" horiz-adv-x="557" 
d="M556 397q0 -10 -1 -20t-3 -21l-59 -336q-2 -8 -6.5 -14t-17.5 -6h-48q-19 0 -16 20l59 336q4 20 4 40q0 46 -26.5 66t-85.5 20q-30 0 -62 -4t-56 -11l-78 -447q-2 -8 -6 -14t-18 -6h-48q-12 0 -15 6t-1 14l125 713q2 8 6 13.5t16 5.5h51q8 0 12.5 -4t2.5 -15l-33 -190
q26 6 57 10t60 4q48 0 83.5 -12.5t58.5 -34t34 -50.5t11 -63zM598 802q0 -9 -10 -9h-49q-8 0 -12 3.5t-9 11.5l-64 97l-101 -97q-8 -8 -12.5 -11.5t-12.5 -3.5h-55q-8 0 -8 6q0 5 6 11l118 124q8 8 12.5 11.5t13.5 3.5h85q9 0 13.5 -3.5t9.5 -11.5l73 -124q2 -3 2 -8z" />
    <glyph glyph-name="Hbar" unicode="&#x126;" horiz-adv-x="680" 
d="M759 562q-2 -8 -9 -14t-15 -6h-38l-92 -522q-2 -8 -8.5 -14t-14.5 -6h-51q-8 0 -13.5 6t-3.5 14l59 332h-342l-59 -332q-2 -8 -8.5 -14t-14.5 -6h-51q-8 0 -13.5 6t-3.5 14l92 522h-38q-8 0 -13 6t-3 14l7 41q2 8 8.5 14t14.5 6h38l18 100q2 8 9 14t15 6h51q8 0 13 -6
t3 -14l-18 -100h342l18 100q2 8 9 14t15 6h51q8 0 13 -6t3 -14l-18 -100h38q8 0 13.5 -6t3.5 -14zM587 433l19 109h-342l-19 -109h342z" />
    <glyph glyph-name="hbar" unicode="&#x127;" horiz-adv-x="557" 
d="M190 697l7 36q2 8 8 13.5t14 5.5h51q15 0 15 -15v-4l-6 -36h160q8 0 13.5 -4.5t3.5 -15.5l-6 -34q-2 -13 -9 -16.5t-15 -3.5h-160l-14 -80q26 6 57 10t60 4q48 0 83.5 -12.5t58.5 -34t34 -50.5t11 -63q0 -10 -1 -20t-3 -21l-59 -336q-2 -8 -9 -14t-15 -6h-48
q-16 0 -16 16v4l59 336q4 20 4 40q0 46 -26.5 66t-85.5 20q-30 0 -62 -4t-56 -11l-78 -447q-2 -8 -9 -14t-15 -6h-48q-16 0 -16 16v4l105 603h-34q-8 0 -13 4.5t-3 15.5l6 34q2 12 8.5 16t14.5 4h34z" />
    <glyph glyph-name="Itilde" unicode="&#x128;" horiz-adv-x="267" 
d="M292 743q18 0 15 -19l-124 -704q-3 -20 -22 -20h-55q-10 0 -13 6t-1 14l124 704q2 8 6 13.5t15 5.5h55zM470 914l-4 -23q-9 -52 -31.5 -78.5t-70.5 -26.5q-17 0 -38 4.5t-38 21.5l-47 44q-15 14 -21.5 18t-15.5 4q-34 0 -40 -46l-3 -21q-1 -7 -5.5 -12t-11.5 -5h-34
q-13 0 -13 14v3l3 21q8 60 35.5 84.5t68.5 24.5q23 0 38.5 -7t35.5 -24l54 -49q7 -6 16 -10t16 -4q15 0 24 9t14 35l4 23q2 7 6 12t11 5h34q13 0 13 -14v-3z" />
    <glyph glyph-name="itilde" unicode="&#x129;" horiz-adv-x="247" 
d="M260 530l-89 -510q-2 -8 -9 -14t-15 -6h-48q-16 0 -16 16v4l89 510q2 8 9 14t15 6h48q16 0 16 -16v-4zM436 754l-4 -23q-9 -52 -31.5 -78.5t-70.5 -26.5q-17 0 -38 4.5t-38 21.5l-47 44q-15 14 -21.5 18t-15.5 4q-34 0 -40 -46l-3 -21q-1 -7 -5.5 -12t-11.5 -5h-34
q-13 0 -13 14v3l3 21q8 60 35.5 84.5t68.5 24.5q23 0 38.5 -7t35.5 -24l54 -49q7 -6 16 -10t16 -4q15 0 24 9t14 35l4 23q2 7 6 12t11 5h34q13 0 13 -14v-3z" />
    <glyph glyph-name="Imacron" unicode="&#x12a;" horiz-adv-x="267" 
d="M292 743q18 0 15 -19l-124 -704q-3 -20 -22 -20h-55q-10 0 -13 6t-1 14l124 704q2 8 6 13.5t15 5.5h55zM451 870l-6 -34q-2 -8 -8.5 -12.5t-14.5 -4.5h-288q-17 0 -17 14v3l6 34q2 8 8.5 12.5t14.5 4.5h288q17 0 17 -14v-3z" />
    <glyph glyph-name="imacron" unicode="&#x12b;" horiz-adv-x="247" 
d="M260 530l-89 -510q-2 -8 -9 -14t-15 -6h-48q-16 0 -16 16v4l89 510q2 8 9 14t15 6h48q16 0 16 -16v-4zM409 700l-6 -34q-2 -8 -8.5 -12.5t-14.5 -4.5h-288q-17 0 -17 14v3l6 34q2 8 8.5 12.5t14.5 4.5h288q17 0 17 -14v-3z" />
    <glyph glyph-name="Ibreve" unicode="&#x12c;" horiz-adv-x="267" 
d="M292 743q18 0 15 -19l-124 -704q-3 -20 -22 -20h-55q-10 0 -13 6t-1 14l124 704q2 8 6 13.5t15 5.5h55zM457 942q0 -5 -1 -8q-8 -36 -25.5 -62.5t-41.5 -44t-52.5 -26t-57.5 -8.5t-56 8t-47.5 25.5t-33 44t-12.5 63.5q0 7 3 12t11 5h35q8 0 10.5 -4t2.5 -12q0 -80 87 -80
q46 0 74 21t39 59q2 8 5.5 12t11.5 4h39q9 0 9 -9z" />
    <glyph glyph-name="ibreve" unicode="&#x12d;" horiz-adv-x="247" 
d="M260 530l-89 -510q-2 -8 -9 -14t-15 -6h-48q-16 0 -16 16v4l89 510q2 8 9 14t15 6h48q16 0 16 -16v-4zM417 770q0 -5 -1 -8q-8 -36 -25.5 -62.5t-41.5 -44t-52.5 -26t-57.5 -8.5t-56 8t-47.5 25.5t-33 44t-12.5 63.5q0 7 3 12t11 5h35q8 0 10.5 -4t2.5 -12q0 -80 87 -80
q46 0 74 21t39 59q2 8 5.5 12t11.5 4h39q9 0 9 -9z" />
    <glyph glyph-name="Iogonek" unicode="&#x12e;" horiz-adv-x="267" 
d="M183 19q-1 -12 -13 -18l-71 -43q-29 -18 -47.5 -32t-18.5 -37q0 -15 14.5 -23t48.5 -8q24 0 46 5t27 5t4 -8l-7 -39q-1 -8 -13 -11q-2 -1 -24 -5.5t-54 -4.5q-65 0 -90.5 21.5t-25.5 54.5q0 22 7.5 39.5t19 30.5t26 23t29.5 18l50 27l125 710q2 8 7.5 13.5t13.5 5.5h55
q7 0 11 -4.5t4 -10.5v-4z" />
    <glyph glyph-name="iogonek" unicode="&#x12f;" horiz-adv-x="247" 
d="M174 37q-2 -15 -6 -23t-13 -13l-71 -43q-21 -13 -34 -21.5t-20 -16t-9.5 -14.5t-2.5 -17q0 -15 14.5 -23t48.5 -8q24 0 46 5t27 5t4 -8l-7 -39q-1 -8 -13 -11q-2 -1 -24 -5.5t-54 -4.5q-65 0 -90.5 21.5t-25.5 54.5q0 22 7 39t19 30t26.5 23t29.5 19l57 33l89 510
q2 8 9 14t15 6h48q16 0 16 -16v-4zM299 738l-14 -80q-2 -8 -9 -14t-15 -6h-51q-16 0 -16 16v4l14 80q2 8 9 14t15 6h51q16 0 16 -16v-4z" />
    <glyph glyph-name="Idotaccent" unicode="&#x130;" horiz-adv-x="267" 
d="M292 743q18 0 15 -19l-124 -704q-3 -20 -22 -20h-55q-10 0 -13 6t-1 14l124 704q2 8 6 13.5t15 5.5h55zM343 913l-15 -84q-2 -8 -8.5 -14t-14.5 -6h-48q-16 0 -16 17v3l15 84q2 8 8.5 13.5t14.5 5.5h48q16 0 16 -16v-3z" />
    <glyph glyph-name="dotlessi" unicode="&#x131;" horiz-adv-x="247" 
d="M260 530l-89 -510q-2 -8 -9 -14t-15 -6h-48q-16 0 -16 16v4l89 510q2 8 9 14t15 6h48q16 0 16 -16v-4z" />
    <glyph glyph-name="IJ" unicode="&#x132;" horiz-adv-x="524" 
d="M307 724l-124 -704q-2 -8 -8 -14t-14 -6h-55q-14 0 -14 16v4l124 704q2 8 7.5 13.5t13.5 5.5h55q7 0 11 -4.5t4 -10.5v-4zM574 724l-135 -761q-13 -72 -55 -107.5t-125 -35.5q-17 0 -32 3t-19 5q-4 3 -4 8v3l6 37q2 8 8.5 12.5t14.5 4.5h39q40 0 54.5 16.5t21.5 53.5
l135 761q2 8 8 13.5t14 5.5h53q16 0 16 -16v-3z" />
    <glyph glyph-name="ij" unicode="&#x133;" horiz-adv-x="494" 
d="M299 738l-14 -80q-2 -8 -9 -14t-15 -6h-51q-16 0 -16 16v4l14 80q2 8 9 14t15 6h51q16 0 16 -16v-4zM260 530l-89 -510q-2 -8 -9 -14t-15 -6h-48q-16 0 -16 16v4l89 510q2 8 9 14t15 6h48q16 0 16 -16v-4zM546 739l-14 -81q-2 -8 -9 -14t-15 -6h-52q-15 0 -15 16v4l14 81
q2 8 8.5 13.5t14.5 5.5h52q16 0 16 -16v-3zM507 530l-104 -594q-7 -39 -20 -64.5t-32 -41t-43.5 -21.5t-54.5 -6q-15 0 -27 1t-26 3q-15 3 -15 12v4l6 37q3 14 24 14h42q14 0 23.5 2.5t16 9.5t11 19t7.5 31l104 594q2 8 9 14t15 6h48q16 0 16 -16v-4z" />
    <glyph glyph-name="Jcircumflex" unicode="&#x134;" horiz-adv-x="257" 
d="M291 743q8 0 13 -4t3 -15l-135 -761q-13 -72 -55 -107.5t-125 -35.5q-17 0 -30 2.5t-18 4.5q-8 3 -7 12l6 37q2 8 6 12.5t17 4.5h39q40 0 54.5 16.5t21.5 53.5l135 761q2 8 6.5 13.5t15.5 5.5h53zM435 802q0 -9 -10 -9h-49q-8 0 -12 3.5t-9 11.5l-64 97l-101 -97
q-8 -8 -12.5 -11.5t-12.5 -3.5h-55q-8 0 -8 6q0 5 6 11l118 124q8 8 12.5 11.5t13.5 3.5h85q9 0 13.5 -3.5t9.5 -11.5l73 -124q2 -3 2 -8z" />
    <glyph glyph-name="jcircumflex" unicode="&#x135;" horiz-adv-x="247" 
d="M260 530l-104 -594q-7 -39 -20 -64.5t-32 -41t-43.5 -21.5t-54.5 -6q-15 0 -27 1t-26 3q-15 3 -15 12v4l6 37q3 14 24 14h42q14 0 23.5 2.5t16 9.5t11 19t7.5 31l104 594q2 8 9 14t15 6h48q16 0 16 -16v-4zM395 632q0 -9 -10 -9h-49q-8 0 -12 3.5t-9 11.5l-64 97
l-101 -97q-8 -8 -12.5 -11.5t-12.5 -3.5h-55q-8 0 -8 6q0 5 6 11l118 124q8 8 12.5 11.5t13.5 3.5h85q9 0 13.5 -3.5t9.5 -11.5l73 -124q2 -3 2 -8z" />
    <glyph glyph-name="Kcommaaccent" unicode="&#x136;" horiz-adv-x="607" 
d="M691 733q0 -6 -5 -11l-370 -340l239 -366q2 -4 2 -6q0 -10 -11 -10h-72q-14 0 -20 10l-222 346l-59 -336q-2 -8 -5.5 -14t-16.5 -6h-55q-8 0 -12 6t-2 14l124 704q2 8 6 13.5t16 5.5h53q8 0 13 -4t3 -15l-55 -314l336 324q5 5 9.5 7t12.5 2h78q13 0 13 -10zM348 -49
q11 0 9 -11l-2 -8l-74 -109q-6 -10 -11 -14.5t-16 -4.5h-41q-3 0 -6 1.5t-2 6.5q1 2 1 3.5t2 4.5l48 112q7 19 23 19h69z" />
    <glyph glyph-name="kcommaaccent" unicode="&#x137;" horiz-adv-x="496" 
d="M546 540q0 -7 -6 -13l-259 -238l181 -266q3 -5 3 -9q0 -5 -3.5 -9.5t-10.5 -4.5h-58q-8 0 -14.5 3t-12.5 12l-164 246l-42 -241q-2 -8 -6.5 -14t-12.5 -6h-53q-9 0 -13.5 6t-2.5 14l125 712q2 8 9 14t15 6h48q20 0 16 -20l-72 -406l230 215q9 9 22 9h68q13 0 13 -10z
M293 -49q11 0 9 -11l-2 -8l-74 -109q-6 -10 -11 -14.5t-16 -4.5h-41q-3 0 -6 1.5t-2 6.5q1 2 1 3.5t2 4.5l48 112q7 19 23 19h69z" />
    <glyph glyph-name="kgreenlandic" unicode="&#x138;" horiz-adv-x="496" 
d="M546 540q0 -7 -6 -13l-259 -238l181 -266q3 -5 3 -9q0 -5 -3.5 -9.5t-10.5 -4.5h-58q-8 0 -14.5 3t-12.5 12l-164 246l-42 -241q-2 -8 -6.5 -14t-12.5 -6h-53q-16 0 -16 16v4l89 510q2 8 9 14t15 6h48q16 0 16 -16v-4l-36 -204l230 215q9 9 22 9h68q13 0 13 -10z" />
    <glyph glyph-name="Lacute" unicode="&#x139;" horiz-adv-x="514" 
d="M506 60l-7 -44q-1 -7 -3 -9.5t-10 -4.5q-20 -3 -72.5 -6t-123.5 -3q-37 0 -70.5 5.5t-58.5 21.5t-39.5 43.5t-14.5 71.5q0 13 1 26.5t4 29.5l93 532q2 8 6 14t18 6h51q9 0 13.5 -6t2.5 -14l-95 -544q-2 -12 -3.5 -23.5t-1.5 -20.5q0 -34 23 -47t86 -13h188q13 0 13 -12
v-3zM551 944q0 -4 -5 -9l-136 -126q-8 -8 -12.5 -11.5t-12.5 -3.5h-54q-8 0 -8 6q0 5 6 11l120 124q8 8 12.5 11.5t13.5 3.5h66q10 0 10 -6z" />
    <glyph glyph-name="lacute" unicode="&#x13a;" horiz-adv-x="244" 
d="M281 752q18 0 14 -19l-125 -713q-2 -8 -6 -14t-16 -6h-52q-8 0 -12 6t-2 14l125 713q2 8 6.5 13.5t15.5 5.5h52zM422 944q0 -4 -5 -9l-136 -126q-8 -8 -12.5 -11.5t-12.5 -3.5h-54q-8 0 -8 6q0 5 6 11l120 124q8 8 12.5 11.5t13.5 3.5h66q10 0 10 -6z" />
    <glyph glyph-name="Lcommaaccent" unicode="&#x13b;" horiz-adv-x="514" 
d="M506 60l-7 -44q-1 -7 -3 -9.5t-10 -4.5q-20 -3 -72.5 -6t-123.5 -3q-37 0 -70.5 5.5t-58.5 21.5t-39.5 43.5t-14.5 71.5q0 13 1 26.5t4 29.5l93 532q2 8 6 14t18 6h51q9 0 13.5 -6t2.5 -14l-95 -544q-2 -12 -3.5 -23.5t-1.5 -20.5q0 -34 23 -47t86 -13h188q13 0 13 -12
v-3zM315 -49q11 0 9 -11l-2 -8l-74 -109q-6 -10 -11 -14.5t-16 -4.5h-41q-3 0 -6 1.5t-2 6.5q1 2 1 3.5t2 4.5l48 112q7 19 23 19h69z" />
    <glyph glyph-name="lcommaaccent" unicode="&#x13c;" horiz-adv-x="244" 
d="M281 752q18 0 14 -19l-125 -713q-2 -8 -6 -14t-16 -6h-52q-8 0 -12 6t-2 14l125 713q2 8 6.5 13.5t15.5 5.5h52zM147 -49q11 0 9 -11l-2 -8l-74 -109q-6 -10 -11 -14.5t-16 -4.5h-41q-3 0 -6 1.5t-2 6.5q1 2 1 3.5t2 4.5l48 112q7 19 23 19h69z" />
    <glyph glyph-name="Lcaron" unicode="&#x13d;" horiz-adv-x="514" 
d="M506 60l-7 -44q-1 -7 -3 -9.5t-10 -4.5q-20 -3 -72.5 -6t-123.5 -3q-37 0 -70.5 5.5t-58.5 21.5t-39.5 43.5t-14.5 71.5q0 13 1 26.5t4 29.5l93 532q2 8 6 14t18 6h51q9 0 13.5 -6t2.5 -14l-95 -544q-2 -12 -3.5 -23.5t-1.5 -20.5q0 -34 23 -47t86 -13h188q13 0 13 -12
v-3zM529 732q0 -2 -1 -4l-2 -4l-109 -189q-5 -10 -9.5 -14.5t-12.5 -4.5h-41q-12 0 -10 12q1 2 1 3.5t1 3.5l91 189q9 19 23 19h58q13 0 11 -11z" />
    <glyph glyph-name="lcaron" unicode="&#x13e;" horiz-adv-x="340" 
d="M295 733l-125 -713q-2 -8 -8 -14t-14 -6h-52q-14 0 -14 16v4l125 713q3 19 22 19h52q14 0 14 -15v-4zM469 741q0 -2 -2 -8l-75 -189q-4 -10 -7.5 -14.5t-11.5 -4.5h-41q-12 0 -12 12q0 5 1 7l57 189q6 19 20 19h58q13 0 13 -11z" />
    <glyph glyph-name="Ldot" unicode="&#x13f;" horiz-adv-x="514" 
d="M506 60l-7 -44q-1 -7 -3 -9.5t-10 -4.5q-20 -3 -72.5 -6t-123.5 -3q-37 0 -70.5 5.5t-58.5 21.5t-39.5 43.5t-14.5 71.5q0 13 1 26.5t4 29.5l93 532q2 8 6 14t18 6h51q9 0 13.5 -6t2.5 -14l-95 -544q-2 -12 -3.5 -23.5t-1.5 -20.5q0 -34 23 -47t86 -13h188q13 0 13 -12
v-3zM470 408l-15 -84q-2 -8 -8.5 -14t-14.5 -6h-48q-16 0 -16 17v3l15 84q2 8 8.5 13.5t14.5 5.5h48q16 0 16 -16v-3z" />
    <glyph glyph-name="ldot" unicode="&#x140;" horiz-adv-x="388" 
d="M295 733l-125 -713q-2 -8 -8 -14t-14 -6h-52q-14 0 -14 16v4l125 713q3 19 22 19h52q14 0 14 -15v-4zM421 408l-15 -84q-2 -8 -8.5 -14t-14.5 -6h-48q-16 0 -16 17v3l15 84q2 8 8.5 13.5t14.5 5.5h48q16 0 16 -16v-3z" />
    <glyph glyph-name="Lslash" unicode="&#x141;" horiz-adv-x="514" 
d="M507 63q-2 -12 -4 -23.5t-4 -23.5q0 -2 -1.5 -4.5t-3.5 -4.5q-2 -3 -8 -5q-3 -1 -6 -1t-8 -1q-26 -3 -73.5 -5t-108.5 -2q-89 0 -136.5 35t-47.5 107q0 11 1 21.5t3 22.5q5 29 10 58.5t10 58.5q-14 -14 -27.5 -28t-27.5 -28l-19 -19q-3 -3 -7 -5q-2 -1 -5 -1t-4 1
q-2 2 -2 4v1q3 16 5.5 31.5t5.5 31.5q1 5 2.5 10.5t8.5 12.5q22 23 44 44.5t44 44.5q2 7 2.5 13.5t2.5 13.5l26 150l26 150q2 8 9 14t15 6h51q7 0 12 -5q4 -4 4 -12v-3q-10 -54 -19 -108t-19 -108q21 21 41.5 42t41.5 42q3 3 7 5t5 2q4 0 5 -1t1 -5v-1q-3 -17 -5.5 -32.5
t-5.5 -32.5q-1 -6 -3 -11t-9 -12q-24 -24 -47.5 -48t-47.5 -48q-2 -7 -2.5 -13.5t-2.5 -14.5q-9 -51 -18 -100t-17 -100q-2 -12 -3.5 -22.5t-1.5 -19.5q0 -34 23 -48t86 -14h193q9 0 9 -9v-3z" />
    <glyph glyph-name="lslash" unicode="&#x142;" horiz-adv-x="244" 
d="M352 587q-3 -17 -6 -32.5t-6 -32.5q-1 -6 -3.5 -9.5t-5.5 -6.5q-23 -23 -46 -47t-46 -47q-17 -99 -34.5 -196t-34.5 -196q-2 -8 -8 -14t-14 -6h-52q-14 0 -14 16v4q13 72 25 142t25 142l-66 -66l-17 -17q-2 -2 -6 -4q-2 -1 -5 -1q-7 0 -7 7v1q3 15 5.5 30t5.5 30
q1 5 2.5 10.5t8.5 12.5q24 24 48 48.5t48 48.5q2 7 2.5 13.5t2.5 13.5q14 76 27 151t26 151q2 8 8 13.5t14 5.5h52q14 0 14 -15v-4q-10 -56 -19.5 -110.5t-19.5 -110.5q20 20 39 39.5t39 39.5q5 5 10 5q8 0 8 -8v-1z" />
    <glyph glyph-name="Nacute" unicode="&#x143;" horiz-adv-x="680" 
d="M641 724q2 8 6 13.5t15 5.5h53q8 0 11.5 -4.5t3.5 -10.5v-4l-123 -695q-2 -12 -8 -20.5t-26 -8.5h-58q-16 0 -21 4t-8 12l-210 587l-2 3q-2 0 -2 -3l-103 -584q-2 -8 -7.5 -13.5t-13.5 -5.5h-58q-13 0 -10 12l124 703q2 12 9.5 20t24.5 8h49q21 0 27 -4.5t10 -15.5
l208 -579q3 -8 4 -8q2 0 3 8zM631 944q0 -4 -5 -9l-136 -126q-8 -8 -12.5 -11.5t-12.5 -3.5h-54q-8 0 -8 6q0 5 6 11l120 124q8 8 12.5 11.5t13.5 3.5h66q10 0 10 -6z" />
    <glyph glyph-name="nacute" unicode="&#x144;" horiz-adv-x="557" 
d="M556 403q0 -26 -5 -54l-58 -329q-2 -8 -9 -14t-15 -6h-48q-9 0 -13.5 6t-2.5 14l58 329q2 14 3.5 28.5t1.5 26.5q0 36 -19 56t-74 20q-29 0 -61 -7.5t-80 -30.5l-74 -422q-2 -8 -9 -14t-15 -6h-49q-9 0 -13 6.5t-2 13.5l89 510q2 8 7 14t19 6h42q22 0 19 -20l-3 -21
q36 20 73 34t88 14q40 0 68.5 -12t46.5 -33t26.5 -49t8.5 -60zM535 773q0 -4 -5 -9l-136 -126q-8 -8 -12.5 -11.5t-12.5 -3.5h-54q-8 0 -8 6q0 5 6 11l120 124q8 8 12.5 11.5t13.5 3.5h66q10 0 10 -6z" />
    <glyph glyph-name="Ncommaaccent" unicode="&#x145;" horiz-adv-x="680" 
d="M641 724q2 8 6 13.5t15 5.5h53q8 0 11.5 -4.5t3.5 -10.5v-4l-123 -695q-2 -12 -8 -20.5t-26 -8.5h-58q-16 0 -21 4t-8 12l-210 587l-2 3q-2 0 -2 -3l-103 -584q-2 -8 -7.5 -13.5t-13.5 -5.5h-58q-13 0 -10 12l124 703q2 12 9.5 20t24.5 8h49q21 0 27 -4.5t10 -15.5
l208 -579q3 -8 4 -8q2 0 3 8zM385 -49q11 0 9 -11l-2 -8l-74 -109q-6 -10 -11 -14.5t-16 -4.5h-41q-3 0 -6 1.5t-2 6.5q1 2 1 3.5t2 4.5l48 112q7 19 23 19h69z" />
    <glyph glyph-name="ncommaaccent" unicode="&#x146;" horiz-adv-x="557" 
d="M556 403q0 -26 -5 -54l-58 -329q-2 -8 -9 -14t-15 -6h-48q-9 0 -13.5 6t-2.5 14l58 329q2 14 3.5 28.5t1.5 26.5q0 36 -19 56t-74 20q-29 0 -61 -7.5t-80 -30.5l-74 -422q-2 -8 -9 -14t-15 -6h-49q-9 0 -13 6.5t-2 13.5l89 510q2 8 7 14t19 6h42q22 0 19 -20l-3 -21
q36 20 73 34t88 14q40 0 68.5 -12t46.5 -33t26.5 -49t8.5 -60zM312 -49q11 0 9 -11l-2 -8l-74 -109q-6 -10 -11 -14.5t-16 -4.5h-41q-3 0 -6 1.5t-2 6.5q1 2 1 3.5t2 4.5l48 112q7 19 23 19h69z" />
    <glyph glyph-name="Ncaron" unicode="&#x147;" horiz-adv-x="680" 
d="M641 724q2 8 6 13.5t15 5.5h53q8 0 11.5 -4.5t3.5 -10.5v-4l-123 -695q-2 -12 -8 -20.5t-26 -8.5h-58q-16 0 -21 4t-8 12l-210 587l-2 3q-2 0 -2 -3l-103 -584q-2 -8 -7.5 -13.5t-13.5 -5.5h-58q-13 0 -10 12l124 703q2 12 9.5 20t24.5 8h49q21 0 27 -4.5t10 -15.5
l208 -579q3 -8 4 -8q2 0 3 8zM664 944q0 -5 -6 -11l-119 -124q-8 -8 -13 -11.5t-14 -3.5h-85q-9 0 -13 3.5t-9 11.5l-76 124q-2 3 -2 8q0 9 10 9h47q8 0 12 -4t9 -12l66 -96l99 96q8 8 12.5 12t12.5 4h61q8 0 8 -6z" />
    <glyph glyph-name="ncaron" unicode="&#x148;" horiz-adv-x="557" 
d="M556 403q0 -26 -5 -54l-58 -329q-2 -8 -9 -14t-15 -6h-48q-9 0 -13.5 6t-2.5 14l58 329q2 14 3.5 28.5t1.5 26.5q0 36 -19 56t-74 20q-29 0 -61 -7.5t-80 -30.5l-74 -422q-2 -8 -9 -14t-15 -6h-49q-9 0 -13 6.5t-2 13.5l89 510q2 8 7 14t19 6h42q22 0 19 -20l-3 -21
q36 20 73 34t88 14q40 0 68.5 -12t46.5 -33t26.5 -49t8.5 -60zM577 773q0 -5 -6 -11l-119 -124q-8 -8 -13 -11.5t-14 -3.5h-85q-9 0 -13 3.5t-9 11.5l-76 124q-2 3 -2 8q0 9 10 9h47q8 0 12 -4t9 -12l66 -96l99 96q8 8 12.5 12t12.5 4h61q8 0 8 -6z" />
    <glyph glyph-name="napostrophe" unicode="&#x149;" horiz-adv-x="668" 
d="M262 744q0 -5 -3 -11l-94 -189q-5 -11 -9.5 -15t-12.5 -4h-38q-8 0 -8 7q0 4 3 12l70 189q7 19 24 19h59q9 0 9 -8zM667 403q0 -26 -5 -54l-58 -329q-2 -8 -6.5 -14t-17.5 -6h-48q-9 0 -13.5 6t-2.5 14l58 329q2 14 3.5 28.5t1.5 26.5q0 36 -19 56t-74 20q-29 0 -61 -7.5
t-80 -30.5l-74 -422q-2 -8 -6 -14t-18 -6h-49q-9 0 -13 6.5t-2 13.5l89 510q2 8 7 14t16 6h49q11 0 14 -5.5t1 -14.5l-3 -21q36 20 73 34t88 14q40 0 68.5 -12t46.5 -33t26.5 -49t8.5 -60z" />
    <glyph glyph-name="Eng" unicode="&#x14a;" horiz-adv-x="680" 
d="M730 724q-31 -174 -52 -293.5t-35 -199t-22 -125t-13 -72t-7.5 -41t-5.5 -30.5q-13 -72 -55 -107.5t-125 -35.5q-17 0 -32 3t-19 5q-4 3 -4 8v3l6 37q2 8 8.5 12.5t14.5 4.5h39q40 0 54.5 16.5t21.5 53.5l6 37q-19 1 -24 16l-210 587l-2 3q-2 0 -2 -3l-103 -584
q-2 -8 -7.5 -13.5t-13.5 -5.5h-52q-16 0 -16 9v3l124 703q2 12 12 20t22 8h49q21 0 27 -4.5t10 -15.5l210 -584l1 -3h2l1 3l103 585q2 8 7.5 13.5t13.5 5.5h53q8 0 11.5 -4.5t3.5 -10.5v-4z" />
    <glyph glyph-name="eng" unicode="&#x14b;" horiz-adv-x="557" 
d="M463 349q2 14 3.5 28.5t1.5 26.5q0 36 -19 56t-74 20q-29 0 -61 -7.5t-80 -30.5l-74 -422q-2 -8 -9 -14t-15 -6h-49q-8 0 -11.5 5t-3.5 11v4l89 510q2 8 8.5 14t14.5 6h49q8 0 11.5 -5t3.5 -11v-4l-3 -21q36 20 73 34t88 14q40 0 68.5 -12t46.5 -33t26.5 -49t8.5 -60
q0 -26 -5 -54l-73 -413q-7 -39 -20 -64.5t-32 -41t-43.5 -21.5t-54.5 -6q-15 0 -27 1t-26 3q-15 3 -15 12v4l6 37q3 14 24 14h42q14 0 23.5 2.5t16 9.5t11 19t7.5 31z" />
    <glyph glyph-name="Omacron" unicode="&#x14c;" horiz-adv-x="661" 
d="M686 520q0 -20 -2 -40.5t-6 -43.5l-23 -129q-15 -83 -43.5 -142.5t-70 -97.5t-95 -56t-116.5 -18q-48 0 -89 14t-71 42.5t-47 71.5t-17 102q0 20 2 40.5t6 43.5l23 129q16 89 46.5 149t73 97t95 52.5t111.5 15.5q50 0 91 -14.5t70.5 -43.5t45.5 -72t16 -100zM594 519
q0 82 -38 115.5t-107 33.5q-83 0 -140.5 -55.5t-79.5 -176.5l-23 -129q-4 -21 -5.5 -40t-1.5 -36q0 -86 38.5 -121t106.5 -35q82 0 139.5 55.5t79.5 176.5l23 129q5 23 6.5 44t1.5 39zM657 871l-6 -34q-2 -8 -8.5 -12.5t-14.5 -4.5h-288q-17 0 -17 14v3l6 34q2 8 8.5 12.5
t14.5 4.5h288q17 0 17 -14v-3z" />
    <glyph glyph-name="omacron" unicode="&#x14d;" horiz-adv-x="545" 
d="M555 369q0 -14 -1.5 -28t-3.5 -28l-13 -76q-10 -57 -30.5 -102.5t-53 -77t-78 -48t-104.5 -16.5q-45 0 -79.5 14t-57.5 39t-35 59.5t-12 76.5q0 14 1.5 27.5t3.5 27.5l13 76q42 244 265 244q46 0 80.5 -14t58 -39t35 -59.5t11.5 -75.5zM467 370q0 54 -25.5 82t-84.5 28
q-66 0 -108.5 -45t-55.5 -122l-13 -76q-6 -33 -6 -59q0 -54 25.5 -81t84.5 -27q33 0 60.5 12.5t48.5 34.5t35.5 52.5t20.5 67.5l13 76q3 16 4 30t1 27zM568 700l-6 -34q-2 -8 -8.5 -12.5t-14.5 -4.5h-288q-17 0 -17 14v3l6 34q2 8 8.5 12.5t14.5 4.5h288q17 0 17 -14v-3z
" />
    <glyph glyph-name="Obreve" unicode="&#x14e;" horiz-adv-x="661" 
d="M686 520q0 -20 -2 -40.5t-6 -43.5l-23 -129q-15 -83 -43.5 -142.5t-70 -97.5t-95 -56t-116.5 -18q-48 0 -89 14t-71 42.5t-47 71.5t-17 102q0 20 2 40.5t6 43.5l23 129q16 89 46.5 149t73 97t95 52.5t111.5 15.5q50 0 91 -14.5t70.5 -43.5t45.5 -72t16 -100zM594 519
q0 82 -38 115.5t-107 33.5q-83 0 -140.5 -55.5t-79.5 -176.5l-23 -129q-4 -21 -5.5 -40t-1.5 -36q0 -86 38.5 -121t106.5 -35q82 0 139.5 55.5t79.5 176.5l23 129q5 23 6.5 44t1.5 39zM681 942q0 -5 -1 -8q-8 -36 -25.5 -62.5t-41.5 -44t-52.5 -26t-57.5 -8.5t-56 8
t-47.5 25.5t-33 44t-12.5 63.5q0 7 3 12t11 5h35q8 0 10.5 -4t2.5 -12q0 -80 87 -80q46 0 74 21t39 59q2 8 5.5 12t11.5 4h39q9 0 9 -9z" />
    <glyph glyph-name="obreve" unicode="&#x14f;" horiz-adv-x="545" 
d="M555 369q0 -14 -1.5 -28t-3.5 -28l-13 -76q-10 -57 -30.5 -102.5t-53 -77t-78 -48t-104.5 -16.5q-45 0 -79.5 14t-57.5 39t-35 59.5t-12 76.5q0 14 1.5 27.5t3.5 27.5l13 76q42 244 265 244q46 0 80.5 -14t58 -39t35 -59.5t11.5 -75.5zM467 370q0 54 -25.5 82t-84.5 28
q-66 0 -108.5 -45t-55.5 -122l-13 -76q-6 -33 -6 -59q0 -54 25.5 -81t84.5 -27q33 0 60.5 12.5t48.5 34.5t35.5 52.5t20.5 67.5l13 76q3 16 4 30t1 27zM579 770q0 -5 -1 -8q-8 -36 -25.5 -62.5t-41.5 -44t-52.5 -26t-57.5 -8.5t-56 8t-47.5 25.5t-33 44t-12.5 63.5q0 7 3 12
t11 5h35q8 0 10.5 -4t2.5 -12q0 -80 87 -80q46 0 74 21t39 59q2 8 5.5 12t11.5 4h39q9 0 9 -9z" />
    <glyph glyph-name="Ohungarumlaut" unicode="&#x150;" horiz-adv-x="661" 
d="M686 520q0 -20 -2 -40.5t-6 -43.5l-23 -129q-15 -83 -43.5 -142.5t-70 -97.5t-95 -56t-116.5 -18q-48 0 -89 14t-71 42.5t-47 71.5t-17 102q0 20 2 40.5t6 43.5l23 129q16 89 46.5 149t73 97t95 52.5t111.5 15.5q50 0 91 -14.5t70.5 -43.5t45.5 -72t16 -100zM594 519
q0 82 -38 115.5t-107 33.5q-83 0 -140.5 -55.5t-79.5 -176.5l-23 -129q-4 -21 -5.5 -40t-1.5 -36q0 -86 38.5 -121t106.5 -35q82 0 139.5 55.5t79.5 176.5l23 129q5 23 6.5 44t1.5 39zM725 944q0 -4 -5 -9l-135 -126q-8 -8 -12.5 -11.5t-12.5 -3.5h-54q-8 0 -8 6q0 5 6 11
l119 124q8 8 13 11.5t14 3.5h65q10 0 10 -6zM550 944q0 -4 -5 -9l-135 -126q-8 -8 -12.5 -11.5t-12.5 -3.5h-54q-8 0 -8 6q0 5 6 11l119 124q8 8 13 11.5t14 3.5h65q10 0 10 -6z" />
    <glyph glyph-name="ohungarumlaut" unicode="&#x151;" horiz-adv-x="545" 
d="M555 369q0 -14 -1.5 -28t-3.5 -28l-13 -76q-10 -57 -30.5 -102.5t-53 -77t-78 -48t-104.5 -16.5q-45 0 -79.5 14t-57.5 39t-35 59.5t-12 76.5q0 14 1.5 27.5t3.5 27.5l13 76q42 244 265 244q46 0 80.5 -14t58 -39t35 -59.5t11.5 -75.5zM467 370q0 54 -25.5 82t-84.5 28
q-66 0 -108.5 -45t-55.5 -122l-13 -76q-6 -33 -6 -59q0 -54 25.5 -81t84.5 -27q33 0 60.5 12.5t48.5 34.5t35.5 52.5t20.5 67.5l13 76q3 16 4 30t1 27zM637 773q0 -4 -5 -9l-135 -126q-8 -8 -12.5 -11.5t-12.5 -3.5h-54q-8 0 -8 6q0 5 6 11l119 124q8 8 13 11.5t14 3.5h65
q10 0 10 -6zM462 773q0 -4 -5 -9l-135 -126q-8 -8 -12.5 -11.5t-12.5 -3.5h-54q-8 0 -8 6q0 5 6 11l119 124q8 8 13 11.5t14 3.5h65q10 0 10 -6z" />
    <glyph glyph-name="OE" unicode="&#x152;" horiz-adv-x="983" 
d="M1056 727l-8 -47q-2 -12 -13 -12h-193q-40 0 -65 -5.5t-40.5 -18t-23.5 -32.5t-13 -48l-24 -139h307q16 0 16 -17v-3l-6 -38q-2 -8 -9 -14t-15 -6h-307l-30 -169q-2 -12 -3 -22t-1 -19q0 -34 23 -48.5t86 -14.5h193q9 0 9 -9v-3l-8 -47q-1 -5 -4.5 -9t-8.5 -5
q-20 -3 -72.5 -6t-123.5 -3q-72 0 -112.5 19t-60.5 64q-44 -42 -94.5 -62t-124.5 -20q-49 0 -90 14.5t-71 43.5t-46.5 72.5t-16.5 101.5q0 19 2 39t6 43l23 129q16 87 46.5 147t72.5 97t94.5 53.5t112.5 16.5q62 0 106 -20.5t73 -61.5q35 48 85.5 65t127.5 17q71 0 123 -3
t71 -6q7 -1 7 -11v-3zM596 518q0 33 -7.5 60.5t-24.5 47.5t-45 31t-70 11q-41 0 -76.5 -12.5t-63.5 -40.5t-48.5 -72t-31.5 -107l-23 -129q-5 -23 -6.5 -44t-1.5 -39q0 -82 38.5 -115.5t107.5 -33.5q53 0 91 19t64 50.5t41.5 73.5t23.5 88l24 134q8 43 8 78z" />
    <glyph glyph-name="oe" unicode="&#x153;" horiz-adv-x="901" 
d="M910 369q0 -14 -3 -28.5t-5 -29.5l-7 -42q-3 -22 -22 -22h-335q-4 -20 -6.5 -37t-2.5 -33q0 -53 28.5 -81.5t97.5 -28.5q44 0 91 4.5t82 9.5h5q5 0 9.5 -2.5t4.5 -8.5v-3l-6 -34q-2 -11 -6.5 -16t-17.5 -7q-45 -8 -84.5 -12.5t-90.5 -4.5q-65 0 -108 18t-71 66
q-36 -42 -81.5 -63t-108.5 -21q-46 0 -80.5 14t-57.5 39t-34.5 59t-11.5 75q0 13 1.5 28t3.5 29l13 76q21 125 87.5 184.5t177.5 59.5q63 0 98.5 -22t61.5 -64q36 45 84.5 65.5t108.5 20.5q46 0 80.5 -14.5t58 -40t35 -59.5t11.5 -74zM824 374q0 108 -108 108q-38 0 -66 -14
t-47.5 -37t-32 -53.5t-19.5 -63.5h266l1 5q6 30 6 55zM470 364q0 54 -26.5 85t-84.5 31q-71 0 -111 -46t-53 -121l-13 -76q-3 -16 -4 -30t-1 -27q0 -54 25.5 -82t83.5 -28q71 0 111.5 45t54.5 122l13 76q2 14 3.5 26.5t1.5 24.5z" />
    <glyph glyph-name="Racute" unicode="&#x154;" horiz-adv-x="625" 
d="M655 572q0 -18 -3 -37l-1 -7q-13 -88 -64.5 -138t-128.5 -64l130 -307q2 -4 2 -9q0 -10 -11 -10h-69q-9 0 -12.5 1.5t-7.5 11.5l-126 298h-31q-25 0 -58 1t-52 2l-51 -294q-2 -8 -6.5 -14t-15.5 -6h-54q-17 0 -14 20l123 700q2 11 8 15.5t20 6.5q16 2 39 3.5t48 2.5
t48.5 1.5t41.5 0.5q54 0 99 -10.5t77.5 -32t50.5 -55.5t18 -80zM565 568q0 59 -41.5 79.5t-127.5 20.5h-27.5t-31 -0.5t-29.5 -1t-23 -1.5l-48 -274q19 -1 47.5 -1.5t62.5 -0.5q42 0 79 7t65 23.5t46 43t24 65.5l1 7q3 18 3 33zM580 944q0 -4 -5 -9l-136 -126
q-8 -8 -12.5 -11.5t-12.5 -3.5h-54q-8 0 -8 6q0 5 6 11l120 124q8 8 12.5 11.5t13.5 3.5h66q10 0 10 -6z" />
    <glyph glyph-name="racute" unicode="&#x155;" horiz-adv-x="342" 
d="M160 20q-2 -8 -9 -14t-15 -6h-49q-8 0 -12.5 6t-2.5 14l89 510q2 8 8.5 14t14.5 6h47q9 0 13 -6t2 -14l-4 -23q41 32 77 41t71 9h2q13 0 16.5 -5t1.5 -13l-7 -42q-3 -17 -24 -17h-3q-43 0 -74.5 -9t-68.5 -32zM446 773q0 -4 -5 -9l-136 -126q-8 -8 -12.5 -11.5
t-12.5 -3.5h-54q-8 0 -8 6q0 5 6 11l120 124q8 8 12.5 11.5t13.5 3.5h66q10 0 10 -6z" />
    <glyph glyph-name="Rcommaaccent" unicode="&#x156;" horiz-adv-x="625" 
d="M655 572q0 -18 -3 -37l-1 -7q-13 -88 -64.5 -138t-128.5 -64l130 -307q2 -4 2 -9q0 -10 -11 -10h-69q-9 0 -12.5 1.5t-7.5 11.5l-126 298h-31q-25 0 -58 1t-52 2l-51 -294q-2 -8 -6.5 -14t-15.5 -6h-54q-17 0 -14 20l123 700q2 11 8 15.5t20 6.5q16 2 39 3.5t48 2.5
t48.5 1.5t41.5 0.5q54 0 99 -10.5t77.5 -32t50.5 -55.5t18 -80zM565 568q0 59 -41.5 79.5t-127.5 20.5h-27.5t-31 -0.5t-29.5 -1t-23 -1.5l-48 -274q19 -1 47.5 -1.5t62.5 -0.5q42 0 79 7t65 23.5t46 43t24 65.5l1 7q3 18 3 33zM357 -49q11 0 9 -11l-2 -8l-74 -109
q-6 -10 -11 -14.5t-16 -4.5h-41q-3 0 -6 1.5t-2 6.5q1 2 1 3.5t2 4.5l48 112q7 19 23 19h69z" />
    <glyph glyph-name="rcommaaccent" unicode="&#x157;" horiz-adv-x="342" 
d="M160 20q-2 -8 -9 -14t-15 -6h-49q-8 0 -12.5 6t-2.5 14l89 510q2 8 8.5 14t14.5 6h47q9 0 13 -6t2 -14l-4 -23q41 32 77 41t71 9h2q13 0 16.5 -5t1.5 -13l-7 -42q-3 -17 -24 -17h-3q-43 0 -74.5 -9t-68.5 -32zM215 -49q11 0 9 -11l-2 -8l-74 -109q-6 -10 -11 -14.5
t-16 -4.5h-41q-3 0 -6 1.5t-2 6.5q1 2 1 3.5t2 4.5l48 112q7 19 23 19h69z" />
    <glyph glyph-name="Rcaron" unicode="&#x158;" horiz-adv-x="625" 
d="M655 572q0 -18 -3 -37l-1 -7q-13 -88 -64.5 -138t-128.5 -64l130 -307q2 -4 2 -9q0 -10 -11 -10h-69q-9 0 -12.5 1.5t-7.5 11.5l-126 298h-31q-25 0 -58 1t-52 2l-51 -294q-2 -8 -6.5 -14t-15.5 -6h-54q-17 0 -14 20l123 700q2 11 8 15.5t20 6.5q16 2 39 3.5t48 2.5
t48.5 1.5t41.5 0.5q54 0 99 -10.5t77.5 -32t50.5 -55.5t18 -80zM565 568q0 59 -41.5 79.5t-127.5 20.5h-27.5t-31 -0.5t-29.5 -1t-23 -1.5l-48 -274q19 -1 47.5 -1.5t62.5 -0.5q42 0 79 7t65 23.5t46 43t24 65.5l1 7q3 18 3 33zM623 944q0 -5 -6 -11l-119 -124
q-8 -8 -13 -11.5t-14 -3.5h-85q-9 0 -13 3.5t-9 11.5l-76 124q-2 3 -2 8q0 9 10 9h47q8 0 12 -4t9 -12l66 -96l99 96q8 8 12.5 12t12.5 4h61q8 0 8 -6z" />
    <glyph glyph-name="rcaron" unicode="&#x159;" horiz-adv-x="342" 
d="M160 20q-2 -8 -9 -14t-15 -6h-49q-8 0 -12.5 6t-2.5 14l89 510q2 8 8.5 14t14.5 6h47q9 0 13 -6t2 -14l-4 -23q41 32 77 41t71 9h2q13 0 16.5 -5t1.5 -13l-7 -42q-3 -17 -24 -17h-3q-43 0 -74.5 -9t-68.5 -32zM502 773q0 -5 -6 -11l-119 -124q-8 -8 -13 -11.5t-14 -3.5
h-85q-9 0 -13 3.5t-9 11.5l-76 124q-2 3 -2 8q0 9 10 9h47q8 0 12 -4t9 -12l66 -96l99 96q8 8 12.5 12t12.5 4h61q8 0 8 -6z" />
    <glyph glyph-name="Sacute" unicode="&#x15a;" horiz-adv-x="550" 
d="M406 750q22 0 49 -1t53 -2.5t48.5 -4t36.5 -4.5q10 -2 13 -5t1 -12l-7 -43q-2 -9 -5.5 -13.5t-16.5 -2.5q-33 2 -80.5 4t-91.5 2q-30 0 -60 -3.5t-53.5 -14.5t-38 -31t-14.5 -53q0 -18 4.5 -32t15 -27.5t27.5 -27t42 -29.5l82 -55q35 -23 59 -45t39 -44.5t21.5 -47
t6.5 -51.5q0 -53 -21 -93t-58.5 -67t-88.5 -40.5t-111 -13.5q-21 0 -44 1t-45.5 3t-43.5 4.5t-37 5.5q-9 2 -13.5 5.5t-2.5 12.5l7 40q2 11 6 14.5t17 1.5q17 -2 38 -3t43.5 -1.5t44 -1t38.5 -0.5q81 0 128 30.5t47 101.5q0 18 -5 32t-16.5 27.5t-30 28t-44.5 32.5l-87 59
q-51 35 -80 78t-29 97q0 52 21 88t56.5 58.5t82 32.5t97.5 10zM572 944q0 -4 -5 -9l-136 -126q-8 -8 -12.5 -11.5t-12.5 -3.5h-54q-8 0 -8 6q0 5 6 11l120 124q8 8 12.5 11.5t13.5 3.5h66q10 0 10 -6z" />
    <glyph glyph-name="sacute" unicode="&#x15b;" horiz-adv-x="466" 
d="M329 557q29 0 49.5 -1t37 -2.5t30.5 -4t30 -5.5q11 -2 14 -5.5t1 -14.5l-5 -33q-3 -20 -23 -17q-26 3 -65.5 5.5t-81.5 2.5q-17 0 -35.5 -3t-34 -11t-25.5 -21.5t-10 -35.5q0 -19 14 -34t40 -32l89 -59q26 -17 43 -33t27.5 -31.5t14.5 -32.5t4 -37q0 -44 -18 -74.5
t-48 -49.5t-69 -27t-80 -8q-16 0 -36 1t-41 2.5t-42 4.5t-37 7q-8 2 -13.5 7t-3.5 13l6 35q2 10 7 13.5t18 1.5q18 -2 39 -4t42.5 -3.5t40.5 -2.5t33 -1q22 0 42.5 4.5t36 14t25 26t9.5 40.5q0 17 -12 32.5t-46 38.5l-90 59q-42 27 -63 58t-21 72q0 42 18.5 69.5t47.5 44.5
t66 24t75 7zM481 773q0 -4 -5 -9l-136 -126q-8 -8 -12.5 -11.5t-12.5 -3.5h-54q-8 0 -8 6q0 5 6 11l120 124q8 8 12.5 11.5t13.5 3.5h66q10 0 10 -6z" />
    <glyph glyph-name="Scircumflex" unicode="&#x15c;" horiz-adv-x="550" 
d="M406 750q22 0 49 -1t53 -2.5t48.5 -4t36.5 -4.5q10 -2 13 -5t1 -12l-7 -43q-2 -9 -5.5 -13.5t-16.5 -2.5q-33 2 -80.5 4t-91.5 2q-30 0 -60 -3.5t-53.5 -14.5t-38 -31t-14.5 -53q0 -18 4.5 -32t15 -27.5t27.5 -27t42 -29.5l82 -55q35 -23 59 -45t39 -44.5t21.5 -47
t6.5 -51.5q0 -53 -21 -93t-58.5 -67t-88.5 -40.5t-111 -13.5q-21 0 -44 1t-45.5 3t-43.5 4.5t-37 5.5q-9 2 -13.5 5.5t-2.5 12.5l7 40q2 11 6 14.5t17 1.5q17 -2 38 -3t43.5 -1.5t44 -1t38.5 -0.5q81 0 128 30.5t47 101.5q0 18 -5 32t-16.5 27.5t-30 28t-44.5 32.5l-87 59
q-51 35 -80 78t-29 97q0 52 21 88t56.5 58.5t82 32.5t97.5 10zM571 801q0 -9 -10 -9h-49q-8 0 -12 3.5t-9 11.5l-64 97l-101 -97q-8 -8 -12.5 -11.5t-12.5 -3.5h-55q-8 0 -8 6q0 5 6 11l118 124q8 8 12.5 11.5t13.5 3.5h85q9 0 13.5 -3.5t9.5 -11.5l73 -124q2 -3 2 -8z" />
    <glyph glyph-name="scircumflex" unicode="&#x15d;" horiz-adv-x="466" 
d="M329 557q29 0 49.5 -1t37 -2.5t30.5 -4t30 -5.5q11 -2 14 -5.5t1 -14.5l-5 -33q-3 -20 -23 -17q-26 3 -65.5 5.5t-81.5 2.5q-17 0 -35.5 -3t-34 -11t-25.5 -21.5t-10 -35.5q0 -19 14 -34t40 -32l89 -59q26 -17 43 -33t27.5 -31.5t14.5 -32.5t4 -37q0 -44 -18 -74.5
t-48 -49.5t-69 -27t-80 -8q-16 0 -36 1t-41 2.5t-42 4.5t-37 7q-8 2 -13.5 7t-3.5 13l6 35q2 10 7 13.5t18 1.5q18 -2 39 -4t42.5 -3.5t40.5 -2.5t33 -1q22 0 42.5 4.5t36 14t25 26t9.5 40.5q0 17 -12 32.5t-46 38.5l-90 59q-42 27 -63 58t-21 72q0 42 18.5 69.5t47.5 44.5
t66 24t75 7zM493 632q0 -9 -10 -9h-49q-8 0 -12 3.5t-9 11.5l-64 97l-101 -97q-8 -8 -12.5 -11.5t-12.5 -3.5h-55q-8 0 -8 6q0 5 6 11l118 124q8 8 12.5 11.5t13.5 3.5h85q9 0 13.5 -3.5t9.5 -11.5l73 -124q2 -3 2 -8z" />
    <glyph glyph-name="uni015E" unicode="&#x15e;" horiz-adv-x="550" 
d="M406 750q22 0 49 -1t53 -2.5t48.5 -4t36.5 -4.5q10 -2 13 -5t1 -12l-7 -43q-2 -9 -5.5 -13.5t-16.5 -2.5q-33 2 -80.5 4t-91.5 2q-30 0 -60 -3.5t-53.5 -14.5t-38 -31t-14.5 -53q0 -18 4.5 -32t15 -27.5t27.5 -27t42 -29.5l82 -55q35 -23 59 -45t39 -44.5t21.5 -47
t6.5 -51.5q0 -53 -21 -93t-58.5 -67t-88.5 -40.5t-111 -13.5q-21 0 -44 1t-45.5 3t-43.5 4.5t-37 5.5q-9 2 -13.5 5.5t-2.5 12.5l7 40q2 11 6 14.5t17 1.5q17 -2 38 -3t43.5 -1.5t44 -1t38.5 -0.5q81 0 128 30.5t47 101.5q0 18 -5 32t-16.5 27.5t-30 28t-44.5 32.5l-87 59
q-51 35 -80 78t-29 97q0 52 21 88t56.5 58.5t82 32.5t97.5 10zM325 -38q0 -4 -5 -9l-136 -126q-8 -8 -12.5 -11.5t-12.5 -3.5h-54q-8 0 -8 6q0 5 6 11l119 124q8 8 13 11.5t14 3.5h66q10 0 10 -6z" />
    <glyph glyph-name="uni015F" unicode="&#x15f;" horiz-adv-x="466" 
d="M329 557q29 0 49.5 -1t37 -2.5t30.5 -4t30 -5.5q11 -2 14 -5.5t1 -14.5l-5 -33q-3 -20 -23 -17q-26 3 -65.5 5.5t-81.5 2.5q-17 0 -35.5 -3t-34 -11t-25.5 -21.5t-10 -35.5q0 -19 14 -34t40 -32l89 -59q26 -17 43 -33t27.5 -31.5t14.5 -32.5t4 -37q0 -44 -18 -74.5
t-48 -49.5t-69 -27t-80 -8q-16 0 -36 1t-41 2.5t-42 4.5t-37 7q-8 2 -13.5 7t-3.5 13l6 35q2 10 7 13.5t18 1.5q18 -2 39 -4t42.5 -3.5t40.5 -2.5t33 -1q22 0 42.5 4.5t36 14t25 26t9.5 40.5q0 17 -12 32.5t-46 38.5l-90 59q-42 27 -63 58t-21 72q0 42 18.5 69.5t47.5 44.5
t66 24t75 7zM269 -38q0 -4 -5 -9l-136 -126q-8 -8 -12.5 -11.5t-12.5 -3.5h-54q-8 0 -8 6q0 5 6 11l119 124q8 8 13 11.5t14 3.5h66q10 0 10 -6z" />
    <glyph glyph-name="Scaron" unicode="&#x160;" horiz-adv-x="550" 
d="M607 721l-7 -43q-3 -16 -20 -16h-2q-33 2 -80.5 4t-91.5 2q-30 0 -60 -4t-53.5 -16t-38 -34.5t-14.5 -59.5q0 -27 19.5 -49t69.5 -55l82 -55q70 -47 98 -89t28 -92q0 -56 -21 -97t-58.5 -69t-88.5 -41.5t-111 -13.5q-21 0 -44 1t-45.5 3t-43.5 4.5t-37 5.5q-8 2 -12.5 4
t-4.5 9q0 1 0.5 2t0.5 3l7 40q3 16 20 16h3q17 -2 38 -3t43.5 -1.5t44 -1t38.5 -0.5q40 0 72.5 7.5t55.5 24t35 43t12 64.5q0 15 -5 28t-16.5 26t-30 27t-44.5 32l-87 59q-51 35 -80 76.5t-29 86.5q0 57 22 95.5t58 62t82.5 33.5t94.5 10q22 0 49 -1t53 -2.5t48.5 -4
t36.5 -4.5t14 -14v-3zM622 944q0 -5 -6 -11l-119 -124q-8 -8 -13 -11.5t-14 -3.5h-85q-9 0 -13 3.5t-9 11.5l-76 124q-2 3 -2 8q0 9 10 9h47q8 0 12 -4t9 -12l66 -96l99 96q8 8 12.5 12t12.5 4h61q8 0 8 -6z" />
    <glyph glyph-name="scaron" unicode="&#x161;" horiz-adv-x="466" 
d="M491 524l-5 -33q-3 -17 -20 -17h-3q-26 3 -65.5 5.5t-81.5 2.5q-17 0 -35.5 -3t-34 -11t-25.5 -21.5t-10 -35.5q0 -19 14 -34t40 -32l89 -59q26 -17 43 -32.5t27.5 -30.5t14.5 -30.5t4 -31.5q0 -48 -18 -80t-48 -51.5t-69 -28t-80 -8.5q-16 0 -36 1t-41 2.5t-42 4.5
t-37 7q-7 2 -12 5.5t-5 11.5v3l6 35q3 15 19 15h6q18 -2 39 -4t42.5 -3.5t40.5 -2.5t33 -1q22 0 42.5 4.5t36 14t25 26t9.5 40.5q0 17 -12 32.5t-46 38.5l-90 59q-84 55 -84 121q0 45 18.5 74.5t47.5 47.5t66 25t75 7q29 0 49.5 -1t37 -2.5t30.5 -4t30 -5.5q15 -3 15 -16v-4
zM532 773q0 -5 -6 -11l-119 -124q-8 -8 -13 -11.5t-14 -3.5h-85q-9 0 -13 3.5t-9 11.5l-76 124q-2 3 -2 8q0 9 10 9h47q8 0 12 -4t9 -12l66 -96l99 96q8 8 12.5 12t12.5 4h61q8 0 8 -6z" />
    <glyph glyph-name="Tcommaaccent" unicode="&#x162;" horiz-adv-x="590" 
d="M345 20q-2 -8 -8 -14t-14 -6h-55q-8 0 -12 6t-2 14l113 645h-195q-8 0 -13.5 3t-3.5 13l8 44q2 11 8.5 14.5t14.5 3.5h481q8 0 13 -3.5t3 -14.5l-8 -44q-2 -8 -6 -12t-16 -4h-195zM325 -49q11 0 9 -11l-2 -8l-74 -109q-6 -10 -11 -14.5t-16 -4.5h-41q-3 0 -6 1.5t-2 6.5
q1 2 1 3.5t2 4.5l48 112q7 19 23 19h69z" />
    <glyph glyph-name="tcommaaccent" unicode="&#x163;" horiz-adv-x="375" 
d="M424 550q19 0 16 -20l-6 -34q-2 -14 -8.5 -17t-14.5 -3h-108l-62 -351q-3 -18 -3 -29q0 -22 11 -27t35 -5h61q17 0 14 -14l-6 -35q-2 -7 -6 -11t-15 -6q-15 -2 -32 -3.5t-31 -1.5q-51 0 -85.5 21.5t-34.5 73.5q0 10 1 18.5t3 20.5l62 349l-95 11q-8 1 -13 5.5t-3 12.5
l5 27q2 11 8 14.5t14 3.5h97l16 98q3 17 22 20l53 8q11 2 14 -3.5t1 -13.5l-18 -109h108zM232 -49q11 0 9 -11l-2 -8l-74 -109q-6 -10 -11 -14.5t-16 -4.5h-41q-3 0 -6 1.5t-2 6.5q1 2 1 3.5t2 4.5l48 112q7 19 23 19h69z" />
    <glyph glyph-name="Tcaron" unicode="&#x164;" horiz-adv-x="590" 
d="M345 20q-2 -8 -8 -14t-14 -6h-55q-8 0 -12 6t-2 14l113 645h-195q-8 0 -13.5 3t-3.5 13l8 44q2 11 8.5 14.5t14.5 3.5h481q8 0 13 -3.5t3 -14.5l-8 -44q-2 -8 -6 -12t-16 -4h-195zM628 944q0 -5 -6 -11l-119 -124q-8 -8 -13 -11.5t-14 -3.5h-85q-9 0 -13 3.5t-9 11.5
l-76 124q-2 3 -2 8q0 9 10 9h47q8 0 12 -4t9 -12l66 -96l99 96q8 8 12.5 12t12.5 4h61q8 0 8 -6z" />
    <glyph glyph-name="tcaron" unicode="&#x165;" horiz-adv-x="507" 
d="M440 530l-6 -34q-2 -8 -8.5 -14t-14.5 -6h-108l-62 -351q-3 -18 -3 -29q0 -22 11 -27t35 -5h61q6 0 10 -1.5t4 -8.5v-4l-6 -35q-2 -7 -6 -11t-15 -6q-15 -2 -32 -3.5t-31 -1.5q-51 0 -85.5 21.5t-34.5 73.5q0 10 1 18.5t3 20.5l62 349l-95 11q-16 2 -16 15v3l5 27
q2 8 8 13t14 5h97l16 98q3 17 22 20l53 8h3q12 0 12 -14v-3l-18 -109h108q16 0 16 -16v-4zM636 741q0 -2 -2 -8l-75 -189q-4 -10 -7.5 -14.5t-11.5 -4.5h-41q-12 0 -12 12q0 5 1 7l57 189q6 19 20 19h58q13 0 13 -11z" />
    <glyph glyph-name="Tbar" unicode="&#x166;" horiz-adv-x="590" 
d="M424 471l-79 -451q-2 -8 -8 -14t-14 -6h-55q-14 0 -14 16v4l79 451h-196q-17 0 -17 13v3l8 44q2 8 8.5 13t14.5 5h195l21 116h-195q-17 0 -17 13v3l8 44q2 8 8.5 13t14.5 5h481q16 0 16 -15v-3l-8 -44q-3 -16 -22 -16h-195l-21 -116h195q16 0 16 -15v-3l-8 -44
q-3 -16 -22 -16h-194z" />
    <glyph glyph-name="tbar" unicode="&#x167;" horiz-adv-x="375" 
d="M440 530l-6 -34q-2 -8 -8.5 -14t-14.5 -6h-108l-19 -104h109q16 0 16 -16v-4l-6 -34q-2 -8 -8.5 -14t-14.5 -6h-109l-30 -173q-3 -18 -3 -29q0 -22 11 -27t35 -5h61q6 0 10 -1.5t4 -8.5v-4l-6 -35q-2 -7 -6 -11t-15 -6q-15 -2 -32 -3.5t-31 -1.5q-51 0 -85.5 21.5
t-34.5 73.5q0 10 1 18.5t3 20.5l30 171l-94 11q-16 2 -16 15v3l5 27q2 8 8 13t14 5h96l19 104l-95 11q-16 2 -16 15v3l5 27q2 8 8 13t14 5h97l16 98q3 17 22 20l53 8h3q12 0 12 -14v-3l-18 -109h108q16 0 16 -16v-4z" />
    <glyph glyph-name="Utilde" unicode="&#x168;" horiz-adv-x="662" 
d="M699 743q8 0 13 -4t3 -15l-80 -454q-26 -148 -101.5 -212.5t-203.5 -64.5q-99 0 -156.5 51t-57.5 153q0 17 1.5 35t5.5 38l80 454q2 8 6.5 13.5t15.5 5.5h54q8 0 13 -4t3 -15l-80 -454q-4 -20 -6 -37.5t-2 -34.5q0 -63 31.5 -95t105.5 -32q46 0 80 13t57.5 38t38 62.5
t23.5 85.5l80 454q2 8 6 13.5t16 5.5h54zM672 908l-4 -23q-9 -52 -31.5 -78.5t-70.5 -26.5q-17 0 -38 4.5t-38 21.5l-47 44q-15 14 -21.5 18t-15.5 4q-34 0 -40 -46l-3 -21q-1 -7 -5.5 -12t-11.5 -5h-34q-13 0 -13 14v3l3 21q8 60 35.5 84.5t68.5 24.5q23 0 38.5 -7
t35.5 -24l54 -49q7 -6 16 -10t16 -4q15 0 24 9t14 35l4 23q2 7 6 12t11 5h34q13 0 13 -14v-3z" />
    <glyph glyph-name="utilde" unicode="&#x169;" horiz-adv-x="557" 
d="M567 550q11 0 14 -6.5t1 -13.5l-89 -510q-2 -8 -8.5 -14t-14.5 -6h-47q-9 0 -13 6t-2 14l3 18q-45 -23 -83 -34t-83 -11q-65 0 -105.5 39.5t-40.5 118.5q0 28 6 61l56 318q2 11 9 15.5t15 4.5h48q19 0 16 -20l-58 -329q-6 -33 -6 -57q0 -42 21.5 -58t71.5 -16q32 0 68 10
t74 27l74 423q2 8 6.5 14t17.5 6h49zM583 742l-4 -23q-9 -52 -31.5 -78.5t-70.5 -26.5q-17 0 -38 4.5t-38 21.5l-47 44q-15 14 -21.5 18t-15.5 4q-34 0 -40 -46l-3 -21q-1 -7 -5.5 -12t-11.5 -5h-34q-13 0 -13 14v3l3 21q8 60 35.5 84.5t68.5 24.5q23 0 38.5 -7t35.5 -24
l54 -49q7 -6 16 -10t16 -4q15 0 24 9t14 35l4 23q2 7 6 12t11 5h34q13 0 13 -14v-3z" />
    <glyph glyph-name="Umacron" unicode="&#x16a;" horiz-adv-x="662" 
d="M699 743q8 0 13 -4t3 -15l-80 -454q-26 -148 -101.5 -212.5t-203.5 -64.5q-99 0 -156.5 51t-57.5 153q0 17 1.5 35t5.5 38l80 454q2 8 6.5 13.5t15.5 5.5h54q8 0 13 -4t3 -15l-80 -454q-4 -20 -6 -37.5t-2 -34.5q0 -63 31.5 -95t105.5 -32q46 0 80 13t57.5 38t38 62.5
t23.5 85.5l80 454q2 8 6 13.5t16 5.5h54zM652 871l-6 -34q-2 -8 -8.5 -12.5t-14.5 -4.5h-288q-17 0 -17 14v3l6 34q2 8 8.5 12.5t14.5 4.5h288q17 0 17 -14v-3z" />
    <glyph glyph-name="umacron" unicode="&#x16b;" horiz-adv-x="557" 
d="M567 550q11 0 14 -6.5t1 -13.5l-89 -510q-2 -8 -8.5 -14t-14.5 -6h-47q-9 0 -13 6t-2 14l3 18q-45 -23 -83 -34t-83 -11q-65 0 -105.5 39.5t-40.5 118.5q0 28 6 61l56 318q2 11 9 15.5t15 4.5h48q19 0 16 -20l-58 -329q-6 -33 -6 -57q0 -42 21.5 -58t71.5 -16q32 0 68 10
t74 27l74 423q2 8 6.5 14t17.5 6h49zM566 700l-6 -34q-2 -8 -8.5 -12.5t-14.5 -4.5h-288q-17 0 -17 14v3l6 34q2 8 8.5 12.5t14.5 4.5h288q17 0 17 -14v-3z" />
    <glyph glyph-name="Ubreve" unicode="&#x16c;" horiz-adv-x="662" 
d="M699 743q8 0 13 -4t3 -15l-80 -454q-26 -148 -101.5 -212.5t-203.5 -64.5q-99 0 -156.5 51t-57.5 153q0 17 1.5 35t5.5 38l80 454q2 8 6.5 13.5t15.5 5.5h54q8 0 13 -4t3 -15l-80 -454q-4 -20 -6 -37.5t-2 -34.5q0 -63 31.5 -95t105.5 -32q46 0 80 13t57.5 38t38 62.5
t23.5 85.5l80 454q2 8 6 13.5t16 5.5h54zM656 939q0 -5 -1 -8q-8 -36 -25.5 -62.5t-41.5 -44t-52.5 -26t-57.5 -8.5t-56 8t-47.5 25.5t-33 44t-12.5 63.5q0 7 3 12t11 5h35q8 0 10.5 -4t2.5 -12q0 -80 87 -80q46 0 74 21t39 59q2 8 5.5 12t11.5 4h39q9 0 9 -9z" />
    <glyph glyph-name="ubreve" unicode="&#x16d;" horiz-adv-x="557" 
d="M567 550q11 0 14 -6.5t1 -13.5l-89 -510q-2 -8 -8.5 -14t-14.5 -6h-47q-9 0 -13 6t-2 14l3 18q-45 -23 -83 -34t-83 -11q-65 0 -105.5 39.5t-40.5 118.5q0 28 6 61l56 318q2 11 9 15.5t15 4.5h48q19 0 16 -20l-58 -329q-6 -33 -6 -57q0 -42 21.5 -58t71.5 -16q32 0 68 10
t74 27l74 423q2 8 6.5 14t17.5 6h49zM573 770q0 -5 -1 -8q-8 -36 -25.5 -62.5t-41.5 -44t-52.5 -26t-57.5 -8.5t-56 8t-47.5 25.5t-33 44t-12.5 63.5q0 7 3 12t11 5h35q8 0 10.5 -4t2.5 -12q0 -80 87 -80q46 0 74 21t39 59q2 8 5.5 12t11.5 4h39q9 0 9 -9z" />
    <glyph glyph-name="Uring" unicode="&#x16e;" horiz-adv-x="662" 
d="M699 743q8 0 13 -4t3 -15l-80 -454q-26 -148 -101.5 -212.5t-203.5 -64.5q-99 0 -156.5 51t-57.5 153q0 17 1.5 35t5.5 38l80 454q2 8 6.5 13.5t15.5 5.5h54q8 0 13 -4t3 -15l-80 -454q-4 -20 -6 -37.5t-2 -34.5q0 -63 31.5 -95t105.5 -32q46 0 80 13t57.5 38t38 62.5
t23.5 85.5l80 454q2 8 6 13.5t16 5.5h54zM569 874q0 -21 -8 -39.5t-21.5 -32t-32 -21.5t-39.5 -8t-39.5 8t-32.5 21.5t-22 32t-8 39.5t8 39.5t22 32.5t32.5 22t39.5 8t39.5 -8t32 -22t21.5 -32.5t8 -39.5zM521 875q0 22 -15.5 37t-37.5 15t-37 -15t-15 -37t15 -37.5
t37 -15.5t37.5 15.5t15.5 37.5z" />
    <glyph glyph-name="uring" unicode="&#x16f;" horiz-adv-x="557" 
d="M567 550q11 0 14 -6.5t1 -13.5l-89 -510q-2 -8 -8.5 -14t-14.5 -6h-47q-9 0 -13 6t-2 14l3 18q-45 -23 -83 -34t-83 -11q-65 0 -105.5 39.5t-40.5 118.5q0 28 6 61l56 318q2 11 9 15.5t15 4.5h48q19 0 16 -20l-58 -329q-6 -33 -6 -57q0 -42 21.5 -58t71.5 -16q32 0 68 10
t74 27l74 423q2 8 6.5 14t17.5 6h49zM486 703q0 -21 -8 -39.5t-21.5 -32t-32 -21.5t-39.5 -8t-39.5 8t-32.5 21.5t-22 32t-8 39.5t8 39.5t22 32.5t32.5 22t39.5 8t39.5 -8t32 -22t21.5 -32.5t8 -39.5zM438 704q0 22 -15.5 37t-37.5 15t-37 -15t-15 -37t15 -37.5t37 -15.5
t37.5 15.5t15.5 37.5z" />
    <glyph glyph-name="Uhungarumlaut" unicode="&#x170;" horiz-adv-x="662" 
d="M699 743q8 0 13 -4t3 -15l-80 -454q-26 -148 -101.5 -212.5t-203.5 -64.5q-99 0 -156.5 51t-57.5 153q0 17 1.5 35t5.5 38l80 454q2 8 6.5 13.5t15.5 5.5h54q8 0 13 -4t3 -15l-80 -454q-4 -20 -6 -37.5t-2 -34.5q0 -63 31.5 -95t105.5 -32q46 0 80 13t57.5 38t38 62.5
t23.5 85.5l80 454q2 8 6 13.5t16 5.5h54zM727 944q0 -4 -5 -9l-135 -126q-8 -8 -12.5 -11.5t-12.5 -3.5h-54q-8 0 -8 6q0 5 6 11l119 124q8 8 13 11.5t14 3.5h65q10 0 10 -6zM552 944q0 -4 -5 -9l-135 -126q-8 -8 -12.5 -11.5t-12.5 -3.5h-54q-8 0 -8 6q0 5 6 11l119 124
q8 8 13 11.5t14 3.5h65q10 0 10 -6z" />
    <glyph glyph-name="uhungarumlaut" unicode="&#x171;" horiz-adv-x="557" 
d="M567 550q11 0 14 -6.5t1 -13.5l-89 -510q-2 -8 -8.5 -14t-14.5 -6h-47q-9 0 -13 6t-2 14l3 18q-45 -23 -83 -34t-83 -11q-65 0 -105.5 39.5t-40.5 118.5q0 28 6 61l56 318q2 11 9 15.5t15 4.5h48q19 0 16 -20l-58 -329q-6 -33 -6 -57q0 -42 21.5 -58t71.5 -16q32 0 68 10
t74 27l74 423q2 8 6.5 14t17.5 6h49zM644 773q0 -4 -5 -9l-135 -126q-8 -8 -12.5 -11.5t-12.5 -3.5h-54q-8 0 -8 6q0 5 6 11l119 124q8 8 13 11.5t14 3.5h65q10 0 10 -6zM469 773q0 -4 -5 -9l-135 -126q-8 -8 -12.5 -11.5t-12.5 -3.5h-54q-8 0 -8 6q0 5 6 11l119 124
q8 8 13 11.5t14 3.5h65q10 0 10 -6z" />
    <glyph glyph-name="Uogonek" unicode="&#x172;" horiz-adv-x="662" 
d="M635 270q-10 -54 -23 -92.5t-31.5 -66.5t-42.5 -48.5t-55 -39.5l-108 -65q-29 -17 -47 -30.5t-18 -38.5q0 -15 14 -23t48 -8q24 0 46 5t27 5t4 -8l-7 -39q-1 -8 -13 -11q-2 -1 -24 -5.5t-54 -4.5q-65 0 -90.5 21.5t-25.5 54.5q0 22 7.5 39.5t19.5 31t26.5 23t28.5 17.5
l11 6q-99 1 -155.5 51t-56.5 153q0 17 1.5 35t5.5 38l80 454q2 8 8 13.5t14 5.5h54q16 0 16 -16v-3l-80 -454q-4 -20 -6 -37.5t-2 -34.5q0 -63 31.5 -95t105.5 -32q46 0 80 13t57.5 38t38 62.5t23.5 85.5l80 454q2 8 8 13.5t14 5.5h54q16 0 16 -16z" />
    <glyph glyph-name="uogonek" unicode="&#x173;" horiz-adv-x="557" 
d="M411 38q-45 -23 -83 -34t-83 -11q-65 0 -105.5 39.5t-40.5 118.5q0 28 6 61l56 318q2 8 9 14t15 6h48q16 0 16 -16v-4l-58 -329q-6 -33 -6 -57q0 -42 21.5 -58t71.5 -16q32 0 68 10t74 27l74 423q2 8 9 14t15 6h49q8 0 11.5 -5t3.5 -11v-4l-86 -493q-4 -21 -10 -28
t-19 -15l-60 -36q-21 -12 -33.5 -21t-20 -16.5t-10 -15t-2.5 -16.5q0 -17 14.5 -24t48.5 -7q24 0 46 5t27 5t4 -8l-7 -39q-1 -8 -13 -11q-2 -1 -24 -5.5t-54 -4.5q-65 0 -90.5 21.5t-25.5 54.5q0 45 24.5 69t57.5 42l59 32z" />
    <glyph glyph-name="Wcircumflex" unicode="&#x174;" horiz-adv-x="825" 
d="M905 743q8 0 12.5 -4.5t0.5 -15.5l-230 -676q-11 -31 -29 -41t-42 -10h-43q-21 0 -33.5 13.5t-14.5 36.5l-33 370q-2 9 -5 9q-2 0 -4 -1t-5 -8l-164 -370q-10 -23 -27.5 -36.5t-38.5 -13.5h-42q-24 0 -38.5 9.5t-14.5 40.5v1l8 676q0 20 21 20h57q14 0 14 -17l-15 -637
q0 -15 3 -15q2 0 9 15l163 370q9 20 21.5 30t32.5 10h64q37 0 40 -40l33 -370q1 -7 1 -11t3 -4t4.5 3.5t3.5 11.5l209 637q6 17 20 17h59zM704 802q0 -9 -10 -9h-49q-8 0 -12 3.5t-9 11.5l-64 97l-101 -97q-8 -8 -12.5 -11.5t-12.5 -3.5h-55q-8 0 -8 6q0 5 6 11l118 124
q8 8 12.5 11.5t13.5 3.5h85q9 0 13.5 -3.5t9.5 -11.5l73 -124q2 -3 2 -8z" />
    <glyph glyph-name="wcircumflex" unicode="&#x175;" horiz-adv-x="786" 
d="M826 550q9 0 14.5 -5t0.5 -19l-179 -464q-14 -38 -38.5 -53.5t-57.5 -15.5q-29 0 -47 19t-21 56l-29 337q-1 7 -4 7t-6 -7l-147 -337q-17 -37 -37.5 -56t-56.5 -19q-33 0 -51.5 15.5t-20.5 53.5l-15 465q0 8 7 15.5t16 7.5h52q7 0 10.5 -5t3.5 -11l3 -453q0 -9 2 -10.5
t4 -1.5q5 0 10 12l165 381q8 17 19 23.5t27 6.5h56q16 0 24 -6.5t10 -23.5l31 -381q1 -12 6 -12q2 0 4.5 1.5t5.5 10.5l163 453q2 6 7 11t13 5h56zM656 632q0 -9 -10 -9h-49q-8 0 -12 3.5t-9 11.5l-64 97l-101 -97q-8 -8 -12.5 -11.5t-12.5 -3.5h-55q-8 0 -8 6q0 5 6 11
l118 124q8 8 12.5 11.5t13.5 3.5h85q9 0 13.5 -3.5t9.5 -11.5l73 -124q2 -3 2 -8z" />
    <glyph glyph-name="Ycircumflex" unicode="&#x176;" horiz-adv-x="583" 
d="M677 731q0 -5 -5 -13l-217 -348q-19 -30 -34.5 -45t-30.5 -21l-50 -284q-2 -8 -6 -14t-16 -6h-55q-17 0 -14 20l50 284q-13 5 -24 20.5t-19 45.5l-92 348q-7 25 18 25h58q8 0 11 -4.5t5 -9.5l80 -324q5 -17 9.5 -21.5t9.5 -4.5t10.5 4.5t16.5 21.5l197 324q5 8 9.5 11
t15.5 3h58q15 0 15 -12zM592 801q0 -9 -10 -9h-49q-8 0 -12 3.5t-9 11.5l-64 97l-101 -97q-8 -8 -12.5 -11.5t-12.5 -3.5h-55q-8 0 -8 6q0 5 6 11l118 124q8 8 12.5 11.5t13.5 3.5h85q9 0 13.5 -3.5t9.5 -11.5l73 -124q2 -3 2 -8z" />
    <glyph glyph-name="ycircumflex" unicode="&#x177;" horiz-adv-x="534" 
d="M592 537q0 -5 -3 -11l-267 -576q-19 -41 -37.5 -69t-42.5 -45.5t-55 -25.5t-74 -8q-21 0 -44 2.5t-38 6.5q-8 2 -14.5 5t-4.5 11l7 37q2 11 6.5 14.5t18.5 1.5q8 -1 19.5 -2t24 -2t24.5 -1.5t20 -0.5q21 0 37.5 3.5t30 13t24.5 26t22 42.5l17 41h-11q-12 0 -22.5 3
t-19.5 11.5t-15 23.5t-9 40l-51 448q-2 16 4 20t17 4h52q9 0 11 -5t3 -11l42 -434q2 -15 6 -18.5t9 -3.5h16l202 457q3 8 7 11.5t15 3.5h59q14 0 14 -13zM531 632q0 -9 -10 -9h-49q-8 0 -12 3.5t-9 11.5l-64 97l-101 -97q-8 -8 -12.5 -11.5t-12.5 -3.5h-55q-8 0 -8 6
q0 5 6 11l118 124q8 8 12.5 11.5t13.5 3.5h85q9 0 13.5 -3.5t9.5 -11.5l73 -124q2 -3 2 -8z" />
    <glyph glyph-name="Ydieresis" unicode="&#x178;" horiz-adv-x="583" 
d="M677 731q0 -5 -5 -13l-217 -348q-19 -30 -34.5 -45t-30.5 -21l-50 -284q-2 -8 -8 -14t-14 -6h-55q-14 0 -14 16v4l50 284q-13 5 -24 20.5t-19 45.5l-92 348q-1 3 -1 7q0 18 19 18h58q5 0 9.5 -4.5t6.5 -9.5l80 -324q5 -17 9.5 -21.5t9.5 -4.5t10.5 4.5t16.5 21.5l197 324
q3 5 8 9.5t11 4.5h64q15 0 15 -12zM584 902l-15 -81q-2 -8 -8.5 -13.5t-14.5 -5.5h-39q-7 0 -12 4t-5 12v3l15 81q2 8 8.5 14t14.5 6h39q7 0 12 -5t5 -12v-3zM409 902l-15 -81q-2 -8 -8.5 -13.5t-14.5 -5.5h-39q-7 0 -12 4t-5 12v3l15 81q2 8 8.5 14t14.5 6h39q7 0 12 -5
t5 -12v-3z" />
    <glyph glyph-name="Zacute" unicode="&#x179;" horiz-adv-x="597" 
d="M645 674q0 -20 -8 -39.5t-31 -45.5l-429 -493q-4 -4 -4 -8q0 -6 8 -6h357q13 0 16 -4.5t1 -12.5l-8 -47q-2 -8 -5.5 -13t-17.5 -5h-343q-52 0 -76 20.5t-24 55.5q0 18 7 37.5t22 36.5l425 492q5 6 6.5 9t1.5 5q0 6 -9 6h-327q-8 0 -13.5 3t-3.5 14l8 47q2 8 5.5 12.5
t17.5 4.5h330q54 0 74 -18.5t20 -50.5zM594 944q0 -4 -5 -9l-136 -126q-8 -8 -12.5 -11.5t-12.5 -3.5h-54q-8 0 -8 6q0 5 6 11l120 124q8 8 12.5 11.5t13.5 3.5h66q10 0 10 -6z" />
    <glyph glyph-name="zacute" unicode="&#x17a;" horiz-adv-x="466" 
d="M493 481q0 -16 -6.5 -32t-20.5 -31l-313 -325q-7 -7 -7 -12q0 -7 10 -7h255q13 0 15.5 -6t0.5 -14l-6 -34q-2 -11 -6 -15.5t-17 -4.5h-253q-45 0 -66 20.5t-21 49.5q0 15 5 30.5t18 28.5l319 331q6 6 6 11t-10 5h-246q-19 0 -16 20l6 34q2 12 8.5 16t14.5 4h250
q43 0 61.5 -20.5t18.5 -48.5zM497 773q0 -4 -5 -9l-136 -126q-8 -8 -12.5 -11.5t-12.5 -3.5h-54q-8 0 -8 6q0 5 6 11l120 124q8 8 12.5 11.5t13.5 3.5h66q10 0 10 -6z" />
    <glyph glyph-name="Zdotaccent" unicode="&#x17b;" horiz-adv-x="597" 
d="M645 674q0 -20 -8 -39.5t-31 -45.5l-429 -493q-4 -4 -4 -8q0 -6 8 -6h357q13 0 16 -4.5t1 -12.5l-8 -47q-2 -8 -5.5 -13t-17.5 -5h-343q-52 0 -76 20.5t-24 55.5q0 18 7 37.5t22 36.5l425 492q5 6 6.5 9t1.5 5q0 6 -9 6h-327q-8 0 -13.5 3t-3.5 14l8 47q2 8 5.5 12.5
t17.5 4.5h330q54 0 74 -18.5t20 -50.5zM495 913l-15 -84q-2 -8 -8.5 -14t-14.5 -6h-48q-16 0 -16 17v3l15 84q2 8 8.5 13.5t14.5 5.5h48q16 0 16 -16v-3z" />
    <glyph glyph-name="zdotaccent" unicode="&#x17c;" horiz-adv-x="466" 
d="M493 481q0 -16 -6.5 -32t-20.5 -31l-313 -325q-7 -7 -7 -12q0 -7 10 -7h255q13 0 15.5 -6t0.5 -14l-6 -34q-2 -11 -6 -15.5t-17 -4.5h-253q-45 0 -66 20.5t-21 49.5q0 15 5 30.5t18 28.5l319 331q6 6 6 11t-10 5h-246q-19 0 -16 20l6 34q2 12 8.5 16t14.5 4h250
q43 0 61.5 -20.5t18.5 -48.5zM390 742l-15 -84q-2 -8 -8.5 -14t-14.5 -6h-48q-16 0 -16 17v3l15 84q2 8 8.5 13.5t14.5 5.5h48q16 0 16 -16v-3z" />
    <glyph glyph-name="Zcaron" unicode="&#x17d;" horiz-adv-x="597" 
d="M645 669q0 -16 -6.5 -33t-20.5 -33l-441 -507q-4 -4 -4 -8q0 -6 8 -6h357q7 0 12 -3.5t5 -10.5v-3l-8 -47q-2 -8 -8.5 -13t-14.5 -5h-358q-41 0 -63 22.5t-22 53.5q0 18 7 37.5t22 36.5l429 497q4 4 4 9q0 6 -9 6h-327q-7 0 -12 3.5t-5 10.5v3l8 47q2 8 8.5 12.5
t14.5 4.5h337q42 0 64.5 -21.5t22.5 -52.5zM636 944q0 -5 -6 -11l-119 -124q-8 -8 -13 -11.5t-14 -3.5h-85q-9 0 -13 3.5t-9 11.5l-76 124q-2 3 -2 8q0 9 10 9h47q8 0 12 -4t9 -12l66 -96l99 96q8 8 12.5 12t12.5 4h61q8 0 8 -6z" />
    <glyph glyph-name="zcaron" unicode="&#x17e;" horiz-adv-x="466" 
d="M493 481q0 -16 -6.5 -32t-20.5 -31l-313 -325q-7 -7 -7 -12q0 -7 10 -7h255q16 0 16 -16v-4l-6 -34q-2 -8 -8.5 -14t-14.5 -6h-253q-45 0 -66 20.5t-21 49.5q0 15 5 30.5t18 28.5l319 331q6 6 6 10q0 6 -10 6h-246q-8 0 -12 5t-4 12v3l6 34q2 8 8.5 14t14.5 6h250
q43 0 61.5 -20.5t18.5 -48.5zM549 773q0 -5 -6 -11l-119 -124q-8 -8 -13 -11.5t-14 -3.5h-85q-9 0 -13 3.5t-9 11.5l-76 124q-2 3 -2 8q0 9 10 9h47q8 0 12 -4t9 -12l66 -96l99 96q8 8 12.5 12t12.5 4h61q8 0 8 -6z" />
    <glyph glyph-name="florin" unicode="&#x192;" 
d="M614 743q0 -1 -0.5 -1.5t-0.5 -2.5l-7 -32q-3 -15 -25 -15h-55q-36 0 -53.5 -14.5t-26.5 -53.5l-45 -196h143q16 0 16 -14v-4l-8 -37q-2 -8 -9 -13t-15 -5h-143l-81 -357q-9 -39 -25.5 -65.5t-38.5 -42t-49.5 -22.5t-58.5 -7q-26 0 -42 1.5t-27 3.5q-16 3 -16 12
q0 2 0.5 2.5t0.5 2.5l7 32q3 15 25 15h55q36 0 53.5 14.5t26.5 53.5l81 357h-128q-16 0 -16 14v4l8 37q2 8 9 13t15 5h128l45 196q9 39 25.5 65.5t38.5 42t49.5 22.5t58.5 7q26 0 41.5 -1.5t26.5 -3.5q17 -3 17 -13z" />
    <glyph glyph-name="AEacute" unicode="&#x1fc;" horiz-adv-x="859" 
d="M933 729l-9 -53q-2 -12 -13 -12h-286l-43 -239h277q16 0 16 -16v-4l-6 -38q-2 -8 -9 -14t-15 -6h-277l-29 -168q-2 -14 -3.5 -25t-1.5 -20q0 -17 5 -28.5t18 -18.5t33.5 -9.5t52.5 -2.5h163q9 0 9 -9v-3l-9 -49q-1 -5 -4 -9t-8 -5q-11 -1 -30 -2.5t-42 -2.5t-47.5 -1.5
t-46.5 -0.5q-185 0 -185 140q0 11 1.5 22.5t3.5 23.5l11 66h-239l-104 -230q-2 -6 -8.5 -10.5t-12.5 -4.5h-59q-14 0 -14 13q0 7 2 10l299 645q22 47 50 61t66 14h487q4 0 5.5 -3.5t1.5 -7.5v-3zM423 664q-15 0 -23 -17l-147 -323h220l61 340h-111zM800 943q0 -4 -5 -9
l-136 -126q-8 -8 -12.5 -11.5t-12.5 -3.5h-54q-8 0 -8 6q0 5 6 11l120 124q8 8 12.5 11.5t13.5 3.5h66q10 0 10 -6z" />
    <glyph glyph-name="aeacute" unicode="&#x1fd;" horiz-adv-x="853" 
d="M862 368q0 -9 -1 -21.5t-2.5 -26.5t-4 -27.5t-5.5 -23.5t-7.5 -16t-13.5 -6h-333l-6 -32q-2 -14 -3.5 -26t-1.5 -23q0 -60 31.5 -79.5t93.5 -19.5q44 0 91 4.5t82 9.5h2h3q5 0 9.5 -2.5t4.5 -8.5v-2v-1l-6 -34q-2 -11 -6.5 -16t-17.5 -7q-45 -8 -87 -12.5t-93 -4.5
t-90 13t-66 47q-18 -12 -40.5 -23t-48.5 -19.5t-54 -13t-55 -4.5q-30 0 -59 8t-52 24.5t-37 43t-14 63.5v11q0 10 1 15l1 9q5 43 22 73.5t48.5 50t79.5 29t115 9.5h80l7 40q2 12 3 23t1 20q0 41 -21 55.5t-71 14.5q-49 0 -86 -2.5t-68 -5.5h-4q-7 0 -12 2.5t-5 9.5v4l7 35
q3 16 24 19q32 5 69 9t88 4q62 0 96.5 -18t51.5 -53q38 41 80.5 56t100.5 15q46 0 80 -14.5t56 -40t32.5 -60t10.5 -74.5zM778 376q0 56 -27 81.5t-81 25.5q-66 0 -107 -43.5t-56 -120.5l-1 -5h266q2 11 4 28.5t2 33.5zM336 265q-45 0 -76.5 -5.5t-51 -17t-29.5 -30
t-13 -45.5l-1 -9q-1 -4 -1 -7.5v-6.5v-10q0 -40 24.5 -55.5t69.5 -15.5q35 0 69 9t54 22l30 171h-75zM710 773q0 -4 -5 -9l-136 -126q-8 -8 -12.5 -11.5t-12.5 -3.5h-54q-8 0 -8 6q0 5 6 11l120 124q8 8 12.5 11.5t13.5 3.5h66q10 0 10 -6z" />
    <glyph glyph-name="Oslashacute" unicode="&#x1fe;" horiz-adv-x="661" 
d="M766 742q0 -6 -5 -11l-94 -105q9 -23 14 -49t5 -57q0 -20 -2 -40.5t-6 -43.5l-23 -129q-15 -83 -43.5 -142.5t-70 -97.5t-95 -56t-116.5 -18q-52 0 -95.5 16t-73.5 49l-50 -55q-5 -6 -8.5 -8t-11.5 -2h-53q-9 0 -9 9q0 6 4 10l92 103q-19 47 -19 108q0 20 2 40.5t6 43.5
l23 129q16 89 46.5 149t73 97t95 52.5t111.5 15.5q54 0 97 -17t72 -50l51 57q9 10 22 10h52q9 0 9 -8zM571 615q-18 29 -49 41t-73 12q-83 0 -140.5 -55.5t-79.5 -176.5l-23 -129q-4 -21 -5.5 -40t-1.5 -36q0 -8 0.5 -15.5t1.5 -15.5zM594 519v12t-1 12l-370 -415
q18 -29 48.5 -41t72.5 -12q82 0 139.5 55.5t79.5 176.5l23 129q5 23 6.5 44t1.5 39zM654 943q0 -4 -5 -9l-136 -126q-8 -8 -12.5 -11.5t-12.5 -3.5h-54q-8 0 -8 6q0 5 6 11l120 124q8 8 12.5 11.5t13.5 3.5h66q10 0 10 -6z" />
    <glyph glyph-name="oslashacute" unicode="&#x1ff;" horiz-adv-x="545" 
d="M630 577q0 -6 -7 -13l-86 -94q19 -38 19 -93q0 -30 -6 -64l-13 -76q-9 -55 -31.5 -100t-56 -77t-78.5 -49.5t-100 -17.5q-84 0 -132 42l-54 -60q-6 -7 -9.5 -8.5t-8.5 -1.5h-49q-7 0 -7 6q0 7 6 13l88 96q-19 38 -19 93q0 29 6 64l13 76q9 55 31 100t55.5 77t78.5 49.5
t100 17.5q85 0 133 -42l52 58q6 7 9.5 8.5t8.5 1.5h50q7 0 7 -6zM441 449q-28 31 -84 31q-71 0 -110.5 -44.5t-53.5 -122.5l-13 -76q-2 -15 -3.5 -28.5t-1.5 -26.5v-13t1 -11zM467 364q0 7 -0.5 13.5t-1.5 13.5l-265 -290q28 -31 84 -31q71 0 111 44.5t54 122.5l13 76
q2 14 3.5 26.5t1.5 24.5zM569 773q0 -4 -5 -9l-136 -126q-8 -8 -12.5 -11.5t-12.5 -3.5h-54q-8 0 -8 6q0 5 6 11l120 124q8 8 12.5 11.5t13.5 3.5h66q10 0 10 -6z" />
    <glyph glyph-name="uni0218" unicode="&#x218;" horiz-adv-x="550" 
d="M406 750q22 0 49 -1t53 -2.5t48.5 -4t36.5 -4.5q10 -2 13 -5t1 -12l-7 -43q-2 -9 -5.5 -13.5t-16.5 -2.5q-33 2 -80.5 4t-91.5 2q-30 0 -60 -3.5t-53.5 -14.5t-38 -31t-14.5 -53q0 -18 4.5 -32t15 -27.5t27.5 -27t42 -29.5l82 -55q35 -23 59 -45t39 -44.5t21.5 -47
t6.5 -51.5q0 -53 -21 -93t-58.5 -67t-88.5 -40.5t-111 -13.5q-21 0 -44 1t-45.5 3t-43.5 4.5t-37 5.5q-9 2 -13.5 5.5t-2.5 12.5l7 40q2 11 6 14.5t17 1.5q17 -2 38 -3t43.5 -1.5t44 -1t38.5 -0.5q81 0 128 30.5t47 101.5q0 18 -5 32t-16.5 27.5t-30 28t-44.5 32.5l-87 59
q-51 35 -80 78t-29 97q0 52 21 88t56.5 58.5t82 32.5t97.5 10zM320 -49q11 0 9 -11l-2 -8l-74 -109q-6 -10 -11 -14.5t-16 -4.5h-41q-3 0 -6 1.5t-2 6.5q1 2 1 3.5t2 4.5l48 112q7 19 23 19h69z" />
    <glyph glyph-name="uni0219" unicode="&#x219;" horiz-adv-x="466" 
d="M329 557q29 0 49.5 -1t37 -2.5t30.5 -4t30 -5.5q11 -2 14 -5.5t1 -14.5l-5 -33q-3 -20 -23 -17q-26 3 -65.5 5.5t-81.5 2.5q-17 0 -35.5 -3t-34 -11t-25.5 -21.5t-10 -35.5q0 -19 14 -34t40 -32l89 -59q26 -17 43 -33t27.5 -31.5t14.5 -32.5t4 -37q0 -44 -18 -74.5
t-48 -49.5t-69 -27t-80 -8q-16 0 -36 1t-41 2.5t-42 4.5t-37 7q-8 2 -13.5 7t-3.5 13l6 35q2 10 7 13.5t18 1.5q18 -2 39 -4t42.5 -3.5t40.5 -2.5t33 -1q22 0 42.5 4.5t36 14t25 26t9.5 40.5q0 17 -12 32.5t-46 38.5l-90 59q-42 27 -63 58t-21 72q0 42 18.5 69.5t47.5 44.5
t66 24t75 7zM278 -49q11 0 9 -11l-2 -8l-74 -109q-6 -10 -11 -14.5t-16 -4.5h-41q-3 0 -6 1.5t-2 6.5q1 2 1 3.5t2 4.5l48 112q7 19 23 19h69z" />
    <glyph glyph-name="uni021A" unicode="&#x21a;" horiz-adv-x="590" 
d="M345 20q-2 -8 -8 -14t-14 -6h-55q-8 0 -12 6t-2 14l113 645h-195q-8 0 -13.5 3t-3.5 13l8 44q2 11 8.5 14.5t14.5 3.5h481q8 0 13 -3.5t3 -14.5l-8 -44q-2 -8 -6 -12t-16 -4h-195zM325 -49q11 0 9 -11l-2 -8l-74 -109q-6 -10 -11 -14.5t-16 -4.5h-41q-3 0 -6 1.5t-2 6.5
q1 2 1 3.5t2 4.5l48 112q7 19 23 19h69z" />
    <glyph glyph-name="uni021B" unicode="&#x21b;" horiz-adv-x="375" 
d="M424 550q19 0 16 -20l-6 -34q-2 -14 -8.5 -17t-14.5 -3h-108l-62 -351q-3 -18 -3 -29q0 -22 11 -27t35 -5h61q17 0 14 -14l-6 -35q-2 -7 -6 -11t-15 -6q-15 -2 -32 -3.5t-31 -1.5q-51 0 -85.5 21.5t-34.5 73.5q0 10 1 18.5t3 20.5l62 349l-95 11q-8 1 -13 5.5t-3 12.5
l5 27q2 11 8 14.5t14 3.5h97l16 98q3 17 22 20l53 8q11 2 14 -3.5t1 -13.5l-18 -109h108zM232 -49q11 0 9 -11l-2 -8l-74 -109q-6 -10 -11 -14.5t-16 -4.5h-41q-3 0 -6 1.5t-2 6.5q1 2 1 3.5t2 4.5l48 112q7 19 23 19h69z" />
    <glyph glyph-name="circumflex" unicode="&#x2c6;" horiz-adv-x="373" 
d="M464 632q0 -9 -10 -9h-49q-8 0 -12 3.5t-9 11.5l-64 97l-101 -97q-8 -8 -12.5 -11.5t-12.5 -3.5h-55q-8 0 -8 6q0 5 6 11l118 124q8 8 12.5 11.5t13.5 3.5h85q9 0 13.5 -3.5t9.5 -11.5l73 -124q2 -3 2 -8z" />
    <glyph glyph-name="caron" unicode="&#x2c7;" horiz-adv-x="373" 
d="M491 773q0 -5 -6 -11l-119 -124q-8 -8 -13 -11.5t-14 -3.5h-85q-9 0 -13 3.5t-9 11.5l-76 124q-2 3 -2 8q0 9 10 9h47q8 0 12 -4t9 -12l66 -96l99 96q8 8 12.5 12t12.5 4h61q8 0 8 -6z" />
    <glyph glyph-name="uni02C9" unicode="&#x2c9;" horiz-adv-x="373" 
d="M351 692q0 -8 -6 -12.5t-14 -4.5h-288q-8 0 -14 4.5t-6 12.5v34q0 8 6 12.5t14 4.5h288q8 0 14 -4.5t6 -12.5v-34v0z" />
    <glyph glyph-name="breve" unicode="&#x2d8;" horiz-adv-x="373" 
d="M485 770q0 -5 -1 -8q-8 -36 -25.5 -62.5t-41.5 -44t-52.5 -26t-57.5 -8.5t-56 8t-47.5 25.5t-33 44t-12.5 63.5q0 7 3 12t11 5h35q8 0 10.5 -4t2.5 -12q0 -80 87 -80q46 0 74 21t39 59q2 8 5.5 12t11.5 4h39q9 0 9 -9z" />
    <glyph glyph-name="dotaccent" unicode="&#x2d9;" horiz-adv-x="373" 
d="M361 742l-15 -84q-2 -8 -8.5 -14t-14.5 -6h-48q-16 0 -16 17v3l15 84q2 8 8.5 13.5t14.5 5.5h48q16 0 16 -16v-3z" />
    <glyph glyph-name="ring" unicode="&#x2da;" horiz-adv-x="373" 
d="M404 703q0 -21 -8 -39.5t-21.5 -32t-32 -21.5t-39.5 -8t-39.5 8t-32.5 21.5t-22 32t-8 39.5t8 39.5t22 32.5t32.5 22t39.5 8t39.5 -8t32 -22t21.5 -32.5t8 -39.5zM356 704q0 22 -15.5 37t-37.5 15t-37 -15t-15 -37t15 -37.5t37 -15.5t37.5 15.5t15.5 37.5z" />
    <glyph glyph-name="ogonek" unicode="&#x2db;" horiz-adv-x="366" 
d="M265 -179q-1 -8 -13 -11q-2 -1 -24 -5.5t-54 -4.5q-65 0 -90.5 21.5t-25.5 54.5q0 45 24.5 69t57.5 42l73 40q6 4 13 7t14 3h52q10 0 10.5 -7t-6.5 -12l-98 -60q-21 -12 -33.5 -21t-20 -16.5t-10 -15t-2.5 -16.5q0 -17 14.5 -24t48.5 -7q24 0 46 5t27 5t4 -8l-7 -39v0z
" />
    <glyph glyph-name="tilde" unicode="&#x2dc;" horiz-adv-x="493" 
d="M552 754l-4 -23q-9 -52 -31.5 -78.5t-70.5 -26.5q-17 0 -38 4.5t-38 21.5l-47 44q-15 14 -21.5 18t-15.5 4q-34 0 -40 -46l-3 -21q-1 -7 -5.5 -12t-11.5 -5h-34q-13 0 -13 14v3l3 21q8 60 35.5 84.5t68.5 24.5q23 0 38.5 -7t35.5 -24l54 -49q7 -6 16 -10t16 -4q15 0 24 9
t14 35l4 23q2 7 6 12t11 5h34q13 0 13 -14v-3z" />
    <glyph glyph-name="hungarumlaut" unicode="&#x2dd;" horiz-adv-x="373" 
d="M548 773q0 -4 -5 -9l-135 -126q-8 -8 -12.5 -11.5t-12.5 -3.5h-54q-8 0 -8 6q0 5 6 11l119 124q8 8 13 11.5t14 3.5h65q10 0 10 -6zM373 773q0 -4 -5 -9l-135 -126q-8 -8 -12.5 -11.5t-12.5 -3.5h-54q-8 0 -8 6q0 5 6 11l119 124q8 8 13 11.5t14 3.5h65q10 0 10 -6z" />
    <glyph glyph-name="uni03A9" unicode="&#x3a9;" horiz-adv-x="592" 
d="M559 21q-2 -12 -9 -16.5t-17 -4.5h-181q-21 0 -18 21l20 113q2 14 6 18t13 7q73 24 110.5 78t51.5 136l16 88q4 20 5.5 37t1.5 32q0 81 -38.5 112.5t-105.5 31.5q-37 0 -70.5 -10.5t-61 -35t-48 -65.5t-31.5 -102l-16 -88q-3 -19 -5 -36.5t-2 -33.5q0 -53 22 -89t73 -55
q8 -3 9.5 -7t-0.5 -18l-20 -113q-3 -21 -24 -21h-181q-10 0 -16 4.5t-4 16.5l6 34q2 12 9.5 16t17.5 4h121l6 37q-59 27 -83.5 80t-24.5 114q0 34 6 67l16 88q26 148 103 221t201 73q115 0 173 -57.5t58 -163.5q0 -17 -2 -35t-5 -38l-16 -88q-18 -100 -62 -164t-132 -97
l-6 -37h121q10 0 15.5 -4t3.5 -16l-6 -34v0z" />
    <glyph glyph-name="uni03BC" unicode="&#x3bc;" horiz-adv-x="557" 
d="M582 530l-85 -486q-3 -17 -23 -23q-37 -13 -88 -20.5t-102 -7.5q-78 0 -124 29l-35 -198q-2 -8 -9 -14t-15 -6h-48q-16 0 -16 16v4l124 706q2 8 8.5 14t14.5 6h50q15 0 15 -16v-4l-58 -329q-4 -20 -4 -42q0 -48 27 -69.5t83 -21.5q30 0 62 3.5t56 10.5l79 448q2 8 9 14
t15 6h49q15 0 15 -16v-4z" />
    <glyph glyph-name="pi" unicode="&#x3c0;" horiz-adv-x="552" 
d="M529 469l-59 -335q-8 -46 -1.5 -60.5t38.5 -14.5h24q9 0 8 -11l-8 -43q-2 -8 -5 -9.5t-8 -3.5q-8 -2 -18.5 -3t-22.5 -1q-119 0 -94 146l59 335h-166l-79 -449q-2 -7 -4.5 -13.5t-12.5 -6.5h-60q-9 0 -11.5 5.5t-0.5 14.5l79 449h-69q-8 0 -11 2.5t-1 12.5l9 50
q2 10 5.5 13t11.5 3h480q8 0 11.5 -3t1.5 -13l-9 -50q-2 -10 -6 -12.5t-12 -2.5h-69z" />
    <glyph glyph-name="afii10023" unicode="&#x401;" horiz-adv-x="551" 
d="M625 727l-9 -47q-2 -12 -13 -12h-193q-40 0 -65 -5.5t-40.5 -18t-23.5 -32.5t-13 -48l-24 -139h307q16 0 16 -17v-3l-6 -38q-2 -8 -9 -14t-15 -6h-307l-29 -168q-2 -12 -3.5 -22t-1.5 -19q0 -34 23 -48.5t86 -14.5h193q9 0 9 -9v-3l-9 -49q-1 -5 -4 -9t-8 -5
q-11 -1 -34.5 -2.5t-52 -2.5t-58 -1.5t-51.5 -0.5q-86 0 -135 35.5t-49 108.5q0 22 4 42l67 385q10 55 30 91t50.5 57t71.5 29.5t94 8.5q85 0 129.5 -2.5t64.5 -6.5q5 -1 6.5 -4.5t1.5 -7.5v-2zM585 910l-15 -81q-2 -8 -8.5 -13.5t-14.5 -5.5h-39q-7 0 -12 4t-5 12v3l15 81
q2 8 8.5 14t14.5 6h39q7 0 12 -5t5 -12v-3zM410 910l-15 -81q-2 -8 -8.5 -13.5t-14.5 -5.5h-39q-7 0 -12 4t-5 12v3l15 81q2 8 8.5 14t14.5 6h39q7 0 12 -5t5 -12v-3z" />
    <glyph glyph-name="afii10051" unicode="&#x402;" horiz-adv-x="813" 
d="M788 142q-8 -47 -24.5 -79t-43 -51t-63 -27t-84.5 -8q-17 0 -30.5 2t-20.5 6q-6 3 -4 11l6 37q2 8 8.5 12.5t14.5 4.5h39q40 0 70.5 20.5t41.5 79.5l16 91q4 20 4 39q0 28 -9.5 45t-28 27t-45.5 13.5t-62 3.5q-12 0 -33.5 -1.5t-46.5 -4.5t-49.5 -7t-41.5 -9l-58 -327
q-2 -8 -6 -14t-15 -6h-55q-8 0 -12.5 5.5t-2.5 14.5l114 645h-195q-20 0 -17 16l7 44q2 8 6.5 13t17.5 5h481q18 0 15 -18l-7 -44q-2 -8 -6.5 -12t-15.5 -4h-195l-43 -243q43 14 92.5 20.5t96.5 6.5q46 0 84 -8.5t65 -28t41.5 -50t14.5 -74.5q0 -13 -1 -26.5t-4 -28.5
l-16 -91v0z" />
    <glyph glyph-name="afii10052" unicode="&#x403;" horiz-adv-x="536" 
d="M451 809q-8 -8 -12.5 -11.5t-12.5 -3.5h-54q-8 0 -8.5 5t6.5 12l119 124q8 8 13 11.5t14 3.5h66q8 0 10 -4t-6 -11zM173 20q-2 -8 -6.5 -14t-16.5 -6h-51q-11 0 -15 6t-2 14l95 544q10 56 30 92t50.5 57t71.5 29t94 8q80 0 121.5 -2t67.5 -6q10 -2 12.5 -5t0.5 -10
l-9 -47q-2 -12 -13 -12h-193q-40 0 -65 -5.5t-40.5 -18t-23.5 -32.5t-13 -48z" />
    <glyph glyph-name="afii10053" unicode="&#x404;" horiz-adv-x="573" 
d="M530 425q11 0 15 -6t2 -14l-7 -38q-2 -8 -6.5 -14t-16.5 -6h-330l-3 -13q-4 -23 -6 -44t-2 -40q0 -54 15 -88t40 -53.5t58.5 -26.5t69.5 -7q29 0 51.5 0.5t40.5 1.5t32.5 2.5t28.5 2.5q20 2 17 -16l-7 -40q-2 -9 -8.5 -13.5t-14.5 -6.5q-17 -3 -31 -5.5t-31.5 -4
t-39.5 -2.5t-54 -1q-47 0 -93.5 13.5t-83 44.5t-59 80.5t-22.5 121.5q0 22 2.5 46.5t7.5 50.5l14 75q19 102 58.5 166t90 99t108 47.5t111.5 12.5q32 0 53.5 -1t38 -2.5t30 -4t28.5 -5.5q8 -2 13.5 -6.5t3.5 -13.5l-7 -40q-3 -18 -23 -16q-26 2 -59.5 4.5t-91.5 2.5
q-42 0 -82.5 -11.5t-76 -39t-62.5 -74.5t-42 -118h330z" />
    <glyph glyph-name="afii10054" unicode="&#x405;" horiz-adv-x="550" 
d="M406 750q22 0 49 -1t53 -2.5t48.5 -4t36.5 -4.5q10 -2 13 -5t1 -12l-7 -43q-2 -9 -5.5 -13.5t-16.5 -2.5q-33 2 -80.5 4t-91.5 2q-30 0 -60 -3.5t-53.5 -14.5t-38 -31t-14.5 -53q0 -18 4.5 -32t15 -27.5t27.5 -27t42 -29.5l82 -55q35 -23 59 -45t39 -44.5t21.5 -47
t6.5 -51.5q0 -53 -21 -93t-58.5 -67t-88.5 -40.5t-111 -13.5q-21 0 -44 1t-45.5 3t-43.5 4.5t-37 5.5q-9 2 -13.5 5.5t-2.5 12.5l7 40q2 11 6 14.5t17 1.5q17 -2 38 -3t43.5 -1.5t44 -1t38.5 -0.5q81 0 128 30.5t47 101.5q0 18 -5 32t-16.5 27.5t-30 28t-44.5 32.5l-87 59
q-51 35 -80 78t-29 97q0 52 21 88t56.5 58.5t82 32.5t97.5 10z" />
    <glyph glyph-name="afii10055" unicode="&#x406;" horiz-adv-x="267" 
d="M292 743q18 0 15 -19l-124 -704q-3 -20 -22 -20h-55q-10 0 -13 6t-1 14l124 704q2 8 6 13.5t15 5.5h55z" />
    <glyph glyph-name="afii10056" unicode="&#x407;" horiz-adv-x="267" 
d="M307 724l-124 -704q-2 -8 -8 -14t-14 -6h-55q-14 0 -14 16v4l124 704q2 8 7.5 13.5t13.5 5.5h55q7 0 11 -4.5t4 -10.5v-4zM417 909l-15 -81q-2 -8 -8.5 -13.5t-14.5 -5.5h-39q-7 0 -12 4t-5 12v3l15 81q2 8 8.5 14t14.5 6h39q7 0 12 -5t5 -12v-3zM242 909l-15 -81
q-2 -8 -8.5 -13.5t-14.5 -5.5h-39q-7 0 -12 4t-5 12v3l15 81q2 8 8.5 14t14.5 6h39q7 0 12 -5t5 -12v-3z" />
    <glyph glyph-name="afii10057" unicode="&#x408;" horiz-adv-x="257" 
d="M291 743q8 0 13 -4t3 -15l-135 -761q-13 -72 -55 -107.5t-125 -35.5q-17 0 -30 2.5t-18 4.5q-8 3 -7 12l6 37q2 8 6 12.5t17 4.5h39q40 0 54.5 16.5t21.5 53.5l135 761q2 8 6.5 13.5t15.5 5.5h53z" />
    <glyph glyph-name="afii10058" unicode="&#x409;" horiz-adv-x="917" 
d="M835 205q2 15 4 28t2 22q0 31 -12.5 51t-36 31.5t-56.5 16t-75 4.5q-26 0 -53 -1t-53 -3l-49 -280q24 -1 51 -2.5t53 -1.5q46 0 84.5 6t67.5 21t47.5 41t25.5 67zM604 743q8 0 13 -6t3 -14l-52 -292q23 2 50 3t56 1q53 0 100 -8.5t82 -29t55.5 -54t20.5 -82.5
q0 -14 -2.5 -33t-4.5 -30q-11 -63 -42 -103t-75.5 -62.5t-99 -31t-112.5 -8.5q-50 0 -91.5 2t-69.5 7q-17 2 -23.5 10t-3.5 27l110 622h-96q-15 0 -23 -18l-282 -628q-2 -6 -6 -10.5t-14 -4.5h-59q-9 0 -13 5.5t1 17.5l295 644q10 23 24.5 37.5t30 23t31.5 12t30 3.5h167z
" />
    <glyph glyph-name="afii10059" unicode="&#x40a;" horiz-adv-x="1034" 
d="M1033 197q-11 -63 -42 -103t-75 -62.5t-98.5 -30.5t-112.5 -8q-36 0 -83 1.5t-91 5.5q-8 1 -13.5 5t-3.5 15l59 332h-342l-59 -332q-2 -8 -7 -14t-16 -6h-51q-11 0 -15 6t-2 14l124 703q2 8 6.5 14t17.5 6h51q11 0 14.5 -6t1.5 -14l-51 -290h342l51 290q2 8 6.5 14
t17.5 6h51q10 0 14 -6t2 -14l-52 -292q23 2 50 3t56 1q53 0 99.5 -9t81.5 -29t55.5 -54t20.5 -83q0 -11 -1 -22.5t-3 -23.5zM947 223q3 18 3 32q0 31 -12.5 51t-36 31.5t-56.5 16t-75 4.5q-26 0 -53 -1t-53 -3l-49 -280q32 -3 55 -3.5t49 -0.5q46 0 84.5 6t67.5 21t47.5 41
t25.5 67z" />
    <glyph glyph-name="afii10060" unicode="&#x40b;" horiz-adv-x="804" 
d="M739 20q-2 -8 -7 -14t-16 -6h-51q-11 0 -15 6t-2 14l39 221q4 23 4 45q0 27 -8.5 43.5t-24.5 25.5t-39 11.5t-53 2.5q-22 0 -68 -3.5t-96 -17.5l-58 -328q-2 -8 -6 -14t-15 -6h-55q-10 0 -13.5 6t-1.5 14l114 645h-195q-20 0 -17 16l7 44q2 8 7 13t17 5h481q18 0 15 -18
l-7 -44q-2 -8 -6.5 -12t-15.5 -4h-195l-43 -241q50 14 98.5 19.5t80.5 5.5q42 0 77 -7t59.5 -24.5t38.5 -47t14 -75.5q0 -15 -2 -32t-5 -36l-37 -207v0z" />
    <glyph glyph-name="afii10061" unicode="&#x40c;" horiz-adv-x="607" 
d="M464 809q-8 -8 -12.5 -11.5t-12.5 -3.5h-54q-8 0 -8.5 5t6.5 12l119 124q8 8 13 11.5t14 3.5h66q8 0 10 -4t-6 -11zM691 733q0 -6 -5 -11l-370 -340l239 -366q2 -4 2 -6q0 -10 -11 -10h-72q-14 0 -20 10l-222 346l-59 -336q-2 -8 -5.5 -14t-16.5 -6h-55q-8 0 -12 6t-2 14
l124 704q2 8 6 13.5t16 5.5h53q8 0 13 -4t3 -15l-55 -314l336 324q5 5 9.5 7t12.5 2h78q13 0 13 -10z" />
    <glyph glyph-name="afii10062" unicode="&#x40e;" horiz-adv-x="588" 
d="M359 145q-22 -39 -42 -67.5t-44.5 -47.5t-55.5 -28t-75 -9q-21 0 -40 2t-26 4q-8 2 -14 5t-4 11l8 46q3 18 25 16q12 -1 20 -1.5t14.5 -1t13 -0.5h14.5q21 0 36 3t27 12.5t23.5 26t26.5 43.5l52 94h-5q-28 0 -38.5 13t-18.5 48l-80 404q-4 25 19 25h53q11 0 14 -4.5
t5 -9.5l75 -375q2 -13 5.5 -16t11.5 -3h6l222 394q3 5 7.5 9.5t12.5 4.5h64q11 0 14.5 -7t-3.5 -18zM616 933q-17 -70 -64.5 -105.5t-114.5 -35.5q-29 0 -56 8t-47 25.5t-32 44t-12 63.5q0 6 3.5 11.5t14.5 5.5h33q8 0 10 -4t2 -12q-2 -41 21.5 -60.5t64.5 -19.5
q40 0 71.5 19.5t42.5 60.5q4 16 18 16h37q8 0 9 -5.5t-1 -11.5z" />
    <glyph glyph-name="afii10145" unicode="&#x40f;" horiz-adv-x="680" 
d="M368 -100q-3 -20 -22 -20h-55q-8 0 -12 6t-2 14l18 100h-81q-16 0 -36 2.5t-38 12.5t-30 30t-12 54q0 20 4 40l103 584q2 8 9 14t15 6h51q8 0 13 -6t3 -14l-105 -598q-1 -6 -1.5 -10.5t-0.5 -9.5q0 -12 8 -17.5t31 -5.5h252q32 0 40.5 10t12.5 33l105 598q2 8 9 14t15 6
h51q8 0 13 -6t3 -14l-107 -611q-8 -43 -26 -66t-41 -33t-47 -11.5t-42 -1.5h-80z" />
    <glyph glyph-name="afii10017" unicode="&#x410;" horiz-adv-x="633" 
d="M607 19q0 -19 -17 -19h-60q-7 0 -10 4.5t-4 10.5l-25 230h-259l-104 -230q-2 -6 -7 -10.5t-14 -4.5h-61q-14 0 -14 13q0 6 2 10l300 651q21 46 51.5 61t63.5 15q15 0 30 -3t27 -11.5t20 -23t11 -37.5l70 -652v-4zM453 653q-2 18 -16 18q-15 0 -23 -18l-149 -329h221z" />
    <glyph glyph-name="afii10018" unicode="&#x411;" horiz-adv-x="616" 
d="M600 196q-11 -63 -42 -102.5t-75 -62t-98.5 -30.5t-112.5 -8q-50 0 -91.5 2t-69.5 7q-17 2 -23.5 10t-3.5 27l121 685q2 8 6.5 13.5t15.5 5.5h382q11 0 14.5 -6t1.5 -14l-7 -41q-2 -8 -6 -14t-18 -6h-309l-41 -231q23 2 50 3t56 1q53 0 99.5 -9t81.5 -29.5t55.5 -54.5
t20.5 -83q0 -11 -1 -22.5t-3 -23.5zM514 223q3 18 3 32q0 31 -12.5 51t-36 31.5t-56.5 16t-75 4.5q-26 0 -53 -1t-53 -3l-49 -280q24 -1 51 -2.5t53 -1.5q46 0 84.5 6t67.5 21t47.5 41t25.5 67z" />
    <glyph glyph-name="afii10019" unicode="&#x412;" horiz-adv-x="616" 
d="M661 574q0 -5 -0.5 -10.5t-3.5 -22.5q-12 -63 -46 -100t-88 -57q41 -17 62.5 -52t21.5 -80q0 -8 -0.5 -17.5t-4.5 -29.5q-11 -64 -40 -105t-72 -65t-98 -33t-119 -9q-50 0 -92 2t-70 7q-27 4 -27 26q0 7 1 11l117 666q6 32 39 37q26 3 68.5 5.5t91.5 2.5q55 0 102.5 -8.5
t82.5 -27.5t55 -49t20 -73v-18zM570 583q0 28 -13 45.5t-37 27.5t-57.5 13.5t-74.5 3.5q-26 0 -52.5 -1t-47.5 -2l-44 -248h154q43 0 73 9.5t49.5 26t30 38t15.5 45.5q3 16 3.5 21.5t0.5 9.5v11zM516 251q0 20 -6.5 38t-21.5 31.5t-40 21t-62 7.5h-154l-49 -275
q25 -1 51 -2.5t52 -1.5q46 0 84.5 6t67.5 21t47.5 41t25.5 67q4 20 4.5 29t0.5 17z" />
    <glyph glyph-name="afii10020" unicode="&#x413;" horiz-adv-x="536" 
d="M173 20q-2 -8 -6.5 -14t-16.5 -6h-51q-11 0 -15 6t-2 14l95 544q10 56 30 92t50.5 57t71.5 29t94 8q80 0 121.5 -2t67.5 -6q10 -2 12.5 -5t0.5 -10l-9 -47q-2 -12 -13 -12h-193q-40 0 -65 -5.5t-40.5 -18t-23.5 -32.5t-13 -48z" />
    <glyph glyph-name="afii10021" unicode="&#x414;" horiz-adv-x="685" 
d="M88 81l273 593q10 23 24.5 37.5t30 23t31.5 12t30 3.5t28.5 -3t27 -11.5t21 -23t11.5 -37.5l63 -594h28q11 0 13.5 -5.5t0.5 -13.5l-28 -162q-2 -8 -6.5 -14t-15.5 -6h-55q-10 0 -13 6t-1 14l18 100h-453l-18 -100q-2 -8 -6.5 -14t-15.5 -6h-55q-9 0 -12.5 6t-1.5 14
l28 162q2 8 6.5 13.5t15.5 5.5h31zM186 81h352l-56 572q-2 18 -16 18q-15 0 -23 -18z" />
    <glyph glyph-name="afii10022" unicode="&#x415;" horiz-adv-x="551" 
d="M410 668q-40 0 -65 -5.5t-40.5 -18t-23.5 -32.5t-13 -48l-24 -139h307q19 0 16 -20l-6 -38q-2 -8 -6.5 -14t-17.5 -6h-307l-29 -168q-2 -12 -3.5 -22t-1.5 -19q0 -34 23 -48.5t86 -14.5h190q8 0 11 -2t1 -10l-9 -49q-1 -5 -2.5 -8.5t-9.5 -5.5q-11 -1 -34.5 -2.5
t-52 -2.5t-58 -1.5t-51.5 -0.5q-86 0 -135 35.5t-49 108.5q0 22 4 42l67 385q10 55 30 91t50.5 57t71.5 29.5t94 8.5q85 0 129.5 -2.5t64.5 -6.5q5 -1 7.5 -3.5t0.5 -10.5l-9 -47q-1 -8 -4.5 -10t-8.5 -2h-193v0z" />
    <glyph glyph-name="afii10024" unicode="&#x416;" horiz-adv-x="967" 
d="M508 402l57 322q2 8 6 13.5t16 5.5h53q8 0 13 -4t3 -15l-55 -314l336 324q5 5 9.5 7t12.5 2h78q13 0 13 -10q0 -6 -5 -11l-370 -340l239 -366q2 -4 2 -6q0 -10 -11 -10h-72q-14 0 -20 10l-222 346l-59 -336q-2 -8 -5.5 -14t-16.5 -6h-55q-8 0 -12 6t-2 14l58 331
l-342 -341q-10 -10 -23 -10h-78q-11 0 -13 9.5t5 15.5l369 364l-236 333q-8 11 -2 16t13 5h69q8 0 11 -2t7 -7z" />
    <glyph glyph-name="afii10025" unicode="&#x417;" 
d="M623 599q0 -33 -8.5 -65.5t-25 -60.5t-40.5 -51t-55 -37q39 -21 53.5 -56t14.5 -70q0 -69 -20.5 -119t-58.5 -83t-91.5 -48.5t-120.5 -15.5q-48 0 -89.5 6t-76.5 14q-8 2 -12.5 5t-2.5 14l6 34q2 9 6.5 14t16.5 3q45 -6 87.5 -10t77.5 -4q92 0 139 46.5t47 140.5
q0 18 -4.5 34.5t-16 30t-30 21.5t-46.5 8h-182q-8 0 -13 3.5t-3 14.5l6 35q2 8 6 13.5t16 5.5h182q36 0 63 13t45 35.5t27 52.5t9 63q0 25 -7 42t-22.5 27t-41.5 14.5t-64 4.5q-44 0 -84 -4.5t-90 -10.5h-3q-17 0 -14 17l6 35q2 11 8.5 14t14.5 5q38 8 81 14t91 6
q101 0 160 -36.5t59 -114.5z" />
    <glyph glyph-name="afii10026" unicode="&#x418;" horiz-adv-x="680" 
d="M205 724q2 8 6.5 13.5t15.5 5.5h53q9 0 12.5 -5.5t1.5 -13.5l-103 -585q0 -3 3 0l410 584q8 11 16 15.5t29 4.5h55q12 0 19 -7t5 -21l-124 -703q-2 -8 -7 -10t-13 -2h-52q-9 0 -13 5.5t-2 13.5l103 584q1 7 -4 0l-410 -583q-8 -11 -16.5 -15.5t-20.5 -4.5h-62
q-12 0 -19 8.5t-5 20.5z" />
    <glyph glyph-name="afii10027" unicode="&#x419;" horiz-adv-x="680" 
d="M664 933q-17 -70 -64.5 -105.5t-114.5 -35.5q-29 0 -56 8t-47 25.5t-32 44t-12 63.5q0 6 3.5 11.5t14.5 5.5h33q8 0 10 -4t2 -12q-2 -41 21.5 -60.5t64.5 -19.5q40 0 71.5 19.5t42.5 60.5q4 16 18 16h37q8 0 9 -5.5t-1 -11.5zM83 29l122 695q2 8 6.5 13.5t15.5 5.5h53
q9 0 12.5 -5.5t1.5 -13.5l-103 -585q0 -3 3 0l410 584q8 11 16 15.5t29 4.5h55q12 0 19 -7t5 -21l-124 -703q-2 -8 -7 -10t-13 -2h-52q-9 0 -13 5.5t-2 13.5l103 584q1 7 -4 0l-410 -583q-8 -11 -16.5 -15.5t-20.5 -4.5h-62q-12 0 -19 8.5t-5 20.5z" />
    <glyph glyph-name="afii10028" unicode="&#x41a;" horiz-adv-x="607" 
d="M691 733q0 -6 -5 -11l-370 -340l239 -366q2 -4 2 -6q0 -10 -11 -10h-72q-14 0 -20 10l-222 346l-59 -336q-2 -8 -5.5 -14t-16.5 -6h-55q-8 0 -12 6t-2 14l124 704q2 8 6 13.5t16 5.5h53q8 0 13 -4t3 -15l-55 -314l336 324q5 5 9.5 7t12.5 2h78q13 0 13 -10z" />
    <glyph glyph-name="afii10029" unicode="&#x41b;" horiz-adv-x="633" 
d="M453 653q-2 18 -16 18q-15 0 -23 -18l-286 -638q-2 -6 -7 -10.5t-14 -4.5h-61q-14 0 -14 13q0 6 2 10l300 651q21 46 51.5 61t63.5 15q15 0 30 -3t27 -11.5t20 -23t11 -37.5l70 -652v-4q0 -19 -17 -19h-60q-7 0 -10 4.5t-4 10.5z" />
    <glyph glyph-name="afii10030" unicode="&#x41c;" horiz-adv-x="761" 
d="M786 743q29 0 24 -29l-122 -694q-2 -8 -6 -14t-18 -6h-49q-19 0 -16 20l103 588q1 6 -1 6l-3 -3l-193 -293q-10 -15 -20.5 -22t-29.5 -7h-46q-19 0 -27 7t-13 22l-88 292q-2 5 -2.5 5.5t-1.5 0.5q-2 0 -3 -8l-103 -588q-2 -8 -6.5 -14t-17.5 -6h-49q-9 0 -13.5 6t-2.5 14
l122 694q2 12 8.5 20.5t25.5 8.5h62q15 0 20.5 -3.5t8.5 -13.5l105 -343q4 -11 10 -11q4 0 6.5 2t7.5 9l225 343q6 10 13.5 13.5t21.5 3.5h68z" />
    <glyph glyph-name="afii10031" unicode="&#x41d;" horiz-adv-x="680" 
d="M713 743q19 0 16 -20l-123 -703q-2 -8 -9 -14t-15 -6h-51q-19 0 -16 20l58 332h-342l-58 -332q-2 -8 -6 -14t-18 -6h-51q-9 0 -13.5 6t-2.5 14l123 703q2 8 6 14t18 6h51q19 0 16 -20l-51 -290h342l51 290q2 8 6 14t18 6h51z" />
    <glyph glyph-name="afii10032" unicode="&#x41e;" horiz-adv-x="661" 
d="M686 520q0 -20 -2 -40.5t-6 -43.5l-23 -129q-15 -83 -43.5 -142.5t-70 -97.5t-95 -56t-116.5 -18q-48 0 -89 14t-71 42.5t-47 71.5t-17 102q0 20 2 40.5t6 43.5l23 129q16 89 46.5 149t73 97t95 52.5t111.5 15.5q50 0 91 -14.5t70.5 -43.5t45.5 -72t16 -100zM594 519
q0 82 -38 115.5t-107 33.5q-83 0 -140.5 -55.5t-79.5 -176.5l-23 -129q-4 -21 -5.5 -40t-1.5 -36q0 -86 38.5 -121t106.5 -35q82 0 139.5 55.5t79.5 176.5l23 129q5 23 6.5 44t1.5 39z" />
    <glyph glyph-name="afii10033" unicode="&#x41f;" horiz-adv-x="680" 
d="M619 618q1 6 1.5 10.5t0.5 9.5q0 12 -8 17.5t-31 5.5h-252q-32 0 -40.5 -10t-12.5 -33l-105 -598q-2 -8 -8.5 -14t-14.5 -6h-51q-8 0 -13.5 6t-3.5 14l105 598q7 43 22.5 68t36 37.5t45 16t49.5 3.5h252q22 0 43.5 -4t38.5 -15t28 -30.5t11 -50.5q0 -19 -4 -38l-103 -585
q-2 -8 -8.5 -14t-14.5 -6h-51q-8 0 -13.5 6t-3.5 14z" />
    <glyph glyph-name="afii10034" unicode="&#x420;" horiz-adv-x="569" 
d="M646 574q0 -19 -3 -41l-2 -13q-11 -68 -39.5 -111t-70.5 -68.5t-96 -35t-114 -9.5q-24 0 -52 1.5t-47 3.5l-49 -281q-2 -8 -6 -14t-16 -6h-54q-17 0 -14 20l122 697q5 22 29 25q33 4 78 6t89 2q112 0 178.5 -42.5t66.5 -133.5zM555 568q0 59 -40.5 82t-126.5 23
q-24 0 -53.5 -1t-47.5 -3l-52 -293q9 0 22 -1t27 -1.5t27.5 -1t23.5 -0.5q103 0 153.5 38t61.5 110l2 13q3 19 3 35z" />
    <glyph glyph-name="afii10035" unicode="&#x421;" horiz-adv-x="545" 
d="M456 750q48 0 90.5 -5.5t74.5 -10.5q6 -1 11 -3t3 -10l-9 -51q-1 -12 -17 -11l-32.5 2.5t-42 3t-46 2.5t-45.5 1q-37 0 -70.5 -11.5t-62 -38.5t-49.5 -70.5t-32 -106.5l-25 -139q-4 -21 -5.5 -39t-1.5 -35q0 -42 10.5 -71t29 -47.5t44.5 -26.5t57 -8q21 0 45 1t46.5 2.5
t42 2.5t33.5 2q12 1 15.5 -2.5t1.5 -13.5l-7 -41q-2 -9 -6 -13.5t-18 -6.5q-16 -3 -32.5 -5.5t-36 -4t-43.5 -2.5t-56 -1q-38 0 -76.5 12t-70 39t-51 70.5t-19.5 107.5q0 18 1.5 38t5.5 42l25 139q17 95 51 155.5t77.5 94.5t92.5 46.5t97 12.5z" />
    <glyph glyph-name="afii10036" unicode="&#x422;" horiz-adv-x="590" 
d="M345 20q-2 -8 -8 -14t-14 -6h-55q-8 0 -12 6t-2 14l113 645h-195q-8 0 -13.5 3t-3.5 13l8 44q2 11 8.5 14.5t14.5 3.5h481q8 0 13 -3.5t3 -14.5l-8 -44q-2 -8 -6 -12t-16 -4h-195z" />
    <glyph glyph-name="afii10037" unicode="&#x423;" horiz-adv-x="588" 
d="M359 145q-22 -39 -42 -67.5t-44.5 -47.5t-55.5 -28t-75 -9q-21 0 -40 2t-26 4q-8 2 -14 5t-4 11l8 46q3 18 25 16q12 -1 20 -1.5t14.5 -1t13 -0.5h14.5q21 0 36 3t27 12.5t23.5 26t26.5 43.5l52 94h-5q-28 0 -38.5 13t-18.5 48l-80 404q-4 25 19 25h53q11 0 14 -4.5
t5 -9.5l75 -375q2 -13 5.5 -16t11.5 -3h6l222 394q3 5 7.5 9.5t12.5 4.5h64q11 0 14.5 -7t-3.5 -18z" />
    <glyph glyph-name="afii10038" unicode="&#x424;" horiz-adv-x="789" 
d="M551 636h38q54 0 98.5 -11.5t77 -34.5t50 -58t17.5 -83q0 -12 -1.5 -24t-3.5 -26l-6 -33q-11 -63 -39.5 -105.5t-70.5 -69t-95 -38t-114 -11.5h-18.5t-19.5 1l-22 -123q-2 -8 -6 -14t-15 -6h-54q-9 0 -13 6t-2 14l22 123q-11 -1 -20.5 -1h-17.5q-54 0 -98 12t-76 36
t-49.5 60t-17.5 85q0 13 1.5 27t3.5 28l6 33q10 60 38.5 101t70 66t94.5 35.5t114 10.5h38l16 94q2 8 6.5 14t15.5 6h54q10 0 13 -6t1 -14zM537 559l-60 -340q11 -1 20.5 -1h17.5q103 0 153 40t64 118l6 33q3 19 3 35q0 58 -40.5 86.5t-125.5 28.5h-38zM349 218h17t21 1
l60 340h-38q-97 0 -149.5 -37t-65.5 -113l-6 -33q-2 -11 -3 -22t-1 -21q0 -57 38.5 -86t126.5 -29z" />
    <glyph glyph-name="afii10039" unicode="&#x425;" horiz-adv-x="646" 
d="M719 731q0 -5 -5 -12l-279 -345l164 -349q2 -6 2 -8q0 -7 -5 -12t-14 -5h-50q-8 0 -11 3.5t-7 11.5l-135 288l-233 -288q-12 -15 -24 -15h-60q-14 0 -14 12q0 6 5 13l290 355l-159 339q-2 4 -2 7q0 7 5 12t13 5h51q8 0 11 -2.5t5 -7.5l133 -284l232 284q5 7 10 8.5
t11 1.5h52q14 0 14 -12z" />
    <glyph glyph-name="afii10040" unicode="&#x426;" horiz-adv-x="687" 
d="M222 0q-21 0 -45.5 5t-44 19t-29.5 40.5t-2 69.5l104 589q2 8 9 14t15 6h51q8 0 13 -6t3 -14l-106 -599q-2 -11 -2 -19.5t3.5 -13.5t12 -7.5t24.5 -2.5h252q16 0 25.5 2.5t14.5 7.5t7.5 13.5t4.5 19.5l106 599q2 8 9 14t15 6h51q8 0 13 -6t3 -14l-105 -598
q-2 -13 -5.5 -23.5t-7.5 -20.5h52q17 0 14 -19l-28 -162q-2 -8 -8 -14t-14 -6h-55q-8 0 -12 6t-2 14l18 100h-354z" />
    <glyph glyph-name="afii10041" unicode="&#x427;" horiz-adv-x="637" 
d="M562 20q-2 -8 -7 -14t-16 -6h-51q-10 0 -14.5 6t-2.5 14l51 289q-38 -8 -89 -13.5t-92 -5.5q-40 0 -74.5 9t-60 29.5t-40 52t-14.5 76.5q0 26 6 58l37 208q2 8 7.5 14t16.5 6h51q8 0 13 -6t3 -14l-39 -221q-2 -12 -3 -23t-1 -21q0 -50 31.5 -67.5t101.5 -17.5
q12 0 34 1.5t46.5 4t46.5 5t33 5.5l59 334q2 8 6.5 14t15.5 6h55q9 0 12.5 -6t1.5 -14l-124 -703v0z" />
    <glyph glyph-name="afii10042" unicode="&#x428;" horiz-adv-x="933" 
d="M891 723q2 8 9 14t15 6h51q8 0 13 -6t3 -14l-106 -599q-8 -43 -23.5 -68t-36.5 -37.5t-46 -15.5t-51 -3h-497q-21 0 -46 3.5t-44 17.5t-28.5 42.5t-0.5 78.5l102 581q2 8 9 14t15 6h51q8 0 13 -6t3 -14l-106 -599q-2 -11 -2 -19.5t3.5 -13.5t12 -7.5t24.5 -2.5h207
l113 642q2 8 9 14t15 6h51q8 0 13 -6t3 -14l-113 -642h207q16 0 25.5 2.5t14.5 7.5t7.5 13.5t4.5 19.5z" />
    <glyph glyph-name="afii10043" unicode="&#x429;" horiz-adv-x="945" 
d="M733 81q16 0 25.5 2.5t14.5 7.5t7.5 13.5t4.5 19.5l106 599q2 8 7 14t17 6h51q8 0 13 -6t3 -14l-106 -599q-2 -16 -5 -25t-7 -18h52q17 0 14 -19l-28 -162q-2 -8 -8 -14t-14 -6h-55q-8 0 -12 6t-2 14l18 100h-605q-18 0 -43 3.5t-45 17.5t-31.5 42t-2.5 77l103 583
q2 8 7.5 14t16.5 6h51q8 0 13 -6t3 -14l-106 -599q-2 -11 -2 -19.5t3.5 -13.5t12 -7.5t24.5 -2.5h207l113 642q2 8 7 14t17 6h51q8 0 13 -6t3 -14l-113 -642h207z" />
    </font>
</defs>
</svg>
