<?xml version="1.0" standalone="no"?>
<!DOCTYPE svg PUBLIC "-//W3C//DTD SVG 1.1//EN" "http://www.w3.org/Graphics/SVG/1.1/DTD/svg11.dtd" >
<svg xmlns="http://www.w3.org/2000/svg" xmlns:xlink="http://www.w3.org/1999/xlink" version="1.1">
<metadata>
Created by FontForge 20150824 at Fri Jan 15 03:40:30 2016
 By Everything Fonts
Digitised data (c) 2004 Monotype Imaging. All Rights Reserved. Neo Sans is designed by Sebastian Lester.
</metadata>
<defs>
<font id="NeoSansProBold" horiz-adv-x="645" >
  <font-face 
    font-family="NeoSansProBold"
    font-weight="700"
    font-stretch="normal"
    units-per-em="1000"
    panose-1="2 11 8 4 3 5 4 4 2 4"
    ascent="765"
    descent="-235"
    x-height="573"
    cap-height="743"
    bbox="-93 -216 1533 1012"
    underline-thickness="80"
    underline-position="-159"
    unicode-range="U+0020-FB04"
  />
<missing-glyph horiz-adv-x="500" 
d="M12 665h475v-665h-475v665zM250 375l161 243h-323zM60 91l7 10t18 27t25.5 39t29.5 45q35 54 81 121l-161 242v-484zM278 333l162 -243v485zM250 290l-162 -242h323z" />
    <glyph glyph-name="f_b" unicode="fb" horiz-adv-x="1021" 
d="M343 653q-18 0 -28.5 -1.5t-15.5 -7t-6.5 -14.5t-1.5 -24v-33h82q8 0 14 -6t6 -14v-81q0 -8 -6 -14t-14 -6h-82v-432q0 -8 -6 -14t-14 -6h-123q-8 0 -14 6t-6 14v432l-80 13q-8 2 -14.5 7.5t-6.5 13.5v66q0 8 6.5 14.5t14.5 6.5h80v42q0 54 12 85.5t36 48.5t60 22t84 5
q21 0 48 -0.5t52.5 -2t47 -3t32.5 -3.5h119q8 0 13.5 -6t5.5 -14v-173q22 3 44.5 5t37.5 2q127 0 189 -69t62 -187v-78q0 -122 -64.5 -189t-186.5 -67q-58 0 -114 7.5t-99 18.5q-20 5 -25.5 11t-5.5 18v607h-133zM809 325q0 26 -4 48.5t-14 39t-27 25.5t-44 9
q-18 0 -41 -1.5t-41 -3.5v-312q14 -2 35.5 -4t46.5 -2q27 0 44 9t27 25.5t14 39t4 49.5v78z" />
    <glyph glyph-name="f_f_b" unicode="ffb" horiz-adv-x="1368" 
d="M394 670q0 -17 -21 -17h-49q-23 0 -28 -8.5t-5 -38.5v-33h184v42q0 54 12 85.5t36 48.5t60 22t84 5q21 0 48 -0.5t52.5 -2t47 -3t32.5 -3.5h119q8 0 13.5 -6t5.5 -14v-173q22 3 44.5 5t37.5 2q127 0 189 -69t62 -187v-78q0 -122 -64.5 -189t-186.5 -67q-58 0 -114 7.5
t-99 18.5q-20 5 -25.5 11t-5.5 18v607h-133q-18 0 -28.5 -1.5t-15.5 -7t-6.5 -14.5t-1.5 -24v-33h82q8 0 14 -6t6 -14v-81q0 -8 -6 -14t-14 -6h-82v-432q0 -8 -6 -14t-14 -6h-123q-8 0 -14 6t-6 14v432h-184v-432q0 -8 -6 -14t-14 -6h-123q-8 0 -14 6t-6 14v432l-80 13
q-8 2 -14.5 7.5t-6.5 13.5v66q0 8 6.5 14.5t14.5 6.5h80v32q0 53 11 86.5t32 52t52.5 25.5t72.5 7q22 0 39 -2t40 -6q19 -3 19 -20v-78zM1156 325q0 26 -4 48.5t-14 39t-27 25.5t-44 9q-18 0 -41 -1.5t-41 -3.5v-312q14 -2 35.5 -4t46.5 -2q27 0 44 9t27 25.5t14 39t4 49.5
v78z" />
    <glyph glyph-name="f_f_h" unicode="ffh" horiz-adv-x="1374" 
d="M474 573v42q0 54 12 85.5t36 48.5t60 22t84 5q21 0 48 -0.5t52.5 -2t47 -3t32.5 -3.5h119q8 0 13.5 -6t5.5 -14v-211q38 25 73 35t80 10q54 0 88.5 -18t54 -48.5t27 -72t7.5 -88.5v-333q0 -8 -6.5 -14.5t-14.5 -6.5h-121q-8 0 -14 6.5t-6 14.5v333q0 26 -3 44t-11 29
t-22.5 15.5t-37.5 4.5q-22 0 -45 -9t-49 -23v-394q0 -8 -6 -14.5t-14 -6.5h-121q-8 0 -14.5 6.5t-6.5 14.5v632h-133q-18 0 -28 -1.5t-15.5 -7t-6.5 -14.5t-1 -24v-33h82q8 0 14 -6t6 -14v-81q0 -8 -6 -14t-14 -6h-82v-432q0 -8 -6 -14t-14 -6h-123q-8 0 -14 6t-6 14v432
h-184v-432q0 -8 -6 -14t-14 -6h-123q-8 0 -14 6t-6 14v432l-80 13q-8 2 -14.5 7.5t-6.5 13.5v66q0 8 6.5 14.5t14.5 6.5h80v32q0 53 11 86.5t32 52t52.5 25.5t72.5 7q22 0 39 -2t40 -6q19 -3 19 -20v-78q0 -17 -21 -17h-49q-23 0 -28 -8.5t-5 -38.5v-33h183z" />
    <glyph glyph-name="f_f_j" unicode="ffj" horiz-adv-x="1061" 
d="M997 -32q0 -50 -11 -83t-31.5 -52.5t-50 -27.5t-65.5 -8q-39 0 -80 7q-20 3 -20 20v79q0 18 21 18h44q21 0 26 10.5t5 36.5v484h-197v-432q0 -8 -6 -14t-14 -6h-123q-8 0 -14 6t-6 14v432h-184v-432q0 -8 -6 -14t-14 -6h-123q-8 0 -14 6t-6 14v432l-80 13q-8 2 -14.5 7.5
t-6.5 13.5v66q0 8 6.5 14.5t14.5 6.5h80v32q0 53 11 86.5t32 52t52.5 25.5t72.5 7q22 0 39 -2t40 -6q19 -3 19 -20v-78q0 -17 -21 -17h-49q-23 0 -28 -8.5t-5 -38.5v-33h184v32q0 53 11 86.5t32 52t52.5 25.5t72.5 7q22 0 39 -2t40 -6q19 -3 19 -20v-78q0 -17 -21 -17h-49
q-23 0 -28 -8.5t-5 -38.5v-33h340q8 0 13.5 -6.5t5.5 -14.5v-584zM1001 658q0 -8 -6.5 -14t-14.5 -6h-129q-8 0 -14 6t-6 14v93q0 8 6 14t14 6h129q8 0 14.5 -6t6.5 -14v-93z" />
    <glyph glyph-name="f_f_k" unicode="ffk" horiz-adv-x="1350" 
d="M475 615q0 54 12 85.5t36 48.5t60 22t84 5q21 0 48 -0.5t52.5 -2t47 -3t32.5 -3.5h119q8 0 13 -6t5 -14v-418l152 229q6 9 13 12t13 3h143q15 0 15 -11q0 -5 -4 -10l-186 -253l185 -278q2 -2 2 -8q0 -13 -13 -13h-151q-8 0 -13.5 2.5t-11.5 11.5l-144 235v-228
q0 -8 -6 -14.5t-14 -6.5h-121q-8 0 -14.5 6.5t-6.5 14.5v632h-132q-18 0 -28 -1.5t-15.5 -7t-6.5 -14.5t-1 -24v-33h82q8 0 14 -6t6 -14v-81q0 -8 -6 -14t-14 -6h-82v-432q0 -8 -6 -14t-14 -6h-123q-8 0 -14.5 6t-6.5 14v432h-184v-432q0 -8 -6 -14t-14 -6h-123q-8 0 -14 6
t-6 14v432l-80 13q-8 2 -14.5 7.5t-6.5 13.5v66q0 8 6.5 14.5t14.5 6.5h80v32q0 53 11 86.5t32 52t52.5 25.5t72.5 7q22 0 39 -2t40 -6q19 -3 19 -20v-78q0 -17 -21 -17h-49q-23 0 -28 -8.5t-5 -38.5v-33h184v42z" />
    <glyph glyph-name="f_h" unicode="fh" horiz-adv-x="1027" 
d="M342 653q-18 0 -28 -1.5t-15.5 -7t-6.5 -14.5t-1 -24v-33h82q8 0 14 -6t6 -14v-81q0 -8 -6 -14t-14 -6h-82v-432q0 -8 -6 -14t-14 -6h-123q-8 0 -14 6t-6 14v432l-80 13q-8 2 -14.5 7.5t-6.5 13.5v66q0 8 6.5 14.5t14.5 6.5h79v42q0 54 12 85.5t36 48.5t60 22t84 5
q21 0 48 -0.5t52.5 -2t47 -3t32.5 -3.5h119q8 0 13.5 -6t5.5 -14v-211q38 25 73 35t80 10q54 0 88.5 -18t54 -48.5t27 -72t7.5 -88.5v-333q0 -8 -6.5 -14.5t-14.5 -6.5h-121q-8 0 -14 6.5t-6 14.5v333q0 26 -3 44t-11 29t-22.5 15.5t-37.5 4.5q-22 0 -45 -9t-49 -23v-394
q0 -8 -6 -14.5t-14 -6.5h-121q-8 0 -14.5 6.5t-6.5 14.5v632h-133z" />
    <glyph glyph-name="f_j" unicode="fj" horiz-adv-x="714" 
d="M650 -32q0 -50 -11 -83t-31.5 -52.5t-50 -27.5t-65.5 -8q-39 0 -80 7q-20 3 -20 20v79q0 18 21 18h44q21 0 26 10.5t5 36.5v484h-197v-432q0 -8 -6 -14t-14 -6h-123q-8 0 -14 6t-6 14v432l-80 13q-8 2 -14.5 7.5t-6.5 13.5v66q0 8 6.5 14.5t14.5 6.5h80v32q0 53 11 86.5
t32 52t52.5 25.5t72.5 7q22 0 39 -2t40 -6q19 -3 19 -20v-78q0 -17 -21 -17h-49q-23 0 -28 -8.5t-5 -38.5v-33h340q8 0 13.5 -6.5t5.5 -14.5v-584zM654 658q0 -8 -6.5 -14t-14.5 -6h-129q-8 0 -14 6t-6 14v93q0 8 6 14t14 6h129q8 0 14.5 -6t6.5 -14v-93z" />
    <glyph glyph-name="f_k" unicode="fk" horiz-adv-x="1002" 
d="M636 329l152 229q6 9 13 12t13 3h143q15 0 15 -11q0 -5 -4 -10l-186 -253l185 -278q2 -2 2 -8q0 -13 -13 -13h-151q-8 0 -13.5 2.5t-11.5 11.5l-144 235v-228q0 -8 -6 -14.5t-14 -6.5h-121q-8 0 -14.5 6.5t-6.5 14.5v632h-132q-18 0 -28 -1.5t-15.5 -7t-6.5 -14.5t-1 -24
v-33h82q8 0 14 -6t6 -14v-81q0 -8 -6 -14t-14 -6h-82v-432q0 -8 -6 -14t-14 -6h-123q-8 0 -14 6t-6 14v432l-80 13q-8 2 -14.5 7.5t-6.5 13.5v66q0 8 6.5 14.5t14.5 6.5h79v42q0 54 12 85.5t36 48.5t60 22t84 5q21 0 48 -0.5t52.5 -2t47 -3t32.5 -3.5h119q8 0 13 -6t5 -14
v-418z" />
    <glyph glyph-name="f_f" unicode="ff" horiz-adv-x="771" 
d="M741 670q0 -17 -21 -17h-49q-23 0 -28 -8.5t-5 -38.5v-33h82q8 0 14 -6t6 -14v-81q0 -8 -6 -14t-14 -6h-82v-432q0 -8 -6 -14t-14 -6h-123q-8 0 -14 6t-6 14v432h-184v-432q0 -8 -6 -14t-14 -6h-123q-8 0 -14 6t-6 14v432l-80 13q-8 2 -14.5 7.5t-6.5 13.5v66
q0 8 6.5 14.5t14.5 6.5h80v32q0 53 11 86.5t32 52t52.5 25.5t72.5 7q22 0 39 -2t40 -6q19 -3 19 -20v-78q0 -17 -21 -17h-49q-23 0 -28 -8.5t-5 -38.5v-33h184v32q0 53 11 86.5t32 52t52.5 25.5t72.5 7q22 0 39 -2t40 -6q19 -3 19 -20v-78v0z" />
    <glyph glyph-name="fi" unicode="fi" horiz-adv-x="702" 
d="M394 670q0 -17 -21 -17h-49q-23 0 -28 -8.5t-5 -38.5v-33h327q8 0 14 -6.5t6 -14.5v-531q0 -8 -6 -14.5t-14 -6.5h-121q-8 0 -14.5 6.5t-6.5 14.5v431h-185v-432q0 -8 -6 -14t-14 -6h-123q-8 0 -14 6t-6 14v432l-80 13q-8 2 -14.5 7.5t-6.5 13.5v66q0 8 6.5 14.5
t14.5 6.5h80v32q0 53 11 86.5t32 52t52.5 25.5t72.5 7q22 0 39 -2t40 -6q19 -3 19 -20v-78zM642 658q0 -8 -6.5 -14t-14.5 -6h-127q-8 0 -15 6t-7 14v93q0 8 7 14t15 6h127q8 0 14.5 -6t6.5 -14v-93z" />
    <glyph glyph-name="fl" unicode="fl" horiz-adv-x="698" 
d="M638 21q0 -8 -5.5 -14.5t-13.5 -6.5h-122q-8 0 -14.5 6.5t-6.5 14.5v632h-133q-18 0 -28.5 -1.5t-15.5 -7t-6.5 -14.5t-1.5 -24v-33h82q8 0 14 -6t6 -14v-81q0 -8 -6 -14t-14 -6h-82v-432q0 -8 -6 -14t-14 -6h-123q-8 0 -14 6t-6 14v432l-80 13q-8 2 -14.5 7.5t-6.5 13.5
v66q0 8 6.5 14.5t14.5 6.5h80v42q0 54 12 85.5t36 48.5t60 22t84 5q21 0 48 -0.5t52.5 -2t47 -3t32.5 -3.5h119q8 0 13.5 -6t5.5 -14v-726v0z" />
    <glyph glyph-name="f_f_i" unicode="ffi" horiz-adv-x="1049" 
d="M989 658q0 -8 -6.5 -14t-14.5 -6h-127q-8 0 -15 6t-7 14v93q0 8 7 14t15 6h127q8 0 14.5 -6t6.5 -14v-93zM475 605q0 53 11 86.5t32 52t52.5 25.5t72.5 7q22 0 39 -2t40 -6q19 -3 19 -20v-78q0 -17 -21 -17h-49q-23 0 -28 -8.5t-5 -38.5v-33h327q8 0 14 -6.5t6 -14.5
v-531q0 -8 -6 -14.5t-14 -6.5h-121q-8 0 -14.5 6.5t-6.5 14.5v431h-185v-432q0 -8 -6 -14t-14 -6h-123q-8 0 -14 6t-6 14v432h-184v-432q0 -8 -6 -14t-14 -6h-123q-8 0 -14 6t-6 14v432l-80 13q-8 2 -14.5 7.5t-6.5 13.5v66q0 8 6.5 14.5t14.5 6.5h80v32q0 53 11 86.5t32 52
t52.5 25.5t72.5 7q22 0 39 -2t40 -6q19 -3 19 -20v-78q0 -17 -21 -17h-49q-23 0 -28 -8.5t-5 -38.5v-33h184v32z" />
    <glyph glyph-name="f_f_l" unicode="ffl" horiz-adv-x="1045" 
d="M394 670q0 -17 -21 -17h-49q-23 0 -28 -8.5t-5 -38.5v-33h184v42q0 54 12 85.5t36 48.5t60 22t84 5q21 0 48 -0.5t52.5 -2t47 -3t32.5 -3.5h119q8 0 13.5 -6t5.5 -14v-726q0 -8 -5.5 -14.5t-13.5 -6.5h-122q-8 0 -14.5 6.5t-6.5 14.5v632h-133q-18 0 -28.5 -1.5t-15.5 -7
t-6.5 -14.5t-1.5 -24v-33h82q8 0 14 -6t6 -14v-81q0 -8 -6 -14t-14 -6h-82v-432q0 -8 -6 -14t-14 -6h-123q-8 0 -14 6t-6 14v432h-184v-432q0 -8 -6 -14t-14 -6h-123q-8 0 -14 6t-6 14v432l-80 13q-8 2 -14.5 7.5t-6.5 13.5v66q0 8 6.5 14.5t14.5 6.5h80v32q0 53 11 86.5
t32 52t52.5 25.5t72.5 7q22 0 39 -2t40 -6q19 -3 19 -20v-78v0z" />
    <glyph glyph-name=".notdef" horiz-adv-x="500" 
d="M12 665h475v-665h-475v665zM250 375l161 243h-323zM60 91l7 10t18 27t25.5 39t29.5 45q35 54 81 121l-161 242v-484zM278 333l162 -243v485zM250 290l-162 -242h323z" />
    <glyph glyph-name=".null" horiz-adv-x="0" 
 />
    <glyph glyph-name="nonmarkingreturn" horiz-adv-x="260" 
 />
    <glyph glyph-name="space" unicode=" " horiz-adv-x="260" 
 />
    <glyph glyph-name="exclam" unicode="!" horiz-adv-x="273" 
d="M220 747l-20 -499q0 -8 -6 -14.5t-14 -6.5h-85q-8 0 -15 6.5t-7 14.5l-20 499v1q0 8 7 13.5t15 5.5h125q8 0 14 -5.5t6 -13.5v-1zM215 20q0 -8 -5.5 -14t-13.5 -6h-118q-8 0 -14 6t-6 14v126q0 8 6 13.5t14 5.5h118q19 0 19 -19v-126z" />
    <glyph glyph-name="quotedbl" unicode="&#x22;" horiz-adv-x="472" 
d="M449 756q0 -2 -2 -8l-75 -219q-4 -10 -7.5 -14.5t-11.5 -4.5h-101q-9 0 -9 10v4.5t1 4.5l54 219q4 19 20 19h119q12 0 12 -11zM230 756q0 -2 -2 -8l-75 -219q-4 -10 -7.5 -14.5t-11.5 -4.5h-101q-9 0 -9 10v4.5t1 4.5l54 219q4 19 20 19h119q12 0 12 -11z" />
    <glyph glyph-name="numbersign" unicode="#" horiz-adv-x="699" 
d="M651 537l-12 -76q-2 -11 -15 -11h-85l-15 -161h84q6 0 12 -4t6 -10v-2l-11 -71q-1 -5 -6 -10t-10 -5h-84l-14 -168q-1 -8 -5.5 -13.5t-12.5 -5.5h-102q-8 0 -12 5t-4 12v2l14 168h-113l-15 -168q-1 -8 -5.5 -13.5t-12.5 -5.5h-103q-7 0 -11.5 5t-4.5 12v2l14 168h-85
q-14 0 -14 13v2l12 75q2 12 14 12h83l14 161h-85q-14 0 -14 12v2l12 77q1 5 6 8t10 3h80l15 172q1 8 6 13.5t13 5.5h103q7 0 11 -5t4 -12v-2l-15 -172h113l16 172q1 8 6 13.5t13 5.5h102q8 0 11.5 -5t3.5 -12v-2l-16 -172h87q6 0 11.5 -3.5t5.5 -9.5v-2zM290 450l-15 -161
h113l15 161h-113z" />
    <glyph glyph-name="dollar" unicode="$" 
d="M575 210q0 -33 -10 -66.5t-32 -62t-57.5 -50.5t-86.5 -32v-94q0 -8 -6 -14t-14 -6h-110q-8 0 -14 6t-6 14v89q-38 2 -69 7t-58 12q-8 2 -13.5 7t-5.5 13v98q0 8 5.5 13.5t13.5 5.5h2q15 -2 40 -4t52 -4t53 -3t44 -1q52 0 71 17.5t19 52.5q0 22 -13.5 37.5t-52.5 38.5
l-138 82q-35 21 -58 43t-36.5 46t-19 49.5t-5.5 52.5q0 34 8.5 64.5t28.5 55.5t52.5 42.5t79.5 25.5v86q0 8 6 14t14 6h110q8 0 14 -6t6 -14v-82q44 -3 85 -8.5t61 -10.5q8 -2 13.5 -6.5t5.5 -12.5v-99q0 -8 -5 -13t-13 -5h-2q-47 5 -104 8t-108 3q-42 0 -59.5 -12.5
t-17.5 -40.5q0 -9 3 -17t10.5 -16.5t20.5 -17t33 -19.5l127 -69q77 -42 106.5 -92t29.5 -111z" />
    <glyph glyph-name="percent" unicode="%" horiz-adv-x="839" 
d="M801 166q0 -88 -38 -130t-109 -42t-109.5 42t-38.5 130v75q0 88 38.5 130t109.5 42t109 -42t38 -130v-75zM698 735q0 -7 -4 -12l-416 -702q-6 -11 -10.5 -16t-12.5 -5h-103q-11 0 -11 11q0 4 3 10l416 702q7 11 12 15.5t13 4.5h103q10 0 10 -8zM334 502q0 -88 -38.5 -130
t-109.5 -42t-109.5 42t-38.5 130v75q0 88 38.5 129.5t109.5 41.5t109.5 -41.5t38.5 -129.5v-75zM701 241q0 51 -12.5 68t-34.5 17t-35 -17t-13 -68v-75q0 -51 13 -68t35 -17t34.5 17t12.5 68v75zM233 577q0 51 -12.5 68t-34.5 17t-35 -17t-13 -68v-75q0 -51 13 -68.5
t35 -17.5t34.5 17.5t12.5 68.5v75z" />
    <glyph glyph-name="ampersand" unicode="&#x26;" horiz-adv-x="732" 
d="M714 12q0 -12 -12 -12h-142q-6 0 -9 1.5t-8 6.5l-30 32q-38 -23 -84 -36t-102 -13q-59 0 -109.5 10.5t-88 34t-58.5 61t-21 90.5v9q0 65 35.5 110.5t97.5 83.5l-8 9q-27 31 -44.5 55t-27.5 44.5t-13.5 37.5t-3.5 34v9q0 37 14 68.5t43 54.5t73.5 36.5t106.5 13.5
q55 0 98 -12.5t71.5 -35.5t43.5 -55t15 -70v-9q0 -35 -10.5 -62t-28.5 -49t-42 -40.5t-51 -35.5l-31 -20l130 -137q8 20 12.5 48.5t4.5 75.5v8q0 8 5 14t13 6h93q8 0 13.5 -6t5.5 -14v-8q0 -56 -11.5 -110t-46.5 -108l102 -108q5 -5 5 -12zM402 579q0 28 -19.5 44.5
t-59.5 16.5q-44 0 -66.5 -16.5t-22.5 -44.5v-9q0 -11 1.5 -21t7 -21.5t16.5 -26.5t31 -34l8 -8l26 16q23 14 38 25.5t24 22t12.5 22t3.5 25.5v9zM274 293q-36 -22 -47 -45t-11 -52v-9q0 -40 30 -60t81 -20q59 0 100 23z" />
    <glyph glyph-name="quotesingle" unicode="'" horiz-adv-x="253" 
d="M230 756q0 -2 -2 -8l-75 -219q-4 -10 -7.5 -14.5t-11.5 -4.5h-101q-9 0 -9 10v4.5t1 4.5l54 219q4 19 20 19h119q12 0 12 -11z" />
    <glyph glyph-name="parenleft" unicode="(" horiz-adv-x="361" 
d="M328 -184q0 -10 -12 -10h-100q-11 0 -19.5 3t-14.5 11q-32 45 -56.5 92.5t-41 101.5t-25 116t-8.5 135v18q0 145 33.5 251t97.5 195q6 8 14.5 11t19.5 3h100q12 0 12 -10q0 -6 -5 -16q-21 -38 -40.5 -83.5t-34.5 -99.5t-24 -116.5t-9 -134.5v-18q0 -72 9 -134.5t24 -116
t34.5 -99t40.5 -83.5q5 -10 5 -16z" />
    <glyph glyph-name="parenright" unicode=")" horiz-adv-x="361" 
d="M310 265q0 -73 -8.5 -135t-25 -116t-41 -101.5t-56.5 -92.5q-6 -8 -14.5 -11t-19.5 -3h-100q-12 0 -12 10q0 6 5 16q21 38 40.5 83.5t34.5 99t24 116t9 134.5v18q0 72 -9 134.5t-24 116.5t-34.5 99.5t-40.5 83.5q-5 10 -5 16q0 10 12 10h100q11 0 19.5 -3t14.5 -11
q64 -89 97.5 -195t33.5 -251v-18v0z" />
    <glyph glyph-name="asterisk" unicode="*" horiz-adv-x="479" 
d="M445 570q0 -10 -15 -15l-115 -34l72 -98q5 -8 5 -14q0 -8 -6 -12l-52 -38q-5 -3 -9 -3q-9 0 -16 10l-69 100l-69 -100q-7 -10 -16 -10q-5 0 -9 3l-53 38q-7 4 -7 12q0 3 2 6.5t4 7.5l72 98l-114 34q-16 5 -16 16q0 3 1 5l20 63q3 10 13 10q3 0 5.5 -0.5t5.5 -1.5l115 -38
l-3 119q0 8 4 14.5t12 6.5h66q8 0 11.5 -6.5t3.5 -14.5l-1 -119l113 38q3 1 5.5 1.5t5.5 0.5q10 0 13 -10l20 -63q1 -2 1 -6z" />
    <glyph glyph-name="plus" unicode="+" 
d="M573 346q0 -8 -6 -12t-14 -4h-170v-169q0 -8 -4 -14t-12 -6h-90q-8 0 -12 6t-4 14v169h-169q-8 0 -14 4t-6 12v90q0 8 6 12t14 4h169v170q0 8 4 14t12 6h90q8 0 12 -6t4 -14v-170h170q8 0 14 -4t6 -12v-90v0z" />
    <glyph glyph-name="comma" unicode="," horiz-adv-x="274" 
d="M231 153q0 -3 -2 -7l-96 -224q-4 -8 -7.5 -14t-11.5 -6h-88q-7 0 -12 4.5t-5 10.5q0 2 0.5 2.5t0.5 2.5l64 224q5 19 20 19h122q15 0 15 -12z" />
    <glyph glyph-name="hyphen" unicode="-" horiz-adv-x="302" 
d="M268 264q0 -8 -6 -13t-14 -5h-194q-8 0 -14 5t-6 13v80q0 8 6 13.5t14 5.5h194q8 0 14 -5.5t6 -13.5v-80v0z" />
    <glyph glyph-name="period" unicode="." horiz-adv-x="274" 
d="M216 20q0 -8 -6 -14t-14 -6h-117q-8 0 -14.5 6t-6.5 14v126q0 8 6.5 13.5t14.5 5.5h117q8 0 14 -5.5t6 -13.5v-126v0z" />
    <glyph glyph-name="slash" unicode="/" horiz-adv-x="405" 
d="M391 727q0 -1 -0.5 -1.5t-0.5 -2.5l-211 -702q-2 -8 -7 -14.5t-13 -6.5h-127q-8 0 -13.5 5t-5.5 12q0 1 0.5 2t0.5 2l212 702q2 8 7 14t13 6h127q7 0 12.5 -4.5t5.5 -11.5z" />
    <glyph glyph-name="zero" unicode="0" 
d="M592 328q0 -90 -18.5 -154t-53 -104.5t-84.5 -59.5t-114 -19t-114 19t-84.5 59.5t-52.5 104.5t-18 154v86q0 90 18 154t52.5 105t84.5 60t114 19t114 -19t84.5 -60t53 -105t18.5 -154v-86zM421 414q0 59 -7.5 97t-21 60t-31.5 30.5t-39 8.5t-39 -8.5t-31 -30.5t-20.5 -60
t-7.5 -97v-86q0 -59 7.5 -97t20.5 -60t31 -30t39 -8t39 8t31.5 30t21 60t7.5 97v86z" />
    <glyph glyph-name="one" unicode="1" 
d="M254 142v430l-130 -56q-8 -3 -12 -3q-11 0 -11 13v114q0 10 10 14l181 85q9 4 23 4h90q19 0 19 -19v-582h133q8 0 14 -5.5t6 -13.5v-103q0 -8 -6 -14t-14 -6h-436q-8 0 -14 6t-6 14v103q0 8 6 13.5t14 5.5h133z" />
    <glyph glyph-name="two" unicode="2" 
d="M570 561q0 -61 -29.5 -105.5t-85.5 -82.5l-85 -57q-32 -21 -58.5 -40.5t-46 -39.5t-30 -42t-10.5 -48v-4h316q8 0 14 -5.5t6 -13.5v-103q0 -8 -6 -14t-14 -6h-445q-8 0 -14 6t-6 14v102q0 83 39.5 148t96.5 106l92 65q33 23 53 37.5t31 26t14.5 23t3.5 29.5
q0 32 -22.5 46t-83.5 14q-46 0 -98.5 -4t-98.5 -9h-2q-8 0 -13 6t-5 14v78q0 8 5.5 12.5t13.5 6.5q42 13 99.5 22t113.5 9q138 0 196.5 -47.5t58.5 -143.5z" />
    <glyph glyph-name="three" unicode="3" 
d="M566 212q0 -57 -19 -99t-53.5 -69t-82.5 -40t-106 -13q-59 0 -113.5 8t-93.5 20q-8 2 -13.5 6.5t-5.5 12.5v80q0 8 5 13t13 5h2q53 -5 105.5 -7t93.5 -2q54 0 76.5 21.5t22.5 63.5v18q0 17 -3.5 32.5t-12.5 27.5t-25 19t-40 7h-176q-8 0 -13.5 6t-5.5 14v85q0 19 19 19
h172q24 0 40.5 7.5t26.5 19.5t14 27.5t4 32.5v14q0 34 -20.5 54.5t-78.5 20.5q-26 0 -49.5 -1t-47 -2.5t-48 -3.5t-52.5 -5h-2q-8 0 -13 5t-5 13v80q0 8 6 12.5t14 6.5q39 12 92 21.5t112 9.5q61 0 109.5 -11t82 -35.5t51.5 -63.5t18 -95v-14q0 -44 -24.5 -87t-64.5 -66
q42 -22 65.5 -61.5t23.5 -88.5v-18v0z" />
    <glyph glyph-name="four" unicode="4" 
d="M606 187q0 -8 -6 -14t-14 -6h-66v-147q0 -8 -5.5 -14t-13.5 -6h-133q-8 0 -13.5 6t-5.5 14v147h-289q-8 0 -14 6t-6 14v97q0 15 11 31l316 414q5 7 11 10.5t15 3.5h107q8 0 14 -6t6 -14v-424h66q8 0 14 -6t6 -14v-92zM354 519q0 6 -4 6q-1 0 -3 -2l-157 -214q-2 -2 -2 -6
t6 -4h160v220z" />
    <glyph glyph-name="five" unicode="5" 
d="M566 236q0 -119 -69 -182t-201 -63q-48 0 -100.5 7.5t-96.5 21.5q-8 2 -14 6.5t-6 15.5v79q0 8 5 13t13 5h2q24 -3 49.5 -5t50 -3.5t45.5 -2.5t35 -1q36 0 58 7.5t35 21.5t17.5 34t4.5 46v8q0 25 -6.5 42.5t-23 28.5t-43.5 16t-69 5h-155q-6 0 -10 4.5t-4 9.5v1l31 373
q1 8 6.5 13.5t13.5 5.5h389q8 0 14 -5.5t6 -13.5v-100q0 -8 -6 -13.5t-14 -5.5h-272l-12 -138h29q65 0 119.5 -10.5t94.5 -36t62 -68.5t22 -108v-8v0z" />
    <glyph glyph-name="six" unicode="6" 
d="M589 245q0 -57 -17 -104t-50.5 -80t-83 -51.5t-113.5 -18.5q-60 0 -109.5 18t-85 54.5t-54.5 91.5t-19 130v153q0 85 19.5 144.5t55.5 97t87.5 55t115.5 17.5q68 0 117 -6t80 -14q22 -6 22 -22v-87q0 -21 -18 -21h-5q-18 3 -40.5 5.5t-46.5 4.5t-48.5 3t-46.5 1
q-66 0 -95.5 -31.5t-29.5 -114.5v-7q20 4 53 8t65 4q51 0 95.5 -11.5t78.5 -38t53.5 -69t19.5 -104.5v-7zM422 252q0 31 -8.5 51t-23 32t-34 16.5t-41.5 4.5q-10 0 -22 -1t-24.5 -2.5t-24 -3.5t-20.5 -3v-61q0 -51 7.5 -83t21 -50t32 -24.5t40.5 -6.5q21 0 38.5 5.5
t30.5 19.5t20.5 38t7.5 61v7z" />
    <glyph glyph-name="seven" unicode="7" 
d="M566 637q0 -10 -4.5 -21t-11.5 -25l-263 -572q-9 -19 -25 -19h-137q-18 0 -18 12q0 5 3 11l272 571q1 2 1 5q0 6 -7 6h-277q-8 0 -14.5 5.5t-6.5 13.5v100q0 8 6.5 13.5t14.5 5.5h433q14 0 24 -9.5t10 -23.5v-73v0z" />
    <glyph glyph-name="eight" unicode="8" 
d="M593 213q0 -54 -19.5 -95.5t-54.5 -69.5t-83.5 -42.5t-107.5 -14.5h-11q-59 0 -107.5 14.5t-83.5 42.5t-54.5 69.5t-19.5 95.5v13q0 50 23.5 91t61.5 69q-81 55 -81 150v11q0 52 18.5 91t52.5 64t82.5 37.5t107.5 12.5h11q59 0 107.5 -12.5t83 -37.5t53 -64t18.5 -91v-11
q0 -94 -82 -150q38 -28 61.5 -69t23.5 -91v-13zM429 536q0 40 -23 65.5t-78 25.5h-11q-55 0 -78 -25.5t-23 -65.5v-5q0 -38 22 -62.5t69 -24.5h31q47 0 69 24.5t22 62.5v5zM428 228q0 17 -5 34.5t-15.5 31t-27.5 22t-42 8.5h-31q-25 0 -42 -8.5t-27.5 -22t-15.5 -31
t-5 -34.5v-10q0 -44 25 -72.5t75 -28.5h11q50 0 75 28.5t25 72.5v10z" />
    <glyph glyph-name="nine" unicode="9" 
d="M589 305q0 -85 -19.5 -144.5t-55.5 -97t-87.5 -55t-115.5 -17.5q-68 0 -117 6t-80 14q-22 5 -22 22v87q0 21 18 21h5q18 -3 40.5 -5.5t46.5 -4.5t48.5 -3t46.5 -1q66 0 95.5 31.5t29.5 114.5v7q-20 -4 -53 -8t-65 -4q-51 0 -95.5 11.5t-78.5 37.5t-53.5 69t-19.5 105v7
q0 57 17 104t50.5 80t82.5 51.5t114 18.5q60 0 109.5 -18t85 -54.5t54.5 -91.5t19 -130v-153zM422 458q0 51 -7.5 83t-21 50t-32 24.5t-40.5 6.5q-21 0 -38.5 -5.5t-30.5 -19.5t-20.5 -38t-7.5 -61v-7q0 -31 8.5 -51t23 -32t34 -16.5t41.5 -4.5q10 0 22 1t24.5 2.5t24 3
t20.5 3.5v61z" />
    <glyph glyph-name="colon" unicode=":" horiz-adv-x="275" 
d="M216 402q0 -8 -6 -13.5t-14 -5.5h-117q-8 0 -14.5 5.5t-6.5 13.5v126q0 8 6.5 14t14.5 6h117q8 0 14 -6t6 -14v-126zM216 20q0 -8 -6 -14t-14 -6h-117q-8 0 -14.5 6t-6.5 14v126q0 8 6.5 13.5t14.5 5.5h117q8 0 14 -5.5t6 -13.5v-126z" />
    <glyph glyph-name="semicolon" unicode=";" horiz-adv-x="275" 
d="M216 402q0 -8 -6.5 -13.5t-14.5 -5.5h-117q-8 0 -14 5.5t-6 13.5v126q0 8 6 14t14 6h117q8 0 14.5 -6t6.5 -14v-126zM216 151q0 -3 -2 -7l-95 -224q-4 -8 -8 -14t-12 -6h-88q-7 0 -12 4.5t-5 10.5q0 2 0.5 2.5t0.5 2.5l64 224q5 19 20 19h122q15 0 15 -12z" />
    <glyph glyph-name="less" unicode="&#x3c;" 
d="M536 150q0 -13 -12 -13h-139q-8 0 -13.5 3t-10.5 8l-233 207q-20 17 -20 36t20 36l233 207q5 5 10.5 8t13.5 3h139q12 0 12 -13q0 -6 -6 -12l-259 -229l259 -229q6 -6 6 -12z" />
    <glyph glyph-name="equal" unicode="=" 
d="M552 474q0 -8 -6 -12t-14 -4h-419q-8 0 -14 4t-6 12v90q0 8 6 12t14 4h419q8 0 14 -4t6 -12v-90zM552 218q0 -8 -6 -12t-14 -4h-419q-8 0 -14 4t-6 12v90q0 8 6 12t14 4h419q8 0 14 -4t6 -12v-90z" />
    <glyph glyph-name="greater" unicode="&#x3e;" 
d="M536 391q0 -11 -5 -19t-16 -17l-232 -207q-5 -5 -10.5 -8t-13.5 -3h-139q-12 0 -12 13q0 6 6 12l259 229l-259 229q-6 6 -6 12q0 13 12 13h139q8 0 13.5 -3t10.5 -8l232 -207q11 -9 16 -17t5 -19z" />
    <glyph glyph-name="question" unicode="?" horiz-adv-x="479" 
d="M431 580q0 -34 -17.5 -68.5t-59.5 -88.5l-45 -58q-17 -22 -28 -36t-17 -23.5t-8.5 -16.5t-2.5 -15v-28q0 -9 -8 -14t-16 -5h-100q-8 0 -13.5 6t-5.5 14v27q0 19 1 35.5t5.5 31.5t13 30.5t22.5 34.5l48 63q28 37 37 58t9 43v10q0 17 -11.5 27t-37.5 10q-39 0 -73 -3
t-70 -8h-3q-17 0 -17 21v89q0 11 3.5 17t14.5 9q32 10 75 15.5t85 5.5q52 0 92.5 -8.5t68.5 -28t43 -51t15 -78.5v-17zM262 19q0 -8 -6 -13.5t-14 -5.5h-118q-8 0 -14 5.5t-6 13.5v126q0 8 6 14t14 6h118q8 0 14 -6t6 -14v-126z" />
    <glyph glyph-name="at" unicode="@" horiz-adv-x="774" 
d="M741 361q0 -90 -27.5 -150.5t-76.5 -97t-117.5 -52t-149.5 -15.5q-38 0 -70 9t-55 27t-36 45.5t-13 63.5q0 5 0.5 9t0.5 9l9 116q7 88 60.5 127.5t137.5 39.5q32 0 66.5 -4t66.5 -11q24 -5 24 -27v-4l-28 -299q36 6 60 24t39 46t21.5 64.5t6.5 79.5q0 45 -14 86.5
t-43.5 73t-74.5 50.5t-107 19q-132 0 -205 -63.5t-84 -182.5l-15 -160q-1 -9 -1.5 -17.5t-0.5 -16.5q0 -44 15 -80t46 -62.5t78 -41t110 -14.5q45 0 83 4t64 4h1h4q8 0 8 -10v-39q0 -12 -12 -13q-26 -3 -63.5 -6.5t-84.5 -3.5q-72 0 -132.5 17t-104.5 50.5t-68.5 83
t-24.5 113.5v3v14t1 15l16 165q7 72 35 129.5t75 98t112.5 62.5t148.5 22q81 0 140.5 -25t99.5 -67t59.5 -96t19.5 -112zM442 392q-28 5 -51 5q-36 0 -51 -16.5t-20 -59.5l-11 -111q-1 -5 -1 -9v-8q0 -29 15.5 -40.5t53.5 -11.5h21.5t20.5 1z" />
    <glyph glyph-name="A" unicode="A" horiz-adv-x="669" 
d="M650 16q0 -16 -17 -16h-140q-8 0 -13 5t-7 13l-36 164h-205l-36 -164q-2 -8 -7 -13t-13 -5h-140q-17 0 -17 16q0 1 0.5 2t0.5 3l149 620q9 36 26 58t39.5 33.5t48.5 15.5t52 4t51.5 -4t48 -15.5t39.5 -33.5t26 -58l149 -620q0 -2 0.5 -3t0.5 -2zM348 595q-2 8 -4 11.5
t-9 3.5q-11 0 -14 -15l-61 -276h149z" />
    <glyph glyph-name="B" unicode="B" horiz-adv-x="669" 
d="M623 215q0 -66 -25 -109.5t-67.5 -69t-100 -35.5t-122.5 -10q-25 0 -51 1t-50.5 2.5t-45.5 3.5t-36 5q-30 5 -42.5 18t-12.5 47v608q0 34 12 47t41 18q13 2 33.5 4t45 3.5t50.5 2.5t50 1q71 0 129 -10.5t99.5 -34.5t64.5 -64t23 -100v-18q0 -49 -22 -88t-62 -59
q40 -20 64.5 -58t24.5 -90v-15zM453 532q0 41 -30.5 60.5t-107.5 19.5h-16.5h-22t-22 -0.5t-15.5 -0.5v-173h112q30 0 49.5 6.5t31 17t16.5 25t5 30.5v15zM457 230q0 36 -23 62.5t-83 26.5h-112v-187h17.5t24 -0.5t24 -0.5h16.5q77 0 106.5 23t29.5 65v11z" />
    <glyph glyph-name="C" unicode="C" horiz-adv-x="561" 
d="M520 31q0 -11 -5.5 -15.5t-16.5 -7.5q-16 -5 -56 -11t-93 -6q-57 0 -110.5 16t-94.5 53.5t-66 98.5t-25 150v126q0 89 25 150t66 98t94.5 53t110.5 16q53 0 93 -6t56 -11q11 -3 16.5 -7t5.5 -15v-97q0 -20 -19 -20h-3q-29 2 -67.5 5t-80.5 3q-26 0 -48.5 -7.5t-39.5 -27
t-26.5 -52t-9.5 -82.5v-126q0 -50 9.5 -82.5t26.5 -52t39.5 -27t48.5 -7.5q42 0 80.5 3t67.5 5h3q19 0 19 -20v-97v0z" />
    <glyph glyph-name="D" unicode="D" horiz-adv-x="682" 
d="M631 307q0 -79 -22 -138.5t-63 -99t-100 -59t-134 -19.5q-31 0 -62.5 1.5t-60 3.5t-52 4.5t-38.5 5.5q-14 2 -21.5 10t-7.5 25v661q0 17 7.5 25t21.5 10q15 3 38.5 5.5t52 4.5t60 3.5t62.5 1.5q75 0 134 -19.5t100 -59t63 -99t22 -138.5v-129zM460 436q0 51 -10.5 84
t-30 52.5t-46.5 27t-61 7.5q-19 0 -39.5 -0.5t-31.5 -1.5v-467q11 -1 31.5 -1.5t39.5 -0.5q34 0 61 7.5t46.5 27t30 52.5t10.5 84v129z" />
    <glyph glyph-name="E" unicode="E" horiz-adv-x="580" 
d="M524 25q0 -18 -20 -21q-26 -4 -69.5 -8.5t-124.5 -4.5q-48 0 -92 8t-77.5 31t-53.5 65.5t-20 110.5v332q0 68 20 110t53.5 65t78 31t92.5 8q40 0 70.5 -1.5t53.5 -3.5t39.5 -4t29.5 -4q20 -3 20 -20v-93q0 -8 -6 -14t-14 -6h-203q-35 0 -49.5 -14.5t-14.5 -53.5v-91h259
q8 0 14 -6t6 -14v-95q0 -8 -6 -14t-14 -6h-259v-106q0 -39 14.5 -53.5t49.5 -14.5h203q8 0 14 -6t6 -14v-93v0z" />
    <glyph glyph-name="F" unicode="F" horiz-adv-x="581" 
d="M524 625q0 -8 -6 -14t-14 -6h-203q-35 0 -49.5 -14.5t-14.5 -53.5v-90h259q8 0 14 -6t6 -14v-95q0 -8 -6 -14t-14 -6h-259v-292q0 -8 -6 -14t-14 -6h-130q-8 0 -14 6t-6 14v517q0 68 20 110t53.5 65t78 31t92.5 8q40 0 70.5 -1.5t53.5 -3.5t39.5 -4t29.5 -4q20 -3 20 -20
v-93v0z" />
    <glyph glyph-name="G" unicode="G" 
d="M580 608q0 -8 -4 -10.5t-11 -2.5h-3l-90 5t-118 3q-30 0 -54.5 -8t-41.5 -27.5t-26 -52.5t-9 -82v-125q0 -52 10.5 -85t27 -52t36.5 -26t38 -7q41 0 77 3v230q0 8 5.5 14t13.5 6h128q8 0 14 -6t6 -14v-336q0 -19 -20 -23q-41 -8 -95 -14.5t-129 -6.5q-28 0 -60.5 6
t-64 20t-60.5 38t-51.5 59t-35.5 83.5t-13 111.5v124q0 96 27 157.5t70.5 97.5t98 50t108.5 14q75 0 128 -8.5t81 -14.5q17 -3 17 -15v-106v0z" />
    <glyph glyph-name="H" unicode="H" horiz-adv-x="729" 
d="M659 20q0 -8 -6 -14t-14 -6h-131q-8 0 -14 6t-6 14v289h-247v-289q0 -8 -6 -14t-14 -6h-131q-8 0 -14 6t-6 14v704q0 8 6 13.5t14 5.5h131q8 0 14 -5.5t6 -13.5v-266h247v266q0 8 6 13.5t14 5.5h131q8 0 14 -5.5t6 -13.5v-704v0z" />
    <glyph glyph-name="I" unicode="I" horiz-adv-x="311" 
d="M241 20q0 -8 -5.5 -14t-13.5 -6h-134q-8 0 -13 6t-5 14v704q0 19 18 19h134q19 0 19 -19v-704v0z" />
    <glyph glyph-name="J" unicode="J" horiz-adv-x="311" 
d="M241 -6q0 -51 -14 -84.5t-38 -53t-56.5 -27.5t-70.5 -8q-17 0 -30.5 1t-33.5 3q-15 2 -15 17v102q0 5 3 9.5t8 4.5h50q17 0 21.5 8.5t4.5 27.5v730q0 8 6 13.5t14 5.5h131q8 0 14 -5.5t6 -13.5v-730v0z" />
    <glyph glyph-name="K" unicode="K" horiz-adv-x="678" 
d="M652 732q0 -6 -5 -14l-238 -338l239 -359q4 -5 4 -11q0 -10 -14 -10h-172q-9 0 -13.5 4t-8.5 10l-203 330v-324q0 -8 -6 -14t-14 -6h-131q-8 0 -14 6t-6 14v704q0 8 6 13.5t14 5.5h131q8 0 14 -5.5t6 -13.5v-318l220 325q7 12 22 12h153q16 0 16 -11z" />
    <glyph glyph-name="L" unicode="L" horiz-adv-x="519" 
d="M497 25q0 -17 -20 -21q-12 -3 -32 -5t-42.5 -4t-45.5 -3t-43 -1q-48 0 -92.5 8t-78 31t-53.5 65.5t-20 110.5v517q0 8 6 14t14 6h131q8 0 14 -6t6 -14v-517q0 -39 14.5 -53.5t49.5 -14.5h172q8 0 14 -6t6 -14v-93v0z" />
    <glyph glyph-name="M" unicode="M" horiz-adv-x="816" 
d="M746 14q0 -8 -5.5 -11t-11.5 -3h-132q-7 0 -11.5 6t-4.5 14v417q0 8 -5 8q-4 0 -8 -7l-90 -165q-10 -17 -30 -17h-80q-20 0 -30 17l-90 165q-4 7 -8 7q-5 0 -5 -8v-417q0 -8 -4.5 -14t-11.5 -6h-132q-6 0 -11.5 3t-5.5 11v695q0 16 10 25t26 9h94q30 0 44 -27l153 -285
q6 -13 11 -13q4 0 11 13l153 285q14 27 44 27h94q16 0 26 -9.5t10 -25.5v-694v0z" />
    <glyph glyph-name="N" unicode="N" horiz-adv-x="729" 
d="M659 38q0 -16 -11.5 -27t-27.5 -11h-98q-16 0 -28 5.5t-24 25.5l-228 394q-5 8 -9 8q-5 0 -5 -8v-405q0 -8 -6 -14t-14 -6h-118q-8 0 -14 6t-6 14v685q0 16 11 27t27 11h101q15 0 24 -7.5t18 -23.5l237 -412q5 -8 8 -8q5 0 5 9v423q0 8 6 13.5t14 5.5h118q8 0 14 -5.5
t6 -13.5v-686v0z" />
    <glyph glyph-name="O" unicode="O" horiz-adv-x="698" 
d="M645 312q0 -87 -23 -148t-63 -99.5t-94 -56t-116 -17.5t-116 17.5t-94 56t-63 99.5t-23 148v119q0 87 23 148t63 99.5t94 56t116 17.5t116 -17.5t94 -56t63 -99.5t23 -148v-119zM473 431q0 91 -30.5 131t-93.5 40t-93 -40t-30 -131v-119q0 -91 30 -131t93 -40t93.5 40
t30.5 131v119z" />
    <glyph glyph-name="P" unicode="P" horiz-adv-x="651" 
d="M618 502q0 -70 -25.5 -116.5t-67.5 -74.5t-95.5 -39.5t-109.5 -11.5q-18 0 -40 1t-41 2v-243q0 -8 -6 -14t-14 -6h-129q-8 0 -14 5.5t-6 13.5v672q0 26 11 35t34 13q38 6 93.5 9.5t109.5 3.5q57 0 111 -11t96 -39t67.5 -74.5t25.5 -116.5v-9zM448 511q0 54 -32.5 76.5
t-95.5 22.5q-5 0 -17 -0.5t-24.5 -1t-24 -1t-15.5 -0.5v-204q4 0 15.5 -0.5t25 -1t25 -0.5h15.5q67 0 97.5 25t30.5 76v9z" />
    <glyph glyph-name="Q" unicode="Q" horiz-adv-x="698" 
d="M645 312q0 -72 -16 -126.5t-44.5 -92.5t-68 -61t-86.5 -33v-20q0 -16 7 -20.5t18 -4.5h90q11 0 17.5 -4t6.5 -12v-82q0 -16 -23 -22q-21 -5 -51.5 -9t-59.5 -4q-35 0 -65 8t-52.5 26.5t-35.5 48.5t-13 74v21q-47 10 -86.5 33t-68.5 61t-45 92.5t-16 126.5v119
q0 87 23 148t63 99.5t94 56t116 17.5t116 -17.5t94 -56t63 -99.5t23 -148v-119zM473 431q0 91 -30.5 131t-93.5 40t-93 -40t-30 -131v-119q0 -91 30 -131t93 -40t93.5 40t30.5 131v119z" />
    <glyph glyph-name="R" unicode="R" horiz-adv-x="680" 
d="M644 12q0 -12 -15 -12h-153q-8 0 -12 6t-8 14l-134 253l-11 -1q-16 0 -36.5 1t-34.5 1v-254q0 -8 -6 -14t-14 -6h-130q-8 0 -14 6t-6 14v671q0 26 11 35t34 13q17 3 41 5t51 4t55.5 3t55.5 1q64 0 119 -11.5t95.5 -39t63.5 -72.5t23 -111v-13q0 -80 -37 -129t-92 -71
l151 -282q3 -6 3 -11zM449 518q0 46 -34 67.5t-97 21.5q-5 0 -16.5 -0.5t-23.5 -1t-23 -1t-15 -0.5v-192q4 0 14 -0.5t21.5 -1t21.5 -0.5h14q39 0 65.5 5.5t42.5 16.5t23 29t7 44v13z" />
    <glyph glyph-name="S" unicode="S" horiz-adv-x="588" 
d="M546 210q0 -40 -14 -79t-46.5 -70t-84.5 -50.5t-128 -19.5q-60 0 -105.5 6t-83.5 16q-8 2 -14 7t-6 13v98q0 11 5 15t13 4h3q15 -2 41.5 -4t54.5 -3.5t53.5 -3t40.5 -1.5q52 0 70.5 17t18.5 53q0 22 -13.5 37.5t-52.5 38.5l-138 82q-35 21 -57.5 43t-36 46t-19 49.5
t-5.5 52.5q0 41 12.5 76.5t42.5 62t79 41.5t122 15q27 0 58.5 -2t60.5 -5t54 -7t39 -8q6 -2 10.5 -6t4.5 -12v-101q0 -7 -3.5 -12t-13.5 -5h-2q-11 1 -35.5 2.5t-55.5 3.5t-63.5 3.5t-57.5 1.5q-43 0 -60.5 -13t-17.5 -40q0 -11 3 -19t10.5 -15.5t20.5 -16t33 -19.5l128 -69
q78 -42 106.5 -92t28.5 -111z" />
    <glyph glyph-name="T" unicode="T" horiz-adv-x="587" 
d="M562 621q0 -8 -6.5 -13.5t-14.5 -5.5h-162v-582q0 -8 -6 -14t-14 -6h-131q-8 0 -14 6t-6 14v582h-163q-8 0 -14 5.5t-6 13.5v103q0 8 6 13.5t14 5.5h496q8 0 14.5 -5.5t6.5 -13.5v-103v0z" />
    <glyph glyph-name="U" unicode="U" horiz-adv-x="711" 
d="M644 279q0 -86 -23 -141.5t-62 -88t-91.5 -45.5t-112.5 -13t-112.5 13t-91.5 45.5t-61.5 88t-22.5 141.5v445q0 8 6 13.5t14 5.5h131q8 0 14 -5.5t6 -13.5v-445q0 -38 5.5 -65.5t19 -45t36 -26t56.5 -8.5t56.5 8.5t36 26t19.5 45t6 65.5v445q0 8 6 13.5t14 5.5h130
q8 0 14.5 -5.5t6.5 -13.5v-445v0z" />
    <glyph glyph-name="V" unicode="V" horiz-adv-x="686" 
d="M658 727q0 -1 -0.5 -2t-0.5 -3l-149 -620q-9 -36 -26 -58t-39.5 -33.5t-48 -15.5t-51.5 -4t-52 4t-48.5 15.5t-39.5 33.5t-26 58l-149 620q0 2 -0.5 2.5t-0.5 2.5q0 7 5 11.5t13 4.5h139q8 0 13 -5t7 -13l125 -577q3 -15 14 -15t14 15l125 577q2 8 6.5 13t12.5 5h140
q17 0 17 -16z" />
    <glyph glyph-name="W" unicode="W" horiz-adv-x="889" 
d="M872 728l-93 -655q-6 -44 -29 -60t-63 -16h-57q-33 0 -57.5 15t-34.5 53l-79 299q-2 6 -3.5 7t-5.5 1t-5 -1t-3 -7l-79 -299q-10 -38 -34.5 -53t-57.5 -15h-57q-40 0 -63 16t-29 60l-93 655v2q0 8 5 10.5t11 2.5h136q14 0 16 -19l57 -536q1 -13 6 -13q4 0 7 13l72 275
q8 29 25 38.5t37 9.5h99q20 0 37 -9.5t25 -38.5l72 -275q3 -13 7 -13q5 0 6 13l57 536q2 19 16 19h136q6 0 11 -2.5t5 -10.5v-2z" />
    <glyph glyph-name="X" unicode="X" horiz-adv-x="703" 
d="M671 10q0 -10 -13 -10h-159q-10 0 -15.5 3.5t-10.5 11.5l-130 211l-117 -206q-5 -9 -11 -14.5t-14 -5.5h-148q-15 0 -15 13q0 3 2 7l209 361l-211 343q-2 4 -2 6q0 5 4.5 9t10.5 4h161q8 0 14 -6t11 -13l124 -202l112 202q4 7 10.5 13t14.5 6h148q6 0 10.5 -4t4.5 -9
q0 -2 -2 -6l-206 -353l215 -351q3 -6 3 -10z" />
    <glyph glyph-name="Y" unicode="Y" horiz-adv-x="647" 
d="M626 728q0 -5 -1 -7l-151 -346q-15 -35 -31 -52t-34 -25v-278q0 -8 -6 -14t-14 -6h-131q-8 0 -14 6t-6 14v278q-18 8 -34.5 25t-31.5 52l-151 346q-1 2 -1 7q0 6 4 10.5t12 4.5h144q8 0 13 -5t7 -12l108 -282q4 -10 7 -12.5t8 -2.5t8 2.5t7 12.5l108 282q2 7 7 12t13 5
h144q8 0 12 -4.5t4 -10.5z" />
    <glyph glyph-name="Z" unicode="Z" horiz-adv-x="615" 
d="M565 20q0 -8 -6 -14t-14 -6h-454q-17 0 -29 7t-12 24v80q0 11 3 20.5t12 23.5l279 422q4 5 4 10q0 8 -11 8h-249q-8 0 -14 5.5t-6 13.5v110q0 8 6 13.5t14 5.5h431q16 0 28 -7t12 -21v-7q0 -3 0.5 -7.5t0.5 -9.5q0 -11 -0.5 -22.5t-0.5 -21.5v-23q0 -13 -8 -26l-282 -432
q-5 -7 -5 -11q0 -7 11 -7h270q8 0 14 -5t6 -13v-110v0z" />
    <glyph glyph-name="bracketleft" unicode="[" horiz-adv-x="374" 
d="M344 -174q0 -8 -6 -14t-14 -6h-244q-8 0 -12.5 5.5t-4.5 13.5v899q0 8 4.5 13.5t12.5 5.5h243q8 0 14 -6t6 -14v-87q0 -8 -6 -14t-14 -6h-96v-683h97q8 0 14 -6t6 -14v-87v0z" />
    <glyph glyph-name="backslash" unicode="\" horiz-adv-x="405" 
d="M392 12q0 -7 -5.5 -12t-13.5 -5h-127q-8 0 -12.5 6.5t-6.5 14.5l-213 707q0 1 -0.5 2t-0.5 2q0 7 5.5 11.5t13.5 4.5h126q8 0 13.5 -6t7.5 -14l212 -707q0 -1 0.5 -2t0.5 -2z" />
    <glyph glyph-name="bracketright" unicode="]" horiz-adv-x="374" 
d="M311 -175q0 -8 -4.5 -13.5t-12.5 -5.5h-244q-8 0 -14 6t-6 14v87q0 8 6 14t14 6h97v683h-96q-8 0 -14 6t-6 14v87q0 8 6 14t14 6h243q8 0 12.5 -5.5t4.5 -13.5v-899v0z" />
    <glyph glyph-name="asciicircum" unicode="^" 
d="M576 574q0 -9 -12 -9h-130q-13 0 -18 3.5t-13 11.5l-80 89l-80 -89q-8 -8 -13 -11.5t-18 -3.5h-130q-12 0 -12 9q0 5 5 12l111 148q8 11 14 14.5t20 3.5h206q14 0 20 -3.5t14 -14.5l111 -148q5 -7 5 -12z" />
    <glyph glyph-name="underscore" unicode="_" horiz-adv-x="541" 
d="M573 -103q0 -8 -6 -12t-14 -4h-564q-8 0 -14 4t-6 12v48q0 8 6 12t14 4h564q8 0 14 -4t6 -12v-48v0z" />
    <glyph glyph-name="grave" unicode="`" horiz-adv-x="443" 
d="M293 637q0 -7 -9 -7h-107q-10 0 -14 3t-10 9l-122 122q-4 4 -4 8q0 7 11 7h132q11 0 15.5 -3.5t11.5 -11.5l92 -117q4 -5 4 -10z" />
    <glyph glyph-name="a" unicode="a" horiz-adv-x="562" 
d="M502 20q0 -8 -6 -14t-14 -6h-112q-8 0 -14 6t-6 14v16q-29 -21 -61.5 -33t-77.5 -12q-33 0 -63.5 8.5t-54.5 28.5t-38.5 53t-14.5 82v9q0 88 58.5 128.5t187.5 40.5h54v36q0 43 -20 56t-55 13q-24 0 -48.5 -0.5t-47 -1.5t-40.5 -2.5l-30 -2.5h-5q-8 0 -13 4t-5 14v81
q0 17 19 22q28 7 75.5 14t97.5 7q54 0 97.5 -11.5t73.5 -36t46.5 -63t16.5 -93.5v-357zM343 245h-57q-26 0 -43 -4.5t-27 -13.5t-14 -23t-4 -32v-9q0 -32 15.5 -41t47.5 -9q23 0 43.5 6.5t38.5 15.5v110z" />
    <glyph glyph-name="b" unicode="b" horiz-adv-x="597" 
d="M555 247q0 -122 -64.5 -189t-186.5 -67q-58 0 -114 7.5t-99 18.5q-20 5 -25.5 11t-5.5 18v701q0 8 6.5 14t14.5 6h121q8 0 14 -6t6 -14v-173q22 3 44.5 5t37.5 2q127 0 189 -69t62 -187v-78zM393 325q0 26 -4 48.5t-14 39t-27 25.5t-44 9q-18 0 -41 -1.5t-41 -3.5v-312
q14 -2 35.5 -4t46.5 -2q27 0 44 9t27 25.5t14 39t4 49.5v78z" />
    <glyph glyph-name="c" unicode="c" horiz-adv-x="474" 
d="M432 29q0 -11 -5 -15.5t-16 -7.5q-21 -5 -54.5 -10t-78.5 -5q-106 0 -169.5 65t-63.5 188v84q0 123 63.5 188t169.5 65q45 0 78.5 -5t54.5 -10q11 -3 16 -7.5t5 -15.5v-89q0 -8 -5.5 -12.5t-13.5 -4.5h-2q-28 3 -53.5 5t-68.5 2q-17 0 -32 -5.5t-26 -19t-17.5 -36
t-6.5 -55.5v-84q0 -33 6.5 -55.5t17.5 -36t26 -19t32 -5.5q43 0 68.5 2t53.5 5h2q8 0 13.5 -4.5t5.5 -12.5v-89v0z" />
    <glyph glyph-name="d" unicode="d" horiz-adv-x="597" 
d="M537 46q0 -12 -5.5 -18t-25.5 -11q-43 -11 -99 -18.5t-114 -7.5q-122 0 -186.5 67t-64.5 189v78q0 118 62 187t189 69q15 0 37.5 -2t44.5 -5v173q0 8 6 14t14 6h121q8 0 14.5 -6t6.5 -14v-701zM375 442q-18 2 -41 3.5t-41 1.5q-27 0 -44 -9t-27 -25.5t-14 -39t-4 -48.5
v-78q0 -27 4 -49.5t14 -39t27 -25.5t44 -9q25 0 46.5 2t35.5 4v312z" />
    <glyph glyph-name="e" unicode="e" horiz-adv-x="590" 
d="M545 260q0 -24 -21 -24h-319v-2q0 -21 5 -41t17 -35t31.5 -24t49.5 -9q24 0 51 1t53.5 2t49.5 2.5t38 3.5h3q19 0 19 -16v-76q0 -12 -4 -18t-17 -9q-48 -12 -94 -18t-111 -6q-45 0 -90 13t-81 43t-58 79.5t-22 121.5v70q0 60 17 109t49.5 83t79.5 52.5t107 18.5
q61 0 107.5 -20t77.5 -55t46.5 -83t15.5 -105v-58zM387 340q0 56 -24 83.5t-66 27.5t-67 -28t-25 -83v-4h182v4z" />
    <glyph glyph-name="f" unicode="f" horiz-adv-x="424" 
d="M394 670q0 -17 -21 -17h-49q-23 0 -28 -8.5t-5 -38.5v-33h82q8 0 14 -6t6 -14v-81q0 -8 -6 -14t-14 -6h-82v-432q0 -8 -6 -14t-14 -6h-123q-8 0 -14 6t-6 14v432l-80 13q-8 2 -14.5 7.5t-6.5 13.5v66q0 8 6.5 14.5t14.5 6.5h80v32q0 53 11 86.5t32 52t52.5 25.5t72.5 7
q22 0 39 -2t40 -6q19 -3 19 -20v-78v0z" />
    <glyph glyph-name="g" unicode="g" horiz-adv-x="599" 
d="M577 490q0 -11 -4.5 -15t-13.5 -7l-31 -10q9 -14 15.5 -35t6.5 -39v-8q0 -98 -64.5 -142.5t-182.5 -44.5q-35 0 -62 4.5t-42 10.5q-8 -5 -11 -10.5t-3 -12.5q0 -12 6 -18t24 -10l113 -25q65 -14 110 -27.5t72.5 -31t39.5 -42t12 -60.5v-8q0 -163 -262 -163
q-125 0 -189.5 42t-64.5 121v8q0 31 14 59t46 53q-27 15 -39 41.5t-12 51.5q0 28 12.5 49t31.5 36q-24 21 -35 55t-11 64v8q0 85 59.5 137t190.5 52h249q11 0 18 -7.5t7 -18.5v-57zM392 384q0 31 -18 51.5t-71 20.5t-72 -20.5t-19 -51.5v-8q0 -13 3.5 -25.5t13.5 -22.5
t27.5 -16t46.5 -6q53 0 71 19t18 51v8zM397 -33q0 7 -3.5 13.5t-14.5 12.5t-31 12t-54 14l-74 16q-9 -13 -14.5 -27.5t-5.5 -40.5v-8q0 -26 21 -38.5t79 -12.5q31 0 50 3.5t29.5 10.5t14 16.5t3.5 20.5v8z" />
    <glyph glyph-name="h" unicode="h" horiz-adv-x="612" 
d="M552 21q0 -8 -6.5 -14.5t-14.5 -6.5h-121q-8 0 -14 6.5t-6 14.5v333q0 26 -3 44t-11 29t-22.5 15.5t-37.5 4.5q-22 0 -45 -9t-49 -23v-394q0 -8 -6 -14.5t-14 -6.5h-121q-8 0 -14.5 6.5t-6.5 14.5v726q0 8 6 14t14 6h122q8 0 14 -6t6 -14v-211q38 25 73 35t80 10
q54 0 88.5 -18t54 -48.5t27 -72t7.5 -88.5v-333v0z" />
    <glyph glyph-name="i" unicode="i" horiz-adv-x="290" 
d="M230 658q0 -8 -6 -14t-14 -6h-130q-8 0 -14 6t-6 14v93q0 8 6 14t14 6h130q8 0 14 -6t6 -14v-93zM226 20q0 -8 -6 -14t-14 -6h-122q-8 0 -14 6t-6 14v533q0 8 6 14t14 6h122q8 0 14 -6t6 -14v-533z" />
    <glyph glyph-name="j" unicode="j" horiz-adv-x="290" 
d="M230 658q0 -8 -6.5 -14t-14.5 -6h-129q-8 0 -14 6t-6 14v93q0 8 6 14t14 6h129q8 0 14.5 -6t6.5 -14v-93zM226 -32q0 -50 -11 -83t-31.5 -52.5t-50 -27.5t-65.5 -8q-39 0 -80 7q-20 3 -20 20v79q0 18 21 18h44q21 0 26 10.5t5 36.5v584q0 8 5.5 14.5t13.5 6.5h124
q8 0 13.5 -6.5t5.5 -14.5v-584z" />
    <glyph glyph-name="k" unicode="k" horiz-adv-x="588" 
d="M558 562q0 -5 -4 -10l-186 -253l185 -278q2 -2 2 -8q0 -13 -13 -13h-151q-8 0 -13.5 2.5t-11.5 11.5l-144 235v-228q0 -8 -6 -14.5t-14 -6.5h-121q-8 0 -14.5 6.5t-6.5 14.5v726q0 8 6.5 14t14.5 6h121q8 0 14 -6t6 -14v-418l152 229q6 9 13 12t13 3h143q15 0 15 -11z
" />
    <glyph glyph-name="l" unicode="l" horiz-adv-x="282" 
d="M222 21q0 -8 -5.5 -14.5t-13.5 -6.5h-122q-8 0 -14.5 6.5t-6.5 14.5v726q0 8 6.5 14t14.5 6h122q8 0 13.5 -6t5.5 -14v-726v0z" />
    <glyph glyph-name="m" unicode="m" horiz-adv-x="875" 
d="M815 21q0 -8 -6.5 -14.5t-14.5 -6.5h-121q-8 0 -14 6.5t-6 14.5v341q0 48 -13 65.5t-48 17.5q-13 0 -33.5 -3.5t-43.5 -14.5q3 -30 3 -65v-341q0 -8 -6 -14.5t-14 -6.5h-121q-8 0 -14.5 6.5t-6.5 14.5v341q0 48 -11.5 65.5t-46.5 17.5q-14 0 -33.5 -7t-42.5 -19v-398
q0 -8 -6 -14.5t-14 -6.5h-121q-8 0 -14.5 6.5t-6.5 14.5v532q0 8 6 14t14 6h114q8 0 14 -6t6 -14v-22q32 21 68 35.5t80 14.5q40 0 68.5 -11.5t49.5 -37.5q22 12 41 21.5t38 15.5t39.5 9t44.5 3q49 0 82.5 -16t53 -44.5t28 -69t8.5 -89.5v-341v0z" />
    <glyph glyph-name="n" unicode="n" horiz-adv-x="612" 
d="M552 21q0 -8 -6.5 -14.5t-14.5 -6.5h-121q-8 0 -14 6.5t-6 14.5v333q0 26 -3 44t-11 29t-22.5 15.5t-37.5 4.5q-22 0 -45 -9t-49 -23v-394q0 -8 -6 -14.5t-14 -6.5h-121q-8 0 -14.5 6.5t-6.5 14.5v532q0 8 6 14t14 6h112q8 0 14 -6t6 -14v-24q41 29 78 40.5t85 11.5
q54 0 88.5 -18t54 -48.5t27 -72t7.5 -88.5v-333v0z" />
    <glyph glyph-name="o" unicode="o" horiz-adv-x="589" 
d="M545 251q0 -60 -16.5 -108t-48 -81.5t-78 -52t-107.5 -18.5t-107.5 18.5t-78.5 52t-48.5 81.5t-16.5 108v70q0 60 16.5 108t48.5 81.5t78.5 52t107.5 18.5t107.5 -18.5t78 -52t48 -81.5t16.5 -108v-70zM384 321q0 122 -89 122q-44 0 -67 -30.5t-23 -91.5v-70
q0 -61 23 -92t67 -31q89 0 89 123v70z" />
    <glyph glyph-name="p" unicode="p" horiz-adv-x="597" 
d="M555 247q0 -118 -62 -187t-189 -69q-15 0 -37.5 2t-44.5 5v-173q0 -8 -6 -14t-14 -6h-121q-8 0 -14.5 6t-6.5 14v701q0 12 5.5 18t25.5 11q43 11 99 18.5t114 7.5q122 0 186.5 -67t64.5 -189v-78zM393 325q0 27 -4 49t-14 38.5t-27 25.5t-44 9q-25 0 -46.5 -1.5
t-35.5 -3.5v-312q18 -2 41 -4t41 -2q27 0 44 9.5t27 26t14 39t4 48.5v78z" />
    <glyph glyph-name="q" unicode="q" horiz-adv-x="597" 
d="M537 -175q0 -8 -6.5 -14t-14.5 -6h-121q-8 0 -14 6t-6 14v173q-22 -3 -44.5 -5t-37.5 -2q-127 0 -189 69t-62 187v78q0 122 64.5 189t186.5 67q58 0 114 -7.5t99 -18.5q20 -5 25.5 -11t5.5 -18v-701zM375 442q-14 2 -35.5 3.5t-46.5 1.5q-27 0 -44 -9t-27 -25.5
t-14 -38.5t-4 -49v-78q0 -26 4 -48.5t14 -39t27 -26t44 -9.5q18 0 41 2t41 4v312z" />
    <glyph glyph-name="r" unicode="r" horiz-adv-x="396" 
d="M374 466q0 -7 -4 -13t-11 -6h-8q-37 0 -69 -10t-60 -25v-391q0 -8 -6 -14.5t-14 -6.5h-121q-8 0 -14.5 6.5t-6.5 14.5v532q0 8 6 14t14 6h119q8 0 14 -6t6 -14v-20q28 23 63.5 35.5t71.5 12.5q8 0 14 -6t6 -14v-95v0z" />
    <glyph glyph-name="s" unicode="s" horiz-adv-x="503" 
d="M461 159q0 -35 -13 -66t-39.5 -53.5t-66.5 -35.5t-95 -13q-21 0 -44.5 1.5t-48 4.5t-47.5 7t-42 9t-19 23v81q0 8 5 13.5t14 5.5h4q20 -3 44.5 -5.5t48.5 -4.5t44.5 -3t32.5 -1q36 0 47.5 9.5t11.5 29.5q0 11 -8 20.5t-29 21.5l-130 75q-42 24 -65.5 61.5t-23.5 86.5
q0 76 50.5 115.5t154.5 39.5q59 0 99.5 -6.5t78.5 -16.5q19 -5 19 -23v-81q0 -19 -17 -19h-3q-11 1 -31 3.5t-43.5 4.5t-48 3.5t-43.5 1.5q-29 0 -41 -6t-12 -23q0 -11 8 -18.5t23 -16.5l124 -71q31 -18 50.5 -36.5t31 -38t15.5 -39.5t4 -40z" />
    <glyph glyph-name="t" unicode="t" horiz-adv-x="421" 
d="M390 19q0 -17 -19 -20q-23 -4 -40 -6t-39 -2q-41 0 -72.5 6.5t-52.5 25.5t-32 52.5t-11 86.5v290l-80 13q-8 2 -14.5 7.5t-6.5 13.5v66q0 8 6.5 14.5t14.5 6.5h80v82q0 8 6 13t14 7l122 21h3q8 0 13 -4.5t5 -12.5v-106h82q8 0 14 -6t6 -14v-81q0 -8 -6 -14t-14 -6h-82
v-291q0 -30 5 -38.5t28 -8.5h49q21 0 21 -17v-78v0z" />
    <glyph glyph-name="u" unicode="u" horiz-adv-x="612" 
d="M552 20q0 -8 -6 -14t-14 -6h-112q-8 0 -14 6t-6 14v24q-41 -29 -78 -40.5t-85 -11.5q-54 0 -88.5 17.5t-54 48.5t-27 72.5t-7.5 88.5v333q0 8 6.5 14.5t14.5 6.5h121q8 0 14 -6.5t6 -14.5v-333q0 -26 3 -44t11 -29t22.5 -15.5t37.5 -4.5q22 0 45 9t49 23v394q0 8 6 14.5
t14 6.5h121q8 0 14.5 -6.5t6.5 -14.5v-532v0z" />
    <glyph glyph-name="v" unicode="v" horiz-adv-x="585" 
d="M564 556q0 -4 -1 -6l-126 -454q-9 -33 -24.5 -54t-35 -32t-41.5 -15t-44 -4t-44 4t-41 15t-34.5 32t-24.5 54l-125 454q-1 2 -1 6q0 17 16 17h132q8 0 13.5 -6t7.5 -15l86 -392q4 -21 15 -21q12 0 16 21l86 392q2 9 7.5 15t13.5 6h132q7 0 12 -4.5t5 -12.5z" />
    <glyph glyph-name="w" unicode="w" horiz-adv-x="845" 
d="M816 552l-89 -482q-8 -43 -32.5 -56.5t-55.5 -13.5h-61q-36 0 -56 17.5t-28 46.5l-67 261q-1 5 -5 5t-5 -5l-67 -261q-8 -29 -28 -46.5t-56 -17.5h-61q-16 0 -30 3t-25.5 10.5t-20 21.5t-12.5 35l-89 482v4q0 7 4 12t11 5h121q9 0 14 -3t7 -14l59 -380q2 -13 6 -13
q5 0 8 13l67 264q7 26 19.5 35.5t36.5 9.5h82q24 0 36.5 -9.5t19.5 -35.5l67 -264q3 -13 8 -13q4 0 6 13l59 380q2 11 7 14t14 3h121q7 0 11 -5t4 -12v-4z" />
    <glyph glyph-name="x" unicode="x" horiz-adv-x="617" 
d="M585 14q0 -5 -4 -9.5t-10 -4.5h-151q-8 0 -13.5 5t-12.5 16l-99 155l-93 -156q-7 -11 -12.5 -15.5t-13.5 -4.5h-134q-11 0 -11 12q0 5 2 8l175 278l-170 254q-2 4 -2 6q0 6 4.5 10.5t10.5 4.5h149q8 0 13.5 -5.5t12.5 -15.5l89 -138l82 138q7 11 12.5 16t13.5 5h134
q12 0 12 -13q0 -5 -2 -8l-165 -262l181 -269q2 -4 2 -7z" />
    <glyph glyph-name="y" unicode="y" horiz-adv-x="592" 
d="M570 555q0 -2 -0.5 -2.5t-0.5 -2.5l-168 -589q-12 -41 -27 -71.5t-39 -50.5t-61 -30.5t-92 -10.5q-14 0 -31 1.5t-34 3.5t-32 5t-24 6q-8 3 -14.5 6.5t-6.5 11.5v81q0 8 6 13.5t14 5.5h2q12 -1 28.5 -2t34 -2.5t34 -2.5t28.5 -1q27 0 42 11t24 41l9 31h-15
q-14 0 -26.5 2.5t-24.5 11.5t-22.5 27.5t-19.5 51.5l-132 450q-1 3 -1 7q0 16 20 16h133q8 0 12.5 -5.5t6.5 -13.5l90 -376q4 -19 12 -19h1h4h4l93 395q2 8 7.5 13.5t13.5 5.5h133q8 0 13.5 -5t5.5 -13z" />
    <glyph glyph-name="z" unicode="z" horiz-adv-x="515" 
d="M472 20q0 -8 -6 -14t-14 -6h-375q-14 0 -24 9.5t-10 23.5v64q0 11 3 19t11 19l217 296q3 4 3 7q0 5 -7 5h-201q-17 0 -17 16v94q0 8 6 14t14 6h365q14 0 23.5 -10t9.5 -24v-74q0 -8 -2 -16.5t-9 -18.5l-207 -283q-3 -5 -3 -7q0 -4 7 -4h198q8 0 13 -4t5 -12v-100v0z" />
    <glyph glyph-name="braceleft" unicode="{" horiz-adv-x="407" 
d="M377 -174q0 -8 -6 -14t-14 -6h-58q-56 0 -94.5 9t-62.5 30t-34.5 56.5t-10.5 89.5v131q0 36 -14.5 60.5t-42.5 42.5v95q28 18 42 42.5t14 60.5v135q0 54 10.5 89.5t34.5 56.5t62.5 30t94.5 9h58q8 0 14 -6t6 -14v-87q0 -8 -6 -14t-14 -6h-58q-24 0 -31 -10.5t-7 -47.5
v-135q0 -52 -19 -89.5t-64 -60.5q45 -23 64 -61t19 -90v-131q0 -37 7.5 -47.5t31.5 -10.5h58q8 0 14 -6t6 -14v-87v0z" />
    <glyph glyph-name="bar" unicode="|" horiz-adv-x="290" 
d="M227 -173q0 -8 -6 -14.5t-14 -6.5h-123q-8 0 -14.5 6.5t-6.5 14.5v896q0 8 6.5 14t14.5 6h123q8 0 14 -6t6 -14v-896v0z" />
    <glyph glyph-name="braceright" unicode="}" horiz-adv-x="407" 
d="M367 225q-28 -18 -42.5 -42.5t-14.5 -60.5v-131q0 -54 -11 -89.5t-35 -56.5t-62.5 -30t-93.5 -9h-58q-8 0 -14 6t-6 14v87q0 8 6 14t14 6h58q24 0 31.5 10.5t7.5 47.5v131q0 52 19 90t64 61q-45 23 -64 60.5t-19 89.5v135q0 37 -7 47.5t-31 10.5h-58q-8 0 -14 6t-6 14v87
q0 8 6 14t14 6h58q55 0 93.5 -9t62.5 -30t35 -56.5t11 -89.5v-135q0 -36 14 -60.5t42 -42.5v-95v0z" />
    <glyph glyph-name="asciitilde" unicode="~" 
d="M576 480q0 -79 -35.5 -115t-107.5 -36q-29 0 -51.5 9t-39.5 20l-71 43q-14 8 -24.5 10.5t-18.5 2.5q-21 0 -26 -12t-5 -28v-18q0 -8 -5 -14t-13 -6h-89q-20 0 -20 20v18q0 45 10 75.5t29 48.5t45.5 26t58.5 8q14 0 36.5 -4t36.5 -13l90 -54q14 -8 24.5 -11t18.5 -3
q16 0 22.5 7t6.5 26v25q0 20 19 20h89q20 0 20 -20v-25v0z" />
    <glyph glyph-name="uni00A0" unicode="&#xa0;" horiz-adv-x="260" 
 />
    <glyph glyph-name="exclamdown" unicode="&#xa1;" horiz-adv-x="273" 
d="M215 427q0 -8 -6 -13.5t-14 -5.5h-118q-19 0 -19 19v126q0 8 5.5 14t13.5 6h118q8 0 14 -6t6 -14v-126zM220 -175q0 -8 -7 -13.5t-15 -5.5h-125q-8 0 -14 5.5t-6 13.5v1l20 499q1 8 6.5 14.5t13.5 6.5h85q8 0 15 -6.5t7 -14.5l20 -499v-1z" />
    <glyph glyph-name="cent" unicode="&#xa2;" 
d="M516 29q0 -11 -5 -15.5t-16 -7.5q-14 -4 -33.5 -7.5t-45.5 -5.5v-73q0 -8 -6 -14t-14 -6h-101q-8 0 -14 6t-6 14v84q-69 23 -107.5 84t-38.5 156v84q0 95 38.5 156t107.5 84v82q0 8 6 14t14 6h101q8 0 14 -6t6 -14v-71q26 -2 45.5 -5.5t33.5 -7.5q11 -3 16 -7.5t5 -15.5
v-89q0 -8 -5.5 -12.5t-13.5 -4.5h-2q-28 3 -53.5 5t-68.5 2q-17 0 -32 -5.5t-26 -19t-17.5 -36t-6.5 -55.5v-84q0 -33 6.5 -55.5t17.5 -36t26 -19t32 -5.5q43 0 68.5 2t53.5 5h2q8 0 13.5 -4.5t5.5 -12.5v-89v0z" />
    <glyph glyph-name="sterling" unicode="&#xa3;" 
d="M577 614q0 -18 -16 -18h-3q-32 4 -78.5 8t-86.5 4q-49 0 -70 -15.5t-21 -63.5v-84h169q8 0 14 -5.5t6 -13.5v-97q0 -19 -19 -19h-170v-100q0 -25 -6 -43.5t-14 -32.5h274q8 0 14 -5t6 -13v-97q0 -8 -6 -13.5t-14 -5.5h-442q-11 0 -15 8t-4 16v70q0 9 3 14l6 10
q11 14 22 40t11 52v100h-50q-19 0 -19 19v97q0 8 6 13.5t14 5.5h49v83q0 58 14 100.5t44.5 70t79 40.5t118.5 13q21 0 45.5 -2t47 -5t41.5 -6t31 -6q14 -3 16.5 -7.5t2.5 -12.5v-99v0z" />
    <glyph glyph-name="currency" unicode="&#xa4;" 
d="M583 557q0 -8 -7 -15l-86 -85q23 -41 23 -86q0 -48 -24 -90l84 -84q7 -7 7 -15q0 -6 -5 -11l-57 -57q-5 -5 -11 -5q-8 0 -15 7l-86 87q-38 -21 -82 -21q-46 0 -86 22l-85 -85q-3 -3 -7 -5.5t-9 -2.5t-10 5l-57 57q-5 5 -5 12q0 8 7 15l85 84q-23 41 -23 87q0 21 4.5 42
t15.5 40l-85 86q-7 7 -7 15q0 6 5 11l57 57q5 5 11 5q8 0 15 -7l83 -83q21 12 44.5 17.5t46.5 5.5q46 0 86 -22l85 85q7 7 15 7q6 0 11 -5l57 -57q5 -5 5 -11zM410 374q0 35 -24.5 59t-59.5 24t-60 -24t-25 -59t25 -59.5t60 -24.5t59.5 24.5t24.5 59.5z" />
    <glyph glyph-name="yen" unicode="&#xa5;" 
d="M623 730q0 -6 -2 -9l-111 -224h87q8 0 14 -5.5t6 -13.5v-74q0 -19 -19 -19h-142l-46 -92l-2 -11h189q8 0 14 -5t6 -13v-75q0 -18 -19 -18h-190v-151q0 -8 -6 -14t-14 -6h-133q-8 0 -13.5 6t-5.5 14v151h-189q-8 0 -14 5t-6 13v75q0 8 6 13t14 5h189l-1 11l-45 92h-143
q-8 0 -14 5.5t-6 13.5v74q0 8 6 13.5t14 5.5h88l-111 224q-2 3 -2 9q0 13 15 13h147q8 0 12 -5t7 -12l119 -270l120 270q3 7 7 12t12 5h147q15 0 15 -13z" />
    <glyph glyph-name="brokenbar" unicode="&#xa6;" horiz-adv-x="290" 
d="M227 363q0 -8 -6 -14.5t-14 -6.5h-123q-8 0 -14.5 6.5t-6.5 14.5v345q0 8 6.5 14t14.5 6h123q8 0 14 -6t6 -14v-345zM227 -190q0 -8 -6 -14.5t-14 -6.5h-123q-8 0 -14.5 6.5t-6.5 14.5v345q0 8 6.5 14t14.5 6h123q8 0 14 -6t6 -14v-345z" />
    <glyph glyph-name="section" unicode="&#xa7;" horiz-adv-x="589" 
d="M549 1q0 -39 -14 -78t-45.5 -69.5t-84 -50t-128.5 -19.5q-60 0 -108.5 6t-86.5 16q-8 2 -14 7t-6 13v101q0 8 6 13.5t14 5.5h2q48 -5 93.5 -9.5t93.5 -4.5h6q52 1 73 16t21 53q0 22 -15.5 37.5t-55.5 37.5l-133 73q-39 21 -63.5 43t-38.5 47t-19.5 53.5t-5.5 61.5
q0 10 2.5 23.5t6.5 27.5t9.5 28t11.5 24q-12 14 -20.5 40t-8.5 55q0 41 12.5 77.5t42 63.5t78.5 43t122 16q27 0 58.5 -2t60.5 -5t54 -7t39 -8q8 -2 14 -6.5t6 -12.5v-102q0 -14 -13 -14h-1q-54 3 -108.5 5.5t-109.5 2.5q-45 0 -64 -9.5t-19 -41.5q0 -19 15.5 -33.5
t56.5 -36.5l128 -69q78 -42 107 -90.5t29 -109.5q0 -28 -8 -57.5t-18 -48.5q14 -23 20 -50t6 -56zM407 220q0 16 -4 28.5t-15 24.5t-29.5 24t-47.5 28l-72 39q-19 11 -30.5 18t-18.5 13q-9 -9 -13 -22.5t-4 -28.5q0 -14 3 -25t12 -21t26 -21t45 -26l70 -37q22 -11 40 -24.5
l26 -19.5q12 21 12 50z" />
    <glyph glyph-name="dieresis" unicode="&#xa8;" horiz-adv-x="443" 
d="M399 658q0 -8 -7 -14t-15 -6h-94q-8 0 -14.5 6t-6.5 14v93q0 8 6.5 14t14.5 6h94q8 0 15 -6t7 -14v-93zM182 658q0 -8 -6.5 -14t-14.5 -6h-94q-8 0 -15 6t-7 14v93q0 8 7 14t15 6h94q8 0 14.5 -6t6.5 -14v-93z" />
    <glyph glyph-name="copyright" unicode="&#xa9;" horiz-adv-x="750" 
d="M708 374q0 -69 -26.5 -129.5t-71.5 -105.5t-106 -71t-130 -26t-129.5 26t-105.5 71t-71 105.5t-26 129.5t26 130t71 106.5t105.5 72t129.5 26.5t130 -26.5t106 -72t71.5 -106.5t26.5 -130zM656 374q0 58 -22.5 109.5t-60.5 90t-89.5 61t-109.5 22.5t-109 -22.5t-89.5 -61
t-60.5 -90t-22 -109.5t22 -109t60.5 -89t89.5 -60t109 -22t109.5 22t89.5 60t60.5 89t22.5 109zM477 183q0 -11 -13 -14q-13 -4 -33 -6.5t-49 -2.5q-81 0 -125.5 46t-44.5 143v56q0 98 44.5 143.5t125.5 45.5q29 0 49.5 -3.5t32.5 -6.5q7 -2 10 -4t3 -8v-63q0 -12 -12 -12
h-2q-17 2 -34.5 3.5t-46.5 1.5q-13 0 -25 -4t-21.5 -15t-15 -29.5t-5.5 -48.5v-56q0 -30 5.5 -49.5t15 -30t21.5 -14.5t25 -4q26 0 45 1.5t36 3.5h3q11 0 11 -11v-62z" />
    <glyph glyph-name="ordfeminine" unicode="&#xaa;" horiz-adv-x="357" 
d="M320 418q0 -14 -8 -16q-31 -8 -63.5 -12t-64.5 -4q-78 0 -114.5 27t-36.5 84v7q0 55 43 77t116 22h22v13q0 27 -8.5 36t-33.5 9q-9 0 -23 -0.5t-28.5 -1.5t-28 -1.5t-20.5 -1.5h-1q-13 0 -13 14v50q0 11 14 15q15 5 43 10t57 5q33 0 60 -6.5t46.5 -22t30.5 -41.5t11 -64
v-198zM214 544h-22q-29 0 -43.5 -9t-14.5 -31v-7q0 -21 12 -28.5t38 -7.5q10 0 17 1t13 2v80z" />
    <glyph glyph-name="guillemotleft" unicode="&#xab;" horiz-adv-x="718" 
d="M685 74q0 -11 -14 -11h-122q-11 0 -17 2.5t-12 9.5l-160 185q-5 6 -7.5 13t-2.5 13t2.5 13t7.5 13l160 185q6 7 12 9.5t17 2.5h122q14 0 14 -11q0 -3 -4 -9l-176 -203l176 -203q4 -6 4 -9zM380 74q0 -11 -14 -11h-121q-11 0 -17.5 2.5t-12.5 9.5l-160 185q-5 6 -7.5 13
t-2.5 13t2.5 13t7.5 13l160 185q6 7 12.5 9.5t17.5 2.5h121q14 0 14 -11q0 -3 -4 -9l-176 -203l176 -203q4 -6 4 -9z" />
    <glyph glyph-name="logicalnot" unicode="&#xac;" 
d="M552 198q0 -8 -5.5 -14t-13.5 -6h-85q-8 0 -13 6t-5 14v261h-317q-8 0 -14 4t-6 12v89q0 8 6 12t14 4h420q19 0 19 -16v-366v0z" />
    <glyph glyph-name="uni00AD" unicode="&#xad;" horiz-adv-x="302" 
d="M268 264q0 -8 -6 -13t-14 -5h-194q-8 0 -14 5t-6 13v80q0 8 6 13.5t14 5.5h194q8 0 14 -5.5t6 -13.5v-80v0z" />
    <glyph glyph-name="registered" unicode="&#xae;" horiz-adv-x="598" 
d="M579 484q0 -58 -22 -108.5t-60 -88.5t-89 -60t-109 -22t-108.5 22t-88.5 60t-60 88.5t-22 108.5t22 108.5t60 88.5t88.5 60t108.5 22t109 -22t89 -60t60 -88.5t22 -108.5zM528 484q0 47 -18 89t-49 73t-73 49t-89 18t-88.5 -18t-72.5 -49t-49 -73t-18 -89t18 -89t49 -73
t72.5 -49t88.5 -18t89 18t73 49t49 73t18 89zM437 330q0 -10 -10 -10h-67q-6 0 -10 8l-63 111q-2 0 -4 3t-4 3h-26v-114q0 -11 -11 -11h-60q-11 0 -11 11v294q0 16 5.5 22t19.5 8q6 1 16.5 1.5t23.5 1.5t26 1.5t23 0.5q66 0 103 -23.5t37 -84.5v-7q0 -35 -16.5 -55.5
t-42.5 -31.5l69 -121q2 -4 2 -7zM346 552q0 20 -12.5 29.5t-41.5 9.5h-41v-85h8t13 -0.5t12.5 -0.5h7.5q29 0 41.5 10t12.5 30v7z" />
    <glyph glyph-name="macron" unicode="&#xaf;" horiz-adv-x="443" 
d="M404 672q0 -8 -6 -13.5t-14 -5.5h-324q-8 0 -14 5.5t-6 13.5v72q0 8 6 13.5t14 5.5h324q8 0 14 -5.5t6 -13.5v-72v0z" />
    <glyph glyph-name="degree" unicode="&#xb0;" horiz-adv-x="361" 
d="M334 598q0 -32 -12 -60t-32.5 -49t-48.5 -33t-60 -12t-60 12t-49 33t-33 49t-12 60t12 60t33 49t49 33t60 12t60 -12t48.5 -33t32.5 -49t12 -60zM253 598q0 30 -21.5 51.5t-50.5 21.5t-50.5 -21.5t-21.5 -51.5q0 -29 21 -50.5t51 -21.5t51 21.5t21 50.5z" />
    <glyph glyph-name="plusminus" unicode="&#xb1;" 
d="M558 346q0 -8 -6 -12t-14 -4h-155v-154q0 -8 -4 -14t-12 -6h-90q-8 0 -12 6t-4 14v154h-154q-8 0 -14 4t-6 12v90q0 8 6 12t14 4h154v155q0 8 4 14t12 6h90q8 0 12 -6t4 -14v-155h155q8 0 14 -4t6 -12v-90zM558 -4q0 -8 -6 -12t-14 -4h-431q-8 0 -14 4t-6 12v71q0 8 6 12
t14 4h431q8 0 14 -4t6 -12v-71z" />
    <glyph glyph-name="two.superior" unicode="&#xb2;" horiz-adv-x="355" 
d="M164 585q16 12 26 19t16 12.5t8 11t2 14.5q0 14 -10.5 20t-40.5 6q-24 0 -52 -2t-54 -5q-8 0 -12.5 5t-4.5 12v42q0 7 4.5 11t9.5 6q23 7 55 12t62 5q78 0 111.5 -27.5t33.5 -81.5q0 -35 -17 -60t-49 -47l-45 -31q-35 -24 -54.5 -41.5t-21.5 -42.5h165q7 0 12 -3.5
t5 -11.5v-56q0 -7 -5 -12t-12 -5h-241q-7 0 -12 5t-5 12v55q0 47 22 83t54 59z" />
    <glyph glyph-name="three.superior" unicode="&#xb3;" horiz-adv-x="355" 
d="M315 456q0 -66 -40.5 -96t-106.5 -30q-32 0 -62 4.5t-52 10.5q-6 2 -10.5 5.5t-4.5 11.5v43q0 16 17 16q29 -2 60 -3.5t48 -1.5q26 0 36.5 10t10.5 30v10q0 15 -7 27.5t-30 12.5h-95q-8 0 -12 5t-4 12v46q0 16 16 16h93q23 0 31 12.5t8 28.5v8q0 15 -9 24.5t-38 9.5
q-17 0 -44 -1t-53 -5q-10 -2 -18 -0.5t-8 15.5v43q0 8 4.5 11.5t10.5 5.5q21 6 50 11.5t62 5.5q69 0 108 -27t39 -90v-8q0 -23 -11.5 -46t-31.5 -37q21 -13 32 -34t11 -46v-10v0z" />
    <glyph glyph-name="acute" unicode="&#xb4;" horiz-adv-x="443" 
d="M416 772q0 -4 -4 -8l-122 -122q-6 -6 -10 -9t-14 -3h-107q-9 0 -9 7q0 5 4 10l93 117q7 8 11.5 11.5t15.5 3.5h131q11 0 11 -7z" />
    <glyph glyph-name="mu" unicode="&#xb5;" horiz-adv-x="612" 
d="M552 49q0 -11 -6.5 -18t-24.5 -13q-34 -11 -87.5 -19t-123.5 -8q-50 0 -89 9v-171q0 -8 -6 -14t-14 -6h-122q-8 0 -14 6t-6 14v722q0 8 6.5 15t14.5 7h121q8 0 14.5 -7t6.5 -15v-332q0 -52 20.5 -73.5t67.5 -21.5q24 0 44.5 1.5t35.5 5.5v420q0 8 6 15t14 7h121
q8 0 14.5 -7t6.5 -15v-502v0z" />
    <glyph glyph-name="paragraph" unicode="&#xb6;" horiz-adv-x="659" 
d="M602 -176q0 -8 -4.5 -13.5t-12.5 -5.5h-43q-8 0 -12.5 5.5t-4.5 13.5v843h-63v-843q0 -8 -4.5 -13.5t-12.5 -5.5h-43q-8 0 -12.5 5.5t-4.5 13.5v418h-96q-52 0 -96.5 14.5t-77.5 43t-51.5 70t-18.5 95.5v55q0 54 18.5 95.5t51.5 70t77.5 43t96.5 14.5h297q16 0 16 -19
v-900v0z" />
    <glyph glyph-name="periodcentered" unicode="&#xb7;" horiz-adv-x="274" 
d="M216 319q0 -8 -6 -14t-14 -6h-117q-8 0 -14.5 6t-6.5 14v126q0 8 6.5 13.5t14.5 5.5h117q8 0 14 -5.5t6 -13.5v-126v0z" />
    <glyph glyph-name="cedilla" unicode="&#xb8;" horiz-adv-x="426" 
d="M324 -45q0 -4 -4 -8l-127 -130q-6 -6 -10 -9t-14 -3h-107q-9 0 -9 7q0 5 4 10l97 125q7 8 11.5 11.5t15.5 3.5h132q11 0 11 -7z" />
    <glyph glyph-name="one.superior" unicode="&#xb9;" horiz-adv-x="241" 
d="M114 746q6 3 14 3h49q10 0 12.5 -5t2.5 -12v-380q0 -17 -15 -17h-71q-7 0 -12 3.5t-5 13.5v290l-53 -23q-20 -7 -20 12v62q0 9 10 13z" />
    <glyph glyph-name="ordmasculine" unicode="&#xba;" horiz-adv-x="380" 
d="M347 551q0 -84 -40.5 -124.5t-115.5 -40.5t-116 40.5t-41 124.5v33q0 84 41 125t116 41t115.5 -41t40.5 -125v-33zM240 584q0 42 -11.5 59t-37.5 17t-38.5 -17t-12.5 -59v-33q0 -42 12.5 -59t38.5 -17t37.5 17t11.5 59v33z" />
    <glyph glyph-name="guillemotright" unicode="&#xbb;" horiz-adv-x="718" 
d="M683 286q0 -13 -11 -26l-160 -185q-6 -7 -12 -9.5t-17 -2.5h-121q-14 0 -14 11q0 3 4 9l176 203l-176 203q-4 6 -4 9q0 11 14 11h121q11 0 17 -2.5t12 -9.5l160 -185q11 -13 11 -26zM378 286q0 -6 -2.5 -13t-7.5 -13l-160 -185q-6 -7 -12.5 -9.5t-17.5 -2.5h-121
q-14 0 -14 11q0 3 4 9l176 203l-176 203q-4 6 -4 9q0 11 14 11h121q11 0 17.5 -2.5t12.5 -9.5l160 -185q5 -6 7.5 -13t2.5 -13z" />
    <glyph glyph-name="onequarter" unicode="&#xbc;" horiz-adv-x="772" 
d="M128 746q6 3 14 3h49q10 0 12.5 -5t2.5 -12v-380q0 -17 -15 -17h-71q-7 0 -12 3.5t-5 13.5v290l-53 -23q-20 -7 -20 12v62q0 9 10 13zM636 735q0 -7 -4 -12l-416 -702q-6 -11 -10.5 -16t-12.5 -5h-103q-11 0 -11 11q0 4 3 10l416 702q7 11 12 15.5t13 4.5h103q10 0 10 -8
zM742 107q0 -7 -5 -12t-11 -5h-30v-73q0 -7 -4 -12t-12 -5h-72q-8 0 -12 5t-4 12v73h-151q-6 0 -11 5t-5 12v52q0 10 7 21l171 224q8 10 18 10h58q7 0 12 -5t5 -12v-224h30q6 0 11 -4.5t5 -12.5v-49zM595 276l-76 -103h76v103z" />
    <glyph glyph-name="onehalf" unicode="&#xbd;" horiz-adv-x="804" 
d="M128 746q6 3 14 3h49q10 0 12.5 -5t2.5 -12v-380q0 -17 -15 -17h-71q-7 0 -12 3.5t-5 13.5v290l-53 -23q-20 -7 -20 12v62q0 9 10 13zM636 735q0 -7 -4 -12l-416 -702q-6 -11 -10.5 -16t-12.5 -5h-103q-11 0 -11 11q0 4 3 10l416 702q7 11 12 15.5t13 4.5h103q10 0 10 -8
zM620 250q16 12 26 19t16 12.5t8 11t2 14.5q0 14 -10.5 20t-40.5 6q-24 0 -52 -2t-54 -5q-8 0 -12.5 5t-4.5 12v42q0 7 4.5 11t9.5 6q23 7 55 12t62 5q78 0 111.5 -27.5t33.5 -81.5q0 -35 -17 -60t-49 -47l-45 -31q-35 -24 -54.5 -41.5t-21.5 -42.5h165q7 0 12 -3.5t5 -11.5
v-56q0 -7 -5 -12t-12 -5h-241q-7 0 -12 5t-5 12v55q0 47 22 83t54 59z" />
    <glyph glyph-name="threequarters" unicode="&#xbe;" horiz-adv-x="835" 
d="M699 735q0 -7 -4 -12l-416 -702q-6 -11 -10.5 -16t-12.5 -5h-103q-11 0 -11 11q0 4 3 10l416 702q7 11 12 15.5t13 4.5h103q10 0 10 -8zM805 107q0 -7 -5 -12t-11 -5h-30v-73q0 -7 -4 -12t-12 -5h-72q-8 0 -12 5t-4 12v73h-151q-6 0 -11 5t-5 12v52q0 10 7 21l171 224
q8 10 18 10h58q7 0 12 -5t5 -12v-224h30q6 0 11 -4.5t5 -12.5v-49zM658 276l-76 -103h76v103zM306 456q0 -66 -40.5 -96t-106.5 -30q-32 0 -62 4.5t-52 10.5q-6 2 -10.5 5.5t-4.5 11.5v43q0 16 17 16q29 -2 60 -3.5t48 -1.5q26 0 36.5 10t10.5 30v10q0 15 -7 27.5t-30 12.5
h-95q-8 0 -12 5t-4 12v46q0 16 16 16h93q23 0 31 12.5t8 28.5v8q0 15 -9 24.5t-38 9.5q-17 0 -44 -1t-53 -5q-10 -2 -18 -0.5t-8 15.5v43q0 8 4.5 11.5t10.5 5.5q21 6 50 11.5t62 5.5q69 0 108 -27t39 -90v-8q0 -23 -11.5 -46t-31.5 -37q21 -13 32 -34t11 -46v-10z" />
    <glyph glyph-name="questiondown" unicode="&#xbf;" horiz-adv-x="479" 
d="M375 428q0 -8 -6 -14t-14 -6h-118q-8 0 -14 6t-6 14v126q0 8 6 13.5t14 5.5h118q8 0 14 -5.5t6 -13.5v-126zM445 -143q0 -11 -3.5 -17t-14.5 -9q-32 -10 -75 -15.5t-85 -5.5q-52 0 -92.5 8.5t-68.5 28t-43 51t-15 78.5v17q0 34 17.5 68.5t59.5 88.5l45 58q17 22 28 36
t17 23.5t8.5 16.5t2.5 15v28q0 9 8 14t16 5h100q8 0 13.5 -6t5.5 -14v-27q0 -20 -1 -36t-5.5 -31t-13 -30.5t-22.5 -34.5l-48 -63q-28 -37 -37 -58t-9 -43v-10q0 -17 11.5 -27t37.5 -10q39 0 73 3t70 8h3q17 0 17 -21v-89z" />
    <glyph glyph-name="Agrave" unicode="&#xc0;" horiz-adv-x="669" 
d="M650 16q0 -16 -17 -16h-140q-8 0 -13 5t-7 13l-36 164h-205l-36 -164q-2 -8 -7 -13t-13 -5h-140q-17 0 -17 16q0 1 0.5 2t0.5 3l149 620q9 36 26 58t39.5 33.5t48.5 15.5t52 4t51.5 -4t48 -15.5t39.5 -33.5t26 -58l149 -620q0 -2 0.5 -3t0.5 -2zM348 595q-2 8 -4 11.5
t-9 3.5q-11 0 -14 -15l-61 -276h149zM453 801q0 -7 -9 -7h-107q-10 0 -14 3t-10 9l-122 122q-4 4 -4 8q0 7 11 7h132q11 0 15.5 -3.5t11.5 -11.5l92 -117q4 -5 4 -10z" />
    <glyph glyph-name="Aacute" unicode="&#xc1;" horiz-adv-x="669" 
d="M650 16q0 -16 -17 -16h-140q-8 0 -13 5t-7 13l-36 164h-205l-36 -164q-2 -8 -7 -13t-13 -5h-140q-17 0 -17 16q0 1 0.5 2t0.5 3l149 620q9 36 26 58t39.5 33.5t48.5 15.5t52 4t51.5 -4t48 -15.5t39.5 -33.5t26 -58l149 -620q0 -2 0.5 -3t0.5 -2zM348 595q-2 8 -4 11.5
t-9 3.5q-11 0 -14 -15l-61 -276h149zM497 936q0 -4 -4 -8l-122 -122q-6 -6 -10 -9t-14 -3h-107q-9 0 -9 7q0 5 4 10l93 117q7 8 11.5 11.5t15.5 3.5h131q11 0 11 -7z" />
    <glyph glyph-name="Acircumflex" unicode="&#xc2;" horiz-adv-x="669" 
d="M650 16q0 -16 -17 -16h-140q-8 0 -13 5t-7 13l-36 164h-205l-36 -164q-2 -8 -7 -13t-13 -5h-140q-17 0 -17 16q0 1 0.5 2t0.5 3l149 620q9 36 26 58t39.5 33.5t48.5 15.5t52 4t51.5 -4t48 -15.5t39.5 -33.5t26 -58l149 -620q0 -2 0.5 -3t0.5 -2zM348 595q-2 8 -4 11.5
t-9 3.5q-11 0 -14 -15l-61 -276h149zM534 802q0 -7 -9 -7h-103q-10 0 -14 2.5t-10 9.5l-63 70l-64 -70q-6 -7 -10 -9.5t-14 -2.5h-103q-9 0 -9 7q0 5 4 10l89 117q7 8 11.5 11.5t15.5 3.5h160q11 0 15.5 -3t11.5 -12l88 -117q4 -5 4 -10z" />
    <glyph glyph-name="Atilde" unicode="&#xc3;" horiz-adv-x="669" 
d="M650 16q0 -16 -17 -16h-140q-8 0 -13 5t-7 13l-36 164h-205l-36 -164q-2 -8 -7 -13t-13 -5h-140q-17 0 -17 16q0 1 0.5 2t0.5 3l149 620q9 36 26 58t39.5 33.5t48.5 15.5t52 4t51.5 -4t48 -15.5t39.5 -33.5t26 -58l149 -620q0 -2 0.5 -3t0.5 -2zM348 595q-2 8 -4 11.5
t-9 3.5q-11 0 -14 -15l-61 -276h149zM535 907q0 -66 -32.5 -93t-89.5 -27q-15 0 -35 5.5t-36 16.5l-42 29q-26 18 -41 18q-10 0 -16.5 -5.5t-6.5 -21.5v-19q0 -17 -15 -17h-71q-15 0 -15 17v19q0 65 33 92t90 27q15 0 34.5 -5t35.5 -16l43 -28q13 -8 22.5 -13t17.5 -5
q11 0 17 5.5t6 21.5v19q0 16 16 16h70q15 0 15 -16v-20z" />
    <glyph glyph-name="Adieresis" unicode="&#xc4;" horiz-adv-x="669" 
d="M650 16q0 -16 -17 -16h-140q-8 0 -13 5t-7 13l-36 164h-205l-36 -164q-2 -8 -7 -13t-13 -5h-140q-17 0 -17 16q0 1 0.5 2t0.5 3l149 620q9 36 26 58t39.5 33.5t48.5 15.5t52 4t51.5 -4t48 -15.5t39.5 -33.5t26 -58l149 -620q0 -2 0.5 -3t0.5 -2zM348 595q-2 8 -4 11.5
t-9 3.5q-11 0 -14 -15l-61 -276h149zM511 821q0 -8 -7 -14t-15 -6h-94q-8 0 -14.5 6t-6.5 14v93q0 8 6.5 14t14.5 6h94q8 0 15 -6t7 -14v-93zM294 821q0 -8 -6.5 -14t-14.5 -6h-94q-8 0 -15 6t-7 14v93q0 8 7 14t15 6h94q8 0 14.5 -6t6.5 -14v-93z" />
    <glyph glyph-name="Aring" unicode="&#xc5;" horiz-adv-x="669" 
d="M650 16q0 -16 -17 -16h-140q-8 0 -13 5t-7 13l-36 164h-205l-36 -164q-2 -8 -7 -13t-13 -5h-140q-17 0 -17 16q0 1 0.5 2t0.5 3l149 620q9 36 26 58t39.5 33.5t48.5 15.5t52 4t51.5 -4t48 -15.5t39.5 -33.5t26 -58l149 -620q0 -2 0.5 -3t0.5 -2zM348 595q-2 8 -4 11.5
t-9 3.5q-11 0 -14 -15l-61 -276h149zM451 895q0 -24 -9 -45.5t-25 -37.5t-37.5 -25t-45.5 -9t-45.5 9t-37.5 25t-25 37.5t-9 45.5t9 45.5t25 37.5t37.5 25t45.5 9t45.5 -9t37.5 -25t25 -37.5t9 -45.5zM378 895q0 18 -13 31t-31 13t-31 -13t-13 -31t13 -31t31 -13t31 13
t13 31z" />
    <glyph glyph-name="AE" unicode="&#xc6;" horiz-adv-x="923" 
d="M867 25q0 -18 -20 -21l-26 -4t-31 -4t-45 -3.5t-67 -1.5q-46 0 -88 7t-75 28t-54 58.5t-25 97.5h-204l-36 -164q-2 -8 -7 -13t-13 -5h-140q-17 0 -17 16q0 1 0.5 2t0.5 3l149 620q9 36 26 56.5t39.5 30.5t48.5 12.5t52 2.5h512q20 0 20 -20v-97q0 -8 -6 -14t-14 -6h-242
v-159h234q8 0 14 -6t6 -14v-95q0 -8 -6 -14t-14 -6h-234v-106q0 -39 14.5 -53.5t49.5 -14.5h178q8 0 14 -6t6 -14v-93zM435 610h-100q-11 0 -14 -15l-61 -276h175v291z" />
    <glyph glyph-name="Ccedilla" unicode="&#xc7;" horiz-adv-x="561" 
d="M520 31q0 -11 -5.5 -15.5t-16.5 -7.5q-16 -5 -56 -11t-93 -6q-57 0 -110.5 16t-94.5 53.5t-66 98.5t-25 150v126q0 89 25 150t66 98t94.5 53t110.5 16q53 0 93 -6t56 -11q11 -3 16.5 -7t5.5 -15v-97q0 -20 -19 -20h-3q-29 2 -67.5 5t-80.5 3q-26 0 -48.5 -7.5t-39.5 -27
t-26.5 -52t-9.5 -82.5v-126q0 -50 9.5 -82.5t26.5 -52t39.5 -27t48.5 -7.5q42 0 80.5 3t67.5 5h3q19 0 19 -20v-97zM430 -42q0 -4 -4 -8l-123 -122q-6 -6 -10 -9t-14 -3h-107q-9 0 -9 7q0 5 4 10l93 117q7 8 11.5 11.5t15.5 3.5h132q11 0 11 -7z" />
    <glyph glyph-name="Egrave" unicode="&#xc8;" horiz-adv-x="580" 
d="M524 25q0 -18 -20 -21q-26 -4 -69.5 -8.5t-124.5 -4.5q-48 0 -92 8t-77.5 31t-53.5 65.5t-20 110.5v332q0 68 20 110t53.5 65t78 31t92.5 8q40 0 70.5 -1.5t53.5 -3.5t39.5 -4t29.5 -4q20 -3 20 -20v-93q0 -8 -6 -14t-14 -6h-203q-35 0 -49.5 -14.5t-14.5 -53.5v-91h259
q8 0 14 -6t6 -14v-95q0 -8 -6 -14t-14 -6h-259v-106q0 -39 14.5 -53.5t49.5 -14.5h203q8 0 14 -6t6 -14v-93zM394 802q0 -7 -9 -7h-107q-10 0 -14 3t-10 9l-122 122q-4 4 -4 8q0 7 11 7h132q11 0 15.5 -3.5t11.5 -11.5l92 -117q4 -5 4 -10z" />
    <glyph glyph-name="Eacute" unicode="&#xc9;" horiz-adv-x="580" 
d="M524 25q0 -18 -20 -21q-26 -4 -69.5 -8.5t-124.5 -4.5q-48 0 -92 8t-77.5 31t-53.5 65.5t-20 110.5v332q0 68 20 110t53.5 65t78 31t92.5 8q40 0 70.5 -1.5t53.5 -3.5t39.5 -4t29.5 -4q20 -3 20 -20v-93q0 -8 -6 -14t-14 -6h-203q-35 0 -49.5 -14.5t-14.5 -53.5v-91h259
q8 0 14 -6t6 -14v-95q0 -8 -6 -14t-14 -6h-259v-106q0 -39 14.5 -53.5t49.5 -14.5h203q8 0 14 -6t6 -14v-93zM477 937q0 -4 -4 -8l-122 -122q-6 -6 -10 -9t-14 -3h-107q-9 0 -9 7q0 5 4 10l93 117q7 8 11.5 11.5t15.5 3.5h131q11 0 11 -7z" />
    <glyph glyph-name="Ecircumflex" unicode="&#xca;" horiz-adv-x="580" 
d="M524 25q0 -18 -20 -21q-26 -4 -69.5 -8.5t-124.5 -4.5q-48 0 -92 8t-77.5 31t-53.5 65.5t-20 110.5v332q0 68 20 110t53.5 65t78 31t92.5 8q40 0 70.5 -1.5t53.5 -3.5t39.5 -4t29.5 -4q20 -3 20 -20v-93q0 -8 -6 -14t-14 -6h-203q-35 0 -49.5 -14.5t-14.5 -53.5v-91h259
q8 0 14 -6t6 -14v-95q0 -8 -6 -14t-14 -6h-259v-106q0 -39 14.5 -53.5t49.5 -14.5h203q8 0 14 -6t6 -14v-93zM509 802q0 -7 -9 -7h-103q-10 0 -14 2.5t-10 9.5l-63 70l-64 -70q-6 -7 -10 -9.5t-14 -2.5h-103q-9 0 -9 7q0 5 4 10l89 117q7 8 11.5 11.5t15.5 3.5h160
q11 0 15.5 -3t11.5 -12l88 -117q4 -5 4 -10z" />
    <glyph glyph-name="Edieresis" unicode="&#xcb;" horiz-adv-x="580" 
d="M524 25q0 -18 -20 -21q-26 -4 -69.5 -8.5t-124.5 -4.5q-48 0 -92 8t-77.5 31t-53.5 65.5t-20 110.5v332q0 68 20 110t53.5 65t78 31t92.5 8q40 0 70.5 -1.5t53.5 -3.5t39.5 -4t29.5 -4q20 -3 20 -20v-93q0 -8 -6 -14t-14 -6h-203q-35 0 -49.5 -14.5t-14.5 -53.5v-91h259
q8 0 14 -6t6 -14v-95q0 -8 -6 -14t-14 -6h-259v-106q0 -39 14.5 -53.5t49.5 -14.5h203q8 0 14 -6t6 -14v-93zM470 821q0 -8 -7 -14t-15 -6h-94q-8 0 -14.5 6t-6.5 14v93q0 8 6.5 14t14.5 6h94q8 0 15 -6t7 -14v-93zM253 821q0 -8 -6.5 -14t-14.5 -6h-94q-8 0 -15 6t-7 14v93
q0 8 7 14t15 6h94q8 0 14.5 -6t6.5 -14v-93z" />
    <glyph glyph-name="Igrave" unicode="&#xcc;" horiz-adv-x="311" 
d="M241 20q0 -8 -5.5 -14t-13.5 -6h-134q-8 0 -13 6t-5 14v704q0 19 18 19h134q19 0 19 -19v-704zM254 802q0 -7 -9 -7h-107q-10 0 -14 3t-10 9l-122 122q-4 4 -4 8q0 7 11 7h132q11 0 15.5 -3.5t11.5 -11.5l92 -117q4 -5 4 -10z" />
    <glyph glyph-name="Iacute" unicode="&#xcd;" horiz-adv-x="311" 
d="M241 20q0 -8 -5.5 -14t-13.5 -6h-134q-8 0 -13 6t-5 14v704q0 19 18 19h134q19 0 19 -19v-704zM326 937q0 -4 -4 -8l-122 -122q-6 -6 -10 -9t-14 -3h-107q-9 0 -9 7q0 5 4 10l93 117q7 8 11.5 11.5t15.5 3.5h131q11 0 11 -7z" />
    <glyph glyph-name="Icircumflex" unicode="&#xce;" horiz-adv-x="311" 
d="M241 20q0 -8 -5.5 -14t-13.5 -6h-134q-8 0 -13 6t-5 14v704q0 19 18 19h134q19 0 19 -19v-704zM356 801q0 -7 -9 -7h-103q-10 0 -14 2.5t-10 9.5l-63 70l-64 -70q-6 -7 -10 -9.5t-14 -2.5h-103q-9 0 -9 7q0 5 4 10l89 117q7 8 11.5 11.5t15.5 3.5h160q11 0 15.5 -3
t11.5 -12l88 -117q4 -5 4 -10z" />
    <glyph glyph-name="Idieresis" unicode="&#xcf;" horiz-adv-x="311" 
d="M241 20q0 -8 -5.5 -14t-13.5 -6h-134q-8 0 -13 6t-5 14v704q0 19 18 19h134q19 0 19 -19v-704zM332 821q0 -8 -7 -14t-15 -6h-94q-8 0 -14.5 6t-6.5 14v93q0 8 6.5 14t14.5 6h94q8 0 15 -6t7 -14v-93zM115 821q0 -8 -6.5 -14t-14.5 -6h-94q-8 0 -15 6t-7 14v93q0 8 7 14
t15 6h94q8 0 14.5 -6t6.5 -14v-93z" />
    <glyph glyph-name="Eth" unicode="&#xd0;" horiz-adv-x="682" 
d="M631 321q0 -89 -23.5 -151.5t-65.5 -102t-100.5 -58t-129.5 -18.5q-75 0 -127 4.5t-90 11.5q-14 2 -21.5 10t-7.5 25v270h-55q-19 0 -19 19v97q0 19 19 19h55v254q0 17 7.5 25t21.5 10q39 7 90.5 11.5t126.5 4.5q71 0 129.5 -18t100.5 -58t65.5 -102.5t23.5 -151.5v-101z
M457 422q0 53 -9.5 88t-28 56t-45.5 29.5t-62 8.5h-17.5t-21 -0.5t-20 -1t-15.5 -0.5v-155h61q19 0 19 -19v-97q0 -19 -19 -19h-61v-172q6 0 15.5 -0.5t20 -0.5h21h17.5q35 0 62 8.5t45.5 29.5t28 56t9.5 88v101z" />
    <glyph glyph-name="Ntilde" unicode="&#xd1;" horiz-adv-x="729" 
d="M659 38q0 -16 -11.5 -27t-27.5 -11h-98q-16 0 -28 5.5t-24 25.5l-228 394q-5 8 -9 8q-5 0 -5 -8v-405q0 -8 -6 -14t-14 -6h-118q-8 0 -14 6t-6 14v685q0 16 11 27t27 11h101q15 0 24 -7.5t18 -23.5l237 -412q5 -8 8 -8q5 0 5 9v423q0 8 6 13.5t14 5.5h118q8 0 14 -5.5
t6 -13.5v-686zM558 907q0 -66 -32.5 -93t-89.5 -27q-15 0 -35 5.5t-36 16.5l-42 29q-26 18 -41 18q-10 0 -16.5 -5.5t-6.5 -21.5v-19q0 -17 -15 -17h-71q-15 0 -15 17v19q0 65 33 92t90 27q15 0 34.5 -5t35.5 -16l43 -28q13 -8 22.5 -13t17.5 -5q11 0 17 5.5t6 21.5v19
q0 16 16 16h70q15 0 15 -16v-20z" />
    <glyph glyph-name="Ograve" unicode="&#xd2;" horiz-adv-x="698" 
d="M645 312q0 -87 -23 -148t-63 -99.5t-94 -56t-116 -17.5t-116 17.5t-94 56t-63 99.5t-23 148v119q0 87 23 148t63 99.5t94 56t116 17.5t116 -17.5t94 -56t63 -99.5t23 -148v-119zM473 431q0 91 -30.5 131t-93.5 40t-93 -40t-30 -131v-119q0 -91 30 -131t93 -40t93.5 40
t30.5 131v119zM438 801q0 -7 -9 -7h-107q-10 0 -14 3t-10 9l-122 122q-4 4 -4 8q0 7 11 7h132q11 0 15.5 -3.5t11.5 -11.5l92 -117q4 -5 4 -10z" />
    <glyph glyph-name="Oacute" unicode="&#xd3;" horiz-adv-x="698" 
d="M645 312q0 -87 -23 -148t-63 -99.5t-94 -56t-116 -17.5t-116 17.5t-94 56t-63 99.5t-23 148v119q0 87 23 148t63 99.5t94 56t116 17.5t116 -17.5t94 -56t63 -99.5t23 -148v-119zM473 431q0 91 -30.5 131t-93.5 40t-93 -40t-30 -131v-119q0 -91 30 -131t93 -40t93.5 40
t30.5 131v119zM514 937q0 -4 -4 -8l-122 -122q-6 -6 -10 -9t-14 -3h-107q-9 0 -9 7q0 5 4 10l93 117q7 8 11.5 11.5t15.5 3.5h131q11 0 11 -7z" />
    <glyph glyph-name="Ocircumflex" unicode="&#xd4;" horiz-adv-x="698" 
d="M645 312q0 -87 -23 -148t-63 -99.5t-94 -56t-116 -17.5t-116 17.5t-94 56t-63 99.5t-23 148v119q0 87 23 148t63 99.5t94 56t116 17.5t116 -17.5t94 -56t63 -99.5t23 -148v-119zM473 431q0 91 -30.5 131t-93.5 40t-93 -40t-30 -131v-119q0 -91 30 -131t93 -40t93.5 40
t30.5 131v119zM544 802q0 -7 -9 -7h-103q-10 0 -14 2.5t-10 9.5l-63 70l-64 -70q-6 -7 -10 -9.5t-14 -2.5h-103q-9 0 -9 7q0 5 4 10l89 117q7 8 11.5 11.5t15.5 3.5h160q11 0 15.5 -3t11.5 -12l88 -117q4 -5 4 -10z" />
    <glyph glyph-name="Otilde" unicode="&#xd5;" horiz-adv-x="698" 
d="M645 312q0 -87 -23 -148t-63 -99.5t-94 -56t-116 -17.5t-116 17.5t-94 56t-63 99.5t-23 148v119q0 87 23 148t63 99.5t94 56t116 17.5t116 -17.5t94 -56t63 -99.5t23 -148v-119zM473 431q0 91 -30.5 131t-93.5 40t-93 -40t-30 -131v-119q0 -91 30 -131t93 -40t93.5 40
t30.5 131v119zM553 908q0 -66 -32.5 -93t-89.5 -27q-15 0 -35 5.5t-36 16.5l-42 29q-26 18 -41 18q-10 0 -16.5 -5.5t-6.5 -21.5v-19q0 -17 -15 -17h-71q-15 0 -15 17v19q0 65 33 92t90 27q15 0 34.5 -5t35.5 -16l43 -28q13 -8 22.5 -13t17.5 -5q11 0 17 5.5t6 21.5v19
q0 16 16 16h70q15 0 15 -16v-20z" />
    <glyph glyph-name="Odieresis" unicode="&#xd6;" horiz-adv-x="698" 
d="M645 312q0 -87 -23 -148t-63 -99.5t-94 -56t-116 -17.5t-116 17.5t-94 56t-63 99.5t-23 148v119q0 87 23 148t63 99.5t94 56t116 17.5t116 -17.5t94 -56t63 -99.5t23 -148v-119zM473 431q0 91 -30.5 131t-93.5 40t-93 -40t-30 -131v-119q0 -91 30 -131t93 -40t93.5 40
t30.5 131v119zM526 821q0 -8 -7 -14t-15 -6h-94q-8 0 -14.5 6t-6.5 14v93q0 8 6.5 14t14.5 6h94q8 0 15 -6t7 -14v-93zM309 821q0 -8 -6.5 -14t-14.5 -6h-94q-8 0 -15 6t-7 14v93q0 8 7 14t15 6h94q8 0 14.5 -6t6.5 -14v-93z" />
    <glyph glyph-name="multiply" unicode="&#xd7;" 
d="M537 255q0 -5 -5 -10l-63 -63q-5 -5 -10 -5q-8 0 -16 8l-120 120l-120 -120q-8 -8 -15 -8q-5 0 -10 5l-64 64q-5 5 -5 10q0 7 8 15l120 120l-120 120q-8 8 -8 15q0 5 5 10l64 64q5 5 10 5q7 0 15 -8l120 -120l120 120q8 8 16 8q5 0 10 -5l63 -63q5 -5 5 -10q0 -8 -8 -16
l-120 -120l120 -120q8 -8 8 -16z" />
    <glyph glyph-name="Oslash" unicode="&#xd8;" horiz-adv-x="698" 
d="M677 739q0 -4 -3 -8l-75 -103q22 -37 34 -85.5t12 -111.5v-119q0 -87 -23 -148t-63 -99.5t-94 -56t-116 -17.5q-101 0 -174 46l-19 -27q-5 -6 -11.5 -12.5t-14.5 -6.5h-97q-11 0 -11 11q0 3 3 8l75 104q-22 37 -34.5 86t-12.5 112v119q0 87 23 148t63 99.5t94 56
t116 17.5q50 0 94.5 -11t81.5 -35l18 25q5 6 11.5 12.5t14.5 6.5h97q11 0 11 -11zM431 575q-30 27 -82 27q-63 0 -93 -40t-30 -131v-119q0 -5 0.5 -10.5t0.5 -10.5zM473 451l-204 -284q29 -26 80 -26q63 0 93.5 40t30.5 131v119v13v7z" />
    <glyph glyph-name="Ugrave" unicode="&#xd9;" horiz-adv-x="711" 
d="M644 279q0 -86 -23 -141.5t-62 -88t-91.5 -45.5t-112.5 -13t-112.5 13t-91.5 45.5t-61.5 88t-22.5 141.5v445q0 8 6 13.5t14 5.5h131q8 0 14 -5.5t6 -13.5v-445q0 -38 5.5 -65.5t19 -45t36 -26t56.5 -8.5t56.5 8.5t36 26t19.5 45t6 65.5v445q0 8 6 13.5t14 5.5h130
q8 0 14.5 -5.5t6.5 -13.5v-445zM460 801q0 -7 -9 -7h-107q-10 0 -14 3t-10 9l-122 122q-4 4 -4 8q0 7 11 7h132q11 0 15.5 -3.5t11.5 -11.5l92 -117q4 -5 4 -10z" />
    <glyph glyph-name="Uacute" unicode="&#xda;" horiz-adv-x="711" 
d="M644 279q0 -86 -23 -141.5t-62 -88t-91.5 -45.5t-112.5 -13t-112.5 13t-91.5 45.5t-61.5 88t-22.5 141.5v445q0 8 6 13.5t14 5.5h131q8 0 14 -5.5t6 -13.5v-445q0 -38 5.5 -65.5t19 -45t36 -26t56.5 -8.5t56.5 8.5t36 26t19.5 45t6 65.5v445q0 8 6 13.5t14 5.5h130
q8 0 14.5 -5.5t6.5 -13.5v-445zM534 936q0 -4 -4 -8l-122 -122q-6 -6 -10 -9t-14 -3h-107q-9 0 -9 7q0 5 4 10l93 117q7 8 11.5 11.5t15.5 3.5h131q11 0 11 -7z" />
    <glyph glyph-name="Ucircumflex" unicode="&#xdb;" horiz-adv-x="711" 
d="M644 279q0 -86 -23 -141.5t-62 -88t-91.5 -45.5t-112.5 -13t-112.5 13t-91.5 45.5t-61.5 88t-22.5 141.5v445q0 8 6 13.5t14 5.5h131q8 0 14 -5.5t6 -13.5v-445q0 -38 5.5 -65.5t19 -45t36 -26t56.5 -8.5t56.5 8.5t36 26t19.5 45t6 65.5v445q0 8 6 13.5t14 5.5h130
q8 0 14.5 -5.5t6.5 -13.5v-445zM554 802q0 -7 -9 -7h-103q-10 0 -14 2.5t-10 9.5l-63 70l-64 -70q-6 -7 -10 -9.5t-14 -2.5h-103q-9 0 -9 7q0 5 4 10l89 117q7 8 11.5 11.5t15.5 3.5h160q11 0 15.5 -3t11.5 -12l88 -117q4 -5 4 -10z" />
    <glyph glyph-name="Udieresis" unicode="&#xdc;" horiz-adv-x="711" 
d="M644 279q0 -86 -23 -141.5t-62 -88t-91.5 -45.5t-112.5 -13t-112.5 13t-91.5 45.5t-61.5 88t-22.5 141.5v445q0 8 6 13.5t14 5.5h131q8 0 14 -5.5t6 -13.5v-445q0 -38 5.5 -65.5t19 -45t36 -26t56.5 -8.5t56.5 8.5t36 26t19.5 45t6 65.5v445q0 8 6 13.5t14 5.5h130
q8 0 14.5 -5.5t6.5 -13.5v-445zM532 821q0 -8 -7 -14t-15 -6h-94q-8 0 -14.5 6t-6.5 14v93q0 8 6.5 14t14.5 6h94q8 0 15 -6t7 -14v-93zM315 821q0 -8 -6.5 -14t-14.5 -6h-94q-8 0 -15 6t-7 14v93q0 8 7 14t15 6h94q8 0 14.5 -6t6.5 -14v-93z" />
    <glyph glyph-name="Yacute" unicode="&#xdd;" horiz-adv-x="647" 
d="M626 728q0 -5 -1 -7l-151 -346q-15 -35 -31 -52t-34 -25v-278q0 -8 -6 -14t-14 -6h-131q-8 0 -14 6t-6 14v278q-18 8 -34.5 25t-31.5 52l-151 346q-1 2 -1 7q0 6 4 10.5t12 4.5h144q8 0 13 -5t7 -12l108 -282q4 -10 7 -12.5t8 -2.5t8 2.5t7 12.5l108 282q2 7 7 12t13 5
h144q8 0 12 -4.5t4 -10.5zM509 936q0 -4 -4 -8l-122 -122q-6 -6 -10 -9t-14 -3h-107q-9 0 -9 7q0 5 4 10l93 117q7 8 11.5 11.5t15.5 3.5h131q11 0 11 -7z" />
    <glyph glyph-name="Thorn" unicode="&#xde;" horiz-adv-x="651" 
d="M618 414q0 -72 -26 -119t-68.5 -75t-96.5 -39.5t-110 -11.5q-20 0 -38.5 0.5t-39.5 1.5v-151q0 -8 -5.5 -14t-13.5 -6h-131q-8 0 -13.5 6t-5.5 14v704q0 19 19 19h131q19 0 19 -19v-59q4 0 13 0.5t19.5 0.5h21.5h20q58 0 112.5 -11t97.5 -39t69 -74.5t26 -116.5v-11z
M447 425q0 54 -33.5 75.5t-96.5 21.5h-16.5h-24t-23 -0.5t-14.5 -0.5v-207q4 0 15 -0.5t23.5 -0.5h24h15.5q65 0 97.5 23.5t32.5 77.5v11z" />
    <glyph glyph-name="germandbls" unicode="&#xdf;" horiz-adv-x="652" 
d="M598 225q0 -60 -20 -104t-53.5 -73t-77.5 -43t-92 -14q-13 0 -29 1.5t-32 4.5q-8 2 -14 6.5t-6 12.5v96q0 5 2.5 10.5t8.5 5.5h1q9 -1 18.5 -1h18.5q23 0 43.5 4.5t35.5 15.5t24 30t9 48v21q0 38 -25 63t-82 25h-31q-8 0 -14 5.5t-6 13.5v79q0 8 6 13.5t14 5.5h31
q28 0 46.5 7t30 18.5t16.5 26.5t5 31v19q0 35 -22 58.5t-75 23.5q-33 0 -54 -9t-33 -25t-17 -38t-5 -48v-494q0 -8 -5.5 -14.5t-13.5 -6.5h-124q-8 0 -14 6.5t-6 14.5v494q0 133 69.5 196t202.5 63q125 0 192 -57.5t67 -163.5v-19q0 -23 -7.5 -44.5t-20.5 -39.5t-29 -31.5
t-34 -21.5q48 -20 74.5 -60t26.5 -91v-21v0z" />
    <glyph glyph-name="agrave" unicode="&#xe0;" horiz-adv-x="562" 
d="M502 20q0 -8 -6 -14t-14 -6h-112q-8 0 -14 6t-6 14v16q-29 -21 -61.5 -33t-77.5 -12q-33 0 -63.5 8.5t-54.5 28.5t-38.5 53t-14.5 82v9q0 88 58.5 128.5t187.5 40.5h54v36q0 43 -20 56t-55 13q-24 0 -48.5 -0.5t-47 -1.5t-40.5 -2.5l-30 -2.5h-5q-8 0 -13 4t-5 14v81
q0 17 19 22q28 7 75.5 14t97.5 7q54 0 97.5 -11.5t73.5 -36t46.5 -63t16.5 -93.5v-357zM343 245h-57q-26 0 -43 -4.5t-27 -13.5t-14 -23t-4 -32v-9q0 -32 15.5 -41t47.5 -9q23 0 43.5 6.5t38.5 15.5v110zM366 637q0 -7 -9 -7h-107q-10 0 -14 3t-10 9l-122 122q-4 4 -4 8
q0 7 11 7h132q11 0 15.5 -3.5t11.5 -11.5l92 -117q4 -5 4 -10z" />
    <glyph glyph-name="aacute" unicode="&#xe1;" horiz-adv-x="562" 
d="M502 20q0 -8 -6 -14t-14 -6h-112q-8 0 -14 6t-6 14v16q-29 -21 -61.5 -33t-77.5 -12q-33 0 -63.5 8.5t-54.5 28.5t-38.5 53t-14.5 82v9q0 88 58.5 128.5t187.5 40.5h54v36q0 43 -20 56t-55 13q-24 0 -48.5 -0.5t-47 -1.5t-40.5 -2.5l-30 -2.5h-5q-8 0 -13 4t-5 14v81
q0 17 19 22q28 7 75.5 14t97.5 7q54 0 97.5 -11.5t73.5 -36t46.5 -63t16.5 -93.5v-357zM343 245h-57q-26 0 -43 -4.5t-27 -13.5t-14 -23t-4 -32v-9q0 -32 15.5 -41t47.5 -9q23 0 43.5 6.5t38.5 15.5v110zM465 772q0 -4 -4 -8l-122 -122q-6 -6 -10 -9t-14 -3h-107q-9 0 -9 7
q0 5 4 10l93 117q7 8 11.5 11.5t15.5 3.5h131q11 0 11 -7z" />
    <glyph glyph-name="acircumflex" unicode="&#xe2;" horiz-adv-x="562" 
d="M502 20q0 -8 -6 -14t-14 -6h-112q-8 0 -14 6t-6 14v16q-29 -21 -61.5 -33t-77.5 -12q-33 0 -63.5 8.5t-54.5 28.5t-38.5 53t-14.5 82v9q0 88 58.5 128.5t187.5 40.5h54v36q0 43 -20 56t-55 13q-24 0 -48.5 -0.5t-47 -1.5t-40.5 -2.5l-30 -2.5h-5q-8 0 -13 4t-5 14v81
q0 17 19 22q28 7 75.5 14t97.5 7q54 0 97.5 -11.5t73.5 -36t46.5 -63t16.5 -93.5v-357zM343 245h-57q-26 0 -43 -4.5t-27 -13.5t-14 -23t-4 -32v-9q0 -32 15.5 -41t47.5 -9q23 0 43.5 6.5t38.5 15.5v110zM485 637q0 -7 -9 -7h-103q-10 0 -14 2.5t-10 9.5l-63 70l-64 -70
q-6 -7 -10 -9.5t-14 -2.5h-103q-9 0 -9 7q0 5 4 10l89 117q7 8 11.5 11.5t15.5 3.5h160q11 0 15.5 -3t11.5 -12l88 -117q4 -5 4 -10z" />
    <glyph glyph-name="atilde" unicode="&#xe3;" horiz-adv-x="562" 
d="M502 20q0 -8 -6 -14t-14 -6h-112q-8 0 -14 6t-6 14v16q-29 -21 -61.5 -33t-77.5 -12q-33 0 -63.5 8.5t-54.5 28.5t-38.5 53t-14.5 82v9q0 88 58.5 128.5t187.5 40.5h54v36q0 43 -20 56t-55 13q-24 0 -48.5 -0.5t-47 -1.5t-40.5 -2.5l-30 -2.5h-5q-8 0 -13 4t-5 14v81
q0 17 19 22q28 7 75.5 14t97.5 7q54 0 97.5 -11.5t73.5 -36t46.5 -63t16.5 -93.5v-357zM343 245h-57q-26 0 -43 -4.5t-27 -13.5t-14 -23t-4 -32v-9q0 -32 15.5 -41t47.5 -9q23 0 43.5 6.5t38.5 15.5v110zM489 746q0 -66 -32.5 -93t-89.5 -27q-15 0 -35 5.5t-36 16.5l-42 29
q-26 18 -41 18q-10 0 -16.5 -5.5t-6.5 -21.5v-19q0 -17 -15 -17h-71q-15 0 -15 17v19q0 65 33 92t90 27q15 0 34.5 -5t35.5 -16l43 -28q13 -8 22.5 -13t17.5 -5q11 0 17 5.5t6 21.5v19q0 16 16 16h70q15 0 15 -16v-20z" />
    <glyph glyph-name="adieresis" unicode="&#xe4;" horiz-adv-x="562" 
d="M502 20q0 -8 -6 -14t-14 -6h-112q-8 0 -14 6t-6 14v16q-29 -21 -61.5 -33t-77.5 -12q-33 0 -63.5 8.5t-54.5 28.5t-38.5 53t-14.5 82v9q0 88 58.5 128.5t187.5 40.5h54v36q0 43 -20 56t-55 13q-24 0 -48.5 -0.5t-47 -1.5t-40.5 -2.5l-30 -2.5h-5q-8 0 -13 4t-5 14v81
q0 17 19 22q28 7 75.5 14t97.5 7q54 0 97.5 -11.5t73.5 -36t46.5 -63t16.5 -93.5v-357zM343 245h-57q-26 0 -43 -4.5t-27 -13.5t-14 -23t-4 -32v-9q0 -32 15.5 -41t47.5 -9q23 0 43.5 6.5t38.5 15.5v110zM464 660q0 -8 -7 -14t-15 -6h-94q-8 0 -14.5 6t-6.5 14v93
q0 8 6.5 14t14.5 6h94q8 0 15 -6t7 -14v-93zM247 660q0 -8 -6.5 -14t-14.5 -6h-94q-8 0 -15 6t-7 14v93q0 8 7 14t15 6h94q8 0 14.5 -6t6.5 -14v-93z" />
    <glyph glyph-name="aring" unicode="&#xe5;" horiz-adv-x="562" 
d="M502 20q0 -8 -6 -14t-14 -6h-112q-8 0 -14 6t-6 14v16q-29 -21 -61.5 -33t-77.5 -12q-33 0 -63.5 8.5t-54.5 28.5t-38.5 53t-14.5 82v9q0 88 58.5 128.5t187.5 40.5h54v36q0 43 -20 56t-55 13q-24 0 -48.5 -0.5t-47 -1.5t-40.5 -2.5l-30 -2.5h-5q-8 0 -13 4t-5 14v81
q0 17 19 22q28 7 75.5 14t97.5 7q54 0 97.5 -11.5t73.5 -36t46.5 -63t16.5 -93.5v-357zM343 245h-57q-26 0 -43 -4.5t-27 -13.5t-14 -23t-4 -32v-9q0 -32 15.5 -41t47.5 -9q23 0 43.5 6.5t38.5 15.5v110zM400 741q0 -24 -9 -45.5t-25 -37.5t-37.5 -25t-45.5 -9t-45.5 9
t-37.5 25t-25 37.5t-9 45.5t9 45.5t25 37.5t37.5 25t45.5 9t45.5 -9t37.5 -25t25 -37.5t9 -45.5zM327 741q0 18 -13 31t-31 13t-31 -13t-13 -31t13 -31t31 -13t31 13t13 31z" />
    <glyph glyph-name="ae" unicode="&#xe6;" horiz-adv-x="881" 
d="M835 265q0 -8 -6.5 -14.5t-14.5 -6.5h-310v-41q0 -43 30.5 -60t85.5 -17q14 0 37.5 0.5t49 2t49 2.5t37.5 3h5q16 0 16 -16v-72q0 -11 -4 -16.5t-15 -9.5q-42 -14 -95.5 -21.5t-102.5 -7.5q-87 0 -141 46q-40 -22 -91 -34t-104 -12q-42 0 -81.5 9.5t-70 31.5t-49 56
t-18.5 84v11q0 44 18 74t51.5 49t81.5 27t108 8h42v9q0 56 -17.5 76t-60.5 20q-23 0 -47.5 -0.5t-47 -1.5t-40.5 -2.5t-28 -2.5h-3q-17 0 -17 18v79q0 19 20 24q13 3 31.5 7t40 7t45 5t46.5 2q110 0 170 -60q30 29 68 44.5t90 15.5q63 0 109 -18.5t75.5 -52t43.5 -80
t14 -101.5v-64zM680 350q0 49 -20 77.5t-68 28.5q-46 0 -67 -28.5t-21 -77.5v-18h176v18zM348 253h-47q-53 0 -79 -15.5t-26 -54.5v-11q0 -37 24 -51.5t55 -14.5q20 0 39 3t34 10v134z" />
    <glyph glyph-name="ccedilla" unicode="&#xe7;" horiz-adv-x="474" 
d="M432 29q0 -11 -5 -15.5t-16 -7.5q-21 -5 -54.5 -10t-78.5 -5q-106 0 -169.5 65t-63.5 188v84q0 123 63.5 188t169.5 65q45 0 78.5 -5t54.5 -10q11 -3 16 -7.5t5 -15.5v-89q0 -8 -5.5 -12.5t-13.5 -4.5h-2q-28 3 -53.5 5t-68.5 2q-17 0 -32 -5.5t-26 -19t-17.5 -36
t-6.5 -55.5v-84q0 -33 6.5 -55.5t17.5 -36t26 -19t32 -5.5q43 0 68.5 2t53.5 5h2q8 0 13.5 -4.5t5.5 -12.5v-89zM345 -42q0 -4 -4 -8l-123 -122l-10.5 -9t-13.5 -3h-107q-10 0 -10 7q0 3 5 10l93 117q6 8 11 11.5t16 3.5h132q11 0 11 -7z" />
    <glyph glyph-name="egrave" unicode="&#xe8;" horiz-adv-x="590" 
d="M545 260q0 -24 -21 -24h-319v-2q0 -21 5 -41t17 -35t31.5 -24t49.5 -9q24 0 51 1t53.5 2t49.5 2.5t38 3.5h3q19 0 19 -16v-76q0 -12 -4 -18t-17 -9q-48 -12 -94 -18t-111 -6q-45 0 -90 13t-81 43t-58 79.5t-22 121.5v70q0 60 17 109t49.5 83t79.5 52.5t107 18.5
q61 0 107.5 -20t77.5 -55t46.5 -83t15.5 -105v-58zM387 340q0 56 -24 83.5t-66 27.5t-67 -28t-25 -83v-4h182v4zM407 637q0 -7 -9 -7h-107q-10 0 -14 3t-10 9l-122 122q-4 4 -4 8q0 7 11 7h132q11 0 15.5 -3.5t11.5 -11.5l92 -117q4 -5 4 -10z" />
    <glyph glyph-name="eacute" unicode="&#xe9;" horiz-adv-x="590" 
d="M545 260q0 -24 -21 -24h-319v-2q0 -21 5 -41t17 -35t31.5 -24t49.5 -9q24 0 51 1t53.5 2t49.5 2.5t38 3.5h3q19 0 19 -16v-76q0 -12 -4 -18t-17 -9q-48 -12 -94 -18t-111 -6q-45 0 -90 13t-81 43t-58 79.5t-22 121.5v70q0 60 17 109t49.5 83t79.5 52.5t107 18.5
q61 0 107.5 -20t77.5 -55t46.5 -83t15.5 -105v-58zM387 340q0 56 -24 83.5t-66 27.5t-67 -28t-25 -83v-4h182v4zM469 772q0 -4 -4 -8l-122 -122q-6 -6 -10 -9t-14 -3h-107q-9 0 -9 7q0 5 4 10l93 117q7 8 11.5 11.5t15.5 3.5h131q11 0 11 -7z" />
    <glyph glyph-name="ecircumflex" unicode="&#xea;" horiz-adv-x="590" 
d="M545 260q0 -24 -21 -24h-319v-2q0 -21 5 -41t17 -35t31.5 -24t49.5 -9q24 0 51 1t53.5 2t49.5 2.5t38 3.5h3q19 0 19 -16v-76q0 -12 -4 -18t-17 -9q-48 -12 -94 -18t-111 -6q-45 0 -90 13t-81 43t-58 79.5t-22 121.5v70q0 60 17 109t49.5 83t79.5 52.5t107 18.5
q61 0 107.5 -20t77.5 -55t46.5 -83t15.5 -105v-58zM387 340q0 56 -24 83.5t-66 27.5t-67 -28t-25 -83v-4h182v4zM494 637q0 -7 -9 -7h-103q-10 0 -14 2.5t-10 9.5l-63 70l-64 -70q-6 -7 -10 -9.5t-14 -2.5h-103q-9 0 -9 7q0 5 4 10l89 117q7 8 11.5 11.5t15.5 3.5h160
q11 0 15.5 -3t11.5 -12l88 -117q4 -5 4 -10z" />
    <glyph glyph-name="edieresis" unicode="&#xeb;" horiz-adv-x="590" 
d="M545 260q0 -24 -21 -24h-319v-2q0 -21 5 -41t17 -35t31.5 -24t49.5 -9q24 0 51 1t53.5 2t49.5 2.5t38 3.5h3q19 0 19 -16v-76q0 -12 -4 -18t-17 -9q-48 -12 -94 -18t-111 -6q-45 0 -90 13t-81 43t-58 79.5t-22 121.5v70q0 60 17 109t49.5 83t79.5 52.5t107 18.5
q61 0 107.5 -20t77.5 -55t46.5 -83t15.5 -105v-58zM387 340q0 56 -24 83.5t-66 27.5t-67 -28t-25 -83v-4h182v4zM470 658q0 -8 -7 -14t-15 -6h-94q-8 0 -14.5 6t-6.5 14v93q0 8 6.5 14t14.5 6h94q8 0 15 -6t7 -14v-93zM253 658q0 -8 -6.5 -14t-14.5 -6h-94q-8 0 -15 6t-7 14
v93q0 8 7 14t15 6h94q8 0 14.5 -6t6.5 -14v-93z" />
    <glyph glyph-name="igrave" unicode="&#xec;" horiz-adv-x="290" 
d="M233 637q0 -7 -10 -7h-107q-10 0 -14 3t-10 9l-122 122q-4 4 -4 8q0 7 11 7h132q11 0 16 -3.5t11 -11.5l92 -117q5 -7 5 -10zM226 21q0 -8 -6.5 -14.5t-14.5 -6.5h-120q-8 0 -14.5 6.5t-6.5 14.5v531q0 8 6.5 14.5t14.5 6.5h120q8 0 14.5 -6.5t6.5 -14.5v-531z" />
    <glyph glyph-name="iacute" unicode="&#xed;" horiz-adv-x="290" 
d="M329 772q0 -4 -4 -8l-122 -122q-6 -6 -10 -9t-14 -3h-107q-10 0 -10 7q0 3 5 10l93 117q6 8 11 11.5t16 3.5h131q11 0 11 -7zM226 21q0 -8 -6.5 -14.5t-14.5 -6.5h-120q-8 0 -14.5 6.5t-6.5 14.5v531q0 8 6.5 14.5t14.5 6.5h120q8 0 14.5 -6.5t6.5 -14.5v-531z" />
    <glyph glyph-name="icircumflex" unicode="&#xee;" horiz-adv-x="290" 
d="M226 21q0 -8 -6.5 -14.5t-14.5 -6.5h-120q-8 0 -14.5 6.5t-6.5 14.5v531q0 8 6.5 14.5t14.5 6.5h120q8 0 14.5 -6.5t6.5 -14.5v-531zM345 637q0 -7 -9 -7h-103q-10 0 -14 2.5t-10 9.5l-63 70l-64 -70q-6 -7 -10 -9.5t-14 -2.5h-103q-9 0 -9 7q0 5 4 10l89 117
q7 8 11.5 11.5t15.5 3.5h160q11 0 15.5 -3t11.5 -12l88 -117q4 -5 4 -10z" />
    <glyph glyph-name="idieresis" unicode="&#xef;" horiz-adv-x="290" 
d="M226 21q0 -8 -6.5 -14.5t-14.5 -6.5h-120q-8 0 -14.5 6.5t-6.5 14.5v531q0 8 6.5 14.5t14.5 6.5h120q8 0 14.5 -6.5t6.5 -14.5v-531zM323 658q0 -8 -7 -14t-15 -6h-94q-8 0 -14.5 6t-6.5 14v93q0 8 6.5 14t14.5 6h94q8 0 15 -6t7 -14v-93zM106 658q0 -8 -6.5 -14
t-14.5 -6h-94q-8 0 -15 6t-7 14v93q0 8 7 14t15 6h94q8 0 14.5 -6t6.5 -14v-93z" />
    <glyph glyph-name="eth" unicode="&#xf0;" horiz-adv-x="589" 
d="M545 259q0 -135 -64 -201.5t-185 -66.5q-127 0 -189.5 69.5t-62.5 198.5v31q0 135 65 201t186 66q11 0 25 -1.5t25 -7.5q-17 21 -46 42t-66 39l-71 -54q-8 -6 -13 -6q-6 0 -11 6l-27 30q-3 3 -3 8q0 9 10 16l41 31q-12 4 -24.5 8t-24.5 7q-6 2 -11 5t-5 9q0 4 1 6l25 68
q4 11 14 11q5 0 8 -1q32 -8 60.5 -17t55.5 -20l79 60q5 4 13 4t12 -5l27 -29q4 -4 4 -8q0 -6 -10 -14l-53 -41q54 -29 94 -67.5t67 -88.5t40.5 -113.5t13.5 -143.5v-31zM384 290q0 70 -21 101t-68 31t-68.5 -31t-21.5 -101v-31q0 -70 22 -101t69 -31t67.5 31t20.5 101v31z
" />
    <glyph glyph-name="ntilde" unicode="&#xf1;" horiz-adv-x="612" 
d="M552 21q0 -8 -6.5 -14.5t-14.5 -6.5h-121q-8 0 -14 6.5t-6 14.5v333q0 26 -3 44t-11 29t-22.5 15.5t-37.5 4.5q-22 0 -45 -9t-49 -23v-394q0 -8 -6 -14.5t-14 -6.5h-121q-8 0 -14.5 6.5t-6.5 14.5v532q0 8 6 14t14 6h112q8 0 14 -6t6 -14v-24q41 29 78 40.5t85 11.5
q54 0 88.5 -18t54 -48.5t27 -72t7.5 -88.5v-333zM503 746q0 -66 -32.5 -93t-89.5 -27q-15 0 -35 5.5t-36 16.5l-42 29q-26 18 -41 18q-10 0 -16.5 -5.5t-6.5 -21.5v-19q0 -17 -15 -17h-71q-15 0 -15 17v19q0 65 33 92t90 27q15 0 34.5 -5t35.5 -16l43 -28q13 -8 22.5 -13
t17.5 -5q11 0 17 5.5t6 21.5v19q0 16 16 16h70q15 0 15 -16v-20z" />
    <glyph glyph-name="ograve" unicode="&#xf2;" horiz-adv-x="589" 
d="M545 251q0 -60 -16.5 -108t-48 -81.5t-78 -52t-107.5 -18.5t-107.5 18.5t-78.5 52t-48.5 81.5t-16.5 108v70q0 60 16.5 108t48.5 81.5t78.5 52t107.5 18.5t107.5 -18.5t78 -52t48 -81.5t16.5 -108v-70zM384 321q0 122 -89 122q-44 0 -67 -30.5t-23 -91.5v-70
q0 -61 23 -92t67 -31q89 0 89 123v70zM386 637q0 -7 -9 -7h-107q-10 0 -14 3t-10 9l-122 122q-4 4 -4 8q0 7 11 7h132q11 0 15.5 -3.5t11.5 -11.5l92 -117q4 -5 4 -10z" />
    <glyph glyph-name="oacute" unicode="&#xf3;" horiz-adv-x="589" 
d="M545 251q0 -60 -16.5 -108t-48 -81.5t-78 -52t-107.5 -18.5t-107.5 18.5t-78.5 52t-48.5 81.5t-16.5 108v70q0 60 16.5 108t48.5 81.5t78.5 52t107.5 18.5t107.5 -18.5t78 -52t48 -81.5t16.5 -108v-70zM384 321q0 122 -89 122q-44 0 -67 -30.5t-23 -91.5v-70
q0 -61 23 -92t67 -31q89 0 89 123v70zM465 772q0 -4 -4 -8l-122 -122q-6 -6 -10 -9t-14 -3h-107q-9 0 -9 7q0 5 4 10l93 117q7 8 11.5 11.5t15.5 3.5h131q11 0 11 -7z" />
    <glyph glyph-name="ocircumflex" unicode="&#xf4;" horiz-adv-x="589" 
d="M545 251q0 -60 -16.5 -108t-48 -81.5t-78 -52t-107.5 -18.5t-107.5 18.5t-78.5 52t-48.5 81.5t-16.5 108v70q0 60 16.5 108t48.5 81.5t78.5 52t107.5 18.5t107.5 -18.5t78 -52t48 -81.5t16.5 -108v-70zM384 321q0 122 -89 122q-44 0 -67 -30.5t-23 -91.5v-70
q0 -61 23 -92t67 -31q89 0 89 123v70zM493 637q0 -7 -9 -7h-103q-10 0 -14 2.5t-10 9.5l-63 70l-64 -70q-6 -7 -10 -9.5t-14 -2.5h-103q-9 0 -9 7q0 5 4 10l89 117q7 8 11.5 11.5t15.5 3.5h160q11 0 15.5 -3t11.5 -12l88 -117q4 -5 4 -10z" />
    <glyph glyph-name="otilde" unicode="&#xf5;" horiz-adv-x="589" 
d="M545 251q0 -60 -16.5 -108t-48 -81.5t-78 -52t-107.5 -18.5t-107.5 18.5t-78.5 52t-48.5 81.5t-16.5 108v70q0 60 16.5 108t48.5 81.5t78.5 52t107.5 18.5t107.5 -18.5t78 -52t48 -81.5t16.5 -108v-70zM384 321q0 122 -89 122q-44 0 -67 -30.5t-23 -91.5v-70
q0 -61 23 -92t67 -31q89 0 89 123v70zM493 746q0 -66 -32.5 -93t-89.5 -27q-15 0 -35 5.5t-36 16.5l-42 29q-26 18 -41 18q-10 0 -16.5 -5.5t-6.5 -21.5v-19q0 -17 -15 -17h-71q-15 0 -15 17v19q0 65 33 92t90 27q15 0 34.5 -5t35.5 -16l43 -28q13 -8 22.5 -13t17.5 -5
q11 0 17 5.5t6 21.5v19q0 16 16 16h70q15 0 15 -16v-20z" />
    <glyph glyph-name="odieresis" unicode="&#xf6;" horiz-adv-x="589" 
d="M545 251q0 -60 -16.5 -108t-48 -81.5t-78 -52t-107.5 -18.5t-107.5 18.5t-78.5 52t-48.5 81.5t-16.5 108v70q0 60 16.5 108t48.5 81.5t78.5 52t107.5 18.5t107.5 -18.5t78 -52t48 -81.5t16.5 -108v-70zM384 321q0 122 -89 122q-44 0 -67 -30.5t-23 -91.5v-70
q0 -61 23 -92t67 -31q89 0 89 123v70zM470 658q0 -8 -7 -14t-15 -6h-94q-8 0 -14.5 6t-6.5 14v93q0 8 6.5 14t14.5 6h94q8 0 15 -6t7 -14v-93zM253 658q0 -8 -6.5 -14t-14.5 -6h-94q-8 0 -15 6t-7 14v93q0 8 7 14t15 6h94q8 0 14.5 -6t6.5 -14v-93z" />
    <glyph glyph-name="divide" unicode="&#xf7;" 
d="M401 552q0 -8 -6 -14t-14 -6h-118q-8 0 -14 6t-6 14v112q0 8 6 14t14 6h118q8 0 14 -6t6 -14v-112zM552 346q0 -8 -6 -12t-14 -4h-419q-8 0 -14 4t-6 12v90q0 8 6 12t14 4h419q8 0 14 -4t6 -12v-90zM401 104q0 -8 -6 -13.5t-14 -5.5h-118q-8 0 -14 5.5t-6 13.5v112
q0 8 6 14t14 6h118q8 0 14 -6t6 -14v-112z" />
    <glyph glyph-name="oslash" unicode="&#xf8;" horiz-adv-x="589" 
d="M559 598q0 -7 -4 -11l-65 -87q55 -67 55 -179v-70q0 -60 -16.5 -108t-48 -81.5t-78 -52t-107.5 -18.5q-90 0 -150 40l-42 -56q-5 -7 -8 -8.5t-8 -1.5h-50q-8 0 -8 8q0 6 4 11l66 89q-55 67 -55 178v70q0 60 16.5 108t48.5 81.5t78.5 52t107.5 18.5q90 0 150 -40l40 55
q5 7 8 8.5t8 1.5h50q8 0 8 -8zM355 420q-23 23 -60 23q-44 0 -67 -30.5t-23 -91.5v-70q0 -8 0.5 -16t1.5 -16zM384 321q0 8 -0.5 16t-1.5 16l-148 -201q22 -24 61 -24q89 0 89 123v70z" />
    <glyph glyph-name="ugrave" unicode="&#xf9;" horiz-adv-x="612" 
d="M552 20q0 -8 -6 -14t-14 -6h-112q-8 0 -14 6t-6 14v24q-41 -29 -78 -40.5t-85 -11.5q-54 0 -88.5 17.5t-54 48.5t-27 72.5t-7.5 88.5v333q0 8 6.5 14.5t14.5 6.5h121q8 0 14 -6.5t6 -14.5v-333q0 -26 3 -44t11 -29t22.5 -15.5t37.5 -4.5q22 0 45 9t49 23v394q0 8 6 14.5
t14 6.5h121q8 0 14.5 -6.5t6.5 -14.5v-532zM397 637q0 -7 -9 -7h-107q-10 0 -14 3t-10 9l-122 122q-4 4 -4 8q0 7 11 7h132q11 0 15.5 -3.5t11.5 -11.5l92 -117q4 -5 4 -10z" />
    <glyph glyph-name="uacute" unicode="&#xfa;" horiz-adv-x="612" 
d="M552 20q0 -8 -6 -14t-14 -6h-112q-8 0 -14 6t-6 14v24q-41 -29 -78 -40.5t-85 -11.5q-54 0 -88.5 17.5t-54 48.5t-27 72.5t-7.5 88.5v333q0 8 6.5 14.5t14.5 6.5h121q8 0 14 -6.5t6 -14.5v-333q0 -26 3 -44t11 -29t22.5 -15.5t37.5 -4.5q22 0 45 9t49 23v394q0 8 6 14.5
t14 6.5h121q8 0 14.5 -6.5t6.5 -14.5v-532zM489 772q0 -4 -4 -8l-122 -122q-6 -6 -10 -9t-14 -3h-107q-9 0 -9 7q0 5 4 10l93 117q7 8 11.5 11.5t15.5 3.5h131q11 0 11 -7z" />
    <glyph glyph-name="ucircumflex" unicode="&#xfb;" horiz-adv-x="612" 
d="M552 20q0 -8 -6 -14t-14 -6h-112q-8 0 -14 6t-6 14v24q-41 -29 -78 -40.5t-85 -11.5q-54 0 -88.5 17.5t-54 48.5t-27 72.5t-7.5 88.5v333q0 8 6.5 14.5t14.5 6.5h121q8 0 14 -6.5t6 -14.5v-333q0 -26 3 -44t11 -29t22.5 -15.5t37.5 -4.5q22 0 45 9t49 23v394q0 8 6 14.5
t14 6.5h121q8 0 14.5 -6.5t6.5 -14.5v-532zM504 637q0 -7 -9 -7h-103q-10 0 -14 2.5t-10 9.5l-63 70l-64 -70q-6 -7 -10 -9.5t-14 -2.5h-103q-9 0 -9 7q0 5 4 10l89 117q7 8 11.5 11.5t15.5 3.5h160q11 0 15.5 -3t11.5 -12l88 -117q4 -5 4 -10z" />
    <glyph glyph-name="udieresis" unicode="&#xfc;" horiz-adv-x="612" 
d="M552 20q0 -8 -6 -14t-14 -6h-112q-8 0 -14 6t-6 14v24q-41 -29 -78 -40.5t-85 -11.5q-54 0 -88.5 17.5t-54 48.5t-27 72.5t-7.5 88.5v333q0 8 6.5 14.5t14.5 6.5h121q8 0 14 -6.5t6 -14.5v-333q0 -26 3 -44t11 -29t22.5 -15.5t37.5 -4.5q22 0 45 9t49 23v394q0 8 6 14.5
t14 6.5h121q8 0 14.5 -6.5t6.5 -14.5v-532zM483 658q0 -8 -7 -14t-15 -6h-94q-8 0 -14.5 6t-6.5 14v93q0 8 6.5 14t14.5 6h94q8 0 15 -6t7 -14v-93zM266 658q0 -8 -6.5 -14t-14.5 -6h-94q-8 0 -15 6t-7 14v93q0 8 7 14t15 6h94q8 0 14.5 -6t6.5 -14v-93z" />
    <glyph glyph-name="yacute" unicode="&#xfd;" horiz-adv-x="592" 
d="M570 555q0 -2 -0.5 -2.5t-0.5 -2.5l-168 -589q-12 -41 -27 -71.5t-39 -50.5t-61 -30.5t-92 -10.5q-14 0 -31 1.5t-34 3.5t-32 5t-24 6q-8 3 -14.5 6.5t-6.5 11.5v81q0 8 6 13.5t14 5.5h2q12 -1 28.5 -2t34 -2.5t34 -2.5t28.5 -1q27 0 42 11t24 41l9 31h-15
q-14 0 -26.5 2.5t-24.5 11.5t-22.5 27.5t-19.5 51.5l-132 450q-1 3 -1 7q0 16 20 16h133q8 0 12.5 -5.5t6.5 -13.5l90 -376q4 -19 12 -19h1h4h4l93 395q2 8 7.5 13.5t13.5 5.5h133q8 0 13.5 -5t5.5 -13zM489 772q0 -4 -4 -8l-122 -122q-6 -6 -10 -9t-14 -3h-107q-9 0 -9 7
q0 5 4 10l93 117q7 8 11.5 11.5t15.5 3.5h131q11 0 11 -7z" />
    <glyph glyph-name="thorn" unicode="&#xfe;" horiz-adv-x="597" 
d="M555 249q0 -119 -62.5 -188.5t-187.5 -69.5q-16 0 -41 3t-42 7v-176q0 -8 -5.5 -14t-13.5 -6h-122q-8 0 -14.5 6t-6.5 14v922q0 8 5.5 14t13.5 6h124q8 0 13.5 -6t5.5 -14v-171q19 2 40.5 3.5t42.5 1.5q118 0 184 -66.5t66 -191.5v-74zM393 323q0 57 -19.5 90.5
t-68.5 33.5q-25 0 -44.5 -2t-38.5 -4v-311q17 -2 39.5 -4t43.5 -2q48 0 68 34t20 91v74z" />
    <glyph glyph-name="ydieresis" unicode="&#xff;" horiz-adv-x="592" 
d="M570 555q0 -2 -0.5 -2.5t-0.5 -2.5l-168 -589q-12 -41 -27 -71.5t-39 -50.5t-61 -30.5t-92 -10.5q-14 0 -31 1.5t-34 3.5t-32 5t-24 6q-8 3 -14.5 6.5t-6.5 11.5v81q0 8 6 13.5t14 5.5h2q12 -1 28.5 -2t34 -2.5t34 -2.5t28.5 -1q27 0 42 11t24 41l9 31h-15
q-14 0 -26.5 2.5t-24.5 11.5t-22.5 27.5t-19.5 51.5l-132 450q-1 3 -1 7q0 16 20 16h133q8 0 12.5 -5.5t6.5 -13.5l90 -376q4 -19 12 -19h1h4h4l93 395q2 8 7.5 13.5t13.5 5.5h133q8 0 13.5 -5t5.5 -13zM476 658q0 -8 -7 -14t-15 -6h-94q-8 0 -14.5 6t-6.5 14v93q0 8 6.5 14
t14.5 6h94q8 0 15 -6t7 -14v-93zM259 658q0 -8 -6.5 -14t-14.5 -6h-94q-8 0 -15 6t-7 14v93q0 8 7 14t15 6h94q8 0 14.5 -6t6.5 -14v-93z" />
    <glyph glyph-name="Amacron" unicode="&#x100;" horiz-adv-x="669" 
d="M650 16q0 -16 -17 -16h-140q-8 0 -13 5t-7 13l-36 164h-205l-36 -164q-2 -8 -7 -13t-13 -5h-140q-17 0 -17 16q0 1 0.5 2t0.5 3l149 620q9 36 26 58t39.5 33.5t48.5 15.5t52 4t51.5 -4t48 -15.5t39.5 -33.5t26 -58l149 -620q0 -2 0.5 -3t0.5 -2zM348 595q-2 8 -4 11.5
t-9 3.5q-11 0 -14 -15l-61 -276h149zM514 836q0 -8 -6 -13.5t-14 -5.5h-324q-8 0 -14 5.5t-6 13.5v72q0 8 6 13.5t14 5.5h324q8 0 14 -5.5t6 -13.5v-72z" />
    <glyph glyph-name="amacron" unicode="&#x101;" horiz-adv-x="562" 
d="M502 20q0 -8 -6 -14t-14 -6h-112q-8 0 -14 6t-6 14v16q-29 -21 -61.5 -33t-77.5 -12q-33 0 -63.5 8.5t-54.5 28.5t-38.5 53t-14.5 82v9q0 88 58.5 128.5t187.5 40.5h54v36q0 43 -20 56t-55 13q-24 0 -48.5 -0.5t-47 -1.5t-40.5 -2.5l-30 -2.5h-5q-8 0 -13 4t-5 14v81
q0 17 19 22q28 7 75.5 14t97.5 7q54 0 97.5 -11.5t73.5 -36t46.5 -63t16.5 -93.5v-357zM343 245h-57q-26 0 -43 -4.5t-27 -13.5t-14 -23t-4 -32v-9q0 -32 15.5 -41t47.5 -9q23 0 43.5 6.5t38.5 15.5v110zM463 672q0 -8 -6 -13.5t-14 -5.5h-324q-8 0 -14 5.5t-6 13.5v72
q0 8 6 13.5t14 5.5h324q8 0 14 -5.5t6 -13.5v-72z" />
    <glyph glyph-name="Abreve" unicode="&#x102;" horiz-adv-x="669" 
d="M650 16q0 -16 -17 -16h-140q-8 0 -13 5t-7 13l-36 164h-205l-36 -164q-2 -8 -7 -13t-13 -5h-140q-17 0 -17 16q0 1 0.5 2t0.5 3l149 620q9 36 26 58t39.5 33.5t48.5 15.5t52 4t51.5 -4t48 -15.5t39.5 -33.5t26 -58l149 -620q0 -2 0.5 -3t0.5 -2zM348 595q-2 8 -4 11.5
t-9 3.5q-11 0 -14 -15l-61 -276h149zM518 936q0 -1 -0.5 -1.5t-0.5 -2.5q-7 -30 -21.5 -56.5t-37.5 -46t-54.5 -31t-71.5 -11.5q-41 0 -72 11.5t-54 31t-37.5 46t-21.5 56.5q0 2 -0.5 2.5t-0.5 1.5q0 7 10 7h87q10 0 13 -12q8 -32 28 -44.5t48 -12.5t48 12.5t28 44.5
q2 6 3.5 9t9.5 3h87q10 0 10 -7z" />
    <glyph glyph-name="abreve" unicode="&#x103;" horiz-adv-x="562" 
d="M502 20q0 -8 -6 -14t-14 -6h-112q-8 0 -14 6t-6 14v16q-29 -21 -61.5 -33t-77.5 -12q-33 0 -63.5 8.5t-54.5 28.5t-38.5 53t-14.5 82v9q0 88 58.5 128.5t187.5 40.5h54v36q0 43 -20 56t-55 13q-24 0 -48.5 -0.5t-47 -1.5t-40.5 -2.5l-30 -2.5h-5q-8 0 -13 4t-5 14v81
q0 17 19 22q28 7 75.5 14t97.5 7q54 0 97.5 -11.5t73.5 -36t46.5 -63t16.5 -93.5v-357zM343 245h-57q-26 0 -43 -4.5t-27 -13.5t-14 -23t-4 -32v-9q0 -32 15.5 -41t47.5 -9q23 0 43.5 6.5t38.5 15.5v110zM467 772q0 -1 -0.5 -1.5t-0.5 -2.5q-7 -30 -21.5 -56.5t-37.5 -46
t-54.5 -31t-71.5 -11.5q-41 0 -72 11.5t-54 31t-37.5 46t-21.5 56.5q0 2 -0.5 2.5t-0.5 1.5q0 7 10 7h87q10 0 13 -12q8 -32 28 -44.5t48 -12.5t48 12.5t28 44.5q2 6 3.5 9t9.5 3h87q10 0 10 -7z" />
    <glyph glyph-name="Aogonek" unicode="&#x104;" horiz-adv-x="669" 
d="M232 182l-36 -164q-2 -8 -7 -13t-13 -5h-140q-17 0 -17 16q0 1 0.5 2t0.5 3l149 620q9 36 26 58t39.5 33.5t48.5 15.5t52 4t51.5 -4t48 -15.5t39.5 -33.5t26 -58l149 -620q1 -4 1 -9t-2.5 -7t-7.5 -4l-84 -38q-11 -5 -18.5 -12.5t-7.5 -17.5q0 -15 9.5 -21t31.5 -6
q19 0 39 4.5t28 4.5q7 0 8.5 -2t1.5 -10v-76q0 -5 -1.5 -8t-9.5 -7q-11 -5 -43.5 -12.5t-74.5 -7.5q-26 0 -50 4.5t-43 16t-30.5 30t-11.5 46.5q0 35 16 59t55 47l20 12l-38 175h-205zM348 595q-2 8 -4 11.5t-9 3.5q-11 0 -14 -15l-61 -276h149z" />
    <glyph glyph-name="aogonek" unicode="&#x105;" horiz-adv-x="562" 
d="M443 -30q-14 -9 -20 -17t-6 -19q0 -13 8.5 -17t19.5 -4q12 0 24 2.5t21 2.5q7 0 9.5 -2t2.5 -10v-75q0 -8 -3 -11t-8 -5q-12 -6 -35 -11t-54 -5q-26 0 -49.5 4.5t-41.5 16t-29 30t-11 46.5q0 35 16.5 58.5t54.5 47.5l8 5v29q-29 -21 -61.5 -33t-77.5 -12q-33 0 -63.5 8.5
t-54.5 28.5t-38.5 53t-14.5 82v9q0 88 58.5 128.5t187.5 40.5h54v36q0 43 -20 56t-55 13q-24 0 -48.5 -0.5t-47 -1.5t-40.5 -2.5l-30 -2.5h-5q-8 0 -13 4t-5 14v81q0 17 19 22q28 7 75.5 14t97.5 7q54 0 97.5 -11.5t73.5 -36t46.5 -63t16.5 -93.5v-357q0 -7 -2 -10t-9 -8z
M343 245h-57q-26 0 -43 -4.5t-27 -13.5t-14 -23t-4 -32v-9q0 -32 15.5 -41t47.5 -9q23 0 43.5 6.5t38.5 15.5v110z" />
    <glyph glyph-name="Cacute" unicode="&#x106;" horiz-adv-x="561" 
d="M520 31q0 -11 -5.5 -15.5t-16.5 -7.5q-16 -5 -56 -11t-93 -6q-57 0 -110.5 16t-94.5 53.5t-66 98.5t-25 150v126q0 89 25 150t66 98t94.5 53t110.5 16q53 0 93 -6t56 -11q11 -3 16.5 -7t5.5 -15v-97q0 -20 -19 -20h-3q-29 2 -67.5 5t-80.5 3q-26 0 -48.5 -7.5t-39.5 -27
t-26.5 -52t-9.5 -82.5v-126q0 -50 9.5 -82.5t26.5 -52t39.5 -27t48.5 -7.5q42 0 80.5 3t67.5 5h3q19 0 19 -20v-97zM482 936q0 -4 -4 -8l-122 -122q-6 -6 -10 -9t-14 -3h-107q-9 0 -9 7q0 5 4 10l93 117q7 8 11.5 11.5t15.5 3.5h131q11 0 11 -7z" />
    <glyph glyph-name="cacute" unicode="&#x107;" horiz-adv-x="474" 
d="M432 29q0 -11 -5 -15.5t-16 -7.5q-21 -5 -54.5 -10t-78.5 -5q-106 0 -169.5 65t-63.5 188v84q0 123 63.5 188t169.5 65q45 0 78.5 -5t54.5 -10q11 -3 16 -7.5t5 -15.5v-89q0 -8 -5.5 -12.5t-13.5 -4.5h-2q-28 3 -53.5 5t-68.5 2q-17 0 -32 -5.5t-26 -19t-17.5 -36
t-6.5 -55.5v-84q0 -33 6.5 -55.5t17.5 -36t26 -19t32 -5.5q43 0 68.5 2t53.5 5h2q8 0 13.5 -4.5t5.5 -12.5v-89zM427 772q0 -4 -4 -8l-122 -122q-6 -6 -10 -9t-14 -3h-107q-9 0 -9 7q0 5 4 10l93 117q7 8 11.5 11.5t15.5 3.5h131q11 0 11 -7z" />
    <glyph glyph-name="Ccircumflex" unicode="&#x108;" horiz-adv-x="561" 
d="M520 31q0 -11 -5.5 -15.5t-16.5 -7.5q-16 -5 -56 -11t-93 -6q-57 0 -110.5 16t-94.5 53.5t-66 98.5t-25 150v126q0 89 25 150t66 98t94.5 53t110.5 16q53 0 93 -6t56 -11q11 -3 16.5 -7t5.5 -15v-97q0 -20 -19 -20h-3q-29 2 -67.5 5t-80.5 3q-26 0 -48.5 -7.5t-39.5 -27
t-26.5 -52t-9.5 -82.5v-126q0 -50 9.5 -82.5t26.5 -52t39.5 -27t48.5 -7.5q42 0 80.5 3t67.5 5h3q19 0 19 -20v-97zM498 802q0 -7 -9 -7h-103q-10 0 -14 2.5t-10 9.5l-63 70l-64 -70q-6 -7 -10 -9.5t-14 -2.5h-103q-9 0 -9 7q0 5 4 10l89 117q7 8 11.5 11.5t15.5 3.5h160
q11 0 15.5 -3t11.5 -12l88 -117q4 -5 4 -10z" />
    <glyph glyph-name="ccircumflex" unicode="&#x109;" horiz-adv-x="474" 
d="M432 29q0 -11 -5 -15.5t-16 -7.5q-21 -5 -54.5 -10t-78.5 -5q-106 0 -169.5 65t-63.5 188v84q0 123 63.5 188t169.5 65q45 0 78.5 -5t54.5 -10q11 -3 16 -7.5t5 -15.5v-89q0 -8 -5.5 -12.5t-13.5 -4.5h-2q-28 3 -53.5 5t-68.5 2q-17 0 -32 -5.5t-26 -19t-17.5 -36
t-6.5 -55.5v-84q0 -33 6.5 -55.5t17.5 -36t26 -19t32 -5.5q43 0 68.5 2t53.5 5h2q8 0 13.5 -4.5t5.5 -12.5v-89zM445 637q0 -7 -9 -7h-103q-10 0 -14 2.5t-10 9.5l-63 70l-64 -70q-6 -7 -10 -9.5t-14 -2.5h-103q-9 0 -9 7q0 5 4 10l89 117q7 8 11.5 11.5t15.5 3.5h160
q11 0 15.5 -3t11.5 -12l88 -117q4 -5 4 -10z" />
    <glyph glyph-name="Cdotaccent" unicode="&#x10a;" horiz-adv-x="561" 
d="M520 31q0 -11 -5.5 -15.5t-16.5 -7.5q-16 -5 -56 -11t-93 -6q-57 0 -110.5 16t-94.5 53.5t-66 98.5t-25 150v126q0 89 25 150t66 98t94.5 53t110.5 16q53 0 93 -6t56 -11q11 -3 16.5 -7t5.5 -15v-97q0 -20 -19 -20h-3q-29 2 -67.5 5t-80.5 3q-26 0 -48.5 -7.5t-39.5 -27
t-26.5 -52t-9.5 -82.5v-126q0 -50 9.5 -82.5t26.5 -52t39.5 -27t48.5 -7.5q42 0 80.5 3t67.5 5h3q19 0 19 -20v-97zM402 821q0 -8 -6 -14t-14 -6h-130q-8 0 -14 6t-6 14v93q0 8 6 14t14 6h130q8 0 14 -6t6 -14v-93z" />
    <glyph glyph-name="cdotaccent" unicode="&#x10b;" horiz-adv-x="474" 
d="M432 29q0 -11 -5 -15.5t-16 -7.5q-21 -5 -54.5 -10t-78.5 -5q-106 0 -169.5 65t-63.5 188v84q0 123 63.5 188t169.5 65q45 0 78.5 -5t54.5 -10q11 -3 16 -7.5t5 -15.5v-89q0 -8 -5.5 -12.5t-13.5 -4.5h-2q-28 3 -53.5 5t-68.5 2q-17 0 -32 -5.5t-26 -19t-17.5 -36
t-6.5 -55.5v-84q0 -33 6.5 -55.5t17.5 -36t26 -19t32 -5.5q43 0 68.5 2t53.5 5h2q8 0 13.5 -4.5t5.5 -12.5v-89zM349 658q0 -8 -6 -14t-14 -6h-130q-8 0 -14 6t-6 14v93q0 8 6 14t14 6h130q8 0 14 -6t6 -14v-93z" />
    <glyph glyph-name="Ccaron" unicode="&#x10c;" horiz-adv-x="561" 
d="M520 31q0 -11 -5.5 -15.5t-16.5 -7.5q-16 -5 -56 -11t-93 -6q-57 0 -110.5 16t-94.5 53.5t-66 98.5t-25 150v126q0 89 25 150t66 98t94.5 53t110.5 16q53 0 93 -6t56 -11q11 -3 16.5 -7t5.5 -15v-97q0 -20 -19 -20h-3q-29 2 -67.5 5t-80.5 3q-26 0 -48.5 -7.5t-39.5 -27
t-26.5 -52t-9.5 -82.5v-126q0 -50 9.5 -82.5t26.5 -52t39.5 -27t48.5 -7.5q42 0 80.5 3t67.5 5h3q19 0 19 -20v-97zM514 936q0 -5 -4 -10l-89 -117q-7 -8 -11.5 -11.5t-15.5 -3.5h-160q-11 0 -15.5 3t-11.5 12l-88 117q-4 5 -4 10q0 7 9 7h103q10 0 14 -2.5t10 -9.5l63 -70
l64 70q6 7 10 9.5t14 2.5h103q9 0 9 -7z" />
    <glyph glyph-name="ccaron" unicode="&#x10d;" horiz-adv-x="474" 
d="M432 29q0 -11 -5 -15.5t-16 -7.5q-21 -5 -54.5 -10t-78.5 -5q-106 0 -169.5 65t-63.5 188v84q0 123 63.5 188t169.5 65q45 0 78.5 -5t54.5 -10q11 -3 16 -7.5t5 -15.5v-89q0 -8 -5.5 -12.5t-13.5 -4.5h-2q-28 3 -53.5 5t-68.5 2q-17 0 -32 -5.5t-26 -19t-17.5 -36
t-6.5 -55.5v-84q0 -33 6.5 -55.5t17.5 -36t26 -19t32 -5.5q43 0 68.5 2t53.5 5h2q8 0 13.5 -4.5t5.5 -12.5v-89zM459 772q0 -5 -4 -10l-89 -117q-7 -8 -11.5 -11.5t-15.5 -3.5h-160q-11 0 -15.5 3t-11.5 12l-88 117q-4 5 -4 10q0 7 9 7h103q10 0 14 -2.5t10 -9.5l63 -70
l64 70q6 7 10 9.5t14 2.5h103q9 0 9 -7z" />
    <glyph glyph-name="Dcaron" unicode="&#x10e;" horiz-adv-x="682" 
d="M631 307q0 -79 -22 -138.5t-63 -99t-100 -59t-134 -19.5q-31 0 -62.5 1.5t-60 3.5t-52 4.5t-38.5 5.5q-14 2 -21.5 10t-7.5 25v661q0 17 7.5 25t21.5 10q15 3 38.5 5.5t52 4.5t60 3.5t62.5 1.5q75 0 134 -19.5t100 -59t63 -99t22 -138.5v-129zM460 436q0 51 -10.5 84
t-30 52.5t-46.5 27t-61 7.5q-19 0 -39.5 -0.5t-31.5 -1.5v-467q11 -1 31.5 -1.5t39.5 -0.5q34 0 61 7.5t46.5 27t30 52.5t10.5 84v129zM541 936q0 -5 -4 -10l-89 -117q-7 -8 -11.5 -11.5t-15.5 -3.5h-160q-11 0 -15.5 3t-11.5 12l-88 117q-4 5 -4 10q0 7 9 7h103
q10 0 14 -2.5t10 -9.5l63 -70l64 70q6 7 10 9.5t14 2.5h103q9 0 9 -7z" />
    <glyph glyph-name="dcaron" unicode="&#x10f;" horiz-adv-x="756" 
d="M781 756q0 -2 -2 -8l-75 -219q-4 -10 -7.5 -14.5t-11.5 -4.5h-101q-9 0 -9 10v4.5t1 4.5l54 219q4 19 20 19h119q12 0 12 -11zM537 46q0 -12 -5.5 -18t-25.5 -11q-43 -11 -99 -18.5t-114 -7.5q-122 0 -186.5 67t-64.5 189v78q0 118 62 187t189 69q15 0 37.5 -2t44.5 -5
v173q0 8 6 14t14 6h121q8 0 14.5 -6t6.5 -14v-701zM375 442q-18 2 -41 3.5t-41 1.5q-27 0 -44 -9t-27 -25.5t-14 -39t-4 -48.5v-78q0 -27 4 -49.5t14 -39t27 -25.5t44 -9q25 0 46.5 2t35.5 4v312z" />
    <glyph glyph-name="Dcroat" unicode="&#x110;" horiz-adv-x="682" 
d="M631 321q0 -89 -23.5 -151.5t-65.5 -102t-100.5 -58t-129.5 -18.5q-75 0 -127 4.5t-90 11.5q-14 2 -21.5 10t-7.5 25v270h-55q-19 0 -19 19v97q0 19 19 19h55v254q0 17 7.5 25t21.5 10q39 7 90.5 11.5t126.5 4.5q71 0 129.5 -18t100.5 -58t65.5 -102.5t23.5 -151.5v-101z
M457 422q0 53 -9.5 88t-28 56t-45.5 29.5t-62 8.5h-17.5t-21 -0.5t-20 -1t-15.5 -0.5v-155h61q19 0 19 -19v-97q0 -19 -19 -19h-61v-172q6 0 15.5 -0.5t20 -0.5h21h17.5q35 0 62 8.5t45.5 29.5t28 56t9.5 88v101z" />
    <glyph glyph-name="dcroat" unicode="&#x111;" horiz-adv-x="597" 
d="M375 713v34q0 8 6 14t14 6h121q8 0 14.5 -6t6.5 -14v-34h41q19 0 19 -19v-37q0 -19 -19 -19h-41v-592q0 -12 -5.5 -18t-25.5 -11q-43 -11 -99 -18.5t-114 -7.5q-122 0 -186.5 67t-64.5 189v78q0 118 62 187t189 69q15 0 37.5 -2t44.5 -5v64h-135q-19 0 -19 19v37
q0 19 19 19h135zM375 442q-18 2 -41 3.5t-41 1.5q-27 0 -44 -9t-27 -25.5t-14 -39t-4 -48.5v-78q0 -27 4 -49.5t14 -39t27 -25.5t44 -9q25 0 46.5 2t35.5 4v312z" />
    <glyph glyph-name="Emacron" unicode="&#x112;" horiz-adv-x="580" 
d="M524 25q0 -18 -20 -21q-26 -4 -69.5 -8.5t-124.5 -4.5q-48 0 -92 8t-77.5 31t-53.5 65.5t-20 110.5v332q0 68 20 110t53.5 65t78 31t92.5 8q40 0 70.5 -1.5t53.5 -3.5t39.5 -4t29.5 -4q20 -3 20 -20v-93q0 -8 -6 -14t-14 -6h-203q-35 0 -49.5 -14.5t-14.5 -53.5v-91h259
q8 0 14 -6t6 -14v-95q0 -8 -6 -14t-14 -6h-259v-106q0 -39 14.5 -53.5t49.5 -14.5h203q8 0 14 -6t6 -14v-93zM486 836q0 -8 -6 -13.5t-14 -5.5h-324q-8 0 -14 5.5t-6 13.5v72q0 8 6 13.5t14 5.5h324q8 0 14 -5.5t6 -13.5v-72z" />
    <glyph glyph-name="emacron" unicode="&#x113;" horiz-adv-x="590" 
d="M545 260q0 -24 -21 -24h-319v-2q0 -21 5 -41t17 -35t31.5 -24t49.5 -9q24 0 51 1t53.5 2t49.5 2.5t38 3.5h3q19 0 19 -16v-76q0 -12 -4 -18t-17 -9q-48 -12 -94 -18t-111 -6q-45 0 -90 13t-81 43t-58 79.5t-22 121.5v70q0 60 17 109t49.5 83t79.5 52.5t107 18.5
q61 0 107.5 -20t77.5 -55t46.5 -83t15.5 -105v-58zM387 340q0 56 -24 83.5t-66 27.5t-67 -28t-25 -83v-4h182v4zM477 672q0 -8 -6 -13.5t-14 -5.5h-324q-8 0 -14 5.5t-6 13.5v72q0 8 6 13.5t14 5.5h324q8 0 14 -5.5t6 -13.5v-72z" />
    <glyph glyph-name="Ebreve" unicode="&#x114;" horiz-adv-x="580" 
d="M524 25q0 -18 -20 -21q-26 -4 -69.5 -8.5t-124.5 -4.5q-48 0 -92 8t-77.5 31t-53.5 65.5t-20 110.5v332q0 68 20 110t53.5 65t78 31t92.5 8q40 0 70.5 -1.5t53.5 -3.5t39.5 -4t29.5 -4q20 -3 20 -20v-93q0 -8 -6 -14t-14 -6h-203q-35 0 -49.5 -14.5t-14.5 -53.5v-91h259
q8 0 14 -6t6 -14v-95q0 -8 -6 -14t-14 -6h-259v-106q0 -39 14.5 -53.5t49.5 -14.5h203q8 0 14 -6t6 -14v-93zM502 945q0 -1 -0.5 -1.5t-0.5 -2.5q-7 -30 -21.5 -56.5t-37.5 -46t-54.5 -31t-71.5 -11.5q-41 0 -72 11.5t-54 31t-37.5 46t-21.5 56.5q0 2 -0.5 2.5t-0.5 1.5
q0 7 10 7h87q10 0 13 -12q8 -32 28 -44.5t48 -12.5t48 12.5t28 44.5q2 6 3.5 9t9.5 3h87q10 0 10 -7z" />
    <glyph glyph-name="ebreve" unicode="&#x115;" horiz-adv-x="590" 
d="M545 260q0 -24 -21 -24h-319v-2q0 -21 5 -41t17 -35t31.5 -24t49.5 -9q24 0 51 1t53.5 2t49.5 2.5t38 3.5h3q19 0 19 -16v-76q0 -12 -4 -18t-17 -9q-48 -12 -94 -18t-111 -6q-45 0 -90 13t-81 43t-58 79.5t-22 121.5v70q0 60 17 109t49.5 83t79.5 52.5t107 18.5
q61 0 107.5 -20t77.5 -55t46.5 -83t15.5 -105v-58zM387 340q0 56 -24 83.5t-66 27.5t-67 -28t-25 -83v-4h182v4zM483 772q0 -1 -0.5 -1.5t-0.5 -2.5q-7 -30 -21.5 -56.5t-37.5 -46t-54.5 -31t-71.5 -11.5q-41 0 -72 11.5t-54 31t-37.5 46t-21.5 56.5q0 2 -0.5 2.5t-0.5 1.5
q0 7 10 7h87q10 0 13 -12q8 -32 28 -44.5t48 -12.5t48 12.5t28 44.5q2 6 3.5 9t9.5 3h87q10 0 10 -7z" />
    <glyph glyph-name="Edotaccent" unicode="&#x116;" horiz-adv-x="580" 
d="M524 25q0 -18 -20 -21q-26 -4 -69.5 -8.5t-124.5 -4.5q-48 0 -92 8t-77.5 31t-53.5 65.5t-20 110.5v332q0 68 20 110t53.5 65t78 31t92.5 8q40 0 70.5 -1.5t53.5 -3.5t39.5 -4t29.5 -4q20 -3 20 -20v-93q0 -8 -6 -14t-14 -6h-203q-35 0 -49.5 -14.5t-14.5 -53.5v-91h259
q8 0 14 -6t6 -14v-95q0 -8 -6 -14t-14 -6h-259v-106q0 -39 14.5 -53.5t49.5 -14.5h203q8 0 14 -6t6 -14v-93zM388 822q0 -8 -6 -14t-14 -6h-130q-8 0 -14 6t-6 14v93q0 8 6 14t14 6h130q8 0 14 -6t6 -14v-93z" />
    <glyph glyph-name="edotaccent" unicode="&#x117;" horiz-adv-x="590" 
d="M545 260q0 -24 -21 -24h-319v-2q0 -21 5 -41t17 -35t31.5 -24t49.5 -9q24 0 51 1t53.5 2t49.5 2.5t38 3.5h3q19 0 19 -16v-76q0 -12 -4 -18t-17 -9q-48 -12 -94 -18t-111 -6q-45 0 -90 13t-81 43t-58 79.5t-22 121.5v70q0 60 17 109t49.5 83t79.5 52.5t107 18.5
q61 0 107.5 -20t77.5 -55t46.5 -83t15.5 -105v-58zM387 340q0 56 -24 83.5t-66 27.5t-67 -28t-25 -83v-4h182v4zM379 658q0 -8 -6 -14t-14 -6h-130q-8 0 -14 6t-6 14v93q0 8 6 14t14 6h130q8 0 14 -6t6 -14v-93z" />
    <glyph glyph-name="Eogonek" unicode="&#x118;" horiz-adv-x="580" 
d="M524 25q0 -18 -20 -21q-6 -1 -12.5 -2t-14.5 -2l-45 -30q-11 -7 -18.5 -13.5t-7.5 -16.5q0 -15 9.5 -21t31.5 -6q19 0 39 4.5t28 4.5q7 0 8.5 -2t1.5 -10v-76q0 -5 -1.5 -8t-9.5 -7q-11 -5 -43.5 -12.5t-74.5 -7.5q-26 0 -50 4.5t-43 16t-30.5 30t-11.5 46.5q0 31 12 53
t41 42h-3q-48 0 -92 8t-77.5 31t-53.5 65.5t-20 110.5v332q0 68 20 110t53.5 65t78 31t92.5 8q40 0 70.5 -1.5t53.5 -3.5t39.5 -4t29.5 -4q20 -3 20 -20v-93q0 -8 -6 -14t-14 -6h-203q-35 0 -49.5 -14.5t-14.5 -53.5v-91h259q8 0 14 -6t6 -14v-95q0 -8 -6 -14t-14 -6h-259
v-106q0 -39 14.5 -53.5t49.5 -14.5h203q8 0 14 -6t6 -14v-93v0z" />
    <glyph glyph-name="eogonek" unicode="&#x119;" horiz-adv-x="590" 
d="M522 -166q0 -5 -1.5 -8t-9.5 -7q-11 -5 -43.5 -12.5t-74.5 -7.5q-26 0 -50 4.5t-43 16t-30.5 30t-11.5 46.5q0 31 14 53t43 42h-19q-45 0 -90 13t-81 43t-58 79.5t-22 121.5v70q0 60 17 109t49.5 83t79.5 52.5t107 18.5q61 0 107.5 -20t77.5 -55t46.5 -83t15.5 -105v-58
q0 -24 -21 -24h-319v-2q0 -21 5 -41t17 -35t31.5 -24t49.5 -9q24 0 51 1t53.5 2t49.5 2.5t38 3.5h3q19 0 19 -16v-76q0 -17 -9 -22l-83 -50q-11 -7 -18.5 -13.5t-7.5 -16.5q0 -15 8.5 -21t25.5 -6q24 0 45 4.5t29 4.5q7 0 8.5 -2t1.5 -10v-76zM387 340q0 56 -24 83.5
t-66 27.5t-67 -28t-25 -83v-4h182v4z" />
    <glyph glyph-name="Ecaron" unicode="&#x11a;" horiz-adv-x="580" 
d="M524 25q0 -18 -20 -21q-26 -4 -69.5 -8.5t-124.5 -4.5q-48 0 -92 8t-77.5 31t-53.5 65.5t-20 110.5v332q0 68 20 110t53.5 65t78 31t92.5 8q40 0 70.5 -1.5t53.5 -3.5t39.5 -4t29.5 -4q20 -3 20 -20v-93q0 -8 -6 -14t-14 -6h-203q-35 0 -49.5 -14.5t-14.5 -53.5v-91h259
q8 0 14 -6t6 -14v-95q0 -8 -6 -14t-14 -6h-259v-106q0 -39 14.5 -53.5t49.5 -14.5h203q8 0 14 -6t6 -14v-93zM490 936q0 -5 -4 -10l-89 -117q-7 -8 -11.5 -11.5t-15.5 -3.5h-160q-11 0 -15.5 3t-11.5 12l-88 117q-4 5 -4 10q0 7 9 7h103q10 0 14 -2.5t10 -9.5l63 -70l64 70
q6 7 10 9.5t14 2.5h103q9 0 9 -7z" />
    <glyph glyph-name="ecaron" unicode="&#x11b;" horiz-adv-x="590" 
d="M545 260q0 -24 -21 -24h-319v-2q0 -21 5 -41t17 -35t31.5 -24t49.5 -9q24 0 51 1t53.5 2t49.5 2.5t38 3.5h3q19 0 19 -16v-76q0 -12 -4 -18t-17 -9q-48 -12 -94 -18t-111 -6q-45 0 -90 13t-81 43t-58 79.5t-22 121.5v70q0 60 17 109t49.5 83t79.5 52.5t107 18.5
q61 0 107.5 -20t77.5 -55t46.5 -83t15.5 -105v-58zM387 340q0 56 -24 83.5t-66 27.5t-67 -28t-25 -83v-4h182v4zM495 772q0 -5 -4 -10l-89 -117q-7 -8 -11.5 -11.5t-15.5 -3.5h-160q-11 0 -15.5 3t-11.5 12l-88 117q-4 5 -4 10q0 7 9 7h103q10 0 14 -2.5t10 -9.5l63 -70
l64 70q6 7 10 9.5t14 2.5h103q9 0 9 -7z" />
    <glyph glyph-name="Gcircumflex" unicode="&#x11c;" 
d="M580 608q0 -8 -4 -10.5t-11 -2.5h-3l-90 5t-118 3q-30 0 -54.5 -8t-41.5 -27.5t-26 -52.5t-9 -82v-125q0 -52 10.5 -85t27 -52t36.5 -26t38 -7q41 0 77 3v230q0 8 5.5 14t13.5 6h128q8 0 14 -6t6 -14v-336q0 -19 -20 -23q-41 -8 -95 -14.5t-129 -6.5q-28 0 -60.5 6
t-64 20t-60.5 38t-51.5 59t-35.5 83.5t-13 111.5v124q0 96 27 157.5t70.5 97.5t98 50t108.5 14q75 0 128 -8.5t81 -14.5q17 -3 17 -15v-106zM534 802q0 -7 -9 -7h-103q-10 0 -14 2.5t-10 9.5l-63 70l-64 -70q-6 -7 -10 -9.5t-14 -2.5h-103q-9 0 -9 7q0 5 4 10l89 117
q7 8 11.5 11.5t15.5 3.5h160q11 0 15.5 -3t11.5 -12l88 -117q4 -5 4 -10z" />
    <glyph glyph-name="gcircumflex" unicode="&#x11d;" horiz-adv-x="599" 
d="M577 490q0 -11 -4.5 -15t-13.5 -7l-31 -10q9 -14 15.5 -35t6.5 -39v-8q0 -98 -64.5 -142.5t-182.5 -44.5q-35 0 -62 4.5t-42 10.5q-8 -5 -11 -10.5t-3 -12.5q0 -12 6 -18t24 -10l113 -25q65 -14 110 -27.5t72.5 -31t39.5 -42t12 -60.5v-8q0 -163 -262 -163
q-125 0 -189.5 42t-64.5 121v8q0 31 14 59t46 53q-27 15 -39 41.5t-12 51.5q0 28 12.5 49t31.5 36q-24 21 -35 55t-11 64v8q0 85 59.5 137t190.5 52h249q11 0 18 -7.5t7 -18.5v-57zM392 384q0 31 -18 51.5t-71 20.5t-72 -20.5t-19 -51.5v-8q0 -13 3.5 -25.5t13.5 -22.5
t27.5 -16t46.5 -6q53 0 71 19t18 51v8zM397 -33q0 7 -3.5 13.5t-14.5 12.5t-31 12t-54 14l-74 16q-9 -13 -14.5 -27.5t-5.5 -40.5v-8q0 -26 21 -38.5t79 -12.5q31 0 50 3.5t29.5 10.5t14 16.5t3.5 20.5v8zM501 637q0 -7 -9 -7h-103q-10 0 -14 2.5t-10 9.5l-63 70l-64 -70
q-6 -7 -10 -9.5t-14 -2.5h-103q-9 0 -9 7q0 5 4 10l89 117q7 8 11.5 11.5t15.5 3.5h160q11 0 15.5 -3t11.5 -12l88 -117q4 -5 4 -10z" />
    <glyph glyph-name="Gbreve" unicode="&#x11e;" 
d="M580 608q0 -8 -4 -10.5t-11 -2.5h-3l-90 5t-118 3q-30 0 -54.5 -8t-41.5 -27.5t-26 -52.5t-9 -82v-125q0 -52 10.5 -85t27 -52t36.5 -26t38 -7q41 0 77 3v230q0 8 5.5 14t13.5 6h128q8 0 14 -6t6 -14v-336q0 -19 -20 -23q-41 -8 -95 -14.5t-129 -6.5q-28 0 -60.5 6
t-64 20t-60.5 38t-51.5 59t-35.5 83.5t-13 111.5v124q0 96 27 157.5t70.5 97.5t98 50t108.5 14q75 0 128 -8.5t81 -14.5q17 -3 17 -15v-106zM509 936q0 -1 -0.5 -1.5t-0.5 -2.5q-7 -30 -21.5 -56.5t-37.5 -46t-54.5 -31t-71.5 -11.5q-41 0 -72 11.5t-54 31t-37.5 46
t-21.5 56.5q0 2 -0.5 2.5t-0.5 1.5q0 7 10 7h87q10 0 13 -12q8 -32 28 -44.5t48 -12.5t48 12.5t28 44.5q2 6 3.5 9t9.5 3h87q10 0 10 -7z" />
    <glyph glyph-name="gbreve" unicode="&#x11f;" horiz-adv-x="599" 
d="M577 490q0 -11 -4.5 -15t-13.5 -7l-31 -10q9 -14 15.5 -35t6.5 -39v-8q0 -98 -64.5 -142.5t-182.5 -44.5q-35 0 -62 4.5t-42 10.5q-8 -5 -11 -10.5t-3 -12.5q0 -12 6 -18t24 -10l113 -25q65 -14 110 -27.5t72.5 -31t39.5 -42t12 -60.5v-8q0 -163 -262 -163
q-125 0 -189.5 42t-64.5 121v8q0 31 14 59t46 53q-27 15 -39 41.5t-12 51.5q0 28 12.5 49t31.5 36q-24 21 -35 55t-11 64v8q0 85 59.5 137t190.5 52h249q11 0 18 -7.5t7 -18.5v-57zM392 384q0 31 -18 51.5t-71 20.5t-72 -20.5t-19 -51.5v-8q0 -13 3.5 -25.5t13.5 -22.5
t27.5 -16t46.5 -6q53 0 71 19t18 51v8zM397 -33q0 7 -3.5 13.5t-14.5 12.5t-31 12t-54 14l-74 16q-9 -13 -14.5 -27.5t-5.5 -40.5v-8q0 -26 21 -38.5t79 -12.5q31 0 50 3.5t29.5 10.5t14 16.5t3.5 20.5v8zM486 772q0 -1 -0.5 -1.5t-0.5 -2.5q-7 -30 -21.5 -56.5t-37.5 -46
t-54.5 -31t-71.5 -11.5q-41 0 -72 11.5t-54 31t-37.5 46t-21.5 56.5q0 2 -0.5 2.5t-0.5 1.5q0 7 10 7h87q10 0 13 -12q8 -32 28 -44.5t48 -12.5t48 12.5t28 44.5q2 6 3.5 9t9.5 3h87q10 0 10 -7z" />
    <glyph glyph-name="Gdotaccent" unicode="&#x120;" 
d="M580 608q0 -8 -4 -10.5t-11 -2.5h-3l-90 5t-118 3q-30 0 -54.5 -8t-41.5 -27.5t-26 -52.5t-9 -82v-125q0 -52 10.5 -85t27 -52t36.5 -26t38 -7q41 0 77 3v230q0 8 5.5 14t13.5 6h128q8 0 14 -6t6 -14v-336q0 -19 -20 -23q-41 -8 -95 -14.5t-129 -6.5q-28 0 -60.5 6
t-64 20t-60.5 38t-51.5 59t-35.5 83.5t-13 111.5v124q0 96 27 157.5t70.5 97.5t98 50t108.5 14q75 0 128 -8.5t81 -14.5q17 -3 17 -15v-106zM428 821q0 -8 -6 -14t-14 -6h-130q-8 0 -14 6t-6 14v93q0 8 6 14t14 6h130q8 0 14 -6t6 -14v-93z" />
    <glyph glyph-name="gdotaccent" unicode="&#x121;" horiz-adv-x="599" 
d="M577 490q0 -11 -4.5 -15t-13.5 -7l-31 -10q9 -14 15.5 -35t6.5 -39v-8q0 -98 -64.5 -142.5t-182.5 -44.5q-35 0 -62 4.5t-42 10.5q-8 -5 -11 -10.5t-3 -12.5q0 -12 6 -18t24 -10l113 -25q65 -14 110 -27.5t72.5 -31t39.5 -42t12 -60.5v-8q0 -163 -262 -163
q-125 0 -189.5 42t-64.5 121v8q0 31 14 59t46 53q-27 15 -39 41.5t-12 51.5q0 28 12.5 49t31.5 36q-24 21 -35 55t-11 64v8q0 85 59.5 137t190.5 52h249q11 0 18 -7.5t7 -18.5v-57zM392 384q0 31 -18 51.5t-71 20.5t-72 -20.5t-19 -51.5v-8q0 -13 3.5 -25.5t13.5 -22.5
t27.5 -16t46.5 -6q53 0 71 19t18 51v8zM397 -33q0 7 -3.5 13.5t-14.5 12.5t-31 12t-54 14l-74 16q-9 -13 -14.5 -27.5t-5.5 -40.5v-8q0 -26 21 -38.5t79 -12.5q31 0 50 3.5t29.5 10.5t14 16.5t3.5 20.5v8zM386 658q0 -8 -6 -14t-14 -6h-130q-8 0 -14 6t-6 14v93q0 8 6 14
t14 6h130q8 0 14 -6t6 -14v-93z" />
    <glyph glyph-name="Gcommaaccent" unicode="&#x122;" 
d="M580 608q0 -8 -4 -10.5t-11 -2.5h-3l-90 5t-118 3q-30 0 -54.5 -8t-41.5 -27.5t-26 -52.5t-9 -82v-125q0 -52 10.5 -85t27 -52t36.5 -26t38 -7q41 0 77 3v230q0 8 5.5 14t13.5 6h128q8 0 14 -6t6 -14v-336q0 -19 -20 -23q-41 -8 -95 -14.5t-129 -6.5q-28 0 -60.5 6
t-64 20t-60.5 38t-51.5 59t-35.5 83.5t-13 111.5v124q0 96 27 157.5t70.5 97.5t98 50t108.5 14q75 0 128 -8.5t81 -14.5q17 -3 17 -15v-106zM381 -38q13 0 15 -5.5t-2 -13.5l-69 -118q-8 -12 -12 -16t-13 -4h-75q-6 0 -10 4.5t-1 15.5l30 118q5 19 20 19h117z" />
    <glyph glyph-name="gcommaaccent" unicode="&#x123;" horiz-adv-x="599" 
d="M577 490q0 -11 -4.5 -15t-13.5 -7l-31 -10q9 -14 15.5 -35t6.5 -39v-8q0 -98 -64.5 -142.5t-182.5 -44.5q-35 0 -62 4.5t-42 10.5q-8 -5 -11 -10.5t-3 -12.5q0 -12 6 -18t24 -10l113 -25q65 -14 110 -27.5t72.5 -31t39.5 -42t12 -60.5v-8q0 -163 -262 -163
q-125 0 -189.5 42t-64.5 121v8q0 31 14 59t46 53q-27 15 -39 41.5t-12 51.5q0 28 12.5 49t31.5 36q-24 21 -35 55t-11 64v8q0 85 59.5 137t190.5 52h249q11 0 18 -7.5t7 -18.5v-57zM392 384q0 31 -18 51.5t-71 20.5t-72 -20.5t-19 -51.5v-8q0 -13 3.5 -25.5t13.5 -22.5
t27.5 -16t46.5 -6q53 0 71 19t18 51v8zM397 -33q0 7 -3.5 13.5t-14.5 12.5t-31 12t-54 14l-74 16q-9 -13 -14.5 -27.5t-5.5 -40.5v-8q0 -26 21 -38.5t79 -12.5q31 0 50 3.5t29.5 10.5t14 16.5t3.5 20.5v8zM218 642q0 3 2 7l65 108q8 12 12 16t13 4h75q12 0 12 -12
q0 -5 -1 -8l-26 -108q-5 -19 -20 -19h-117q-15 0 -15 12z" />
    <glyph glyph-name="Hcircumflex" unicode="&#x124;" horiz-adv-x="729" 
d="M659 20q0 -8 -6 -14t-14 -6h-131q-8 0 -14 6t-6 14v289h-247v-289q0 -8 -6 -14t-14 -6h-131q-8 0 -14 6t-6 14v704q0 8 6 13.5t14 5.5h131q8 0 14 -5.5t6 -13.5v-266h247v266q0 8 6 13.5t14 5.5h131q8 0 14 -5.5t6 -13.5v-704zM562 802q0 -7 -9 -7h-103q-10 0 -14 2.5
t-10 9.5l-63 70l-64 -70q-6 -7 -10 -9.5t-14 -2.5h-103q-9 0 -9 7q0 5 4 10l89 117q7 8 11.5 11.5t15.5 3.5h160q11 0 15.5 -3t11.5 -12l88 -117q4 -5 4 -10z" />
    <glyph glyph-name="hcircumflex" unicode="&#x125;" horiz-adv-x="612" 
d="M552 21q0 -8 -6.5 -14.5t-14.5 -6.5h-121q-8 0 -14 6.5t-6 14.5v333q0 26 -3 44t-11 29t-22.5 15.5t-37.5 4.5q-22 0 -45 -9t-49 -23v-394q0 -8 -6 -14.5t-14 -6.5h-121q-8 0 -14.5 6.5t-6.5 14.5v726q0 8 6 14t14 6h122q8 0 14 -6t6 -14v-211q38 25 73 35t80 10
q54 0 88.5 -18t54 -48.5t27 -72t7.5 -88.5v-333zM518 802q0 -7 -9 -7h-103q-10 0 -14 2.5t-10 9.5l-63 70l-64 -70q-6 -7 -10 -9.5t-14 -2.5h-103q-9 0 -9 7q0 5 4 10l89 117q7 8 11.5 11.5t15.5 3.5h160q11 0 15.5 -3t11.5 -12l88 -117q4 -5 4 -10z" />
    <glyph glyph-name="Hbar" unicode="&#x126;" horiz-adv-x="729" 
d="M659 20q0 -8 -6 -14t-14 -6h-131q-8 0 -14 6t-6 14v289h-247v-289q0 -8 -6 -14t-14 -6h-131q-8 0 -14 6t-6 14v511h-50q-8 0 -14 6t-6 14v95q0 8 6 14t14 6h50v58q0 8 6 13.5t14 5.5h131q8 0 14 -5.5t6 -13.5v-58h247v58q0 8 6 13.5t14 5.5h131q8 0 14 -5.5t6 -13.5v-58
h50q8 0 14 -6t6 -14v-95q0 -8 -6 -14t-14 -6h-50v-511zM488 458v73h-247v-73h247z" />
    <glyph glyph-name="hbar" unicode="&#x127;" horiz-adv-x="612" 
d="M222 638v-102q38 25 73 35t80 10q54 0 88.5 -18t54 -48.5t27 -72t7.5 -88.5v-333q0 -8 -6.5 -14.5t-14.5 -6.5h-121q-8 0 -14 6.5t-6 14.5v333q0 26 -3 44t-11 29t-22.5 15.5t-37.5 4.5q-22 0 -45 -9t-49 -23v-394q0 -8 -6 -14.5t-14 -6.5h-121q-8 0 -14.5 6.5t-6.5 14.5
v617h-41q-19 0 -19 19v37q0 19 19 19h41v34q0 8 6 14t14 6h122q8 0 14 -6t6 -14v-34h135q19 0 19 -19v-37q0 -19 -19 -19h-135z" />
    <glyph glyph-name="Itilde" unicode="&#x128;" horiz-adv-x="311" 
d="M241 20q0 -8 -5.5 -14t-13.5 -6h-134q-8 0 -13 6t-5 14v704q0 19 18 19h134q19 0 19 -19v-704zM355 909q0 -66 -32.5 -93t-89.5 -27q-15 0 -35 5.5t-36 16.5l-42 29q-26 18 -41 18q-10 0 -16.5 -5.5t-6.5 -21.5v-19q0 -17 -15 -17h-71q-15 0 -15 17v19q0 65 33 92t90 27
q15 0 34.5 -5t35.5 -16l43 -28q13 -8 22.5 -13t17.5 -5q11 0 17 5.5t6 21.5v19q0 16 16 16h70q15 0 15 -16v-20z" />
    <glyph glyph-name="itilde" unicode="&#x129;" horiz-adv-x="290" 
d="M226 21q0 -8 -6.5 -14.5t-14.5 -6.5h-120q-8 0 -14.5 6.5t-6.5 14.5v531q0 8 6.5 14.5t14.5 6.5h120q8 0 14.5 -6.5t6.5 -14.5v-531zM342 746q0 -66 -32.5 -93t-89.5 -27q-15 0 -35 5.5t-36 16.5l-42 29q-26 18 -41 18q-10 0 -16.5 -5.5t-6.5 -21.5v-19q0 -17 -15 -17
h-71q-15 0 -15 17v19q0 65 33 92t90 27q15 0 34.5 -5t35.5 -16l43 -28q13 -8 22.5 -13t17.5 -5q11 0 17 5.5t6 21.5v19q0 16 16 16h70q15 0 15 -16v-20z" />
    <glyph glyph-name="Imacron" unicode="&#x12a;" horiz-adv-x="311" 
d="M241 20q0 -8 -5.5 -14t-13.5 -6h-134q-8 0 -13 6t-5 14v704q0 19 18 19h134q19 0 19 -19v-704zM337 836q0 -8 -6 -13.5t-14 -5.5h-324q-8 0 -14 5.5t-6 13.5v72q0 8 6 13.5t14 5.5h324q8 0 14 -5.5t6 -13.5v-72z" />
    <glyph glyph-name="imacron" unicode="&#x12b;" horiz-adv-x="290" 
d="M226 21q0 -8 -6.5 -14.5t-14.5 -6.5h-120q-8 0 -14.5 6.5t-6.5 14.5v531q0 8 6.5 14.5t14.5 6.5h120q8 0 14.5 -6.5t6.5 -14.5v-531zM327 672q0 -8 -6 -13.5t-14 -5.5h-324q-8 0 -14 5.5t-6 13.5v72q0 8 6 13.5t14 5.5h324q8 0 14 -5.5t6 -13.5v-72z" />
    <glyph glyph-name="Ibreve" unicode="&#x12c;" horiz-adv-x="311" 
d="M241 20q0 -8 -5.5 -14t-13.5 -6h-134q-8 0 -13 6t-5 14v704q0 19 18 19h134q19 0 19 -19v-704zM338 943q0 -1 -0.5 -1.5t-0.5 -2.5q-7 -30 -21.5 -56.5t-37.5 -46t-54.5 -31t-71.5 -11.5q-41 0 -72 11.5t-54 31t-37.5 46t-21.5 56.5q0 2 -0.5 2.5t-0.5 1.5q0 7 10 7h87
q10 0 13 -12q8 -32 28 -44.5t48 -12.5t48 12.5t28 44.5q2 6 3.5 9t9.5 3h87q10 0 10 -7z" />
    <glyph glyph-name="ibreve" unicode="&#x12d;" horiz-adv-x="290" 
d="M226 21q0 -8 -6.5 -14.5t-14.5 -6.5h-120q-8 0 -14.5 6.5t-6.5 14.5v531q0 8 6.5 14.5t14.5 6.5h120q8 0 14.5 -6.5t6.5 -14.5v-531zM330 772q0 -1 -0.5 -1.5t-0.5 -2.5q-7 -30 -21.5 -56.5t-37.5 -46t-54.5 -31t-71.5 -11.5q-41 0 -72 11.5t-54 31t-37.5 46t-21.5 56.5
q0 2 -0.5 2.5t-0.5 1.5q0 7 10 7h87q10 0 13 -12q8 -32 28 -44.5t48 -12.5t48 12.5t28 44.5q2 6 3.5 9t9.5 3h87q10 0 10 -7z" />
    <glyph glyph-name="Iogonek" unicode="&#x12e;" horiz-adv-x="311" 
d="M241 20q0 -5 -1.5 -9.5t-7.5 -8.5l-45 -32q-13 -10 -19.5 -17t-6.5 -18q0 -14 9.5 -18t31.5 -4q19 0 39 4.5t28 4.5q7 0 8.5 -2t1.5 -10v-76q0 -5 -1.5 -8t-9.5 -7q-11 -5 -43.5 -12.5t-74.5 -7.5q-26 0 -50 4.5t-43 16t-30.5 30t-11.5 46.5q0 30 12 56t43 46v726
q0 19 18 19h134q19 0 19 -19v-704v0z" />
    <glyph glyph-name="iogonek" unicode="&#x12f;" horiz-adv-x="290" 
d="M226 20q0 -5 -1.5 -9t-7.5 -9l-39 -28q-21 -15 -21 -33q0 -28 38 -28q20 0 40.5 4.5t28.5 4.5q7 0 8.5 -2t1.5 -10v-76q0 -5 -1.5 -8t-9.5 -7q-11 -5 -43.5 -12.5t-74.5 -7.5q-26 0 -50 4.5t-43 16t-30.5 30t-11.5 46.5q0 30 11.5 56t42.5 46v554q0 8 6.5 14.5t14.5 6.5
h120q8 0 14.5 -6.5t6.5 -14.5v-532zM230 658q0 -8 -6 -14t-14 -6h-130q-8 0 -14 6t-6 14v93q0 8 6 14t14 6h130q8 0 14 -6t6 -14v-93z" />
    <glyph glyph-name="Idotaccent" unicode="&#x130;" horiz-adv-x="311" 
d="M241 20q0 -8 -5.5 -14t-13.5 -6h-134q-8 0 -13 6t-5 14v704q0 19 18 19h134q19 0 19 -19v-704zM239 822q0 -8 -6 -14t-14 -6h-130q-8 0 -14 6t-6 14v93q0 8 6 14t14 6h130q8 0 14 -6t6 -14v-93z" />
    <glyph glyph-name="dotlessi" unicode="&#x131;" horiz-adv-x="290" 
d="M226 21q0 -8 -6.5 -14.5t-14.5 -6.5h-120q-8 0 -14.5 6.5t-6.5 14.5v531q0 8 6.5 14.5t14.5 6.5h120q8 0 14.5 -6.5t6.5 -14.5v-531v0z" />
    <glyph glyph-name="IJ" unicode="&#x132;" horiz-adv-x="622" 
d="M241 20q0 -8 -5.5 -14t-13.5 -6h-134q-8 0 -13 6t-5 14v704q0 19 18 19h134q19 0 19 -19v-704zM552 -6q0 -51 -14 -84.5t-38 -53t-56.5 -27.5t-70.5 -8q-17 0 -30.5 1t-33.5 3q-15 2 -15 17v102q0 5 3 9.5t8 4.5h50q17 0 21.5 8.5t4.5 27.5v730q0 8 6 13.5t14 5.5h131
q8 0 14 -5.5t6 -13.5v-730z" />
    <glyph glyph-name="ij" unicode="&#x133;" horiz-adv-x="580" 
d="M230 658q0 -8 -6 -14t-14 -6h-130q-8 0 -14 6t-6 14v93q0 8 6 14t14 6h130q8 0 14 -6t6 -14v-93zM226 20q0 -8 -6 -14t-14 -6h-122q-8 0 -14 6t-6 14v533q0 8 6 14t14 6h122q8 0 14 -6t6 -14v-533zM520 658q0 -8 -6.5 -14t-14.5 -6h-129q-8 0 -14 6t-6 14v93q0 8 6 14
t14 6h129q8 0 14.5 -6t6.5 -14v-93zM516 -32q0 -50 -11 -83t-31.5 -52.5t-50 -27.5t-65.5 -8q-39 0 -80 7q-20 3 -20 20v79q0 18 21 18h44q21 0 26 10.5t5 36.5v584q0 8 5.5 14.5t13.5 6.5h124q8 0 13.5 -6.5t5.5 -14.5v-584z" />
    <glyph glyph-name="Jcircumflex" unicode="&#x134;" horiz-adv-x="311" 
d="M241 -6q0 -51 -14 -84.5t-38 -53t-56.5 -27.5t-70.5 -8q-17 0 -30.5 1t-33.5 3q-15 2 -15 17v102q0 5 3 9.5t8 4.5h50q17 0 21.5 8.5t4.5 27.5v730q0 8 6 13.5t14 5.5h131q8 0 14 -5.5t6 -13.5v-730zM354 802q0 -7 -9 -7h-103q-10 0 -14 2.5t-10 9.5l-63 70l-64 -70
q-6 -7 -10 -9.5t-14 -2.5h-103q-9 0 -9 7q0 5 4 10l89 117q7 8 11.5 11.5t15.5 3.5h160q11 0 15.5 -3t11.5 -12l88 -117q4 -5 4 -10z" />
    <glyph glyph-name="jcircumflex" unicode="&#x135;" horiz-adv-x="290" 
d="M226 -32q0 -50 -11 -83t-31.5 -52.5t-50 -27.5t-65.5 -8q-39 0 -80 7q-20 3 -20 20v79q0 18 21 18h44q21 0 26 10.5t5 36.5v584q0 8 5.5 14.5t13.5 6.5h124q8 0 13.5 -6.5t5.5 -14.5v-584zM342 637q0 -7 -9 -7h-103q-10 0 -14 2.5t-10 9.5l-63 70l-64 -70q-6 -7 -10 -9.5
t-14 -2.5h-103q-9 0 -9 7q0 5 4 10l89 117q7 8 11.5 11.5t15.5 3.5h160q11 0 15.5 -3t11.5 -12l88 -117q4 -5 4 -10z" />
    <glyph glyph-name="Kcommaaccent" unicode="&#x136;" horiz-adv-x="678" 
d="M652 732q0 -6 -5 -14l-238 -338l239 -359q4 -5 4 -11q0 -10 -14 -10h-172q-9 0 -13.5 4t-8.5 10l-203 330v-324q0 -8 -6 -14t-14 -6h-131q-8 0 -14 6t-6 14v704q0 8 6 13.5t14 5.5h131q8 0 14 -5.5t6 -13.5v-318l220 325q7 12 22 12h153q16 0 16 -11zM392 -38
q13 0 15 -5.5t-2 -13.5l-69 -118q-8 -12 -12 -16t-13 -4h-75q-6 0 -10 4.5t-1 15.5l30 118q5 19 20 19h117z" />
    <glyph glyph-name="kcommaaccent" unicode="&#x137;" horiz-adv-x="588" 
d="M558 562q0 -5 -4 -10l-186 -253l185 -278q2 -2 2 -8q0 -13 -13 -13h-151q-8 0 -13.5 2.5t-11.5 11.5l-144 235v-228q0 -8 -6 -14.5t-14 -6.5h-121q-8 0 -14.5 6.5t-6.5 14.5v726q0 8 6.5 14t14.5 6h121q8 0 14 -6t6 -14v-418l152 229q6 9 13 12t13 3h143q15 0 15 -11z
M342 -38q13 0 15 -5.5t-2 -13.5l-69 -118q-8 -12 -12 -16t-13 -4h-75q-6 0 -10 4.5t-1 15.5l30 118q5 19 20 19h117z" />
    <glyph glyph-name="kgreenlandic" unicode="&#x138;" horiz-adv-x="588" 
d="M543 573q11 0 13.5 -6.5t-2.5 -14.5l-186 -253l185 -278q5 -8 1.5 -14.5t-12.5 -6.5h-151q-8 0 -13.5 2.5t-11.5 11.5l-144 235v-228q0 -8 -6 -14.5t-14 -6.5h-121q-8 0 -14.5 6.5t-6.5 14.5v532q0 8 6.5 14t14.5 6h121q8 0 14 -6t6 -14v-224l152 229q6 9 13 12t13 3h143
v0z" />
    <glyph glyph-name="Lacute" unicode="&#x139;" horiz-adv-x="519" 
d="M497 25q0 -17 -20 -21q-12 -3 -32 -5t-42.5 -4t-45.5 -3t-43 -1q-48 0 -92.5 8t-78 31t-53.5 65.5t-20 110.5v517q0 8 6 14t14 6h131q8 0 14 -6t6 -14v-517q0 -39 14.5 -53.5t49.5 -14.5h172q8 0 14 -6t6 -14v-93zM427 936q0 -4 -4 -8l-122 -122q-6 -6 -10 -9t-14 -3
h-107q-9 0 -9 7q0 5 4 10l93 117q7 8 11.5 11.5t15.5 3.5h131q11 0 11 -7z" />
    <glyph glyph-name="lacute" unicode="&#x13a;" horiz-adv-x="282" 
d="M222 21q0 -8 -5.5 -14.5t-13.5 -6.5h-122q-8 0 -14.5 6.5t-6.5 14.5v726q0 8 6.5 14t14.5 6h122q8 0 13.5 -6t5.5 -14v-726zM309 951q0 -4 -4 -8l-122 -122q-6 -6 -10 -9t-14 -3h-107q-9 0 -9 7q0 5 4 10l93 117q7 8 11.5 11.5t15.5 3.5h131q11 0 11 -7z" />
    <glyph glyph-name="Lcommaaccent" unicode="&#x13b;" horiz-adv-x="519" 
d="M497 25q0 -17 -20 -21q-12 -3 -32 -5t-42.5 -4t-45.5 -3t-43 -1q-48 0 -92.5 8t-78 31t-53.5 65.5t-20 110.5v517q0 8 6 14t14 6h131q8 0 14 -6t6 -14v-517q0 -39 14.5 -53.5t49.5 -14.5h172q8 0 14 -6t6 -14v-93zM318 -38q13 0 15 -5.5t-2 -13.5l-69 -118
q-8 -12 -12 -16t-13 -4h-75q-6 0 -10 4.5t-1 15.5l30 118q5 19 20 19h117z" />
    <glyph glyph-name="lcommaaccent" unicode="&#x13c;" horiz-adv-x="282" 
d="M222 21q0 -8 -5.5 -14.5t-13.5 -6.5h-122q-8 0 -14.5 6.5t-6.5 14.5v726q0 8 6.5 14t14.5 6h122q8 0 13.5 -6t5.5 -14v-726zM199 -38q13 0 15 -5.5t-2 -13.5l-69 -118q-8 -12 -12 -16t-13 -4h-75q-6 0 -10 4.5t-1 15.5l30 118q5 19 20 19h117z" />
    <glyph glyph-name="Lcaron" unicode="&#x13d;" horiz-adv-x="519" 
d="M497 25q0 -17 -20 -21q-12 -3 -32 -5t-42.5 -4t-45.5 -3t-43 -1q-48 0 -92.5 8t-78 31t-53.5 65.5t-20 110.5v517q0 8 6 14t14 6h131q8 0 14 -6t6 -14v-517q0 -39 14.5 -53.5t49.5 -14.5h172q8 0 14 -6t6 -14v-93zM491 756q0 -2 -2 -8l-75 -219q-4 -10 -7.5 -14.5
t-11.5 -4.5h-101q-9 0 -9 10v4.5t1 4.5l54 219q4 19 20 19h119q12 0 12 -11z" />
    <glyph glyph-name="lcaron" unicode="&#x13e;" horiz-adv-x="445" 
d="M222 21q0 -8 -5.5 -14.5t-13.5 -6.5h-122q-8 0 -14.5 6.5t-6.5 14.5v726q0 8 6.5 14t14.5 6h122q8 0 13.5 -6t5.5 -14v-726zM470 756q0 -2 -2 -8l-75 -219q-4 -10 -7.5 -14.5t-11.5 -4.5h-101q-9 0 -9 10v4.5t1 4.5l54 219q4 19 20 19h119q12 0 12 -11z" />
    <glyph glyph-name="Ldot" unicode="&#x13f;" horiz-adv-x="519" 
d="M497 25q0 -17 -20 -21q-12 -3 -32 -5t-42.5 -4t-45.5 -3t-43 -1q-48 0 -92.5 8t-78 31t-53.5 65.5t-20 110.5v517q0 8 6 14t14 6h131q8 0 14 -6t6 -14v-517q0 -39 14.5 -53.5t49.5 -14.5h172q8 0 14 -6t6 -14v-93zM479 362q0 -8 -6 -14t-14 -6h-130q-8 0 -14 6t-6 14v93
q0 8 6 14t14 6h130q8 0 14 -6t6 -14v-93z" />
    <glyph glyph-name="ldot" unicode="&#x140;" horiz-adv-x="467" 
d="M222 21q0 -8 -5.5 -14.5t-13.5 -6.5h-122q-8 0 -14.5 6.5t-6.5 14.5v726q0 8 6.5 14t14.5 6h122q8 0 13.5 -6t5.5 -14v-726zM437 362q0 -8 -6 -14t-14 -6h-130q-8 0 -14 6t-6 14v93q0 8 6 14t14 6h130q8 0 14 -6t6 -14v-93z" />
    <glyph glyph-name="Lslash" unicode="&#x141;" horiz-adv-x="519" 
d="M497 25q0 -17 -20 -21q-12 -3 -32 -5t-42.5 -4t-45.5 -3t-43 -1q-48 0 -92.5 8t-78 31t-53.5 65.5t-20 110.5v11l-38 -38q-4 -4 -7 -4q-5 0 -5 6v139v3q0 6 1 9t8 10l41 41v340q0 8 6 14t14 6h130q8 0 14 -6t6 -14v-173l70 68q3 3 8 3q8 0 8 -8v-135q0 -6 -1 -9.5
t-6 -8.5l-79 -77v-177q0 -39 14.5 -53.5t49.5 -14.5h173q8 0 14 -6t6 -14v-93v0z" />
    <glyph glyph-name="lslash" unicode="&#x142;" horiz-adv-x="282" 
d="M294 478q0 -6 -1 -9.5t-6 -8.5l-64 -63v-376q0 -8 -6 -14.5t-14 -6.5h-122q-8 0 -14.5 6.5t-6.5 14.5v216l-59 -58q-4 -4 -7 -4q-5 0 -5 6v139v3q0 6 1 9t8 10l62 62v343q0 8 6.5 14t14.5 6h122q8 0 14 -6t6 -14v-183l55 54q3 3 7 3q9 0 9 -8v-135v0z" />
    <glyph glyph-name="Nacute" unicode="&#x143;" horiz-adv-x="729" 
d="M659 38q0 -16 -11.5 -27t-27.5 -11h-98q-16 0 -28 5.5t-24 25.5l-228 394q-5 8 -9 8q-5 0 -5 -8v-405q0 -8 -6 -14t-14 -6h-118q-8 0 -14 6t-6 14v685q0 16 11 27t27 11h101q15 0 24 -7.5t18 -23.5l237 -412q5 -8 8 -8q5 0 5 9v423q0 8 6 13.5t14 5.5h118q8 0 14 -5.5
t6 -13.5v-686zM533 936q0 -4 -4 -8l-122 -122q-6 -6 -10 -9t-14 -3h-107q-9 0 -9 7q0 5 4 10l93 117q7 8 11.5 11.5t15.5 3.5h131q11 0 11 -7z" />
    <glyph glyph-name="nacute" unicode="&#x144;" horiz-adv-x="612" 
d="M552 21q0 -8 -6.5 -14.5t-14.5 -6.5h-121q-8 0 -14 6.5t-6 14.5v333q0 26 -3 44t-11 29t-22.5 15.5t-37.5 4.5q-22 0 -45 -9t-49 -23v-394q0 -8 -6 -14.5t-14 -6.5h-121q-8 0 -14.5 6.5t-6.5 14.5v532q0 8 6 14t14 6h112q8 0 14 -6t6 -14v-24q41 29 78 40.5t85 11.5
q54 0 88.5 -18t54 -48.5t27 -72t7.5 -88.5v-333zM474 772q0 -4 -4 -8l-122 -122q-6 -6 -10 -9t-14 -3h-107q-9 0 -9 7q0 5 4 10l93 117q7 8 11.5 11.5t15.5 3.5h131q11 0 11 -7z" />
    <glyph glyph-name="Ncommaaccent" unicode="&#x145;" horiz-adv-x="729" 
d="M659 38q0 -16 -11.5 -27t-27.5 -11h-98q-16 0 -28 5.5t-24 25.5l-228 394q-5 8 -9 8q-5 0 -5 -8v-405q0 -8 -6 -14t-14 -6h-118q-8 0 -14 6t-6 14v685q0 16 11 27t27 11h101q15 0 24 -7.5t18 -23.5l237 -412q5 -8 8 -8q5 0 5 9v423q0 8 6 13.5t14 5.5h118q8 0 14 -5.5
t6 -13.5v-686zM423 -38q13 0 15 -5.5t-2 -13.5l-69 -118q-8 -12 -12 -16t-13 -4h-75q-6 0 -10 4.5t-1 15.5l30 118q5 19 20 19h117z" />
    <glyph glyph-name="ncommaaccent" unicode="&#x146;" horiz-adv-x="612" 
d="M552 21q0 -8 -6.5 -14.5t-14.5 -6.5h-121q-8 0 -14 6.5t-6 14.5v333q0 26 -3 44t-11 29t-22.5 15.5t-37.5 4.5q-22 0 -45 -9t-49 -23v-394q0 -8 -6 -14.5t-14 -6.5h-121q-8 0 -14.5 6.5t-6.5 14.5v532q0 8 6 14t14 6h112q8 0 14 -6t6 -14v-24q41 29 78 40.5t85 11.5
q54 0 88.5 -18t54 -48.5t27 -72t7.5 -88.5v-333zM351 -38q13 0 15 -5.5t-2 -13.5l-69 -118q-8 -12 -12 -16t-13 -4h-75q-6 0 -10 4.5t-1 15.5l30 118q5 19 20 19h117z" />
    <glyph glyph-name="Ncaron" unicode="&#x147;" horiz-adv-x="729" 
d="M659 38q0 -16 -11.5 -27t-27.5 -11h-98q-16 0 -28 5.5t-24 25.5l-228 394q-5 8 -9 8q-5 0 -5 -8v-405q0 -8 -6 -14t-14 -6h-118q-8 0 -14 6t-6 14v685q0 16 11 27t27 11h101q15 0 24 -7.5t18 -23.5l237 -412q5 -8 8 -8q5 0 5 9v423q0 8 6 13.5t14 5.5h118q8 0 14 -5.5
t6 -13.5v-686zM564 936q0 -5 -4 -10l-89 -117q-7 -8 -11.5 -11.5t-15.5 -3.5h-160q-11 0 -15.5 3t-11.5 12l-88 117q-4 5 -4 10q0 7 9 7h103q10 0 14 -2.5t10 -9.5l63 -70l64 70q6 7 10 9.5t14 2.5h103q9 0 9 -7z" />
    <glyph glyph-name="ncaron" unicode="&#x148;" horiz-adv-x="612" 
d="M552 21q0 -8 -6.5 -14.5t-14.5 -6.5h-121q-8 0 -14 6.5t-6 14.5v333q0 26 -3 44t-11 29t-22.5 15.5t-37.5 4.5q-22 0 -45 -9t-49 -23v-394q0 -8 -6 -14.5t-14 -6.5h-121q-8 0 -14.5 6.5t-6.5 14.5v532q0 8 6 14t14 6h112q8 0 14 -6t6 -14v-24q41 29 78 40.5t85 11.5
q54 0 88.5 -18t54 -48.5t27 -72t7.5 -88.5v-333zM506 772q0 -5 -4 -10l-89 -117q-7 -8 -11.5 -11.5t-15.5 -3.5h-160q-11 0 -15.5 3t-11.5 12l-88 117q-4 5 -4 10q0 7 9 7h103q10 0 14 -2.5t10 -9.5l63 -70l64 70q6 7 10 9.5t14 2.5h103q9 0 9 -7z" />
    <glyph glyph-name="napostrophe" unicode="&#x149;" horiz-adv-x="805" 
d="M230 756q0 -2 -2 -8l-75 -219q-4 -10 -7.5 -14.5t-11.5 -4.5h-101q-9 0 -9 10v4.5t1 4.5l54 219q4 19 20 19h119q12 0 12 -11zM745 21q0 -8 -6.5 -14.5t-14.5 -6.5h-121q-8 0 -14 6.5t-6 14.5v333q0 26 -3 44t-11 29t-22.5 15.5t-37.5 4.5q-22 0 -45 -9t-49 -23v-394
q0 -8 -6 -14.5t-14 -6.5h-121q-8 0 -14.5 6.5t-6.5 14.5v532q0 8 6 14t14 6h112q8 0 14 -6t6 -14v-24q41 29 78 40.5t85 11.5q54 0 88.5 -18t54 -48.5t27 -72t7.5 -88.5v-333z" />
    <glyph glyph-name="Eng" unicode="&#x14a;" horiz-adv-x="729" 
d="M659 -6q0 -51 -14 -84.5t-38 -53t-56.5 -27.5t-70.5 -8q-17 0 -30.5 1t-33.5 3q-15 2 -15 17v102q0 5 3 9.5t8 4.5h50q17 0 21.5 8.5t4.5 27.5v15q-10 8 -18 22l-228 394q-5 8 -9 8q-5 0 -5 -8v-405q0 -8 -6 -14t-14 -6h-118q-8 0 -14 6t-6 14v685q0 16 11 27t27 11h101
q15 0 24 -7.5t18 -23.5l237 -412q5 -8 8 -8q5 0 5 9v423q0 8 6 13.5t14 5.5h118q8 0 14 -5.5t6 -13.5v-730v0z" />
    <glyph glyph-name="eng" unicode="&#x14b;" horiz-adv-x="612" 
d="M552 -32q0 -50 -11 -83t-31.5 -52.5t-50 -27.5t-65.5 -8q-39 0 -80 7q-20 3 -20 20v79q0 18 21 18h44q21 0 26 10.5t5 36.5v386q0 26 -3 44t-11 29t-22.5 15.5t-37.5 4.5q-22 0 -45 -9t-49 -23v-394q0 -8 -6 -14.5t-14 -6.5h-121q-8 0 -14.5 6.5t-6.5 14.5v532q0 8 6 14
t14 6h112q8 0 14 -6t6 -14v-24q41 29 78 40.5t85 11.5q54 0 88.5 -18t54 -48.5t27 -72t7.5 -88.5v-386v0z" />
    <glyph glyph-name="Omacron" unicode="&#x14c;" horiz-adv-x="698" 
d="M645 312q0 -87 -23 -148t-63 -99.5t-94 -56t-116 -17.5t-116 17.5t-94 56t-63 99.5t-23 148v119q0 87 23 148t63 99.5t94 56t116 17.5t116 -17.5t94 -56t63 -99.5t23 -148v-119zM473 431q0 91 -30.5 131t-93.5 40t-93 -40t-30 -131v-119q0 -91 30 -131t93 -40t93.5 40
t30.5 131v119zM531 836q0 -8 -6 -13.5t-14 -5.5h-324q-8 0 -14 5.5t-6 13.5v72q0 8 6 13.5t14 5.5h324q8 0 14 -5.5t6 -13.5v-72z" />
    <glyph glyph-name="omacron" unicode="&#x14d;" horiz-adv-x="589" 
d="M545 251q0 -60 -16.5 -108t-48 -81.5t-78 -52t-107.5 -18.5t-107.5 18.5t-78.5 52t-48.5 81.5t-16.5 108v70q0 60 16.5 108t48.5 81.5t78.5 52t107.5 18.5t107.5 -18.5t78 -52t48 -81.5t16.5 -108v-70zM384 321q0 122 -89 122q-44 0 -67 -30.5t-23 -91.5v-70
q0 -61 23 -92t67 -31q89 0 89 123v70zM477 672q0 -8 -6 -13.5t-14 -5.5h-324q-8 0 -14 5.5t-6 13.5v72q0 8 6 13.5t14 5.5h324q8 0 14 -5.5t6 -13.5v-72z" />
    <glyph glyph-name="Obreve" unicode="&#x14e;" horiz-adv-x="698" 
d="M645 312q0 -87 -23 -148t-63 -99.5t-94 -56t-116 -17.5t-116 17.5t-94 56t-63 99.5t-23 148v119q0 87 23 148t63 99.5t94 56t116 17.5t116 -17.5t94 -56t63 -99.5t23 -148v-119zM473 431q0 91 -30.5 131t-93.5 40t-93 -40t-30 -131v-119q0 -91 30 -131t93 -40t93.5 40
t30.5 131v119zM535 944q0 -1 -0.5 -1.5t-0.5 -2.5q-7 -30 -21.5 -56.5t-37.5 -46t-54.5 -31t-71.5 -11.5q-41 0 -72 11.5t-54 31t-37.5 46t-21.5 56.5q0 2 -0.5 2.5t-0.5 1.5q0 7 10 7h87q10 0 13 -12q8 -32 28 -44.5t48 -12.5t48 12.5t28 44.5q2 6 3.5 9t9.5 3h87
q10 0 10 -7z" />
    <glyph glyph-name="obreve" unicode="&#x14f;" horiz-adv-x="589" 
d="M545 251q0 -60 -16.5 -108t-48 -81.5t-78 -52t-107.5 -18.5t-107.5 18.5t-78.5 52t-48.5 81.5t-16.5 108v70q0 60 16.5 108t48.5 81.5t78.5 52t107.5 18.5t107.5 -18.5t78 -52t48 -81.5t16.5 -108v-70zM384 321q0 122 -89 122q-44 0 -67 -30.5t-23 -91.5v-70
q0 -61 23 -92t67 -31q89 0 89 123v70zM483 772q0 -1 -0.5 -1.5t-0.5 -2.5q-7 -30 -21.5 -56.5t-37.5 -46t-54.5 -31t-71.5 -11.5q-41 0 -72 11.5t-54 31t-37.5 46t-21.5 56.5q0 2 -0.5 2.5t-0.5 1.5q0 7 10 7h87q10 0 13 -12q8 -32 28 -44.5t48 -12.5t48 12.5t28 44.5
q2 6 3.5 9t9.5 3h87q10 0 10 -7z" />
    <glyph glyph-name="Ohungarumlaut" unicode="&#x150;" horiz-adv-x="698" 
d="M645 312q0 -87 -23 -148t-63 -99.5t-94 -56t-116 -17.5t-116 17.5t-94 56t-63 99.5t-23 148v119q0 87 23 148t63 99.5t94 56t116 17.5t116 -17.5t94 -56t63 -99.5t23 -148v-119zM473 431q0 91 -30.5 131t-93.5 40t-93 -40t-30 -131v-119q0 -91 30 -131t93 -40t93.5 40
t30.5 131v119zM634 936q0 -4 -4 -8l-122 -122q-6 -6 -10.5 -9t-14.5 -3h-107q-9 0 -9 7q0 5 4 10l93 117q7 8 11.5 11.5t15.5 3.5h132q11 0 11 -7zM401 936q0 -4 -4 -8l-122 -122q-6 -6 -10.5 -9t-14.5 -3h-107q-9 0 -9 7q0 5 4 10l93 117q7 8 11.5 11.5t15.5 3.5h132
q11 0 11 -7z" />
    <glyph glyph-name="ohungarumlaut" unicode="&#x151;" horiz-adv-x="589" 
d="M545 251q0 -60 -16.5 -108t-48 -81.5t-78 -52t-107.5 -18.5t-107.5 18.5t-78.5 52t-48.5 81.5t-16.5 108v70q0 60 16.5 108t48.5 81.5t78.5 52t107.5 18.5t107.5 -18.5t78 -52t48 -81.5t16.5 -108v-70zM384 321q0 122 -89 122q-44 0 -67 -30.5t-23 -91.5v-70
q0 -61 23 -92t67 -31q89 0 89 123v70zM580 772q0 -4 -4 -8l-122 -122q-6 -6 -10.5 -9t-14.5 -3h-107q-9 0 -9 7q0 5 4 10l93 117q7 8 11.5 11.5t15.5 3.5h132q11 0 11 -7zM347 772q0 -4 -4 -8l-122 -122q-6 -6 -10.5 -9t-14.5 -3h-107q-9 0 -9 7q0 5 4 10l93 117
q7 8 11.5 11.5t15.5 3.5h132q11 0 11 -7z" />
    <glyph glyph-name="OE" unicode="&#x152;" horiz-adv-x="987" 
d="M931 25q0 -18 -20 -21q-26 -4 -69.5 -8.5t-124.5 -4.5q-54 0 -102.5 10t-82.5 41q-38 -27 -84.5 -39t-98.5 -12q-62 0 -116 17.5t-94 56t-63 99.5t-23 148v119q0 87 23 148t63 99.5t94 56t116 17.5q53 0 99 -12.5t84 -39.5q35 31 83.5 41t102.5 10q40 0 70.5 -1.5
t53.5 -3.5t39.5 -4t29.5 -4q20 -3 20 -20v-93q0 -8 -6 -14t-14 -6h-203q-35 0 -49.5 -14.5t-14.5 -53.5v-72q0 -5 0.5 -9t0.5 -9h258q8 0 14 -6t6 -14v-95q0 -8 -6 -14t-14 -6h-258q0 -9 -0.5 -17.5t-0.5 -16.5v-72q0 -39 14.5 -53.5t49.5 -14.5h203q8 0 14 -6t6 -14v-93z
M473 431q0 91 -30.5 131t-93.5 40t-93 -40t-30 -131v-119q0 -91 30 -131t93 -40t93.5 40t30.5 131v119z" />
    <glyph glyph-name="oe" unicode="&#x153;" horiz-adv-x="932" 
d="M887 260q0 -24 -21 -24h-319v-5v-3q1 -21 6.5 -39.5t17.5 -32.5t31 -22.5t48 -8.5q24 0 51 1t53.5 2t49.5 2.5t38 3.5h3q19 0 19 -16v-76q0 -12 -4 -18t-17 -9q-48 -12 -94 -18t-111 -6q-45 0 -90.5 14.5t-80.5 50.5q-32 -32 -74.5 -48.5t-96.5 -16.5q-61 0 -107.5 18.5
t-78.5 52t-48.5 81.5t-16.5 108v70q0 60 16.5 108t48.5 81.5t78.5 52t107.5 18.5q55 0 97.5 -18t74.5 -49q32 32 75 49.5t97 17.5q61 0 107.5 -20t77.5 -55t46.5 -83t15.5 -105v-58zM729 340q0 56 -24 83.5t-66 27.5q-41 0 -66.5 -27t-25.5 -81v-7h182v4zM385 321
q0 122 -89 122t-89 -122v-70q0 -123 89 -123t89 123v70z" />
    <glyph glyph-name="Racute" unicode="&#x154;" horiz-adv-x="680" 
d="M644 12q0 -12 -15 -12h-153q-8 0 -12 6t-8 14l-134 253l-11 -1q-16 0 -36.5 1t-34.5 1v-254q0 -8 -6 -14t-14 -6h-130q-8 0 -14 6t-6 14v671q0 26 11 35t34 13q17 3 41 5t51 4t55.5 3t55.5 1q64 0 119 -11.5t95.5 -39t63.5 -72.5t23 -111v-13q0 -80 -37 -129t-92 -71
l151 -282q3 -6 3 -11zM449 518q0 46 -34 67.5t-97 21.5q-5 0 -16.5 -0.5t-23.5 -1t-23 -1t-15 -0.5v-192q4 0 14 -0.5t21.5 -1t21.5 -0.5h14q39 0 65.5 5.5t42.5 16.5t23 29t7 44v13zM508 936q0 -4 -4 -8l-122 -122q-6 -6 -10 -9t-14 -3h-107q-9 0 -9 7q0 5 4 10l93 117
q7 8 11.5 11.5t15.5 3.5h131q11 0 11 -7z" />
    <glyph glyph-name="racute" unicode="&#x155;" horiz-adv-x="396" 
d="M374 466q0 -7 -4 -13t-11 -6h-8q-37 0 -69 -10t-60 -25v-391q0 -8 -6 -14.5t-14 -6.5h-121q-8 0 -14.5 6.5t-6.5 14.5v532q0 8 6 14t14 6h119q8 0 14 -6t6 -14v-20q28 23 63.5 35.5t71.5 12.5q8 0 14 -6t6 -14v-95zM366 772q0 -4 -4 -8l-122 -122q-6 -6 -10 -9t-14 -3
h-107q-9 0 -9 7q0 5 4 10l93 117q7 8 11.5 11.5t15.5 3.5h131q11 0 11 -7z" />
    <glyph glyph-name="Rcommaaccent" unicode="&#x156;" horiz-adv-x="680" 
d="M644 12q0 -12 -15 -12h-153q-8 0 -12 6t-8 14l-134 253l-11 -1q-16 0 -36.5 1t-34.5 1v-254q0 -8 -6 -14t-14 -6h-130q-8 0 -14 6t-6 14v671q0 26 11 35t34 13q17 3 41 5t51 4t55.5 3t55.5 1q64 0 119 -11.5t95.5 -39t63.5 -72.5t23 -111v-13q0 -80 -37 -129t-92 -71
l151 -282q3 -6 3 -11zM449 518q0 46 -34 67.5t-97 21.5q-5 0 -16.5 -0.5t-23.5 -1t-23 -1t-15 -0.5v-192q4 0 14 -0.5t21.5 -1t21.5 -0.5h14q39 0 65.5 5.5t42.5 16.5t23 29t7 44v13zM399 -38q13 0 15 -5.5t-2 -13.5l-69 -118q-8 -12 -12 -16t-13 -4h-75q-6 0 -10 4.5
t-1 15.5l30 118q5 19 20 19h117z" />
    <glyph glyph-name="rcommaaccent" unicode="&#x157;" horiz-adv-x="396" 
d="M374 466q0 -7 -4 -13t-11 -6h-8q-37 0 -69 -10t-60 -25v-391q0 -8 -6 -14.5t-14 -6.5h-121q-8 0 -14.5 6.5t-6.5 14.5v532q0 8 6 14t14 6h119q8 0 14 -6t6 -14v-20q28 23 63.5 35.5t71.5 12.5q8 0 14 -6t6 -14v-95zM256 -38q13 0 15 -5.5t-2 -13.5l-69 -118
q-8 -12 -12 -16t-13 -4h-75q-6 0 -10 4.5t-1 15.5l30 118q5 19 20 19h117z" />
    <glyph glyph-name="Rcaron" unicode="&#x158;" horiz-adv-x="680" 
d="M644 12q0 -12 -15 -12h-153q-8 0 -12 6t-8 14l-134 253l-11 -1q-16 0 -36.5 1t-34.5 1v-254q0 -8 -6 -14t-14 -6h-130q-8 0 -14 6t-6 14v671q0 26 11 35t34 13q17 3 41 5t51 4t55.5 3t55.5 1q64 0 119 -11.5t95.5 -39t63.5 -72.5t23 -111v-13q0 -80 -37 -129t-92 -71
l151 -282q3 -6 3 -11zM449 518q0 46 -34 67.5t-97 21.5q-5 0 -16.5 -0.5t-23.5 -1t-23 -1t-15 -0.5v-192q4 0 14 -0.5t21.5 -1t21.5 -0.5h14q39 0 65.5 5.5t42.5 16.5t23 29t7 44v13zM540 936q0 -5 -4 -10l-89 -117q-7 -8 -11.5 -11.5t-15.5 -3.5h-160q-11 0 -15.5 3
t-11.5 12l-88 117q-4 5 -4 10q0 7 9 7h103q10 0 14 -2.5t10 -9.5l63 -70l64 70q6 7 10 9.5t14 2.5h103q9 0 9 -7z" />
    <glyph glyph-name="rcaron" unicode="&#x159;" horiz-adv-x="396" 
d="M374 466q0 -7 -4 -13t-11 -6h-8q-37 0 -69 -10t-60 -25v-391q0 -8 -6 -14.5t-14 -6.5h-121q-8 0 -14.5 6.5t-6.5 14.5v532q0 8 6 14t14 6h119q8 0 14 -6t6 -14v-20q28 23 63.5 35.5t71.5 12.5q8 0 14 -6t6 -14v-95zM397 772q0 -5 -4 -10l-89 -117q-7 -8 -11.5 -11.5
t-15.5 -3.5h-160q-11 0 -15.5 3t-11.5 12l-88 117q-4 5 -4 10q0 7 9 7h103q10 0 14 -2.5t10 -9.5l63 -70l64 70q6 7 10 9.5t14 2.5h103q9 0 9 -7z" />
    <glyph glyph-name="Sacute" unicode="&#x15a;" horiz-adv-x="588" 
d="M546 210q0 -40 -14 -79t-46.5 -70t-84.5 -50.5t-128 -19.5q-60 0 -105.5 6t-83.5 16q-8 2 -14 7t-6 13v98q0 11 5 15t13 4h3q15 -2 41.5 -4t54.5 -3.5t53.5 -3t40.5 -1.5q52 0 70.5 17t18.5 53q0 22 -13.5 37.5t-52.5 38.5l-138 82q-35 21 -57.5 43t-36 46t-19 49.5
t-5.5 52.5q0 41 12.5 76.5t42.5 62t79 41.5t122 15q27 0 58.5 -2t60.5 -5t54 -7t39 -8q6 -2 10.5 -6t4.5 -12v-101q0 -7 -3.5 -12t-13.5 -5h-2q-11 1 -35.5 2.5t-55.5 3.5t-63.5 3.5t-57.5 1.5q-43 0 -60.5 -13t-17.5 -40q0 -11 3 -19t10.5 -15.5t20.5 -16t33 -19.5l128 -69
q78 -42 106.5 -92t28.5 -111zM462 936q0 -4 -4 -8l-122 -122q-6 -6 -10 -9t-14 -3h-107q-9 0 -9 7q0 5 4 10l93 117q7 8 11.5 11.5t15.5 3.5h131q11 0 11 -7z" />
    <glyph glyph-name="sacute" unicode="&#x15b;" horiz-adv-x="503" 
d="M461 159q0 -35 -13 -66t-39.5 -53.5t-66.5 -35.5t-95 -13q-21 0 -44.5 1.5t-48 4.5t-47.5 7t-42 9t-19 23v81q0 8 5 13.5t14 5.5h4q20 -3 44.5 -5.5t48.5 -4.5t44.5 -3t32.5 -1q36 0 47.5 9.5t11.5 29.5q0 11 -8 20.5t-29 21.5l-130 75q-42 24 -65.5 61.5t-23.5 86.5
q0 76 50.5 115.5t154.5 39.5q59 0 99.5 -6.5t78.5 -16.5q19 -5 19 -23v-81q0 -19 -17 -19h-3q-11 1 -31 3.5t-43.5 4.5t-48 3.5t-43.5 1.5q-29 0 -41 -6t-12 -23q0 -11 8 -18.5t23 -16.5l124 -71q31 -18 50.5 -36.5t31 -38t15.5 -39.5t4 -40zM419 772q0 -4 -4 -8l-122 -122
q-6 -6 -10 -9t-14 -3h-107q-9 0 -9 7q0 5 4 10l93 117q7 8 11.5 11.5t15.5 3.5h131q11 0 11 -7z" />
    <glyph glyph-name="Scircumflex" unicode="&#x15c;" horiz-adv-x="588" 
d="M546 210q0 -40 -14 -79t-46.5 -70t-84.5 -50.5t-128 -19.5q-60 0 -105.5 6t-83.5 16q-8 2 -14 7t-6 13v98q0 11 5 15t13 4h3q15 -2 41.5 -4t54.5 -3.5t53.5 -3t40.5 -1.5q52 0 70.5 17t18.5 53q0 22 -13.5 37.5t-52.5 38.5l-138 82q-35 21 -57.5 43t-36 46t-19 49.5
t-5.5 52.5q0 41 12.5 76.5t42.5 62t79 41.5t122 15q27 0 58.5 -2t60.5 -5t54 -7t39 -8q6 -2 10.5 -6t4.5 -12v-101q0 -7 -3.5 -12t-13.5 -5h-2q-11 1 -35.5 2.5t-55.5 3.5t-63.5 3.5t-57.5 1.5q-43 0 -60.5 -13t-17.5 -40q0 -11 3 -19t10.5 -15.5t20.5 -16t33 -19.5l128 -69
q78 -42 106.5 -92t28.5 -111zM486 802q0 -7 -9 -7h-103q-10 0 -14 2.5t-10 9.5l-63 70l-64 -70q-6 -7 -10 -9.5t-14 -2.5h-103q-9 0 -9 7q0 5 4 10l89 117q7 8 11.5 11.5t15.5 3.5h160q11 0 15.5 -3t11.5 -12l88 -117q4 -5 4 -10z" />
    <glyph glyph-name="scircumflex" unicode="&#x15d;" horiz-adv-x="503" 
d="M461 159q0 -35 -13 -66t-39.5 -53.5t-66.5 -35.5t-95 -13q-21 0 -44.5 1.5t-48 4.5t-47.5 7t-42 9t-19 23v81q0 8 5 13.5t14 5.5h4q20 -3 44.5 -5.5t48.5 -4.5t44.5 -3t32.5 -1q36 0 47.5 9.5t11.5 29.5q0 11 -8 20.5t-29 21.5l-130 75q-42 24 -65.5 61.5t-23.5 86.5
q0 76 50.5 115.5t154.5 39.5q59 0 99.5 -6.5t78.5 -16.5q19 -5 19 -23v-81q0 -19 -17 -19h-3q-11 1 -31 3.5t-43.5 4.5t-48 3.5t-43.5 1.5q-29 0 -41 -6t-12 -23q0 -11 8 -18.5t23 -16.5l124 -71q31 -18 50.5 -36.5t31 -38t15.5 -39.5t4 -40zM440 637q0 -7 -9 -7h-103
q-10 0 -14 2.5t-10 9.5l-63 70l-64 -70q-6 -7 -10 -9.5t-14 -2.5h-103q-9 0 -9 7q0 5 4 10l89 117q7 8 11.5 11.5t15.5 3.5h160q11 0 15.5 -3t11.5 -12l88 -117q4 -5 4 -10z" />
    <glyph glyph-name="uni015E" unicode="&#x15e;" horiz-adv-x="588" 
d="M546 210q0 -40 -14 -79t-46.5 -70t-84.5 -50.5t-128 -19.5q-60 0 -105.5 6t-83.5 16q-8 2 -14 7t-6 13v98q0 11 5 15t13 4h3q15 -2 41.5 -4t54.5 -3.5t53.5 -3t40.5 -1.5q52 0 70.5 17t18.5 53q0 22 -13.5 37.5t-52.5 38.5l-138 82q-35 21 -57.5 43t-36 46t-19 49.5
t-5.5 52.5q0 41 12.5 76.5t42.5 62t79 41.5t122 15q27 0 58.5 -2t60.5 -5t54 -7t39 -8q6 -2 10.5 -6t4.5 -12v-101q0 -7 -3.5 -12t-13.5 -5h-2q-11 1 -35.5 2.5t-55.5 3.5t-63.5 3.5t-57.5 1.5q-43 0 -60.5 -13t-17.5 -40q0 -11 3 -19t10.5 -15.5t20.5 -16t33 -19.5l128 -69
q78 -42 106.5 -92t28.5 -111zM395 -45q0 -4 -4 -8l-127 -130q-6 -6 -10 -9t-14 -3h-107q-9 0 -9 7q0 5 4 10l97 125q7 8 11.5 11.5t15.5 3.5h132q11 0 11 -7z" />
    <glyph glyph-name="uni015F" unicode="&#x15f;" horiz-adv-x="503" 
d="M461 159q0 -35 -13 -66t-39.5 -53.5t-66.5 -35.5t-95 -13q-21 0 -44.5 1.5t-48 4.5t-47.5 7t-42 9t-19 23v81q0 8 5 13.5t14 5.5h4q20 -3 44.5 -5.5t48.5 -4.5t44.5 -3t32.5 -1q36 0 47.5 9.5t11.5 29.5q0 11 -8 20.5t-29 21.5l-130 75q-42 24 -65.5 61.5t-23.5 86.5
q0 76 50.5 115.5t154.5 39.5q59 0 99.5 -6.5t78.5 -16.5q19 -5 19 -23v-81q0 -19 -17 -19h-3q-11 1 -31 3.5t-43.5 4.5t-48 3.5t-43.5 1.5q-29 0 -41 -6t-12 -23q0 -11 8 -18.5t23 -16.5l124 -71q31 -18 50.5 -36.5t31 -38t15.5 -39.5t4 -40zM345 -45q0 -4 -4 -8l-127 -130
q-6 -6 -10 -9t-14 -3h-107q-9 0 -9 7q0 5 4 10l97 125q7 8 11.5 11.5t15.5 3.5h132q11 0 11 -7z" />
    <glyph glyph-name="Scaron" unicode="&#x160;" horiz-adv-x="588" 
d="M546 210q0 -40 -14 -79t-46.5 -70t-84.5 -50.5t-128 -19.5q-60 0 -105.5 6t-83.5 16q-8 2 -14 7t-6 13v98q0 11 5 15t13 4h3q15 -2 41.5 -4t54.5 -3.5t53.5 -3t40.5 -1.5q52 0 70.5 17t18.5 53q0 22 -13.5 37.5t-52.5 38.5l-138 82q-35 21 -57.5 43t-36 46t-19 49.5
t-5.5 52.5q0 41 12.5 76.5t42.5 62t79 41.5t122 15q27 0 58.5 -2t60.5 -5t54 -7t39 -8q6 -2 10.5 -6t4.5 -12v-101q0 -7 -3.5 -12t-13.5 -5h-2q-11 1 -35.5 2.5t-55.5 3.5t-63.5 3.5t-57.5 1.5q-43 0 -60.5 -13t-17.5 -40q0 -11 3 -19t10.5 -15.5t20.5 -16t33 -19.5l128 -69
q78 -42 106.5 -92t28.5 -111zM483 937q0 -5 -4 -10l-89 -117q-7 -8 -11.5 -11.5t-15.5 -3.5h-160q-11 0 -15.5 3t-11.5 12l-88 117q-4 5 -4 10q0 7 9 7h103q10 0 14 -2.5t10 -9.5l63 -70l64 70q6 7 10 9.5t14 2.5h103q9 0 9 -7z" />
    <glyph glyph-name="scaron" unicode="&#x161;" horiz-adv-x="503" 
d="M461 159q0 -35 -13 -66t-39.5 -53.5t-66.5 -35.5t-95 -13q-21 0 -44.5 1.5t-48 4.5t-47.5 7t-42 9t-19 23v81q0 8 5 13.5t14 5.5h4q20 -3 44.5 -5.5t48.5 -4.5t44.5 -3t32.5 -1q36 0 47.5 9.5t11.5 29.5q0 11 -8 20.5t-29 21.5l-130 75q-42 24 -65.5 61.5t-23.5 86.5
q0 76 50.5 115.5t154.5 39.5q59 0 99.5 -6.5t78.5 -16.5q19 -5 19 -23v-81q0 -19 -17 -19h-3q-11 1 -31 3.5t-43.5 4.5t-48 3.5t-43.5 1.5q-29 0 -41 -6t-12 -23q0 -11 8 -18.5t23 -16.5l124 -71q31 -18 50.5 -36.5t31 -38t15.5 -39.5t4 -40zM451 772q0 -5 -4 -10l-89 -117
q-7 -8 -11.5 -11.5t-15.5 -3.5h-160q-11 0 -15.5 3t-11.5 12l-88 117q-4 5 -4 10q0 7 9 7h103q10 0 14 -2.5t10 -9.5l63 -70l64 70q6 7 10 9.5t14 2.5h103q9 0 9 -7z" />
    <glyph glyph-name="Tcommaaccent" unicode="&#x162;" horiz-adv-x="587" 
d="M562 621q0 -8 -6.5 -13.5t-14.5 -5.5h-162v-582q0 -8 -6 -14t-14 -6h-131q-8 0 -14 6t-6 14v582h-163q-8 0 -14 5.5t-6 13.5v103q0 8 6 13.5t14 5.5h496q8 0 14.5 -5.5t6.5 -13.5v-103zM334 -38q13 0 15 -5.5t-2 -13.5l-69 -118q-8 -12 -12 -16t-13 -4h-75q-6 0 -10 4.5
t-1 15.5l30 118q5 19 20 19h117z" />
    <glyph glyph-name="tcommaaccent" unicode="&#x163;" horiz-adv-x="421" 
d="M390 19q0 -17 -19 -20q-23 -4 -40 -6t-39 -2q-41 0 -72.5 6.5t-52.5 25.5t-32 52.5t-11 86.5v290l-80 13q-8 2 -14.5 7.5t-6.5 13.5v66q0 8 6.5 14.5t14.5 6.5h80v82q0 8 6 13t14 7l122 21h3q8 0 13 -4.5t5 -12.5v-106h82q8 0 14 -6t6 -14v-81q0 -8 -6 -14t-14 -6h-82
v-291q0 -30 5 -38.5t28 -8.5h49q21 0 21 -17v-78zM269 -38q13 0 15 -5.5t-2 -13.5l-69 -118q-8 -12 -12 -16t-13 -4h-75q-6 0 -10 4.5t-1 15.5l30 118q5 19 20 19h117z" />
    <glyph glyph-name="Tcaron" unicode="&#x164;" horiz-adv-x="587" 
d="M562 621q0 -8 -6.5 -13.5t-14.5 -5.5h-162v-582q0 -8 -6 -14t-14 -6h-131q-8 0 -14 6t-6 14v582h-163q-8 0 -14 5.5t-6 13.5v103q0 8 6 13.5t14 5.5h496q8 0 14.5 -5.5t6.5 -13.5v-103zM493 936q0 -5 -4 -10l-89 -117q-7 -8 -11.5 -11.5t-15.5 -3.5h-160q-11 0 -15.5 3
t-11.5 12l-88 117q-4 5 -4 10q0 7 9 7h103q10 0 14 -2.5t10 -9.5l63 -70l64 70q6 7 10 9.5t14 2.5h103q9 0 9 -7z" />
    <glyph glyph-name="tcaron" unicode="&#x165;" horiz-adv-x="612" 
d="M390 19q0 -17 -19 -20q-23 -4 -40 -6t-39 -2q-41 0 -72.5 6.5t-52.5 25.5t-32 52.5t-11 86.5v290l-80 13q-8 2 -14.5 7.5t-6.5 13.5v66q0 8 6.5 14.5t14.5 6.5h80v82q0 8 6 13t14 7l122 21h3q8 0 13 -4.5t5 -12.5v-106h82q8 0 14 -6t6 -14v-81q0 -8 -6 -14t-14 -6h-82
v-291q0 -30 5 -38.5t28 -8.5h49q21 0 21 -17v-78zM637 756q0 -2 -2 -8l-75 -219q-4 -10 -7.5 -14.5t-11.5 -4.5h-101q-9 0 -9 10v4.5t1 4.5l54 219q4 19 20 19h119q12 0 12 -11z" />
    <glyph glyph-name="Tbar" unicode="&#x166;" horiz-adv-x="587" 
d="M379 332v-312q0 -8 -6 -14t-14 -6h-131q-8 0 -14 6t-6 14v312h-163q-8 0 -14 5.5t-6 13.5v103q0 8 6 13.5t14 5.5h163v129h-163q-8 0 -14 5.5t-6 13.5v103q0 8 6 13.5t14 5.5h496q8 0 14.5 -5.5t6.5 -13.5v-103q0 -8 -6.5 -13.5t-14.5 -5.5h-162v-129h162q8 0 14.5 -5.5
t6.5 -13.5v-103q0 -8 -6.5 -13.5t-14.5 -5.5h-162z" />
    <glyph glyph-name="tbar" unicode="&#x167;" horiz-adv-x="421" 
d="M390 19q0 -17 -19 -20q-23 -4 -40 -6t-39 -2q-41 0 -72.5 6.5t-52.5 25.5t-32 52.5t-11 86.5v90l-80 13q-8 2 -14.5 7.5t-6.5 13.5v66q0 8 6.5 14.5t14.5 6.5h80v79l-80 13q-8 2 -14.5 7.5t-6.5 13.5v66q0 8 6.5 14.5t14.5 6.5h80v82q0 8 6 13t14 7l122 21q11 2 16 -3.5
t5 -13.5v-106h82q8 0 14 -6t6 -14v-81q0 -8 -6 -14t-14 -6h-82v-79h82q8 0 14 -6t6 -14v-81q0 -8 -6 -14t-14 -6h-82v-91q0 -30 5 -38.5t28 -8.5h49q21 0 21 -17v-78v0z" />
    <glyph glyph-name="Utilde" unicode="&#x168;" horiz-adv-x="711" 
d="M644 279q0 -86 -23 -141.5t-62 -88t-91.5 -45.5t-112.5 -13t-112.5 13t-91.5 45.5t-61.5 88t-22.5 141.5v445q0 8 6 13.5t14 5.5h131q8 0 14 -5.5t6 -13.5v-445q0 -38 5.5 -65.5t19 -45t36 -26t56.5 -8.5t56.5 8.5t36 26t19.5 45t6 65.5v445q0 8 6 13.5t14 5.5h130
q8 0 14.5 -5.5t6.5 -13.5v-445zM559 909q0 -66 -32.5 -93t-89.5 -27q-15 0 -35 5.5t-36 16.5l-42 29q-26 18 -41 18q-10 0 -16.5 -5.5t-6.5 -21.5v-19q0 -17 -15 -17h-71q-15 0 -15 17v19q0 65 33 92t90 27q15 0 34.5 -5t35.5 -16l43 -28q13 -8 22.5 -13t17.5 -5
q11 0 17 5.5t6 21.5v19q0 16 16 16h70q15 0 15 -16v-20z" />
    <glyph glyph-name="utilde" unicode="&#x169;" horiz-adv-x="612" 
d="M552 20q0 -8 -6 -14t-14 -6h-112q-8 0 -14 6t-6 14v24q-41 -29 -78 -40.5t-85 -11.5q-54 0 -88.5 17.5t-54 48.5t-27 72.5t-7.5 88.5v333q0 8 6.5 14.5t14.5 6.5h121q8 0 14 -6.5t6 -14.5v-333q0 -26 3 -44t11 -29t22.5 -15.5t37.5 -4.5q22 0 45 9t49 23v394q0 8 6 14.5
t14 6.5h121q8 0 14.5 -6.5t6.5 -14.5v-532zM504 746q0 -66 -32.5 -93t-89.5 -27q-15 0 -35 5.5t-36 16.5l-42 29q-26 18 -41 18q-10 0 -16.5 -5.5t-6.5 -21.5v-19q0 -17 -15 -17h-71q-15 0 -15 17v19q0 65 33 92t90 27q15 0 34.5 -5t35.5 -16l43 -28q13 -8 22.5 -13t17.5 -5
q11 0 17 5.5t6 21.5v19q0 16 16 16h70q15 0 15 -16v-20z" />
    <glyph glyph-name="Umacron" unicode="&#x16a;" horiz-adv-x="711" 
d="M644 279q0 -86 -23 -141.5t-62 -88t-91.5 -45.5t-112.5 -13t-112.5 13t-91.5 45.5t-61.5 88t-22.5 141.5v445q0 8 6 13.5t14 5.5h131q8 0 14 -5.5t6 -13.5v-445q0 -38 5.5 -65.5t19 -45t36 -26t56.5 -8.5t56.5 8.5t36 26t19.5 45t6 65.5v445q0 8 6 13.5t14 5.5h130
q8 0 14.5 -5.5t6.5 -13.5v-445zM538 836q0 -8 -6 -13.5t-14 -5.5h-324q-8 0 -14 5.5t-6 13.5v72q0 8 6 13.5t14 5.5h324q8 0 14 -5.5t6 -13.5v-72z" />
    <glyph glyph-name="umacron" unicode="&#x16b;" horiz-adv-x="612" 
d="M552 20q0 -8 -6 -14t-14 -6h-112q-8 0 -14 6t-6 14v24q-41 -29 -78 -40.5t-85 -11.5q-54 0 -88.5 17.5t-54 48.5t-27 72.5t-7.5 88.5v333q0 8 6.5 14.5t14.5 6.5h121q8 0 14 -6.5t6 -14.5v-333q0 -26 3 -44t11 -29t22.5 -15.5t37.5 -4.5q22 0 45 9t49 23v394q0 8 6 14.5
t14 6.5h121q8 0 14.5 -6.5t6.5 -14.5v-532zM488 672q0 -8 -6 -13.5t-14 -5.5h-324q-8 0 -14 5.5t-6 13.5v72q0 8 6 13.5t14 5.5h324q8 0 14 -5.5t6 -13.5v-72z" />
    <glyph glyph-name="Ubreve" unicode="&#x16c;" horiz-adv-x="711" 
d="M644 279q0 -86 -23 -141.5t-62 -88t-91.5 -45.5t-112.5 -13t-112.5 13t-91.5 45.5t-61.5 88t-22.5 141.5v445q0 8 6 13.5t14 5.5h131q8 0 14 -5.5t6 -13.5v-445q0 -38 5.5 -65.5t19 -45t36 -26t56.5 -8.5t56.5 8.5t36 26t19.5 45t6 65.5v445q0 8 6 13.5t14 5.5h130
q8 0 14.5 -5.5t6.5 -13.5v-445zM543 943q0 -1 -0.5 -1.5t-0.5 -2.5q-7 -30 -21.5 -56.5t-37.5 -46t-54.5 -31t-71.5 -11.5q-41 0 -72 11.5t-54 31t-37.5 46t-21.5 56.5q0 2 -0.5 2.5t-0.5 1.5q0 7 10 7h87q10 0 13 -12q8 -32 28 -44.5t48 -12.5t48 12.5t28 44.5q2 6 3.5 9
t9.5 3h87q10 0 10 -7z" />
    <glyph glyph-name="ubreve" unicode="&#x16d;" horiz-adv-x="612" 
d="M552 20q0 -8 -6 -14t-14 -6h-112q-8 0 -14 6t-6 14v24q-41 -29 -78 -40.5t-85 -11.5q-54 0 -88.5 17.5t-54 48.5t-27 72.5t-7.5 88.5v333q0 8 6.5 14.5t14.5 6.5h121q8 0 14 -6.5t6 -14.5v-333q0 -26 3 -44t11 -29t22.5 -15.5t37.5 -4.5q22 0 45 9t49 23v394q0 8 6 14.5
t14 6.5h121q8 0 14.5 -6.5t6.5 -14.5v-532zM490 772q0 -1 -0.5 -1.5t-0.5 -2.5q-7 -30 -21.5 -56.5t-37.5 -46t-54.5 -31t-71.5 -11.5q-41 0 -72 11.5t-54 31t-37.5 46t-21.5 56.5q0 2 -0.5 2.5t-0.5 1.5q0 7 10 7h87q10 0 13 -12q8 -32 28 -44.5t48 -12.5t48 12.5t28 44.5
q2 6 3.5 9t9.5 3h87q10 0 10 -7z" />
    <glyph glyph-name="Uring" unicode="&#x16e;" horiz-adv-x="711" 
d="M644 279q0 -86 -23 -141.5t-62 -88t-91.5 -45.5t-112.5 -13t-112.5 13t-91.5 45.5t-61.5 88t-22.5 141.5v445q0 8 6 13.5t14 5.5h131q8 0 14 -5.5t6 -13.5v-445q0 -38 5.5 -65.5t19 -45t36 -26t56.5 -8.5t56.5 8.5t36 26t19.5 45t6 65.5v445q0 8 6 13.5t14 5.5h130
q8 0 14.5 -5.5t6.5 -13.5v-445zM473 881q0 -24 -9 -45.5t-25 -37.5t-37.5 -25t-45.5 -9t-45.5 9t-37.5 25t-25 37.5t-9 45.5t9 45.5t25 37.5t37.5 25t45.5 9t45.5 -9t37.5 -25t25 -37.5t9 -45.5zM400 881q0 18 -13 31t-31 13t-31 -13t-13 -31t13 -31t31 -13t31 13t13 31z
" />
    <glyph glyph-name="uring" unicode="&#x16f;" horiz-adv-x="612" 
d="M552 20q0 -8 -6 -14t-14 -6h-112q-8 0 -14 6t-6 14v24q-41 -29 -78 -40.5t-85 -11.5q-54 0 -88.5 17.5t-54 48.5t-27 72.5t-7.5 88.5v333q0 8 6.5 14.5t14.5 6.5h121q8 0 14 -6.5t6 -14.5v-333q0 -26 3 -44t11 -29t22.5 -15.5t37.5 -4.5q22 0 45 9t49 23v394q0 8 6 14.5
t14 6.5h121q8 0 14.5 -6.5t6.5 -14.5v-532zM423 711q0 -24 -9 -45.5t-25 -37.5t-37.5 -25t-45.5 -9t-45.5 9t-37.5 25t-25 37.5t-9 45.5t9 45.5t25 37.5t37.5 25t45.5 9t45.5 -9t37.5 -25t25 -37.5t9 -45.5zM350 711q0 18 -13 31t-31 13t-31 -13t-13 -31t13 -31t31 -13
t31 13t13 31z" />
    <glyph glyph-name="Uhungarumlaut" unicode="&#x170;" horiz-adv-x="711" 
d="M644 279q0 -86 -23 -141.5t-62 -88t-91.5 -45.5t-112.5 -13t-112.5 13t-91.5 45.5t-61.5 88t-22.5 141.5v445q0 8 6 13.5t14 5.5h131q8 0 14 -5.5t6 -13.5v-445q0 -38 5.5 -65.5t19 -45t36 -26t56.5 -8.5t56.5 8.5t36 26t19.5 45t6 65.5v445q0 8 6 13.5t14 5.5h130
q8 0 14.5 -5.5t6.5 -13.5v-445zM641 936q0 -4 -4 -8l-122 -122q-6 -6 -10.5 -9t-14.5 -3h-107q-9 0 -9 7q0 5 4 10l93 117q7 8 11.5 11.5t15.5 3.5h132q11 0 11 -7zM408 936q0 -4 -4 -8l-122 -122q-6 -6 -10.5 -9t-14.5 -3h-107q-9 0 -9 7q0 5 4 10l93 117q7 8 11.5 11.5
t15.5 3.5h132q11 0 11 -7z" />
    <glyph glyph-name="uhungarumlaut" unicode="&#x171;" horiz-adv-x="612" 
d="M552 20q0 -8 -6 -14t-14 -6h-112q-8 0 -14 6t-6 14v24q-41 -29 -78 -40.5t-85 -11.5q-54 0 -88.5 17.5t-54 48.5t-27 72.5t-7.5 88.5v333q0 8 6.5 14.5t14.5 6.5h121q8 0 14 -6.5t6 -14.5v-333q0 -26 3 -44t11 -29t22.5 -15.5t37.5 -4.5q22 0 45 9t49 23v394q0 8 6 14.5
t14 6.5h121q8 0 14.5 -6.5t6.5 -14.5v-532zM591 772q0 -4 -4 -8l-122 -122q-6 -6 -10.5 -9t-14.5 -3h-107q-9 0 -9 7q0 5 4 10l93 117q7 8 11.5 11.5t15.5 3.5h132q11 0 11 -7zM358 772q0 -4 -4 -8l-122 -122q-6 -6 -10.5 -9t-14.5 -3h-107q-9 0 -9 7q0 5 4 10l93 117
q7 8 11.5 11.5t15.5 3.5h132q11 0 11 -7z" />
    <glyph glyph-name="Uogonek" unicode="&#x172;" horiz-adv-x="711" 
d="M644 279q0 -47 -6 -83.5t-19.5 -66.5t-36 -55t-55.5 -47l-84 -57q-11 -7 -18.5 -13.5t-7.5 -16.5q0 -15 9.5 -21t31.5 -6q19 0 39 4.5t28 4.5q7 0 8.5 -2t1.5 -10v-76q0 -5 -1.5 -8t-9.5 -7q-11 -5 -43.5 -12.5t-74.5 -7.5q-26 0 -50 4.5t-43 16t-30.5 30t-11.5 46.5
q0 32 12 54t42 42q-54 3 -101.5 18t-82 48t-54.5 87t-20 134v445q0 8 6 13.5t14 5.5h131q8 0 14 -5.5t6 -13.5v-445q0 -38 5.5 -65.5t19 -45t36 -26t56.5 -8.5t56.5 8.5t36 26t19.5 45t6 65.5v445q0 8 6 13.5t14 5.5h130q8 0 14.5 -5.5t6.5 -13.5v-445v0z" />
    <glyph glyph-name="uogonek" unicode="&#x173;" horiz-adv-x="612" 
d="M400 44q-41 -29 -78 -40.5t-85 -11.5q-54 0 -88.5 17.5t-54 48.5t-27 72.5t-7.5 88.5v333q0 8 6.5 14.5t14.5 6.5h121q8 0 14 -6.5t6 -14.5v-333q0 -26 3 -44t11 -29t22.5 -15.5t37.5 -4.5q22 0 45 9t49 23v394q0 8 6 14.5t14 6.5h121q8 0 14.5 -6.5t6.5 -14.5v-532
q0 -7 -2 -10t-9 -8l-48 -32q-14 -9 -20 -17t-6 -19q0 -13 8.5 -17t19.5 -4q12 0 24 2.5t21 2.5q7 0 9.5 -2t2.5 -10v-75q0 -8 -3 -11t-8 -5q-12 -6 -35 -11t-54 -5q-26 0 -49.5 4.5t-41.5 16t-29 30t-11 46.5q0 35 16.5 58.5t54.5 47.5l8 5v37z" />
    <glyph glyph-name="Wcircumflex" unicode="&#x174;" horiz-adv-x="889" 
d="M872 728l-93 -655q-6 -44 -29 -60t-63 -16h-57q-33 0 -57.5 15t-34.5 53l-79 299q-2 6 -3.5 7t-5.5 1t-5 -1t-3 -7l-79 -299q-10 -38 -34.5 -53t-57.5 -15h-57q-40 0 -63 16t-29 60l-93 655v2q0 8 5 10.5t11 2.5h136q14 0 16 -19l57 -536q1 -13 6 -13q4 0 7 13l72 275
q8 29 25 38.5t37 9.5h99q20 0 37 -9.5t25 -38.5l72 -275q3 -13 7 -13q5 0 6 13l57 536q2 19 16 19h136q6 0 11 -2.5t5 -10.5v-2zM649 802q0 -7 -9 -7h-103q-10 0 -14 2.5t-10 9.5l-63 70l-64 -70q-6 -7 -10 -9.5t-14 -2.5h-103q-9 0 -9 7q0 5 4 10l89 117q7 8 11.5 11.5
t15.5 3.5h160q11 0 15.5 -3t11.5 -12l88 -117q4 -5 4 -10z" />
    <glyph glyph-name="wcircumflex" unicode="&#x175;" horiz-adv-x="845" 
d="M816 552l-89 -482q-8 -43 -32.5 -56.5t-55.5 -13.5h-61q-36 0 -56 17.5t-28 46.5l-67 261q-1 5 -5 5t-5 -5l-67 -261q-8 -29 -28 -46.5t-56 -17.5h-61q-16 0 -30 3t-25.5 10.5t-20 21.5t-12.5 35l-89 482v4q0 7 4 12t11 5h121q9 0 14 -3t7 -14l59 -380q2 -13 6 -13
q5 0 8 13l67 264q7 26 19.5 35.5t36.5 9.5h82q24 0 36.5 -9.5t19.5 -35.5l67 -264q3 -13 8 -13q4 0 6 13l59 380q2 11 7 14t14 3h121q7 0 11 -5t4 -12v-4zM623 637q0 -7 -9 -7h-103q-10 0 -14 2.5t-10 9.5l-63 70l-64 -70q-6 -7 -10 -9.5t-14 -2.5h-103q-9 0 -9 7q0 5 4 10
l89 117q7 8 11.5 11.5t15.5 3.5h160q11 0 15.5 -3t11.5 -12l88 -117q4 -5 4 -10z" />
    <glyph glyph-name="Ycircumflex" unicode="&#x176;" horiz-adv-x="647" 
d="M626 728q0 -5 -1 -7l-151 -346q-15 -35 -31 -52t-34 -25v-278q0 -8 -6 -14t-14 -6h-131q-8 0 -14 6t-6 14v278q-18 8 -34.5 25t-31.5 52l-151 346q-1 2 -1 7q0 6 4 10.5t12 4.5h144q8 0 13 -5t7 -12l108 -282q4 -10 7 -12.5t8 -2.5t8 2.5t7 12.5l108 282q2 7 7 12t13 5
h144q8 0 12 -4.5t4 -10.5zM525 802q0 -7 -9 -7h-103q-10 0 -14 2.5t-10 9.5l-63 70l-64 -70q-6 -7 -10 -9.5t-14 -2.5h-103q-9 0 -9 7q0 5 4 10l89 117q7 8 11.5 11.5t15.5 3.5h160q11 0 15.5 -3t11.5 -12l88 -117q4 -5 4 -10z" />
    <glyph glyph-name="ycircumflex" unicode="&#x177;" horiz-adv-x="592" 
d="M570 555q0 -2 -0.5 -2.5t-0.5 -2.5l-168 -589q-12 -41 -27 -71.5t-39 -50.5t-61 -30.5t-92 -10.5q-14 0 -31 1.5t-34 3.5t-32 5t-24 6q-8 3 -14.5 6.5t-6.5 11.5v81q0 8 6 13.5t14 5.5h2q12 -1 28.5 -2t34 -2.5t34 -2.5t28.5 -1q27 0 42 11t24 41l9 31h-15
q-14 0 -26.5 2.5t-24.5 11.5t-22.5 27.5t-19.5 51.5l-132 450q-1 3 -1 7q0 16 20 16h133q8 0 12.5 -5.5t6.5 -13.5l90 -376q4 -19 12 -19h1h4h4l93 395q2 8 7.5 13.5t13.5 5.5h133q8 0 13.5 -5t5.5 -13zM496 637q0 -7 -9 -7h-103q-10 0 -14 2.5t-10 9.5l-63 70l-64 -70
q-6 -7 -10 -9.5t-14 -2.5h-103q-9 0 -9 7q0 5 4 10l89 117q7 8 11.5 11.5t15.5 3.5h160q11 0 15.5 -3t11.5 -12l88 -117q4 -5 4 -10z" />
    <glyph glyph-name="Ydieresis" unicode="&#x178;" horiz-adv-x="647" 
d="M626 728q0 -5 -1 -7l-151 -346q-15 -35 -31 -52t-34 -25v-278q0 -8 -6 -14t-14 -6h-131q-8 0 -14 6t-6 14v278q-18 8 -34.5 25t-31.5 52l-151 346q-1 2 -1 7q0 6 4 10.5t12 4.5h144q8 0 13 -5t7 -12l108 -282q4 -10 7 -12.5t8 -2.5t8 2.5t7 12.5l108 282q2 7 7 12t13 5
h144q8 0 12 -4.5t4 -10.5zM500 818q0 -8 -7 -14t-15 -6h-94q-8 0 -14.5 6t-6.5 14v93q0 8 6.5 14t14.5 6h94q8 0 15 -6t7 -14v-93zM283 818q0 -8 -6.5 -14t-14.5 -6h-94q-8 0 -15 6t-7 14v93q0 8 7 14t15 6h94q8 0 14.5 -6t6.5 -14v-93z" />
    <glyph glyph-name="Zacute" unicode="&#x179;" horiz-adv-x="615" 
d="M565 20q0 -8 -6 -14t-14 -6h-454q-17 0 -29 7t-12 24v80q0 11 3 20.5t12 23.5l279 422q4 5 4 10q0 8 -11 8h-249q-8 0 -14 5.5t-6 13.5v110q0 8 6 13.5t14 5.5h431q16 0 28 -7t12 -21v-7q0 -3 0.5 -7.5t0.5 -9.5q0 -11 -0.5 -22.5t-0.5 -21.5v-23q0 -13 -8 -26l-282 -432
q-5 -7 -5 -11q0 -7 11 -7h270q8 0 14 -5t6 -13v-110zM490 936q0 -4 -4 -8l-122 -122q-6 -6 -10 -9t-14 -3h-107q-9 0 -9 7q0 5 4 10l93 117q7 8 11.5 11.5t15.5 3.5h131q11 0 11 -7z" />
    <glyph glyph-name="zacute" unicode="&#x17a;" horiz-adv-x="515" 
d="M472 20q0 -8 -6 -14t-14 -6h-375q-14 0 -24 9.5t-10 23.5v64q0 11 3 19t11 19l217 296q3 4 3 7q0 5 -7 5h-201q-17 0 -17 16v94q0 8 6 14t14 6h365q14 0 23.5 -10t9.5 -24v-74q0 -8 -2 -16.5t-9 -18.5l-207 -283q-3 -5 -3 -7q0 -4 7 -4h198q8 0 13 -4t5 -12v-100z
M446 772q0 -4 -4 -8l-122 -122q-6 -6 -10 -9t-14 -3h-107q-9 0 -9 7q0 5 4 10l93 117q7 8 11.5 11.5t15.5 3.5h131q11 0 11 -7z" />
    <glyph glyph-name="Zdotaccent" unicode="&#x17b;" horiz-adv-x="615" 
d="M565 20q0 -8 -6 -14t-14 -6h-454q-17 0 -29 7t-12 24v80q0 11 3 20.5t12 23.5l279 422q4 5 4 10q0 8 -11 8h-249q-8 0 -14 5.5t-6 13.5v110q0 8 6 13.5t14 5.5h431q16 0 28 -7t12 -21v-7q0 -3 0.5 -7.5t0.5 -9.5q0 -11 -0.5 -22.5t-0.5 -21.5v-23q0 -13 -8 -26l-282 -432
q-5 -7 -5 -11q0 -7 11 -7h270q8 0 14 -5t6 -13v-110zM392 822q0 -8 -6 -14t-14 -6h-130q-8 0 -14 6t-6 14v93q0 8 6 14t14 6h130q8 0 14 -6t6 -14v-93z" />
    <glyph glyph-name="zdotaccent" unicode="&#x17c;" horiz-adv-x="515" 
d="M472 20q0 -8 -6 -14t-14 -6h-375q-14 0 -24 9.5t-10 23.5v64q0 11 3 19t11 19l217 296q3 4 3 7q0 5 -7 5h-201q-17 0 -17 16v94q0 8 6 14t14 6h365q14 0 23.5 -10t9.5 -24v-74q0 -8 -2 -16.5t-9 -18.5l-207 -283q-3 -5 -3 -7q0 -4 7 -4h198q8 0 13 -4t5 -12v-100z
M342 658q0 -8 -6 -14t-14 -6h-130q-8 0 -14 6t-6 14v93q0 8 6 14t14 6h130q8 0 14 -6t6 -14v-93z" />
    <glyph glyph-name="Zcaron" unicode="&#x17d;" horiz-adv-x="615" 
d="M565 20q0 -8 -6 -14t-14 -6h-454q-17 0 -29 7t-12 24v80q0 11 3 20.5t12 23.5l279 422q4 5 4 10q0 8 -11 8h-249q-8 0 -14 5.5t-6 13.5v110q0 8 6 13.5t14 5.5h431q16 0 28 -7t12 -21v-7q0 -3 0.5 -7.5t0.5 -9.5q0 -11 -0.5 -22.5t-0.5 -21.5v-23q0 -13 -8 -26l-282 -432
q-5 -7 -5 -11q0 -7 11 -7h270q8 0 14 -5t6 -13v-110zM515 936q0 -5 -4 -10l-89 -117q-7 -8 -11.5 -11.5t-15.5 -3.5h-160q-11 0 -15.5 3t-11.5 12l-88 117q-4 5 -4 10q0 7 9 7h103q10 0 14 -2.5t10 -9.5l63 -70l64 70q6 7 10 9.5t14 2.5h103q9 0 9 -7z" />
    <glyph glyph-name="zcaron" unicode="&#x17e;" horiz-adv-x="515" 
d="M472 20q0 -8 -6 -14t-14 -6h-375q-14 0 -24 9.5t-10 23.5v64q0 11 3 19t11 19l217 296q3 4 3 7q0 5 -7 5h-201q-17 0 -17 16v94q0 8 6 14t14 6h365q14 0 23.5 -10t9.5 -24v-74q0 -8 -2 -16.5t-9 -18.5l-207 -283q-3 -5 -3 -7q0 -4 7 -4h198q8 0 13 -4t5 -12v-100z
M468 772q0 -5 -4 -10l-89 -117q-7 -8 -11.5 -11.5t-15.5 -3.5h-160q-11 0 -15.5 3t-11.5 12l-88 117q-4 5 -4 10q0 7 9 7h103q10 0 14 -2.5t10 -9.5l63 -70l64 70q6 7 10 9.5t14 2.5h103q9 0 9 -7z" />
    <glyph glyph-name="florin" unicode="&#x192;" 
d="M612 755l-10 -75q-2 -18 -24 -18h-65q-37 0 -49.5 -10t-16.5 -39l-22 -159h134q18 0 18 -16v-3l-12 -84q-2 -8 -8 -14.5t-15 -6.5h-134l-46 -325q-7 -50 -26.5 -82.5t-47.5 -52t-63 -27.5t-74 -8q-30 0 -57.5 3t-41.5 6q-11 2 -14.5 6t-3.5 9v4l10 75q2 18 24 18h65
q37 0 49.5 10t16.5 39l45 325h-126q-8 0 -13 5t-5 13v3l12 84q3 19 23 19h127l22 159q7 50 26 82.5t47 52t63.5 27.5t74.5 8q30 0 57.5 -3t41.5 -6q11 -2 14.5 -6t3.5 -9v-4z" />
    <glyph glyph-name="AEacute" unicode="&#x1fc;" horiz-adv-x="923" 
d="M867 25q0 -18 -20 -21l-26 -4t-31 -4t-45 -3.5t-67 -1.5q-46 0 -88 7t-75 28t-54 58.5t-25 97.5h-204l-36 -164q-2 -8 -7 -13t-13 -5h-140q-17 0 -17 16q0 1 0.5 2t0.5 3l149 620q9 36 26 56.5t39.5 30.5t48.5 12.5t52 2.5h512q20 0 20 -20v-97q0 -8 -6 -14t-14 -6h-242
v-159h234q8 0 14 -6t6 -14v-95q0 -8 -6 -14t-14 -6h-234v-106q0 -39 14.5 -53.5t49.5 -14.5h178q8 0 14 -6t6 -14v-93zM435 610h-100q-11 0 -14 -15l-61 -276h175v291zM695 937q0 -4 -4 -8l-122 -122q-6 -6 -10 -9t-14 -3h-107q-9 0 -9 7q0 5 4 10l93 117q7 8 11.5 11.5
t15.5 3.5h131q11 0 11 -7z" />
    <glyph glyph-name="aeacute" unicode="&#x1fd;" horiz-adv-x="881" 
d="M835 265q0 -8 -6.5 -14.5t-14.5 -6.5h-310v-41q0 -43 30.5 -60t85.5 -17q14 0 37.5 0.5t49 2t49 2.5t37.5 3h5q16 0 16 -16v-72q0 -11 -4 -16.5t-15 -9.5q-42 -14 -95.5 -21.5t-102.5 -7.5q-87 0 -141 46q-40 -22 -91 -34t-104 -12q-42 0 -81.5 9.5t-70 31.5t-49 56
t-18.5 84v11q0 44 18 74t51.5 49t81.5 27t108 8h42v9q0 56 -17.5 76t-60.5 20q-23 0 -47.5 -0.5t-47 -1.5t-40.5 -2.5t-28 -2.5h-3q-17 0 -17 18v79q0 19 20 24q13 3 31.5 7t40 7t45 5t46.5 2q110 0 170 -60q30 29 68 44.5t90 15.5q63 0 109 -18.5t75.5 -52t43.5 -80
t14 -101.5v-64zM680 350q0 49 -20 77.5t-68 28.5q-46 0 -67 -28.5t-21 -77.5v-18h176v18zM348 253h-47q-53 0 -79 -15.5t-26 -54.5v-11q0 -37 24 -51.5t55 -14.5q20 0 39 3t34 10v134zM638 772q0 -4 -4 -8l-122 -122q-6 -6 -10 -9t-14 -3h-107q-9 0 -9 7q0 5 4 10l93 117
q7 8 11.5 11.5t15.5 3.5h131q11 0 11 -7z" />
    <glyph glyph-name="Oslashacute" unicode="&#x1fe;" horiz-adv-x="698" 
d="M677 739q0 -4 -3 -8l-75 -103q22 -37 34 -85.5t12 -111.5v-119q0 -87 -23 -148t-63 -99.5t-94 -56t-116 -17.5q-101 0 -174 46l-19 -27q-5 -6 -11.5 -12.5t-14.5 -6.5h-97q-11 0 -11 11q0 3 3 8l75 104q-22 37 -34.5 86t-12.5 112v119q0 87 23 148t63 99.5t94 56
t116 17.5q50 0 94.5 -11t81.5 -35l18 25q5 6 11.5 12.5t14.5 6.5h97q11 0 11 -11zM431 575q-30 27 -82 27q-63 0 -93 -40t-30 -131v-119q0 -5 0.5 -10.5t0.5 -10.5zM473 451l-204 -284q29 -26 80 -26q63 0 93.5 40t30.5 131v119v13v7zM522 937q0 -4 -4 -8l-122 -122
q-6 -6 -10 -9t-14 -3h-107q-9 0 -9 7q0 5 4 10l93 117q7 8 11.5 11.5t15.5 3.5h131q11 0 11 -7z" />
    <glyph glyph-name="oslashacute" unicode="&#x1ff;" horiz-adv-x="589" 
d="M559 598q0 -7 -4 -11l-65 -87q55 -67 55 -179v-70q0 -60 -16.5 -108t-48 -81.5t-78 -52t-107.5 -18.5q-90 0 -150 40l-42 -56q-5 -7 -8 -8.5t-8 -1.5h-50q-8 0 -8 8q0 6 4 11l66 89q-55 67 -55 178v70q0 60 16.5 108t48.5 81.5t78.5 52t107.5 18.5q90 0 150 -40l40 55
q5 7 8 8.5t8 1.5h50q8 0 8 -8zM355 420q-23 23 -60 23q-44 0 -67 -30.5t-23 -91.5v-70q0 -8 0.5 -16t1.5 -16zM384 321q0 8 -0.5 16t-1.5 16l-148 -201q22 -24 61 -24q89 0 89 123v70zM480 772q0 -4 -4 -8l-122 -122q-6 -6 -10 -9t-14 -3h-107q-9 0 -9 7q0 5 4 10l93 117
q7 8 11.5 11.5t15.5 3.5h131q11 0 11 -7z" />
    <glyph glyph-name="uni0218" unicode="&#x218;" horiz-adv-x="588" 
d="M546 210q0 -40 -14 -79t-46.5 -70t-84.5 -50.5t-128 -19.5q-60 0 -105.5 6t-83.5 16q-8 2 -14 7t-6 13v98q0 11 5 15t13 4h3q15 -2 41.5 -4t54.5 -3.5t53.5 -3t40.5 -1.5q52 0 70.5 17t18.5 53q0 22 -13.5 37.5t-52.5 38.5l-138 82q-35 21 -57.5 43t-36 46t-19 49.5
t-5.5 52.5q0 41 12.5 76.5t42.5 62t79 41.5t122 15q27 0 58.5 -2t60.5 -5t54 -7t39 -8q6 -2 10.5 -6t4.5 -12v-101q0 -7 -3.5 -12t-13.5 -5h-2q-11 1 -35.5 2.5t-55.5 3.5t-63.5 3.5t-57.5 1.5q-43 0 -60.5 -13t-17.5 -40q0 -11 3 -19t10.5 -15.5t20.5 -16t33 -19.5l128 -69
q78 -42 106.5 -92t28.5 -111zM342 -38q13 0 15 -5.5t-2 -13.5l-69 -118q-8 -12 -12 -16t-13 -4h-75q-6 0 -10 4.5t-1 15.5l30 118q5 19 20 19h117z" />
    <glyph glyph-name="uni0219" unicode="&#x219;" horiz-adv-x="503" 
d="M461 159q0 -35 -13 -66t-39.5 -53.5t-66.5 -35.5t-95 -13q-21 0 -44.5 1.5t-48 4.5t-47.5 7t-42 9t-19 23v81q0 8 5 13.5t14 5.5h4q20 -3 44.5 -5.5t48.5 -4.5t44.5 -3t32.5 -1q36 0 47.5 9.5t11.5 29.5q0 11 -8 20.5t-29 21.5l-130 75q-42 24 -65.5 61.5t-23.5 86.5
q0 76 50.5 115.5t154.5 39.5q59 0 99.5 -6.5t78.5 -16.5q19 -5 19 -23v-81q0 -19 -17 -19h-3q-11 1 -31 3.5t-43.5 4.5t-48 3.5t-43.5 1.5q-29 0 -41 -6t-12 -23q0 -11 8 -18.5t23 -16.5l124 -71q31 -18 50.5 -36.5t31 -38t15.5 -39.5t4 -40zM308 -38q13 0 15 -5.5t-2 -13.5
l-69 -118q-8 -12 -12 -16t-13 -4h-75q-6 0 -10 4.5t-1 15.5l30 118q5 19 20 19h117z" />
    <glyph glyph-name="uni021A" unicode="&#x21a;" horiz-adv-x="587" 
d="M562 621q0 -8 -6.5 -13.5t-14.5 -5.5h-162v-582q0 -8 -6 -14t-14 -6h-131q-8 0 -14 6t-6 14v582h-163q-8 0 -14 5.5t-6 13.5v103q0 8 6 13.5t14 5.5h496q8 0 14.5 -5.5t6.5 -13.5v-103zM334 -38q13 0 15 -5.5t-2 -13.5l-69 -118q-8 -12 -12 -16t-13 -4h-75q-6 0 -10 4.5
t-1 15.5l30 118q5 19 20 19h117z" />
    <glyph glyph-name="uni021B" unicode="&#x21b;" horiz-adv-x="421" 
d="M390 19q0 -17 -19 -20q-23 -4 -40 -6t-39 -2q-41 0 -72.5 6.5t-52.5 25.5t-32 52.5t-11 86.5v290l-80 13q-8 2 -14.5 7.5t-6.5 13.5v66q0 8 6.5 14.5t14.5 6.5h80v82q0 8 6 13t14 7l122 21h3q8 0 13 -4.5t5 -12.5v-106h82q8 0 14 -6t6 -14v-81q0 -8 -6 -14t-14 -6h-82
v-291q0 -30 5 -38.5t28 -8.5h49q21 0 21 -17v-78zM269 -38q13 0 15 -5.5t-2 -13.5l-69 -118q-8 -12 -12 -16t-13 -4h-75q-6 0 -10 4.5t-1 15.5l30 118q5 19 20 19h117z" />
    <glyph glyph-name="circumflex" unicode="&#x2c6;" horiz-adv-x="443" 
d="M421 637q0 -7 -9 -7h-103q-10 0 -14 2.5t-10 9.5l-63 70l-64 -70q-6 -7 -10 -9.5t-14 -2.5h-103q-9 0 -9 7q0 5 4 10l89 117q7 8 11.5 11.5t15.5 3.5h160q11 0 15.5 -3t11.5 -12l88 -117q4 -5 4 -10z" />
    <glyph glyph-name="caron" unicode="&#x2c7;" horiz-adv-x="443" 
d="M421 772q0 -5 -4 -10l-89 -117q-7 -8 -11.5 -11.5t-15.5 -3.5h-160q-11 0 -15.5 3t-11.5 12l-88 117q-4 5 -4 10q0 7 9 7h103q10 0 14 -2.5t10 -9.5l63 -70l64 70q6 7 10 9.5t14 2.5h103q9 0 9 -7z" />
    <glyph glyph-name="uni02C9" unicode="&#x2c9;" horiz-adv-x="443" 
d="M404 672q0 -8 -6 -13.5t-14 -5.5h-324q-8 0 -14 5.5t-6 13.5v72q0 8 6 13.5t14 5.5h324q8 0 14 -5.5t6 -13.5v-72v0z" />
    <glyph glyph-name="breve" unicode="&#x2d8;" horiz-adv-x="443" 
d="M408 772q0 -1 -0.5 -1.5t-0.5 -2.5q-7 -30 -21.5 -56.5t-37.5 -46t-54.5 -31t-71.5 -11.5q-41 0 -72 11.5t-54 31t-37.5 46t-21.5 56.5q0 2 -0.5 2.5t-0.5 1.5q0 7 10 7h87q10 0 13 -12q8 -32 28 -44.5t48 -12.5t48 12.5t28 44.5q2 6 3.5 9t9.5 3h87q10 0 10 -7z" />
    <glyph glyph-name="dotaccent" unicode="&#x2d9;" horiz-adv-x="443" 
d="M306 658q0 -8 -6 -14t-14 -6h-130q-8 0 -14 6t-6 14v93q0 8 6 14t14 6h130q8 0 14 -6t6 -14v-93v0z" />
    <glyph glyph-name="ring" unicode="&#x2da;" horiz-adv-x="443" 
d="M339 711q0 -24 -9 -45.5t-25 -37.5t-37.5 -25t-45.5 -9t-45.5 9t-37.5 25t-25 37.5t-9 45.5t9 45.5t25 37.5t37.5 25t45.5 9t45.5 -9t37.5 -25t25 -37.5t9 -45.5zM266 711q0 18 -13 31t-31 13t-31 -13t-13 -31t13 -31t31 -13t31 13t13 31z" />
    <glyph glyph-name="ogonek" unicode="&#x2db;" horiz-adv-x="426" 
d="M333 -166q0 -5 -1.5 -8t-9.5 -7q-11 -5 -43.5 -12.5t-74.5 -7.5q-26 0 -50 4.5t-43 16t-30.5 30t-11.5 46.5q0 35 16 59t55 47l48 28q10 7 29 7h98q8 0 9 -5t-5 -10l-78 -52q-11 -7 -18.5 -13.5t-7.5 -16.5q0 -15 9.5 -21t31.5 -6q19 0 39 4.5t28 4.5q7 0 8.5 -2t1.5 -10
v-75v-1z" />
    <glyph glyph-name="tilde" unicode="&#x2dc;" horiz-adv-x="497" 
d="M444 746q0 -66 -32.5 -93t-89.5 -27q-15 0 -35 5.5t-36 16.5l-42 29q-26 18 -41 18q-10 0 -16.5 -5.5t-6.5 -21.5v-19q0 -17 -15 -17h-71q-15 0 -15 17v19q0 65 33 92t90 27q15 0 34.5 -5t35.5 -16l43 -28q13 -8 22.5 -13t17.5 -5q11 0 17 5.5t6 21.5v19q0 16 16 16h70
q15 0 15 -16v-20v0z" />
    <glyph glyph-name="hungarumlaut" unicode="&#x2dd;" horiz-adv-x="443" 
d="M487 772q0 -4 -4 -8l-122 -122q-6 -6 -10.5 -9t-14.5 -3h-107q-9 0 -9 7q0 5 4 10l93 117q7 8 11.5 11.5t15.5 3.5h132q11 0 11 -7zM254 772q0 -4 -4 -8l-122 -122q-6 -6 -10.5 -9t-14.5 -3h-107q-9 0 -9 7q0 5 4 10l93 117q7 8 11.5 11.5t15.5 3.5h132q11 0 11 -7z" />
    <glyph glyph-name="uni03A9" unicode="&#x3a9;" horiz-adv-x="716" 
d="M358 755q69 0 126 -16.5t97.5 -52t62.5 -91t22 -134.5v-12q0 -43 -5 -83t-22 -75t-49 -63t-86 -46v-27h111q10 0 16.5 -4t6.5 -16v-114q0 -12 -6.5 -16.5t-16.5 -4.5h-191q-21 0 -21 21v213q0 14 3 18t11 7q24 8 38.5 22.5t22.5 37t11 54.5t3 76v12q0 26 -5.5 51.5
t-20 45.5t-40.5 32t-68 12t-68 -12t-40.5 -32t-20 -45.5t-5.5 -51.5v-12q0 -44 3 -76t11 -54.5t22.5 -37t38.5 -22.5q8 -3 11 -7t3 -18v-213q0 -21 -21 -21h-191q-10 0 -16.5 4.5t-6.5 16.5v114q0 12 6.5 16t16.5 4h111v27q-54 18 -86 46t-49 63t-22 75t-5 83v12
q0 79 22 134.5t62.5 91t97.5 52t126 16.5z" />
    <glyph glyph-name="uni03BC" unicode="&#x3bc;" horiz-adv-x="612" 
d="M552 49q0 -11 -6.5 -18t-24.5 -13q-34 -11 -87.5 -19t-123.5 -8q-50 0 -89 9v-171q0 -8 -6 -14t-14 -6h-122q-8 0 -14 6t-6 14v722q0 8 6.5 15t14.5 7h121q8 0 14.5 -7t6.5 -15v-332q0 -52 20.5 -73.5t67.5 -21.5q24 0 44.5 1.5t35.5 5.5v420q0 8 6 15t14 7h121
q8 0 14.5 -7t6.5 -15v-502v0z" />
    <glyph glyph-name="pi" unicode="&#x3c0;" horiz-adv-x="672" 
d="M567 454v-320q0 -19 9 -22t41 -3h24q10 0 10 -11v-93q0 -8 -3 -9.5t-8 -3.5q-4 -1 -15.5 -1.5t-25 -1t-26 -1t-18.5 -0.5q-34 0 -57 8t-37 25t-20 45t-6 68v320h-198v-434q0 -7 -2 -13.5t-12 -6.5h-103q-9 0 -12 5.5t-3 14.5v434h-69q-8 0 -11.5 2.5t-3.5 12.5v79
q0 10 3.5 13t11.5 3h600q8 0 11.5 -3t3.5 -13v-79q0 -10 -3.5 -12.5t-11.5 -2.5h-69z" />
    <glyph glyph-name="afii10023" unicode="&#x401;" horiz-adv-x="580" 
d="M524 25q0 -18 -20 -21q-26 -4 -69.5 -8.5t-124.5 -4.5q-48 0 -92 8t-77.5 31t-53.5 65.5t-20 110.5v332q0 68 20 110t53.5 65t78 31t92.5 8q40 0 70.5 -1.5t53.5 -3.5t39.5 -4t29.5 -4q20 -3 20 -20v-93q0 -8 -6 -14t-14 -6h-203q-35 0 -49.5 -14.5t-14.5 -53.5v-91h259
q8 0 14 -6t6 -14v-95q0 -8 -6 -14t-14 -6h-259v-106q0 -39 14.5 -53.5t49.5 -14.5h203q8 0 14 -6t6 -14v-93zM470 821q0 -8 -7 -14t-15 -6h-94q-8 0 -14.5 6t-6.5 14v93q0 8 6.5 14t14.5 6h94q8 0 15 -6t7 -14v-93zM253 821q0 -8 -6.5 -14t-14.5 -6h-94q-8 0 -15 6t-7 14v93
q0 8 7 14t15 6h94q8 0 14.5 -6t6.5 -14v-93z" />
    <glyph glyph-name="afii10051" unicode="&#x402;" horiz-adv-x="824" 
d="M754 160q0 -51 -14 -84.5t-38 -53t-56.5 -27.5t-70.5 -8q-17 0 -30.5 1t-33.5 3q-15 2 -15 17v102q0 5 3 9.5t8 4.5h50q17 0 21.5 8.5t4.5 27.5v124q0 52 -23 69t-63 17q-28 0 -60 -9t-58 -23v-318q0 -8 -6 -14t-14 -6h-131q-8 0 -14 6t-6 14v582h-163q-8 0 -14 5.5
t-6 13.5v103q0 8 6 13.5t14 5.5h496q8 0 14.5 -5.5t6.5 -13.5v-103q0 -8 -6.5 -13.5t-14.5 -5.5h-162v-136q29 17 75.5 31t99.5 14q57 0 95.5 -18t62 -48.5t33 -72t9.5 -88.5v-124v0z" />
    <glyph glyph-name="afii10052" unicode="&#x403;" horiz-adv-x="581" 
d="M237 20q0 -8 -6 -14t-14 -6h-130q-8 0 -14 6t-6 14v517q0 68 20 110t53.5 65t78 31t92.5 8q40 0 70.5 -1.5t53.5 -3.5t39.5 -4t29.5 -4q20 -3 20 -20v-93q0 -8 -6 -14t-14 -6h-203q-35 0 -49.5 -14.5t-14.5 -53.5v-517zM497 936q0 -4 -4 -8l-122 -122q-6 -6 -10 -9
t-14 -3h-107q-9 0 -9 7q0 5 4 10l93 117q7 8 11.5 11.5t15.5 3.5h131q11 0 11 -7z" />
    <glyph glyph-name="afii10053" unicode="&#x404;" horiz-adv-x="635" 
d="M565 31q0 -11 -5.5 -15.5t-16.5 -7.5q-16 -5 -56.5 -11t-92.5 -6q-82 0 -145.5 19t-107 61.5t-66 111t-22.5 166.5v46q0 96 22.5 164t66 110.5t107 62.5t145.5 20q53 0 93 -6t56 -11q11 -3 16.5 -7t5.5 -15v-97q0 -10 -5 -16t-17 -4q-29 2 -65 5t-84 3q-79 0 -118.5 -35
t-47.5 -122h268q8 0 14 -6t6 -14v-95q0 -8 -6 -14t-14 -6h-270q2 -50 12 -83t29.5 -52.5t50.5 -28t76 -8.5q46 0 82 2.5t67 5.5q22 3 22 -20v-97v0z" />
    <glyph glyph-name="afii10054" unicode="&#x405;" horiz-adv-x="588" 
d="M546 210q0 -40 -14 -79t-46.5 -70t-84.5 -50.5t-128 -19.5q-60 0 -105.5 6t-83.5 16q-8 2 -14 7t-6 13v98q0 11 5 15t13 4h3q15 -2 41.5 -4t54.5 -3.5t53.5 -3t40.5 -1.5q52 0 70.5 17t18.5 53q0 22 -13.5 37.5t-52.5 38.5l-138 82q-35 21 -57.5 43t-36 46t-19 49.5
t-5.5 52.5q0 41 12.5 76.5t42.5 62t79 41.5t122 15q27 0 58.5 -2t60.5 -5t54 -7t39 -8q6 -2 10.5 -6t4.5 -12v-101q0 -7 -3.5 -12t-13.5 -5h-2q-11 1 -35.5 2.5t-55.5 3.5t-63.5 3.5t-57.5 1.5q-43 0 -60.5 -13t-17.5 -40q0 -11 3 -19t10.5 -15.5t20.5 -16t33 -19.5l128 -69
q78 -42 106.5 -92t28.5 -111z" />
    <glyph glyph-name="afii10055" unicode="&#x406;" horiz-adv-x="311" 
d="M241 20q0 -8 -5.5 -14t-13.5 -6h-134q-8 0 -13 6t-5 14v704q0 19 18 19h134q19 0 19 -19v-704v0z" />
    <glyph glyph-name="afii10056" unicode="&#x407;" horiz-adv-x="311" 
d="M241 20q0 -8 -5.5 -14t-13.5 -6h-134q-8 0 -13 6t-5 14v704q0 19 18 19h134q19 0 19 -19v-704zM332 821q0 -8 -7 -14t-15 -6h-94q-8 0 -14.5 6t-6.5 14v93q0 8 6.5 14t14.5 6h94q8 0 15 -6t7 -14v-93zM115 821q0 -8 -6.5 -14t-14.5 -6h-94q-8 0 -15 6t-7 14v93q0 8 7 14
t15 6h94q8 0 14.5 -6t6.5 -14v-93z" />
    <glyph glyph-name="afii10057" unicode="&#x408;" horiz-adv-x="311" 
d="M241 -6q0 -51 -14 -84.5t-38 -53t-56.5 -27.5t-70.5 -8q-17 0 -30.5 1t-33.5 3q-15 2 -15 17v102q0 5 3 9.5t8 4.5h50q17 0 21.5 8.5t4.5 27.5v730q0 8 6 13.5t14 5.5h131q8 0 14 -5.5t6 -13.5v-730v0z" />
    <glyph glyph-name="afii10058" unicode="&#x409;" horiz-adv-x="1038" 
d="M196 18q-2 -8 -7 -13t-13 -5h-140q-17 0 -17 16q0 1 0.5 2t0.5 3l146 611q9 36 26 58t39.5 33.5t48.5 15.5t52 4h253q8 0 14 -6t6 -14v-267q17 1 34 1.5t34 0.5q65 0 122.5 -9.5t100 -35t67.5 -70t25 -113.5v-7q0 -69 -25 -114t-67.5 -71.5t-100 -36.5t-122.5 -10
q-25 0 -51 1t-50.5 2.5t-45.5 3.5t-36 5q-30 5 -42.5 18t-12.5 47v533h-103q-11 0 -14 -15zM664 131q48 0 79 5t48.5 16.5t24 29t6.5 41.5v7q0 24 -6.5 41t-24 27.5t-48.5 15t-79 4.5h-25t-14.5 -0.5t-9.5 -0.5h-10v-185h10t9.5 -0.5t14.5 -0.5h25z" />
    <glyph glyph-name="afii10059" unicode="&#x40a;" horiz-adv-x="1091" 
d="M717 131q48 0 79 5t48.5 16.5t24 29t6.5 41.5v7q0 24 -6.5 41t-24 27.5t-48.5 15t-79 4.5h-25t-14.5 -0.5t-9.5 -0.5h-10v-185h10t9.5 -0.5t14.5 -0.5h25zM488 309h-247v-289q0 -8 -6 -14t-14 -6h-131q-8 0 -14 6t-6 14v704q0 8 6 13.5t14 5.5h131q8 0 14 -5.5t6 -13.5
v-266h247v266q0 8 6 13.5t14 5.5h130q8 0 14 -5.5t6 -13.5v-268q17 1 34 1.5t34 0.5q65 0 122.5 -9.5t100 -35t67.5 -70t25 -113.5v-7q0 -69 -25 -114t-67.5 -71.5t-100 -36.5t-122.5 -10q-25 0 -51 1t-50.5 2.5t-45.5 3.5t-36 5q-30 5 -42.5 18t-12.5 47v241z" />
    <glyph glyph-name="afii10060" unicode="&#x40b;" horiz-adv-x="824" 
d="M562 621q0 -8 -6.5 -13.5t-14.5 -5.5h-162v-136q29 17 75.5 31t99.5 14q57 0 95.5 -18t62 -48.5t33 -72t9.5 -88.5v-263q0 -8 -6.5 -14.5t-14.5 -6.5h-130q-8 0 -14 6.5t-6 14.5v263q0 52 -23 69t-63 17q-28 0 -60 -9t-58 -23v-318q0 -8 -6 -14t-14 -6h-131q-8 0 -14 6
t-6 14v582h-163q-8 0 -14 5.5t-6 13.5v103q0 8 6 13.5t14 5.5h496q8 0 14.5 -5.5t6.5 -13.5v-103v0z" />
    <glyph glyph-name="afii10061" unicode="&#x40c;" horiz-adv-x="678" 
d="M652 732q0 -6 -5 -14l-238 -338l239 -359q4 -5 4 -11q0 -10 -14 -10h-172q-9 0 -13.5 4t-8.5 10l-203 330v-324q0 -8 -6 -14t-14 -6h-131q-8 0 -14 6t-6 14v704q0 8 6 13.5t14 5.5h131q8 0 14 -5.5t6 -13.5v-318l220 325q7 12 22 12h153q16 0 16 -11zM534 936q0 -4 -4 -8
l-122 -122q-6 -6 -10 -9t-14 -3h-107q-9 0 -9 7q0 5 4 10l93 117q7 8 11.5 11.5t15.5 3.5h131q11 0 11 -7z" />
    <glyph glyph-name="afii10062" unicode="&#x40e;" horiz-adv-x="589" 
d="M569 725q0 -2 -0.5 -2.5t-0.5 -2.5l-168 -565q-12 -41 -27 -71.5t-39 -50.5t-61 -30.5t-92 -10.5q-14 0 -31 1.5t-34 3.5t-32 5t-24 6q-8 3 -14.5 6.5t-6.5 11.5v81q0 8 6 13.5t14 5.5h2q12 -1 28.5 -2t34 -2.5t34 -2.5t28.5 -1q27 0 42 11t24 41l9 31h-15
q-14 0 -26.5 2.5t-24 12t-22 28t-20.5 50.5l-132 426q-1 3 -1 7q0 16 20 16h133q8 0 12.5 -5.5t6.5 -13.5l90 -352q3 -11 5.5 -15t10.5 -4h5l93 371q2 8 7.5 13.5t13.5 5.5h133q8 0 13.5 -5t5.5 -13zM476 940q0 -1 -0.5 -1.5t-0.5 -2.5q-7 -30 -21.5 -56.5t-37.5 -46
t-54.5 -31t-71.5 -11.5q-41 0 -72 11.5t-54 31t-37.5 46t-21.5 56.5q0 2 -0.5 2.5t-0.5 1.5q0 7 10 7h87q10 0 13 -12q8 -32 28 -44.5t48 -12.5t48 12.5t28 44.5q2 6 3.5 9t9.5 3h87q10 0 10 -7z" />
    <glyph glyph-name="afii10145" unicode="&#x40f;" horiz-adv-x="729" 
d="M70 724q0 8 6 14t14 6h131q8 0 14 -6t6 -14v-523q0 -11 0.5 -20.5t5 -16.5t13 -10.5t25.5 -3.5h159q16 0 25 3.5t13.5 10.5t5 16.5t0.5 20.5v523q0 8 6 14t14 6h131q8 0 14 -6t6 -14v-523q0 -42 -8.5 -78.5t-31.5 -63.5t-63.5 -42.5t-105.5 -15.5v-102q0 -8 -6 -14
t-14 -6h-131q-8 0 -14 6t-6 14v102q-65 0 -105.5 15.5t-63.5 42.5t-31.5 63.5t-8.5 78.5v523z" />
    <glyph glyph-name="afii10017" unicode="&#x410;" horiz-adv-x="669" 
d="M650 16q0 -16 -17 -16h-140q-8 0 -13 5t-7 13l-36 164h-205l-36 -164q-2 -8 -7 -13t-13 -5h-140q-17 0 -17 16q0 1 0.5 2t0.5 3l149 620q9 36 26 58t39.5 33.5t48.5 15.5t52 4t51.5 -4t48 -15.5t39.5 -33.5t26 -58l149 -620q0 -2 0.5 -3t0.5 -2zM348 595q-2 8 -4 11.5
t-9 3.5q-11 0 -14 -15l-61 -276h149z" />
    <glyph glyph-name="afii10018" unicode="&#x411;" horiz-adv-x="669" 
d="M70 723q0 8 6 14t14 6h418q8 0 14.5 -5.5t6.5 -13.5v-103q0 -8 -6.5 -13.5t-14.5 -5.5h-268v-146q17 1 34 1.5t34 0.5q65 0 122.5 -9.5t100 -35t67.5 -70t25 -113.5v-7q0 -69 -25 -114t-67.5 -71.5t-100 -36.5t-122.5 -10q-25 0 -51 1t-50.5 2.5t-45.5 3.5t-36 5
q-30 5 -42.5 18t-12.5 47v655zM299 131q48 0 79 5t48.5 16.5t24 29t6.5 41.5v7q0 24 -6.5 41t-24 27.5t-48.5 15t-79 4.5h-25t-14.5 -0.5t-9.5 -0.5h-10v-185h10t9.5 -0.5t14.5 -0.5h25z" />
    <glyph glyph-name="afii10019" unicode="&#x412;" horiz-adv-x="669" 
d="M623 215q0 -66 -25 -109.5t-67.5 -69t-100 -35.5t-122.5 -10q-25 0 -51 1t-50.5 2.5t-45.5 3.5t-36 5q-30 5 -42.5 18t-12.5 47v608q0 34 12 47t41 18q13 2 33.5 4t45 3.5t50.5 2.5t50 1q71 0 129 -10.5t99.5 -34.5t64.5 -64t23 -100v-18q0 -49 -22 -88t-62 -59
q40 -20 64.5 -58t24.5 -90v-15zM453 532q0 41 -30.5 60.5t-107.5 19.5h-16.5h-22t-22 -0.5t-15.5 -0.5v-173h112q30 0 49.5 6.5t31 17t16.5 25t5 30.5v15zM457 230q0 36 -23 62.5t-83 26.5h-112v-187h17.5t24 -0.5t24 -0.5h16.5q77 0 106.5 23t29.5 65v11z" />
    <glyph glyph-name="afii10020" unicode="&#x413;" horiz-adv-x="581" 
d="M237 20q0 -8 -6 -14t-14 -6h-130q-8 0 -14 6t-6 14v517q0 68 20 110t53.5 65t78 31t92.5 8q40 0 70.5 -1.5t53.5 -3.5t39.5 -4t29.5 -4q20 -3 20 -20v-93q0 -8 -6 -14t-14 -6h-203q-35 0 -49.5 -14.5t-14.5 -53.5v-517z" />
    <glyph glyph-name="afii10021" unicode="&#x414;" horiz-adv-x="782" 
d="M25 130q0 8 6 14t14 6h61l118 491q9 36 26 58t39.5 33.5t48.5 15.5t52 4t51.5 -4t48 -15.5t39.5 -33.5t26 -58l118 -491h64q8 0 14 -6t6 -14v-231q0 -8 -6 -14t-14 -6h-131q-8 0 -14 6t-6 14v101h-390v-101q0 -8 -6 -14t-14 -6h-131q-8 0 -14 6t-6 14v231zM279 150h220
l-96 445q-2 8 -4 11.5t-9 3.5q-11 0 -14 -15z" />
    <glyph glyph-name="afii10022" unicode="&#x415;" horiz-adv-x="580" 
d="M524 25q0 -18 -20 -21q-26 -4 -69.5 -8.5t-124.5 -4.5q-48 0 -92 8t-77.5 31t-53.5 65.5t-20 110.5v332q0 68 20 110t53.5 65t78 31t92.5 8q40 0 70.5 -1.5t53.5 -3.5t39.5 -4t29.5 -4q20 -3 20 -20v-93q0 -8 -6 -14t-14 -6h-203q-35 0 -49.5 -14.5t-14.5 -53.5v-91h259
q8 0 14 -6t6 -14v-95q0 -8 -6 -14t-14 -6h-259v-106q0 -39 14.5 -53.5t49.5 -14.5h203q8 0 14 -6t6 -14v-93v0z" />
    <glyph glyph-name="afii10024" unicode="&#x416;" horiz-adv-x="1045" 
d="M437 724q0 8 6 13.5t14 5.5h131q8 0 14 -5.5t6 -13.5v-318l220 325q7 12 22 12h153q16 0 16 -11q0 -6 -5 -14l-238 -338l239 -359q4 -5 4 -11q0 -10 -14 -10h-172q-9 0 -13.5 4t-8.5 10l-203 330v-324q0 -8 -6 -14t-14 -6h-131q-8 0 -14 6t-6 14v324l-203 -330
q-4 -6 -8.5 -10t-13.5 -4h-172q-14 0 -14 10q0 6 4 11l239 359l-238 338q-5 8 -5 14q0 11 16 11h153q14 0 22 -12l220 -325v318z" />
    <glyph glyph-name="afii10025" unicode="&#x417;" 
d="M566 212q0 -57 -19 -99t-53.5 -69t-82.5 -40t-106 -13q-59 0 -113.5 8t-93.5 20q-8 2 -13.5 6.5t-5.5 12.5v80q0 8 5 13t13 5h2q53 -5 105.5 -7t93.5 -2q54 0 76.5 21.5t22.5 63.5v18q0 17 -3.5 32.5t-12.5 27.5t-25 19t-40 7h-176q-8 0 -13.5 6t-5.5 14v85q0 19 19 19
h172q24 0 40.5 7.5t26.5 19.5t14 27.5t4 32.5v14q0 34 -20.5 54.5t-78.5 20.5q-26 0 -49.5 -1t-47 -2.5t-48 -3.5t-52.5 -5h-2q-8 0 -13 5t-5 13v80q0 8 6 12.5t14 6.5q39 12 92 21.5t112 9.5q61 0 109.5 -11t82 -35.5t51.5 -63.5t18 -95v-14q0 -44 -24.5 -87t-64.5 -66
q42 -22 65.5 -61.5t23.5 -88.5v-18v0z" />
    <glyph glyph-name="afii10026" unicode="&#x418;" horiz-adv-x="729" 
d="M70 724q0 8 6 13.5t14 5.5h118q8 0 14 -5.5t6 -13.5v-423q0 -9 5 -9q3 0 8 8l237 412q9 16 18 23.5t24 7.5h101q16 0 27 -11t11 -27v-685q0 -8 -6 -14t-14 -6h-118q-8 0 -14 6t-6 14v405q0 8 -5 8q-4 0 -9 -8l-228 -394q-12 -20 -24 -25.5t-28 -5.5h-98q-16 0 -27.5 11
t-11.5 27v686z" />
    <glyph glyph-name="afii10027" unicode="&#x419;" horiz-adv-x="729" 
d="M362 794q-41 0 -73 11.5t-55.5 31t-38 46t-18.5 56.5q-1 5 0 8t9 3h87q10 0 13 -12q8 -32 28 -44.5t48 -12.5t48 12.5t28 44.5q3 12 13 12h87q8 0 9 -3t0 -8q-5 -30 -19 -56.5t-37.5 -46t-56 -31t-72.5 -11.5zM70 724q0 8 6 13.5t14 5.5h118q8 0 14 -5.5t6 -13.5v-423
q0 -9 5 -9q3 0 8 8l237 412q9 16 18 23.5t24 7.5h101q16 0 27 -11t11 -27v-685q0 -8 -6 -14t-14 -6h-118q-8 0 -14 6t-6 14v405q0 8 -5 8q-4 0 -9 -8l-228 -394q-12 -20 -24 -25.5t-28 -5.5h-98q-16 0 -27.5 11t-11.5 27v686z" />
    <glyph glyph-name="afii10028" unicode="&#x41a;" horiz-adv-x="678" 
d="M652 732q0 -6 -5 -14l-238 -338l239 -359q4 -5 4 -11q0 -10 -14 -10h-172q-9 0 -13.5 4t-8.5 10l-203 330v-324q0 -8 -6 -14t-14 -6h-131q-8 0 -14 6t-6 14v704q0 8 6 13.5t14 5.5h131q8 0 14 -5.5t6 -13.5v-318l220 325q7 12 22 12h153q16 0 16 -11z" />
    <glyph glyph-name="afii10029" unicode="&#x41b;" horiz-adv-x="669" 
d="M348 595q-2 8 -4 11.5t-9 3.5q-11 0 -14 -15l-125 -577q-2 -8 -7 -13t-13 -5h-140q-17 0 -17 16q0 1 0.5 2t0.5 3l149 620q9 36 26 58t39.5 33.5t48.5 15.5t52 4t51.5 -4t48 -15.5t39.5 -33.5t26 -58l149 -620q0 -2 0.5 -3t0.5 -2q0 -16 -17 -16h-140q-8 0 -13 5t-7 13z
" />
    <glyph glyph-name="afii10030" unicode="&#x41c;" horiz-adv-x="816" 
d="M746 14q0 -8 -5.5 -11t-11.5 -3h-132q-7 0 -11.5 6t-4.5 14v417q0 8 -5 8q-4 0 -8 -7l-90 -165q-10 -17 -30 -17h-80q-20 0 -30 17l-90 165q-4 7 -8 7q-5 0 -5 -8v-417q0 -8 -4.5 -14t-11.5 -6h-132q-6 0 -11.5 3t-5.5 11v695q0 16 10 25t26 9h94q30 0 44 -27l153 -285
q6 -13 11 -13q4 0 11 13l153 285q14 27 44 27h94q16 0 26 -9.5t10 -25.5v-694v0z" />
    <glyph glyph-name="afii10031" unicode="&#x41d;" horiz-adv-x="729" 
d="M659 20q0 -8 -6 -14t-14 -6h-131q-8 0 -14 6t-6 14v289h-247v-289q0 -8 -6 -14t-14 -6h-131q-8 0 -14 6t-6 14v704q0 8 6 13.5t14 5.5h131q8 0 14 -5.5t6 -13.5v-266h247v266q0 8 6 13.5t14 5.5h131q8 0 14 -5.5t6 -13.5v-704v0z" />
    <glyph glyph-name="afii10032" unicode="&#x41e;" horiz-adv-x="698" 
d="M645 312q0 -87 -23 -148t-63 -99.5t-94 -56t-116 -17.5t-116 17.5t-94 56t-63 99.5t-23 148v119q0 87 23 148t63 99.5t94 56t116 17.5t116 -17.5t94 -56t63 -99.5t23 -148v-119zM473 431q0 91 -30.5 131t-93.5 40t-93 -40t-30 -131v-119q0 -91 30 -131t93 -40t93.5 40
t30.5 131v119z" />
    <glyph glyph-name="afii10033" unicode="&#x41f;" horiz-adv-x="729" 
d="M449 743q65 0 106 -15.5t64 -42.5t31.5 -63.5t8.5 -78.5v-523q0 -8 -6 -14t-14 -6h-131q-8 0 -14 6t-6 14v523q0 11 -0.5 20.5t-5 16t-13.5 10.5t-25 4h-159q-17 0 -25.5 -4t-13 -10.5t-5 -16t-0.5 -20.5v-523q0 -8 -6 -14t-14 -6h-131q-8 0 -14 6t-6 14v523
q0 42 8.5 78.5t31.5 63.5t64 42.5t106 15.5h169z" />
    <glyph glyph-name="afii10034" unicode="&#x420;" horiz-adv-x="651" 
d="M618 502q0 -70 -25.5 -116.5t-67.5 -74.5t-95.5 -39.5t-109.5 -11.5q-18 0 -40 1t-41 2v-243q0 -8 -6 -14t-14 -6h-129q-8 0 -14 5.5t-6 13.5v672q0 26 11 35t34 13q38 6 93.5 9.5t109.5 3.5q57 0 111 -11t96 -39t67.5 -74.5t25.5 -116.5v-9zM448 511q0 54 -32.5 76.5
t-95.5 22.5q-5 0 -17 -0.5t-24.5 -1t-24 -1t-15.5 -0.5v-204q4 0 15.5 -0.5t25 -1t25 -0.5h15.5q67 0 97.5 25t30.5 76v9z" />
    <glyph glyph-name="afii10035" unicode="&#x421;" horiz-adv-x="561" 
d="M520 31q0 -11 -5.5 -15.5t-16.5 -7.5q-16 -5 -56 -11t-93 -6q-57 0 -110.5 16t-94.5 53.5t-66 98.5t-25 150v126q0 89 25 150t66 98t94.5 53t110.5 16q53 0 93 -6t56 -11q11 -3 16.5 -7t5.5 -15v-97q0 -20 -19 -20h-3q-29 2 -67.5 5t-80.5 3q-26 0 -48.5 -7.5t-39.5 -27
t-26.5 -52t-9.5 -82.5v-126q0 -50 9.5 -82.5t26.5 -52t39.5 -27t48.5 -7.5q42 0 80.5 3t67.5 5h3q19 0 19 -20v-97v0z" />
    <glyph glyph-name="afii10036" unicode="&#x422;" horiz-adv-x="587" 
d="M562 621q0 -8 -6.5 -13.5t-14.5 -5.5h-162v-582q0 -8 -6 -14t-14 -6h-131q-8 0 -14 6t-6 14v582h-163q-8 0 -14 5.5t-6 13.5v103q0 8 6 13.5t14 5.5h496q8 0 14.5 -5.5t6.5 -13.5v-103v0z" />
    <glyph glyph-name="afii10037" unicode="&#x423;" horiz-adv-x="589" 
d="M569 725q0 -2 -0.5 -2.5t-0.5 -2.5l-168 -565q-12 -41 -27 -71.5t-39 -50.5t-61 -30.5t-92 -10.5q-14 0 -31 1.5t-34 3.5t-32 5t-24 6q-8 3 -14.5 6.5t-6.5 11.5v81q0 8 6 13.5t14 5.5h2q12 -1 28.5 -2t34 -2.5t34 -2.5t28.5 -1q27 0 42 11t24 41l9 31h-15
q-14 0 -26.5 2.5t-24 12t-22 28t-20.5 50.5l-132 426q-1 3 -1 7q0 16 20 16h133q8 0 12.5 -5.5t6.5 -13.5l90 -352q3 -11 5.5 -15t10.5 -4h5l93 371q2 8 7.5 13.5t13.5 5.5h133q8 0 13.5 -5t5.5 -13z" />
    <glyph glyph-name="afii10038" unicode="&#x424;" horiz-adv-x="993" 
d="M790 402q0 54 -32.5 76.5t-95.5 22.5q-5 0 -17 -0.5t-24.5 -1t-24 -1t-15.5 -0.5v-204q4 0 15.5 -0.5t25 -1t25 -0.5h15.5q67 0 97.5 25t30.5 76v9zM412 154q-19 -1 -41 -2t-40 -1q-56 0 -109.5 11.5t-95.5 39.5t-67.5 74.5t-25.5 116.5v9q0 70 25.5 116.5t67.5 74.5
t96 39t111 11q20 0 39.5 -0.5t39.5 -1.5v92q0 8 6 13.5t14 5.5h129q8 0 14 -6t6 -14v-91q20 1 39.5 1.5t39.5 0.5q57 0 111 -11t96 -39t67.5 -74.5t25.5 -116.5v-9q0 -70 -25.5 -116.5t-67.5 -74.5t-95.5 -39.5t-109.5 -11.5q-18 0 -40 1t-41 2v-134q0 -8 -6 -14t-14 -6
h-129q-8 0 -14 5.5t-6 13.5v135zM412 498q-5 0 -16 0.5t-24 1t-24.5 1t-16.5 0.5q-63 0 -95.5 -22.5t-32.5 -76.5v-9q0 -51 30.5 -76t97.5 -25h15.5t25 0.5t25 1t15.5 0.5v204z" />
    <glyph glyph-name="afii10039" unicode="&#x425;" horiz-adv-x="703" 
d="M671 10q0 -10 -13 -10h-159q-10 0 -15.5 3.5t-10.5 11.5l-130 211l-117 -206q-5 -9 -11 -14.5t-14 -5.5h-148q-15 0 -15 13q0 3 2 7l209 361l-211 343q-2 4 -2 6q0 5 4.5 9t10.5 4h161q8 0 14 -6t11 -13l124 -202l112 202q4 7 10.5 13t14.5 6h148q6 0 10.5 -4t4.5 -9
q0 -2 -2 -6l-206 -353l215 -351q3 -6 3 -10z" />
    <glyph glyph-name="afii10040" unicode="&#x426;" horiz-adv-x="767" 
d="M571 0h-291q-65 0 -106 15.5t-64 42.5t-31.5 64t-8.5 79v522q0 8 6 14t14 6h131q8 0 14 -6t6 -14v-522q0 -11 0.5 -20.5t5 -16.5t13 -10.5t25.5 -3.5h159q16 0 25 3.5t13.5 10.5t5 16.5t0.5 20.5v522q0 8 6 14t14 6h131q8 0 14 -6t6 -14v-522q0 -14 -1 -26.5t-3 -24.5h67
q8 0 14 -6t6 -14v-232q0 -8 -6 -14t-14 -6h-131q-8 0 -14 6t-6 14v102z" />
    <glyph glyph-name="afii10041" unicode="&#x427;" horiz-adv-x="686" 
d="M445 277q-29 -17 -75.5 -31t-99.5 -14q-57 0 -95.5 17.5t-62 48.5t-33 72.5t-9.5 88.5v263q0 8 6.5 14.5t14.5 6.5h130q8 0 14 -6.5t6 -14.5v-263q0 -26 6 -43t17 -26.5t27 -13t36 -3.5q28 0 60 9t58 23v318q0 8 6 14t14 6h131q8 0 14 -6t6 -14v-703q0 -8 -6 -14t-14 -6
h-131q-8 0 -14 6t-6 14v257z" />
    <glyph glyph-name="afii10042" unicode="&#x428;" horiz-adv-x="987" 
d="M579 150h123q16 0 25 3.5t13.5 10.5t5 16.5t0.5 20.5v523q0 8 6 14t14 6h131q8 0 14 -6t6 -14v-524q0 -42 -8.5 -78.5t-31.5 -63.5t-64 -42.5t-106 -15.5h-427q-65 0 -106 15.5t-64 42.5t-31.5 63.5t-8.5 78.5v524q0 8 6 14t14 6h131q8 0 14 -6t6 -14v-523
q0 -11 0.5 -20.5t5 -16.5t13 -10.5t25.5 -3.5h123v574q0 8 6 14t14 6h131q8 0 14 -6t6 -14v-574z" />
    <glyph glyph-name="afii10043" unicode="&#x429;" horiz-adv-x="1030" 
d="M834 0h-554q-65 0 -106 15.5t-64 42.5t-31.5 63.5t-8.5 78.5v524q0 8 6 14t14 6h131q8 0 14 -6t6 -14v-523q0 -11 0.5 -20.5t5 -16.5t13 -10.5t25.5 -3.5h123v574q0 8 6 14t14 6h131q8 0 14 -6t6 -14v-574h123q16 0 25 3.5t13.5 10.5t5 16.5t0.5 20.5v523q0 8 6 14t14 6
h131q8 0 14 -6t6 -14v-524q0 -26 -3 -50h71q8 0 14 -6t6 -14v-231q0 -8 -6 -14t-14 -6h-131q-8 0 -14 6t-6 14v101z" />
    <glyph glyph-name="afii10044" unicode="&#x42a;" horiz-adv-x="708" 
d="M20 602q-8 0 -14 5.5t-6 13.5v103q0 8 6 13.5t14 5.5h239q8 0 14 -6t6 -14v-267q17 1 34 1.5t34 0.5q65 0 122.5 -9.5t100 -35t67.5 -70t25 -113.5v-7q0 -69 -25 -114t-67.5 -71.5t-100 -36.5t-122.5 -10q-25 0 -51 1t-50.5 2.5t-45.5 3.5t-36 5q-30 5 -42.5 18t-12.5 47
v534h-89zM338 131q48 0 79 5t48.5 16.5t24 29t6.5 41.5v7q0 24 -6.5 41t-24 27.5t-48.5 15t-79 4.5h-25t-14.5 -0.5t-9.5 -0.5h-10v-185h10t9.5 -0.5t14.5 -0.5h25z" />
    <glyph glyph-name="afii10045" unicode="&#x42b;" horiz-adv-x="936" 
d="M70 723q0 8 6 14t14 6h130q8 0 14 -6t6 -14v-267q17 1 34 1.5t34 0.5q65 0 122.5 -9.5t100 -35t67.5 -70t25 -113.5v-7q0 -69 -25 -114t-67.5 -71.5t-100 -36.5t-122.5 -10q-25 0 -51 1t-50.5 2.5t-45.5 3.5t-36 5q-30 5 -42.5 18t-12.5 47v655zM299 131q48 0 79 5
t48.5 16.5t24 29t6.5 41.5v7q0 24 -6.5 41t-24 27.5t-48.5 15t-79 4.5h-25t-14.5 -0.5t-9.5 -0.5h-10v-185h10t9.5 -0.5t14.5 -0.5h25zM866 20q0 -8 -5.5 -14t-13.5 -6h-134q-8 0 -13 6t-5 14v704q0 19 18 19h134q19 0 19 -19v-704z" />
    <glyph glyph-name="afii10046" unicode="&#x42c;" horiz-adv-x="669" 
d="M70 723q0 8 6 14t14 6h130q8 0 14 -6t6 -14v-267q17 1 34 1.5t34 0.5q65 0 122.5 -9.5t100 -35t67.5 -70t25 -113.5v-7q0 -69 -25 -114t-67.5 -71.5t-100 -36.5t-122.5 -10q-25 0 -51 1t-50.5 2.5t-45.5 3.5t-36 5q-30 5 -42.5 18t-12.5 47v655zM299 131q48 0 79 5
t48.5 16.5t24 29t6.5 41.5v7q0 24 -6.5 41t-24 27.5t-48.5 15t-79 4.5h-25t-14.5 -0.5t-9.5 -0.5h-10v-185h10t9.5 -0.5t14.5 -0.5h25z" />
    <glyph glyph-name="afii10047" unicode="&#x42d;" horiz-adv-x="635" 
d="M70 128q0 23 22 20q31 -3 67 -5.5t82 -2.5q44 0 75 8.5t50.5 28t29.5 52.5t12 83h-269q-8 0 -14 6t-6 14v95q0 8 6 14t14 6h267q-8 87 -47.5 122t-117.5 35q-48 0 -84 -3t-65 -5q-12 -2 -17 4t-5 16v97q0 11 5.5 15t16.5 7q16 5 56 11t93 6q82 0 145.5 -20t107 -62.5
t66 -110.5t22.5 -164v-46q0 -98 -22.5 -166.5t-66 -111t-107 -61.5t-145.5 -19q-52 0 -92.5 6t-56.5 11q-11 3 -16.5 7.5t-5.5 15.5v97z" />
    <glyph glyph-name="afii10048" unicode="&#x42e;" horiz-adv-x="996" 
d="M241 20q0 -8 -5.5 -14t-13.5 -6h-134q-8 0 -13 6t-5 14v704q0 19 18 19h134q19 0 19 -19v-266h110q4 79 28 135t64 91.5t92 51.5t112 16q62 0 116 -17.5t94 -56t63 -99.5t23 -148v-119q0 -87 -23 -148t-63 -99.5t-94 -56t-116 -17.5t-116 17.5t-93.5 55.5t-63 98.5
t-23.5 146.5h-110v-289zM771 431q0 91 -30.5 131t-93.5 40t-93 -40t-30 -131v-119q0 -91 30 -131t93 -40t93.5 40t30.5 131v119z" />
    <glyph glyph-name="afii10049" unicode="&#x42f;" horiz-adv-x="680" 
d="M36 12q0 5 3 11l151 282q-55 22 -92 71t-37 129v13q0 66 23 111t63.5 72.5t95.5 39t119 11.5q27 0 55.5 -1t55.5 -3t51 -4t41 -5q23 -4 34 -13t11 -35v-671q0 -8 -6 -14t-14 -6h-130q-8 0 -14 6t-6 14v254q-14 0 -34.5 -1t-36.5 -1l-11 1l-134 -253q-4 -8 -8 -14t-12 -6
h-153q-15 0 -15 12zM231 505q0 -26 7 -44t23 -29t42.5 -16.5t65.5 -5.5h14t21.5 0.5t21.5 1t14 0.5v192q-5 0 -15.5 0.5t-22.5 1t-23.5 1t-16.5 0.5q-63 0 -97 -21.5t-34 -67.5v-13z" />
    <glyph glyph-name="afii10065" unicode="&#x430;" horiz-adv-x="562" 
d="M502 20q0 -8 -6 -14t-14 -6h-112q-8 0 -14 6t-6 14v16q-29 -21 -61.5 -33t-77.5 -12q-33 0 -63.5 8.5t-54.5 28.5t-38.5 53t-14.5 82v9q0 88 58.5 128.5t187.5 40.5h54v36q0 43 -20 56t-55 13q-24 0 -48.5 -0.5t-47 -1.5t-40.5 -2.5l-30 -2.5h-5q-8 0 -13 4t-5 14v81
q0 17 19 22q28 7 75.5 14t97.5 7q54 0 97.5 -11.5t73.5 -36t46.5 -63t16.5 -93.5v-357zM343 245h-57q-26 0 -43 -4.5t-27 -13.5t-14 -23t-4 -32v-9q0 -32 15.5 -41t47.5 -9q23 0 43.5 6.5t38.5 15.5v110z" />
    <glyph glyph-name="afii10066" unicode="&#x431;" horiz-adv-x="589" 
d="M306 563q-25 -5 -47 -11.5t-36 -18.5q20 7 40.5 9t31.5 2q61 0 107.5 -18.5t78 -52t48 -81.5t16.5 -108v-33q0 -60 -16.5 -108t-48 -81.5t-78 -52t-107.5 -18.5t-107.5 18.5t-78.5 52t-48.5 81.5t-16.5 108v33q0 71 3 135t22.5 116t61.5 89t119 54l51 11q25 5 41 10.5
t25 11.5t12.5 12.5t5.5 15.5q1 13 15 13h120q13 0 12 -13q-2 -32 -11 -57.5t-27.5 -46t-48 -35t-72.5 -23.5zM384 284q0 67 -22.5 94.5t-66.5 27.5t-67 -27.5t-23 -94.5v-33q0 -66 23 -94.5t67 -28.5t66.5 28.5t22.5 94.5v33z" />
    <glyph glyph-name="afii10067" unicode="&#x432;" horiz-adv-x="571" 
d="M527 172q0 -53 -21 -87.5t-57 -54.5t-84 -28.5t-102 -8.5q-41 0 -86.5 3t-90.5 11q-17 3 -21.5 12t-4.5 29v493q0 17 9.5 23t23.5 8q35 5 82 8.5t94 3.5q55 0 102 -7.5t80.5 -27t52.5 -52.5t19 -84v-10q0 -75 -65 -110q34 -11 51.5 -40.5t17.5 -73.5v-7zM370 183
q0 26 -15.5 42.5t-57.5 16.5h-78v-124q5 0 15 -0.5t39 -0.5q56 0 76.5 15t20.5 43v8zM367 408q0 29 -21.5 41t-77.5 12h-25.5t-23.5 -1v-114h78q42 0 56 15.5t14 38.5v8z" />
    <glyph glyph-name="afii10068" unicode="&#x433;" horiz-adv-x="422" 
d="M266 438q-17 0 -25.5 -4t-13 -10.5t-5 -16t-0.5 -20.5v-367q0 -8 -6 -14t-14 -6h-122q-8 0 -14 6t-6 14v367q0 37 8.5 71t31 59.5t62.5 40.5t103 15h121q11 0 16 -6.5t5 -14.5v-94q0 -8 -5 -14t-16 -6h-120z" />
    <glyph glyph-name="afii10069" unicode="&#x434;" horiz-adv-x="656" 
d="M481 0h-306v-101q0 -8 -6 -14t-14 -6h-115q-8 0 -14 6t-6 14v217q0 8 6 14t14 6h51l92 356q7 28 22.5 46t35.5 28.5t42.5 14t44.5 3.5t44.5 -3.5t42 -13t34.5 -27.5t23 -48l93 -356h51q8 0 14 -6t6 -14v-217q0 -8 -6 -14t-14 -6h-115q-8 0 -14 6t-6 14v101zM254 136h147
l-70 302q-2 6 -4 6q-3 0 -4 -6z" />
    <glyph glyph-name="afii10070" unicode="&#x435;" horiz-adv-x="590" 
d="M545 260q0 -24 -21 -24h-319v-2q0 -21 5 -41t17 -35t31.5 -24t49.5 -9q24 0 51 1t53.5 2t49.5 2.5t38 3.5h3q19 0 19 -16v-76q0 -12 -4 -18t-17 -9q-48 -12 -94 -18t-111 -6q-45 0 -90 13t-81 43t-58 79.5t-22 121.5v70q0 60 17 109t49.5 83t79.5 52.5t107 18.5
q61 0 107.5 -20t77.5 -55t46.5 -83t15.5 -105v-58zM387 340q0 56 -24 83.5t-66 27.5t-67 -28t-25 -83v-4h182v4z" />
    <glyph glyph-name="afii10072" unicode="&#x436;" horiz-adv-x="894" 
d="M366 553q0 8 6.5 14t14.5 6h121q8 0 14 -6t6 -14v-224l152 229q6 9 13 12t13 3h143q15 0 15 -11q0 -5 -4 -10l-186 -253l185 -278q2 -2 2 -8q0 -13 -13 -13h-151q-8 0 -13.5 2.5t-11.5 11.5l-144 235v-228q0 -8 -6 -14.5t-14 -6.5h-121q-8 0 -14.5 6.5t-6.5 14.5v228
l-144 -235q-6 -9 -11.5 -11.5t-13.5 -2.5h-151q-13 0 -13 13q0 6 2 8l185 278l-186 253q-4 5 -4 10q0 11 15 11h143q6 0 13 -3t13 -12l152 -229v224z" />
    <glyph glyph-name="afii10073" unicode="&#x437;" horiz-adv-x="534" 
d="M114 236q-12 0 -16.5 6.5t-4.5 14.5v74q0 8 4.5 14t16.5 6h144q21 0 32.5 4t17 11.5t6.5 18t1 22.5v5q0 12 -2.5 20.5t-10 14.5t-21.5 9t-37 3q-15 0 -34.5 -0.5t-41 -1t-44.5 -2t-44 -3.5q-8 -1 -14 2t-6 14v75q0 13 16 17q38 10 85 17t95 7q52 0 92.5 -9t68.5 -28.5
t42.5 -50.5t14.5 -76v-7q0 -13 -1.5 -28.5t-8.5 -31.5t-20 -31t-36 -27q34 -16 50 -47.5t16 -69.5v-9q0 -46 -16 -79t-45.5 -54.5t-70.5 -32t-90 -10.5q-48 0 -93 7t-83 17q-16 4 -16 17v75q0 11 6 14t14 2q21 -2 44 -3.5t44.5 -2t41 -1t34.5 -0.5q45 0 58 13t13 38v9
q0 26 -9 42t-45 16h-147z" />
    <glyph glyph-name="afii10074" unicode="&#x438;" horiz-adv-x="612" 
d="M81 0q-8 0 -14.5 4.5t-6.5 16.5v531q0 11 6 16t14 5h108q8 0 14.5 -5t6.5 -16v-270q0 -7 4 -7q3 0 7 6l167 268q8 12 15 18t19 6h111q8 0 14 -6t6 -14v-532q0 -8 -6.5 -14.5t-14.5 -6.5h-108q-8 0 -14 6.5t-6 14.5v257q0 6 -4 6t-8 -6l-160 -254q-10 -16 -19.5 -20
t-22.5 -4h-108z" />
    <glyph glyph-name="afii10075" unicode="&#x439;" horiz-adv-x="612" 
d="M478 779q12 0 9 -11q-7 -30 -21.5 -56t-37.5 -46t-54.5 -31.5t-71.5 -11.5q-41 0 -72 11.5t-54 31.5t-37.5 46t-21.5 56q-3 11 9 11h87q10 0 13 -12q8 -32 28 -44.5t48 -12.5t48 12.5t28 44.5q2 6 3.5 9t9.5 3h87zM81 0q-8 0 -14.5 4.5t-6.5 16.5v531q0 11 6 16t14 5h108
q8 0 14.5 -5t6.5 -16v-270q0 -7 4 -7q3 0 7 6l167 268q8 12 15 18t19 6h111q8 0 14 -6t6 -14v-532q0 -8 -6.5 -14.5t-14.5 -6.5h-108q-8 0 -14 6.5t-6 14.5v257q0 6 -4 6t-8 -6l-160 -254q-10 -16 -19.5 -20t-22.5 -4h-108z" />
    <glyph glyph-name="afii10076" unicode="&#x43a;" horiz-adv-x="588" 
d="M558 562q0 -5 -4 -10l-186 -253l185 -278q2 -2 2 -8q0 -13 -13 -13h-151q-8 0 -13.5 2.5t-11.5 11.5l-144 235v-228q0 -8 -6 -14.5t-14 -6.5h-121q-8 0 -14.5 6.5t-6.5 14.5v532q0 8 6.5 14t14.5 6h121q8 0 14 -6t6 -14v-224l152 229q6 9 13 12t13 3h143q15 0 15 -11z
" />
    <glyph glyph-name="afii10077" unicode="&#x43b;" horiz-adv-x="574" 
d="M290 438q-2 6 -4 6t-4 -6l-95 -416q-2 -9 -9.5 -15.5t-18.5 -6.5h-112q-11 0 -18 6.5t-7 16.5q0 1 0.5 3t0.5 4l119 462q7 28 22.5 46t35.5 28.5t42.5 14t44.5 3.5t44.5 -3.5t42 -13t34.5 -27.5t23 -48l121 -464v-5q0 -10 -7.5 -16.5t-18.5 -6.5h-112q-11 0 -18 6.5
t-9 15.5z" />
    <glyph glyph-name="afii10078" unicode="&#x43c;" horiz-adv-x="741" 
d="M681 11q0 -7 -4 -9t-9 -2h-122q-5 0 -8.5 4.5t-3.5 10.5v322q0 6 -4 6t-6 -5l-70 -127q-7 -14 -23 -14h-121q-16 0 -23 14l-70 127q-3 5 -6 5q-4 0 -4 -6v-322q0 -6 -3.5 -10.5t-8.5 -4.5h-122q-5 0 -9 2t-4 9v536q0 12 8 19t20 7h122q23 0 34 -21l118 -220q5 -10 8 -10
q4 0 9 10l118 220q11 21 34 21h122q12 0 20 -7.5t8 -19.5v-535v0z" />
    <glyph glyph-name="afii10079" unicode="&#x43d;" horiz-adv-x="616" 
d="M556 21q0 -11 -6 -16t-14 -5h-119q-8 0 -14.5 5t-6.5 16v209h-175v-209q0 -11 -6 -16t-14 -5h-120q-8 0 -14.5 5t-6.5 16v531q0 12 6.5 16.5t14.5 4.5h120q8 0 14 -4.5t6 -16.5v-187h175v187q0 12 6.5 16.5t14.5 4.5h119q8 0 14 -4.5t6 -16.5v-531z" />
    <glyph glyph-name="afii10080" unicode="&#x43e;" horiz-adv-x="589" 
d="M545 251q0 -60 -16.5 -108t-48 -81.5t-78 -52t-107.5 -18.5t-107.5 18.5t-78.5 52t-48.5 81.5t-16.5 108v70q0 60 16.5 108t48.5 81.5t78.5 52t107.5 18.5t107.5 -18.5t78 -52t48 -81.5t16.5 -108v-70zM384 321q0 122 -89 122q-44 0 -67 -30.5t-23 -91.5v-70
q0 -61 23 -92t67 -31q89 0 89 123v70z" />
    <glyph glyph-name="afii10081" unicode="&#x43f;" horiz-adv-x="612" 
d="M342 573q65 0 106 -15.5t64 -42.5t31.5 -63.5t8.5 -78.5v-353q0 -8 -6 -14t-14 -6h-122q-8 0 -14 6t-6 14v367q0 11 -0.5 20.5t-5 16t-13.5 10.5t-25 4h-80q-17 0 -25.5 -4t-13 -10.5t-5 -16t-0.5 -20.5v-367q0 -8 -6 -14t-14 -6h-122q-8 0 -14 6t-6 14v353
q0 42 8.5 78.5t31.5 63.5t64 42.5t106 15.5h72z" />
    <glyph glyph-name="afii10082" unicode="&#x440;" horiz-adv-x="597" 
d="M555 247q0 -118 -62 -187t-189 -69q-15 0 -37.5 2t-44.5 5v-173q0 -8 -6 -14t-14 -6h-121q-8 0 -14.5 6t-6.5 14v701q0 12 5.5 18t25.5 11q43 11 99 18.5t114 7.5q122 0 186.5 -67t64.5 -189v-78zM393 325q0 27 -4 49t-14 38.5t-27 25.5t-44 9q-25 0 -46.5 -1.5
t-35.5 -3.5v-312q18 -2 41 -4t41 -2q27 0 44 9.5t27 26t14 39t4 48.5v78z" />
    <glyph glyph-name="afii10083" unicode="&#x441;" horiz-adv-x="474" 
d="M432 29q0 -11 -5 -15.5t-16 -7.5q-21 -5 -54.5 -10t-78.5 -5q-106 0 -169.5 65t-63.5 188v84q0 123 63.5 188t169.5 65q45 0 78.5 -5t54.5 -10q11 -3 16 -7.5t5 -15.5v-89q0 -8 -5.5 -12.5t-13.5 -4.5h-2q-28 3 -53.5 5t-68.5 2q-17 0 -32 -5.5t-26 -19t-17.5 -36
t-6.5 -55.5v-84q0 -33 6.5 -55.5t17.5 -36t26 -19t32 -5.5q43 0 68.5 2t53.5 5h2q8 0 13.5 -4.5t5.5 -12.5v-89v0z" />
    <glyph glyph-name="afii10084" unicode="&#x442;" horiz-adv-x="493" 
d="M328 445v-424q0 -11 -6.5 -16t-14.5 -5h-121q-8 0 -14 5t-6 16v424h-125q-11 0 -16 6t-5 14v87q0 8 5 14.5t16 6.5h411q11 0 16 -6.5t5 -14.5v-87q0 -8 -5 -14t-16 -6h-124z" />
    <glyph glyph-name="afii10085" unicode="&#x443;" horiz-adv-x="592" 
d="M551 573q25 0 18 -23l-168 -589q-12 -41 -27 -71.5t-39 -50.5t-61 -30.5t-92 -10.5q-14 0 -31 1.5t-34 3.5t-32 5t-24 6q-8 3 -14.5 6.5t-6.5 11.5v81q0 8 6 13.5t14 5.5h2q12 -1 28.5 -2t34 -2.5t34 -2.5t28.5 -1q27 0 42 11t24 41l9 31h-15q-14 0 -26.5 2.5t-24.5 11.5
t-22.5 27.5t-19.5 51.5l-132 450q-1 3 -1 7q0 16 20 16h133q8 0 12.5 -5.5t6.5 -13.5l90 -376q4 -19 12 -19h1h4h4l93 395q2 8 7.5 13.5t13.5 5.5h133z" />
    <glyph glyph-name="afii10086" unicode="&#x444;" horiz-adv-x="912" 
d="M375 732q0 8 6.5 14t14.5 6h121q8 0 14 -6t6 -14v-155q20 2 40.5 3t41.5 1q122 0 186.5 -67t64.5 -189v-78q0 -118 -62 -187t-189 -69q-15 0 -37.5 2t-44.5 5v-173q0 -8 -6 -14t-14 -6h-121q-8 0 -14.5 6t-6.5 14v173q-22 -3 -44.5 -5t-37.5 -2q-127 0 -189 69t-62 187
v78q0 122 64.5 189t186.5 67q20 0 41 -1t41 -3v155zM375 442q-14 2 -35.5 3.5t-46.5 1.5q-27 0 -44 -9t-27 -25.5t-14 -38.5t-4 -49v-78q0 -26 4 -48.5t14 -39t27 -26t44 -9.5q18 0 41 2t41 4v312zM708 325q0 27 -4 49t-14 38.5t-27 25.5t-44 9q-25 0 -46.5 -1.5t-35.5 -3.5
v-312q18 -2 41 -4t41 -2q27 0 44 9.5t27 26t14 39t4 48.5v78z" />
    <glyph glyph-name="afii10087" unicode="&#x445;" horiz-adv-x="617" 
d="M585 14q0 -5 -4 -9.5t-10 -4.5h-151q-8 0 -13.5 5t-12.5 16l-99 155l-93 -156q-7 -11 -12.5 -15.5t-13.5 -4.5h-134q-11 0 -11 12q0 5 2 8l175 278l-170 254q-2 4 -2 6q0 6 4.5 10.5t10.5 4.5h149q8 0 13.5 -5.5t12.5 -15.5l89 -138l82 138q7 11 12.5 16t13.5 5h134
q12 0 12 -13q0 -5 -2 -8l-165 -262l181 -269q2 -4 2 -7z" />
    <glyph glyph-name="afii10088" unicode="&#x446;" horiz-adv-x="633" 
d="M270 0q-65 0 -106 15.5t-64 42.5t-31.5 63.5t-8.5 78.5v353q0 8 6 14t14 6h122q8 0 14 -6t6 -14v-367q0 -11 0.5 -20.5t5 -16.5t13 -10.5t25.5 -3.5h80q16 0 25 3.5t13.5 10.5t5 16.5t0.5 20.5v367q0 8 6 14t14 6h122q8 0 14 -6t6 -14v-353q0 -17 -1 -33.5t-4 -31.5h46
q8 0 14 -6t6 -14v-216q0 -8 -6 -14t-14 -6h-121q-8 0 -14 6t-6 14v101h-182z" />
    <glyph glyph-name="afii10089" unicode="&#x447;" horiz-adv-x="607" 
d="M55 552q0 8 6.5 14.5t14.5 6.5h121q8 0 14 -6.5t6 -14.5v-139q0 -26 3 -44t11 -29t22.5 -15.5t37.5 -4.5q22 0 45 9t49 23v200q0 8 6 14.5t14 6.5h121q8 0 14.5 -6.5t6.5 -14.5v-532q0 -8 -6 -14t-14 -6h-122q-8 0 -14 6t-6 14v211q-38 -25 -73 -35t-80 -10
q-54 0 -88.5 17.5t-54 48.5t-27 72.5t-7.5 88.5v139v0z" />
    <glyph glyph-name="afii10090" unicode="&#x448;" horiz-adv-x="889" 
d="M270 0q-65 0 -106 15.5t-64 42.5t-31.5 63.5t-8.5 78.5v353q0 8 6 14t14 6h122q8 0 14 -6t6 -14v-367q0 -11 0.5 -20.5t5 -16.5t13 -10.5t25.5 -3.5h97v418q0 8 6 14t14 6h123q8 0 14 -6t6 -14v-418h97q16 0 25 3.5t13.5 10.5t5 16.5t0.5 20.5v367q0 8 6 14t14 6h122
q8 0 14 -6t6 -14v-353q0 -42 -8.5 -78.5t-31.5 -63.5t-64 -42.5t-106 -15.5h-349z" />
    <glyph glyph-name="afii10091" unicode="&#x449;" horiz-adv-x="909" 
d="M728 0h-458q-65 0 -106 15.5t-64 42.5t-31.5 63.5t-8.5 78.5v353q0 8 6 14t14 6h122q8 0 14 -6t6 -14v-367q0 -11 0.5 -20.5t5 -16.5t13 -10.5t25.5 -3.5h97v418q0 8 6 14t14 6h123q8 0 14 -6t6 -14v-418h97q16 0 25 3.5t13.5 10.5t5 16.5t0.5 20.5v367q0 8 6 14t14 6
h122q8 0 14 -6t6 -14v-368q0 -26 -3 -50h43q8 0 14 -6t6 -14v-216q0 -8 -6 -14t-14 -6h-121q-8 0 -14 6t-6 14v101z" />
    <glyph glyph-name="afii10092" unicode="&#x44a;" horiz-adv-x="604" 
d="M574 186q0 -60 -21 -98t-57 -59t-84 -28.5t-102 -7.5q-41 0 -86.5 3t-90.5 11q-17 3 -21.5 12t-4.5 29v397h-66q-11 0 -16 6t-5 14v87q0 8 5 14.5t16 6.5h207q8 0 14 -4.5t6 -16.5v-166q11 1 21 1h21q54 0 102 -7.5t84 -29t57 -59t21 -97.5v-8zM310 267q-8 0 -22.5 -0.5
t-19.5 -0.5v-148q5 0 12.5 -0.5t29.5 -0.5q62 0 84.5 16.5t22.5 52.5v8q0 36 -22 54.5t-85 18.5z" />
    </font>
</defs>
</svg>
