<?xml version="1.0" encoding="utf-8"?>
<!-- Generator: Adobe Illustrator 18.1.1, SVG Export Plug-In . SVG Version: 6.00 Build 0)  -->
<!DOCTYPE svg PUBLIC "-//W3C//DTD SVG 1.1//EN" "http://www.w3.org/Graphics/SVG/1.1/DTD/svg11.dtd">
<svg version="1.1" xmlns="http://www.w3.org/2000/svg" xmlns:xlink="http://www.w3.org/1999/xlink" x="0px" y="0px"
	 viewBox="0 0 3000 2000" enable-background="new 0 0 3000 2000" xml:space="preserve">
<g id="Layer_1">
	<rect fill="#323E65" width="3000" height="2000"/>
</g>
<g id="Layer_5">
	<polygon fill="#384A7A" points="262,1999.8 2777.5,0 3000,0 3000,2000 	"/>
</g>
<g id="Layer_2">
</g>
<g id="Layer_4">
</g>
<g id="Layer_3" display="none">
	<g display="inline">
		<path fill="#0F1E68" d="M720.1,1693.1h100.9c5.5,0,10-4.5,10-10v-304.3c0-5.5-4.5-10-10-10H720.1c-5.5,0-10,4.5-10,10v304.3
			C710.1,1688.6,714.5,1693.1,720.1,1693.1z"/>
		<path fill="#162A72" d="M601.9,1666.2h100.9c5.5,0,10-4.5,10-10v-294.5c0-5.5-4.5-10-10-10H601.9c-5.5,0-10,4.5-10,10v294.5
			C591.9,1661.8,596.4,1666.2,601.9,1666.2z"/>
		<path fill="#EFC0B4" d="M852.2,1108.1L852.2,1108.1c14.4-7.4,32.2-1.6,39.6,12.8l36.6,71.7l44.4-112.9
			c5.9-15.1,18.2-21.7,33.3-16.7h4.9c15.1,6,17.6,23.1,11.7,38.2l-63.6,174.2c-5.9,15.1-23.1,22.6-38.2,16.6l0,0
			c-8.5-3.3-14.6-10.3-17.2-18.4l-64.3-126C832.1,1133.2,837.8,1115.4,852.2,1108.1z"/>
		<path fill="#EFC0B4" d="M465.5,1244.3c0.5-1.7,1.1-3.3,2-4.8l0,0c0.3-0.5,0.6-1,0.9-1.5l60.8-120.8c8.3-16.5,27.5-20.8,42.6-9.5
			c8.4,6.3,11.5,19,6.9,28.2l-53.8,106.9l117.4,99.6c8.2,7,10.5,7.1,5.2,16.4c-9.7,16.7-29.8,20.1-44.6,7.5l-128-95.5
			c-0.5-0.3-0.9-0.6-1.4-0.9h0C465.8,1264.1,462.6,1253.1,465.5,1244.3z"/>
		<path fill="#F7F7F7" d="M597.9,1046.9h207.3c13.5,0,24.5,9.8,24.5,21.8l23.9,297.3c0,12-11,12-24.5,12l-231.2,1.2
			c-13.5,0-24.5,0-24.5-12v-298.5C573.4,1056.7,584.4,1046.9,597.9,1046.9z"/>
		<path fill="#EFC0B4" d="M625.9,732h157.2c43.7,0,78.9,35.4,78.9,79.1v138.7c0,43.7-35.2,80.2-78.9,80.2H737v45.8
			c0,7.9-6.2,15.2-14.1,15.2h-54.2c-7.9,0-14.7-7.3-14.7-15.2V1030h-28.1c-43.7,0-79.9-36.5-79.9-80.2V811.1
			C546,767.4,582.1,732,625.9,732z"/>
		<path fill="none" stroke="#F7F7F7" stroke-width="10" stroke-miterlimit="10" d="M763.1,1049c0,25.4-25.1,45.9-56,45.9
			s-56-20.6-56-45.9"/>
		<path fill="#42CEA6" d="M746,1055.8c-5.4-3.3-22.2,12-22.2,12l-22.2,12l21.6,13.2c0,0,16,16.2,21.6,13.2c5.5-3,3.3-18.9,3.4-25.2
			C748.4,1074.6,751.4,1059.1,746,1055.8z"/>
		<path fill="#42CEA6" d="M660.8,1055.8c5.4-3.3,22.2,12,22.2,12l22.2,12l-21.6,13.2c0,0-16,16.2-21.6,13.2
			c-5.5-3-3.3-18.9-3.4-25.2S655.4,1059.1,660.8,1055.8z"/>
		<circle fill="#26BC94" cx="702.8" cy="1079.1" r="21.5"/>
		<line fill="none" stroke="#B3B3B3" stroke-miterlimit="10" x1="702.8" y1="1100.6" x2="715.3" y2="1379.2"/>
		<path fill="#F7F7F7" d="M797.2,1143.8h89.6c11,0,20-9,20-20v-37.6c0-21.5-17.6-39.1-39.1-39.1h-70.5c-11,0-20,9-20,20v56.7
			C777.2,1134.8,786.2,1143.8,797.2,1143.8z"/>
		<path fill="#F7F7F7" d="M630.3,1144.3h-89.6c-11,0-20-9-20-20v-37.6c0-21.5,17.6-39.1,39.1-39.1h70.5c11,0,20,9,20,20v56.7
			C650.3,1135.3,641.3,1144.3,630.3,1144.3z"/>
		<path fill="#6D1B2E" d="M858.3,1730.8H715.1c-2.8,0-5-2.2-5-5v-44.2c0-2.8,2.2-5,5-5h143.2c2.8,0,5,2.2,5,5v44.2
			C863.3,1728.5,861,1730.8,858.3,1730.8z"/>
		<path fill="#6D1B2E" d="M705.1,1710.9H596.9c-2.8,0-5-2.2-5-5v-44.2c0-2.8,2.2-5,5-5h108.2c2.8,0,5,2.2,5,5v44.2
			C710.1,1708.7,707.8,1710.9,705.1,1710.9z"/>
		<path fill="#E2E2E2" d="M708.1,1710.9H593.9c-1.1,0-2-0.9-2-2v-13.8c0-1.1,0.9-2,2-2h114.2c1.1,0,2,0.9,2,2v13.8
			C710.1,1710,709.2,1710.9,708.1,1710.9z"/>
		<path fill="#E2E2E2" d="M861.3,1730.7H712.1c-1.1,0-2-0.9-2-2v-15.8c0-1.1,0.9-2,2-2h149.2c1.1,0,2,0.9,2,2v15.8
			C863.3,1729.8,862.4,1730.7,861.3,1730.7z"/>
		<path fill="#5E3C26" d="M546,811.1c0-43.7,36.1-79.1,79.9-79.1h0.4h156.9h124.4c0,0-2.4,72-45.8,72c-0.1,0-0.2,0-0.3,0l0,0
			c0,0,0,0,0,0c-43.2,0-78.2-25.8-78.2-25.8s-8.3,26.1-39.4,26.1c-7.8,0-19.1-0.3-31.9-0.8c-1.6-0.1-3.2-0.1-4.9-0.1
			c-1.6-0.1-3.3-0.1-5-0.2c-1.7-0.1-3.4-0.1-5-0.2c-0.8,0-1.7-0.1-2.5-0.1c-1.7-0.1-3.4-0.1-5.1-0.2c-0.9,0-1.7-0.1-2.6-0.1
			c-8.6-0.3-17.1-0.6-25.2-0.7c-1.6,0-3.2-0.1-4.8-0.1c-7-0.1-13.6-0.1-19.2,0c-0.6,0-1.2,0-1.8,0c-3,0.1-5.7,0.2-8.1,0.4
			c-0.5,0-1,0.1-1.5,0.1c-1.3,0.1-2.4,0.3-3.5,0.4c-2.5,0.4-4.1,0.9-4.8,1.6c-0.6,0.6-1,1.3-1.3,2.1c-0.7,1.9-0.7,4.5-0.3,7.2
			c0.1,0.8,0.3,1.6,0.4,2.4c0.2,0.8,0.4,1.6,0.6,2.4c0.2,0.7,0.4,1.4,0.6,2.1c2,6.5,4.5,12.3,4.5,12.3H622v79.4
			c0,0,3.2,10.3-9.6,10.3S602,911.6,602,911.6v-76l-55.6,1.3l-0.1,0l-0.3,0V811.1z"/>
		<path fill="#5E3C26" d="M801.4,878.4H874c1.1,0,2-0.9,2-2v-9.6c0-1.1-0.9-2-2-2h-72.6c-1.1,0-2,0.9-2,2v9.6
			C799.4,877.5,800.3,878.4,801.4,878.4z"/>
		<path fill="#5E3C26" d="M686.5,860.4h72.6c1.1,0,2-0.9,2-2v-9.6c0-1.1-0.9-2-2-2h-72.6c-1.1,0-2,0.9-2,2v9.6
			C684.5,859.5,685.4,860.4,686.5,860.4z"/>
		<circle fill="#2D2D2D" cx="836.2" cy="897" r="11.7"/>
		<circle fill="#2D2D2D" cx="723.4" cy="897" r="11.7"/>
		<path fill="#D3A49B" d="M782.2,947.1h6.3c2.7,0,5-2.2,5-5v-38.9c0-2.7-2.2-5-5-5h-6.3c-2.7,0-5,2.2-5,5v38.9
			C777.2,944.9,779.4,947.1,782.2,947.1z"/>
		<path fill="#D3A49B" d="M777.2,929.8v12.4c0,2.7,2.2,5,5,5h22.6c2.7,0,5-2.2,5-5v-12.4c0-2.7-2.2-5-5-5h-22.6
			C779.4,924.8,777.2,927,777.2,929.8z"/>
		<path fill="#FFFFFF" d="M827.2,963c0.2,0,0.3,2.9,0.3,4.7c0,23.4-19,42.1-42.5,42.1s-42.5-18.5-42.5-42c0-1.8,0.1-4.8,0.3-4.8
			H827.2z"/>
		<rect x="530.5" y="833.1" fill="#FFD400" width="110" height="13.6"/>
		<rect x="526.7" y="833.1" fill="#FFFFFF" width="7.5" height="13.6"/>
		<rect x="532.2" y="833.1" fill="#3A3A3A" width="3.7" height="13.6"/>
		<polygon fill="#FFFFFF" points="656.6,839.9 647.8,836.5 639,833.1 639,839.9 639,846.8 647.8,843.4 		"/>
		<polygon fill="#232323" points="652.4,838.3 657.5,839.9 652.4,841.7 		"/>
	</g>
</g>
<g id="Layer_6">
	<g>
		<circle fill="#FFFFFF" cx="1123.5" cy="366.4" r="5.3"/>
		<circle fill="#FFFFFF" cx="994.4" cy="829.9" r="5.3"/>
		<circle fill="#FFFFFF" cx="2085.5" cy="758.2" r="5.3"/>
		<circle fill="#FFFFFF" cx="1569.5" cy="923.9" r="5.3"/>
		<circle fill="#FFFFFF" cx="1802.8" cy="1324.5" r="5.3"/>
		<circle fill="#FFFFFF" cx="1274" cy="1652.6" r="5.3"/>
		<circle fill="#FFFFFF" cx="2404.1" cy="1647" r="5.3"/>
		<circle fill="#FFFFFF" cx="2518.8" cy="1161.2" r="5.3"/>
		<circle fill="#FFFFFF" cx="1843.4" cy="515.3" r="5.3"/>
		<circle fill="#FFFFFF" cx="2233.7" cy="329.8" r="5.3"/>
		<circle fill="#FFFFFF" cx="511" cy="560.7" r="5.3"/>
		<circle fill="#FFFFFF" cx="516.6" cy="1437.6" r="5.3"/>
		<line fill="none" stroke="#FFFFFF" stroke-miterlimit="10" x1="511" y1="566" x2="994.4" y2="824.6"/>
		<line fill="none" stroke="#FFFFFF" stroke-miterlimit="10" x1="1123.5" y1="371.7" x2="994.4" y2="824.6"/>
		<line fill="none" stroke="#FFFFFF" stroke-miterlimit="10" x1="505.7" y1="560.7" x2="1123.5" y2="366.4"/>
		<line fill="none" stroke="#FFFFFF" stroke-miterlimit="10" x1="1123.5" y1="366.4" x2="1848.7" y2="515.3"/>
		<line fill="none" stroke="#FFFFFF" stroke-miterlimit="10" x1="1848.7" y1="515.3" x2="2090.8" y2="758.2"/>
		<line fill="none" stroke="#FFFFFF" stroke-miterlimit="10" x1="2090.8" y1="758.2" x2="1569.5" y2="923.9"/>
		<line fill="none" stroke="#FFFFFF" stroke-miterlimit="10" x1="1569.5" y1="923.9" x2="2233.7" y2="329.8"/>
		<line fill="none" stroke="#FFFFFF" stroke-miterlimit="10" x1="2085.5" y1="752.9" x2="2524.1" y2="1161.2"/>
		<line fill="none" stroke="#FFFFFF" stroke-miterlimit="10" x1="2524.1" y1="1161.2" x2="2233.7" y2="324.5"/>
		<line fill="none" stroke="#FFFFFF" stroke-miterlimit="10" x1="1123.5" y1="366.4" x2="1802.8" y2="1319.2"/>
		<line fill="none" stroke="#FFFFFF" stroke-miterlimit="10" x1="1564.2" y1="923.9" x2="1274" y2="1647.3"/>
		<line fill="none" stroke="#FFFFFF" stroke-miterlimit="10" x1="1274" y1="1647.3" x2="1808.1" y2="1324.5"/>
		<line fill="none" stroke="#FFFFFF" stroke-miterlimit="10" x1="1808.1" y1="1324.5" x2="2404.1" y2="1652.3"/>
		<line fill="none" stroke="#FFFFFF" stroke-miterlimit="10" x1="2404.1" y1="1652.3" x2="2524.1" y2="1161.2"/>
		<line fill="none" stroke="#FFFFFF" stroke-miterlimit="10" x1="2404.1" y1="1652.3" x2="2085.5" y2="752.9"/>
		<line fill="none" stroke="#FFFFFF" stroke-miterlimit="10" x1="1274" y1="1657.9" x2="511.3" y2="1437.6"/>
		<line fill="none" stroke="#FFFFFF" stroke-miterlimit="10" x1="511.3" y1="1437.6" x2="511" y2="566"/>
		<line fill="none" stroke="#FFFFFF" stroke-miterlimit="10" x1="999.7" y1="829.9" x2="1274" y2="1652.3"/>
		<line fill="none" stroke="#FFFFFF" stroke-miterlimit="10" x1="1274" y1="1652.5" x2="2404" y2="1652.5"/>
		<line fill="none" stroke="#FFFFFF" stroke-miterlimit="10" x1="2085.5" y1="752.9" x2="1802.8" y2="1319.2"/>
		<line fill="none" stroke="#FFFFFF" stroke-miterlimit="10" x1="994.4" y1="835.2" x2="1564.2" y2="923.9"/>
		<line fill="none" stroke="#FFFFFF" stroke-miterlimit="10" x1="2233.7" y1="329.8" x2="1123.5" y2="366.4"/>
	</g>
</g>
</svg>
