<?xml version="1.0" encoding="utf-8"?>
<!-- Generator: Adobe Illustrator 16.0.0, SVG Export Plug-In . SVG Version: 6.00 Build 0)  -->
<!DOCTYPE svg PUBLIC "-//W3C//DTD SVG 1.1//EN" "http://www.w3.org/Graphics/SVG/1.1/DTD/svg11.dtd">
<svg version="1.1" xmlns="http://www.w3.org/2000/svg" xmlns:xlink="http://www.w3.org/1999/xlink" x="0px" y="0px"
	 width="85.107px" height="37.233px" viewBox="0 0 85.107 37.233" enable-background="new 0 0 85.107 37.233" xml:space="preserve">
<g id="_x3C_Guides_x3E_" display="none">
</g>
<g id="BG">
</g>
<g id="Laag_1">
	<path fill="#FF3333" d="M17.447,3.714c0.052-0.082,0.105-0.163,0.165-0.236C17.551,3.552,17.498,3.632,17.447,3.714z"/>
	<path fill="#FF3333" d="M19.03,2.62c0.085-0.018,0.17-0.037,0.257-0.047C19.201,2.582,19.115,2.603,19.03,2.62z"/>
	<path fill="#FF3333" d="M21.271,3.278c0.059,0.058,0.117,0.116,0.17,0.18C21.389,3.394,21.33,3.336,21.271,3.278z"/>
	<path fill="#FF3333" d="M20.43,2.735c0.09,0.034,0.178,0.069,0.264,0.115C20.608,2.806,20.52,2.771,20.43,2.735z"/>
	<path fill="#FF3333" d="M18.592,2.755c0.074-0.03,0.146-0.063,0.222-0.086C18.738,2.692,18.666,2.724,18.592,2.755z"/>
	<path fill="#FF3333" d="M19.501,2.567c0.087-0.001,0.175-0.004,0.262,0.004C19.676,2.563,19.588,2.567,19.501,2.567z"/>
	<path fill="#FF3333" d="M19.979,2.608c0.086,0.016,0.172,0.029,0.258,0.055C20.151,2.638,20.065,2.624,19.979,2.608z"/>
	<path fill="#FF3333" d="M17.767,3.31c0.06-0.061,0.119-0.12,0.184-0.174C17.885,3.19,17.826,3.249,17.767,3.31z"/>
	<path fill="#FF3333" d="M20.867,2.956c0.081,0.053,0.161,0.105,0.234,0.165C21.027,3.06,20.947,3.008,20.867,2.956z"/>
	<path fill="#FF3333" d="M21.688,3.801C21.662,3.756,21.628,3.72,21.6,3.678c0.496,0.752,0.575,1.743,0.104,2.582l-2.137,3.812
		L32.762,32.93c0.461,0.798,1.297,1.244,2.156,1.244c0.422,0,0.85-0.106,1.241-0.334c1.189-0.687,1.597-2.207,0.911-3.396
		L21.688,3.801z"/>
	<path fill="#FF3333" d="M18.291,2.891c-0.047,0.026-0.083,0.063-0.127,0.091c0.063-0.041,0.125-0.084,0.19-0.119
		C18.334,2.873,18.312,2.879,18.291,2.891z"/>
	<path fill="#FF3333" d="M21.102,3.121c0.06,0.048,0.115,0.103,0.17,0.157C21.217,3.224,21.162,3.17,21.102,3.121z"/>
	<path fill="#FF3333" d="M20.751,2.875c-0.019-0.011-0.038-0.015-0.058-0.024c0.061,0.031,0.116,0.069,0.174,0.105
		C20.826,2.931,20.793,2.898,20.751,2.875z"/>
	<path fill="#FF3333" d="M19.287,2.573c0.071-0.007,0.143-0.004,0.214-0.006C19.43,2.569,19.357,2.566,19.287,2.573z"/>
	<path fill="#FF3333" d="M17.612,3.478c0.048-0.059,0.101-0.113,0.154-0.168C17.714,3.364,17.66,3.417,17.612,3.478z"/>
	<path fill="#FF3333" d="M17.95,3.136c0.067-0.055,0.14-0.104,0.214-0.154C18.091,3.03,18.018,3.079,17.95,3.136z"/>
	<path fill="#FF3333" d="M20.236,2.663c0.065,0.02,0.129,0.047,0.193,0.072C20.365,2.71,20.301,2.683,20.236,2.663z"/>
	<path fill="#FF3333" d="M18.354,2.862c0.077-0.043,0.157-0.074,0.237-0.107C18.512,2.788,18.432,2.82,18.354,2.862z"/>
	<path fill="#FF3333" d="M19.763,2.571c0.073,0.007,0.144,0.023,0.216,0.037C19.906,2.595,19.836,2.578,19.763,2.571z"/>
	<path fill="#FF3333" d="M18.813,2.669c0.071-0.021,0.144-0.034,0.217-0.049C18.957,2.636,18.885,2.647,18.813,2.669z"/>
	<path fill="#FF3333" d="M21.441,3.458c0.057,0.068,0.108,0.144,0.158,0.22C21.551,3.603,21.5,3.528,21.441,3.458z"/>
	<path fill="#FF3333" d="M17.447,3.714c-0.025,0.039-0.058,0.072-0.081,0.114L2.428,30.471c-0.672,1.197-0.246,2.713,0.953,3.385
		c0.385,0.216,0.801,0.318,1.213,0.318c0.871,0,1.716-0.458,2.172-1.271l12.801-22.831l-2.186-3.784
		C16.902,5.456,16.966,4.47,17.447,3.714z"/>
	<path fill="#FF0A0A" d="M21.6,3.678c-0.05-0.076-0.102-0.151-0.158-0.22c-0.053-0.063-0.111-0.122-0.17-0.18
		c-0.055-0.055-0.11-0.109-0.17-0.157c-0.073-0.06-0.153-0.112-0.234-0.165c-0.058-0.036-0.113-0.074-0.174-0.105
		C20.607,2.805,20.52,2.77,20.43,2.735c-0.064-0.025-0.128-0.053-0.193-0.072c-0.086-0.025-0.172-0.039-0.258-0.055
		c-0.072-0.014-0.143-0.03-0.216-0.037c-0.087-0.008-0.175-0.005-0.262-0.004c-0.071,0.002-0.143-0.001-0.214,0.006
		C19.2,2.583,19.115,2.603,19.03,2.62c-0.073,0.015-0.146,0.027-0.217,0.049c-0.075,0.023-0.147,0.056-0.222,0.086
		c-0.08,0.033-0.16,0.064-0.237,0.107c-0.065,0.035-0.128,0.078-0.19,0.119c-0.074,0.05-0.146,0.1-0.214,0.154
		c-0.064,0.054-0.124,0.113-0.184,0.174c-0.054,0.055-0.106,0.109-0.154,0.168c-0.06,0.073-0.113,0.154-0.165,0.236
		c-0.481,0.756-0.545,1.742-0.066,2.573l2.186,3.784l2.137-3.812C22.175,5.421,22.096,4.43,21.6,3.678z"/>
	<path fill="#FF3333" d="M26.623,29.172H12.889c-1.372,0-2.486,1.114-2.486,2.487s1.114,2.487,2.486,2.487h13.734
		c1.375,0,2.488-1.114,2.488-2.487S27.998,29.172,26.623,29.172z"/>
	<path fill="#00DBC0" d="M80.748,22.068h-2.787c-1.129,4.768-5.41,8.33-10.518,8.33c-5.965,0-10.817-4.853-10.817-10.817
		c0-5.964,4.853-10.815,10.817-10.815c1.373,0,2.486-1.114,2.486-2.487s-1.113-2.487-2.486-2.487
		c-8.707,0-15.793,7.084-15.793,15.79c0,8.707,7.086,15.792,15.793,15.792s15.793-7.085,15.793-15.792
		C83.236,20.954,82.121,22.068,80.748,22.068z"/>
	<path fill="#00DBC0" d="M80.748,17.094H67.443c-1.373,0-2.488,1.114-2.488,2.487s1.115,2.487,2.488,2.487h10.518
		c0.189-0.8,0.3-1.63,0.3-2.487C78.261,18.208,79.375,17.094,80.748,17.094z"/>
	<path fill="#00BC91" d="M83.236,19.581c0-1.373-1.115-2.487-2.488-2.487s-2.487,1.114-2.487,2.487c0,0.857-0.11,1.688-0.3,2.487
		h2.787C82.121,22.068,83.236,20.954,83.236,19.581z"/>
	<path fill="#414042" d="M37.262,17.632c0.022-0.076,0.057-0.148,0.086-0.223C37.318,17.483,37.284,17.556,37.262,17.632z"/>
	<path fill="#414042" d="M37.17,18.103c0.008-0.085,0.027-0.166,0.045-0.249C37.197,17.937,37.178,18.019,37.17,18.103z"/>
	<path fill="#414042" d="M37.449,19.503c-0.04-0.076-0.07-0.156-0.102-0.234C37.38,19.348,37.41,19.427,37.449,19.503z"/>
	<path fill="#414042" d="M37.262,19.046c-0.021-0.072-0.033-0.147-0.047-0.222C37.229,18.899,37.24,18.974,37.262,19.046z"/>
	<path fill="#6D6E71" d="M48.502,2.543c-1.197-0.672-2.715-0.245-3.387,0.952l-7.643,13.627c-0.01,0.018-0.014,0.035-0.023,0.053
		c0.217-0.408,0.545-0.762,0.977-1.005c1.196-0.672,2.714-0.245,3.386,0.952l0.683,1.217l6.96-12.41
		C50.126,4.73,49.699,3.215,48.502,2.543z"/>
	<path fill="#414042" d="M37.17,18.575c-0.008-0.078-0.004-0.157-0.004-0.236C37.166,18.418,37.162,18.497,37.17,18.575z"/>
	<path fill="#414042" d="M37.166,18.339c0-0.079-0.004-0.158,0.004-0.236C37.162,18.181,37.166,18.26,37.166,18.339z"/>
	<path fill="#414042" d="M37.215,17.854c0.014-0.074,0.025-0.149,0.047-0.222C37.24,17.704,37.229,17.778,37.215,17.854z"/>
	<path fill="#414042" d="M37.215,18.824c-0.018-0.083-0.037-0.164-0.045-0.249C37.178,18.659,37.197,18.741,37.215,18.824z"/>
	<path fill="#414042" d="M37.348,19.269c-0.029-0.074-0.063-0.146-0.086-0.223C37.284,19.122,37.318,19.194,37.348,19.269z"/>
	<path fill="#6D6E71" d="M39.641,20.826c-0.412,0-0.83-0.103-1.215-0.318c-0.432-0.243-0.76-0.597-0.977-1.005
		c0.01,0.018,0.014,0.035,0.023,0.053l7.643,13.627c0.457,0.813,1.301,1.271,2.172,1.271c0.412,0,0.83-0.103,1.215-0.318
		c1.197-0.672,1.624-2.188,0.952-3.386l-6.96-12.41l-0.683,1.217C41.355,20.368,40.511,20.826,39.641,20.826z"/>
	<path fill="#414042" d="M37.348,17.409c0.031-0.078,0.062-0.158,0.102-0.234C37.41,17.251,37.38,17.33,37.348,17.409z"/>
	<path fill="#2F2F32" d="M38.426,16.17c-0.432,0.243-0.76,0.597-0.977,1.005c-0.04,0.076-0.07,0.156-0.102,0.234
		c-0.029,0.074-0.063,0.146-0.086,0.223c-0.021,0.072-0.033,0.147-0.047,0.222c-0.018,0.083-0.037,0.164-0.045,0.249
		c-0.008,0.078-0.004,0.157-0.004,0.236s-0.004,0.158,0.004,0.236c0.008,0.085,0.027,0.166,0.045,0.249
		c0.014,0.074,0.025,0.149,0.047,0.222c0.022,0.076,0.057,0.148,0.086,0.223c0.031,0.078,0.062,0.158,0.102,0.234
		c0.217,0.408,0.545,0.762,0.977,1.005c0.385,0.216,0.803,0.318,1.215,0.318c0.87,0,1.715-0.458,2.171-1.271l0.683-1.217
		l-0.683-1.217C41.14,15.925,39.622,15.498,38.426,16.17z"/>
</g>
<g id="Capa_1">
</g>
<g id="CSS">
</g>
</svg>
