<?xml version="1.0" encoding="utf-8"?>
<!-- Generator: Adobe Illustrator 16.0.0, SVG Export Plug-In . SVG Version: 6.00 Build 0)  -->
<!DOCTYPE svg PUBLIC "-//W3C//DTD SVG 1.1//EN" "http://www.w3.org/Graphics/SVG/1.1/DTD/svg11.dtd">
<svg version="1.1" xmlns="http://www.w3.org/2000/svg" xmlns:xlink="http://www.w3.org/1999/xlink" x="0px" y="0px" width="46px"
	 height="46px" viewBox="0 0 46 46" enable-background="new 0 0 46 46" xml:space="preserve">
<g id="_x3C_Guides_x3E_" display="none">
</g>
<g id="BG">
</g>
<g id="Laag_1">
</g>
<g id="CSS">
</g>
<g id="Capa_1">
	<g>
		<path fill="#646464" d="M39.051,16.399C35.532,8.213,29.869,1.975,27.003,3.141c-4.865,1.977,2.898,11.475-20.994,21.188
			c-2.063,0.84-2.586,4.195-1.722,6.199c0.861,2.009,3.685,4.008,5.749,3.168c0.358-0.145,1.669-0.564,1.669-0.564
			c1.473,1.977,3.016,0.805,3.563,2.061c0.658,1.51,2.087,4.793,2.573,5.91c0.487,1.116,1.588,2.148,2.389,1.846
			c0.798-0.305,3.516-1.34,4.556-1.734c1.04-0.396,1.287-1.322,0.97-2.051c-0.341-0.787-1.747-1.02-2.147-1.939
			c-0.4-0.922-1.709-3.865-2.087-4.793c-0.511-1.264,0.577-2.293,2.157-2.457c10.874-1.129,12.908,5.588,16.609,4.08
			C43.153,32.887,42.569,24.584,39.051,16.399z M37.826,29.682c-0.637,0.26-4.917-3.119-7.652-9.483
			c-2.735-6.362-2.39-12.183-1.755-12.438c0.636-0.261,4.81,3.813,7.545,10.176C38.698,24.299,38.463,29.422,37.826,29.682z"/>
	</g>
</g>
</svg>
