<?xml version="1.0" encoding="utf-8"?>
<!-- Generator: Adobe Illustrator 16.0.0, SVG Export Plug-In . SVG Version: 6.00 Build 0)  -->
<!DOCTYPE svg PUBLIC "-//W3C//DTD SVG 1.1//EN" "http://www.w3.org/Graphics/SVG/1.1/DTD/svg11.dtd">
<svg version="1.1" xmlns="http://www.w3.org/2000/svg" xmlns:xlink="http://www.w3.org/1999/xlink" x="0px" y="0px"
	 width="35.835px" height="29.675px" viewBox="0 0 35.835 29.675" enable-background="new 0 0 35.835 29.675" xml:space="preserve">
<g id="_x3C_Guides_x3E_" display="none">
</g>
<g id="BG">
</g>
<g id="Laag_1">
</g>
<g id="Capa_1">
	<g>
		<g>
			<path fill="#F7F9FA" d="M31.122,28.082c0.712,0,1.327-0.234,1.851-0.698l-8.964-8.964c-0.214,0.154-0.422,0.303-0.618,0.447
				c-0.671,0.492-1.216,0.879-1.636,1.154c-0.416,0.277-0.972,0.561-1.668,0.848c-0.693,0.289-1.341,0.434-1.94,0.434h-0.018H18.11
				c-0.602,0-1.248-0.145-1.942-0.434c-0.693-0.287-1.25-0.57-1.666-0.848c-0.42-0.275-0.964-0.662-1.635-1.154
				c-0.188-0.139-0.396-0.289-0.619-0.449l-8.965,8.966c0.523,0.464,1.14,0.698,1.852,0.698H31.122z"/>
			<path fill="#F7F9FA" d="M4.094,12.775c-0.671-0.447-1.266-0.959-1.783-1.535v13.637l7.9-7.9
				C8.629,15.873,6.594,14.475,4.094,12.775z"/>
			<path fill="#F7F9FA" d="M32.182,12.775c-2.404,1.629-4.449,3.029-6.131,4.203l7.896,7.898V11.24
				C33.44,11.805,32.853,12.316,32.182,12.775z"/>
			<path fill="#F7F9FA" d="M31.122,3.225H5.135c-0.906,0-1.604,0.307-2.093,0.918C2.555,4.754,2.311,5.52,2.311,6.438
				c0,0.742,0.324,1.545,0.972,2.41s1.335,1.545,2.065,2.039c0.399,0.283,1.605,1.122,3.617,2.516
				c1.088,0.752,2.033,1.408,2.845,1.975c0.692,0.484,1.288,0.9,1.781,1.248c0.058,0.039,0.147,0.104,0.265,0.188
				c0.127,0.09,0.286,0.207,0.484,0.35c0.384,0.277,0.702,0.502,0.956,0.672c0.253,0.17,0.558,0.361,0.917,0.574
				c0.36,0.211,0.699,0.371,1.016,0.477c0.318,0.105,0.611,0.158,0.885,0.158h0.016h0.018c0.271,0,0.565-0.053,0.883-0.158
				c0.318-0.105,0.656-0.266,1.016-0.477c0.357-0.213,0.664-0.404,0.918-0.574c0.252-0.17,0.57-0.395,0.953-0.672
				c0.198-0.143,0.357-0.26,0.486-0.35c0.118-0.084,0.206-0.148,0.264-0.188c0.385-0.268,0.983-0.684,1.787-1.241
				c1.463-1.019,3.617-2.515,6.477-4.497c0.857-0.602,1.574-1.324,2.152-2.172c0.575-0.846,0.865-1.736,0.865-2.666
				c0-0.777-0.28-1.441-0.839-1.996C32.549,3.502,31.887,3.225,31.122,3.225z"/>
		</g>
	</g>
</g>
<g id="CSS">
</g>
</svg>
