<?xml version="1.0" encoding="utf-8"?>
<!-- Generator: Adobe Illustrator 16.0.0, SVG Export Plug-In . SVG Version: 6.00 Build 0)  -->
<!DOCTYPE svg PUBLIC "-//W3C//DTD SVG 1.1//EN" "http://www.w3.org/Graphics/SVG/1.1/DTD/svg11.dtd">
<svg version="1.1" xmlns="http://www.w3.org/2000/svg" xmlns:xlink="http://www.w3.org/1999/xlink" x="0px" y="0px" width="50px"
	 height="50px" viewBox="0 0 50 50" enable-background="new 0 0 50 50" xml:space="preserve">
<g id="_x3C_Guides_x3E_" display="none">
</g>
<g id="BG">
</g>
<g id="Laag_1">
</g>
<g id="Capa_1">
	<g>
		<path id="Facebook__x28_alt_x29__1_" fill="#646464" d="M43.829,12.447c0-3.299-2.977-6.277-6.273-6.277H12.444
			c-3.297,0-6.273,2.979-6.273,6.277v25.107c0,3.295,2.977,6.275,6.273,6.275h12.555V29.605h-4.604v-6.277h4.604v-2.449
			c0-4.215,3.168-8.016,7.062-8.016h5.074v6.277h-5.074c-0.561,0-1.2,0.676-1.2,1.688v2.5h6.274v6.277H30.86V43.83h6.695
			c3.297,0,6.273-2.98,6.273-6.275V12.447z"/>
	</g>
</g>
</svg>
