<?xml version="1.0" encoding="utf-8"?>
<!-- Generator: Adobe Illustrator 16.0.0, SVG Export Plug-In . SVG Version: 6.00 Build 0)  -->
<!DOCTYPE svg PUBLIC "-//W3C//DTD SVG 1.1//EN" "http://www.w3.org/Graphics/SVG/1.1/DTD/svg11.dtd">
<svg version="1.1" xmlns="http://www.w3.org/2000/svg" xmlns:xlink="http://www.w3.org/1999/xlink" x="0px" y="0px" width="64px"
	 height="64px" viewBox="0 0 64 64" enable-background="new 0 0 64 64" xml:space="preserve">
<g id="_x3C_Guides_x3E_" display="none">
</g>
<g id="BG">
</g>
<g id="Laag_1">
	<g>
		<path fill="#FE606E" d="M53.655,56.581c-1.228,0-2.422-0.638-3.08-1.777L28.606,16.749c-0.979-1.699-0.399-3.871,1.3-4.852
			c1.7-0.982,3.873-0.398,4.853,1.301l21.971,38.055c0.979,1.698,0.397,3.87-1.302,4.851C54.868,56.429,54.258,56.581,53.655,56.581
			z"/>
	</g>
	<g>
		<path fill="#FE606E" d="M10.342,56.581c-0.588,0-1.183-0.146-1.732-0.455c-1.713-0.959-2.32-3.125-1.361-4.834l21.337-38.055
			c0.96-1.713,3.126-2.32,4.835-1.361c1.712,0.959,2.321,3.124,1.36,4.834L13.444,54.765C12.793,55.927,11.586,56.581,10.342,56.581
			z"/>
	</g>
	<g>
		<path fill="#FE606E" d="M41.808,56.542H22.19c-1.96,0-3.552-1.592-3.552-3.553s1.592-3.553,3.552-3.553h19.617
			c1.964,0,3.554,1.592,3.554,3.553S43.771,56.542,41.808,56.542z"/>
	</g>
</g>
<g id="Capa_1">
</g>
</svg>
