<?xml version="1.0" encoding="utf-8"?>
<!-- Generator: Adobe Illustrator 16.0.0, SVG Export Plug-In . SVG Version: 6.00 Build 0)  -->
<!DOCTYPE svg PUBLIC "-//W3C//DTD SVG 1.1//EN" "http://www.w3.org/Graphics/SVG/1.1/DTD/svg11.dtd">
<svg version="1.1" id="Laag_1" xmlns="http://www.w3.org/2000/svg" xmlns:xlink="http://www.w3.org/1999/xlink" x="0px" y="0px"
	 width="80px" height="80px" viewBox="0 0 80 80" enable-background="new 0 0 80 80" xml:space="preserve">
<g id="_x3C_Guides_x3E_" display="none">
</g>
<g id="BG">
</g>
<g id="Laag_1_1_">
</g>
<path fill="#CBCDCE" d="M33.552,70.957c-0.055-0.052-0.104-0.105-0.155-0.159C33.448,70.852,33.498,70.906,33.552,70.957z"/>
<path fill="#CBCDCE" d="M41.038,72.631c-0.144,0.047-0.283,0.102-0.429,0.141C40.754,72.732,40.896,72.678,41.038,72.631z"/>
<path fill="#CBCDCE" d="M32.925,70.277c-0.051-0.063-0.101-0.123-0.148-0.187C32.825,70.154,32.874,70.216,32.925,70.277z"/>
<path fill="#CBCDCE" d="M34.438,71.669c-0.076-0.053-0.156-0.103-0.23-0.155C34.282,71.568,34.362,71.616,34.438,71.669z"/>
<path fill="#CBCDCE" d="M42.544,71.964c0.146-0.086,0.278-0.183,0.416-0.276c-0.166,0.113-0.334,0.224-0.507,0.322
	C42.482,71.992,42.516,71.98,42.544,71.964z"/>
<path fill="#CBCDCE" d="M36.361,72.623c-0.175-0.059-0.352-0.113-0.524-0.186C36.009,72.51,36.185,72.564,36.361,72.623z"/>
<path fill="#CBCDCE" d="M37.265,72.859c-0.158-0.03-0.318-0.055-0.477-0.098C36.945,72.805,37.106,72.829,37.265,72.859z"/>
<path fill="#CBCDCE" d="M35.488,72.271c-0.191-0.092-0.382-0.185-0.569-0.293C35.104,72.087,35.296,72.182,35.488,72.271z"/>
<path fill="#CBCDCE" d="M40.162,72.859c-0.167,0.033-0.331,0.074-0.5,0.096C39.829,72.936,39.995,72.893,40.162,72.859z"/>
<path fill="#CBCDCE" d="M41.893,72.293c-0.115,0.055-0.228,0.115-0.347,0.163C41.663,72.408,41.775,72.348,41.893,72.293z"/>
<path fill="#6D6E71" d="M32.304,61.62l1.366-2.246c1.69-2.776,3.406-5.617,5.108-8.466c-0.181-0.305-0.357-0.613-0.54-0.914
	c-0.212-0.35-0.421-0.692-0.625-1.044c-0.497-0.853-1.044-1.505-1.406-1.937l-0.039-0.047c-0.931-1.642-1.947-3.212-2.932-4.732
	c-1.835-2.836-4.119-6.365-4.134-8.259L29.09,32.42c0.068-0.236,0.18-0.597,0.354-1.115c0.009-0.027,0.042-0.126,0.051-0.153
	c0.032-0.098,0.062-0.196,0.089-0.296c0.063-0.164,0.141-0.327,0.21-0.485c0.088-0.197,0.173-0.391,0.287-0.664
	c2.07-5.084,6.666-5.667,8.546-5.682c-0.02,0-0.039,0-0.06,0c-4.115,0-7.467-3.319-7.499-7.441c-0.032-4.143,3.3-7.526,7.441-7.559
	c-7.858,0.062-17.85,4.041-22.285,14.939l-0.15,0.344c-0.264,0.597-0.616,1.394-0.889,2.34c-0.825,2.468-1.114,3.825-1.102,5.136
	l0.018,2.307c0.048,6.261,3.498,11.591,6.541,16.294c0.961,1.484,1.868,2.887,2.579,4.165c0.515,0.94,1.105,1.646,1.497,2.11
	l0.089,0.107c0.197,0.334,0.402,0.674,0.61,1.016c0.283,0.466,0.572,0.938,0.836,1.41c0.036,0.065,0.073,0.131,0.112,0.195
	c1.068,1.791,2.15,3.623,3.238,5.465c0.869,1.473,1.741,2.949,2.615,4.42C30.894,66.979,30.828,64.047,32.304,61.62z"/>
<path fill="#CBCDCE" d="M38.719,73.018c0.112,0,0.226-0.018,0.339-0.021c-0.115,0.006-0.23,0.021-0.346,0.021
	C38.714,73.018,38.716,73.018,38.719,73.018z"/>
<path fill="#CBCDCE" d="M45.096,69.448c-0.15,0.245-0.316,0.476-0.488,0.696C44.782,69.92,44.947,69.689,45.096,69.448z"/>
<path fill="#CBCDCE" d="M43.825,71.001c-0.21,0.194-0.429,0.38-0.657,0.548C43.4,71.378,43.618,71.193,43.825,71.001z"/>
<path fill="#CBCDCE" d="M45.165,69.339l-0.028,0.05C45.146,69.371,45.154,69.355,45.165,69.339z"/>
<path fill="#CBCDCE" d="M32.265,69.35c0.009,0.015,0.02,0.025,0.028,0.041c-0.015-0.023-0.031-0.047-0.045-0.07
	C32.253,69.33,32.259,69.339,32.265,69.35z"/>
<path fill="#CBCDCE" d="M38.425,72.999c-0.227-0.009-0.451-0.017-0.677-0.046C37.972,72.982,38.198,72.99,38.425,72.999z"/>
<path fill="#CBCDCE" d="M44.456,70.329c-0.147,0.177-0.304,0.344-0.464,0.504C44.154,70.671,44.311,70.504,44.456,70.329z"/>
<path fill="#CBCDCE" d="M40.609,72.771c-0.148,0.039-0.298,0.061-0.447,0.09C40.312,72.831,40.462,72.809,40.609,72.771z"/>
<path fill="#CBCDCE" d="M42.453,72.01c-0.184,0.105-0.372,0.195-0.561,0.283C42.082,72.205,42.271,72.115,42.453,72.01z"/>
<path fill="#CBCDCE" d="M44.605,70.145c-0.049,0.063-0.1,0.125-0.149,0.186C44.507,70.27,44.559,70.207,44.605,70.145z"/>
<path fill="#CBCDCE" d="M45.12,69.413l0.017-0.024c-0.014,0.021-0.027,0.039-0.041,0.061C45.104,69.436,45.111,69.426,45.12,69.413z
	"/>
<path fill="#CBCDCE" d="M41.546,72.456c-0.166,0.067-0.338,0.119-0.508,0.175C41.209,72.575,41.38,72.523,41.546,72.456z"/>
<path fill="#CBCDCE" d="M43.992,70.833c-0.057,0.056-0.108,0.112-0.167,0.168C43.883,70.947,43.938,70.889,43.992,70.833z"/>
<path fill="#CBCDCE" d="M43.168,71.549c-0.066,0.049-0.141,0.092-0.208,0.139C43.027,71.641,43.102,71.6,43.168,71.549z"/>
<path fill="#CBCDCE" d="M33.396,70.798c-0.164-0.165-0.322-0.339-0.472-0.521C33.072,70.457,33.229,70.631,33.396,70.798z"/>
<path fill="#CBCDCE" d="M34.208,71.514c-0.229-0.173-0.447-0.357-0.656-0.557C33.759,71.152,33.977,71.339,34.208,71.514z"/>
<path fill="#CBCDCE" d="M34.815,71.925c0.033,0.021,0.07,0.034,0.104,0.054c-0.164-0.096-0.323-0.201-0.48-0.31
	C34.563,71.755,34.685,71.845,34.815,71.925z"/>
<path fill="#CBCDCE" d="M32.776,70.092c-0.172-0.224-0.335-0.456-0.483-0.701C32.438,69.632,32.602,69.865,32.776,70.092z"/>
<path fill="#6D6E71" d="M62.784,30.745c-1.632-14.291-13.32-21.72-24.091-21.72c-0.041,0-0.082,0-0.123,0
	c4.116,0,7.467,3.319,7.499,7.441c0.033,4.143-3.299,7.526-7.44,7.559c0.021,0,0.041,0,0.063,0c3.032,0,8.241,1.706,9.146,8.07
	l0.013,1.57c-0.004,0.124-0.012,0.345-0.021,0.495c-0.309,2.252-2.443,5.742-4.329,8.826c-0.657,1.074-1.31,2.143-1.911,3.183
	c-0.917,1.578-1.865,3.158-2.81,4.738c0.176,0.295,0.357,0.588,0.523,0.885c1.063,1.782,2.139,3.604,3.221,5.435
	c0.875,1.484,1.756,2.976,2.638,4.457c1.45,2.44,1.354,5.371,0.006,7.654l1.317-2.165c2.666-4.38,5.425-8.909,8.078-13.476
	c0.551-0.951,1.142-1.914,1.734-2.885c2.717-4.44,5.793-9.475,6.441-14.99c0.005-0.044,0.01-0.088,0.014-0.133
	c0.059-0.588,0.1-1.565,0.098-2.062l-0.016-2.089C62.831,31.274,62.814,31.009,62.784,30.745z"/>
<path fill="#CBCDCE" d="M32.248,69.32c-0.009-0.016-0.019-0.031-0.027-0.047C32.229,69.29,32.239,69.305,32.248,69.32z"/>
<path fill="#CBCDCE" d="M37.748,72.953c-0.163-0.021-0.321-0.061-0.483-0.094C37.427,72.893,37.587,72.934,37.748,72.953z"/>
<path fill="#CBCDCE" d="M38.705,73.018c0.003,0,0.005,0,0.007,0c-0.096,0-0.191-0.015-0.287-0.019
	C38.519,73.002,38.611,73.018,38.705,73.018z"/>
<path fill="#CBCDCE" d="M39.662,72.955c-0.202,0.025-0.403,0.031-0.604,0.04C39.259,72.986,39.462,72.98,39.662,72.955z"/>
<path fill="#CBCDCE" d="M35.837,72.438c-0.119-0.049-0.232-0.109-0.349-0.166C35.604,72.328,35.72,72.391,35.837,72.438z"/>
<path fill="#CBCDCE" d="M36.788,72.764c-0.145-0.039-0.285-0.094-0.427-0.141C36.504,72.67,36.644,72.725,36.788,72.764z"/>
<path fill="#2F2F32" d="M45.159,61.686c-0.882-1.482-1.763-2.974-2.638-4.457c-1.082-1.832-2.156-3.652-3.221-5.436
	c-0.166-0.297-0.348-0.59-0.523-0.885c-1.702,2.849-3.418,5.689-5.108,8.466l-1.366,2.246c-1.476,2.427-1.41,5.356-0.083,7.653
	c0.009,0.016,0.019,0.031,0.027,0.047c0.014,0.022,0.03,0.046,0.045,0.068c0.148,0.246,0.312,0.479,0.483,0.702
	c0.048,0.063,0.098,0.124,0.148,0.187c0.149,0.182,0.308,0.354,0.472,0.521c0.052,0.054,0.101,0.107,0.155,0.159
	c0.209,0.198,0.428,0.384,0.656,0.557c0.074,0.055,0.154,0.104,0.23,0.155c0.157,0.108,0.316,0.214,0.48,0.31
	c0.188,0.109,0.378,0.203,0.569,0.295c0.116,0.056,0.229,0.115,0.349,0.166c0.173,0.07,0.35,0.125,0.524,0.185
	c0.142,0.047,0.282,0.103,0.427,0.14c0.158,0.043,0.318,0.066,0.477,0.098c0.162,0.033,0.32,0.072,0.483,0.094
	c0.226,0.029,0.45,0.037,0.677,0.046c0.096,0.004,0.191,0.019,0.287,0.019c0.115,0,0.23-0.017,0.346-0.021
	c0.201-0.009,0.402-0.014,0.604-0.04c0.169-0.021,0.333-0.063,0.5-0.095c0.149-0.029,0.299-0.051,0.447-0.09
	c0.146-0.039,0.285-0.094,0.429-0.141c0.17-0.056,0.342-0.105,0.508-0.175c0.119-0.048,0.229-0.108,0.347-0.163
	c0.188-0.088,0.377-0.178,0.562-0.283c0.173-0.1,0.341-0.209,0.507-0.322c0.068-0.047,0.143-0.09,0.208-0.139
	c0.229-0.168,0.446-0.353,0.657-0.548c0.059-0.055,0.111-0.112,0.167-0.168c0.161-0.16,0.315-0.327,0.464-0.504
	c0.051-0.062,0.102-0.122,0.15-0.185c0.172-0.222,0.338-0.451,0.487-0.696c0.015-0.021,0.028-0.04,0.041-0.062l0.029-0.049
	C46.516,67.055,46.609,64.125,45.159,61.686z"/>
<path fill="#2F2F32" d="M31.069,16.584c0.032,4.122,3.384,7.441,7.499,7.441c0.021,0,0.04,0,0.06,0
	c4.142-0.032,7.474-3.416,7.44-7.559c-0.031-4.122-3.383-7.441-7.499-7.441c-0.02,0-0.039,0-0.06,0
	C34.369,9.058,31.037,12.441,31.069,16.584z"/>
</svg>
