<?xml version="1.0" encoding="utf-8"?>
<!-- Generator: Adobe Illustrator 16.0.0, SVG Export Plug-In . SVG Version: 6.00 Build 0)  -->
<!DOCTYPE svg PUBLIC "-//W3C//DTD SVG 1.1//EN" "http://www.w3.org/Graphics/SVG/1.1/DTD/svg11.dtd">
<svg version="1.1" id="Laag_1" xmlns="http://www.w3.org/2000/svg" xmlns:xlink="http://www.w3.org/1999/xlink" x="0px" y="0px"
	 width="80px" height="80px" viewBox="0 0 80 80" enable-background="new 0 0 80 80" xml:space="preserve">
<g id="_x3C_Guides_x3E_" display="none">
</g>
<g id="BG">
</g>
<g id="Laag_1_1_">
</g>
<polygon fill="none" points="32.857,50.051 46.633,50.051 39.744,38.12 "/>
<path fill="#FE606E" d="M38.297,15.767c0.123-0.024,0.246-0.046,0.369-0.064C38.543,15.721,38.42,15.742,38.297,15.767z"/>
<path fill="#FE606E" d="M34.416,17.852c0.101-0.102,0.2-0.205,0.309-0.303C34.617,17.646,34.518,17.749,34.416,17.852z"/>
<path fill="#FE606E" d="M36.855,16.206c0.134-0.057,0.269-0.11,0.404-0.158C37.123,16.096,36.989,16.15,36.855,16.206z"/>
<path fill="#FE606E" d="M33.967,18.348c0.074-0.088,0.145-0.178,0.221-0.264C34.111,18.169,34.041,18.26,33.967,18.348z"/>
<path fill="#FE606E" d="M37.582,15.945c0.122-0.037,0.244-0.072,0.367-0.103C37.826,15.873,37.703,15.908,37.582,15.945z"/>
<path fill="#FE606E" d="M39.004,15.662c0.133-0.013,0.266-0.023,0.4-0.029C39.27,15.639,39.137,15.649,39.004,15.662z"/>
<path fill="#FE606E" d="M34.91,17.394c0.131-0.11,0.262-0.22,0.401-0.321C35.174,17.173,35.041,17.283,34.91,17.394z"/>
<path fill="#FE606E" d="M35.477,16.96c0.15-0.104,0.305-0.206,0.465-0.301C35.783,16.752,35.629,16.854,35.477,16.96z"/>
<path fill="#FE606E" d="M36.136,16.553c0.151-0.083,0.304-0.163,0.458-0.234C36.438,16.39,36.287,16.47,36.136,16.553z"/>
<path fill="#FE606E" d="M43.494,16.625c-0.064-0.037-0.131-0.065-0.196-0.101c0.089,0.048,0.181,0.095,0.267,0.146
	C43.541,16.656,43.52,16.639,43.494,16.625z"/>
<path fill="#FE606E" d="M42.568,16.18c0.117,0.049,0.236,0.098,0.352,0.151C42.805,16.276,42.686,16.229,42.568,16.18z"/>
<path fill="#FE606E" d="M44.531,17.355c0.082,0.068,0.164,0.133,0.244,0.204C44.697,17.489,44.613,17.424,44.531,17.355z"/>
<path fill="#FE606E" d="M43.96,16.926c0.077,0.053,0.155,0.103,0.231,0.158C44.116,17.028,44.037,16.979,43.96,16.926z"/>
<path fill="#FE606E" d="M33.549,18.906c0.053-0.078,0.104-0.158,0.16-0.235C33.653,18.747,33.602,18.828,33.549,18.906z"/>
<path fill="#FE606E" d="M41.113,15.752c0.158,0.029,0.316,0.063,0.472,0.103C41.43,15.814,41.271,15.781,41.113,15.752z"/>
<path fill="#FE606E" d="M40.406,15.655c0.159,0.014,0.317,0.032,0.473,0.056C40.721,15.688,40.564,15.669,40.406,15.655z"/>
<path fill="#FE606E" d="M41.836,15.924c0.145,0.043,0.287,0.087,0.428,0.138C42.122,16.011,41.979,15.967,41.836,15.924z"/>
<path fill="#FE606E" d="M39.705,15.626c0.147-0.001,0.295,0.001,0.442,0.01C40,15.628,39.852,15.625,39.705,15.626z"/>
<path fill="#FE606E" d="M12.731,55.246c0.03-0.094,0.067-0.184,0.101-0.273C12.799,55.063,12.762,55.154,12.731,55.246z"/>
<path fill="#FE606E" d="M15.002,63.252c-0.102-0.086-0.199-0.177-0.297-0.27C14.803,63.075,14.899,63.165,15.002,63.252z"/>
<path fill="#FE606E" d="M14.48,62.762c-0.098-0.101-0.191-0.205-0.284-0.312C14.288,62.557,14.382,62.66,14.48,62.762z"/>
<path fill="#FE606E" d="M14,62.216c-0.084-0.106-0.165-0.216-0.244-0.327C13.835,62,13.916,62.109,14,62.216z"/>
<path fill="#FE606E" d="M13.57,61.615c-0.067-0.104-0.131-0.209-0.192-0.315C13.439,61.406,13.503,61.512,13.57,61.615z"/>
<path fill="#FE606E" d="M17.107,64.52c-0.035-0.014-0.071-0.023-0.105-0.037C17.037,64.496,17.072,64.506,17.107,64.52z"/>
<path fill="#FE606E" d="M15.566,63.689c-0.094-0.065-0.184-0.135-0.274-0.205C15.383,63.555,15.473,63.624,15.566,63.689z"/>
<path fill="#FE606E" d="M18.999,64.996c-0.097-0.012-0.192-0.028-0.288-0.043C18.807,64.968,18.902,64.984,18.999,64.996z"/>
<path fill="#FE606E" d="M13.197,60.971c-0.049-0.097-0.096-0.195-0.141-0.294C13.102,60.775,13.148,60.873,13.197,60.971z"/>
<path fill="#FE606E" d="M16.117,64.046c0.018,0.011,0.037,0.017,0.056,0.027c-0.075-0.042-0.147-0.089-0.221-0.134
	C16.008,63.975,16.06,64.014,16.117,64.046z"/>
<path fill="#FE606E" d="M45.035,17.814c0.092,0.092,0.186,0.182,0.273,0.278C45.221,17.997,45.127,17.906,45.035,17.814z"/>
<path fill="#FE606E" d="M12.536,55.975c0.025-0.119,0.06-0.236,0.091-0.354C12.596,55.738,12.562,55.855,12.536,55.975z"/>
<path fill="#FE606E" d="M12.893,60.297c-0.036-0.093-0.069-0.188-0.103-0.281C12.822,60.109,12.856,60.204,12.893,60.297z"/>
<path fill="#FE606E" d="M12.371,57.473c0.002-0.164,0.013-0.324,0.024-0.486C12.384,57.148,12.373,57.311,12.371,57.473z"/>
<path fill="#FE606E" d="M13,54.54c0.033-0.076,0.072-0.149,0.108-0.226C13.072,54.391,13.033,54.465,13,54.54z"/>
<path fill="#FE606E" d="M12.416,56.721c0.016-0.147,0.042-0.294,0.066-0.438C12.457,56.428,12.432,56.574,12.416,56.721z"/>
<path fill="#FE606E" d="M12.66,59.607c-0.028-0.099-0.053-0.198-0.077-0.299C12.607,59.409,12.632,59.51,12.66,59.607z"/>
<path fill="#FE606E" d="M12.4,58.203c-0.014-0.146-0.019-0.297-0.023-0.447C12.382,57.905,12.387,58.055,12.4,58.203z"/>
<path fill="#FE606E" d="M12.496,58.912c-0.021-0.119-0.038-0.239-0.055-0.36C12.458,58.672,12.475,58.793,12.496,58.912z"/>
<path fill="#FE606E" d="M18.107,64.835c-0.091-0.022-0.182-0.045-0.271-0.069C17.926,64.79,18.017,64.813,18.107,64.835z"/>
<path fill="#FE606E" d="M45.495,18.316c0.099,0.118,0.196,0.236,0.289,0.361C45.693,18.554,45.594,18.436,45.495,18.316z"/>
<path fill="#FE606E" d="M45.926,18.887c0.094,0.137,0.188,0.274,0.271,0.419C46.113,19.162,46.021,19.024,45.926,18.887z"/>
<path fill="#FE606E" d="M19.763,65.046c0.032,0,0.065,0.006,0.098,0.006c0.005,0,0.01-0.001,0.015-0.001h-0.008
	C19.832,65.051,19.798,65.046,19.763,65.046z"/>
<path fill="#FF3333" d="M19.867,50.051h12.99l6.887-11.931l-6.495-11.25c-1.402-2.429-1.287-5.313,0.044-7.568
	c-0.014,0.023-0.03,0.045-0.044,0.068L13.372,53.801c-0.013,0.022-0.022,0.045-0.034,0.067
	C14.625,51.591,17.064,50.051,19.867,50.051z"/>
<path fill="#FE606E" d="M64.195,63.488c-0.09,0.068-0.178,0.136-0.27,0.199C64.02,63.624,64.105,63.557,64.195,63.488z"/>
<path fill="#FE606E" d="M67.113,57.757c-0.004,0.149-0.01,0.298-0.021,0.445C67.104,58.055,67.109,57.905,67.113,57.757z"/>
<path fill="#FE606E" d="M34.188,18.084c0.074-0.081,0.152-0.155,0.229-0.232C34.34,17.929,34.261,18.004,34.188,18.084z"/>
<path fill="#FE606E" d="M33.293,19.302c0.08-0.136,0.168-0.266,0.256-0.396C33.46,19.037,33.373,19.167,33.293,19.302z"/>
<path fill="#FE606E" d="M67.049,58.555c-0.016,0.119-0.031,0.237-0.054,0.355C67.018,58.792,67.033,58.673,67.049,58.555z"/>
<path fill="#FE606E" d="M67.096,56.982c0.012,0.162,0.022,0.324,0.024,0.487C67.119,57.309,67.107,57.146,67.096,56.982z"/>
<path fill="#FE606E" d="M62.488,64.48c-0.031,0.014-0.063,0.022-0.096,0.035C62.425,64.504,62.457,64.494,62.488,64.48z"/>
<path fill="#FE606E" d="M35.994,16.625c-0.018,0.011-0.034,0.023-0.053,0.034c0.064-0.038,0.13-0.071,0.194-0.106
	C36.089,16.578,36.041,16.598,35.994,16.625z"/>
<path fill="#FE606E" d="M35.312,17.072c0.054-0.039,0.11-0.074,0.165-0.112C35.422,16.998,35.365,17.033,35.312,17.072z"/>
<path fill="#FE606E" d="M34.725,17.549c0.06-0.054,0.123-0.103,0.186-0.155C34.848,17.445,34.783,17.496,34.725,17.549z"/>
<path fill="#FE606E" d="M63.374,64.046c0.058-0.032,0.108-0.071,0.163-0.106c-0.072,0.045-0.145,0.093-0.219,0.135
	C63.336,64.063,63.355,64.057,63.374,64.046z"/>
<path fill="#FE606E" d="M59.615,65.051c0.006,0,0.011,0.001,0.016,0.001c0.032,0,0.064-0.006,0.096-0.006
	c-0.033,0-0.067,0.005-0.103,0.005H59.615z"/>
<path fill="#FE606E" d="M66.907,59.313c-0.023,0.099-0.048,0.196-0.075,0.293C66.859,59.508,66.884,59.41,66.907,59.313z"/>
<path fill="#FF3333" d="M46.238,26.87l-6.494,11.25l6.889,11.931h12.991c2.804,0,5.242,1.54,6.53,3.817
	c-0.014-0.022-0.022-0.045-0.035-0.067L46.238,19.37c-0.012-0.022-0.027-0.042-0.041-0.064C47.525,21.56,47.641,24.442,46.238,26.87
	z"/>
<path fill="#FE606E" d="M65.73,61.895c-0.076,0.107-0.154,0.215-0.236,0.316C65.576,62.107,65.654,62.002,65.73,61.895z"/>
<path fill="#FE606E" d="M66.432,60.684c-0.043,0.096-0.088,0.188-0.135,0.28C66.344,60.871,66.389,60.777,66.432,60.684z"/>
<path fill="#FE606E" d="M66.109,61.307c-0.06,0.103-0.121,0.204-0.186,0.305C65.988,61.51,66.051,61.408,66.109,61.307z"/>
<path fill="#FE606E" d="M60.775,64.953c-0.094,0.015-0.187,0.031-0.281,0.043C60.588,64.984,60.682,64.968,60.775,64.953z"/>
<path fill="#FE606E" d="M61.652,64.766c-0.088,0.024-0.176,0.047-0.266,0.068C61.477,64.813,61.564,64.79,61.652,64.766z"/>
<path fill="#FE606E" d="M44.775,17.56c0.09,0.082,0.174,0.169,0.26,0.255C44.949,17.729,44.865,17.641,44.775,17.56z"/>
<path fill="#FE606E" d="M66.699,60.021c-0.031,0.09-0.064,0.181-0.1,0.27C66.635,60.202,66.668,60.111,66.699,60.021z"/>
<path fill="#FE606E" d="M33.709,18.671c0.082-0.112,0.171-0.217,0.258-0.323C33.879,18.454,33.791,18.561,33.709,18.671z"/>
<path fill="#FE606E" d="M36.594,16.318c0.086-0.04,0.174-0.076,0.262-0.112C36.768,16.242,36.681,16.277,36.594,16.318z"/>
<path fill="#FE606E" d="M66.382,54.314c0.036,0.074,0.075,0.148,0.109,0.227C66.457,54.465,66.418,54.391,66.382,54.314z"/>
<path fill="#FE606E" d="M42.264,16.062c0.104,0.036,0.203,0.077,0.305,0.118C42.467,16.139,42.367,16.098,42.264,16.062z"/>
<path fill="#FE606E" d="M65.29,62.455c-0.089,0.104-0.181,0.205-0.274,0.303C65.109,62.66,65.201,62.559,65.29,62.455z"/>
<path fill="#FE606E" d="M40.147,15.636c0.086,0.005,0.173,0.012,0.259,0.021C40.32,15.647,40.234,15.641,40.147,15.636z"/>
<path fill="#FE606E" d="M40.879,15.711c0.078,0.013,0.157,0.027,0.234,0.041C41.036,15.738,40.958,15.724,40.879,15.711z"/>
<path fill="#FE606E" d="M45.309,18.093c0.064,0.072,0.125,0.149,0.188,0.224C45.434,18.242,45.373,18.164,45.309,18.093z"/>
<path fill="#FE606E" d="M66.658,54.969c0.033,0.094,0.07,0.184,0.102,0.278C66.729,55.152,66.691,55.063,66.658,54.969z"/>
<path fill="#FE606E" d="M44.191,17.084c0.117,0.086,0.229,0.18,0.34,0.271C44.419,17.263,44.309,17.169,44.191,17.084z"/>
<path fill="#FE606E" d="M42.92,16.331c0.127,0.06,0.253,0.126,0.378,0.193C43.173,16.457,43.049,16.391,42.92,16.331z"/>
<path fill="#FE606E" d="M43.564,16.671c0.137,0.08,0.266,0.167,0.396,0.255C43.83,16.838,43.699,16.75,43.564,16.671z"/>
<path fill="#FE606E" d="M45.784,18.678c0.05,0.068,0.095,0.139,0.142,0.209C45.879,18.816,45.834,18.745,45.784,18.678z"/>
<path fill="#FE606E" d="M41.585,15.854c0.084,0.021,0.167,0.046,0.251,0.069C41.752,15.9,41.669,15.876,41.585,15.854z"/>
<path fill="#FE606E" d="M37.949,15.843c0.115-0.028,0.232-0.053,0.348-0.076C38.182,15.79,38.065,15.814,37.949,15.843z"/>
<path fill="#FE606E" d="M64.779,62.988c-0.094,0.089-0.188,0.177-0.286,0.261C64.592,63.165,64.688,63.077,64.779,62.988z"/>
<path fill="#FE606E" d="M66.861,55.613c0.033,0.121,0.068,0.24,0.094,0.363C66.93,55.854,66.895,55.734,66.861,55.613z"/>
<path fill="#FE606E" d="M38.666,15.702c0.112-0.016,0.225-0.028,0.338-0.04C38.891,15.674,38.779,15.687,38.666,15.702z"/>
<path fill="#FE606E" d="M39.404,15.633c0.1-0.005,0.199-0.007,0.301-0.007C39.604,15.626,39.504,15.628,39.404,15.633z"/>
<path fill="#FE606E" d="M67.008,56.275c0.025,0.147,0.051,0.295,0.068,0.445C67.061,56.572,67.033,56.425,67.008,56.275z"/>
<path fill="#FE606E" d="M37.26,16.048c0.106-0.037,0.214-0.07,0.322-0.103C37.474,15.978,37.367,16.01,37.26,16.048z"/>
<path fill="#FF0A0A" d="M33.249,26.87l6.495,11.25l6.494-11.25c1.402-2.428,1.287-5.311-0.041-7.564
	c-0.086-0.145-0.178-0.282-0.271-0.419c-0.047-0.07-0.092-0.141-0.142-0.209c-0.093-0.125-0.19-0.243-0.289-0.361
	c-0.063-0.074-0.122-0.151-0.187-0.224c-0.088-0.097-0.183-0.187-0.273-0.278c-0.086-0.086-0.17-0.173-0.26-0.255
	c-0.08-0.071-0.162-0.136-0.244-0.204c-0.111-0.092-0.223-0.186-0.34-0.271c-0.076-0.056-0.154-0.105-0.231-0.158
	c-0.13-0.088-0.259-0.175-0.396-0.255c-0.088-0.052-0.178-0.099-0.268-0.146c-0.125-0.067-0.251-0.134-0.378-0.193
	c-0.114-0.054-0.233-0.103-0.353-0.151c-0.102-0.041-0.201-0.082-0.305-0.118c-0.141-0.051-0.283-0.095-0.428-0.138
	c-0.084-0.023-0.167-0.048-0.251-0.069c-0.155-0.039-0.313-0.073-0.472-0.103c-0.077-0.014-0.156-0.028-0.234-0.041
	c-0.156-0.023-0.314-0.042-0.473-0.056c-0.086-0.008-0.173-0.015-0.259-0.02c-0.147-0.009-0.295-0.011-0.442-0.01
	c-0.102,0-0.201,0.002-0.301,0.007c-0.135,0.006-0.268,0.017-0.4,0.029c-0.113,0.012-0.226,0.024-0.338,0.04
	c-0.123,0.019-0.246,0.04-0.369,0.064c-0.115,0.023-0.232,0.048-0.348,0.076c-0.123,0.03-0.245,0.065-0.367,0.103
	c-0.108,0.032-0.216,0.065-0.322,0.103c-0.136,0.048-0.271,0.102-0.404,0.158c-0.088,0.036-0.176,0.072-0.262,0.112
	c-0.154,0.071-0.307,0.151-0.458,0.234c-0.064,0.035-0.13,0.068-0.194,0.106c-0.16,0.095-0.314,0.196-0.465,0.301
	c-0.055,0.038-0.111,0.073-0.165,0.112c-0.14,0.102-0.271,0.211-0.401,0.321c-0.063,0.053-0.126,0.102-0.186,0.155
	c-0.108,0.098-0.208,0.201-0.309,0.303c-0.076,0.077-0.154,0.151-0.229,0.232c-0.076,0.086-0.146,0.176-0.221,0.264
	c-0.087,0.106-0.176,0.211-0.258,0.323c-0.057,0.077-0.107,0.157-0.16,0.235c-0.088,0.13-0.176,0.26-0.256,0.396
	C31.962,21.557,31.847,24.441,33.249,26.87z"/>
<path fill="#FE606E" d="M17.002,64.48c-0.281-0.116-0.558-0.254-0.829-0.407C16.439,64.225,16.715,64.361,17.002,64.48z"/>
<path fill="#FF3333" d="M53.129,61.301l-6.496-11.25H32.857l-6.495,11.25c-1.386,2.401-3.9,3.745-6.487,3.75h39.74
	C57.029,65.046,54.516,63.702,53.129,61.301z"/>
<path fill="#FE606E" d="M15.952,63.939c-0.132-0.08-0.261-0.162-0.386-0.25C15.691,63.777,15.821,63.859,15.952,63.939z"/>
<path fill="#FE606E" d="M64.493,63.249c-0.097,0.082-0.197,0.161-0.298,0.239C64.296,63.41,64.396,63.332,64.493,63.249z"/>
<path fill="#FE606E" d="M15.292,63.484c-0.099-0.076-0.196-0.152-0.29-0.232C15.096,63.333,15.193,63.408,15.292,63.484z"/>
<path fill="#FE606E" d="M63.927,63.688c-0.126,0.088-0.257,0.172-0.39,0.252C63.67,63.859,63.801,63.777,63.927,63.688z"/>
<path fill="#FE606E" d="M19.763,65.046c-0.255-0.004-0.509-0.021-0.764-0.05C19.25,65.025,19.505,65.042,19.763,65.046z"/>
<path fill="#FE606E" d="M61.389,64.834c-0.203,0.049-0.408,0.088-0.611,0.119C60.982,64.922,61.188,64.882,61.389,64.834z"/>
<path fill="#FE606E" d="M65.016,62.758c-0.076,0.079-0.156,0.155-0.234,0.23C64.859,62.913,64.938,62.837,65.016,62.758z"/>
<path fill="#FE606E" d="M63.318,64.073c-0.271,0.153-0.549,0.292-0.83,0.407C62.775,64.363,63.051,64.225,63.318,64.073z"/>
<path fill="#FE606E" d="M60.494,64.996c-0.256,0.029-0.512,0.046-0.768,0.05C59.986,65.042,60.242,65.025,60.494,64.996z"/>
<path fill="#FE606E" d="M62.395,64.518c-0.244,0.097-0.492,0.178-0.742,0.248C61.904,64.693,62.152,64.611,62.395,64.518z"/>
<path fill="#FE606E" d="M17.836,64.766c-0.245-0.07-0.488-0.149-0.729-0.246C17.345,64.613,17.588,64.695,17.836,64.766z"/>
<path fill="#FE606E" d="M65.29,62.455c0.069-0.08,0.138-0.16,0.204-0.244C65.428,62.294,65.359,62.375,65.29,62.455z"/>
<path fill="#FE606E" d="M18.711,64.953c-0.201-0.032-0.402-0.07-0.604-0.118C18.306,64.883,18.507,64.921,18.711,64.953z"/>
<path fill="#FE606E" d="M14.705,62.982c-0.076-0.072-0.152-0.146-0.225-0.222C14.553,62.838,14.629,62.91,14.705,62.982z"/>
<path fill="#FE606E" d="M12.367,57.551c0,0.069,0.008,0.137,0.01,0.205c-0.002-0.095-0.007-0.189-0.006-0.283
	C12.371,57.498,12.367,57.523,12.367,57.551z"/>
<path fill="#FE606E" d="M66.995,58.91c-0.024,0.135-0.056,0.27-0.088,0.402C66.939,59.18,66.971,59.046,66.995,58.91z"/>
<path fill="#FE606E" d="M12.482,56.281c0.018-0.102,0.031-0.204,0.054-0.307C12.515,56.076,12.5,56.18,12.482,56.281z"/>
<path fill="#FE606E" d="M13.108,54.314c0.072-0.149,0.146-0.299,0.229-0.446C13.256,54.014,13.182,54.164,13.108,54.314z"/>
<path fill="#FE606E" d="M12.832,54.973c0.053-0.145,0.105-0.289,0.168-0.433C12.938,54.682,12.885,54.826,12.832,54.973z"/>
<path fill="#FE606E" d="M66.832,59.605c-0.04,0.14-0.085,0.276-0.133,0.416C66.747,59.884,66.792,59.746,66.832,59.605z"/>
<path fill="#FE606E" d="M12.627,55.619c0.033-0.125,0.064-0.25,0.104-0.373C12.691,55.368,12.66,55.494,12.627,55.619z"/>
<path fill="#FE606E" d="M67.092,58.202c-0.011,0.118-0.025,0.235-0.043,0.353C67.064,58.438,67.081,58.32,67.092,58.202z"/>
<path fill="#FE606E" d="M66.76,55.247c0.039,0.121,0.07,0.244,0.104,0.366C66.83,55.491,66.799,55.367,66.76,55.247z"/>
<path fill="#FE606E" d="M66.491,54.541c0.062,0.141,0.114,0.284,0.167,0.428C66.605,54.824,66.553,54.682,66.491,54.541z"/>
<path fill="#FE606E" d="M66.154,53.868c0.082,0.146,0.156,0.296,0.228,0.446C66.311,54.163,66.236,54.014,66.154,53.868z"/>
<path fill="#FE606E" d="M66.955,55.977c0.021,0.101,0.035,0.199,0.053,0.301C66.99,56.176,66.977,56.075,66.955,55.977z"/>
<path fill="#FE606E" d="M67.076,56.723c0.01,0.086,0.013,0.174,0.02,0.262C67.089,56.896,67.086,56.809,67.076,56.723z"/>
<path fill="#FE606E" d="M67.124,57.551c0-0.027-0.004-0.053-0.004-0.08c0.001,0.096-0.004,0.191-0.007,0.286
	C67.115,57.688,67.124,57.62,67.124,57.551z"/>
<path fill="#FE606E" d="M12.583,59.309c-0.032-0.132-0.062-0.264-0.087-0.396C12.521,59.046,12.551,59.178,12.583,59.309z"/>
<path fill="#FE606E" d="M14.196,62.45c-0.066-0.077-0.132-0.155-0.196-0.234C14.064,62.296,14.13,62.373,14.196,62.45z"/>
<path fill="#FE606E" d="M13.756,61.889c-0.063-0.09-0.127-0.181-0.186-0.272C13.63,61.709,13.692,61.799,13.756,61.889z"/>
<path fill="#FE606E" d="M65.925,61.609c-0.062,0.098-0.128,0.19-0.194,0.285C65.797,61.801,65.861,61.707,65.925,61.609z"/>
<path fill="#FE606E" d="M13.057,60.677c-0.059-0.125-0.113-0.251-0.164-0.38C12.943,60.426,12.998,60.552,13.057,60.677z"/>
<path fill="#FE606E" d="M13.378,61.3c-0.063-0.108-0.124-0.218-0.181-0.329C13.255,61.082,13.314,61.191,13.378,61.3z"/>
<path fill="#FE606E" d="M12.79,60.016c-0.047-0.135-0.091-0.27-0.13-0.406C12.699,59.746,12.743,59.881,12.79,60.016z"/>
<path fill="#FE606E" d="M12.396,56.986c0.007-0.09,0.011-0.178,0.021-0.267C12.406,56.809,12.402,56.896,12.396,56.986z"/>
<path fill="#FE606E" d="M12.441,58.552c-0.016-0.116-0.031-0.231-0.041-0.349C12.41,58.32,12.426,58.436,12.441,58.552z"/>
<path fill="#FE606E" d="M66.6,60.291c-0.051,0.133-0.107,0.264-0.168,0.393C66.491,60.555,66.548,60.424,66.6,60.291z"/>
<path fill="#FE606E" d="M66.297,60.964c-0.059,0.116-0.122,0.229-0.188,0.343C66.175,61.193,66.236,61.08,66.297,60.964z"/>
<path fill="#FF0A0A" d="M26.362,61.301l6.495-11.25h-12.99c-2.803,0-5.242,1.54-6.529,3.817c-0.084,0.147-0.157,0.297-0.229,0.446
	c-0.036,0.076-0.075,0.148-0.108,0.226c-0.063,0.144-0.115,0.288-0.168,0.433c-0.033,0.092-0.07,0.182-0.101,0.273
	c-0.04,0.123-0.071,0.248-0.104,0.373c-0.031,0.117-0.065,0.234-0.091,0.355c-0.022,0.103-0.036,0.205-0.054,0.307
	c-0.024,0.146-0.051,0.291-0.066,0.438c-0.01,0.089-0.014,0.177-0.021,0.267c-0.012,0.16-0.022,0.322-0.024,0.484
	c-0.001,0.096,0.004,0.189,0.006,0.284c0.005,0.149,0.01,0.3,0.023,0.447c0.01,0.116,0.025,0.231,0.041,0.349
	c0.017,0.121,0.033,0.241,0.055,0.36c0.025,0.133,0.055,0.265,0.087,0.396c0.024,0.102,0.049,0.201,0.077,0.301
	c0.039,0.138,0.083,0.271,0.13,0.406c0.033,0.096,0.066,0.188,0.103,0.281c0.051,0.129,0.105,0.255,0.164,0.38
	c0.045,0.099,0.092,0.197,0.141,0.294c0.057,0.111,0.117,0.221,0.181,0.329c0.062,0.106,0.125,0.212,0.192,0.315
	c0.059,0.093,0.122,0.184,0.186,0.272C13.835,62,13.916,62.109,14,62.216c0.064,0.079,0.13,0.157,0.196,0.234
	c0.093,0.106,0.187,0.211,0.284,0.312c0.072,0.076,0.148,0.148,0.225,0.223c0.098,0.092,0.195,0.183,0.297,0.269
	c0.094,0.08,0.191,0.156,0.29,0.231c0.091,0.07,0.181,0.141,0.274,0.205c0.125,0.088,0.254,0.17,0.386,0.25
	c0.073,0.045,0.146,0.093,0.221,0.135c0.271,0.152,0.548,0.291,0.829,0.408c0.034,0.014,0.07,0.023,0.105,0.037
	c0.24,0.097,0.483,0.176,0.729,0.246c0.09,0.024,0.181,0.047,0.271,0.069c0.201,0.048,0.402,0.086,0.604,0.118
	c0.096,0.015,0.191,0.031,0.288,0.043c0.255,0.029,0.509,0.046,0.764,0.05c0.035,0,0.069,0.005,0.104,0.005h0.008
	C22.462,65.046,24.977,63.702,26.362,61.301z"/>
<path fill="#FF0A0A" d="M65.73,61.895c0.065-0.094,0.133-0.188,0.193-0.283c0.064-0.101,0.126-0.202,0.186-0.305
	c0.064-0.113,0.129-0.227,0.188-0.343c0.047-0.092,0.092-0.187,0.135-0.28c0.061-0.129,0.117-0.26,0.168-0.393
	c0.035-0.089,0.068-0.18,0.101-0.27c0.048-0.14,0.093-0.276,0.133-0.416c0.026-0.098,0.052-0.195,0.075-0.293
	c0.031-0.135,0.063-0.269,0.088-0.402c0.021-0.118,0.038-0.236,0.054-0.355c0.017-0.117,0.032-0.234,0.043-0.353
	c0.013-0.147,0.019-0.296,0.021-0.445c0.004-0.095,0.009-0.19,0.008-0.286c-0.002-0.164-0.014-0.324-0.023-0.486
	c-0.008-0.088-0.011-0.176-0.021-0.262c-0.019-0.15-0.043-0.299-0.068-0.445c-0.018-0.102-0.03-0.2-0.053-0.301
	c-0.024-0.123-0.062-0.242-0.093-0.362c-0.032-0.122-0.063-0.245-0.104-0.366c-0.029-0.096-0.066-0.186-0.102-0.278
	c-0.053-0.144-0.105-0.286-0.167-0.428c-0.034-0.077-0.073-0.151-0.109-0.228c-0.071-0.149-0.146-0.299-0.228-0.445
	c-1.288-2.277-3.727-3.817-6.53-3.817H46.633l6.496,11.25c1.387,2.401,3.9,3.745,6.486,3.75h0.009c0.034,0,0.067-0.005,0.103-0.005
	c0.256-0.004,0.512-0.02,0.769-0.05c0.096-0.011,0.188-0.028,0.282-0.043c0.203-0.031,0.408-0.07,0.611-0.119
	c0.088-0.021,0.176-0.044,0.264-0.067c0.25-0.07,0.498-0.152,0.742-0.25c0.03-0.013,0.063-0.021,0.094-0.035
	c0.281-0.115,0.56-0.254,0.83-0.407c0.074-0.042,0.146-0.089,0.22-0.134c0.133-0.08,0.265-0.164,0.39-0.252
	c0.092-0.063,0.18-0.131,0.27-0.199c0.101-0.078,0.201-0.157,0.298-0.239c0.099-0.084,0.192-0.172,0.287-0.261
	c0.079-0.075,0.159-0.151,0.233-0.23c0.096-0.098,0.188-0.199,0.275-0.303c0.068-0.08,0.139-0.161,0.204-0.244
	C65.576,62.107,65.654,62.002,65.73,61.895z"/>
</svg>
