<?xml version="1.0" encoding="utf-8"?>
<!-- Generator: Adobe Illustrator 16.0.0, SVG Export Plug-In . SVG Version: 6.00 Build 0)  -->
<!DOCTYPE svg PUBLIC "-//W3C//DTD SVG 1.1//EN" "http://www.w3.org/Graphics/SVG/1.1/DTD/svg11.dtd">
<svg version="1.1" id="Laag_1" xmlns="http://www.w3.org/2000/svg" xmlns:xlink="http://www.w3.org/1999/xlink" x="0px" y="0px"
	 width="80px" height="80px" viewBox="0 0 80 80" enable-background="new 0 0 80 80" xml:space="preserve">
<g id="_x3C_Guides_x3E_" display="none">
</g>
<g id="BG">
</g>
<g id="Laag_1_1_">
</g>
<path fill="#00DBC0" d="M41.674,9.481c4.143,0,7.5,3.357,7.5,7.5s-3.357,7.5-7.5,7.5c7.813,0,14.168,6.355,14.168,14.167
	s-6.355,14.167-14.168,14.167c4.143,0,7.5,3.357,7.5,7.5c0,4.144-3.357,7.5-7.5,7.5c16.083,0,29.168-13.084,29.168-29.167
	C70.842,22.565,57.757,9.481,41.674,9.481z"/>
<path fill="#00DBC0" d="M34.174,60.314c0-4.143,3.357-7.5,7.5-7.5c-7.813,0-14.168-6.354-14.168-14.167s6.355-14.167,14.168-14.167
	c-4.143,0-7.5-3.357-7.5-7.5s3.357-7.5,7.5-7.5c-16.083,0-29.168,13.084-29.168,29.167c0,16.083,13.085,29.167,29.168,29.167
	C37.531,67.814,34.174,64.458,34.174,60.314z"/>
<circle fill="#00BC91" cx="41.674" cy="60.314" r="7.5"/>
<circle fill="#00BC91" cx="41.674" cy="16.981" r="7.5"/>
</svg>
