<?xml version="1.0" encoding="utf-8"?>
<!-- Generator: Adobe Illustrator 16.0.0, SVG Export Plug-In . SVG Version: 6.00 Build 0)  -->
<!DOCTYPE svg PUBLIC "-//W3C//DTD SVG 1.1//EN" "http://www.w3.org/Graphics/SVG/1.1/DTD/svg11.dtd">
<svg version="1.1" id="Laag_1" xmlns="http://www.w3.org/2000/svg" xmlns:xlink="http://www.w3.org/1999/xlink" x="0px" y="0px"
	 width="313.746px" height="375.671px" viewBox="0 0 313.746 375.671" enable-background="new 0 0 313.746 375.671"
	 xml:space="preserve">
<g id="_x3C_Guides_x3E_" display="none">
</g>
<g id="BG">
</g>
<g>
	<path fill="#FF3333" d="M96.965,370.599c-1.757,0-3.538-0.438-5.18-1.357c-5.111-2.865-6.933-9.332-4.065-14.443l63.74-113.67
		c2.866-5.111,9.331-6.932,14.443-4.065c5.111,2.866,6.933,9.333,4.065,14.444l-63.74,113.67
		C104.283,368.646,100.679,370.599,96.965,370.599z"/>
</g>
<g>
	<path fill="#00DBC0" d="M195.109,130.463h-56.764c-5.86,0-10.61-4.75-10.61-10.61s4.75-10.61,10.61-10.61h56.764
		c5.86,0,10.61,4.75,10.61,10.61S200.97,130.463,195.109,130.463z"/>
</g>
<g>
	<path fill="#6D6E71" d="M27.217,136.129c-1.757,0-3.538-0.438-5.18-1.357c-5.111-2.866-6.933-9.333-4.065-14.444l32.604-58.141
		c2.864-5.112,9.332-6.932,14.443-4.065c5.111,2.866,6.933,9.333,4.065,14.444l-32.604,58.141
		C34.536,134.176,30.931,136.129,27.217,136.129z"/>
</g>
<g>
	<path fill="#6D6E71" d="M292.281,286c-3.714,0-7.317-1.953-9.265-5.424l-32.604-58.141c-2.866-5.111-1.046-11.578,4.064-14.443
		c5.112-2.863,11.578-1.046,14.444,4.064l32.604,58.141c2.866,5.111,1.046,11.578-4.064,14.444
		C295.819,285.562,294.038,286,292.281,286z"/>
</g>
<g id="Capa_1">
</g>
</svg>
