<?xml version="1.0" encoding="utf-8"?>
<!-- Generator: Adobe Illustrator 16.0.0, SVG Export Plug-In . SVG Version: 6.00 Build 0)  -->
<!DOCTYPE svg PUBLIC "-//W3C//DTD SVG 1.1//EN" "http://www.w3.org/Graphics/SVG/1.1/DTD/svg11.dtd">
<svg version="1.1" id="Laag_1" xmlns="http://www.w3.org/2000/svg" xmlns:xlink="http://www.w3.org/1999/xlink" x="0px" y="0px"
	 width="256.918px" height="40px" viewBox="0 0 256.918 40" enable-background="new 0 0 256.918 40" xml:space="preserve">
<g id="_x3C_Guides_x3E_" display="none">
</g>
<g id="BG">
</g>
<g>
	<path fill="#FF3333" d="M10.217,31.98"/>
</g>
<g>
	<g>
		<path fill="#CBCDCE" d="M111.491,30.107c0,0.109-0.035,0.197-0.104,0.26c-0.069,0.063-0.159,0.093-0.27,0.093h-2.201
			c-0.097,0-0.18-0.034-0.249-0.104c-0.069-0.067-0.117-0.15-0.146-0.248l-0.955-3.944h-4.775l-0.955,3.944
			c-0.028,0.098-0.076,0.181-0.146,0.248c-0.068,0.07-0.152,0.104-0.248,0.104h-2.201c-0.111,0-0.201-0.03-0.27-0.093
			c-0.07-0.063-0.104-0.149-0.104-0.26c0-0.015,0.003-0.027,0.011-0.043c0.006-0.014,0.01-0.033,0.01-0.062l3.405-13.019
			c0.124-0.484,0.304-0.865,0.54-1.142c0.234-0.277,0.488-0.488,0.758-0.634s0.547-0.239,0.83-0.28
			c0.283-0.041,0.537-0.063,0.758-0.063c0.222,0,0.475,0.021,0.758,0.063s0.561,0.135,0.83,0.28
			c0.271,0.146,0.523,0.356,0.758,0.634c0.236,0.276,0.416,0.657,0.541,1.142l3.404,13.019c0,0.027,0.004,0.048,0.011,0.062
			C111.487,30.08,111.491,30.094,111.491,30.107z M105.511,17.629c-0.027-0.125-0.063-0.211-0.104-0.26
			c-0.041-0.049-0.117-0.072-0.229-0.072c-0.112,0-0.187,0.023-0.229,0.072c-0.041,0.049-0.076,0.135-0.104,0.26l-1.494,6.166h3.653
			L105.511,17.629z"/>
		<path fill="#CBCDCE" d="M124.177,19.851c0,0.913-0.163,1.682-0.489,2.304c-0.327,0.622-0.764,1.125-1.312,1.506
			c-0.549,0.381-1.184,0.649-1.904,0.812c-0.723,0.157-1.486,0.237-2.291,0.237c-0.277,0-0.597-0.011-0.957-0.03
			c-0.361-0.021-0.659-0.039-0.895-0.054v5.42c0,0.111-0.039,0.207-0.115,0.291c-0.076,0.082-0.17,0.124-0.279,0.124h-2.076
			c-0.111,0-0.209-0.042-0.291-0.124c-0.084-0.084-0.125-0.18-0.125-0.291V15.76c0-0.207,0.059-0.354,0.177-0.445
			c0.118-0.09,0.28-0.149,0.489-0.178c0.541-0.082,1.164-0.148,1.872-0.197c0.707-0.048,1.442-0.072,2.205-0.072
			c0.804,0,1.567,0.076,2.288,0.229c0.721,0.153,1.355,0.416,1.903,0.789c0.548,0.373,0.985,0.869,1.311,1.484
			c0.326,0.616,0.489,1.381,0.489,2.295V19.851L124.177,19.851z M121.29,19.652c0-0.875-0.259-1.497-0.777-1.865
			c-0.52-0.369-1.299-0.553-2.336-0.553c-0.111,0-0.254,0.004-0.426,0.01c-0.174,0.008-0.35,0.015-0.529,0.021
			c-0.181,0.008-0.35,0.014-0.51,0.021c-0.158,0.006-0.287,0.018-0.383,0.031v4.96c0.082,0,0.21,0.005,0.383,0.012
			c0.174,0.007,0.354,0.014,0.541,0.021s0.366,0.014,0.539,0.021c0.173,0.006,0.301,0.01,0.385,0.01c1.121,0,1.92-0.208,2.397-0.625
			c0.478-0.418,0.716-1.043,0.716-1.877V19.652z"/>
		<path fill="#CBCDCE" d="M137.174,19.851c0,0.913-0.162,1.682-0.488,2.304s-0.765,1.125-1.313,1.506s-1.184,0.649-1.905,0.812
			c-0.721,0.157-1.483,0.237-2.288,0.237c-0.279,0-0.599-0.011-0.959-0.03c-0.359-0.021-0.658-0.039-0.896-0.054v5.42
			c0,0.111-0.038,0.207-0.113,0.291c-0.075,0.082-0.17,0.124-0.281,0.124h-2.076c-0.111,0-0.207-0.042-0.291-0.124
			c-0.082-0.084-0.124-0.18-0.124-0.291V15.76c0-0.207,0.059-0.354,0.177-0.445c0.117-0.09,0.281-0.149,0.488-0.178
			c0.541-0.082,1.166-0.148,1.874-0.197c0.707-0.048,1.44-0.072,2.205-0.072c0.805,0,1.565,0.076,2.287,0.229
			c0.723,0.153,1.355,0.416,1.903,0.789c0.548,0.373,0.983,0.869,1.312,1.484c0.326,0.616,0.488,1.381,0.488,2.295V19.851z
			 M134.288,19.652c0-0.875-0.261-1.497-0.779-1.865c-0.519-0.369-1.297-0.553-2.336-0.553c-0.11,0-0.252,0.004-0.426,0.01
			c-0.172,0.008-0.351,0.015-0.529,0.021c-0.18,0.008-0.35,0.014-0.508,0.021c-0.16,0.006-0.287,0.018-0.385,0.031v4.96
			c0.084,0,0.211,0.005,0.385,0.012c0.172,0.007,0.353,0.014,0.539,0.021c0.188,0.008,0.367,0.014,0.54,0.021
			c0.173,0.006,0.302,0.01,0.384,0.01c1.121,0,1.921-0.208,2.397-0.625c0.479-0.418,0.718-1.043,0.718-1.877V19.652L134.288,19.652z
			"/>
		<path fill="#CBCDCE" d="M148.779,26.287c0,0.525-0.09,1.049-0.271,1.566c-0.181,0.52-0.481,0.983-0.903,1.392
			c-0.422,0.409-0.981,0.741-1.682,0.997c-0.699,0.256-1.566,0.384-2.605,0.384c-0.789,0-1.475-0.034-2.055-0.104
			c-0.582-0.069-1.121-0.158-1.621-0.271c-0.109-0.026-0.203-0.076-0.279-0.146c-0.075-0.068-0.114-0.158-0.114-0.271V28.34
			c0-0.109,0.039-0.203,0.114-0.279c0.076-0.076,0.17-0.115,0.279-0.115h0.043c0.207,0.029,0.48,0.054,0.819,0.074
			c0.339,0.02,0.688,0.041,1.048,0.062c0.36,0.021,0.703,0.039,1.028,0.053c0.325,0.015,0.585,0.021,0.778,0.021
			c0.928,0,1.561-0.159,1.899-0.479c0.339-0.317,0.509-0.78,0.509-1.391c0-0.208-0.027-0.392-0.082-0.552
			c-0.058-0.157-0.152-0.313-0.291-0.467c-0.14-0.152-0.318-0.309-0.541-0.467c-0.222-0.16-0.504-0.344-0.851-0.551l-2.741-1.641
			c-0.484-0.291-0.882-0.582-1.193-0.871c-0.312-0.291-0.562-0.592-0.748-0.904c-0.186-0.311-0.317-0.636-0.395-0.975
			c-0.076-0.34-0.113-0.689-0.113-1.049c0-0.568,0.09-1.094,0.27-1.578s0.475-0.903,0.883-1.256c0.408-0.354,0.941-0.627,1.6-0.82
			c0.656-0.193,1.471-0.291,2.439-0.291c0.346,0,0.713,0.011,1.1,0.031c0.389,0.021,0.77,0.052,1.144,0.094
			c0.373,0.041,0.713,0.083,1.019,0.125c0.303,0.041,0.545,0.082,0.727,0.124c0.109,0.028,0.199,0.073,0.27,0.135
			c0.068,0.063,0.104,0.149,0.104,0.26v1.536c0,0.111-0.031,0.201-0.095,0.27c-0.063,0.07-0.147,0.104-0.258,0.104h-0.043
			c-0.69-0.069-1.377-0.121-2.055-0.155c-0.68-0.035-1.357-0.053-2.035-0.053c-0.775,0-1.332,0.129-1.672,0.385
			c-0.339,0.256-0.508,0.619-0.508,1.09c0,0.166,0.023,0.322,0.072,0.467c0.049,0.146,0.139,0.291,0.27,0.436
			c0.133,0.146,0.309,0.295,0.529,0.447c0.222,0.152,0.498,0.318,0.83,0.498l2.492,1.391c0.566,0.318,1.037,0.642,1.412,0.966
			c0.373,0.325,0.668,0.661,0.883,1.008c0.213,0.346,0.365,0.705,0.455,1.08C148.734,25.477,148.779,25.871,148.779,26.287z"/>
		<path fill="#CBCDCE" d="M159.243,22.818h-6.955v7.246c0,0.11-0.031,0.205-0.095,0.28c-0.062,0.076-0.147,0.114-0.258,0.114h-0.209
			c-0.11,0-0.197-0.038-0.26-0.114c-0.063-0.075-0.093-0.17-0.093-0.28V17.359c0-0.873,0.222-1.479,0.664-1.817
			s1.06-0.509,1.849-0.509h5.355c0.264,0,0.395,0.118,0.395,0.354v0.166c0,0.221-0.131,0.332-0.395,0.332h-5.355
			c-0.25,0-0.475,0.018-0.676,0.052c-0.199,0.034-0.367,0.104-0.498,0.208s-0.234,0.252-0.311,0.446
			c-0.077,0.194-0.115,0.45-0.115,0.769v4.567h6.955c0.264,0,0.395,0.11,0.395,0.332v0.208
			C159.639,22.702,159.507,22.818,159.243,22.818z"/>
		<path fill="#CBCDCE" d="M172.139,24.045c0,1.162-0.133,2.155-0.396,2.979c-0.265,0.824-0.632,1.5-1.101,2.025
			c-0.472,0.525-1.031,0.912-1.683,1.162c-0.651,0.249-1.364,0.373-2.14,0.373c-0.774,0-1.487-0.124-2.139-0.373
			c-0.65-0.25-1.211-0.637-1.682-1.162s-0.838-1.201-1.102-2.025c-0.264-0.822-0.395-1.815-0.395-2.979V21.47
			c0-1.163,0.131-2.155,0.395-2.979c0.264-0.823,0.631-1.498,1.102-2.024c0.471-0.525,1.029-0.913,1.682-1.163
			c0.65-0.248,1.363-0.373,2.139-0.373s1.488,0.125,2.14,0.373c0.649,0.25,1.211,0.638,1.683,1.163
			c0.469,0.526,0.836,1.201,1.101,2.024c0.263,0.824,0.396,1.816,0.396,2.979V24.045z M171.225,21.466
			c0-1.055-0.111-1.946-0.332-2.676c-0.223-0.729-0.529-1.315-0.925-1.759c-0.396-0.445-0.86-0.764-1.401-0.959
			c-0.539-0.193-1.121-0.291-1.744-0.291c-0.622,0-1.203,0.098-1.743,0.291c-0.54,0.195-1.007,0.514-1.401,0.959
			c-0.395,0.443-0.703,1.03-0.924,1.759c-0.222,0.729-0.332,1.621-0.332,2.676v2.583c0,1.068,0.11,1.965,0.332,2.686
			c0.221,0.724,0.529,1.306,0.924,1.75c0.395,0.443,0.861,0.765,1.401,0.957c0.54,0.195,1.121,0.293,1.743,0.293
			c0.623,0,1.205-0.098,1.744-0.293c0.541-0.192,1.008-0.514,1.401-0.957c0.396-0.444,0.702-1.026,0.925-1.75
			c0.221-0.721,0.332-1.616,0.332-2.686V21.466z"/>
		<path fill="#CBCDCE" d="M184.762,29.857c0.082,0.139,0.109,0.272,0.082,0.404c-0.027,0.133-0.132,0.197-0.312,0.197h-0.271
			c-0.056,0-0.115-0.021-0.177-0.063c-0.063-0.043-0.106-0.084-0.136-0.125l-4.422-6.77c-0.193,0.016-0.346,0.018-0.457,0.012
			c-0.11-0.008-0.256-0.012-0.437-0.012h-1.641c-0.332,0-0.679-0.006-1.037-0.02v6.58c0,0.11-0.031,0.205-0.095,0.28
			c-0.063,0.076-0.148,0.114-0.26,0.114h-0.207c-0.11,0-0.197-0.038-0.26-0.114c-0.063-0.075-0.094-0.17-0.094-0.28V15.407
			c0-0.097,0.034-0.183,0.104-0.26c0.069-0.075,0.152-0.12,0.25-0.135c0.181-0.014,0.408-0.024,0.686-0.031
			c0.275-0.007,0.566-0.014,0.872-0.021c0.305-0.007,0.604-0.014,0.901-0.021c0.299-0.006,0.559-0.01,0.779-0.01
			c0.928,0,1.744,0.072,2.449,0.218c0.707,0.146,1.299,0.384,1.775,0.716c0.479,0.333,0.834,0.77,1.07,1.309
			c0.233,0.54,0.352,1.204,0.352,1.993v0.104c0,1.273-0.312,2.229-0.934,2.865c-0.623,0.636-1.552,1.06-2.783,1.267L184.762,29.857z
			 M183.37,19.165c0-0.654-0.103-1.198-0.302-1.63c-0.2-0.432-0.502-0.779-0.903-1.044c-0.401-0.265-0.896-0.449-1.483-0.554
			c-0.589-0.105-1.271-0.156-2.045-0.156c-0.443,0-0.922,0.007-1.434,0.021c-0.514,0.014-0.928,0.034-1.245,0.063v6.77
			c0.138,0,0.328,0,0.569,0c0.242,0,0.494,0.005,0.759,0.011c0.263,0.008,0.517,0.011,0.758,0.011c0.242,0,0.438,0,0.593,0
			c0.803,0,1.502-0.052,2.098-0.157c0.594-0.104,1.086-0.281,1.474-0.532s0.679-0.595,0.872-1.034
			c0.193-0.438,0.291-0.992,0.291-1.66L183.37,19.165L183.37,19.165z"/>
		<path fill="#CBCDCE" d="M197.053,30.273c-0.527,0.11-1.146,0.196-1.853,0.26c-0.707,0.062-1.603,0.093-2.685,0.093
			c-0.568,0-1.176-0.104-1.82-0.312c-0.646-0.207-1.248-0.554-1.811-1.039c-0.563-0.483-1.025-1.135-1.395-1.951
			c-0.367-0.816-0.551-1.84-0.551-3.072v-2.99c0-1.23,0.178-2.256,0.531-3.072c0.352-0.816,0.807-1.471,1.36-1.963
			c0.556-0.49,1.162-0.84,1.821-1.048c0.658-0.208,1.3-0.312,1.925-0.312c0.498,0,0.979,0.014,1.444,0.041
			c0.465,0.029,0.892,0.063,1.279,0.104c0.389,0.041,0.734,0.083,1.04,0.124c0.306,0.042,0.541,0.076,0.708,0.104
			c0.264,0.056,0.395,0.2,0.395,0.437v1.391c0,0.152-0.026,0.263-0.084,0.332c-0.055,0.069-0.166,0.104-0.334,0.104h-0.063
			c-0.486-0.041-1.092-0.079-1.816-0.113c-0.723-0.035-1.586-0.053-2.588-0.053c-0.348,0-0.686,0.066-1.013,0.197
			c-0.327,0.132-0.619,0.35-0.876,0.654c-0.258,0.305-0.463,0.709-0.615,1.215c-0.154,0.505-0.229,1.125-0.229,1.857v2.99
			c0,0.733,0.079,1.351,0.239,1.849c0.158,0.498,0.367,0.899,0.625,1.205c0.258,0.305,0.545,0.521,0.865,0.652
			s0.633,0.197,0.938,0.197c0.39,0,0.751-0.004,1.085-0.012c0.333-0.006,0.66-0.022,0.979-0.051v-5.295
			c0-0.111,0.039-0.208,0.114-0.291c0.077-0.083,0.172-0.125,0.283-0.125h2.069c0.111,0,0.209,0.042,0.293,0.125
			s0.125,0.18,0.125,0.291v6.977C197.445,30.052,197.314,30.218,197.053,30.273z"/>
		<path fill="#CBCDCE" d="M212.084,30.336c-0.083,0.082-0.182,0.124-0.29,0.124h-2.058c-0.109,0-0.207-0.042-0.289-0.124
			c-0.084-0.084-0.124-0.18-0.124-0.291v-6.354h-5.896v6.354c0,0.111-0.043,0.207-0.125,0.291c-0.084,0.082-0.181,0.124-0.291,0.124
			h-2.056c-0.11,0-0.209-0.042-0.291-0.124c-0.084-0.084-0.125-0.18-0.125-0.291V15.428c0-0.11,0.041-0.203,0.125-0.28
			c0.082-0.075,0.181-0.114,0.291-0.114h2.056c0.11,0,0.207,0.039,0.291,0.114c0.082,0.077,0.125,0.17,0.125,0.28v5.73h5.896v-5.73
			c0-0.11,0.04-0.203,0.124-0.28c0.082-0.075,0.18-0.114,0.289-0.114h2.058c0.108,0,0.207,0.039,0.29,0.114
			c0.083,0.077,0.124,0.17,0.124,0.28v14.617C212.208,30.156,212.167,30.252,212.084,30.336z"/>
		<path fill="#CBCDCE" d="M224.406,30.211c-0.063,0.055-0.17,0.098-0.321,0.125c-0.166,0.027-0.351,0.059-0.551,0.094
			c-0.201,0.033-0.449,0.064-0.747,0.094c-0.299,0.026-0.657,0.052-1.08,0.071c-0.423,0.021-0.943,0.031-1.566,0.031
			c-0.679,0-1.31-0.056-1.894-0.166s-1.091-0.321-1.522-0.634c-0.433-0.311-0.773-0.743-1.024-1.297
			c-0.251-0.555-0.376-1.273-0.376-2.16v-7.246c0-0.885,0.125-1.605,0.376-2.158c0.251-0.554,0.593-0.986,1.024-1.299
			c0.433-0.311,0.938-0.521,1.522-0.633c0.584-0.11,1.215-0.166,1.894-0.166c0.623,0,1.145,0.011,1.566,0.031
			c0.423,0.021,0.781,0.045,1.08,0.072c0.298,0.028,0.546,0.061,0.747,0.094c0.2,0.035,0.385,0.066,0.551,0.094
			c0.151,0.027,0.261,0.069,0.321,0.125c0.063,0.055,0.094,0.158,0.094,0.311v1.329c0,0.11-0.042,0.208-0.125,0.29
			c-0.083,0.084-0.18,0.125-0.29,0.125h-4.235c-0.609,0-1.035,0.125-1.277,0.374s-0.362,0.72-0.362,1.411v2.243h5.626
			c0.111,0,0.208,0.042,0.291,0.124c0.083,0.084,0.125,0.18,0.125,0.291v1.494c0,0.11-0.042,0.209-0.125,0.291
			c-0.083,0.084-0.18,0.125-0.291,0.125h-5.626v2.678c0,0.693,0.12,1.163,0.362,1.412c0.242,0.25,0.668,0.374,1.277,0.374h4.235
			c0.11,0,0.207,0.042,0.29,0.124c0.083,0.084,0.125,0.181,0.125,0.291v1.328C224.5,30.052,224.469,30.156,224.406,30.211z"/>
		<path fill="#CBCDCE" d="M238.712,30.221c-0.159,0.16-0.356,0.239-0.592,0.239h-2.099c-0.248,0-0.479-0.03-0.694-0.093
			c-0.216-0.063-0.404-0.281-0.57-0.654l-4.608-10.111c-0.058-0.111-0.119-0.166-0.188-0.166s-0.104,0.055-0.104,0.166v10.443
			c0,0.111-0.039,0.207-0.113,0.291c-0.076,0.082-0.17,0.124-0.28,0.124h-1.765c-0.111,0-0.209-0.042-0.291-0.124
			c-0.084-0.084-0.124-0.18-0.124-0.291V15.863c0-0.234,0.079-0.432,0.237-0.591c0.16-0.159,0.356-0.239,0.592-0.239h2.242
			c0.222,0,0.398,0.042,0.529,0.125c0.133,0.083,0.26,0.263,0.385,0.539l4.838,10.672c0.041,0.111,0.097,0.166,0.166,0.166
			c0.068,0,0.104-0.063,0.104-0.186V15.428c0-0.263,0.131-0.395,0.396-0.395h1.785c0.262,0,0.395,0.132,0.395,0.395v14.201
			C238.95,29.865,238.87,30.063,238.712,30.221z"/>
		<path fill="#CBCDCE" d="M251.283,17.338c-0.083,0.07-0.182,0.104-0.291,0.104h-3.635v12.604c0,0.111-0.041,0.207-0.123,0.291
			c-0.084,0.082-0.182,0.124-0.291,0.124h-2.057c-0.109,0-0.207-0.042-0.289-0.124c-0.084-0.084-0.125-0.18-0.125-0.291V17.441
			h-3.635c-0.109,0-0.207-0.033-0.29-0.104c-0.083-0.068-0.124-0.158-0.124-0.27v-1.641c0-0.11,0.041-0.203,0.124-0.28
			c0.083-0.075,0.181-0.114,0.29-0.114h10.153c0.11,0,0.208,0.039,0.291,0.114c0.083,0.077,0.124,0.17,0.124,0.28v1.641
			C251.407,17.18,251.366,17.27,251.283,17.338z"/>
	</g>
</g>
<path fill="#ED334C" d="M18.834,4.294c-0.046,0.026-0.081,0.062-0.125,0.09c0.062-0.041,0.122-0.083,0.188-0.118
	C18.876,4.277,18.854,4.282,18.834,4.294z"/>
<path fill="#ED334C" d="M21.94,4.703c0.059,0.058,0.117,0.115,0.168,0.177C22.056,4.816,21.999,4.76,21.94,4.703z"/>
<path fill="#ED334C" d="M19.155,4.148c0.072-0.029,0.143-0.061,0.218-0.084C19.299,4.087,19.228,4.119,19.155,4.148z"/>
<path fill="#ED334C" d="M21.075,4.139c0.085,0.033,0.17,0.066,0.252,0.109C21.245,4.206,21.161,4.173,21.075,4.139z"/>
<path fill="#ED334C" d="M19.617,4.009c0.081-0.017,0.163-0.036,0.247-0.044C19.78,3.973,19.699,3.992,19.617,4.009z"/>
<path fill="#FF3333" d="M22.368,5.24c-0.025-0.045-0.061-0.08-0.088-0.123c0.513,0.782,0.594,1.811,0.104,2.683l-2.224,3.966
	l13.729,23.779c0.479,0.83,1.349,1.294,2.242,1.294c0.439,0,0.885-0.112,1.292-0.348c1.237-0.714,1.661-2.298,0.946-3.534
	L22.368,5.24z"/>
<path fill="#ED334C" d="M20.612,4.004c0.079,0.015,0.158,0.027,0.236,0.051C20.771,4.031,20.692,4.02,20.612,4.004z"/>
<path fill="#ED334C" d="M17.963,5.138c0.052-0.079,0.103-0.158,0.161-0.229C18.064,4.981,18.014,5.059,17.963,5.138z"/>
<path fill="#ED334C" d="M20.114,3.958c0.081-0.001,0.162-0.004,0.243,0.003C20.276,3.954,20.195,3.957,20.114,3.958z"/>
<path fill="#ED334C" d="M18.295,4.723c0.059-0.059,0.117-0.118,0.181-0.171C18.411,4.605,18.353,4.664,18.295,4.723z"/>
<path fill="#ED334C" d="M21.524,4.369c0.079,0.051,0.157,0.103,0.229,0.16C21.681,4.471,21.603,4.42,21.524,4.369z"/>
<path fill="#FF3333" d="M17.963,5.138c-0.029,0.046-0.065,0.083-0.092,0.131L2.331,32.984c-0.699,1.248-0.255,2.824,0.991,3.522
	c0.4,0.226,0.835,0.331,1.264,0.331c0.905,0,1.784-0.477,2.259-1.322l13.316-23.75l-2.273-3.938
	C17.386,6.96,17.456,5.927,17.963,5.138z"/>
<path fill="#ED334C" d="M22.108,4.88c0.063,0.074,0.117,0.155,0.172,0.237C22.226,5.036,22.172,4.956,22.108,4.88z"/>
<path fill="#ED334C" d="M21.753,4.529c0.066,0.054,0.127,0.113,0.188,0.174C21.88,4.644,21.82,4.584,21.753,4.529z"/>
<path fill="#ED334C" d="M20.849,4.055c0.078,0.022,0.152,0.055,0.227,0.084C21,4.109,20.926,4.077,20.849,4.055z"/>
<path fill="#ED334C" d="M18.476,4.552c0.072-0.061,0.152-0.114,0.233-0.168C18.629,4.437,18.55,4.49,18.476,4.552z"/>
<path fill="#ED334C" d="M18.896,4.266c0.085-0.046,0.172-0.081,0.259-0.117C19.067,4.185,18.98,4.221,18.896,4.266z"/>
<path fill="#ED334C" d="M18.124,4.908c0.053-0.065,0.111-0.125,0.171-0.186C18.236,4.782,18.178,4.842,18.124,4.908z"/>
<path fill="#ED334C" d="M19.373,4.064c0.081-0.024,0.162-0.039,0.244-0.056C19.534,4.025,19.453,4.04,19.373,4.064z"/>
<path fill="#ED334C" d="M21.394,4.277c-0.021-0.012-0.045-0.018-0.066-0.029c0.068,0.036,0.133,0.079,0.197,0.121
	C21.479,4.34,21.441,4.304,21.394,4.277z"/>
<path fill="#ED334C" d="M20.357,3.961c0.086,0.008,0.17,0.026,0.255,0.043C20.526,3.987,20.442,3.969,20.357,3.961z"/>
<path fill="#ED334C" d="M19.864,3.965c0.083-0.009,0.166-0.007,0.25-0.007C20.03,3.958,19.946,3.956,19.864,3.965z"/>
<path fill="#FF0A0A" d="M22.28,5.117c-0.055-0.082-0.109-0.163-0.172-0.237c-0.051-0.062-0.109-0.119-0.168-0.177
	c-0.061-0.061-0.121-0.12-0.188-0.174c-0.071-0.058-0.149-0.109-0.229-0.16c-0.064-0.042-0.129-0.085-0.197-0.121
	c-0.082-0.043-0.167-0.076-0.252-0.109C21,4.11,20.926,4.077,20.847,4.055c-0.078-0.023-0.157-0.036-0.236-0.051
	c-0.085-0.017-0.169-0.035-0.255-0.043c-0.081-0.007-0.162-0.004-0.243-0.003c-0.084,0-0.167-0.002-0.25,0.007
	c-0.084,0.008-0.166,0.027-0.247,0.044c-0.082,0.017-0.163,0.031-0.244,0.056c-0.075,0.023-0.146,0.055-0.218,0.084
	c-0.087,0.036-0.174,0.071-0.259,0.117c-0.065,0.035-0.126,0.077-0.188,0.118c-0.081,0.054-0.161,0.107-0.233,0.168
	c-0.063,0.053-0.122,0.112-0.181,0.171c-0.06,0.061-0.118,0.12-0.171,0.186c-0.059,0.071-0.109,0.15-0.161,0.229
	c-0.507,0.789-0.577,1.822-0.075,2.69l2.273,3.938L22.385,7.8C22.874,6.928,22.793,5.899,22.28,5.117z"/>
<path fill="#FF3333" d="M27.85,31.637H12.87c-1.429,0-2.587,1.158-2.587,2.588c0,1.428,1.158,2.586,2.587,2.586h14.98
	c1.429,0,2.587-1.158,2.587-2.586C30.437,32.795,29.278,31.637,27.85,31.637z"/>
<path fill="#00DBC0" d="M83.813,24.158h-2.786C79.883,29.212,75.364,33,69.971,33c-6.253,0-11.341-5.088-11.341-11.342
	c0-6.254,5.088-11.342,11.341-11.342c1.381,0,2.5-1.119,2.5-2.5c0-1.381-1.119-2.5-2.5-2.5c-9.011,0-16.341,7.331-16.341,16.342
	C53.63,30.669,60.96,38,69.971,38c9.011,0,16.342-7.331,16.342-16.342C86.313,23.039,85.193,24.158,83.813,24.158z"/>
<path fill="#00DBC0" d="M83.813,19.158h-13.84c-1.381,0-2.5,1.119-2.5,2.5c0,1.381,1.119,2.5,2.5,2.5h11.054
	c0.182-0.807,0.286-1.641,0.286-2.5C81.313,20.277,82.432,19.158,83.813,19.158z"/>
<path fill="#00BC91" d="M86.313,21.658c0-1.381-1.119-2.5-2.5-2.5s-2.5,1.119-2.5,2.5c0,0.859-0.104,1.693-0.286,2.5h2.786
	C85.193,24.158,86.313,23.039,86.313,21.658z"/>
<path fill="#6D6E71" d="M38.521,19.867c0.016-0.081,0.027-0.162,0.052-0.241C38.55,19.705,38.537,19.786,38.521,19.867z"/>
<path fill="#6D6E71" d="M38.657,19.408c0.035-0.087,0.067-0.174,0.112-0.259C38.726,19.233,38.692,19.32,38.657,19.408z"/>
<path fill="#6D6E71" d="M38.657,21.32c-0.029-0.072-0.063-0.144-0.084-0.219C38.595,21.177,38.628,21.248,38.657,21.32z"/>
<path fill="#6D6E71" d="M38.473,20.364c0-0.083-0.005-0.165,0.003-0.247C38.468,20.199,38.473,20.281,38.473,20.364z"/>
<path fill="#6D6E71" d="M41.047,22.952c-0.429,0-0.863-0.106-1.264-0.331c-0.448-0.252-0.788-0.619-1.014-1.042
	c0.009,0.017,0.013,0.034,0.022,0.051l7.951,14.179c0.475,0.846,1.354,1.321,2.259,1.321c0.429,0,0.863-0.106,1.264-0.331
	c1.246-0.699,1.69-2.275,0.991-3.521l-7.241-12.912l-0.71,1.266C42.831,22.477,41.952,22.952,41.047,22.952z"/>
<path fill="#6D6E71" d="M38.521,20.861c-0.017-0.084-0.037-0.166-0.046-0.25C38.484,20.695,38.505,20.777,38.521,20.861z"/>
<path fill="#6D6E71" d="M50.266,3.932c-1.245-0.698-2.823-0.255-3.522,0.991l-7.951,14.176c-0.01,0.017-0.014,0.034-0.022,0.051
	c0.226-0.423,0.565-0.79,1.014-1.042c1.247-0.699,2.823-0.255,3.522,0.991l0.71,1.266l7.241-12.91
	C51.956,6.208,51.512,4.631,50.266,3.932z"/>
<path fill="#6D6E71" d="M38.77,21.579c-0.045-0.085-0.077-0.172-0.112-0.259C38.692,21.408,38.726,21.495,38.77,21.579z"/>
<path fill="#6D6E71" d="M38.476,20.117c0.009-0.085,0.029-0.167,0.046-0.25C38.505,19.95,38.484,20.033,38.476,20.117z"/>
<path fill="#6D6E71" d="M38.573,21.104c-0.024-0.08-0.036-0.16-0.052-0.242C38.537,20.941,38.55,21.023,38.573,21.104z"/>
<path fill="#6D6E71" d="M38.476,20.611c-0.008-0.082-0.003-0.164-0.003-0.247C38.473,20.447,38.468,20.529,38.476,20.611z"/>
<path fill="#6D6E71" d="M38.573,19.626c0.021-0.075,0.055-0.146,0.084-0.218C38.628,19.48,38.595,19.552,38.573,19.626z"/>
<path fill="#2F2F32" d="M39.783,18.107c-0.448,0.252-0.788,0.619-1.014,1.042c-0.045,0.085-0.077,0.172-0.112,0.259
	c-0.029,0.072-0.063,0.143-0.084,0.218c-0.024,0.079-0.036,0.16-0.052,0.241c-0.017,0.083-0.037,0.165-0.046,0.25
	c-0.008,0.082-0.003,0.164-0.003,0.247s-0.005,0.165,0.003,0.247c0.009,0.084,0.029,0.166,0.046,0.25
	c0.016,0.08,0.027,0.162,0.052,0.24c0.021,0.075,0.055,0.146,0.084,0.219c0.035,0.087,0.067,0.174,0.112,0.259
	c0.226,0.423,0.565,0.79,1.014,1.042c0.4,0.225,0.835,0.331,1.264,0.331c0.905,0,1.784-0.478,2.259-1.322l0.71-1.266l-0.71-1.266
	C42.606,17.853,41.03,17.408,39.783,18.107z"/>
<g id="Capa_1">
</g>
</svg>
