<?xml version="1.0" encoding="utf-8"?>
<!-- Generator: Adobe Illustrator 16.0.0, SVG Export Plug-In . SVG Version: 6.00 Build 0)  -->
<!DOCTYPE svg PUBLIC "-//W3C//DTD SVG 1.1//EN" "http://www.w3.org/Graphics/SVG/1.1/DTD/svg11.dtd">
<svg version="1.1" xmlns="http://www.w3.org/2000/svg" xmlns:xlink="http://www.w3.org/1999/xlink" x="0px" y="0px" width="50px"
	 height="50px" viewBox="0 0 50 50" enable-background="new 0 0 50 50" xml:space="preserve">
<g id="_x3C_Guides_x3E_" display="none">
</g>
<g id="BG">
</g>
<g id="Laag_1">
</g>
<g id="Capa_1">
	<g>
		<g>
			<path fill="#646464" d="M43.721,13.389c-1.375,0.607-2.855,1.025-4.41,1.209c1.588-0.951,2.803-2.451,3.381-4.248
				c-1.49,0.879-3.133,1.52-4.885,1.871c-1.402-1.502-3.398-2.428-5.605-2.428c-4.24,0-7.678,3.436-7.678,7.678
				c0,0.598,0.066,1.186,0.193,1.748c-6.383-0.32-12.035-3.379-15.832-8.023c-0.662,1.127-1.039,2.451-1.039,3.857
				c0,2.668,1.359,5.018,3.42,6.393c-1.262-0.039-2.447-0.389-3.482-0.961v0.092c0,3.723,2.646,6.826,6.16,7.535
				c-0.646,0.174-1.322,0.268-2.025,0.268c-0.488,0-0.975-0.047-1.443-0.143c0.98,3.057,3.814,5.277,7.172,5.338
				c-2.623,2.057-5.938,3.287-9.535,3.287c-0.623,0-1.234-0.045-1.832-0.111c3.395,2.182,7.43,3.457,11.77,3.457
				c14.133,0,21.855-11.703,21.855-21.854l-0.021-0.994C41.391,16.279,42.691,14.928,43.721,13.389z"/>
		</g>
	</g>
</g>
</svg>
